<svg width="99" height="80" viewBox="0 0 99 80" fill="none" xmlns="http://www.w3.org/2000/svg">
<path d="M49.4012 17.0715L78.2453 30.4839V32.8661L49.4012 46.2695L20.5615 32.8661V30.4839L49.4012 17.0715Z" fill="#FFB73E"/>
<path d="M34.4643 41.7751C32.1824 44.3014 31.842 47.386 31.8115 51.5528L49.399 60.0608L66.9865 51.5528C66.9691 47.3817 66.6244 44.3014 64.3381 41.7751L49.3989 48.7212L34.4643 41.7751Z" fill="#FFB73E"/>
<path d="M89.7099 7.86117C93.0782 11.0287 94.6664 14.6501 94.4875 17.9442C94.2999 21.2209 92.3495 24.1049 89.3129 25.4269C86.2761 26.7576 83.5841 26.3213 81.6208 24.6633C79.6356 22.9966 78.3571 20.1475 78.3702 16.5611C78.3702 15.8325 78.92 15.7408 79.3257 15.8979C82.0309 16.9102 84.2648 17.7871 86.1322 19.5236C85.325 15.4049 87.3015 11.212 88.5799 8.09725C88.798 7.55187 89.3609 7.53394 89.7099 7.86117Z" fill="#FFB73E"/>
<path d="M96.9587 42.8619C98.0015 47.369 97.3034 51.2608 95.3138 53.8962C93.3417 56.5184 90.1174 57.8316 86.8538 57.2427C83.5902 56.6536 81.592 54.7993 80.8807 52.3299C80.1651 49.8429 80.6713 46.7625 82.687 43.7913C83.0928 43.1805 83.6033 43.4074 83.8564 43.7652C85.5274 46.1125 86.9062 48.0846 87.4951 50.5628C89.1095 46.6928 93.0843 44.3061 95.8766 42.4212C96.3784 42.0984 96.8496 42.3907 96.9587 42.8619Z" fill="#FFB73E"/>
<path d="M89.7671 60.8068C88.7766 65.327 86.4817 68.5426 83.554 70.0827C80.6525 71.6011 77.1709 71.4004 74.4745 69.4763C71.778 67.5521 70.7702 65.0172 71.1891 62.4823C71.6036 59.9211 73.3881 57.3644 76.4772 55.5406C77.1054 55.1654 77.4632 55.593 77.5417 56.0206C78.0522 58.8566 78.4449 61.2213 77.9082 63.7258C81.0322 60.9116 85.6484 60.4621 88.973 59.9648C89.5663 59.8775 89.8718 60.34 89.7671 60.8068Z" fill="#FFB73E"/>
<path fill-rule="evenodd" clip-rule="evenodd" d="M53.6502 75.7504C53.6502 78.089 51.748 79.9957 49.4006 79.9957C47.0532 79.9957 45.1553 78.089 45.1553 75.7504C45.1553 73.403 47.0532 71.4963 49.4006 71.4963C51.748 71.4963 53.6502 73.4073 53.6502 75.7504Z" fill="#FFB73E"/>
<path d="M81.7961 13.7162C75.7794 11.814 75.2471 7.79552 75.2471 1.32927C75.2471 0.0072486 75.4696 -0.13237 76.4862 0.0814141C83.2664 1.51692 85.9977 7.76044 83.502 13.114C83.0919 13.991 82.5858 13.9693 81.7961 13.7162Z" fill="#FFB73E"/>
<path d="M95.9989 24.1698C98.5906 28.0006 99.3498 31.8793 98.4422 35.0557C97.5478 38.2145 95.0085 40.6011 91.7536 41.2294C88.4943 41.8577 85.9681 40.8411 84.4149 38.7948C82.853 36.731 82.2159 33.6726 83.0187 30.1777C83.1845 29.4666 83.7343 29.4971 84.1051 29.7371C86.5091 31.3209 88.5031 32.6647 89.9473 34.7721C90.0564 30.5704 92.9055 26.9186 94.8427 24.1567C95.1874 23.6724 95.7327 23.7771 95.9989 24.1698Z" fill="#FFB73E"/>
<path d="M76.4734 74.7162C73.4804 78.2415 69.9507 80.0086 66.639 79.9999C63.3624 79.9781 60.3823 78.1761 58.9033 75.2092C57.4242 72.2422 57.7209 69.5329 59.2698 67.4908C60.8404 65.4227 63.6154 63.9917 67.1932 63.8303C67.9262 63.791 68.0483 64.332 67.9087 64.7552C67.0361 67.4952 66.2726 69.7772 64.632 71.7275C68.7028 70.7152 72.9961 72.4779 76.1724 73.5905C76.7396 73.7912 76.7832 74.3453 76.4734 74.7162Z" fill="#FFB73E"/>
<path d="M9.0946 7.86117C5.72632 11.0287 4.14249 14.6501 4.32578 17.9442C4.50903 21.2209 6.45938 24.1049 9.50474 25.4269C12.5415 26.7576 15.2335 26.3213 17.1968 24.6633C19.1776 22.9966 20.4605 20.1475 20.4429 16.5611C20.4429 15.8325 19.8932 15.7408 19.4874 15.8979C16.791 16.9102 14.5571 17.7871 12.6809 19.5236C13.4968 15.4049 11.5116 11.212 10.2376 8.09725C10.0064 7.55187 9.4436 7.53394 9.0946 7.86117Z" fill="#FFB73E"/>
<path d="M1.84768 42.8619C0.813629 47.369 1.503 51.2608 3.48825 53.8962C5.46034 56.5184 8.69346 57.8316 11.9526 57.2427C15.2162 56.6536 17.2101 54.7993 17.9214 52.3299C18.6369 49.8429 18.1308 46.7625 16.1194 43.7913C15.7136 43.1805 15.2075 43.4074 14.9501 43.7652C13.2746 46.1125 11.9002 48.0846 11.32 50.5628C9.70129 46.6928 5.72215 44.3061 2.92978 42.4212C2.43675 42.0984 1.95676 42.3907 1.84768 42.8619Z" fill="#FFB73E"/>
<path d="M9.03333 60.8068C10.0281 65.327 12.3231 68.5426 15.2464 70.0827C18.1566 71.6011 21.634 71.4004 24.3259 69.4763C27.0267 67.5521 28.0302 65.0172 27.6157 62.4823C27.1968 59.9211 25.4211 57.3644 22.3276 55.5406C21.6993 55.1654 21.3372 55.593 21.2586 56.0206C20.7482 58.8566 20.3511 61.2213 20.8834 63.7258C17.7594 60.9116 13.1476 60.4621 9.82305 59.9648C9.24276 59.8775 8.93297 60.34 9.03333 60.8068Z" fill="#FFB73E"/>
<path d="M17.0041 13.7162C23.0208 11.814 23.5575 7.79552 23.5575 1.32927C23.5575 0.0072486 23.3306 -0.13237 22.3184 0.0814141C15.5338 1.51692 12.8025 7.76044 15.3069 13.114C15.7127 13.991 16.2188 13.9693 17.0041 13.7162Z" fill="#FFB73E"/>
<path d="M2.8069 24.1698C0.215243 28.0006 -0.535235 31.8793 0.363574 35.0557C1.26237 38.2145 3.80166 40.6011 7.06092 41.2294C10.3115 41.8577 12.842 40.8411 14.3996 38.7948C15.9616 36.731 16.5898 33.6726 15.7914 30.1777C15.63 29.4666 15.0715 29.4971 14.7138 29.7371C12.3054 31.3209 10.3114 32.6647 8.87156 34.7721C8.75812 30.5704 5.90472 26.9186 3.97619 24.1567C3.62278 23.6724 3.07744 23.7771 2.8069 24.1698Z" fill="#FFB73E"/>
<path d="M22.3316 74.7162C25.3247 78.2415 28.8588 80.0086 32.1617 79.9999C35.4384 79.9781 38.4271 78.1761 39.9061 75.2092C41.3852 72.2423 41.0842 69.5329 39.5309 67.4908C37.9603 65.4227 35.194 63.9917 31.6075 63.8303C30.8789 63.791 30.7611 64.332 30.892 64.7552C31.7689 67.4952 32.5281 69.7772 34.1774 71.7275C30.0979 70.7152 25.8133 72.4779 22.6415 73.5905C22.0743 73.7912 22.0218 74.3453 22.3316 74.7162Z" fill="#FFB73E"/>
</svg>
