<svg width="366" height="195" viewBox="0 0 366 195" fill="none" xmlns="http://www.w3.org/2000/svg">
<path d="M65.8321 89.382L64.0479 94.6144C76.1407 100.48 83.8175 106.761 82.7826 109.87C81.9797 112.252 75.2664 115.142 73.6829 115.562L73.5223 115.602L70.0519 116.494C68.2676 117.109 67.0008 118.162 66.4477 119.483C65.3682 122.07 66.809 126.031 71.1002 128.181C71.2621 128.262 71.4385 128.31 71.6192 128.323C71.7999 128.336 71.9813 128.314 72.1532 128.256C72.3251 128.199 72.4841 128.109 72.621 127.99C72.758 127.872 72.8702 127.727 72.9513 127.565C73.0325 127.403 73.0809 127.227 73.0939 127.046C73.1068 126.866 73.0841 126.684 73.0269 126.512C72.9698 126.34 72.8793 126.181 72.7607 126.044C72.6421 125.907 72.4977 125.795 72.3358 125.714L72.2376 125.656C72.5935 125.778 72.9571 125.877 73.326 125.951C73.4156 125.968 73.5068 125.977 73.5981 125.977C73.9359 125.979 74.2623 125.856 74.5151 125.632C74.7678 125.408 74.9292 125.098 74.9684 124.763C75.0076 124.427 74.9218 124.089 74.7275 123.813C74.5331 123.537 74.2438 123.342 73.9148 123.265C74.4947 123.39 75.1415 123.502 75.882 123.613H76.0872C76.4374 123.617 76.7758 123.487 77.0337 123.25C77.2916 123.013 77.4497 122.687 77.4758 122.338C77.5019 121.988 77.3941 121.642 77.1743 121.37C76.9545 121.097 76.6392 120.918 76.2924 120.87L76.0069 120.825H75.8954C76.5065 120.517 77.354 120.076 78.3443 119.514C81.6229 117.658 87.8856 114.112 88.9205 111.538C90.6468 107.251 81.1902 98.0089 65.8321 89.382Z" fill="#0068C7"/>
<path d="M25.0751 96.8492L23.2908 91.6124C7.9283 100.221 -1.52384 109.486 0.202435 113.786C1.23731 116.356 7.50007 119.902 10.7787 121.762C11.7689 122.32 12.6165 122.761 13.2276 123.073H13.116L12.8306 123.114C12.4888 123.169 12.1802 123.35 11.9658 123.622C11.7514 123.894 11.6467 124.236 11.6725 124.582C11.6983 124.927 11.8526 125.25 12.105 125.487C12.3574 125.724 12.6896 125.857 13.0358 125.861H13.2409C13.9814 125.75 14.6282 125.634 15.2081 125.509C14.8822 125.589 14.5969 125.786 14.4056 126.062C14.2143 126.337 14.1301 126.673 14.169 127.007C14.2079 127.34 14.367 127.648 14.6167 127.872C14.8663 128.097 15.1892 128.222 15.5248 128.225C15.6162 128.225 15.7073 128.216 15.7969 128.199C16.1655 128.123 16.529 128.025 16.8853 127.904C16.8536 127.924 16.8208 127.942 16.7872 127.958C16.5076 128.096 16.2832 128.325 16.1505 128.607C16.0179 128.889 15.9848 129.208 16.0568 129.512C16.1288 129.815 16.3015 130.085 16.5468 130.278C16.7921 130.47 17.0954 130.574 17.4072 130.572C17.6227 130.573 17.8354 130.523 18.0272 130.425C22.3139 128.279 23.7547 124.318 22.6752 121.731C22.1221 120.393 20.891 119.358 19.071 118.738L15.6006 117.846L15.4401 117.801C13.8565 117.386 7.14322 114.491 6.3403 112.114C5.30543 108.991 12.9822 102.715 25.0751 96.8492Z" fill="#0068C7"/>
<path d="M54.2883 88.9716L48.7705 89.1188L51.0856 177.239H51.1257V177.288L66.4704 176.789L56.3715 168.349L54.2883 88.9716Z" fill="#0068C7"/>
<path d="M39.7772 88.9136L34.2549 89.0117L35.6957 168.411L25.9893 177.297L41.3562 177.11V177.061H41.3964L39.7772 88.9136Z" fill="#0068C7"/>
<path d="M66.4433 38.6509H26.0163C23.7351 38.6509 21.8857 40.5002 21.8857 42.7815V137.727C21.8857 140.008 23.7351 141.857 26.0163 141.857H66.4433C68.7245 141.857 70.5739 140.008 70.5739 137.727V42.7815C70.5739 40.5002 68.7245 38.6509 66.4433 38.6509Z" fill="#0068C7"/>
<path d="M40.0891 79.9343C39.5448 79.9343 39.0127 80.0957 38.5601 80.3981C38.1075 80.7005 37.7547 81.1304 37.5464 81.6333C37.3381 82.1362 37.2836 82.6895 37.3898 83.2234C37.496 83.7573 37.7581 84.2477 38.143 84.6326C38.5279 85.0175 39.0183 85.2796 39.5522 85.3858C40.0861 85.492 40.6395 85.4375 41.1424 85.2292C41.6453 85.0209 42.0751 84.6682 42.3775 84.2155C42.68 83.7629 42.8414 83.2308 42.8414 82.6865C42.8414 81.9565 42.5514 81.2565 42.0353 80.7404C41.5191 80.2242 40.8191 79.9343 40.0891 79.9343Z" fill="white"/>
<mask id="mask0_123_827" style="mask-type:luminance" maskUnits="userSpaceOnUse" x="37" y="79" width="6" height="7">
<path d="M40.0911 85.4387C41.6111 85.4387 42.8433 84.2065 42.8433 82.6865C42.8433 81.1665 41.6111 79.9343 40.0911 79.9343C38.5711 79.9343 37.3389 81.1665 37.3389 82.6865C37.3389 84.2065 38.5711 85.4387 40.0911 85.4387Z" fill="white"/>
</mask>
<g mask="url(#mask0_123_827)">
<path d="M41.7762 81.0138C41.2317 81.0129 40.6991 81.1736 40.246 81.4755C39.7928 81.7773 39.4393 82.2069 39.2303 82.7097C39.0213 83.2125 38.9662 83.7661 39.0719 84.3002C39.1776 84.8344 39.4393 85.3252 39.8241 85.7106C40.2088 86.0959 40.6992 86.3585 41.2332 86.465C41.7672 86.5716 42.3208 86.5174 42.824 86.3092C43.3271 86.101 43.7572 85.7482 44.0598 85.2955C44.3625 84.8428 44.524 84.3106 44.524 83.766C44.524 83.0369 44.2346 82.3375 43.7195 81.8215C43.2043 81.3055 42.5054 81.015 41.7762 81.0138Z" fill="#180C47"/>
</g>
<path d="M42.4225 74.1533L37.1232 76.8966C36.9859 76.9671 36.8763 77.0818 36.8121 77.2223C36.748 77.3627 36.733 77.5206 36.7696 77.6706C36.8062 77.8206 36.8922 77.9538 37.0138 78.0489C37.1354 78.144 37.2855 78.1954 37.4399 78.1947C37.5501 78.1957 37.6589 78.1697 37.7566 78.1189L43.0559 75.38C43.1418 75.3417 43.219 75.2862 43.2828 75.2169C43.3465 75.1477 43.3955 75.0662 43.4266 74.9774C43.4577 74.8886 43.4704 74.7943 43.4639 74.7005C43.4573 74.6066 43.4317 74.515 43.3885 74.4314C43.3453 74.3478 43.2855 74.2739 43.2128 74.2142C43.14 74.1545 43.0558 74.1102 42.9654 74.0842C42.875 74.0582 42.7802 74.0509 42.6868 74.0628C42.5935 74.0746 42.5035 74.1055 42.4225 74.1533Z" fill="#180C47"/>
<path d="M52.3694 79.9343C51.8251 79.9343 51.293 80.0957 50.8404 80.3981C50.3878 80.7005 50.035 81.1304 49.8267 81.6333C49.6184 82.1362 49.5639 82.6895 49.6701 83.2234C49.7763 83.7573 50.0384 84.2477 50.4233 84.6326C50.8082 85.0175 51.2986 85.2796 51.8325 85.3858C52.3664 85.492 52.9197 85.4375 53.4226 85.2292C53.9256 85.0209 54.3554 84.6682 54.6578 84.2156C54.9602 83.763 55.1216 83.2308 55.1216 82.6865C55.1222 82.3249 55.0514 81.9667 54.9133 81.6326C54.7752 81.2984 54.5725 80.9947 54.3168 80.7391C54.0612 80.4834 53.7575 80.2807 53.4233 80.1426C53.0892 80.0045 52.731 79.9337 52.3694 79.9343Z" fill="white"/>
<mask id="mask1_123_827" style="mask-type:luminance" maskUnits="userSpaceOnUse" x="49" y="79" width="7" height="7">
<path d="M52.3704 85.4387C53.8904 85.4387 55.1226 84.2065 55.1226 82.6865C55.1226 81.1665 53.8904 79.9343 52.3704 79.9343C50.8504 79.9343 49.6182 81.1665 49.6182 82.6865C49.6182 84.2065 50.8504 85.4387 52.3704 85.4387Z" fill="white"/>
</mask>
<g mask="url(#mask1_123_827)">
<path d="M54.0569 81.0137C53.5126 81.0137 52.9805 81.1751 52.5279 81.4776C52.0753 81.78 51.7225 82.2098 51.5142 82.7127C51.3059 83.2156 51.2514 83.769 51.3576 84.3029C51.4638 84.8368 51.7259 85.3272 52.1108 85.7121C52.4957 86.097 52.9861 86.3591 53.52 86.4653C54.0539 86.5715 54.6072 86.517 55.1101 86.3087C55.6131 86.1004 56.0429 85.7476 56.3453 85.295C56.6477 84.8424 56.8091 84.3103 56.8091 83.766C56.8091 83.036 56.5192 82.336 56.003 81.8198C55.4869 81.3037 54.7868 81.0137 54.0569 81.0137Z" fill="#180C47"/>
</g>
<path d="M54.703 73.4752L49.4082 76.2096C49.2726 76.2814 49.1646 76.3962 49.1014 76.536C49.0382 76.6759 49.0233 76.8328 49.0591 76.982C49.0949 77.1312 49.1793 77.2643 49.299 77.3603C49.4188 77.4563 49.567 77.5097 49.7205 77.5121C49.8311 77.5125 49.9401 77.4849 50.0372 77.4318L55.3186 74.693C55.4807 74.609 55.6027 74.4641 55.658 74.2901C55.7132 74.1161 55.697 73.9273 55.613 73.7652C55.529 73.6031 55.3841 73.481 55.2101 73.4258C55.0361 73.3706 54.8473 73.3868 54.6852 73.4708L54.703 73.4752Z" fill="#180C47"/>
<path d="M46.2244 89.8415C45.6088 89.8206 45.015 89.6082 44.5257 89.2341C44.0364 88.8599 43.6759 88.3425 43.4945 87.7539L42.7139 88.017C42.9496 88.77 43.4147 89.4305 44.044 89.9064C44.6734 90.3822 45.4357 90.6496 46.2244 90.6711C47.0198 90.6526 47.7891 90.3841 48.4232 89.9037C49.0574 89.4233 49.5241 88.7554 49.7572 87.9947L48.9677 87.736C48.7892 88.3304 48.4282 88.8536 47.9359 89.2315C47.4435 89.6094 46.8448 89.8227 46.2244 89.8415Z" fill="#180C47"/>
<path d="M19.089 118.742L15.6186 117.85L15.458 117.805C13.8745 117.39 7.16117 114.496 6.35825 112.118C5.55533 109.74 9.76173 105.605 17.0638 101.18L15.0387 96.6707C4.68996 103.634 -1.17135 110.311 0.220375 113.773C1.25525 116.342 7.51802 119.888 10.7966 121.749C11.7869 122.306 12.6344 122.748 13.2455 123.06H13.134L12.8485 123.1C12.5067 123.155 12.1982 123.337 11.9837 123.609C11.7693 123.881 11.6646 124.223 11.6904 124.568C11.7162 124.913 11.8705 125.236 12.123 125.473C12.3754 125.71 12.7075 125.844 13.0537 125.848H13.2589C13.9994 125.736 14.6462 125.62 15.226 125.496C14.9002 125.576 14.6148 125.772 14.4235 126.048C14.2322 126.324 14.1481 126.66 14.1869 126.993C14.2258 127.327 14.385 127.635 14.6346 127.859C14.8842 128.083 15.2071 128.209 15.5427 128.212C15.6341 128.212 15.7252 128.203 15.8148 128.185C16.1834 128.11 16.5469 128.012 16.9033 127.891C16.8715 127.91 16.8387 127.928 16.8051 127.944C16.5256 128.083 16.3011 128.311 16.1685 128.594C16.0358 128.876 16.0028 129.195 16.0748 129.498C16.1467 129.802 16.3195 130.072 16.5647 130.264C16.81 130.457 17.1133 130.56 17.4251 130.558C17.6407 130.56 17.8534 130.509 18.0452 130.411C22.3319 128.266 23.7727 124.305 22.6932 121.717C22.1401 120.415 20.8955 119.362 19.089 118.742Z" fill="#0068C7"/>
<path d="M74.1023 94.4404L72.0638 98.901C79.3793 103.326 83.5767 107.488 82.7694 109.839C81.962 112.189 75.2531 115.111 73.6696 115.53L73.509 115.571L70.0386 116.463C68.2544 117.078 66.9875 118.131 66.4344 119.451C65.3549 122.038 66.7957 126 71.0869 128.15C71.2489 128.231 71.4252 128.279 71.6059 128.292C71.7866 128.305 71.9681 128.282 72.14 128.225C72.3119 128.168 72.4708 128.078 72.6078 127.959C72.7447 127.84 72.8569 127.696 72.9381 127.534C73.0192 127.372 73.0676 127.196 73.0806 127.015C73.0936 126.834 73.0708 126.653 73.0137 126.481C72.9565 126.309 72.866 126.15 72.7474 126.013C72.6289 125.876 72.4844 125.764 72.3225 125.683L72.2243 125.625C72.5802 125.747 72.9438 125.845 73.3127 125.919C73.4024 125.937 73.4935 125.946 73.5849 125.946C73.9226 125.947 74.249 125.824 74.5018 125.6C74.7546 125.376 74.9159 125.067 74.9551 124.731C74.9943 124.396 74.9085 124.058 74.7142 123.782C74.5198 123.505 74.2305 123.31 73.9016 123.234C74.4814 123.359 75.1282 123.47 75.8687 123.582H76.0739C76.4241 123.585 76.7625 123.456 77.0204 123.219C77.2783 122.982 77.4364 122.656 77.4625 122.306C77.4886 121.957 77.3808 121.611 77.161 121.338C76.9412 121.066 76.6259 120.887 76.2791 120.839L75.9936 120.794H75.8821C76.4932 120.486 77.3407 120.045 78.331 119.483C81.6096 117.627 87.8723 114.081 88.9072 111.507C90.3123 108.094 84.451 101.412 74.1023 94.4404Z" fill="#0068C7"/>
<path d="M135.927 155.52C134.548 154.38 132.924 153.575 131.181 153.169C128.872 143.264 127.193 133.222 126.154 123.105C125.395 115.651 124.985 108.072 124.931 100.587L119.409 100.623C119.463 108.286 119.882 116.039 120.658 123.667C121.687 133.66 123.325 143.581 125.565 153.375C123.721 154.97 122.433 157.113 121.889 159.49C121.808 159.847 121.871 160.221 122.065 160.531C122.259 160.842 122.568 161.062 122.924 161.145C123.027 161.168 123.131 161.18 123.236 161.181C123.548 161.18 123.849 161.073 124.092 160.879C124.335 160.684 124.505 160.414 124.575 160.11C124.788 159.193 125.144 158.315 125.632 157.51C125.752 157.313 125.899 157.144 126.029 156.961C128.315 158.98 129.881 161.689 130.489 164.678C130.554 164.987 130.721 165.264 130.964 165.465C131.208 165.665 131.512 165.776 131.828 165.78C131.922 165.78 132.017 165.77 132.109 165.748C132.286 165.712 132.455 165.641 132.605 165.539C132.755 165.437 132.883 165.306 132.983 165.154C133.082 165.003 133.151 164.833 133.185 164.655C133.218 164.477 133.216 164.293 133.179 164.116C132.8 162.31 132.133 160.576 131.203 158.982C131.557 159.333 131.888 159.707 132.193 160.101C133.138 161.419 133.8 162.918 134.138 164.504C134.204 164.811 134.373 165.085 134.616 165.283C134.859 165.481 135.163 165.59 135.476 165.592C135.575 165.593 135.674 165.582 135.771 165.561C136.128 165.483 136.441 165.267 136.639 164.959C136.837 164.651 136.905 164.277 136.828 163.92C136.409 161.964 135.59 160.116 134.424 158.491C134.031 157.952 133.6 157.443 133.135 156.965C133.487 157.164 133.824 157.389 134.143 157.639C135.136 158.475 135.933 159.52 136.476 160.699C136.636 161.021 136.915 161.268 137.254 161.388C137.593 161.507 137.965 161.49 138.292 161.34C138.618 161.189 138.874 160.918 139.003 160.583C139.133 160.247 139.127 159.875 138.987 159.544C138.275 157.994 137.23 156.62 135.927 155.52Z" fill="#9783FE"/>
<path d="M92.9224 123.105C91.8819 133.223 90.1983 143.265 87.8819 153.169C86.176 153.564 84.584 154.346 83.2294 155.455C81.8748 156.565 80.7941 157.971 80.0713 159.566C79.9738 159.776 79.9309 160.008 79.9465 160.239C79.9622 160.47 80.0359 160.694 80.1608 160.889C80.2858 161.084 80.4579 161.245 80.6614 161.356C80.8648 161.467 81.093 161.525 81.3247 161.524C81.5887 161.525 81.8473 161.45 82.0696 161.307C82.2919 161.165 82.4685 160.961 82.5782 160.721C83.1241 159.543 83.922 158.498 84.9156 157.661C85.2332 157.41 85.5703 157.185 85.9237 156.988C85.4567 157.465 85.0244 157.975 84.6301 158.513C83.4666 160.139 82.6498 161.987 82.2302 163.942C82.1534 164.3 82.2215 164.673 82.4196 164.981C82.6178 165.289 82.9299 165.505 83.2874 165.583C83.3841 165.605 83.4828 165.615 83.5818 165.615C83.8954 165.613 84.1989 165.504 84.4422 165.306C84.6855 165.108 84.8541 164.833 84.92 164.526C85.2579 162.94 85.9201 161.441 86.8649 160.124C87.1679 159.729 87.4972 159.355 87.8507 159.004C86.9209 160.599 86.2551 162.335 85.8791 164.143C85.8419 164.32 85.8402 164.503 85.8739 164.681C85.9077 164.859 85.9763 165.028 86.0758 165.179C86.1753 165.331 86.3037 165.461 86.4537 165.562C86.6036 165.664 86.7722 165.735 86.9496 165.771C87.0418 165.792 87.1361 165.802 87.2307 165.802C87.5459 165.798 87.8504 165.687 88.0938 165.487C88.3372 165.286 88.5048 165.009 88.5688 164.7C89.172 161.709 90.7389 158.999 93.0295 156.983C93.1589 157.166 93.3061 157.336 93.4221 157.527C93.9122 158.333 94.2692 159.213 94.4792 160.133C94.5502 160.435 94.7206 160.705 94.9632 160.899C95.2059 161.093 95.5067 161.2 95.8174 161.203C95.9225 161.202 96.0271 161.19 96.1297 161.167C96.4854 161.083 96.7936 160.863 96.9874 160.553C97.1811 160.243 97.2448 159.869 97.1645 159.512C96.6216 157.134 95.3321 154.991 93.4845 153.397C95.7245 143.604 97.3631 133.682 98.3912 123.689C99.1674 116.061 99.5867 108.309 99.6357 100.645L94.1268 100.587C94.0911 108.072 93.6808 115.651 92.9224 123.105Z" fill="#9783FE"/>
<path d="M115.149 128.042L109.636 128.341L112.174 175.299L127.755 175.928L117.21 166.141L115.149 128.042Z" fill="#9783FE"/>
<path d="M105.608 128.341L100.09 128.533L101.397 166.846L91.8242 175.607L107.191 175.419C107.191 175.392 107.169 175.361 107.16 175.33H107.213L105.608 128.341Z" fill="#9783FE"/>
<path d="M130.369 96.3184H89.9421C87.6608 96.3184 85.8115 98.1677 85.8115 100.449V129.269C85.8115 131.551 87.6608 133.4 89.9421 133.4H130.369C132.65 133.4 134.5 131.551 134.5 129.269V100.449C134.5 98.1677 132.65 96.3184 130.369 96.3184Z" fill="#9783FE"/>
<path d="M115.485 116.261C117.005 116.245 118.225 115 118.209 113.48C118.193 111.961 116.948 110.741 115.428 110.757C113.908 110.773 112.689 112.018 112.705 113.538C112.721 115.058 113.966 116.277 115.485 116.261Z" fill="white"/>
<mask id="mask2_123_827" style="mask-type:luminance" maskUnits="userSpaceOnUse" x="112" y="110" width="7" height="7">
<path d="M115.449 116.271C116.969 116.271 118.201 115.039 118.201 113.519C118.201 111.999 116.969 110.766 115.449 110.766C113.928 110.766 112.696 111.999 112.696 113.519C112.696 115.039 113.928 116.271 115.449 116.271Z" fill="white"/>
</mask>
<g mask="url(#mask2_123_827)">
<path d="M114.752 110.155C114.207 110.154 113.674 110.315 113.221 110.617C112.768 110.919 112.414 111.349 112.205 111.852C111.997 112.355 111.942 112.909 112.048 113.443C112.154 113.978 112.416 114.468 112.801 114.854C113.186 115.239 113.677 115.501 114.212 115.607C114.746 115.713 115.3 115.658 115.803 115.449C116.306 115.241 116.736 114.887 117.038 114.434C117.34 113.98 117.5 113.448 117.5 112.903C117.5 112.542 117.428 112.185 117.29 111.852C117.152 111.518 116.95 111.215 116.695 110.96C116.44 110.705 116.137 110.503 115.803 110.364C115.47 110.226 115.113 110.155 114.752 110.155Z" fill="#180C47"/>
</g>
<path d="M118.272 103.933C117.769 103.569 117.195 103.314 116.588 103.183C115.98 103.053 115.352 103.05 114.744 103.174C113.93 103.367 113.189 103.792 112.612 104.397C112.502 104.532 112.446 104.703 112.457 104.877C112.468 105.051 112.545 105.215 112.671 105.335C112.797 105.455 112.964 105.523 113.139 105.525C113.313 105.527 113.481 105.464 113.611 105.347C114.001 104.938 114.502 104.652 115.052 104.521C115.467 104.44 115.895 104.445 116.308 104.535C116.722 104.626 117.113 104.8 117.456 105.048C117.529 105.105 117.613 105.147 117.702 105.171C117.792 105.196 117.885 105.202 117.977 105.189C118.069 105.176 118.157 105.145 118.237 105.098C118.317 105.05 118.386 104.987 118.441 104.913C118.496 104.838 118.535 104.753 118.556 104.662C118.577 104.572 118.58 104.478 118.564 104.387C118.549 104.295 118.515 104.208 118.465 104.13C118.414 104.052 118.349 103.985 118.272 103.933Z" fill="#180C47"/>
<path d="M103.168 110.766C102.623 110.765 102.091 110.926 101.638 111.228C101.184 111.53 100.831 111.959 100.622 112.462C100.413 112.965 100.358 113.519 100.463 114.053C100.569 114.587 100.831 115.078 101.216 115.463C101.6 115.848 102.091 116.111 102.625 116.218C103.159 116.324 103.712 116.27 104.216 116.062C104.719 115.854 105.149 115.501 105.451 115.048C105.754 114.595 105.916 114.063 105.916 113.519C105.916 112.789 105.626 112.09 105.111 111.574C104.596 111.058 103.897 110.768 103.168 110.766Z" fill="white"/>
<mask id="mask3_123_827" style="mask-type:luminance" maskUnits="userSpaceOnUse" x="100" y="110" width="6" height="7">
<path d="M103.168 116.271C104.688 116.271 105.92 115.039 105.92 113.519C105.92 111.999 104.688 110.766 103.168 110.766C101.648 110.766 100.416 111.999 100.416 113.519C100.416 115.039 101.648 116.271 103.168 116.271Z" fill="white"/>
</mask>
<g mask="url(#mask3_123_827)">
<path d="M102.468 110.155C101.924 110.155 101.391 110.317 100.939 110.619C100.486 110.922 100.133 111.352 99.9249 111.855C99.7167 112.358 99.6625 112.912 99.769 113.446C99.8756 113.98 100.138 114.47 100.524 114.855C100.909 115.24 101.4 115.502 101.934 115.607C102.468 115.713 103.022 115.658 103.524 115.449C104.027 115.24 104.457 114.886 104.759 114.433C105.06 113.98 105.221 113.448 105.22 112.903C105.219 112.174 104.929 111.475 104.413 110.96C103.897 110.445 103.197 110.155 102.468 110.155Z" fill="#180C47"/>
</g>
<path d="M103.578 103.067C102.96 103.001 102.335 103.065 101.744 103.257C101.153 103.448 100.609 103.762 100.148 104.178C100.08 104.239 100.025 104.312 99.9853 104.394C99.946 104.476 99.9234 104.565 99.9188 104.656C99.9143 104.747 99.9278 104.838 99.9587 104.924C99.9895 105.009 100.037 105.088 100.099 105.155C100.222 105.29 100.394 105.371 100.577 105.38C100.76 105.389 100.939 105.326 101.075 105.204C101.392 104.925 101.762 104.713 102.163 104.581C102.564 104.449 102.988 104.4 103.408 104.437C104.096 104.531 104.728 104.866 105.193 105.382C105.258 105.455 105.337 105.514 105.426 105.554C105.516 105.594 105.612 105.614 105.71 105.614C105.876 105.613 106.035 105.549 106.156 105.436C106.225 105.376 106.28 105.304 106.32 105.222C106.36 105.141 106.384 105.052 106.389 104.962C106.395 104.871 106.382 104.781 106.352 104.695C106.322 104.609 106.275 104.531 106.214 104.463C105.529 103.7 104.594 103.205 103.578 103.067Z" fill="#180C47"/>
<path d="M109.065 118.47C108.767 118.47 108.476 118.558 108.228 118.724C107.98 118.89 107.786 119.125 107.672 119.401C107.558 119.676 107.528 119.979 107.587 120.272C107.645 120.564 107.788 120.833 107.999 121.044C108.21 121.255 108.479 121.398 108.771 121.456C109.064 121.515 109.367 121.485 109.642 121.371C109.918 121.256 110.153 121.063 110.319 120.815C110.485 120.567 110.573 120.276 110.573 119.978C110.573 119.578 110.414 119.194 110.131 118.912C109.849 118.629 109.465 118.47 109.065 118.47ZM109.065 120.656C108.931 120.656 108.8 120.616 108.689 120.541C108.577 120.467 108.49 120.361 108.439 120.237C108.388 120.113 108.374 119.977 108.4 119.845C108.426 119.714 108.491 119.593 108.586 119.498C108.681 119.403 108.802 119.339 108.933 119.313C109.065 119.287 109.201 119.3 109.325 119.351C109.449 119.403 109.555 119.489 109.629 119.601C109.704 119.712 109.743 119.844 109.743 119.978C109.743 120.157 109.672 120.33 109.545 120.457C109.418 120.584 109.245 120.656 109.065 120.656Z" fill="#180C47"/>
<path d="M164.694 122.989L159.176 123.122L160.113 161.453L150.451 170.138L160.323 170.111V170.142L161.714 170.107H165.823C165.81 170.078 165.8 170.048 165.791 170.017H165.845L164.694 122.989Z" fill="#0C826A"/>
<path d="M176.756 123.841L171.234 123.974L172.171 162.3L162.509 170.968L172.38 170.945V170.972L173.767 170.941H177.88C177.88 170.914 177.88 170.883 177.849 170.852H177.903L176.756 123.841Z" fill="#0C826A"/>
<path d="M183.986 59.2368H152.967C150.685 59.2368 148.836 61.0862 148.836 63.3674V129.269C148.836 131.55 150.685 133.4 152.967 133.4H183.986C186.267 133.4 188.117 131.55 188.117 129.269V63.3674C188.117 61.0862 186.267 59.2368 183.986 59.2368Z" fill="#0C826A"/>
<path d="M161.483 86.0231C160.902 86.0489 160.324 85.9175 159.812 85.6427C159.299 85.3679 158.87 84.96 158.57 84.4619L157.874 84.908C158.233 85.4887 158.73 85.9708 159.322 86.3104C159.914 86.65 160.582 86.8365 161.264 86.8528H161.55C162.426 86.7703 163.248 86.3892 163.878 85.7733L163.307 85.1756C162.812 85.656 162.169 85.9547 161.483 86.0231Z" fill="#180C47"/>
<path d="M163.552 74.5147C162.629 73.9709 161.543 73.7729 160.487 73.956C159.432 74.139 158.475 74.6911 157.789 75.5139C157.672 75.6542 157.615 75.8353 157.631 76.0176C157.646 76.1998 157.734 76.3684 157.874 76.4863C157.999 76.591 158.157 76.6493 158.32 76.6513C158.42 76.651 158.519 76.6289 158.61 76.5866C158.701 76.5442 158.782 76.4826 158.846 76.406C159.318 75.84 159.973 75.4567 160.697 75.322C161.442 75.1922 162.208 75.3296 162.861 75.7101C163.019 75.7909 163.201 75.808 163.371 75.7579C163.541 75.7078 163.686 75.5943 163.774 75.4408C163.863 75.2874 163.89 75.1057 163.848 74.9334C163.807 74.761 163.701 74.6111 163.552 74.5147Z" fill="#180C47"/>
<path d="M171.34 85.9652C170.664 85.8211 170.057 85.4496 169.622 84.9124L168.984 85.4477C169.543 86.1296 170.317 86.6014 171.179 86.7859C171.407 86.8268 171.639 86.8477 171.87 86.8484C172.483 86.8368 173.086 86.6897 173.635 86.4174C174.184 86.1451 174.666 85.7546 175.046 85.2738L174.417 84.734C174.064 85.1986 173.591 85.5585 173.049 85.7753C172.507 85.9921 171.916 86.0577 171.34 85.9652Z" fill="#180C47"/>
<path d="M171.871 73.9615C170.797 73.7714 169.691 73.9673 168.748 74.5146C168.59 74.6098 168.477 74.7639 168.433 74.9429C168.388 75.1219 168.417 75.3112 168.512 75.4692C168.607 75.6271 168.761 75.7407 168.94 75.7851C169.119 75.8294 169.309 75.8008 169.467 75.7056C170.118 75.325 170.883 75.1875 171.626 75.3175C172.35 75.4499 173.004 75.8338 173.472 76.4014C173.531 76.4711 173.603 76.5284 173.684 76.5701C173.765 76.6118 173.853 76.6372 173.944 76.6446C174.035 76.6521 174.126 76.6415 174.213 76.6136C174.3 76.5856 174.38 76.5408 174.449 76.4817C174.588 76.3632 174.675 76.1944 174.69 76.0121C174.705 75.8299 174.647 75.6491 174.529 75.5093C173.85 74.7006 172.91 74.1534 171.871 73.9615Z" fill="#180C47"/>
<path d="M168.472 90.3008H163.958V91.1305H168.472V90.3008Z" fill="#180C47"/>
<path d="M180.132 112.595C180.111 112.415 180.054 112.241 179.965 112.082C179.876 111.924 179.756 111.785 179.613 111.673C179.47 111.561 179.307 111.479 179.132 111.43C178.957 111.382 178.774 111.368 178.593 111.391C177.44 111.546 176.313 111.863 175.248 112.332C175.365 112.238 175.487 112.15 175.614 112.069C176.568 111.504 177.633 111.151 178.736 111.034C179.1 110.995 179.434 110.812 179.664 110.527C179.894 110.242 180.002 109.877 179.963 109.513C179.949 109.331 179.898 109.153 179.812 108.991C179.727 108.83 179.609 108.687 179.467 108.573C179.324 108.458 179.16 108.374 178.984 108.326C178.807 108.277 178.623 108.265 178.442 108.291C176.924 108.45 175.46 108.943 174.155 109.733C172.85 110.523 171.735 111.592 170.89 112.863C168.861 114.003 166.629 114.738 164.319 115.026C159.109 115.637 150.781 114.237 148.854 109.379C148.796 109.232 148.72 109.089 148.676 108.933C148.286 107.449 148.348 105.881 148.854 104.432V94.4716C143.948 99.3204 141.842 105.387 143.39 110.53C144.282 113.559 146.321 115.771 148.854 117.35C152.713 119.755 157.776 120.682 161.973 120.682C162.973 120.685 163.972 120.63 164.966 120.517C167.563 120.198 170.087 119.444 172.433 118.287C172.951 118.564 173.553 118.642 174.124 118.506C174.478 118.393 174.811 118.223 175.11 118.002C175.556 117.685 175.605 117.52 175.966 117.364C176.283 117.244 176.623 117.196 176.961 117.225C177.429 117.258 177.893 117.331 178.348 117.444C178.526 117.476 178.709 117.472 178.886 117.433C179.063 117.394 179.231 117.32 179.379 117.217C179.528 117.113 179.654 116.981 179.752 116.828C179.849 116.675 179.916 116.505 179.947 116.327C179.979 116.148 179.975 115.965 179.936 115.788C179.897 115.612 179.824 115.444 179.72 115.296C179.616 115.147 179.484 115.021 179.331 114.923C179.179 114.826 179.008 114.759 178.83 114.727C178.23 114.626 177.623 114.574 177.014 114.571C177.64 114.358 178.286 114.208 178.941 114.125C179.3 114.076 179.626 113.889 179.849 113.603C180.071 113.317 180.173 112.955 180.132 112.595Z" fill="#0C826A"/>
<path d="M191.498 67.1367C190.395 66.5973 189.265 66.1149 188.112 65.6914C186.215 64.9047 184.252 64.2853 182.246 63.8402C180.061 63.3942 177.059 62.8009 173.682 63.7332C173.053 63.9136 172.435 64.1311 171.831 64.3844C170.081 65.054 168.513 66.1232 167.25 67.5069C167.125 67.6381 167.027 67.7926 166.962 67.9616C166.897 68.1306 166.866 68.3107 166.871 68.4917C166.875 68.6727 166.915 68.8511 166.989 69.0166C167.062 69.182 167.168 69.3314 167.299 69.4562C167.43 69.581 167.585 69.6787 167.753 69.7437C167.922 69.8088 168.103 69.8399 168.284 69.8354C168.465 69.8308 168.643 69.7907 168.808 69.7172C168.974 69.6437 169.123 69.5384 169.248 69.4071C170.261 68.3331 171.493 67.4902 172.861 66.9359C173.579 66.6568 174.328 66.4636 175.092 66.3605C173.452 66.7686 171.933 67.5589 170.658 68.6667C170.384 68.9087 170.217 69.2495 170.195 69.6142C170.172 69.9789 170.295 70.3376 170.537 70.6115C170.668 70.7553 170.828 70.8694 171.006 70.9463C171.185 71.0233 171.378 71.0612 171.572 71.0576C171.902 71.0519 172.218 70.9285 172.464 70.7097C173.298 69.9846 174.273 69.4408 175.328 69.1127C174.404 69.6718 173.57 70.3665 172.852 71.1736C172.717 71.3086 172.611 71.4703 172.542 71.6483C172.472 71.8263 172.44 72.0167 172.448 72.2077C172.456 72.3986 172.503 72.5859 172.587 72.7577C172.671 72.9294 172.789 73.082 172.935 73.2057C173.08 73.3294 173.25 73.4216 173.433 73.4764C173.616 73.5312 173.809 73.5475 173.998 73.5242C174.188 73.5009 174.371 73.4385 174.535 73.3411C174.7 73.2436 174.842 73.1131 174.953 72.9578C175.799 71.9729 176.87 71.2077 178.076 70.7275C179.207 70.2705 180.428 70.0812 181.644 70.1744C181.7 70.1713 181.755 70.1639 181.809 70.1521C183.989 70.1489 186.142 70.6416 188.103 71.5929C188.331 71.7044 188.549 71.7802 188.786 71.9051C188.848 71.9453 195.285 75.6253 195.477 80.8264C195.611 84.3191 192.8 88.3605 188.099 90.6622V96.6707C195.865 93.9497 201.258 87.5665 200.995 80.6436C200.705 72.5519 192.444 67.6764 191.498 67.1367Z" fill="#0C826A"/>
<path d="M176.376 68.2519L175.167 68.7648C175.081 68.8033 175.01 68.8703 174.967 68.9546C174.923 69.039 174.91 69.1356 174.93 69.2284C174.949 69.3212 174.999 69.4047 175.073 69.4648C175.146 69.5249 175.238 69.5581 175.332 69.5588C175.39 69.5598 175.446 69.5476 175.498 69.5231L176.697 69.0146C176.748 68.9937 176.794 68.9629 176.832 68.9241C176.871 68.8853 176.901 68.8392 176.921 68.7885C176.941 68.7378 176.952 68.6835 176.951 68.6289C176.95 68.5743 176.938 68.5204 176.916 68.4704C176.896 68.4201 176.865 68.3744 176.827 68.3361C176.788 68.2977 176.743 68.2674 176.692 68.247C176.642 68.2267 176.588 68.2166 176.534 68.2174C176.48 68.2182 176.426 68.23 176.376 68.2519Z" fill="#180C47"/>
<path d="M307.179 89.8807C307.145 89.6319 307.037 89.3989 306.869 89.2119C306.702 89.0249 306.482 88.8924 306.238 88.8314C306.406 88.6607 306.527 88.4497 306.591 88.2186C306.654 87.9875 306.657 87.7441 306.599 87.5116C306.325 86.4731 305.272 86.163 302.351 86.3902C302.484 86.067 302.597 85.7358 302.69 85.3986C302.905 84.5473 302.993 83.6686 302.949 82.7915C302.934 82.496 302.802 82.2187 302.582 82.0205C302.362 81.8224 302.073 81.7197 301.778 81.735C301.482 81.7503 301.205 81.8823 301.007 82.1021C300.808 82.3219 300.706 82.6114 300.721 82.9069C300.788 84.2831 300.424 85.6459 299.679 86.8049C299.653 86.8596 299.631 86.9163 299.614 86.9744C295.984 86.908 292.432 85.9003 289.308 84.05C282.76 80.1195 280.499 73.7984 279.832 71.2634L275.505 72.3993C276.313 75.4643 279.046 83.1052 287.001 87.8794C290.545 89.9878 294.55 91.1984 298.669 91.406C299.279 91.7929 299.927 92.1167 300.602 92.3724C300.994 92.5157 301.393 92.6361 301.799 92.733C301.614 92.875 301.478 93.0714 301.41 93.2947C301.342 93.518 301.346 93.757 301.42 93.9781C301.495 94.1992 301.637 94.3913 301.827 94.5276C302.016 94.6639 302.244 94.7374 302.477 94.7379C302.6 94.7397 302.722 94.7202 302.838 94.6802C305.856 93.6922 307.057 93.1657 306.804 91.9325C306.755 91.6918 306.628 91.4739 306.444 91.3123C306.992 90.9481 307.284 90.5081 307.179 89.8807Z" fill="#FF6B32"/>
<path d="M307.51 89.8232C307.479 89.5883 307.393 89.3639 307.26 89.1679C307.127 88.972 306.949 88.8099 306.742 88.6946C306.855 88.5056 306.928 88.2955 306.957 88.0772C306.985 87.8588 306.969 87.637 306.908 87.4253C306.547 86.1092 305.148 85.8856 302.837 86.0226C302.898 85.8459 302.956 85.662 303.003 85.4817C303.226 84.5986 303.316 83.687 303.27 82.7773C303.261 82.582 303.213 82.3906 303.128 82.2145C303.043 82.0385 302.923 81.8815 302.776 81.7532C302.64 81.624 302.478 81.5251 302.3 81.463C302.123 81.4008 301.935 81.3768 301.748 81.3926C301.558 81.4014 301.371 81.4478 301.198 81.5292C301.026 81.6106 300.871 81.7254 300.744 81.8669C300.616 82.0084 300.517 82.1738 300.454 82.3536C300.391 82.5334 300.363 82.724 300.374 82.9143C300.439 84.2237 300.091 85.5205 299.379 86.6212C295.884 86.5123 292.474 85.5199 289.466 83.7365C283.023 79.8673 280.812 73.6399 280.145 71.1519C280.119 71.066 280.063 70.9928 279.986 70.9463C279.949 70.9234 279.907 70.9086 279.864 70.903C279.82 70.8974 279.776 70.9011 279.734 70.9139L275.407 72.0497C275.321 72.0734 275.248 72.1297 275.204 72.2066C275.159 72.2835 275.147 72.3748 275.169 72.4608C275.987 75.5655 278.757 83.3038 286.816 88.1393C290.385 90.2558 294.411 91.4816 298.553 91.7127C299.163 92.0908 299.808 92.4095 300.479 92.6647C300.717 92.7548 300.958 92.8378 301.2 92.9099C301.072 93.1306 301.006 93.3812 301.007 93.6361C301.007 93.8911 301.076 94.1412 301.205 94.3611C301.334 94.5809 301.519 94.7627 301.741 94.8878C301.963 95.013 302.214 95.077 302.469 95.0734C302.623 95.0744 302.775 95.0488 302.92 94.9977C305.805 94.0494 307.435 93.4364 307.106 91.8642C307.072 91.6851 307.005 91.5139 306.908 91.3593C307.137 91.1805 307.313 90.9437 307.419 90.6735C307.525 90.4034 307.556 90.1097 307.51 89.8232ZM306.252 91.0528C306.211 91.0816 306.176 91.1191 306.151 91.1628C306.126 91.2065 306.111 91.2551 306.108 91.3053C306.104 91.3547 306.112 91.4043 306.13 91.4504C306.148 91.4966 306.176 91.5381 306.212 91.5721C306.342 91.6884 306.431 91.8442 306.465 92.0156C306.656 92.9351 305.743 93.3895 302.718 94.3811C302.542 94.4444 302.348 94.442 302.173 94.3742C301.999 94.3065 301.854 94.178 301.766 94.0123C301.679 93.8466 301.654 93.6548 301.696 93.4722C301.738 93.2895 301.845 93.1283 301.997 93.0181C302.047 92.9797 302.085 92.928 302.107 92.8689C302.129 92.8098 302.134 92.7457 302.121 92.6839C302.108 92.6222 302.078 92.5653 302.035 92.5198C301.991 92.4743 301.935 92.442 301.874 92.4267C301.481 92.3302 301.095 92.2097 300.717 92.0661C300.089 91.8241 299.486 91.5248 298.914 91.1718C298.853 91.1165 298.776 91.0834 298.694 91.0781C294.63 90.8646 290.678 89.6694 287.177 87.5948C279.604 83.0441 276.82 75.8504 275.923 72.6411L279.593 71.6747C280.369 74.4296 282.738 80.502 289.131 84.3423C292.304 86.2143 295.905 87.2376 299.588 87.3135C299.654 87.3135 299.718 87.2939 299.773 87.2573C299.827 87.2207 299.87 87.1687 299.895 87.108C299.911 87.0695 299.924 87.0297 299.934 86.989C300.714 85.7701 301.092 84.3376 301.016 82.8927C301.012 82.7894 301.028 82.6863 301.063 82.5893C301.099 82.4923 301.153 82.4032 301.223 82.3271C301.293 82.2511 301.377 82.1896 301.471 82.1462C301.565 82.1028 301.666 82.0783 301.77 82.0741C301.867 82.0655 301.965 82.0774 302.058 82.1091C302.15 82.1408 302.235 82.1915 302.307 82.258C302.387 82.328 302.452 82.4131 302.498 82.5084C302.545 82.6038 302.571 82.7075 302.577 82.8134C302.621 83.6624 302.537 84.5132 302.329 85.3375C302.239 85.662 302.13 85.981 302.004 86.2931C301.983 86.3458 301.976 86.403 301.984 86.4592C301.991 86.5153 302.013 86.5686 302.047 86.614C302.083 86.6578 302.128 86.6926 302.179 86.7158C302.231 86.739 302.287 86.7498 302.343 86.7474C305.343 86.5202 306.046 86.888 306.237 87.62C306.284 87.7993 306.283 87.9877 306.233 88.1662C306.184 88.3448 306.088 88.5071 305.956 88.6369C305.921 88.679 305.897 88.7288 305.886 88.7822C305.875 88.8356 305.877 88.8909 305.891 88.9434C305.905 88.9954 305.931 89.0432 305.968 89.0828C306.004 89.1224 306.05 89.1525 306.1 89.1706C306.287 89.2113 306.456 89.3087 306.585 89.4494C306.714 89.5901 306.797 89.7673 306.821 89.9567C306.926 90.3713 306.739 90.7175 306.252 91.0528Z" fill="#180C47"/>
<path d="M301.299 89.2965C301.28 89.5392 301.34 89.7815 301.47 89.9874C301.6 90.1933 301.793 90.3519 302.02 90.4396C301.752 90.5298 301.523 90.7086 301.37 90.9465C301.217 91.1845 301.15 91.4673 301.18 91.7485C301.222 91.9485 301.312 92.1356 301.441 92.2942C301.57 92.4528 301.735 92.5784 301.922 92.6608L303.743 87.6738L302.106 88.3445C301.893 88.4057 301.702 88.5288 301.558 88.6982C301.415 88.8676 301.324 89.0758 301.299 89.2965Z" fill="#FF6B32"/>
<path d="M303.64 87.3602L302.014 88.0093C301.772 88.0801 301.553 88.2129 301.379 88.3945C301.204 88.5762 301.081 88.8003 301.02 89.0446C300.959 89.2889 300.963 89.5449 301.032 89.7871C301.1 90.0293 301.231 90.2493 301.411 90.4252C301.212 90.5888 301.057 90.8003 300.962 91.04C300.867 91.2797 300.834 91.5397 300.867 91.7955C300.918 92.0516 301.03 92.2918 301.193 92.4958C301.356 92.6997 301.566 92.8615 301.804 92.9674C301.847 92.9854 301.892 92.9952 301.938 92.9962C302.003 92.9937 302.066 92.9736 302.121 92.9381C302.175 92.9025 302.219 92.8528 302.248 92.7943C302.282 92.7129 302.283 92.6214 302.251 92.5392C302.218 92.457 302.155 92.3907 302.075 92.3544C301.94 92.2941 301.822 92.2039 301.727 92.0909C301.633 91.9778 301.566 91.8447 301.53 91.7017C301.511 91.4954 301.563 91.2887 301.677 91.1157C301.791 90.9426 301.961 90.8136 302.158 90.7498C302.22 90.7251 302.274 90.6821 302.312 90.6265C302.35 90.5708 302.37 90.5051 302.37 90.4378C302.37 90.3706 302.35 90.3049 302.312 90.2492C302.274 90.1936 302.22 90.1506 302.158 90.1259C301.997 90.0653 301.861 89.9548 301.768 89.8107C301.675 89.6666 301.631 89.4965 301.642 89.3254C301.662 89.1656 301.729 89.0152 301.834 88.8932C301.939 88.7713 302.078 88.6833 302.233 88.6403L303.885 87.984C303.926 87.9677 303.963 87.9435 303.995 87.9128C304.027 87.882 304.052 87.8453 304.069 87.8048C304.087 87.7642 304.096 87.7207 304.097 87.6766C304.097 87.6325 304.089 87.5887 304.072 87.5477C304.035 87.4697 303.97 87.4078 303.891 87.3734C303.812 87.339 303.722 87.3343 303.64 87.3602Z" fill="#180C47"/>
<path d="M304.889 89.4265C305.361 89.2317 305.809 89.0334 306.241 88.8315L302.185 90.4109C303.043 90.1476 303.951 89.8159 304.889 89.4265Z" fill="#FF6B32"/>
<path d="M306.095 88.5285C305.666 88.7268 305.218 88.9251 304.757 89.1162C303.891 89.4768 302.994 89.8013 302.078 90.0898C302.003 90.1153 301.94 90.1661 301.899 90.2336C301.858 90.301 301.842 90.3806 301.855 90.4585C301.867 90.5364 301.906 90.6075 301.965 90.6594C302.024 90.7114 302.1 90.7408 302.179 90.7425C302.211 90.7477 302.244 90.7477 302.276 90.7425C303.214 90.4504 304.133 90.1151 305.013 89.7509C305.485 89.5525 305.943 89.3542 306.376 89.1487C306.448 89.1067 306.502 89.0392 306.527 88.9594C306.553 88.8796 306.547 88.7933 306.512 88.7174C306.476 88.6416 306.414 88.5816 306.337 88.5493C306.26 88.517 306.173 88.5147 306.095 88.5429V88.5285Z" fill="#180C47"/>
<path d="M304.787 91.9181C305.371 91.7306 305.923 91.5323 306.442 91.3303L301.938 92.6717C302.901 92.4742 303.853 92.2226 304.787 91.9181Z" fill="#FF6B32"/>
<path d="M306.323 91.0167C305.793 91.2258 305.242 91.4205 304.69 91.6008C303.765 91.8924 302.825 92.1331 301.874 92.322C301.793 92.339 301.721 92.3852 301.672 92.4518C301.624 92.5184 301.601 92.6006 301.609 92.6828C301.617 92.765 301.655 92.8413 301.716 92.8972C301.777 92.953 301.856 92.9845 301.939 92.9855H302.007C302.981 92.7865 303.944 92.5361 304.892 92.2355C305.458 92.0516 306.021 91.8496 306.565 91.6369C306.645 91.6023 306.708 91.5381 306.741 91.4578C306.774 91.3775 306.775 91.2875 306.743 91.2066C306.712 91.1258 306.65 91.0604 306.571 91.0243C306.492 90.9882 306.402 90.9842 306.32 91.0131L306.323 91.0167Z" fill="#180C47"/>
<path d="M260.377 80.1519L255.913 80.2709C256.538 103.957 257.161 127.643 257.781 151.329L270.225 151.145L262.065 144.319L260.377 80.1519Z" fill="#FF6B32"/>
<path d="M250.873 80.188L252.038 144.373L244.188 151.556L256.631 151.365C256.199 127.616 255.767 103.867 255.337 80.1158L250.873 80.188Z" fill="#FF6B32"/>
<path d="M255.567 79.8636C255.5 79.8078 255.416 79.775 255.329 79.7698L250.865 79.8527C250.776 79.8546 250.691 79.8917 250.629 79.9558C250.567 80.02 250.532 80.106 250.533 80.1953L251.702 144.215L243.963 151.297C243.915 151.343 243.881 151.403 243.866 151.468C243.852 151.534 243.857 151.602 243.881 151.665C243.906 151.727 243.948 151.781 244.003 151.82C244.058 151.858 244.123 151.879 244.191 151.881L256.635 151.69C256.724 151.687 256.808 151.651 256.873 151.589C256.933 151.523 256.966 151.436 256.966 151.347L255.672 80.0979C255.669 80.009 255.632 79.9247 255.567 79.8636ZM245.063 151.196L252.257 144.597C252.293 144.565 252.321 144.526 252.34 144.483C252.36 144.439 252.369 144.392 252.369 144.344L251.204 80.5198L254.997 80.4477L256.285 151.03L245.063 151.196Z" fill="#180C47"/>
<path d="M224.565 84.0499C221.441 85.9003 217.89 86.908 214.259 86.9743C214.242 86.9163 214.22 86.8596 214.194 86.8049C213.449 85.6459 213.085 84.2831 213.152 82.9069C213.16 82.7606 213.138 82.6142 213.089 82.4761C213.04 82.338 212.965 82.2109 212.867 82.1021C212.768 81.9933 212.65 81.9048 212.518 81.8418C212.385 81.7789 212.242 81.7425 212.096 81.735C211.949 81.7274 211.803 81.7487 211.665 81.7977C211.527 81.8467 211.4 81.9224 211.291 82.0205C211.071 82.2187 210.939 82.496 210.924 82.7915C210.88 83.6686 210.968 84.5473 211.183 85.3986C211.276 85.7358 211.389 86.067 211.522 86.3902C208.601 86.163 207.556 86.4731 207.274 87.5116C207.217 87.7441 207.219 87.9875 207.282 88.2186C207.346 88.4497 207.467 88.6607 207.635 88.8314C207.391 88.8924 207.172 89.0249 207.004 89.2119C206.836 89.3989 206.728 89.6318 206.694 89.8807C206.589 90.4937 206.881 90.9625 207.415 91.3231C207.232 91.4859 207.105 91.7033 207.054 91.9433C206.802 93.1765 208.003 93.703 211.021 94.691C211.137 94.731 211.259 94.7505 211.382 94.7487C211.615 94.7482 211.842 94.6747 212.032 94.5384C212.221 94.4022 212.363 94.21 212.438 93.9889C212.513 93.7678 212.517 93.5288 212.449 93.3055C212.381 93.0822 212.245 92.8858 212.059 92.7438C212.465 92.6469 212.865 92.5265 213.257 92.3832C213.932 92.1275 214.58 91.8037 215.189 91.4168C219.308 91.2088 223.314 89.9982 226.858 87.8902C234.809 83.116 237.546 75.4751 238.354 72.4101L234.027 71.2742C233.374 73.7984 231.113 80.1195 224.565 84.0499Z" fill="#FF6B32"/>
<path d="M212.431 52.2353L256.278 105.945L300.13 52.2353L256.278 0.501404L212.431 52.2353Z" fill="#FF6B32"/>
<path d="M249.373 36.1745C249.088 36.1411 248.8 36.1692 248.528 36.257C248.255 36.3447 248.005 36.4899 247.793 36.6829C247.694 36.7844 247.636 36.9201 247.633 37.0625C247.63 37.2048 247.681 37.343 247.776 37.4489C247.872 37.5547 248.004 37.6202 248.145 37.632C248.287 37.6438 248.428 37.6009 248.54 37.5123C248.634 37.4287 248.744 37.3651 248.864 37.3254C248.984 37.2858 249.11 37.2708 249.236 37.2815C249.441 37.31 249.63 37.4095 249.769 37.5627C249.871 37.6626 250.007 37.72 250.149 37.7232C250.291 37.7264 250.43 37.6751 250.535 37.5799C250.641 37.4846 250.707 37.3526 250.719 37.2107C250.73 37.0688 250.687 36.9277 250.599 36.8163C250.279 36.4636 249.845 36.2361 249.373 36.1745Z" fill="#180C47"/>
<path d="M262.166 36.1743C261.881 36.1417 261.594 36.1702 261.321 36.2578C261.049 36.3455 260.798 36.4904 260.586 36.6828C260.486 36.7842 260.429 36.92 260.426 37.0624C260.423 37.2047 260.474 37.3429 260.569 37.4488C260.665 37.5546 260.797 37.6201 260.938 37.6319C261.08 37.6436 261.221 37.6008 261.333 37.5121C261.428 37.4294 261.538 37.3664 261.658 37.3268C261.777 37.2871 261.903 37.2717 262.029 37.2814C262.234 37.3099 262.423 37.4094 262.562 37.5626C262.664 37.6625 262.8 37.7199 262.942 37.7231C263.084 37.7263 263.223 37.675 263.328 37.5797C263.434 37.4845 263.5 37.3524 263.511 37.2105C263.523 37.0686 263.48 36.9276 263.392 36.8162C263.072 36.4635 262.638 36.236 262.166 36.1743Z" fill="#180C47"/>
<path d="M255.816 56.8399H255.679C254.71 56.7954 253.786 56.425 253.055 55.7887C252.323 55.1525 251.829 54.2878 251.651 53.335C251.635 53.2468 251.639 53.1562 251.662 53.0697C251.685 52.9831 251.727 52.9026 251.784 52.8338C251.844 52.7633 251.918 52.7064 252.001 52.6672C252.084 52.628 252.175 52.6073 252.268 52.6066H259.375C259.468 52.6075 259.559 52.6286 259.644 52.6684C259.728 52.7083 259.802 52.7659 259.862 52.8374C259.918 52.9058 259.959 52.9859 259.982 53.0718C260.004 53.1578 260.007 53.2476 259.991 53.335C259.808 54.3119 259.292 55.1951 258.53 55.8342C257.769 56.4732 256.81 56.8286 255.816 56.8399Z" fill="#180C47"/>
<mask id="mask4_123_827" style="mask-type:luminance" maskUnits="userSpaceOnUse" x="251" y="52" width="9" height="5">
<path d="M255.813 56.8398H255.676C254.708 56.7953 253.783 56.4249 253.052 55.7886C252.32 55.1524 251.826 54.2877 251.648 53.3349C251.632 53.2467 251.636 53.1561 251.659 53.0696C251.682 52.983 251.724 52.9025 251.781 52.8337C251.841 52.7632 251.915 52.7064 251.998 52.6671C252.082 52.6279 252.172 52.6072 252.265 52.6065H259.372C259.465 52.6074 259.557 52.6285 259.641 52.6684C259.725 52.7082 259.799 52.7658 259.859 52.8373C259.915 52.9058 259.956 52.9858 259.979 53.0717C260.001 53.1577 260.004 53.2475 259.988 53.3349C259.805 54.3118 259.289 55.195 258.527 55.8341C257.766 56.4731 256.807 56.8286 255.813 56.8398Z" fill="white"/>
</mask>
<g mask="url(#mask4_123_827)">
<path d="M255.698 56.5043C256.692 56.5221 257.657 56.1658 258.401 55.506C259.145 54.8462 259.614 53.931 259.715 52.9417H251.94C252.036 53.8872 252.468 54.7668 253.158 55.4207C253.847 56.0745 254.749 56.4591 255.698 56.5043Z" fill="#180C47"/>
<path d="M254.703 54.8346C253.455 55.1699 252.244 56.3202 252.467 56.962C252.886 58.1736 258.518 57.9176 258.767 56.8106C258.929 56.0678 256.827 54.2612 254.703 54.8346Z" fill="#FFC5E1"/>
</g>
<path d="M249.399 49.7145H249.378C248.913 49.7145 248 48.6328 247.827 46.7793L247.16 46.8406C247.358 48.9645 248.473 50.3816 249.385 50.3816H249.454C250.348 50.3131 251.256 48.8131 251.206 46.6856L250.535 46.7036C250.586 48.5138 249.829 49.6821 249.399 49.7145Z" fill="#180C47"/>
<path d="M262.672 49.2529C262.614 49.3247 262.54 49.3825 262.456 49.4218C262.373 49.4612 262.281 49.4811 262.189 49.48C261.107 49.48 260.746 47.8862 260.617 46.5484L259.953 46.6061C260.166 48.9608 260.92 50.1507 262.185 50.1507H262.221C262.399 50.1459 262.574 50.1047 262.735 50.0297C262.896 49.9546 263.041 49.8473 263.159 49.7144C263.732 49.1158 264.035 47.9115 263.995 46.4691H263.325C263.361 47.7492 263.116 48.7913 262.672 49.2529Z" fill="#180C47"/>
<path d="M211.824 90.4396C212.044 90.3591 212.232 90.2113 212.363 90.0171C212.494 89.823 212.56 89.5926 212.552 89.3587C212.544 89.1248 212.462 88.8994 212.319 88.7147C212.175 88.53 211.977 88.3954 211.752 88.3301L210.097 87.6738L211.921 92.6716C212.109 92.5893 212.273 92.4636 212.403 92.305C212.532 92.1464 212.621 91.9594 212.664 91.7593C212.696 91.4764 212.63 91.191 212.477 90.9508C212.325 90.7106 212.094 90.5302 211.824 90.4396Z" fill="#FF6B32"/>
<path d="M212.449 90.4252C212.602 90.2758 212.72 90.0948 212.796 89.8948C212.871 89.6949 212.902 89.4808 212.885 89.2678C212.86 88.9825 212.751 88.7112 212.571 88.4884C212.391 88.2656 212.149 88.1013 211.876 88.0165L210.224 87.3602C210.141 87.3333 210.051 87.3375 209.971 87.372C209.891 87.4065 209.826 87.4689 209.788 87.5477C209.761 87.6308 209.765 87.7209 209.8 87.8011C209.834 87.8814 209.897 87.9464 209.976 87.984L211.656 88.6511C211.806 88.6952 211.939 88.7829 212.04 88.9029C212.14 89.0229 212.202 89.17 212.218 89.3254C212.229 89.4965 212.185 89.6666 212.093 89.8107C212 89.9548 211.863 90.0653 211.703 90.126C211.639 90.1492 211.583 90.1916 211.544 90.2474C211.505 90.3032 211.484 90.3697 211.484 90.4379C211.484 90.506 211.505 90.5726 211.544 90.6284C211.583 90.6842 211.639 90.7266 211.703 90.7498C211.899 90.8153 212.067 90.9447 212.181 91.1173C212.295 91.2899 212.347 91.4957 212.33 91.7017C212.295 91.8447 212.228 91.9778 212.133 92.0909C212.039 92.204 211.92 92.2941 211.786 92.3544C211.745 92.3717 211.709 92.3968 211.678 92.4283C211.647 92.4599 211.623 92.4972 211.607 92.5381C211.591 92.5791 211.583 92.6228 211.584 92.6668C211.585 92.7108 211.595 92.7541 211.613 92.7943C211.639 92.8541 211.681 92.9051 211.736 92.9409C211.79 92.9768 211.854 92.996 211.919 92.9963C211.966 92.9957 212.013 92.9859 212.056 92.9674C212.295 92.861 212.504 92.6991 212.667 92.4952C212.83 92.2913 212.942 92.0514 212.994 91.7955C213.026 91.5397 212.993 91.2798 212.898 91.0402C212.803 90.8006 212.648 90.589 212.449 90.4252Z" fill="#180C47"/>
<path d="M208.988 89.4265C209.929 89.8159 210.838 90.1476 211.696 90.4109L207.64 88.8315C208.054 89.0334 208.505 89.2317 208.988 89.4265Z" fill="#FF6B32"/>
<path d="M211.78 90.09C210.868 89.8015 209.977 89.4734 209.101 89.1164C208.636 88.9253 208.188 88.7269 207.763 88.5286C207.682 88.4915 207.59 88.4878 207.506 88.5181C207.422 88.5485 207.354 88.6105 207.316 88.6909C207.279 88.7713 207.275 88.863 207.306 88.946C207.336 89.0291 207.398 89.0968 207.478 89.1344C207.914 89.3399 208.369 89.5383 208.845 89.7366C209.725 90.0972 210.648 90.4361 211.578 90.7282C211.611 90.7335 211.645 90.7335 211.679 90.7282C211.75 90.7279 211.82 90.7051 211.877 90.663C211.935 90.6209 211.978 90.5617 212 90.4938C212.022 90.4111 212.011 90.3233 211.97 90.2482C211.929 90.1732 211.861 90.1166 211.78 90.09Z" fill="#180C47"/>
<path d="M209.079 91.9181C210.014 92.2194 210.965 92.4674 211.928 92.6609L207.424 91.3303C207.943 91.5323 208.495 91.7306 209.079 91.9181Z" fill="#FF6B32"/>
<path d="M211.991 92.333C211.042 92.1441 210.104 91.9033 209.182 91.6118C208.623 91.4315 208.071 91.2512 207.548 91.0276C207.507 91.0113 207.463 91.0032 207.419 91.0038C207.375 91.0043 207.332 91.0136 207.291 91.031C207.209 91.0662 207.145 91.1324 207.112 91.2151C207.079 91.2978 207.08 91.3903 207.115 91.4721C207.15 91.5539 207.217 91.6185 207.299 91.6514C207.84 91.8642 208.403 92.0661 208.976 92.25C209.923 92.5517 210.886 92.802 211.861 93.0001H211.926C212.008 92.999 212.088 92.9676 212.148 92.9117C212.209 92.8559 212.247 92.7796 212.255 92.6974C212.263 92.6152 212.241 92.5329 212.192 92.4664C212.143 92.3998 212.071 92.3536 211.991 92.3366V92.333Z" fill="#180C47"/>
<path d="M259.371 52.2858H252.256C252.114 52.2883 251.974 52.3219 251.845 52.3841C251.717 52.4464 251.604 52.5359 251.514 52.6464C251.425 52.753 251.361 52.8776 251.326 53.0116C251.292 53.1456 251.286 53.2856 251.312 53.4217C251.509 54.4596 252.054 55.3993 252.857 56.0862C253.66 56.773 254.673 57.1661 255.729 57.2007H255.805C256.879 57.1944 257.917 56.8129 258.739 56.1221C259.562 55.4314 260.117 54.4749 260.308 53.4181C260.333 53.2828 260.328 53.1437 260.294 53.0104C260.26 52.8772 260.197 52.753 260.11 52.6464C260.021 52.536 259.908 52.4465 259.78 52.3842C259.653 52.3219 259.513 52.2884 259.371 52.2858ZM255.812 56.5192V56.8545L255.686 56.5192C254.792 56.4753 253.94 56.1309 253.267 55.5418C252.594 54.9527 252.14 54.1535 251.979 53.2738C251.97 53.2347 251.971 53.194 251.981 53.1551C251.991 53.1162 252.01 53.0803 252.036 53.0503C252.064 53.0168 252.099 52.9898 252.138 52.9712C252.177 52.9525 252.22 52.9426 252.264 52.9421H259.371C259.414 52.9426 259.457 52.9525 259.496 52.9712C259.536 52.9898 259.57 53.0168 259.598 53.0503C259.624 53.0813 259.643 53.1178 259.654 53.1571C259.665 53.1963 259.666 53.2374 259.659 53.2775C259.485 54.1749 259.008 54.9852 258.307 55.5727C257.607 56.1602 256.726 56.4893 255.812 56.5047V56.5192Z" fill="#180C47"/>
<path d="M289.875 150.096L280.571 158.389H293.008H293.048L301.049 109.583L296.643 108.862L289.875 150.096Z" fill="#FFB73E"/>
<path d="M311.343 109.807L307.066 111.145L322.035 158.84L322.096 158.819H334.518C331.536 156.161 327.115 152.761 323.942 150.002L311.343 109.807Z" fill="#FFB73E"/>
<path d="M272.614 109.144C266.272 114.67 259.579 119.78 252.576 124.44C251.49 124.105 250.449 123.64 249.475 123.055C248.799 122.629 248.161 122.146 247.567 121.613C247.347 121.416 247.057 121.314 246.762 121.331C246.467 121.348 246.19 121.481 245.993 121.701C245.796 121.922 245.695 122.211 245.711 122.506C245.728 122.802 245.861 123.078 246.082 123.275C246.77 123.891 247.509 124.447 248.292 124.937C248.382 124.995 248.487 125.028 248.577 125.082C248.494 125.064 248.404 125.056 248.321 125.035C247.295 124.778 246.288 124.453 245.306 124.061C245.035 123.967 244.738 123.982 244.476 124.101C244.215 124.221 244.01 124.436 243.903 124.703C243.797 124.969 243.797 125.267 243.903 125.533C244.01 125.8 244.216 126.015 244.477 126.135C245.552 126.561 246.654 126.916 247.776 127.198C248.137 127.292 248.519 127.332 248.887 127.408C248.166 127.408 247.423 127.408 246.695 127.361C246.544 127.34 246.391 127.35 246.244 127.391C246.097 127.431 245.961 127.501 245.842 127.596C245.723 127.692 245.626 127.81 245.554 127.944C245.483 128.079 245.44 128.226 245.428 128.378C245.415 128.529 245.434 128.682 245.483 128.826C245.532 128.97 245.609 129.103 245.711 129.216C245.813 129.329 245.936 129.42 246.074 129.483C246.213 129.547 246.362 129.582 246.514 129.585C247.362 129.654 248.216 129.686 249.067 129.686C249.476 129.701 249.885 129.694 250.293 129.665C252.096 129.549 252.817 129.113 254.714 129.063C254.873 129.063 255.003 129.063 255.075 129.063L256.257 130.721C256.336 130.855 256.442 130.97 256.567 131.06C256.693 131.15 256.836 131.213 256.987 131.245C257.139 131.277 257.295 131.277 257.447 131.245C257.598 131.213 257.741 131.15 257.867 131.06C257.992 130.97 258.098 130.854 258.176 130.721C258.255 130.588 258.305 130.44 258.323 130.286C258.342 130.132 258.328 129.977 258.282 129.829C258.237 129.681 258.161 129.544 258.06 129.427L256.459 127.18C263.113 122.679 269.488 117.778 275.549 112.504C280.215 108.43 284.744 104.085 289.006 99.588L285.761 96.5157C281.6 100.911 277.175 105.163 272.614 109.144Z" fill="#FFB73E"/>
<path d="M364.044 128.688C363.062 129.078 362.055 129.403 361.03 129.661C360.943 129.683 360.857 129.69 360.77 129.712C360.86 129.654 360.965 129.621 361.055 129.564C361.839 129.074 362.58 128.518 363.269 127.901C363.49 127.704 363.623 127.427 363.639 127.131C363.655 126.836 363.553 126.546 363.356 126.326C363.258 126.216 363.14 126.128 363.007 126.064C362.875 126.001 362.732 125.964 362.586 125.956C362.29 125.94 362 126.042 361.78 126.239C361.188 126.774 360.551 127.256 359.876 127.681C358.902 128.266 357.861 128.731 356.775 129.066C349.771 124.407 343.077 119.298 336.737 113.77C332.172 109.785 327.747 105.538 323.586 101.149L320.341 104.221C324.599 108.718 329.128 113.063 333.794 117.141C339.849 122.408 346.218 127.303 352.866 131.799L351.265 134.049C351.164 134.167 351.088 134.303 351.043 134.451C350.998 134.599 350.984 134.755 351.002 134.909C351.02 135.062 351.07 135.211 351.149 135.344C351.228 135.477 351.333 135.592 351.459 135.683C351.584 135.773 351.727 135.836 351.879 135.868C352.03 135.9 352.187 135.9 352.338 135.868C352.489 135.836 352.632 135.773 352.758 135.683C352.884 135.593 352.989 135.477 353.068 135.344L354.251 133.685C354.377 133.685 354.611 133.685 354.914 133.685C356.638 133.747 357.287 134.172 359.029 134.287C359.436 134.319 359.846 134.328 360.255 134.313C361.106 134.313 361.964 134.277 362.811 134.208C363.094 134.169 363.351 134.023 363.53 133.801C363.709 133.578 363.796 133.295 363.773 133.011C363.75 132.726 363.618 132.461 363.406 132.27C363.194 132.079 362.916 131.976 362.631 131.983C361.91 132.045 361.17 132.027 360.438 132.03C360.799 131.954 361.185 131.915 361.549 131.825C362.67 131.537 363.771 131.175 364.845 130.743C365.12 130.633 365.34 130.419 365.457 130.147C365.574 129.875 365.578 129.568 365.469 129.293C365.359 129.018 365.145 128.798 364.873 128.681C364.601 128.564 364.294 128.56 364.019 128.669L364.044 128.688Z" fill="#FFB73E"/>
<path d="M349.308 74.5304L318.272 74.1013C317.564 74.0908 316.878 73.8506 316.317 73.417C315.757 72.9833 315.352 72.3794 315.164 71.6961L307.934 45.4343C307.047 42.189 302.464 42.2359 301.617 45.4704L294.585 72.3488C294.401 73.0504 293.989 73.671 293.414 74.1134C292.839 74.5559 292.134 74.7951 291.408 74.7936L260.441 74.6926C257.095 74.6926 255.894 79.1063 258.782 80.7902L283.356 95.1057C284.018 95.4892 284.524 96.0923 284.788 96.8102C285.051 97.5281 285.055 98.3156 284.799 99.0361C281.238 108.988 277.678 118.943 274.118 128.9C272.975 132.091 276.848 134.699 279.375 132.441L302.486 111.783C303.086 111.247 303.862 110.95 304.667 110.95C305.472 110.95 306.249 111.247 306.849 111.783L329.905 132.42C332.429 134.684 336.313 132.059 335.166 128.879C331.599 118.955 328.035 109.032 324.474 99.1082C324.216 98.3874 324.219 97.5988 324.483 96.8799C324.746 96.161 325.254 95.5574 325.917 95.1742L350.92 80.6388C353.776 78.9692 352.626 74.5737 349.308 74.5304Z" fill="#FFB73E"/>
<path d="M302.786 93.227H302.685C301.964 93.1951 301.275 92.9199 300.731 92.4465C300.187 91.973 299.819 91.3292 299.688 90.6199C299.674 90.5435 299.676 90.4647 299.695 90.3893C299.715 90.3139 299.75 90.2437 299.8 90.1836C299.851 90.1216 299.916 90.0716 299.989 90.0374C300.062 90.0031 300.141 89.9853 300.222 89.9853H305.357C305.438 89.9858 305.518 90.0037 305.591 90.0379C305.664 90.0722 305.73 90.1219 305.782 90.1836C305.831 90.2449 305.866 90.3158 305.885 90.3916C305.904 90.4674 305.907 90.5465 305.894 90.6235C305.756 91.3495 305.371 92.0054 304.804 92.4799C304.238 92.9544 303.524 93.2184 302.786 93.227Z" fill="#180C47"/>
<mask id="mask5_123_827" style="mask-type:luminance" maskUnits="userSpaceOnUse" x="299" y="89" width="7" height="5">
<path d="M302.789 93.2271H302.688C301.968 93.1951 301.279 92.92 300.735 92.4465C300.191 91.9731 299.823 91.3292 299.692 90.62C299.677 90.5435 299.68 90.4648 299.699 90.3894C299.719 90.314 299.754 90.2437 299.804 90.1837C299.855 90.1216 299.92 90.0717 299.993 90.0374C300.065 90.0031 300.145 89.9854 300.226 89.9854H305.36C305.441 89.9858 305.521 90.0038 305.595 90.038C305.668 90.0722 305.733 90.1219 305.786 90.1837C305.834 90.245 305.87 90.3159 305.889 90.3917C305.908 90.4675 305.911 90.5465 305.898 90.6236C305.76 91.3496 305.375 92.0055 304.808 92.48C304.242 92.9545 303.528 93.2184 302.789 93.2271Z" fill="white"/>
</mask>
<g mask="url(#mask5_123_827)">
<path d="M302.705 92.8881C303.423 92.9043 304.122 92.6484 304.66 92.1717C305.198 91.695 305.537 91.0326 305.607 90.3171H299.989C300.057 91.0005 300.369 91.6366 300.868 92.1088C301.366 92.581 302.018 92.8576 302.705 92.8881Z" fill="#180C47"/>
<path d="M301.984 91.684C301.082 91.9256 300.21 92.7657 300.368 93.2201C300.671 94.0963 304.742 93.9124 304.919 93.1119C305.038 92.5746 303.516 91.2693 301.984 91.684Z" fill="#FFC5E1"/>
</g>
<path d="M307.149 85.4058H307.11C306.334 85.4491 305.692 86.704 305.703 88.1463H306.374C306.374 86.8338 306.915 86.0945 307.146 86.0801C307.369 86.0801 308.04 86.7689 308.137 88.1355L308.804 88.0886C308.696 86.4624 307.867 85.4058 307.149 85.4058Z" fill="#180C47"/>
<path d="M297.893 85.4098C297.752 85.4108 297.613 85.4404 297.484 85.4968C297.355 85.5532 297.239 85.6353 297.143 85.7379C296.707 86.1778 296.458 87.0577 296.465 88.1467H297.139C297.139 87.2596 297.312 86.5168 297.619 86.2139C297.652 86.173 297.694 86.1399 297.741 86.1168C297.788 86.0938 297.84 86.0814 297.893 86.0805C298.614 86.0805 298.838 87.1983 298.906 88.1359L299.573 88.089C299.415 85.8714 298.571 85.4098 297.893 85.4098Z" fill="#180C47"/>
<path d="M305.359 89.6467H300.217C300.089 89.6469 299.962 89.6751 299.846 89.7294C299.73 89.7837 299.627 89.8627 299.545 89.9609C299.462 90.0592 299.402 90.1743 299.369 90.2981C299.336 90.422 299.33 90.5516 299.352 90.678C299.498 91.4628 299.905 92.1752 300.508 92.699C301.11 93.2228 301.872 93.5272 302.669 93.5627H302.781C303.601 93.5582 304.393 93.2674 305.02 92.7406C305.648 92.2138 306.071 91.4841 306.218 90.678C306.242 90.5514 306.238 90.421 306.205 90.2963C306.173 90.1715 306.113 90.0556 306.03 89.9568C305.947 89.8599 305.844 89.7821 305.729 89.7286C305.613 89.675 305.487 89.6471 305.359 89.6467ZM302.788 92.892H302.698C302.054 92.8629 301.438 92.6164 300.952 92.1928C300.465 91.7691 300.137 91.1933 300.019 90.559C300.031 90.6429 300.075 90.719 300.141 90.7719C300.208 90.8249 300.292 90.8507 300.376 90.8443C300.461 90.8379 300.54 90.7997 300.597 90.7374C300.655 90.6751 300.687 90.5933 300.686 90.5085C300.687 90.446 300.669 90.3847 300.636 90.3318H305.363C305.394 90.3319 305.425 90.3387 305.453 90.3517C305.481 90.3648 305.505 90.3839 305.525 90.4075C305.546 90.4296 305.56 90.4561 305.569 90.4849C305.577 90.5137 305.578 90.544 305.572 90.5734C305.443 91.2197 305.096 91.8023 304.59 92.2242C304.083 92.646 303.448 92.8817 302.788 92.892Z" fill="#180C47"/>
<path d="M279.184 157.434L271.972 165.547L241.131 166.124L241.214 170.588L279.224 169.867V169.034C279.202 165.173 279.189 161.307 279.184 157.434Z" fill="#5968FE"/>
<path d="M276.166 174.133C276.107 173.998 276.022 173.877 275.916 173.776C275.81 173.675 275.685 173.595 275.549 173.543C275.412 173.49 275.266 173.464 275.12 173.468C274.973 173.471 274.829 173.503 274.695 173.563C273.836 173.934 272.94 174.213 272.023 174.396C272.257 174.313 272.499 174.244 272.744 174.151C272.88 174.095 273.003 174.014 273.107 173.911C273.211 173.807 273.294 173.685 273.351 173.55C273.408 173.415 273.437 173.27 273.438 173.123C273.439 172.977 273.411 172.831 273.355 172.696C273.3 172.56 273.218 172.437 273.115 172.332C273.012 172.228 272.89 172.145 272.754 172.089C272.619 172.032 272.474 172.002 272.328 172.002C272.181 172.001 272.036 172.029 271.9 172.084C271.018 172.46 270.093 172.724 269.145 172.871C268.334 173.04 267.342 173.022 265.334 172.993H264.916C260.958 164.819 258.981 155.827 259.146 146.746L254.682 146.674C254.509 156.745 256.77 166.709 261.274 175.719C261.093 175.802 260.913 175.914 260.74 175.99C260.028 176.29 259.298 176.546 258.555 176.758C258.299 176.834 258.079 177 257.934 177.225C257.79 177.45 257.731 177.719 257.768 177.984C257.805 178.248 257.936 178.491 258.136 178.668C258.337 178.844 258.594 178.943 258.861 178.946C258.966 178.946 259.071 178.931 259.171 178.903C259.998 178.667 260.809 178.382 261.602 178.049C262.392 177.717 263.162 177.342 263.91 176.924C267.499 178.273 271.334 178.842 275.16 178.593C275.455 178.574 275.731 178.438 275.926 178.215C276.122 177.993 276.221 177.702 276.202 177.407C276.18 177.112 276.043 176.837 275.82 176.642C275.598 176.447 275.308 176.348 275.012 176.365C274.475 176.401 273.93 176.365 273.39 176.365C274.151 176.169 274.897 175.913 275.618 175.6C275.883 175.476 276.09 175.253 276.192 174.978C276.295 174.704 276.285 174.4 276.166 174.133Z" fill="#5968FE"/>
<path d="M271.941 176.354C272.414 176.397 272.889 176.397 273.362 176.354L270.318 175.993C270.845 176.171 271.389 176.292 271.941 176.354Z" fill="#5968FE"/>
<path d="M271.092 174.5C271.405 174.5 271.717 174.465 272.022 174.396L270.237 174.417C270.519 174.473 270.805 174.501 271.092 174.5Z" fill="#5968FE"/>
<path d="M199.092 157.434C199.092 161.323 199.092 165.213 199.092 169.102V169.878L237.102 170.599L237.185 166.135L206.343 165.558L199.092 157.434Z" fill="#5968FE"/>
<path d="M219.148 162.59C218.197 166.169 216.906 169.649 215.294 172.982H214.875C212.874 173.011 211.875 173.029 211.064 172.86C210.117 172.713 209.191 172.449 208.309 172.074C208.173 172.018 208.028 171.99 207.882 171.991C207.735 171.992 207.59 172.021 207.455 172.078C207.32 172.135 207.197 172.218 207.094 172.322C206.991 172.426 206.91 172.549 206.854 172.685C206.799 172.821 206.771 172.966 206.771 173.112C206.772 173.259 206.802 173.404 206.858 173.539C206.915 173.674 206.998 173.797 207.102 173.9C207.206 174.003 207.33 174.084 207.465 174.14C207.696 174.234 207.938 174.302 208.187 174.385C207.269 174.202 206.373 173.923 205.515 173.552C205.381 173.493 205.236 173.461 205.09 173.457C204.943 173.454 204.798 173.479 204.661 173.532C204.524 173.585 204.399 173.664 204.294 173.766C204.188 173.867 204.103 173.988 204.043 174.122C203.984 174.256 203.952 174.4 203.949 174.547C203.945 174.693 203.971 174.839 204.024 174.975C204.076 175.112 204.156 175.237 204.257 175.343C204.358 175.449 204.479 175.534 204.613 175.593C205.335 175.906 206.08 176.162 206.842 176.358C206.297 176.358 205.76 176.379 205.219 176.358C204.924 176.341 204.633 176.44 204.411 176.635C204.188 176.83 204.051 177.105 204.029 177.4C204.01 177.695 204.109 177.986 204.305 178.208C204.5 178.431 204.776 178.567 205.071 178.586C208.897 178.835 212.732 178.265 216.321 176.916C217.069 177.335 217.839 177.71 218.629 178.041C219.422 178.374 220.233 178.66 221.06 178.896C221.161 178.924 221.265 178.939 221.37 178.939C221.637 178.936 221.894 178.837 222.095 178.661C222.295 178.484 222.426 178.241 222.463 177.977C222.5 177.712 222.441 177.443 222.297 177.218C222.153 176.993 221.932 176.827 221.676 176.751C220.933 176.539 220.203 176.282 219.491 175.982C219.307 175.907 219.13 175.795 218.957 175.712C223.457 166.701 225.718 156.737 225.549 146.667L221.085 146.739C221.167 152.086 220.515 157.42 219.148 162.59Z" fill="#5968FE"/>
<path d="M220.916 151.733C220.916 156.812 222.934 161.683 226.525 165.275C230.117 168.866 234.988 170.884 240.067 170.884C245.146 170.884 250.017 168.866 253.609 165.275C257.2 161.683 259.218 156.812 259.218 151.733V94.6335H220.916V151.733Z" fill="#5968FE"/>
<path d="M235.404 135.683C234.827 135.684 234.263 135.856 233.784 136.177C233.305 136.498 232.931 136.953 232.711 137.487C232.491 138.02 232.434 138.606 232.547 139.172C232.66 139.737 232.938 140.257 233.346 140.664C233.754 141.072 234.274 141.35 234.84 141.462C235.405 141.574 235.992 141.516 236.525 141.295C237.057 141.074 237.513 140.7 237.833 140.221C238.154 139.741 238.325 139.177 238.325 138.6C238.325 138.217 238.249 137.837 238.102 137.483C237.955 137.129 237.74 136.807 237.469 136.536C237.198 136.266 236.876 136.051 236.521 135.904C236.167 135.758 235.787 135.683 235.404 135.683Z" fill="white"/>
<path d="M235.402 136.685C235.023 136.685 234.653 136.798 234.338 137.008C234.023 137.218 233.778 137.517 233.633 137.867C233.488 138.217 233.45 138.602 233.524 138.974C233.598 139.345 233.78 139.686 234.048 139.954C234.316 140.222 234.657 140.404 235.028 140.478C235.4 140.552 235.785 140.514 236.135 140.369C236.485 140.224 236.784 139.979 236.994 139.664C237.204 139.349 237.317 138.979 237.317 138.6C237.317 138.092 237.115 137.605 236.756 137.246C236.397 136.887 235.91 136.685 235.402 136.685Z" fill="#180C47"/>
<path d="M244.731 135.683C244.154 135.684 243.59 135.856 243.111 136.177C242.632 136.498 242.259 136.953 242.038 137.487C241.818 138.02 241.761 138.606 241.874 139.172C241.987 139.737 242.265 140.257 242.673 140.664C243.081 141.072 243.601 141.35 244.167 141.462C244.733 141.574 245.319 141.516 245.852 141.295C246.385 141.074 246.84 140.7 247.16 140.221C247.481 139.741 247.652 139.177 247.652 138.6C247.652 138.217 247.576 137.837 247.429 137.483C247.283 137.129 247.067 136.807 246.796 136.536C246.525 136.266 246.203 136.051 245.848 135.904C245.494 135.758 245.114 135.683 244.731 135.683Z" fill="white"/>
<path d="M244.727 136.685C244.348 136.686 243.978 136.799 243.664 137.01C243.349 137.221 243.105 137.52 242.96 137.87C242.816 138.22 242.778 138.605 242.853 138.976C242.927 139.347 243.11 139.688 243.378 139.955C243.645 140.223 243.987 140.405 244.358 140.478C244.729 140.552 245.114 140.514 245.464 140.369C245.813 140.224 246.112 139.978 246.322 139.663C246.533 139.349 246.645 138.979 246.645 138.6C246.645 138.348 246.595 138.099 246.499 137.866C246.402 137.634 246.261 137.423 246.083 137.245C245.905 137.067 245.693 136.926 245.46 136.83C245.228 136.734 244.978 136.685 244.727 136.685Z" fill="#180C47"/>
<path d="M240.057 147.738H239.938C239.099 147.7 238.298 147.38 237.665 146.828C237.031 146.277 236.604 145.527 236.451 144.701C236.435 144.62 236.437 144.536 236.458 144.455C236.478 144.375 236.517 144.3 236.57 144.236C236.625 144.169 236.694 144.114 236.773 144.077C236.851 144.039 236.937 144.02 237.024 144.02H243.097C243.182 144.019 243.267 144.037 243.345 144.073C243.423 144.109 243.492 144.161 243.547 144.227C243.602 144.292 243.642 144.369 243.664 144.452C243.686 144.534 243.689 144.621 243.674 144.705C243.515 145.551 243.067 146.315 242.408 146.868C241.748 147.421 240.918 147.728 240.057 147.738Z" fill="#180C47"/>
<mask id="mask6_123_827" style="mask-type:luminance" maskUnits="userSpaceOnUse" x="236" y="144" width="8" height="4">
<path d="M240.065 147.737H239.946C239.107 147.7 238.306 147.379 237.672 146.828C237.039 146.277 236.611 145.527 236.459 144.701C236.443 144.62 236.445 144.536 236.466 144.455C236.486 144.375 236.525 144.3 236.578 144.236C236.633 144.168 236.702 144.114 236.781 144.076C236.859 144.039 236.945 144.02 237.032 144.02H243.105C243.19 144.019 243.275 144.037 243.353 144.073C243.431 144.108 243.499 144.161 243.555 144.226C243.61 144.292 243.65 144.369 243.672 144.451C243.694 144.534 243.697 144.621 243.682 144.705C243.522 145.551 243.075 146.315 242.415 146.868C241.756 147.421 240.925 147.728 240.065 147.737Z" fill="white"/>
</mask>
<g mask="url(#mask6_123_827)">
<path d="M239.958 147.402C240.809 147.419 241.636 147.116 242.273 146.551C242.91 145.986 243.31 145.202 243.395 144.355H236.76C236.838 145.162 237.205 145.914 237.792 146.473C238.379 147.033 239.148 147.362 239.958 147.402Z" fill="#180C47"/>
<path d="M239.113 145.974C238.031 146.262 237.011 147.243 237.202 147.777C237.563 148.812 242.376 148.595 242.586 147.647C242.726 147.027 240.927 145.484 239.113 145.974Z" fill="#FFC5E1"/>
</g>
<path d="M245.991 122.557C245.76 122.389 245.497 122.271 245.219 122.209C244.94 122.147 244.652 122.143 244.372 122.197C243.995 122.284 243.651 122.48 243.384 122.759C243.282 122.867 243.227 123.01 243.231 123.158C243.234 123.306 243.295 123.446 243.402 123.549C243.509 123.651 243.652 123.707 243.8 123.703C243.948 123.7 244.089 123.638 244.191 123.531C244.306 123.408 244.456 123.324 244.62 123.289C244.745 123.263 244.874 123.263 244.998 123.29C245.123 123.318 245.24 123.371 245.342 123.448C245.401 123.496 245.469 123.532 245.542 123.552C245.615 123.573 245.692 123.579 245.768 123.569C245.843 123.559 245.916 123.534 245.981 123.495C246.047 123.455 246.104 123.403 246.148 123.342C246.193 123.28 246.224 123.21 246.241 123.135C246.257 123.061 246.258 122.984 246.244 122.909C246.229 122.834 246.2 122.763 246.157 122.7C246.114 122.637 246.059 122.584 245.994 122.543L245.991 122.557Z" fill="#180C47"/>
<path d="M235.605 124.346C235.319 124.309 235.028 124.336 234.753 124.426C234.479 124.516 234.228 124.666 234.019 124.865C233.959 124.914 233.91 124.974 233.874 125.042C233.838 125.11 233.817 125.184 233.812 125.261C233.807 125.338 233.817 125.415 233.843 125.487C233.868 125.559 233.909 125.626 233.961 125.682C234.013 125.738 234.077 125.783 234.147 125.813C234.218 125.844 234.294 125.859 234.371 125.859C234.447 125.859 234.523 125.843 234.594 125.812C234.664 125.782 234.727 125.737 234.779 125.68C234.871 125.594 234.979 125.529 235.099 125.49C235.218 125.451 235.344 125.438 235.468 125.453C235.673 125.482 235.862 125.581 236.002 125.734C236.051 125.789 236.11 125.833 236.176 125.865C236.241 125.896 236.313 125.915 236.386 125.919C236.459 125.923 236.532 125.912 236.601 125.888C236.67 125.864 236.733 125.826 236.788 125.778C236.842 125.729 236.887 125.67 236.918 125.604C236.95 125.538 236.968 125.467 236.972 125.394C236.976 125.321 236.966 125.247 236.942 125.178C236.918 125.11 236.88 125.046 236.831 124.992C236.512 124.638 236.078 124.409 235.605 124.346Z" fill="#180C47"/>
<path d="M208.246 176.354C208.798 176.292 209.342 176.171 209.869 175.994L206.825 176.354C207.298 176.397 207.773 176.397 208.246 176.354Z" fill="#5968FE"/>
<path d="M209.101 174.5C209.388 174.501 209.674 174.473 209.955 174.417L208.152 174.396C208.464 174.466 208.782 174.501 209.101 174.5Z" fill="#5968FE"/>
<path d="M243.106 143.684H237.033C236.895 143.683 236.759 143.713 236.634 143.771C236.509 143.83 236.399 143.916 236.312 144.023C236.229 144.122 236.169 144.238 236.135 144.362C236.102 144.487 236.095 144.617 236.117 144.744C236.287 145.646 236.756 146.464 237.45 147.065C238.143 147.666 239.019 148.015 239.936 148.055H240.055C240.995 148.05 241.904 147.717 242.624 147.113C243.344 146.509 243.831 145.673 244 144.748C244.024 144.616 244.018 144.48 243.984 144.35C243.949 144.22 243.886 144.099 243.8 143.996C243.714 143.893 243.606 143.81 243.484 143.753C243.362 143.696 243.229 143.666 243.095 143.666L243.106 143.684ZM240.066 147.402H239.958C239.195 147.367 238.467 147.075 237.892 146.573C237.316 146.072 236.927 145.39 236.788 144.64C236.782 144.606 236.783 144.572 236.792 144.539C236.801 144.506 236.817 144.475 236.839 144.449C236.862 144.42 236.892 144.396 236.925 144.38C236.959 144.363 236.996 144.355 237.033 144.355H243.106C243.142 144.355 243.178 144.362 243.211 144.377C243.244 144.392 243.274 144.414 243.297 144.441C243.321 144.469 243.338 144.501 243.348 144.536C243.358 144.571 243.36 144.608 243.354 144.644C243.206 145.411 242.798 146.103 242.199 146.606C241.6 147.108 240.847 147.389 240.066 147.402Z" fill="#180C47"/>
<path d="M345.293 178.131C344.179 177.209 342.865 176.559 341.456 176.231C339.59 168.225 338.232 160.109 337.392 151.931C336.779 145.905 336.448 139.779 336.404 133.725L331.951 133.779C331.994 139.974 332.333 146.241 332.961 152.407C333.792 160.485 335.117 168.506 336.927 176.422C335.436 177.712 334.396 179.444 333.956 181.366C333.923 181.509 333.918 181.657 333.942 181.801C333.967 181.946 334.019 182.084 334.097 182.208C334.174 182.333 334.276 182.44 334.395 182.525C334.515 182.61 334.65 182.671 334.793 182.704C334.875 182.724 334.96 182.734 335.045 182.733C335.297 182.732 335.54 182.646 335.737 182.488C335.933 182.331 336.071 182.112 336.127 181.867C336.3 181.126 336.588 180.417 336.981 179.765C337.079 179.61 337.198 179.469 337.302 179.321C339.151 180.953 340.417 183.143 340.908 185.56C340.959 185.809 341.095 186.034 341.292 186.196C341.488 186.358 341.735 186.448 341.99 186.45C342.066 186.45 342.142 186.443 342.217 186.429C342.507 186.368 342.76 186.195 342.923 185.948C343.085 185.7 343.142 185.399 343.083 185.109C342.777 183.647 342.238 182.245 341.485 180.955C341.771 181.238 342.037 181.541 342.282 181.86C343.048 182.925 343.584 184.136 343.858 185.419C343.911 185.667 344.047 185.889 344.244 186.049C344.441 186.209 344.686 186.297 344.94 186.299C345.02 186.299 345.099 186.291 345.178 186.274C345.467 186.211 345.719 186.035 345.879 185.787C346.039 185.538 346.094 185.236 346.032 184.947C345.594 182.826 344.558 180.875 343.047 179.325C343.332 179.485 343.604 179.668 343.861 179.87C344.665 180.546 345.31 181.392 345.747 182.347C345.872 182.616 346.098 182.825 346.376 182.927C346.654 183.03 346.962 183.017 347.231 182.893C347.5 182.769 347.709 182.543 347.812 182.264C347.914 181.986 347.902 181.678 347.777 181.409C347.202 180.146 346.354 179.027 345.293 178.131Z" fill="#9783FE"/>
<path d="M310.517 151.942C309.678 160.12 308.319 168.237 306.449 176.242C305.071 176.558 303.783 177.187 302.687 178.081C301.591 178.974 300.715 180.108 300.128 181.395C300.021 181.661 300.02 181.958 300.125 182.225C300.231 182.491 300.435 182.707 300.695 182.828C300.956 182.948 301.252 182.964 301.524 182.872C301.796 182.78 302.021 182.587 302.155 182.333C302.595 181.379 303.239 180.534 304.04 179.855C304.3 179.654 304.573 179.472 304.859 179.311C304.481 179.696 304.132 180.109 303.813 180.544C302.871 181.858 302.211 183.352 301.873 184.932C301.811 185.222 301.866 185.524 302.026 185.772C302.187 186.021 302.439 186.196 302.728 186.259C302.806 186.277 302.886 186.285 302.966 186.285C303.219 186.283 303.465 186.195 303.661 186.035C303.858 185.875 303.994 185.653 304.048 185.405C304.323 184.123 304.859 182.911 305.623 181.846C305.867 181.527 306.134 181.226 306.42 180.944C305.669 182.233 305.131 183.634 304.827 185.095C304.767 185.384 304.824 185.686 304.987 185.933C305.149 186.181 305.402 186.354 305.692 186.414C305.767 186.429 305.843 186.436 305.919 186.436C306.174 186.433 306.42 186.343 306.617 186.181C306.814 186.019 306.949 185.795 307.001 185.545C307.488 183.128 308.755 180.936 310.607 179.307C310.711 179.455 310.83 179.592 310.924 179.751C311.319 180.402 311.607 181.111 311.779 181.853C311.835 182.098 311.973 182.316 312.169 182.473C312.366 182.63 312.609 182.717 312.86 182.718C312.945 182.719 313.03 182.71 313.113 182.69C313.401 182.623 313.651 182.444 313.807 182.193C313.964 181.943 314.015 181.64 313.949 181.352C313.511 179.429 312.468 177.696 310.975 176.408C312.786 168.491 314.11 160.471 314.941 152.393C315.565 146.227 315.904 139.96 315.947 133.765L311.483 133.736C311.461 139.79 311.13 145.917 310.517 151.942Z" fill="#9783FE"/>
<path d="M328.486 155.93L324.015 156.172L326.066 194.131L338.662 194.639L330.145 186.732L328.486 155.93Z" fill="#9783FE"/>
<path d="M320.775 156.161L316.315 156.312L317.371 187.287L309.633 194.358L322.059 194.207C322.049 194.184 322.04 194.162 322.034 194.138H322.073L320.775 156.161Z" fill="#9783FE"/>
<path d="M340.793 130.285H308.113C306.268 130.285 304.773 131.78 304.773 133.624V156.922C304.773 158.766 306.268 160.261 308.113 160.261H340.793C342.637 160.261 344.132 158.766 344.132 156.922V133.624C344.132 131.78 342.637 130.285 340.793 130.285Z" fill="#9783FE"/>
<path d="M330.962 144.219C330.977 142.99 329.993 141.982 328.764 141.967C327.536 141.952 326.528 142.936 326.513 144.165C326.498 145.393 327.481 146.402 328.71 146.417C329.939 146.432 330.947 145.448 330.962 144.219Z" fill="white"/>
<mask id="mask7_123_827" style="mask-type:luminance" maskUnits="userSpaceOnUse" x="326" y="141" width="5" height="6">
<path d="M328.731 146.414C329.959 146.414 330.956 145.418 330.956 144.189C330.956 142.961 329.959 141.964 328.731 141.964C327.502 141.964 326.506 142.961 326.506 144.189C326.506 145.418 327.502 146.414 328.731 146.414Z" fill="white"/>
</mask>
<g mask="url(#mask7_123_827)">
<path d="M328.166 141.47C327.726 141.47 327.296 141.601 326.93 141.846C326.564 142.09 326.279 142.438 326.11 142.845C325.942 143.251 325.898 143.699 325.984 144.131C326.071 144.562 326.283 144.959 326.594 145.27C326.906 145.581 327.303 145.792 327.734 145.878C328.166 145.963 328.614 145.919 329.02 145.75C329.427 145.581 329.774 145.295 330.018 144.929C330.262 144.562 330.392 144.132 330.391 143.692C330.391 143.4 330.334 143.111 330.222 142.841C330.11 142.571 329.946 142.326 329.739 142.12C329.533 141.913 329.287 141.75 329.017 141.639C328.747 141.527 328.458 141.47 328.166 141.47Z" fill="#180C47"/>
</g>
<path d="M331.011 136.44C330.603 136.147 330.14 135.941 329.649 135.836C329.158 135.73 328.651 135.727 328.159 135.827C327.5 135.984 326.9 136.327 326.431 136.815C326.33 136.924 326.276 137.067 326.281 137.215C326.285 137.364 326.349 137.504 326.457 137.605C326.559 137.705 326.696 137.761 326.839 137.76C326.915 137.76 326.99 137.744 327.059 137.714C327.129 137.683 327.191 137.639 327.243 137.583C327.558 137.253 327.963 137.022 328.407 136.916C328.743 136.852 329.089 136.856 329.423 136.93C329.757 137.003 330.073 137.143 330.351 137.342C330.41 137.388 330.478 137.422 330.55 137.442C330.622 137.461 330.698 137.466 330.772 137.456C330.847 137.446 330.918 137.421 330.983 137.382C331.047 137.344 331.103 137.293 331.147 137.232C331.192 137.172 331.223 137.103 331.24 137.03C331.258 136.957 331.26 136.881 331.247 136.808C331.234 136.734 331.207 136.663 331.166 136.6C331.126 136.537 331.073 136.483 331.011 136.44Z" fill="#180C47"/>
<path d="M318.805 141.964C318.364 141.964 317.934 142.093 317.568 142.337C317.201 142.582 316.916 142.929 316.747 143.335C316.578 143.742 316.533 144.189 316.618 144.621C316.704 145.053 316.916 145.45 317.227 145.761C317.538 146.073 317.934 146.285 318.366 146.371C318.797 146.457 319.245 146.413 319.652 146.245C320.058 146.077 320.406 145.792 320.651 145.426C320.895 145.06 321.026 144.629 321.026 144.189C321.026 143.6 320.792 143.034 320.375 142.617C319.959 142.2 319.394 141.965 318.805 141.964Z" fill="white"/>
<mask id="mask8_123_827" style="mask-type:luminance" maskUnits="userSpaceOnUse" x="316" y="141" width="6" height="6">
<path d="M318.8 146.414C320.029 146.414 321.025 145.418 321.025 144.189C321.025 142.96 320.029 141.964 318.8 141.964C317.571 141.964 316.575 142.96 316.575 144.189C316.575 145.418 317.571 146.414 318.8 146.414Z" fill="white"/>
</mask>
<g mask="url(#mask8_123_827)">
<path d="M318.252 141.47C317.812 141.47 317.382 141.601 317.016 141.845C316.65 142.09 316.365 142.438 316.196 142.844C316.028 143.251 315.984 143.699 316.07 144.13C316.156 144.562 316.369 144.958 316.68 145.269C316.992 145.58 317.389 145.792 317.82 145.877C318.252 145.963 318.7 145.918 319.106 145.749C319.513 145.58 319.86 145.295 320.104 144.928C320.348 144.562 320.478 144.132 320.477 143.691C320.476 143.102 320.241 142.537 319.824 142.12C319.407 141.704 318.842 141.47 318.252 141.47Z" fill="#180C47"/>
</g>
<path d="M319.132 135.741C318.633 135.688 318.129 135.74 317.652 135.895C317.175 136.05 316.735 136.303 316.362 136.638C316.308 136.687 316.263 136.747 316.231 136.813C316.199 136.88 316.181 136.952 316.177 137.025C316.174 137.099 316.185 137.172 316.21 137.241C316.235 137.31 316.273 137.374 316.323 137.428C316.423 137.537 316.562 137.603 316.709 137.61C316.857 137.618 317.002 137.566 317.112 137.468C317.369 137.242 317.668 137.071 317.992 136.965C318.316 136.858 318.658 136.818 318.998 136.848C319.554 136.926 320.064 137.196 320.441 137.612C320.493 137.671 320.558 137.718 320.63 137.751C320.702 137.783 320.78 137.8 320.859 137.8C320.992 137.798 321.12 137.748 321.22 137.659C321.274 137.611 321.319 137.552 321.351 137.486C321.383 137.42 321.402 137.349 321.406 137.276C321.411 137.203 321.401 137.129 321.377 137.06C321.353 136.991 321.315 136.927 321.266 136.873C320.712 136.254 319.955 135.852 319.132 135.741Z" fill="#180C47"/>
<path d="M323.573 148.203C323.332 148.203 323.097 148.274 322.896 148.408C322.696 148.542 322.54 148.732 322.447 148.955C322.355 149.178 322.331 149.423 322.378 149.659C322.425 149.896 322.541 150.113 322.711 150.283C322.882 150.454 323.099 150.57 323.336 150.617C323.572 150.664 323.817 150.64 324.04 150.548C324.262 150.455 324.453 150.299 324.587 150.099C324.721 149.898 324.792 149.663 324.792 149.422C324.792 149.098 324.664 148.788 324.435 148.56C324.207 148.331 323.897 148.203 323.573 148.203ZM323.573 149.966C323.465 149.966 323.359 149.934 323.268 149.873C323.178 149.813 323.108 149.727 323.067 149.627C323.025 149.527 323.015 149.416 323.036 149.31C323.057 149.203 323.11 149.106 323.187 149.029C323.264 148.953 323.362 148.901 323.469 148.88C323.575 148.859 323.685 148.871 323.786 148.913C323.886 148.955 323.971 149.026 324.031 149.116C324.091 149.207 324.122 149.313 324.121 149.422C324.119 149.565 324.061 149.703 323.958 149.803C323.855 149.904 323.717 149.96 323.573 149.959V149.966Z" fill="#180C47"/>
</svg>
