<svg width="318" height="159" viewBox="0 0 318 159" fill="none" xmlns="http://www.w3.org/2000/svg">
<path d="M63.6286 150.216L60.4738 148.591C58.6005 139.044 56.1036 129.63 52.999 120.41C50.7699 113.8 48.1998 107.218 45.3536 100.844L40.7656 102.894C43.5428 109.122 46.0439 115.558 48.2364 122.018C51.1021 130.563 53.4358 139.278 55.224 148.112C54.0629 148.296 52.885 148.35 51.7119 148.275C50.8183 148.202 49.9326 148.053 49.0647 147.828C48.9022 147.779 48.7314 147.763 48.5627 147.782C48.3939 147.801 48.2307 147.853 48.0828 147.936C47.9349 148.02 47.8054 148.132 47.702 148.267C47.5987 148.401 47.5237 148.556 47.4815 148.72C47.4392 148.885 47.4307 149.056 47.4564 149.224C47.4822 149.391 47.5415 149.552 47.631 149.697C47.7205 149.841 47.8383 149.965 47.9772 150.063C48.1161 150.161 48.2733 150.229 48.4394 150.264C49.4472 150.524 50.4755 150.697 51.5129 150.78H51.8175C51.7403 150.78 51.6672 150.833 51.586 150.849C50.4282 151.122 49.2536 151.319 48.0699 151.438C47.7446 151.463 47.442 151.614 47.2264 151.859C47.0107 152.104 46.899 152.423 46.9148 152.749C46.9307 153.075 47.0729 153.382 47.3113 153.605C47.5496 153.828 47.8655 153.949 48.1917 153.943H48.3135C49.6093 153.816 50.8952 153.603 52.1626 153.305C52.5889 153.204 52.9746 153.041 53.4091 152.924C52.666 153.305 51.9311 153.707 51.1638 154.028C50.8978 154.142 50.6792 154.344 50.5447 154.6C50.4101 154.856 50.3679 155.151 50.4251 155.434C50.4823 155.718 50.6354 155.973 50.8587 156.157C51.0819 156.341 51.3617 156.442 51.651 156.444C51.8187 156.444 51.9845 156.409 52.1382 156.342C53.4459 155.789 54.7215 155.163 55.9589 154.467C57.251 153.762 58.4851 152.955 59.6496 152.055C59.9744 151.787 60.2383 151.555 60.4251 151.389L62.4552 152.432C62.6327 152.527 62.8307 152.575 63.0317 152.575C63.3128 152.573 63.5851 152.477 63.8054 152.302C64.0256 152.127 64.181 151.884 64.2469 151.611C64.3128 151.338 64.2853 151.05 64.1688 150.794C64.0523 150.539 63.8535 150.329 63.6042 150.199L63.6286 150.216Z" fill="#00D559"/>
<path d="M127.639 119.403C127.511 119.298 127.364 119.22 127.206 119.172C127.048 119.125 126.882 119.109 126.718 119.126C126.553 119.143 126.394 119.193 126.249 119.271C126.104 119.35 125.976 119.457 125.873 119.585C125.349 120.227 124.756 120.824 124.179 121.429C124.411 121.059 124.683 120.718 124.898 120.337C125.542 119.206 126.11 118.034 126.599 116.829C126.661 116.676 126.693 116.512 126.692 116.347C126.691 116.183 126.657 116.019 126.593 115.868C126.529 115.716 126.436 115.578 126.318 115.462C126.201 115.346 126.062 115.254 125.909 115.192C125.756 115.13 125.593 115.099 125.428 115.1C125.263 115.101 125.1 115.134 124.948 115.199C124.796 115.263 124.658 115.356 124.542 115.473C124.427 115.591 124.335 115.73 124.273 115.883C123.825 116.986 123.304 118.059 122.714 119.094C122.665 119.184 122.6 119.257 122.551 119.342C122.58 119.224 122.633 119.114 122.657 118.997C122.868 117.979 122.993 116.946 123.03 115.907C123.036 115.742 123.009 115.577 122.95 115.422C122.892 115.267 122.804 115.126 122.691 115.005C122.578 114.884 122.442 114.787 122.291 114.719C122.14 114.651 121.978 114.613 121.812 114.608C121.48 114.601 121.158 114.725 120.915 114.952C120.672 115.18 120.528 115.493 120.513 115.826C120.479 116.716 120.37 117.601 120.188 118.473C119.933 119.62 119.547 120.734 119.039 121.794C111.067 117.582 103.363 112.88 95.9733 107.713C90.3865 103.799 84.9215 99.5687 79.7325 95.1512L76.4844 98.9759C81.791 103.499 87.3819 107.823 93.0946 111.826C101.066 117.405 109.394 122.457 118.024 126.951L118.69 130.434C118.744 130.719 118.895 130.975 119.117 131.161C119.339 131.347 119.619 131.45 119.908 131.453C119.988 131.462 120.068 131.462 120.148 131.453C120.31 131.423 120.464 131.36 120.602 131.27C120.741 131.179 120.859 131.062 120.952 130.926C121.045 130.789 121.11 130.636 121.143 130.474C121.177 130.312 121.178 130.146 121.146 129.984L120.708 127.698L121.053 127.458C122.408 126.491 123.703 125.441 124.931 124.316C127.249 122.286 127.322 121.774 127.809 121.177C127.915 121.05 127.995 120.903 128.044 120.744C128.093 120.586 128.11 120.419 128.094 120.254C128.078 120.089 128.03 119.929 127.952 119.783C127.873 119.637 127.767 119.508 127.639 119.403Z" fill="#00D559"/>
<path d="M0.375 23.5457L11.2482 22.9285L41.1393 61.0212L45.0939 57.9193L10.2697 13.6632L0.375 23.5457Z" fill="#00D559"/>
<path d="M74.7148 56.0313L79.6805 56.7946L87.0578 8.94527L96.8348 4.15018L83.363 0.378265L74.7148 56.0313Z" fill="#00D559"/>
<path d="M92.1373 58.3821L61.0687 43.0793C60.3183 42.7095 59.4837 42.544 58.649 42.5996C57.8143 42.6552 57.009 42.9299 56.3143 43.396L27.5316 62.6494C26.836 63.1144 26.2751 63.7543 25.9052 64.5048C25.5353 65.2553 25.3694 66.0899 25.4243 66.9248L27.7062 101.477C27.7617 102.312 28.0359 103.118 28.5013 103.813C28.9666 104.509 29.6068 105.07 30.3575 105.44L61.422 120.739C62.172 121.109 63.0065 121.275 63.8412 121.22C64.6759 121.165 65.4814 120.891 66.1765 120.426L94.9632 101.172C95.6583 100.707 96.2187 100.067 96.5879 99.3167C96.9571 98.5662 97.1221 97.7317 97.0664 96.8971L94.7846 62.3449C94.7306 61.5099 94.4575 60.704 93.9928 60.0082C93.528 59.3125 92.888 58.7516 92.1373 58.3821Z" fill="#00D559"/>
<path d="M55.8135 83.8273C55.6581 83.8264 55.5066 83.7782 55.3791 83.6892C55.2913 83.6279 55.2178 83.5482 55.1638 83.4557C55.1098 83.3631 55.0766 83.26 55.0665 83.1533C54.9482 81.8906 55.2788 80.6267 56.0002 79.5836C56.7215 78.5406 57.7875 77.7852 59.0106 77.4502C60.2338 77.1152 61.5358 77.2221 62.688 77.752C63.8402 78.2819 64.7687 79.201 65.3103 80.3477C65.3554 80.4451 65.3788 80.551 65.3788 80.6583C65.3788 80.7656 65.3554 80.8716 65.3103 80.9689C65.2632 81.0685 65.1948 81.1565 65.1099 81.2266C65.025 81.2968 64.9257 81.3474 64.819 81.3749L56.0125 83.8111C55.947 83.8238 55.8802 83.8292 55.8135 83.8273Z" fill="#180C47"/>
<mask id="mask0_5402_13" style="mask-type:luminance" maskUnits="userSpaceOnUse" x="55" y="77" width="11" height="7">
<path d="M55.8135 83.8274C55.6581 83.8264 55.5066 83.7783 55.3791 83.6893C55.2913 83.628 55.2178 83.5483 55.1638 83.4557C55.1098 83.3632 55.0766 83.26 55.0665 83.1534C54.9482 81.8907 55.2788 80.6268 56.0002 79.5837C56.7215 78.5407 57.7875 77.7852 59.0106 77.4502C60.2338 77.1153 61.5358 77.2221 62.688 77.752C63.8402 78.282 64.7687 79.2011 65.3103 80.3478C65.3554 80.4451 65.3788 80.5511 65.3788 80.6584C65.3788 80.7657 65.3554 80.8716 65.3103 80.969C65.2632 81.0685 65.1948 81.1565 65.1099 81.2267C65.025 81.2969 64.9257 81.3475 64.819 81.375L56.0125 83.8111C55.947 83.8239 55.8802 83.8293 55.8135 83.8274Z" fill="white"/>
</mask>
<g mask="url(#mask0_5402_13)">
<path d="M59.2847 77.7655C58.0431 78.0784 56.965 78.8476 56.2652 79.9199C55.5654 80.9921 55.2953 82.2887 55.5087 83.5512L65.1558 80.9081C64.719 79.7655 63.8849 78.8188 62.8065 78.2416C61.7281 77.6643 60.4777 77.4953 59.2847 77.7655Z" fill="#180C47"/>
<path d="M55.3619 78.4273C55.4066 79.4058 58.6101 80.9324 61.0705 79.4992C62.5038 78.6587 63.6122 76.8195 63.1006 76.1008C62.1871 74.7406 55.2888 76.9697 55.3619 78.4273Z" fill="#FFC5E1"/>
</g>
<path d="M56.5365 88.5656C57.0602 90.4008 56.5974 91.7894 56.1711 91.9315C55.7447 92.0736 54.5186 91.3306 53.8121 89.337L53.1016 89.5888C53.7959 91.5498 55.1317 92.6989 56.0858 92.6989C56.1963 92.7005 56.3063 92.6826 56.4106 92.6461C57.3242 92.3416 57.8845 90.5429 57.2633 88.3585L56.5365 88.5656Z" fill="#180C47"/>
<path d="M69.6387 84.9723C70.0041 86.2553 70.0447 87.4084 69.6996 87.989C69.6593 88.0719 69.6026 88.1456 69.5327 88.2057C69.4629 88.2657 69.3815 88.3108 69.2935 88.3382C68.1851 88.6305 67.3893 87.0917 66.9143 85.7478L66.1875 85.9914C67.0686 88.4803 68.1323 89.1218 68.989 89.1218C69.1536 89.1212 69.3173 89.0994 69.4763 89.0568C69.6603 89.003 69.8317 88.9127 69.9803 88.7913C70.1289 88.6699 70.2515 88.52 70.3411 88.3504C70.7755 87.583 70.7796 86.2716 70.3411 84.7612L69.6387 84.9723Z" fill="#180C47"/>
<path d="M59.095 77.0305C57.7512 77.3691 56.5713 78.1737 55.7653 79.3009C54.9593 80.4281 54.5796 81.8048 54.6937 83.1858C54.7079 83.3478 54.7579 83.5047 54.8401 83.6451C54.9222 83.7856 55.0345 83.906 55.1688 83.9978C55.359 84.1276 55.584 84.1969 55.8143 84.1968C55.9159 84.1975 56.0171 84.1839 56.1148 84.1562L64.9213 81.7444C65.0829 81.701 65.2329 81.6225 65.3607 81.5144C65.4884 81.4063 65.5907 81.2713 65.6603 81.1192C65.7295 80.9718 65.7653 80.811 65.7653 80.6482C65.7653 80.4854 65.7295 80.3246 65.6603 80.1772C65.0813 78.989 64.1176 78.0316 62.9257 77.4603C61.7338 76.8891 60.3838 76.7376 59.095 77.0305ZM64.9701 80.8146C64.9469 80.8655 64.9126 80.9105 64.8697 80.9463C64.8269 80.9822 64.7765 81.0079 64.7224 81.0217L55.9158 83.4335C55.8616 83.4472 55.8051 83.4497 55.7499 83.4406C55.6947 83.4315 55.642 83.4111 55.5951 83.3807C55.5529 83.3507 55.5176 83.3119 55.4917 83.2671C55.4658 83.2223 55.4498 83.1724 55.4448 83.1208C55.3455 81.9176 55.6773 80.7182 56.3809 79.7371C57.0846 78.756 58.1142 78.0572 59.2858 77.7654C59.6557 77.6783 60.0345 77.6347 60.4145 77.6355C61.3667 77.643 62.2978 77.9165 63.1028 78.4252C63.9078 78.9339 64.5545 79.6574 64.9701 80.5142C64.9939 80.5607 65.0064 80.6122 65.0064 80.6644C65.0064 80.7167 64.9939 80.7682 64.9701 80.8146Z" fill="#180C47"/>
<path d="M232.29 147.958L221.818 157.296H235.85L244.872 102.325L239.911 101.513L232.29 147.958Z" fill="#FFB73E"/>
<path d="M256.467 102.593L251.672 104.096L268.505 157.804L268.579 157.779H282.562C279.208 154.783 274.226 150.958 270.653 147.852L256.467 102.593Z" fill="#FFB73E"/>
<path d="M212.858 101.842C205.72 108.068 198.185 113.822 190.299 119.07C188.206 118.448 186.278 117.365 184.66 115.899C184.537 115.788 184.394 115.704 184.238 115.649C184.082 115.594 183.917 115.571 183.753 115.58C183.588 115.589 183.426 115.63 183.278 115.702C183.129 115.773 182.996 115.873 182.886 115.996C182.775 116.119 182.691 116.262 182.636 116.418C182.581 116.574 182.558 116.739 182.567 116.903C182.576 117.068 182.617 117.229 182.689 117.378C182.76 117.527 182.86 117.66 182.983 117.77C183.76 118.464 184.594 119.09 185.476 119.642C185.577 119.703 185.691 119.744 185.797 119.804C185.699 119.78 185.602 119.776 185.504 119.752C184.349 119.463 183.215 119.095 182.11 118.651C181.957 118.59 181.793 118.56 181.628 118.562C181.463 118.565 181.3 118.599 181.148 118.664C180.997 118.73 180.86 118.824 180.745 118.942C180.63 119.061 180.539 119.2 180.478 119.354C180.417 119.507 180.387 119.671 180.389 119.836C180.391 120.001 180.426 120.164 180.491 120.315C180.623 120.621 180.871 120.863 181.18 120.986C182.388 121.475 183.628 121.882 184.891 122.204C185.297 122.31 185.728 122.354 186.142 122.435C185.33 122.435 184.518 122.435 183.677 122.387C183.355 122.377 183.042 122.492 182.802 122.707C182.562 122.922 182.413 123.22 182.387 123.541C182.36 123.862 182.458 124.181 182.659 124.432C182.861 124.684 183.151 124.848 183.47 124.892C184.428 124.969 185.391 125.006 186.349 125.006C186.809 125.022 187.27 125.014 187.729 124.981C189.759 124.847 190.571 124.36 192.707 124.303C192.886 124.303 193.028 124.303 193.113 124.303L194.445 126.171C194.653 126.397 194.937 126.54 195.243 126.572C195.549 126.603 195.856 126.521 196.106 126.342C196.356 126.162 196.532 125.898 196.6 125.598C196.668 125.297 196.623 124.983 196.475 124.713L194.668 122.184C202.162 117.106 209.341 111.58 216.167 105.634C221.417 101.046 226.516 96.1538 231.315 91.0867L227.661 87.6315C222.976 92.5768 217.994 97.3597 212.858 101.842Z" fill="#FFB73E"/>
<path d="M315.784 123.852C314.678 124.293 313.544 124.659 312.389 124.949C312.296 124.973 312.194 124.981 312.097 125.001C312.202 124.941 312.316 124.904 312.422 124.839C313.303 124.287 314.136 123.661 314.911 122.967C315.034 122.857 315.134 122.724 315.205 122.576C315.277 122.427 315.318 122.266 315.327 122.102C315.337 121.937 315.313 121.772 315.259 121.617C315.205 121.461 315.12 121.318 315.01 121.195C314.9 121.072 314.767 120.972 314.619 120.901C314.47 120.829 314.309 120.787 314.145 120.778C313.98 120.769 313.815 120.792 313.66 120.847C313.504 120.901 313.361 120.986 313.238 121.096C311.616 122.563 309.684 123.647 307.586 124.267C299.7 119.02 292.164 113.267 285.024 107.043C279.887 102.557 274.902 97.7738 270.216 92.8325L266.578 96.2959C271.373 101.355 276.473 106.251 281.731 110.839C288.548 116.78 295.721 122.3 303.209 127.368L301.406 129.898C301.31 130.032 301.242 130.185 301.205 130.346C301.167 130.507 301.162 130.674 301.19 130.837C301.218 131 301.277 131.156 301.365 131.295C301.453 131.435 301.568 131.557 301.703 131.652C301.914 131.805 302.169 131.886 302.43 131.883C302.63 131.884 302.827 131.837 303.005 131.746C303.183 131.655 303.336 131.522 303.453 131.36L304.785 129.488C304.931 129.488 305.191 129.488 305.532 129.488C307.472 129.557 308.203 130.036 310.168 130.166C310.628 130.202 311.088 130.211 311.549 130.194C312.507 130.194 313.469 130.154 314.423 130.077C314.595 130.072 314.763 130.033 314.919 129.962C315.074 129.89 315.214 129.787 315.328 129.66C315.443 129.533 315.53 129.384 315.585 129.221C315.64 129.059 315.661 128.887 315.647 128.717C315.633 128.546 315.585 128.38 315.504 128.229C315.424 128.077 315.314 127.944 315.18 127.837C315.047 127.73 314.893 127.651 314.728 127.605C314.563 127.56 314.39 127.548 314.22 127.572C313.408 127.636 312.576 127.62 311.752 127.624C312.158 127.539 312.592 127.494 313.002 127.393C314.266 127.069 315.507 126.662 316.717 126.175C317.012 126.04 317.243 125.798 317.363 125.498C317.483 125.198 317.483 124.863 317.363 124.562C317.243 124.262 317.012 124.02 316.718 123.885C316.424 123.751 316.089 123.735 315.784 123.84V123.852Z" fill="#FFB73E"/>
<path d="M299.217 62.8724L264.267 62.3892C263.469 62.3767 262.697 62.1061 262.066 61.6179C261.435 61.1297 260.979 60.4501 260.767 59.6811L252.646 30.0904C251.648 26.4606 246.483 26.4931 245.533 30.1351C242.891 40.226 240.251 50.3142 237.612 60.3997C237.405 61.1894 236.942 61.8881 236.295 62.3863C235.649 62.8845 234.855 63.154 234.039 63.1525L199.166 63.0389C195.398 63.0389 194.046 68.0085 197.302 69.9046L224.968 86.0236C225.713 86.4555 226.283 87.1345 226.58 87.9429C226.877 88.7513 226.881 89.638 226.592 90.4492C222.581 101.655 218.571 112.863 214.562 124.072C213.279 127.669 217.635 130.604 220.486 128.059L246.495 104.822C247.171 104.22 248.044 103.887 248.95 103.887C249.855 103.887 250.729 104.22 251.404 104.822L277.365 128.059C280.207 130.609 284.58 127.653 283.289 124.068L271.25 90.5304C270.959 89.7194 270.962 88.8318 271.259 88.0228C271.556 87.2139 272.128 86.535 272.874 86.1048L301.024 69.7382C304.247 67.8745 302.952 62.9211 299.217 62.8724Z" fill="#FFB73E"/>
<path d="M246.837 83.9204H246.723C245.912 83.8832 245.137 83.573 244.524 83.0402C243.911 82.5074 243.495 81.7832 243.345 80.9849C243.33 80.8987 243.333 80.8103 243.355 80.7256C243.377 80.6409 243.416 80.5618 243.471 80.4936C243.53 80.4234 243.603 80.367 243.686 80.3284C243.769 80.2898 243.859 80.27 243.95 80.2703H249.728C249.818 80.2695 249.907 80.2886 249.989 80.326C250.07 80.3635 250.143 80.4184 250.201 80.487C250.259 80.5555 250.301 80.6361 250.325 80.7228C250.348 80.8095 250.352 80.9004 250.337 80.9889C250.182 81.8064 249.748 82.5449 249.11 83.0792C248.472 83.6135 247.669 83.9107 246.837 83.9204Z" fill="#180C47"/>
<mask id="mask1_5402_13" style="mask-type:luminance" maskUnits="userSpaceOnUse" x="243" y="80" width="8" height="4">
<path d="M246.837 83.9205H246.723C245.912 83.8832 245.137 83.5731 244.524 83.0403C243.911 82.5075 243.495 81.7832 243.345 80.9849C243.33 80.8988 243.333 80.8104 243.355 80.7257C243.377 80.6409 243.416 80.5618 243.471 80.4937C243.53 80.4235 243.603 80.3671 243.686 80.3285C243.769 80.2899 243.859 80.27 243.95 80.2703H249.728C249.818 80.2696 249.907 80.2886 249.989 80.3261C250.07 80.3635 250.143 80.4185 250.201 80.487C250.259 80.5556 250.301 80.6361 250.325 80.7229C250.348 80.8096 250.352 80.9005 250.337 80.989C250.182 81.8064 249.748 82.5449 249.11 83.0792C248.472 83.6135 247.669 83.9108 246.837 83.9205Z" fill="white"/>
</mask>
<g mask="url(#mask1_5402_13)">
<path d="M246.731 83.5428C247.541 83.5601 248.328 83.2713 248.935 82.7339C249.541 82.1966 249.923 81.4502 250.004 80.6439H243.678C243.753 81.4134 244.103 82.1301 244.664 82.6625C245.225 83.1949 245.959 83.5075 246.731 83.5428Z" fill="#180C47"/>
<path d="M245.927 82.1827C244.908 82.4588 243.925 83.4008 244.108 83.9164C244.449 84.899 249.029 84.6919 249.228 83.7905C249.362 83.1896 247.653 81.7198 245.927 82.1827Z" fill="#FFC5E1"/>
</g>
<path d="M251.742 75.1179H251.697C250.824 75.1707 250.101 76.5837 250.117 78.2037H250.873C250.873 76.7258 251.482 75.8934 251.742 75.8772C251.989 75.8772 252.744 76.6486 252.858 78.1915L253.609 78.1346C253.483 76.3076 252.55 75.1179 251.742 75.1179Z" fill="#180C47"/>
<path d="M241.315 75.1179C241.157 75.1196 241.002 75.1532 240.857 75.2167C240.713 75.2802 240.583 75.3723 240.475 75.4874C239.979 75.9868 239.699 76.9775 239.711 78.2037H240.467C240.467 77.2049 240.665 76.3685 241.011 76.0233C241.048 75.9786 241.094 75.9423 241.147 75.9171C241.199 75.8919 241.257 75.8783 241.315 75.8772C242.127 75.8772 242.379 77.1358 242.46 78.1915L243.211 78.1346C243.029 75.6417 242.078 75.1179 241.315 75.1179Z" fill="#180C47"/>
<path d="M249.728 79.8927H243.95C243.803 79.8918 243.657 79.9237 243.524 79.9862C243.39 80.0488 243.272 80.1403 243.179 80.2541C243.087 80.3661 243.021 80.497 242.986 80.6374C242.951 80.7778 242.948 80.9242 242.976 81.0661C243.138 81.9505 243.597 82.7534 244.275 83.3435C244.954 83.9335 245.813 84.2758 246.711 84.3143H246.837C247.759 84.3076 248.65 83.9796 249.356 83.3867C250.063 82.7938 250.54 81.9732 250.706 81.0661C250.732 80.9234 250.726 80.7768 250.688 80.6368C250.651 80.4967 250.583 80.3666 250.49 80.2557C250.396 80.1449 250.28 80.0559 250.148 79.9953C250.016 79.9347 249.873 79.9038 249.728 79.9049V79.8927ZM246.837 83.5469H246.735C246.009 83.515 245.315 83.2379 244.766 82.7608C244.218 82.2837 243.847 81.6348 243.715 80.9199C243.729 81.0148 243.778 81.1008 243.853 81.1605C243.928 81.2202 244.023 81.2492 244.119 81.2414C244.214 81.2337 244.303 81.1898 244.368 81.1188C244.432 81.0478 244.467 80.9549 244.466 80.859C244.463 80.7891 244.444 80.7209 244.409 80.6601H249.728C249.763 80.6609 249.798 80.6688 249.83 80.6835C249.862 80.6982 249.891 80.7192 249.915 80.7454C249.936 80.7718 249.951 80.8025 249.96 80.8354C249.968 80.8684 249.969 80.9027 249.963 80.9362C249.818 81.6626 249.429 82.3176 248.86 82.7924C248.291 83.2673 247.578 83.5335 246.837 83.5469Z" fill="#180C47"/>
<path d="M223.707 70.8002C222.144 70.3617 220.893 69.643 216.996 69.712C215.615 69.7364 214.007 69.7811 212.209 69.8582C211.335 69.5098 210.568 68.9387 209.984 68.2017C209.578 67.6819 208.688 66.5248 208.696 65.2418C208.736 64.8825 208.642 64.5213 208.433 64.2267C208.231 64.0009 207.954 63.8565 207.653 63.8207C207.325 63.768 206.989 63.8479 206.719 64.0429C206.45 64.2378 206.269 64.5317 206.216 64.8601C205.988 66.2548 206.167 67.6857 206.731 68.9812C207.005 69.5956 207.366 70.1672 207.803 70.6784C200.714 79.5773 195.884 90.0601 193.727 101.231L198.664 102.19C200.595 92.1445 204.865 82.6956 211.129 74.6086C211.273 74.6836 211.43 74.7305 211.591 74.7467C213.021 74.8656 214.426 75.1925 215.761 75.7171C216.762 76.1121 217.715 76.6174 218.603 77.2234C218.739 77.3151 218.89 77.3799 219.05 77.4142C219.334 77.4724 219.63 77.4305 219.887 77.2957C220.144 77.1608 220.347 76.9412 220.46 76.6742C220.574 76.4071 220.592 76.1089 220.511 75.8302C220.43 75.5514 220.255 75.3092 220.016 75.1446C219.781 74.9862 219.529 74.8563 219.285 74.7061C220.257 75.12 221.181 75.6372 222.042 76.249C222.176 76.3457 222.328 76.4151 222.488 76.4532C222.649 76.4913 222.815 76.4973 222.978 76.4709C223.141 76.4445 223.297 76.3862 223.438 76.2993C223.578 76.2125 223.7 76.0988 223.796 75.9647C223.893 75.831 223.962 75.6795 224.001 75.5189C224.039 75.3582 224.045 75.1917 224.018 75.0288C223.992 74.8658 223.934 74.7097 223.847 74.5693C223.76 74.4289 223.646 74.3071 223.512 74.2107C222.791 73.7004 222.032 73.2457 221.242 72.8506C221.839 72.9764 222.436 73.0779 223.021 73.2566C223.341 73.3368 223.679 73.2915 223.967 73.1299C224.255 72.9684 224.47 72.7028 224.568 72.3877C224.618 72.227 224.636 72.0578 224.619 71.8902C224.603 71.7226 224.553 71.56 224.473 71.412C224.393 71.2639 224.284 71.1335 224.152 71.0284C224.02 70.9233 223.869 70.8457 223.707 70.8002Z" fill="#F79CFF"/>
<path d="M215.243 72.9967C215.096 72.8099 213.915 71.3726 212.059 71.4376C211.351 71.4685 210.665 71.6994 210.082 72.1034L219.295 74.6979C218.045 73.9085 216.673 73.3335 215.234 72.9967H215.243Z" fill="#F79CFF"/>
<path d="M218.441 71.803L221.251 72.8424C220.724 72.4895 220.148 72.2159 219.542 72.0304C219.183 71.9216 218.814 71.8455 218.441 71.803Z" fill="#F79CFF"/>
<path d="M168.235 150.883L154.025 96.5824L149.152 97.8573L161.426 144.74L154.483 153.527L163.326 151.98L163.371 152.154L165.491 151.602L168.264 151.115C168.223 151.046 168.187 150.977 168.15 150.904L168.235 150.883Z" fill="#F79CFF"/>
<path d="M147.175 149.073L136.168 153.486L144.613 156.543L145.506 156.848L149.323 158.232V158.159H149.364L169.957 98.0684L165.202 96.4443L147.175 149.073Z" fill="#F79CFF"/>
<path d="M117.24 63.0614C117.774 62.6511 118.246 62.1656 118.641 61.6201C119.463 60.4712 119.934 59.1089 119.997 57.6979C120.006 57.533 119.982 57.368 119.926 57.2124C119.871 57.0568 119.785 56.9137 119.674 56.7914C119.563 56.6691 119.429 56.57 119.28 56.4998C119.13 56.4296 118.968 56.3897 118.803 56.3824C118.499 56.3616 118.198 56.4509 117.955 56.6342C117.691 56.8817 117.525 57.2161 117.488 57.5761C117.228 58.8307 116.116 59.7808 115.616 60.2071C114.893 60.808 114.025 61.2084 113.099 61.3683C111.357 60.9217 109.79 60.5563 108.446 60.2396C104.646 59.3667 103.273 59.8133 101.653 59.9189C101.321 59.9408 101.012 60.0932 100.792 60.3427C100.572 60.5922 100.46 60.9186 100.48 61.2506C100.511 61.5797 100.666 61.8846 100.915 62.1027C101.163 62.3209 101.485 62.4358 101.816 62.424C102.421 62.3875 103.034 62.424 103.635 62.424C102.782 62.6454 101.947 62.9318 101.138 63.2807C100.875 63.3981 100.66 63.6019 100.53 63.8582C100.399 64.1146 100.36 64.4079 100.42 64.6894C100.479 64.9708 100.633 65.2235 100.856 65.4053C101.079 65.5871 101.357 65.687 101.645 65.6884C101.82 65.69 101.993 65.654 102.153 65.5828C103.121 65.1612 104.133 64.8454 105.169 64.6409C104.901 64.7342 104.625 64.8114 104.357 64.921C104.074 65.0213 103.836 65.2202 103.686 65.4814C103.537 65.7426 103.487 66.0487 103.544 66.3439C103.602 66.6392 103.764 66.9039 104 67.0899C104.236 67.2759 104.532 67.3707 104.832 67.3571C104.996 67.3568 105.157 67.3237 105.307 67.2597C106.306 66.8532 107.346 66.5564 108.409 66.3746C109.824 66.1371 111.266 66.1083 112.689 66.2893C112.85 66.3055 113.013 66.2903 113.168 66.2446C117.627 75.451 119.853 85.5791 119.664 95.8069L124.691 95.8881C124.882 84.5128 122.319 73.2601 117.22 63.0899L117.24 63.0614Z" fill="#F79CFF"/>
<path d="M159.507 78.3034C146.214 77.6811 133.15 81.9258 122.761 90.2427C112.373 98.5595 105.372 110.378 103.07 123.485L123.266 126.376C124.927 117.865 129.748 110.297 136.761 105.195C143.773 100.092 152.456 97.833 161.066 98.8707C169.676 99.9084 177.574 104.166 183.173 110.789C188.773 117.411 191.658 125.907 191.25 134.57C191.225 135.081 191.148 135.576 191.103 136.08L211.303 138.971C211.429 137.834 211.53 136.689 211.583 135.532C211.923 128.354 210.845 121.181 208.411 114.42C205.978 107.659 202.236 101.444 197.4 96.1295C192.564 90.8151 186.729 86.5055 180.227 83.4468C173.725 80.3882 166.684 78.6404 159.507 78.3034Z" fill="#F79CFF"/>
<path d="M156.564 89.5257C158.378 89.5257 159.849 88.0551 159.849 86.2411C159.849 84.427 158.378 82.9564 156.564 82.9564C154.75 82.9564 153.279 84.427 153.279 86.2411C153.279 88.0551 154.75 89.5257 156.564 89.5257Z" fill="white"/>
<path d="M156.563 84.0811C156.135 84.0803 155.717 84.2063 155.361 84.4431C155.006 84.68 154.728 85.017 154.564 85.4117C154.4 85.8063 154.357 86.2407 154.439 86.66C154.522 87.0793 154.728 87.4645 155.03 87.767C155.332 88.0695 155.716 88.2756 156.136 88.3593C156.555 88.443 156.989 88.4004 157.384 88.2371C157.779 88.0737 158.117 87.7968 158.354 87.4415C158.592 87.0862 158.718 86.6685 158.718 86.2411C158.718 85.6689 158.491 85.1201 158.087 84.7152C157.683 84.3102 157.135 84.0821 156.563 84.0811Z" fill="#180C47"/>
<path d="M167.591 91.6817C169.405 91.6817 170.876 90.2111 170.876 88.397C170.876 86.5829 169.405 85.1123 167.591 85.1123C165.777 85.1123 164.307 86.5829 164.307 88.397C164.307 90.2111 165.777 91.6817 167.591 91.6817Z" fill="white"/>
<path d="M167.59 90.553C168.78 90.553 169.746 89.5878 169.746 88.397C169.746 87.2063 168.78 86.2411 167.59 86.2411C166.399 86.2411 165.434 87.2063 165.434 88.397C165.434 89.5878 166.399 90.553 167.59 90.553Z" fill="#180C47"/>
<path d="M161.464 96.7123C161.154 96.7133 160.843 96.6956 160.535 96.6595C159.024 96.4849 156.6 95.6607 156.531 94.1828C156.543 93.7981 156.669 93.4257 156.892 93.1122C157.116 92.7987 157.426 92.5581 157.786 92.4207C158.313 92.2793 158.873 92.3312 159.365 92.5668C159.754 92.7028 160.109 92.9217 160.405 93.2084C160.508 93.3334 160.651 93.4182 160.811 93.4479C161.077 93.4669 161.342 93.3875 161.554 93.2246C161.977 92.9386 162.486 92.8055 162.995 92.847C163.24 92.8586 163.479 92.9188 163.7 93.0241C163.921 93.1293 164.119 93.2776 164.282 93.4601C164.497 93.7426 164.63 94.078 164.669 94.4306C164.708 94.7831 164.65 95.1396 164.501 95.4618C163.998 96.5174 162.496 96.7123 161.464 96.7123Z" fill="#180C47"/>
<mask id="mask2_5402_13" style="mask-type:luminance" maskUnits="userSpaceOnUse" x="156" y="92" width="9" height="5">
<path d="M161.464 96.7123C161.154 96.7133 160.843 96.6956 160.535 96.6595C159.024 96.4849 156.6 95.6607 156.531 94.1828C156.543 93.7981 156.669 93.4257 156.892 93.1122C157.116 92.7987 157.426 92.5581 157.786 92.4207C158.313 92.2793 158.873 92.3312 159.365 92.5668C159.754 92.7028 160.109 92.9217 160.405 93.2084C160.508 93.3334 160.651 93.4182 160.811 93.4479C161.077 93.4669 161.342 93.3875 161.554 93.2246C161.977 92.9386 162.486 92.8055 162.995 92.847C163.24 92.8586 163.479 92.9188 163.7 93.0241C163.921 93.1293 164.119 93.2776 164.282 93.4601C164.497 93.7426 164.63 94.078 164.669 94.4306C164.708 94.7831 164.65 95.1396 164.501 95.4618C163.998 96.5174 162.496 96.7123 161.464 96.7123Z" fill="white"/>
</mask>
<g mask="url(#mask2_5402_13)">
<path d="M162.958 93.2206C161.91 93.115 161.594 93.9555 160.753 93.8215C160.152 93.72 160.197 93.2693 159.235 92.9201C158.826 92.716 158.358 92.6656 157.915 92.778C157.63 92.8861 157.383 93.0751 157.204 93.3219C157.025 93.5686 156.922 93.8622 156.908 94.1666C156.961 95.3034 159.072 96.1114 160.562 96.286C160.838 96.3185 163.526 96.6027 164.148 95.2994C164.266 95.043 164.313 94.7595 164.283 94.4787C164.254 94.1979 164.15 93.9302 163.981 93.7037C163.713 93.4192 163.348 93.2466 162.958 93.2206Z" fill="#180C47"/>
<path d="M160.216 94.9705C159.343 94.9989 158.369 95.5674 158.418 96.0221C158.507 96.8829 162.247 97.5853 162.579 96.895C162.803 96.4362 161.698 94.9218 160.216 94.9705Z" fill="#FFC5E1"/>
</g>
<path d="M160.237 74.6248C159.395 74.1309 158.406 73.9517 157.445 74.1189C156.483 74.2862 155.612 74.7892 154.987 75.5384C154.881 75.6671 154.831 75.8326 154.847 75.9986C154.863 76.1645 154.944 76.3173 155.072 76.4235C155.185 76.5201 155.33 76.5721 155.478 76.5697C155.571 76.569 155.662 76.5479 155.746 76.5079C155.829 76.4679 155.903 76.41 155.962 76.3382C156.395 75.8139 157.002 75.4625 157.673 75.3478C158.343 75.233 159.033 75.3626 159.616 75.713C159.76 75.7975 159.932 75.8212 160.094 75.779C160.256 75.7367 160.394 75.6319 160.479 75.4876C160.563 75.3433 160.587 75.1714 160.545 75.0095C160.502 74.8477 160.397 74.7094 160.253 74.6248H160.237Z" fill="#180C47"/>
<path d="M167.807 74.1255C166.836 73.9468 165.835 74.1241 164.985 74.6249C164.913 74.6665 164.851 74.7217 164.801 74.7875C164.751 74.8532 164.714 74.9282 164.693 75.0081C164.672 75.0881 164.666 75.1714 164.678 75.2533C164.689 75.3352 164.716 75.4142 164.757 75.4856C164.799 75.5571 164.854 75.6196 164.92 75.6697C164.986 75.7198 165.061 75.7565 165.141 75.7776C165.221 75.7987 165.304 75.8038 165.386 75.7928C165.468 75.7817 165.547 75.7546 165.618 75.713C166.211 75.3676 166.907 75.2425 167.583 75.3598C168.24 75.4813 168.834 75.8272 169.264 76.3383C169.324 76.4101 169.398 76.4681 169.482 76.508C169.566 76.548 169.658 76.5691 169.751 76.5697C169.9 76.5722 170.044 76.5202 170.157 76.4235C170.286 76.3174 170.367 76.1645 170.383 75.9986C170.399 75.8326 170.349 75.6671 170.243 75.5384C169.619 74.7997 168.758 74.3003 167.807 74.1255Z" fill="#180C47"/>
<path d="M112.921 62.9315C111.118 62.489 109.673 63.6502 109.49 63.8004C108.015 63.8281 106.555 64.1026 105.17 64.6124L114.719 63.975C114.23 63.465 113.607 63.1033 112.921 62.9315Z" fill="#F79CFF"/>
<path d="M105.478 61.9692C104.846 62.0271 104.225 62.1762 103.635 62.4118L106.599 61.9692C106.226 61.9366 105.851 61.9366 105.478 61.9692Z" fill="#F79CFF"/>
<path d="M163.034 92.4694C162.446 92.4228 161.859 92.5727 161.365 92.8957C161.073 93.0662 160.984 93.0987 160.87 93.0703C160.756 93.0419 160.805 93.0703 160.659 92.9282C160.328 92.6068 159.93 92.3628 159.494 92.2136C158.92 91.9451 158.268 91.8932 157.659 92.0674C157.222 92.2304 156.845 92.5215 156.577 92.9027C156.309 93.2838 156.162 93.7371 156.156 94.2031C156.233 95.9165 158.791 96.8382 160.493 97.0452C160.816 97.0794 161.141 97.097 161.467 97.098C162.685 97.098 164.264 96.8422 164.845 95.6323C165.022 95.244 165.09 94.8148 165.042 94.3908C164.995 93.9667 164.832 93.5636 164.573 93.2246C164.381 93.0016 164.145 92.8198 163.881 92.6901C163.616 92.5603 163.328 92.4852 163.034 92.4694ZM164.163 95.3115C163.733 96.2129 162.287 96.3469 161.467 96.3469C161.17 96.3466 160.873 96.3303 160.578 96.2981C159.128 96.1276 156.96 95.3359 156.924 94.1787C156.938 93.8749 157.041 93.5819 157.219 93.3353C157.397 93.0887 157.643 92.8993 157.926 92.7901C158.057 92.7451 158.194 92.7218 158.333 92.7211C158.646 92.738 158.953 92.8094 159.242 92.9323C159.588 93.0481 159.902 93.2427 160.16 93.5007C160.316 93.674 160.526 93.7898 160.756 93.8296C161.11 93.8724 161.467 93.7763 161.751 93.5616C162.109 93.3182 162.538 93.2023 162.969 93.2327C163.165 93.2401 163.357 93.2867 163.534 93.3697C163.711 93.4527 163.87 93.5704 164.001 93.7159C164.166 93.9414 164.269 94.2071 164.297 94.4855C164.326 94.7639 164.279 95.0449 164.163 95.2993V95.3115Z" fill="#180C47"/>
</svg>
