<svg width="418" height="422" viewBox="0 0 418 422" fill="none" xmlns="http://www.w3.org/2000/svg">
<path d="M168.594 364.043L152.479 378.324L173.928 378.407L173.991 378.419L188.161 294.192L180.557 292.884L168.594 364.043Z" fill="#8522D7"/>
<path d="M199.619 294.228L213.116 378.565L213.184 378.542L234.634 378.631L218.63 364.231L207.23 292.993L199.619 294.228Z" fill="#8522D7"/>
<path d="M50.2558 88.7586L42.5463 108.772L42.5123 108.832L116.188 152.043L120.086 145.394L57.8623 108.903C55.3273 102.195 52.7918 95.4803 50.2558 88.7586Z" fill="#FFEDC5"/>
<path d="M27.3228 132.271L14.9522 149.79L35.9282 144.942L100.8 176.439L104.166 169.514L27.3437 132.188L27.3228 132.271Z" fill="#FFEDC5"/>
<path d="M290.329 195.54L285.846 201.805L344.53 243.766C346.453 250.676 348.372 257.591 350.287 264.511L359.796 245.265L359.834 245.215L290.329 195.54Z" fill="#FF6B32"/>
<path d="M344.904 167.129C340.648 162.05 336.935 158.102 331.169 157.207C324.544 156.182 319.276 159.667 315.794 161.974C306.475 168.142 301.604 177.121 299.152 183.569L306.355 186.309C308.403 180.919 312.443 173.436 320.048 168.399C323.479 166.131 326.589 164.296 329.99 164.822C332.595 165.225 334.62 166.854 339.007 172.095C344.597 178.785 349.63 185.922 354.055 193.433L357.409 191.468L372.746 182.545L353.675 178.615C350.886 174.622 347.966 170.77 344.904 167.129Z" fill="#FF6B32"/>
<path d="M181.872 81.4264C166.68 81.9117 151.729 85.3547 137.854 91.5626C86.6154 114.221 58.3217 171.219 71.2615 225.732C76.0645 245.996 86.0684 261.626 89.5501 266.564C99.3366 280.42 111.994 292.006 126.66 300.532C127.175 300.828 127.744 301.016 128.333 301.086C128.923 301.156 129.52 301.107 130.09 300.941C130.659 300.774 131.19 300.495 131.649 300.119C132.108 299.743 132.487 299.279 132.763 298.753L239.095 99.3383C239.377 98.8154 239.551 98.2411 239.605 97.6497C239.66 97.0582 239.595 96.4618 239.414 95.8961C239.233 95.3304 238.94 94.807 238.552 94.3571C238.164 93.9073 237.69 93.5403 237.157 93.2781C219.951 84.9361 200.985 80.8704 181.872 81.4264Z" fill="#FFEDC5"/>
<path d="M196.455 218.441C196.043 217.78 195.465 217.239 194.777 216.873C194.09 216.507 193.319 216.328 192.54 216.355C191.762 216.382 191.005 216.613 190.344 217.025C189.684 217.438 189.143 218.017 188.778 218.705L143.076 304.427C142.792 304.955 142.618 305.534 142.565 306.131C142.512 306.727 142.581 307.329 142.768 307.898C142.955 308.467 143.255 308.992 143.651 309.441C144.047 309.891 144.53 310.255 145.071 310.512C156.02 315.625 174.056 322.042 196.127 321.281C206.799 320.883 217.36 318.961 227.488 315.572C234.056 313.356 240.399 310.523 246.432 307.111C246.945 306.812 247.392 306.413 247.746 305.938C248.101 305.462 248.356 304.92 248.497 304.344C248.637 303.768 248.659 303.169 248.563 302.584C248.466 301.999 248.253 301.439 247.934 300.938C230.773 273.434 213.613 245.935 196.455 218.441Z" fill="#8522D7"/>
<path d="M251.281 106.592L203.223 196.711C202.419 198.218 202.027 199.91 202.084 201.617C202.142 203.324 202.648 204.985 203.552 206.434C221.361 234.968 239.17 263.51 256.98 292.058C257.312 292.595 257.755 293.055 258.279 293.407C258.804 293.759 259.397 293.995 260.02 294.098C260.643 294.202 261.281 294.171 261.891 294.008C262.501 293.845 263.069 293.553 263.557 293.152C303.521 259.548 320.451 208.897 306.711 165.458C296.014 131.615 269.995 112.573 257.488 104.896C256.974 104.58 256.401 104.373 255.804 104.287C255.207 104.202 254.599 104.239 254.017 104.398C253.435 104.557 252.892 104.834 252.421 105.211C251.951 105.588 251.563 106.058 251.281 106.592Z" fill="#FF6B32"/>
<path d="M265.166 204.404C264.751 204.546 264.323 204.647 263.888 204.704C263.738 204.726 263.584 204.714 263.438 204.669C263.293 204.624 263.159 204.548 263.047 204.445C262.931 204.339 262.84 204.209 262.781 204.064C262.721 203.919 262.695 203.762 262.704 203.605L263.221 191.947C263.228 191.792 263.269 191.64 263.341 191.503C263.413 191.365 263.515 191.245 263.639 191.151C263.763 191.058 263.906 190.993 264.058 190.961C264.211 190.929 264.368 190.931 264.519 190.967C266.011 191.3 267.352 192.113 268.337 193.283C269.321 194.452 269.894 195.912 269.968 197.439C270.041 198.966 269.611 200.474 268.744 201.733C267.876 202.991 266.619 203.93 265.166 204.404Z" fill="#0068C7"/>
<mask id="mask0_112_1404" style="mask-type:luminance" maskUnits="userSpaceOnUse" x="262" y="190" width="8" height="15">
<path d="M265.166 204.404C264.751 204.546 264.323 204.647 263.888 204.704C263.738 204.726 263.584 204.714 263.438 204.669C263.293 204.624 263.159 204.548 263.047 204.445C262.931 204.339 262.84 204.209 262.781 204.064C262.721 203.919 262.695 203.762 262.704 203.605L263.221 191.947C263.228 191.792 263.269 191.64 263.341 191.503C263.413 191.365 263.515 191.245 263.639 191.151C263.763 191.058 263.906 190.993 264.058 190.961C264.211 190.929 264.368 190.931 264.519 190.967C266.011 191.3 267.352 192.113 268.337 193.283C269.321 194.452 269.894 195.912 269.968 197.439C270.041 198.966 269.611 200.474 268.744 201.733C267.876 202.991 266.619 203.93 265.166 204.404Z" fill="white"/>
</mask>
<g mask="url(#mask0_112_1404)">
<path d="M263.842 191.423L263.259 204.189C264.863 204.124 266.384 203.459 267.522 202.327C268.66 201.195 269.332 199.677 269.405 198.074C269.479 196.47 268.948 194.897 267.918 193.666C266.888 192.435 265.434 191.634 263.842 191.423Z" fill="#0068C7"/>
<path d="M270.098 193.272C268.902 192.942 265.774 196.27 266.559 199.793C267.02 201.869 268.812 203.919 269.89 203.621C271.925 203.011 271.92 193.749 270.098 193.272Z" fill="#FFC5E1"/>
</g>
<path d="M133.75 187.415C136.825 188.875 138.13 191.154 137.821 191.91C137.511 192.665 134.849 193.383 131.545 192.065L131.121 193.141C133.521 194.096 135.759 194.151 137.231 193.655C137.583 193.57 137.913 193.411 138.199 193.189C138.485 192.967 138.722 192.688 138.892 192.368C139.523 190.842 137.81 188.076 134.251 186.388L133.75 187.415Z" fill="#0068C7"/>
<path d="M144.205 165.934C146.374 166.961 147.907 168.258 148.308 169.398C148.372 169.558 148.404 169.73 148.401 169.903C148.397 170.075 148.359 170.246 148.288 170.403C147.379 172.262 144.374 171.527 142.001 170.589L141.575 171.661C144.158 172.69 146.148 172.975 147.527 172.51C147.922 172.381 148.285 172.172 148.596 171.897C148.906 171.621 149.157 171.285 149.332 170.909C149.469 170.613 149.544 170.294 149.555 169.969C149.566 169.643 149.511 169.319 149.395 169.016C148.902 167.553 147.175 166.068 144.701 164.893L144.205 165.934Z" fill="#0068C7"/>
<path d="M125.612 173.973C124.975 175.287 124.76 176.766 124.995 178.207C125.231 179.647 125.907 180.98 126.929 182.023L127.74 181.207C126.883 180.341 126.315 179.232 126.113 178.032C125.91 176.831 126.084 175.597 126.609 174.499C127.135 173.4 127.987 172.491 129.049 171.896C130.111 171.3 131.331 171.047 132.543 171.171L132.663 170.045C131.228 169.907 129.785 170.209 128.525 170.91C127.266 171.612 126.25 172.68 125.612 173.973Z" fill="#0068C7"/>
<path d="M160.637 170.633C160.512 170.608 160.384 170.608 160.26 170.632C160.136 170.657 160.018 170.705 159.912 170.776C159.807 170.846 159.716 170.937 159.646 171.042C159.576 171.147 159.527 171.266 159.502 171.39L158.124 178.253C158.075 178.503 158.127 178.764 158.268 178.976C158.41 179.189 158.63 179.336 158.881 179.387C159.045 179.42 159.216 179.41 159.375 179.356C159.536 179.302 159.68 179.206 159.792 179.079C159.904 178.951 159.981 178.797 160.015 178.631L161.392 171.763C161.44 171.513 161.387 171.254 161.246 171.043C161.105 170.832 160.886 170.684 160.637 170.633Z" fill="#0068C7"/>
<path d="M151.171 194.841L145.35 198.729C145.153 198.858 145.01 199.054 144.948 199.28C144.886 199.507 144.909 199.748 145.013 199.959C145.117 200.17 145.294 200.335 145.511 200.425C145.729 200.514 145.971 200.52 146.193 200.442C146.274 200.416 146.351 200.377 146.42 200.328L152.242 196.44C152.346 196.369 152.436 196.278 152.506 196.173C152.575 196.067 152.624 195.949 152.647 195.824C152.671 195.7 152.671 195.573 152.645 195.449C152.62 195.325 152.57 195.207 152.499 195.102C152.428 194.998 152.337 194.908 152.232 194.838C152.126 194.769 152.008 194.72 151.884 194.696C151.759 194.673 151.632 194.673 151.508 194.699C151.384 194.724 151.266 194.774 151.161 194.845L151.171 194.841Z" fill="#0068C7"/>
<path d="M237.246 204.894C236.998 204.953 236.783 205.106 236.645 205.32C236.508 205.534 236.459 205.794 236.509 206.043L238.046 212.874C238.103 213.122 238.257 213.338 238.472 213.475C238.688 213.611 238.948 213.658 239.198 213.604L239.295 213.571C239.521 213.495 239.71 213.338 239.827 213.13C239.943 212.922 239.979 212.679 239.926 212.447L238.396 205.619C238.337 205.372 238.184 205.157 237.969 205.022C237.754 204.886 237.494 204.841 237.246 204.894Z" fill="#0068C7"/>
<path d="M240.129 180.689L236.375 186.605C236.267 186.773 236.214 186.971 236.224 187.17C236.233 187.37 236.304 187.562 236.428 187.719C236.551 187.876 236.72 187.991 236.912 188.047C237.104 188.104 237.308 188.099 237.497 188.034C237.705 187.963 237.884 187.825 238.005 187.641L241.782 181.712C241.918 181.496 241.964 181.235 241.908 180.985C241.852 180.736 241.699 180.519 241.483 180.382C241.267 180.246 241.006 180.2 240.756 180.256C240.507 180.312 240.29 180.465 240.154 180.681L240.129 180.689Z" fill="#0068C7"/>
<path d="M250.85 209.738C250.576 210.752 250.412 211.794 250.36 212.844L251.519 212.899C251.561 211.93 251.71 210.97 251.965 210.035C252.434 208.29 253.242 206.655 254.343 205.223L253.425 204.528C252.232 206.078 251.357 207.849 250.85 209.738Z" fill="#0068C7"/>
<path d="M253.314 183.726L252.223 183.339C251.809 184.5 251.698 185.748 251.898 186.965C252.204 188.702 253.119 190.273 254.477 191.398L255.216 190.514C254.072 189.562 253.301 188.236 253.037 186.771C252.871 185.749 252.966 184.701 253.314 183.726Z" fill="#0068C7"/>
<path d="M191.358 277.229C190.691 274.859 188.228 273.478 185.857 274.145C183.487 274.812 182.106 277.275 182.773 279.646C183.441 282.016 185.903 283.397 188.274 282.73C190.644 282.062 192.025 279.6 191.358 277.229Z" fill="white"/>
<path d="M186.869 275.519C186.291 275.554 185.737 275.76 185.277 276.109C184.816 276.459 184.469 276.937 184.28 277.484C184.091 278.03 184.068 278.621 184.215 279.18C184.361 279.74 184.669 280.243 185.102 280.628C185.534 281.012 186.07 281.259 186.643 281.339C187.216 281.419 187.799 281.327 188.32 281.075C188.841 280.823 189.275 280.423 189.568 279.924C189.861 279.426 190 278.852 189.968 278.274C189.946 277.889 189.849 277.513 189.682 277.165C189.514 276.818 189.28 276.508 188.992 276.252C188.704 275.996 188.368 275.799 188.003 275.673C187.639 275.548 187.253 275.495 186.869 275.519Z" fill="#0068C7"/>
<path d="M201.092 273.05C200.212 273.107 199.368 273.424 198.668 273.961C197.968 274.498 197.443 275.23 197.159 276.065C196.875 276.9 196.845 277.801 197.073 278.653C197.301 279.505 197.777 280.27 198.44 280.852C199.103 281.434 199.924 281.806 200.799 281.921C201.673 282.036 202.562 281.889 203.353 281.499C204.144 281.109 204.802 280.492 205.243 279.728C205.684 278.964 205.888 278.087 205.83 277.207C205.792 276.622 205.64 276.052 205.381 275.526C205.122 275.001 204.763 274.532 204.323 274.146C203.883 273.76 203.371 273.465 202.816 273.277C202.262 273.089 201.676 273.012 201.092 273.05Z" fill="white"/>
<path d="M201.194 274.579C200.615 274.613 200.06 274.818 199.598 275.168C199.136 275.517 198.788 275.997 198.599 276.545C198.41 277.093 198.387 277.684 198.535 278.245C198.682 278.805 198.993 279.31 199.427 279.693C199.862 280.077 200.4 280.323 200.975 280.401C201.549 280.478 202.134 280.383 202.654 280.127C203.174 279.872 203.607 279.468 203.898 278.966C204.188 278.464 204.323 277.888 204.285 277.309C204.235 276.538 203.881 275.819 203.302 275.307C202.723 274.796 201.965 274.534 201.194 274.579Z" fill="#0068C7"/>
<path d="M194.418 285.621C193.845 285.659 193.31 285.922 192.932 286.354C192.553 286.786 192.362 287.351 192.399 287.924C192.437 288.497 192.701 289.032 193.133 289.41C193.564 289.789 194.129 289.981 194.702 289.943C194.987 289.927 195.265 289.855 195.522 289.729C195.778 289.604 196.006 289.428 196.193 289.213C196.478 288.892 196.661 288.494 196.719 288.069C196.777 287.644 196.708 287.212 196.52 286.826C196.332 286.441 196.033 286.12 195.663 285.904C195.292 285.688 194.866 285.588 194.438 285.614L194.418 285.621ZM195.57 287.719C195.581 287.85 195.565 287.982 195.523 288.107C195.481 288.232 195.414 288.348 195.327 288.446C195.227 288.575 195.098 288.679 194.951 288.749C194.803 288.818 194.642 288.852 194.479 288.846C194.316 288.841 194.156 288.797 194.014 288.718C193.871 288.639 193.749 288.527 193.658 288.392C193.568 288.257 193.51 288.102 193.491 287.94C193.472 287.778 193.491 287.614 193.548 287.461C193.604 287.308 193.696 287.171 193.817 287.06C193.937 286.95 194.081 286.87 194.238 286.827C194.319 286.8 194.402 286.782 194.487 286.775C194.753 286.766 195.012 286.859 195.21 287.036C195.408 287.213 195.53 287.46 195.55 287.725L195.57 287.719Z" fill="#0068C7"/>
<path d="M185.912 260.326C184.562 260.378 183.251 260.789 182.112 261.515C180.973 262.241 180.047 263.257 179.43 264.458C179.266 264.777 179.236 265.147 179.346 265.488C179.456 265.828 179.696 266.111 180.015 266.275C180.333 266.438 180.703 266.468 181.044 266.358C181.384 266.249 181.668 266.008 181.831 265.69C182.226 264.91 182.823 264.25 183.559 263.778C184.295 263.306 185.143 263.039 186.017 263.004C186.205 263.016 186.394 262.989 186.571 262.924C186.748 262.858 186.909 262.756 187.045 262.625C187.18 262.493 187.286 262.334 187.356 262.159C187.426 261.984 187.458 261.796 187.451 261.607C187.443 261.418 187.396 261.233 187.313 261.064C187.23 260.895 187.112 260.745 186.967 260.624C186.821 260.503 186.653 260.414 186.471 260.363C186.289 260.312 186.099 260.299 185.912 260.326Z" fill="#0068C7"/>
<path d="M202.754 260.008C201.587 259.521 200.315 259.337 199.057 259.474C198.881 259.493 198.711 259.546 198.555 259.631C198.4 259.716 198.263 259.831 198.152 259.969C198.041 260.107 197.958 260.265 197.908 260.435C197.859 260.605 197.843 260.783 197.862 260.959C197.881 261.135 197.934 261.306 198.019 261.461C198.104 261.616 198.219 261.753 198.357 261.864C198.495 261.975 198.653 262.058 198.823 262.108C198.993 262.158 199.171 262.174 199.347 262.155C200.147 262.069 200.956 262.186 201.699 262.497C202.558 262.866 203.291 263.477 203.81 264.254C203.974 264.503 204.215 264.69 204.496 264.787C204.777 264.884 205.082 264.885 205.364 264.789C205.474 264.752 205.579 264.7 205.675 264.635C205.823 264.538 205.95 264.412 206.05 264.265C206.149 264.118 206.218 263.953 206.253 263.779C206.288 263.605 206.289 263.427 206.255 263.253C206.221 263.079 206.153 262.913 206.055 262.766C205.25 261.542 204.102 260.583 202.754 260.008Z" fill="#0068C7"/>
<path d="M264.631 190.398C264.399 190.347 264.158 190.348 263.927 190.4C263.695 190.452 263.478 190.555 263.29 190.7C263.103 190.846 262.949 191.031 262.841 191.242C262.733 191.453 262.673 191.686 262.664 191.923L262.141 203.578C262.129 203.82 262.171 204.061 262.263 204.286C262.356 204.51 262.496 204.71 262.675 204.874C262.85 205.031 263.058 205.148 263.282 205.218C263.507 205.287 263.744 205.307 263.978 205.276C265.738 205.043 267.361 204.198 268.561 202.888C269.76 201.578 270.461 199.888 270.539 198.114C270.617 196.339 270.068 194.594 268.988 193.184C267.908 191.774 266.366 190.789 264.632 190.403L264.631 190.398ZM269.392 198.28C269.275 199.536 268.796 200.732 268.013 201.721C267.23 202.711 266.176 203.451 264.98 203.853C264.598 203.985 264.205 204.08 263.805 204.135C263.739 204.144 263.672 204.139 263.609 204.12C263.546 204.101 263.487 204.069 263.437 204.026C263.386 203.976 263.346 203.917 263.319 203.851C263.292 203.785 263.279 203.715 263.281 203.644L263.803 191.984C263.805 191.914 263.823 191.845 263.855 191.782C263.888 191.72 263.934 191.665 263.99 191.623C264.036 191.599 264.086 191.583 264.137 191.574C264.212 191.547 264.293 191.542 264.371 191.56C265.866 191.907 267.19 192.773 268.109 194.003C269.028 195.232 269.482 196.747 269.392 198.28Z" fill="#0068C7"/>
</svg>
