<svg width="272" height="119" viewBox="0 0 272 119" fill="none" xmlns="http://www.w3.org/2000/svg">
<path d="M165.778 0H47.7539V118.024H165.778V0Z" fill="#00D559"/>
<path d="M125.815 65.3313C129.086 65.3313 131.737 62.6798 131.737 59.4089C131.737 56.1381 129.086 53.4866 125.815 53.4866C122.544 53.4866 119.893 56.1381 119.893 59.4089C119.893 62.6798 122.544 65.3313 125.815 65.3313Z" fill="white"/>
<mask id="mask0_112_1566" style="mask-type:luminance" maskUnits="userSpaceOnUse" x="119" y="53" width="13" height="13">
<path d="M125.815 65.3313C129.086 65.3313 131.737 62.6798 131.737 59.4089C131.737 56.1381 129.086 53.4866 125.815 53.4866C122.544 53.4866 119.893 56.1381 119.893 59.4089C119.893 62.6798 122.544 65.3313 125.815 65.3313Z" fill="white"/>
</mask>
<g mask="url(#mask0_112_1566)">
<path d="M123.158 53.176C121.981 53.176 120.831 53.5249 119.853 54.1786C118.875 54.8323 118.112 55.7613 117.662 56.8483C117.212 57.9353 117.094 59.1314 117.323 60.2854C117.553 61.4394 118.119 62.4993 118.951 63.3313C119.783 64.1632 120.843 64.7298 121.997 64.9594C123.151 65.1889 124.347 65.0711 125.434 64.6208C126.521 64.1706 127.45 63.4081 128.104 62.4298C128.758 61.4516 129.107 60.3014 129.107 59.1248C129.107 57.5471 128.48 56.034 127.364 54.9184C126.249 53.8028 124.736 53.176 123.158 53.176Z" fill="#180C47"/>
</g>
<path d="M127.468 41.8864L117.798 47.5907C117.212 47.9335 116.756 48.4597 116.499 49.0878C116.243 49.716 116.201 50.4111 116.379 51.0657C116.557 51.7204 116.946 52.298 117.486 52.7093C118.026 53.1206 118.686 53.3427 119.364 53.3412C119.915 53.3417 120.457 53.1933 120.931 52.9116L130.601 47.2073C130.95 47.0016 131.256 46.7291 131.5 46.4053C131.744 46.0815 131.922 45.7129 132.023 45.3204C132.125 44.9279 132.148 44.5192 132.092 44.1177C132.035 43.7162 131.9 43.3297 131.695 42.9803C131.489 42.631 131.216 42.3255 130.893 42.0815C130.569 41.8374 130.2 41.6595 129.808 41.5579C129.415 41.4564 129.007 41.4331 128.605 41.4894C128.204 41.5458 127.817 41.6807 127.468 41.8864Z" fill="#180C47"/>
<path d="M96.5869 65.3313C99.8578 65.3313 102.509 62.6798 102.509 59.4089C102.509 56.1381 99.8578 53.4866 96.5869 53.4866C93.3161 53.4866 90.6646 56.1381 90.6646 59.4089C90.6646 62.6798 93.3161 65.3313 96.5869 65.3313Z" fill="white"/>
<mask id="mask1_112_1566" style="mask-type:luminance" maskUnits="userSpaceOnUse" x="90" y="53" width="13" height="13">
<path d="M96.5869 65.3313C99.8578 65.3313 102.509 62.6798 102.509 59.4089C102.509 56.1381 99.8578 53.4866 96.5869 53.4866C93.3161 53.4866 90.6646 56.1381 90.6646 59.4089C90.6646 62.6798 93.3161 65.3313 96.5869 65.3313Z" fill="white"/>
</mask>
<g mask="url(#mask1_112_1566)">
<path d="M94.6235 64.9612C97.8944 64.9612 100.546 62.3097 100.546 59.0388C100.546 55.768 97.8944 53.1165 94.6235 53.1165C91.3527 53.1165 88.7012 55.768 88.7012 59.0388C88.7012 62.3097 91.3527 64.9612 94.6235 64.9612Z" fill="#180C47"/>
</g>
<path d="M94.7891 30.5505H94.69C92.9393 30.591 91.2154 30.9889 89.6241 31.7198C88.0328 32.4506 86.6077 33.499 85.4363 34.8006C84.9484 35.4213 84.7163 36.2049 84.7875 36.9912C84.8587 37.7774 85.2278 38.5066 85.8191 39.0295C86.4105 39.5525 87.1794 39.8295 87.9684 39.804C88.7574 39.7784 89.5068 39.4522 90.0631 38.8921C90.6567 38.2327 91.3783 37.7009 92.184 37.3293C92.9896 36.9578 93.8625 36.7541 94.7495 36.7307C97.6842 36.5324 99.806 39.2292 100.037 39.5134C100.323 39.9066 100.698 40.2265 101.131 40.447C101.564 40.6676 102.043 40.7826 102.529 40.7825C103.185 40.7799 103.823 40.5718 104.353 40.1876C105.011 39.7009 105.449 38.9741 105.573 38.1656C105.697 37.3572 105.496 36.5326 105.014 35.8714C103.835 34.2566 102.299 32.9361 100.525 32.0131C98.7513 31.0901 96.7883 30.5896 94.7891 30.5505Z" fill="#180C47"/>
<path d="M114.526 77.6452C112.997 77.5919 111.523 77.0636 110.309 76.1336C109.095 75.2036 108.201 73.9184 107.751 72.4565L105.808 73.1175C106.391 74.9903 107.545 76.6341 109.108 77.8192C110.671 79.0043 112.565 79.6714 114.526 79.7273C116.508 79.6778 118.423 79.0039 120 77.8015C121.576 76.5992 122.732 74.9299 123.304 73.0316L121.321 72.3706C120.885 73.8516 119.994 75.1578 118.775 76.1045C117.555 77.0511 116.069 77.5902 114.526 77.6452Z" fill="#180C47"/>
<path d="M65.0116 56.6261L61.1515 56.3221C60.6236 52.3472 60.6548 48.318 61.2441 44.3517C61.682 41.6498 62.3701 38.9945 63.2997 36.42C63.4533 35.9964 63.522 35.5467 63.5019 35.0966C63.4817 34.6464 63.3731 34.2047 63.1822 33.7965C62.9913 33.3883 62.7219 33.0218 62.3894 32.7177C62.0568 32.4137 61.6676 32.1781 61.2441 32.0245C60.8205 31.8708 60.3708 31.8021 59.9206 31.8223C59.4705 31.8425 59.0287 31.9511 58.6206 32.142C58.2124 32.3328 57.8458 32.6023 57.5418 32.9348C57.2377 33.2674 57.0022 33.6565 56.8485 34.0801C55.847 36.8733 55.0906 39.7484 54.588 42.6729C54.4888 41.6219 54.2839 40.5776 54.2311 39.52C54.0991 36.8068 54.1123 34.0885 54.2707 31.3767C54.3231 30.468 54.0129 29.5757 53.4082 28.8954C52.8035 28.2151 51.9537 27.8024 51.0451 27.7479C50.5946 27.7175 50.1424 27.7773 49.7152 27.9237C49.288 28.07 48.8943 28.3001 48.557 28.6004C48.2197 28.9008 47.9457 29.2653 47.751 29.6728C47.5563 30.0802 47.4448 30.5225 47.423 30.9735C47.2447 33.9339 47.2315 36.9019 47.3833 39.8637C47.3833 40.1744 47.4692 40.4784 47.4825 40.7891C46.8459 38.7905 46.3208 36.7582 45.9093 34.7015C45.7087 33.8326 45.1782 33.0757 44.4299 32.5906C43.6816 32.1056 42.7741 31.9303 41.899 32.1019C41.0239 32.2735 40.2498 32.7785 39.7401 33.5102C39.2304 34.2419 39.025 35.1431 39.1673 36.0234C40.3258 42.0801 42.3914 47.9272 45.2946 53.3675C25.5842 64.505 -5.07202 84.9425 0.804088 101.619C4.34033 111.686 19.675 114.62 36.3383 114.62C40.1191 114.62 43.9528 114.442 47.7535 114.184V100.423C28.0629 101.745 15.4646 99.4642 13.7857 97.2169C13.561 94.2293 23.4757 80.6924 56.8089 62.727L64.4762 63.4673H64.7539C65.6343 63.4569 66.477 63.1084 67.1076 62.4939C67.7382 61.8794 68.1084 61.0459 68.1415 60.1661C68.1746 59.2862 67.8682 58.4273 67.2856 57.7671C66.7029 57.1069 65.8888 56.696 65.0116 56.6195V56.6261Z" fill="#00D559"/>
<path d="M165.779 104.316V118.018H157.741L270.921 118.223V115.876L271.582 79.9719L248.903 104.468L165.779 104.316Z" fill="#00D559"/>
<path d="M228.062 70.6654C218.511 60.592 205.847 55.0663 194.214 55.7603C183.466 56.4213 173.479 62.066 165.792 70.7249V99.9534C170.002 81.8359 183.374 70.2093 195.099 69.4624C202.846 68.9468 211.333 72.959 218.121 80.1108C223.857 86.2096 227.752 93.8054 229.358 102.022C229.477 107.416 229.598 112.814 229.721 118.216L238.724 118.388L261.858 118.824L243.1 101.493C241.297 89.9404 236.057 79.1979 228.062 70.6654Z" fill="#00D559"/>
<path d="M195.293 24.1588C185.464 22.5724 174.842 24.7074 165 30.0481V46.4272C173.864 39.5662 184.307 36.3208 193.118 37.7155C197.745 38.4624 200.462 40.3263 201.433 41.8268C203.687 45.3035 202.246 55.0133 194.473 64.6504C190.929 66.5733 187.886 69.302 185.59 72.6166C183.294 75.9312 181.808 79.7389 181.254 83.7328C181.126 84.6287 181.358 85.5385 181.897 86.2649C182.437 86.9913 183.241 87.4756 184.135 87.6128C184.298 87.6339 184.461 87.6449 184.624 87.6458C185.449 87.6418 186.245 87.342 186.867 86.801C187.489 86.2601 187.897 85.5138 188.015 84.6979C188.4 81.9683 189.372 79.3546 190.864 77.0371C191.076 76.7 191.32 76.4488 191.525 76.1448C190.274 78.7567 189.395 81.5312 188.914 84.3872C188.775 85.2863 188.999 86.2038 189.535 86.9385C190.072 87.6732 190.878 88.1653 191.776 88.3068C191.954 88.3334 192.132 88.3467 192.312 88.3465C193.13 88.345 193.921 88.051 194.541 87.5177C195.162 86.9844 195.571 86.2469 195.696 85.4382C195.958 83.8125 196.385 82.2179 196.972 80.6791C196.932 82.1923 197.011 83.7062 197.21 85.2068C197.327 86.0227 197.734 86.769 198.357 87.3091C198.98 87.8492 199.776 88.1471 200.6 88.1482C200.765 88.1611 200.931 88.1611 201.096 88.1482C201.996 88.0189 202.808 87.5376 203.353 86.8101C203.899 86.0826 204.133 85.1683 204.004 84.2682C203.726 82.2951 203.726 80.2926 204.004 78.3194C204.313 76.255 204.932 74.2492 205.842 72.3706C216.047 59.2237 219.128 43.8956 212.928 34.3511C209.517 29.05 203.238 25.4345 195.293 24.1588Z" fill="#00D559"/>
</svg>
