<svg width="314" height="193" viewBox="0 0 314 193" fill="none" xmlns="http://www.w3.org/2000/svg">
<path d="M38.0129 135.005L8.76454 133.196C8.06762 133.153 7.38215 133.389 6.85895 133.851C6.33575 134.314 6.01765 134.965 5.97464 135.662L4.90392 153.072C4.86094 153.769 5.09656 154.454 5.55895 154.977C6.02135 155.501 6.67267 155.819 7.36959 155.862L36.6162 157.669C36.9614 157.69 37.3073 157.644 37.6344 157.531C37.9614 157.419 38.2632 157.243 38.5223 157.014C38.7814 156.785 38.9928 156.507 39.1445 156.197C39.2962 155.886 39.3851 155.548 39.4061 155.203L40.4819 137.795C40.5034 137.45 40.4565 137.103 40.344 136.776C40.2315 136.449 40.0556 136.147 39.8262 135.888C39.5969 135.629 39.3186 135.417 39.0075 135.266C38.6963 135.114 38.3583 135.026 38.0129 135.005Z" fill="#FF2340"/>
<path d="M64.7736 68.6975L56.1607 68.1655L50.8815 153.577C50.7835 154.665 50.685 155.755 50.5859 156.845L74.7611 155.461L60.1277 143.853L64.7736 68.6975Z" fill="#FFB73E"/>
<path d="M87.1585 59.654L78.5456 59.1221L72.6533 154.465L72.9995 154.487C72.9016 154.85 72.8019 155.213 72.704 155.576L96.6664 154.178L82.0346 142.574L87.1585 59.654Z" fill="#FFB73E"/>
<path d="M24.8892 49.3816C25.4904 61.063 25.5411 72.915 25.0378 84.6049C24.3401 100.474 22.6355 116.282 19.9343 131.935C17.3116 132.701 14.9003 134.06 12.887 135.907C10.8737 137.754 9.31229 140.039 8.32374 142.587C8.22002 142.85 8.16919 143.131 8.17416 143.414C8.17913 143.697 8.23981 143.976 8.35273 144.236C8.46565 144.495 8.62858 144.73 8.83224 144.927C9.0359 145.123 9.27629 145.278 9.53967 145.381C9.82977 145.497 10.1417 145.547 10.4533 145.528C10.8644 145.505 11.26 145.364 11.5934 145.122C11.9268 144.881 12.184 144.549 12.3346 144.166C13.0706 142.273 14.2206 140.568 15.7004 139.177C16.1691 138.763 16.6681 138.386 17.1933 138.047C16.5165 138.83 15.8957 139.659 15.3357 140.53C13.6698 143.17 12.5639 146.125 12.0864 149.21C11.9968 149.775 12.1353 150.352 12.4715 150.815C12.8077 151.278 13.314 151.589 13.8791 151.678C14.4441 151.768 15.0215 151.629 15.4844 151.293C15.9473 150.957 16.2577 150.451 16.3472 149.886C16.7323 147.382 17.6285 144.984 18.9801 142.842C19.4156 142.2 19.8947 141.59 20.4139 141.014C19.1107 143.584 18.2302 146.347 17.8064 149.196C17.7242 149.762 17.87 150.338 18.2116 150.796C18.5533 151.255 19.0629 151.559 19.6286 151.642C19.774 151.662 19.9211 151.669 20.0677 151.66C20.5628 151.631 21.0326 151.432 21.3981 151.097C21.7635 150.761 22.0022 150.31 22.074 149.82C22.435 147.356 23.2014 144.97 24.342 142.757C24.9255 141.654 25.5888 140.594 26.3264 139.587C27.0019 138.62 27.2451 138.361 28.7752 136.292C29.2953 135.591 29.7192 135.011 30.0012 134.622L33.0225 134.703C33.3981 134.308 33.6104 133.786 33.6169 133.241C33.5899 132.256 32.7337 131.321 31.489 131.059L28.8224 131.025C31.3608 115.79 32.9765 100.415 33.6608 84.9849C34.1675 73.0248 34.1219 60.9009 33.5072 48.9492L24.8892 49.3816Z" fill="#FFB73E"/>
<path d="M36.0674 10.9982C2.96685 30.5698 -9.11824 72.0315 7.24963 106.058C8.35579 108.361 11.2724 109.138 13.4729 107.838L131.799 37.8772C132.334 37.5556 132.797 37.1259 133.157 36.6154C133.518 36.1049 133.768 35.5249 133.891 34.9124C134.014 34.3 134.009 33.6685 133.875 33.0583C133.74 32.4481 133.48 31.8726 133.111 31.3686C111.146 0.782686 69.102 -8.53444 36.0674 10.9982Z" fill="#FFB73E"/>
<path d="M60.2093 47.3034L53.0171 47.7231L53.0924 49.0129L60.2845 48.5931L60.2093 47.3034Z" fill="#180C47"/>
<path d="M45.3966 38.0525C44.5482 38.1018 43.7334 38.4015 43.0554 38.9138C42.3774 39.4261 41.8665 40.128 41.5874 40.9307C41.3083 41.7334 41.2736 42.6009 41.4875 43.4233C41.7015 44.2458 42.1545 44.9863 42.7894 45.5512C43.4243 46.1162 44.2124 46.4801 45.0542 46.5971C45.8959 46.714 46.7534 46.5787 47.5183 46.2083C48.2831 45.8378 48.9209 45.2488 49.351 44.5159C49.781 43.7829 49.9841 42.9388 49.9344 42.0905C49.8673 40.9535 49.3518 39.8897 48.501 39.1326C47.6502 38.3755 46.5336 37.987 45.3966 38.0525Z" fill="white"/>
<mask id="mask0_112_1603" style="mask-type:luminance" maskUnits="userSpaceOnUse" x="41" y="38" width="9" height="9">
<path d="M45.6459 46.6385C48.0187 46.6385 49.9422 44.715 49.9422 42.3422C49.9422 39.9694 48.0187 38.0459 45.6459 38.0459C43.2731 38.0459 41.3496 39.9694 41.3496 42.3422C41.3496 44.715 43.2731 46.6385 45.6459 46.6385Z" fill="white"/>
</mask>
<g mask="url(#mask0_112_1603)">
<path d="M47.7501 40.1487C46.9017 40.1979 46.0869 40.4977 45.4089 41.01C44.7309 41.5223 44.22 42.2242 43.9409 43.0269C43.6618 43.8296 43.6271 44.697 43.841 45.5195C44.055 46.342 44.508 47.0825 45.1429 47.6474C45.7778 48.2123 46.5659 48.5763 47.4077 48.6933C48.2494 48.8102 49.1069 48.6749 49.8718 48.3044C50.6366 47.934 51.2744 47.345 51.7045 46.6121C52.1345 45.8791 52.3376 45.035 52.2879 44.1867C52.2209 43.0497 51.7053 41.9859 50.8545 41.2288C50.0037 40.4717 48.8871 40.0832 47.7501 40.1487Z" fill="#180C47"/>
</g>
<path d="M49.3785 28.7492L39.7996 33.5927C39.5778 33.7041 39.4012 33.8886 39.2997 34.1151C39.1983 34.3415 39.1781 34.5961 39.2426 34.8358C39.3072 35.0754 39.4524 35.2854 39.6539 35.4303C39.8554 35.5753 40.1007 35.6462 40.3484 35.6311C40.4959 35.622 40.64 35.5835 40.7723 35.5179L50.3512 30.6711C50.4816 30.6097 50.5984 30.5229 50.6946 30.4156C50.7908 30.3083 50.8646 30.1828 50.9115 30.0465C50.9584 29.9103 50.9774 29.766 50.9675 29.6222C50.9576 29.4784 50.919 29.3381 50.8539 29.2095C50.7888 29.081 50.6986 28.9667 50.5886 28.8736C50.4786 28.7805 50.3511 28.7105 50.2135 28.6675C50.0759 28.6246 49.9311 28.6097 49.7877 28.6238C49.6443 28.6378 49.5051 28.6805 49.3785 28.7492Z" fill="#180C47"/>
<path d="M64.4547 35.8656C63.6063 35.9148 62.7916 36.2146 62.1135 36.7269C61.4355 37.2392 60.9246 37.9411 60.6455 38.7438C60.3664 39.5465 60.3317 40.4139 60.5456 41.2364C60.7596 42.0588 61.2126 42.7994 61.8475 43.3643C62.4824 43.9292 63.2706 44.2932 64.1123 44.4101C64.954 44.5271 65.8116 44.3918 66.5764 44.0213C67.3412 43.6509 67.979 43.0619 68.4091 42.3289C68.8392 41.596 69.0422 40.7519 68.9925 39.9035C68.9259 38.7664 68.4105 37.7023 67.5596 36.9451C66.7087 36.1879 65.5919 35.7996 64.4547 35.8656Z" fill="white"/>
<mask id="mask1_112_1603" style="mask-type:luminance" maskUnits="userSpaceOnUse" x="60" y="35" width="10" height="10">
<path d="M64.7041 44.45C67.0768 44.45 69.0004 42.5265 69.0004 40.1537C69.0004 37.7809 67.0768 35.8574 64.7041 35.8574C62.3313 35.8574 60.4077 37.7809 60.4077 40.1537C60.4077 42.5265 62.3313 44.45 64.7041 44.45Z" fill="white"/>
</mask>
<g mask="url(#mask1_112_1603)">
<path d="M66.8083 37.9602C65.96 38.0094 65.1453 38.3091 64.4672 38.8213C63.7892 39.3336 63.2783 40.0354 62.9992 40.838C62.72 41.6406 62.6851 42.5079 62.899 43.3303C63.1128 44.1528 63.5657 44.8933 64.2004 45.4583C64.8351 46.0234 65.623 46.3875 66.4647 46.5046C67.3063 46.6218 68.1639 46.4867 68.9288 46.1165C69.6936 45.7463 70.3315 45.1576 70.7618 44.4249C71.1921 43.6921 71.3954 42.8482 71.3461 41.9999C71.2795 40.8626 70.7641 39.7983 69.9133 39.0409C69.0624 38.2834 67.9456 37.8947 66.8083 37.9602Z" fill="#180C47"/>
</g>
<path d="M68.4382 26.5538L58.8543 31.3905C58.6325 31.5019 58.4559 31.6864 58.3545 31.9129C58.253 32.1394 58.2328 32.3939 58.2973 32.6336C58.3618 32.8732 58.5071 33.0833 58.7086 33.2282C58.9101 33.3731 59.1554 33.444 59.4032 33.4289C59.5508 33.4211 59.6951 33.3825 59.827 33.3158L69.4161 28.4841C69.6614 28.3495 69.8448 28.1248 69.9276 27.8575C70.0104 27.5902 69.9861 27.3012 69.86 27.0515C69.7338 26.8017 69.5155 26.6107 69.2512 26.5188C68.9869 26.4269 68.6972 26.4413 68.4433 26.5589L68.4382 26.5538Z" fill="#180C47"/>
<path d="M116.438 36.1599L117.753 28.4742C117.801 28.195 117.793 27.9091 117.73 27.6329C117.668 27.3567 117.551 27.0955 117.387 26.8644C117.223 26.6332 117.016 26.4366 116.776 26.2857C116.536 26.1348 116.269 26.0326 115.99 25.9849C115.711 25.9372 115.425 25.945 115.149 26.0078C114.873 26.0706 114.611 26.1872 114.38 26.3509C114.149 26.5146 113.953 26.7223 113.802 26.962C113.651 27.2017 113.549 27.4688 113.501 27.748L113.163 29.685C112.193 27.9224 110.966 26.3135 109.524 24.9108C104.104 19.6603 97.442 19.0338 94.8311 19C94.2619 19.0042 93.7165 19.2293 93.3101 19.6279C92.9036 20.0264 92.6679 20.5673 92.6526 21.1363C92.6476 21.708 92.8695 22.2584 93.2697 22.6668C93.6698 23.0751 94.2155 23.3082 94.7872 23.3149C97.3492 23.3675 99.8718 23.956 102.193 25.0425C101.745 24.926 101.289 24.7977 100.897 24.8196C100.351 24.8505 99.8274 25.0473 99.396 25.3837C98.9786 25.7215 98.6683 26.1733 98.5026 26.684C98.0618 28.0874 99.0278 29.3253 99.124 29.4435C98.5499 29.4894 98.011 29.7385 97.6041 30.1461C95.7701 31.8619 97.0705 34.4796 100.674 39.6963C101.006 40.1499 101.502 40.4561 102.056 40.5496C102.61 40.6431 103.179 40.5165 103.642 40.1969C104.104 39.8773 104.423 39.3898 104.531 38.8382C104.639 38.2867 104.528 37.7148 104.221 37.2441L104.147 37.1377C104.959 37.7795 105.894 38.5411 106.979 39.448C107.134 39.5629 107.305 39.6561 107.485 39.725C113.148 63.2922 113.452 72.1669 113.067 75.4026C111.419 73.7425 109.747 71.9541 108.075 70.0339C104.281 65.6763 100.828 61.0343 97.7443 56.1486L90.5669 60.9279C90.7358 61.1812 91.0938 61.7233 91.5532 62.4005C100.74 75.9819 107.347 85.5236 114.509 84.941C115.303 84.8781 116.081 84.69 116.816 84.3836C122.737 81.9011 124.441 73.2088 115.779 37.359C116.124 37.0419 116.355 36.6208 116.438 36.1599Z" fill="#FFB73E"/>
<path d="M54.1744 2.7417L52.896 2.95955L53.0058 3.59623C53.6057 6.93094 53.4463 10.358 52.5396 13.6226C50.9319 19.3088 47.2655 23.7149 46.2911 23.7723H46.2353C46.1374 23.6913 45.3285 22.7489 47.051 14.3151L45.8418 13.8962C40.4106 24.7789 38.7151 24.8498 38.4365 24.7772C38.3166 24.7417 37.2965 24.2553 37.5768 17.8531L36.2934 17.6977C35.0876 23.7555 32.1676 27.3526 30.6848 27.1128C29.3152 26.9186 27.5386 23.0681 27.7683 17.2417L27.7936 16.5949L26.5 16.5443L26.4747 17.1911C26.2416 23.1188 28.0149 28.0383 30.5075 28.3929C30.6512 28.4138 30.7967 28.4195 30.9415 28.4098C32.8296 28.3 34.8967 25.8344 36.317 22.2271C36.5214 24.5458 37.0871 25.7263 38.07 26.0151C39.2758 26.3697 41.0288 25.5996 45.0245 18.2702C44.2493 23.4886 44.8894 24.6201 45.749 24.9579C46.1374 25.1099 46.5815 25.0592 47.0696 24.8194C49.0742 23.8213 52.3251 19.118 53.7843 13.9672C54.7421 10.5167 54.9124 6.89506 54.2825 3.36993L54.1744 2.7417Z" fill="#180C47"/>
<path d="M252.386 48.1264L204.981 40.4728C204.602 40.4117 204.215 40.4336 203.845 40.537C203.475 40.6404 203.132 40.8229 202.84 41.0718C202.548 41.3207 202.313 41.6301 202.152 41.9787C201.991 42.3272 201.908 42.7065 201.908 43.0904V74.5157C201.908 75.1457 202.132 75.7551 202.541 76.2348C202.949 76.7145 203.515 77.033 204.137 77.1333L251.542 84.787C251.921 84.8481 252.308 84.8262 252.678 84.7228C253.048 84.6193 253.391 84.4369 253.683 84.188C253.975 83.939 254.21 83.6296 254.371 83.2811C254.532 82.9326 254.615 82.5532 254.615 82.1693V50.7441C254.615 50.1141 254.391 49.5046 253.982 49.025C253.574 48.5453 253.008 48.2268 252.386 48.1264Z" fill="#FFB73E"/>
<path d="M251.847 84.9254L204.024 77.2042C202.637 76.9799 201.216 77.1178 199.898 77.6044L182.366 84.0776C182.148 84.1578 181.962 84.3082 181.838 84.5053C181.714 84.7023 181.659 84.9349 181.682 85.1666C181.704 85.3982 181.803 85.616 181.962 85.7856C182.121 85.9553 182.332 86.0673 182.562 86.1042L229.666 93.7038C230.749 93.879 231.858 93.7719 232.887 93.3931L251.986 86.3372C252.136 86.2792 252.262 86.1736 252.347 86.0366C252.431 85.8996 252.468 85.7388 252.452 85.5787C252.437 85.4187 252.369 85.2681 252.26 85.1502C252.15 85.0322 252.005 84.9532 251.847 84.9254Z" fill="#FFB73E"/>
<path d="M248.924 50.4298L208.474 44.1998C208.065 44.137 207.647 44.1633 207.249 44.2769C206.852 44.3905 206.483 44.5888 206.169 44.8581C205.855 45.1273 205.603 45.4613 205.43 45.8371C205.257 46.2129 205.167 46.6216 205.167 47.0353V71.9941C205.167 72.6794 205.412 73.3421 205.858 73.8625C206.304 74.3828 206.922 74.7264 207.599 74.8312L248.049 81.0612C248.457 81.124 248.875 81.0978 249.272 80.9844C249.669 80.8711 250.038 80.6733 250.352 80.4046C250.666 80.1359 250.918 79.8025 251.091 79.4274C251.264 79.0522 251.355 78.6441 251.356 78.2308V53.2669C251.356 52.5816 251.111 51.9189 250.665 51.3985C250.219 50.8782 249.601 50.5346 248.924 50.4298Z" fill="white"/>
<path d="M206.547 64.1059C204.769 62.5404 202.663 61.3932 200.384 60.7486C197.23 59.8701 193.882 59.9791 190.792 61.061C188.394 61.26 186.031 61.7668 183.763 62.5691C160.368 70.9692 156.727 108.638 156.22 116.106L163.862 116.612C164.12 112.679 166.902 79.045 184.587 70.6112C184.576 71.6479 184.664 72.6834 184.85 73.7034C184.935 74.1393 185.168 74.5324 185.51 74.8153C185.853 75.0981 186.283 75.2531 186.727 75.2537C186.85 75.2535 186.972 75.2416 187.093 75.2182C187.176 75.2013 188.128 74.8247 188.613 72.9738C188.966 71.6143 188.586 71.2985 188.951 70.4406C189.289 69.6333 189.952 69.1351 190.471 68.8362C191.712 69.3567 192.892 70.0101 193.992 70.7851C195.795 72.064 197.374 73.6328 198.665 75.4276C198.962 75.8397 199.41 76.1169 199.912 76.1983C200.413 76.2797 200.926 76.1586 201.338 75.8616C201.75 75.5647 202.028 75.1162 202.109 74.6148C202.19 74.1135 202.069 73.6003 201.772 73.1883C200.271 71.1153 198.446 69.2969 196.368 67.8027C197.015 68.0454 197.645 68.3326 198.253 68.6623C200.194 69.7984 201.879 71.3231 203.203 73.141C203.507 73.5415 203.956 73.8064 204.453 73.8787C204.951 73.951 205.456 73.8247 205.862 73.5272C206.267 73.2298 206.539 72.7849 206.619 72.2886C206.699 71.7923 206.581 71.2845 206.29 70.8746C204.655 68.635 202.575 66.7568 200.181 65.3573C199.383 64.8985 198.553 64.4977 197.697 64.1582C198.252 64.2096 198.803 64.3033 199.344 64.4386C201.077 64.9306 202.679 65.8048 204.03 66.9971C204.414 67.3308 204.914 67.4985 205.421 67.4634C205.928 67.4282 206.4 67.1931 206.734 66.8097C207.068 66.4263 207.235 65.926 207.2 65.419C207.165 64.9119 206.93 64.4396 206.547 64.1059Z" fill="#FF6B32"/>
<path d="M194.165 66.9751L196.816 67.9782C196.284 67.6752 195.723 67.4262 195.141 67.2352C194.82 67.1309 194.494 67.0441 194.165 66.9751Z" fill="#9783FE"/>
<path d="M237.702 124.504C229.074 132.467 222.812 143.175 219.589 155.473L226.995 157.412C228.984 149.826 233.355 138.933 242.895 130.129C259.332 114.961 285.068 111.191 310.052 120.287C311.328 113.307 312.605 106.331 313.88 99.3594C309.739 102.85 305.599 106.34 301.459 109.83C277.426 104.439 253.757 109.693 237.702 124.504Z" fill="#FF6B32"/>
<path d="M264.731 118.033C261.245 116.76 250.663 112.904 222.823 155.524L229.241 159.713C238.938 144.868 246.436 135.983 251.871 130.94C256.858 126.311 259.8 124.472 262.11 125.224C267.048 126.83 269.519 141.224 261.522 191.829L282.88 192.614L271.059 181.277C275.022 155.717 277.454 122.682 264.731 118.033Z" fill="#FF6B32"/>
<path d="M231.811 95.9636C230.576 95.4315 229.302 94.9934 228 94.6531C228.925 94.6531 229.857 94.6176 230.776 94.6801C231.281 94.7033 231.774 94.5304 232.154 94.1976C232.534 93.8649 232.77 93.3981 232.813 92.895C232.847 92.3886 232.679 91.8892 232.346 91.5064C232.013 91.1237 231.541 90.8888 231.035 90.8533C229.878 90.779 227.907 89.5022 220.684 91.3413C216.997 92.2837 216.163 92.8444 214.077 92.6198C213.177 92.5218 211.24 92.2938 209.433 90.811C208.18 89.764 207.267 88.3669 206.812 86.7984C206.677 86.4025 206.419 86.0598 206.077 85.8199C205.734 85.5801 205.324 85.4555 204.905 85.4643C203.931 85.515 203.095 86.383 203.088 87.4723C203.19 89.6206 203.907 91.6945 205.154 93.4473C205.756 94.2763 206.473 95.0155 207.283 95.6427C199.521 111.135 195.619 128.274 195.908 145.599L203.565 145.476C203.289 129.901 206.683 114.48 213.471 100.459C213.71 100.524 213.959 100.543 214.206 100.515C218.019 100.028 221.894 100.538 225.451 101.994C225.681 102.09 225.927 102.139 226.176 102.138C226.619 102.138 227.048 101.984 227.39 101.702C227.733 101.421 227.967 101.029 228.052 100.595C228.138 100.16 228.07 99.7089 227.86 99.3186C227.651 98.9283 227.312 98.6229 226.902 98.4546C226.507 98.2857 226.091 98.1759 225.69 98.0341C227.263 98.346 228.799 98.8244 230.271 99.4611C230.503 99.578 230.756 99.6465 231.016 99.6624C231.275 99.6783 231.534 99.6412 231.779 99.5535C232.023 99.4659 232.247 99.3293 232.437 99.1523C232.627 98.9752 232.779 98.7614 232.884 98.5237C232.988 98.286 233.044 98.0296 233.046 97.7699C233.048 97.5102 232.998 97.2528 232.898 97.0133C232.797 96.7738 232.649 96.5572 232.462 96.3767C232.276 96.1963 232.054 96.0557 231.811 95.9636Z" fill="#FF6B32"/>
<path d="M100.427 118.806C100.427 157.909 132.124 189.608 171.227 189.608C195.779 189.608 217.406 177.11 230.105 158.13L112.48 79.2866C104.605 90.96 100.407 104.725 100.427 118.806Z" fill="#FF6B32"/>
<path d="M134.16 132.98C133.406 132.982 132.668 133.207 132.042 133.627C131.415 134.047 130.928 134.643 130.64 135.341C130.352 136.038 130.278 136.805 130.426 137.544C130.574 138.284 130.938 138.963 131.472 139.496C132.006 140.029 132.686 140.391 133.426 140.538C134.166 140.684 134.933 140.608 135.629 140.319C136.326 140.03 136.921 139.541 137.34 138.913C137.759 138.286 137.982 137.548 137.982 136.794C137.982 136.292 137.883 135.796 137.69 135.333C137.498 134.869 137.217 134.449 136.862 134.094C136.507 133.74 136.085 133.459 135.622 133.268C135.158 133.077 134.661 132.979 134.16 132.98Z" fill="white"/>
<mask id="mask2_112_1603" style="mask-type:luminance" maskUnits="userSpaceOnUse" x="130" y="132" width="8" height="9">
<path d="M134.16 140.607C136.266 140.607 137.973 138.9 137.973 136.794C137.973 134.688 136.266 132.98 134.16 132.98C132.053 132.98 130.346 134.688 130.346 136.794C130.346 138.9 132.053 140.607 134.16 140.607Z" fill="white"/>
</mask>
<g mask="url(#mask2_112_1603)">
<path d="M136.487 131.825C135.732 131.825 134.994 132.048 134.366 132.467C133.739 132.887 133.25 133.482 132.961 134.179C132.672 134.877 132.596 135.644 132.743 136.384C132.89 137.124 133.254 137.804 133.787 138.338C134.321 138.871 135.001 139.235 135.741 139.382C136.481 139.529 137.248 139.453 137.946 139.164C138.643 138.876 139.239 138.386 139.658 137.759C140.077 137.131 140.3 136.393 140.3 135.639C140.3 134.627 139.898 133.657 139.183 132.942C138.468 132.227 137.498 131.825 136.487 131.825Z" fill="#180C47"/>
</g>
<path d="M137.394 124.965L130.044 128.764C129.854 128.862 129.702 129.022 129.614 129.217C129.525 129.413 129.505 129.632 129.556 129.84C129.606 130.048 129.726 130.233 129.894 130.366C130.062 130.498 130.27 130.57 130.485 130.571C130.638 130.571 130.79 130.533 130.925 130.461L138.263 126.663C138.385 126.612 138.495 126.536 138.586 126.441C138.677 126.345 138.747 126.232 138.792 126.108C138.837 125.984 138.856 125.852 138.848 125.721C138.839 125.589 138.803 125.461 138.743 125.343C138.682 125.226 138.598 125.123 138.495 125.04C138.392 124.957 138.274 124.897 138.147 124.862C138.019 124.827 137.886 124.819 137.756 124.838C137.625 124.858 137.5 124.904 137.389 124.974L137.394 124.965Z" fill="#180C47"/>
<path d="M149.296 129.402C148.542 129.402 147.804 129.625 147.176 130.044C146.549 130.463 146.059 131.059 145.77 131.756C145.481 132.453 145.406 133.22 145.553 133.96C145.7 134.7 146.063 135.38 146.596 135.914C147.13 136.448 147.81 136.811 148.55 136.958C149.29 137.106 150.057 137.03 150.754 136.742C151.451 136.453 152.047 135.964 152.466 135.337C152.886 134.709 153.11 133.971 153.11 133.217C153.11 132.205 152.708 131.235 151.993 130.52C151.278 129.804 150.308 129.402 149.296 129.402Z" fill="white"/>
<mask id="mask3_112_1603" style="mask-type:luminance" maskUnits="userSpaceOnUse" x="145" y="129" width="9" height="9">
<path d="M149.303 137.024C151.409 137.024 153.116 135.316 153.116 133.21C153.116 131.104 151.409 129.397 149.303 129.397C147.197 129.397 145.49 131.104 145.49 133.21C145.49 135.316 147.197 137.024 149.303 137.024Z" fill="white"/>
</mask>
<g mask="url(#mask3_112_1603)">
<path d="M151.63 128.242C150.876 128.241 150.138 128.465 149.51 128.884C148.883 129.303 148.393 129.899 148.104 130.596C147.815 131.293 147.74 132.06 147.887 132.8C148.034 133.54 148.397 134.22 148.93 134.754C149.464 135.287 150.143 135.651 150.884 135.798C151.624 135.946 152.391 135.87 153.088 135.581C153.785 135.293 154.381 134.804 154.8 134.176C155.22 133.549 155.443 132.811 155.443 132.057C155.443 131.045 155.042 130.075 154.327 129.36C153.612 128.644 152.642 128.242 151.63 128.242Z" fill="#180C47"/>
</g>
<path d="M146.822 142.174C145.505 142.734 144.036 142.822 142.661 142.424L142.333 143.523C143.011 143.72 143.713 143.82 144.419 143.819C145.407 143.823 146.384 143.621 147.29 143.228C148.589 142.652 149.689 141.706 150.452 140.507L149.481 139.886C148.839 140.893 147.914 141.689 146.822 142.174Z" fill="#180C47"/>
<path d="M141.734 142.959C141.458 143.537 141.079 144.06 140.616 144.503L141.409 145.332C141.973 144.793 142.434 144.156 142.771 143.452C143.143 142.679 143.356 141.839 143.397 140.982L142.254 140.921C142.218 141.628 142.041 142.321 141.734 142.959Z" fill="#180C47"/>
<path d="M152.539 120.431L145.193 124.222C145.003 124.32 144.851 124.48 144.762 124.675C144.673 124.869 144.652 125.088 144.702 125.297C144.753 125.505 144.872 125.69 145.04 125.823C145.208 125.955 145.416 126.027 145.63 126.027C145.783 126.028 145.933 125.991 146.068 125.919L153.414 122.128C153.536 122.077 153.645 122.002 153.737 121.906C153.828 121.811 153.898 121.697 153.943 121.573C153.988 121.449 154.007 121.318 153.998 121.186C153.99 121.054 153.954 120.926 153.893 120.809C153.833 120.692 153.748 120.588 153.646 120.505C153.543 120.423 153.424 120.362 153.297 120.327C153.17 120.292 153.037 120.284 152.906 120.304C152.776 120.323 152.651 120.369 152.539 120.439V120.431Z" fill="#180C47"/>
<path d="M223.603 94.7205C222.442 94.8748 221.297 95.1366 220.184 95.5024L228.004 94.6479C226.54 94.5028 225.063 94.5272 223.603 94.7205Z" fill="#9783FE"/>
</svg>
