<svg width="246" height="369" viewBox="0 0 246 369" fill="none" xmlns="http://www.w3.org/2000/svg">
<path d="M244.959 217.349C244.747 216.123 244.095 215.315 242.673 214.808C243.077 214.389 243.367 213.875 243.515 213.313C243.663 212.751 243.665 212.16 243.521 211.597C242.852 209.078 240.294 208.331 233.204 208.883C233.528 208.096 233.801 207.29 234.023 206.469C234.55 204.403 234.765 202.268 234.659 200.138C234.596 199.439 234.264 198.791 233.734 198.331C233.204 197.871 232.517 197.634 231.816 197.67C231.115 197.706 230.455 198.012 229.975 198.524C229.495 199.036 229.232 199.715 229.241 200.416C229.404 203.76 228.521 207.072 226.716 209.892C226.651 210.024 226.597 210.162 226.554 210.304C217.735 210.148 209.107 207.703 201.517 203.209C185.621 193.65 180.137 178.272 178.504 172.141L168.02 174.928C169.981 182.363 176.625 200.924 195.938 212.517C204.549 217.639 214.28 220.581 224.286 221.089C226.627 222.58 229.194 223.682 231.888 224.35C231.434 224.695 231.101 225.174 230.935 225.719C230.769 226.265 230.78 226.848 230.965 227.387C231.15 227.926 231.501 228.393 231.967 228.722C232.433 229.05 232.991 229.223 233.56 229.216C233.846 229.218 234.131 229.172 234.402 229.082C241.726 226.674 244.652 225.398 244.033 222.393C243.919 221.813 243.622 221.284 243.186 220.883C244.502 219.947 245.215 218.843 244.959 217.349Z" fill="#0068C7"/>
<path d="M230.707 215.939C230.658 216.532 230.803 217.125 231.121 217.627C231.439 218.13 231.912 218.516 232.468 218.726C231.818 218.947 231.262 219.382 230.892 219.96C230.521 220.539 230.358 221.225 230.428 221.909C230.528 222.397 230.743 222.855 231.056 223.243C231.37 223.631 231.772 223.938 232.229 224.138L236.654 212.026L232.641 213.62C232.127 213.775 231.669 214.077 231.325 214.489C230.981 214.901 230.766 215.406 230.707 215.939Z" fill="#0068C7"/>
<path d="M239.391 216.251C240.506 215.783 241.62 215.298 242.674 214.808L232.814 218.637C234.904 217.979 237.106 217.193 239.391 216.251Z" fill="#0068C7"/>
<path d="M239.145 222.304C240.567 221.847 241.932 221.362 243.17 220.866L232.229 224.099C234.565 223.628 236.874 223.029 239.145 222.304Z" fill="#0068C7"/>
<path d="M131.279 195L120.443 195.284C121.967 252.816 123.472 310.347 124.958 367.879L155.179 367.428L135.353 350.851L131.279 195Z" fill="#0068C7"/>
<path d="M108.198 195.206L111.024 351.08L91.9561 368.526L122.171 368.057L119.027 195L108.198 195.206Z" fill="#0068C7"/>
<path d="M44.3064 203.198C36.7165 207.692 28.0889 210.137 19.2695 210.293C19.2297 210.15 19.1755 210.012 19.1078 209.88C17.3026 207.061 16.4201 203.749 16.5829 200.405C16.5921 199.703 16.3291 199.025 15.849 198.513C15.3689 198.001 14.7092 197.695 14.0082 197.659C13.3073 197.623 12.6196 197.86 12.0895 198.32C11.5594 198.78 11.2282 199.427 11.1653 200.126C10.9786 203.114 11.4762 206.105 12.62 208.872C5.53031 208.314 2.97757 209.067 2.30315 211.586C2.15868 212.149 2.16068 212.739 2.30898 213.301C2.45727 213.863 2.74692 214.378 3.15035 214.796C1.72906 215.304 1.07694 216.112 0.86514 217.338C0.608751 218.832 1.32218 219.935 2.65987 220.861C2.21979 221.258 1.92217 221.788 1.81266 222.371C1.18841 225.364 4.1146 226.64 11.4384 229.059C11.7097 229.15 11.9941 229.195 12.28 229.193C12.8476 229.194 13.4013 229.017 13.8627 228.687C14.3242 228.356 14.6703 227.889 14.852 227.352C15.0337 226.814 15.0419 226.233 14.8754 225.69C14.709 225.147 14.3763 224.671 13.9243 224.327C16.6182 223.659 19.1858 222.558 21.5268 221.067C31.5329 220.559 41.2637 217.616 49.8746 212.494C69.1874 200.901 75.8312 182.341 77.7932 174.905L67.3091 172.119C65.6983 178.272 60.2026 193.65 44.3064 203.198Z" fill="#0068C7"/>
<path d="M14.8271 125.919L121.335 256.371L227.842 125.919L121.335 0.259766L14.8271 125.919Z" fill="#0068C7"/>
<path d="M104.569 86.9083C103.878 86.8269 103.178 86.8952 102.516 87.1088C101.855 87.3223 101.247 87.676 100.734 88.1457C100.595 88.2627 100.481 88.4064 100.399 88.5684C100.317 88.7303 100.268 88.9071 100.256 89.0882C100.243 89.2694 100.267 89.4512 100.326 89.6228C100.386 89.7945 100.479 89.9524 100.6 90.0874C100.722 90.2223 100.869 90.3315 101.034 90.4083C101.198 90.4852 101.376 90.5281 101.558 90.5347C101.739 90.5413 101.92 90.5113 102.09 90.4465C102.26 90.3818 102.414 90.2836 102.545 90.1578C102.773 89.9588 103.038 89.8071 103.325 89.7114C103.613 89.6157 103.916 89.578 104.217 89.6004C104.716 89.668 105.175 89.911 105.511 90.286C105.638 90.4269 105.794 90.5394 105.967 90.6162C106.141 90.6931 106.329 90.7325 106.519 90.7318C106.853 90.7338 107.175 90.6105 107.422 90.3863C107.556 90.2681 107.664 90.1246 107.741 89.9641C107.819 89.8036 107.863 89.6293 107.873 89.4514C107.882 89.2735 107.856 89.0955 107.796 88.9278C107.736 88.7601 107.643 88.606 107.523 88.4745C106.754 87.6191 105.708 87.0641 104.569 86.9083Z" fill="#180C47"/>
<path d="M135.631 86.9079C134.942 86.8284 134.243 86.8977 133.583 87.1112C132.922 87.3246 132.315 87.6773 131.802 88.1453C131.561 88.3909 131.421 88.7196 131.413 89.0642C131.405 89.4089 131.529 89.7436 131.76 90.0002C131.99 90.2568 132.309 90.4159 132.653 90.4451C132.996 90.4743 133.338 90.3714 133.608 90.1574C134.071 89.7587 134.671 89.5585 135.28 89.6C135.781 89.6664 136.242 89.9095 136.579 90.2856C136.706 90.4265 136.862 90.539 137.036 90.6159C137.21 90.6927 137.398 90.7321 137.588 90.7315C137.85 90.7327 138.107 90.6576 138.327 90.5154C138.547 90.3731 138.72 90.1699 138.827 89.9305C138.933 89.6911 138.968 89.4259 138.926 89.1672C138.884 88.9086 138.768 88.6678 138.591 88.4741C137.821 87.6187 136.772 87.0639 135.631 86.9079Z" fill="#180C47"/>
<path d="M120.197 137.105H119.874C117.521 137 115.273 136.101 113.496 134.556C111.719 133.011 110.517 130.909 110.087 128.594C110.049 128.38 110.057 128.161 110.112 127.951C110.167 127.742 110.267 127.546 110.404 127.379C110.549 127.205 110.73 127.066 110.934 126.969C111.138 126.873 111.36 126.823 111.586 126.821H128.864C129.089 126.822 129.311 126.873 129.515 126.969C129.718 127.065 129.897 127.205 130.041 127.379C130.181 127.545 130.282 127.74 130.337 127.95C130.392 128.16 130.399 128.38 130.358 128.594C129.911 130.969 128.654 133.115 126.801 134.667C124.948 136.219 122.614 137.081 120.197 137.105Z" fill="#180C47"/>
<mask id="mask0_112_1601" style="mask-type:luminance" maskUnits="userSpaceOnUse" x="110" y="126" width="21" height="12">
<path d="M120.197 137.105H119.874C117.521 137 115.273 136.101 113.496 134.556C111.719 133.011 110.517 130.909 110.087 128.594C110.049 128.38 110.057 128.161 110.112 127.951C110.167 127.742 110.267 127.546 110.404 127.379C110.549 127.205 110.73 127.066 110.934 126.969C111.138 126.873 111.36 126.823 111.586 126.821H128.864C129.089 126.822 129.311 126.873 129.515 126.969C129.718 127.065 129.897 127.205 130.041 127.379C130.181 127.545 130.282 127.74 130.337 127.95C130.392 128.16 130.399 128.38 130.358 128.594C129.911 130.969 128.654 133.115 126.801 134.667C124.948 136.219 122.614 137.081 120.197 137.105Z" fill="white"/>
</mask>
<g mask="url(#mask0_112_1601)">
<path d="M119.902 136.286C122.32 136.336 124.667 135.472 126.476 133.868C128.285 132.263 129.422 130.036 129.662 127.63H110.772C110.998 129.93 112.046 132.071 113.723 133.661C115.4 135.251 117.594 136.183 119.902 136.286Z" fill="#180C47"/>
<path d="M117.489 132.228C114.451 133.047 111.519 135.84 112.054 137.395C113.074 140.338 126.758 139.719 127.354 137.027C127.744 135.227 122.644 130.84 117.489 132.228Z" fill="#FFC5E1"/>
</g>
<path d="M104.614 119.793H104.563C103.449 119.793 101.219 117.162 100.796 112.664L99.1792 112.809C99.653 117.97 102.362 121.42 104.575 121.42H104.742C106.91 121.253 109.139 117.608 109.006 112.447L107.373 112.486C107.495 116.878 105.656 119.715 104.614 119.793Z" fill="#180C47"/>
<path d="M138.441 111.945C138.524 115.044 137.933 117.569 136.858 118.701C136.714 118.874 136.535 119.013 136.331 119.11C136.128 119.206 135.906 119.257 135.682 119.258C133.073 119.258 132.165 115.384 131.864 112.129L130.242 112.28C130.766 117.993 132.594 120.885 135.67 120.885H135.754C136.186 120.872 136.61 120.771 137.002 120.589C137.394 120.407 137.745 120.147 138.034 119.826C139.422 118.372 140.163 115.485 140.068 111.906L138.441 111.945Z" fill="#180C47"/>
<path d="M13.3553 218.709C13.8914 218.516 14.3526 218.158 14.6724 217.687C14.9922 217.215 15.1541 216.654 15.1349 216.085C15.1157 215.515 14.9163 214.967 14.5655 214.518C14.2146 214.069 13.7304 213.743 13.1825 213.587L9.16943 211.993L13.5949 224.104C14.0518 223.904 14.4538 223.597 14.7672 223.209C15.0805 222.821 15.2959 222.364 15.3952 221.875C15.464 221.194 15.2996 220.51 14.929 219.935C14.5584 219.36 14.0036 218.928 13.3553 218.709Z" fill="#0068C7"/>
<path d="M6.43329 216.251C8.7185 217.193 10.9201 217.979 13.0102 218.637L3.15039 214.808C4.20382 215.298 5.29626 215.783 6.43329 216.251Z" fill="#0068C7"/>
<path d="M6.67829 222.304C8.9493 223.029 11.2584 223.628 13.5952 224.099L2.65967 220.866C3.91375 221.368 5.257 221.853 6.67829 222.304Z" fill="#0068C7"/>
<path d="M128.859 126.002H111.581C111.236 126.003 110.895 126.08 110.583 126.227C110.271 126.375 109.995 126.589 109.775 126.855C109.559 127.113 109.403 127.416 109.319 127.742C109.234 128.067 109.222 128.408 109.285 128.739C109.764 131.259 111.087 133.541 113.036 135.21C114.985 136.878 117.444 137.833 120.008 137.918H120.192C122.801 137.903 125.323 136.976 127.321 135.299C129.32 133.622 130.67 131.3 131.139 128.733C131.2 128.404 131.187 128.066 131.102 127.742C131.018 127.418 130.863 127.117 130.649 126.86C130.433 126.593 130.16 126.377 129.851 126.229C129.541 126.08 129.203 126.003 128.859 126.002ZM129.556 128.443C129.135 130.625 127.976 132.595 126.274 134.024C124.572 135.453 122.431 136.253 120.209 136.291V137.105L119.908 136.285C117.741 136.186 115.672 135.356 114.037 133.931C112.401 132.507 111.296 130.57 110.901 128.438C110.882 128.34 110.884 128.24 110.908 128.143C110.932 128.047 110.978 127.957 111.04 127.88C111.11 127.8 111.195 127.736 111.291 127.692C111.387 127.647 111.492 127.624 111.598 127.624H128.876C128.983 127.624 129.088 127.647 129.184 127.692C129.281 127.737 129.366 127.804 129.433 127.886C129.493 127.965 129.533 128.055 129.553 128.152C129.572 128.248 129.569 128.348 129.545 128.443H129.556Z" fill="#180C47"/>
</svg>
