<svg width="58" height="38" viewBox="0 0 58 38" fill="none" xmlns="http://www.w3.org/2000/svg">
<path d="M28.9543 37.8609C28.9543 37.8609 28.7156 37.4251 28.2383 36.761C25.2118 32.548 20.3002 30.0957 15.1153 30.0957H3.14066C1.40776 30.0957 0 28.6914 0 26.955V3.17179C0 1.4216 1.4216 0 3.17179 0H18.3424C18.3424 0 18.4669 0.00345877 18.6849 0.024212C24.5027 0.529208 28.9543 5.43736 28.9543 11.2759V37.8609Z" fill="#FF0016"/>
<path d="M28.9541 37.8609C28.9541 37.8609 29.1928 37.4251 29.6701 36.761C32.6966 32.548 37.6082 30.0957 42.7931 30.0957H54.7297C56.4868 30.0957 57.9084 28.6741 57.9084 26.917V3.18909C57.9084 1.42852 56.4799 0 54.7193 0H39.5659C39.5659 0 39.4483 0.00345877 39.2304 0.024212C33.4057 0.525749 28.9541 5.44081 28.9541 11.2898V37.8609Z" fill="#FF0016"/>
</svg>
