<svg width="417" height="244" viewBox="0 0 417 244" fill="none" xmlns="http://www.w3.org/2000/svg">
<path d="M374.409 77.5074L370.979 87.6788C396.787 96.3854 407.4 110.257 406.094 115.575C405.235 119.064 398.275 122.776 388.78 124.823L381.721 126.935C378.58 128.011 376.279 129.953 375.25 132.4C372.979 137.842 376.721 144.872 383.768 148.407C384.34 148.703 384.999 148.782 385.624 148.629C386.249 148.476 386.797 148.101 387.167 147.575C387.537 147.048 387.703 146.405 387.635 145.766C387.568 145.126 387.27 144.532 386.798 144.095C387.151 144.195 387.492 144.307 387.863 144.377C388.036 144.416 388.214 144.433 388.392 144.43C388.937 144.426 389.468 144.255 389.913 143.939C390.357 143.623 390.694 143.178 390.877 142.664C391.06 142.15 391.08 141.592 390.936 141.067C390.791 140.541 390.489 140.072 390.069 139.724C390.857 139.871 391.575 140.03 392.498 140.165C392.633 140.184 392.768 140.194 392.904 140.195C393.576 140.185 394.22 139.924 394.71 139.463C395.199 139.002 395.498 138.375 395.547 137.704C395.596 137.034 395.393 136.37 394.977 135.842C394.561 135.314 393.962 134.961 393.298 134.853H393.145C402.958 132.465 414.182 127.706 416.524 118.187C420.001 103.998 402.287 86.9082 374.409 77.5074Z" fill="#00D559"/>
<path d="M120.43 116.616C113.871 111.098 110.653 104.08 109.1 99.1621C110.17 98.1246 111.137 96.9858 111.988 95.7618C113.708 93.2896 114.711 90.3908 114.889 87.3847C114.913 86.8798 114.794 86.3782 114.547 85.9374C114.299 85.4966 113.933 85.1343 113.489 84.8919C113.045 84.6495 112.542 84.5368 112.038 84.5667C111.533 84.5966 111.047 84.7679 110.635 85.061C110.027 85.5862 109.633 86.3171 109.529 87.1141C108.841 89.7378 107.217 91.6498 106.211 92.8322C105.368 93.8131 104.375 94.6549 103.27 95.3265C101.06 95.1002 98.8687 94.7229 96.7106 94.197C96.0105 94.0264 94.4692 93.6617 92.2867 93.1911C91.6984 93.0734 91.0749 92.9499 90.2101 92.8087C85.413 92.0408 80.5451 91.8119 75.6972 92.1263C74.9868 92.1731 74.324 92.4998 73.8542 93.0347C73.3844 93.5696 73.1459 94.269 73.1911 94.9794C73.2469 95.6875 73.577 96.3457 74.111 96.8138C74.6451 97.282 75.3409 97.523 76.0501 97.4855C77.3444 97.3973 78.6445 97.4443 79.9446 97.4443C78.118 97.9218 76.3304 98.5373 74.5971 99.2857C74.0343 99.5347 73.5743 99.9696 73.2942 100.517C73.014 101.065 72.9307 101.693 73.0583 102.295C73.1859 102.897 73.5165 103.437 73.9948 103.824C74.4732 104.211 75.07 104.422 75.6854 104.421C76.0584 104.422 76.4273 104.344 76.7678 104.192C78.832 103.299 80.9855 102.628 83.1919 102.192C82.6036 102.392 82.0447 102.551 81.4859 102.78C80.8575 103.071 80.3655 103.592 80.1122 104.237C79.859 104.881 79.864 105.598 80.1264 106.239C80.3887 106.88 80.8881 107.394 81.5205 107.676C82.1529 107.958 82.8696 107.985 83.5213 107.751C88.5097 105.703 93.9448 104.988 99.2932 105.674C99.5697 105.692 99.8473 105.669 100.117 105.604C102.901 113.035 107.507 119.647 113.512 124.835C123.513 133.265 135.214 135.6 145.061 135.6C152.363 135.597 159.615 134.405 166.534 132.071L162.81 121.999C162.557 122.058 137.602 131.047 120.43 116.616Z" fill="#00D559"/>
<path d="M290.167 72L279.431 72.2883C280.933 129.21 282.429 186.131 283.92 243.049L314.146 243.184L294.197 226.336L290.167 72Z" fill="#00D559"/>
<path d="M261.88 72L251.112 72.1932L253.925 225.812L235 243H265L264.923 242.549H265L261.88 72Z" fill="#00D559"/>
<path d="M373.815 57H167.887C163.784 57 160.457 60.3265 160.457 64.43V144.248C160.457 148.352 163.784 151.678 167.887 151.678H373.815C377.919 151.678 381.245 148.352 381.245 144.248V64.43C381.245 60.3265 377.919 57 373.815 57Z" fill="#00D559"/>
<path d="M256.494 117.122H256.211C254.192 117.032 252.263 116.261 250.739 114.934C249.214 113.607 248.184 111.803 247.816 109.816C247.78 109.618 247.789 109.414 247.842 109.219C247.895 109.025 247.991 108.845 248.122 108.692C248.253 108.532 248.417 108.404 248.603 108.315C248.789 108.226 248.993 108.181 249.199 108.181H263.812C264.02 108.181 264.226 108.228 264.414 108.317C264.602 108.407 264.768 108.537 264.9 108.698C265.028 108.853 265.12 109.034 265.171 109.228C265.222 109.422 265.23 109.624 265.194 109.822C264.812 111.857 263.736 113.697 262.15 115.028C260.563 116.359 258.564 117.099 256.494 117.122Z" fill="#0068C7"/>
<mask id="mask0_5403_16" style="mask-type:luminance" maskUnits="userSpaceOnUse" x="247" y="108" width="19" height="10">
<path d="M256.494 117.122H256.211C254.192 117.032 252.263 116.261 250.739 114.934C249.214 113.607 248.184 111.803 247.816 109.816C247.78 109.618 247.789 109.414 247.842 109.219C247.895 109.025 247.991 108.845 248.122 108.692C248.253 108.532 248.417 108.404 248.603 108.315C248.789 108.226 248.993 108.181 249.199 108.181H263.812C264.02 108.181 264.226 108.228 264.414 108.317C264.602 108.407 264.768 108.537 264.9 108.698C265.028 108.853 265.12 109.034 265.171 109.228C265.222 109.422 265.23 109.624 265.194 109.822C264.812 111.857 263.736 113.697 262.15 115.028C260.563 116.359 258.564 117.099 256.494 117.122Z" fill="white"/>
</mask>
<g mask="url(#mask0_5403_16)">
<path d="M256.234 116.311C258.276 116.347 260.257 115.614 261.783 114.257C263.309 112.9 264.268 111.018 264.47 108.986H248.51C248.701 110.932 249.587 112.744 251.006 114.09C252.425 115.435 254.281 116.224 256.234 116.311Z" fill="#0068C7"/>
<path d="M254.193 112.881C251.623 113.569 249.134 115.934 249.593 117.252C250.452 119.746 262.035 119.223 262.535 116.94C262.888 115.44 258.559 111.704 254.193 112.881Z" fill="#FFC5E1"/>
</g>
<path d="M268.736 101.456C271.689 101.456 274.084 99.0623 274.084 96.109C274.084 93.1556 271.689 90.7615 268.736 90.7615C265.783 90.7615 263.389 93.1556 263.389 96.109C263.389 99.0623 265.783 101.456 268.736 101.456Z" fill="white"/>
<mask id="mask1_5403_16" style="mask-type:luminance" maskUnits="userSpaceOnUse" x="263" y="90" width="12" height="12">
<path d="M268.736 101.456C271.689 101.456 274.084 99.0623 274.084 96.109C274.084 93.1556 271.689 90.7615 268.736 90.7615C265.783 90.7615 263.389 93.1556 263.389 96.109C263.389 99.0623 265.783 101.456 268.736 101.456Z" fill="white"/>
</mask>
<g mask="url(#mask1_5403_16)">
<path d="M264.589 90.5203C263.531 90.5214 262.498 90.836 261.619 91.4243C260.741 92.0126 260.056 92.8482 259.652 93.8254C259.249 94.8026 259.144 95.8777 259.351 96.9146C259.558 97.9515 260.067 98.9038 260.815 99.6511C261.563 100.398 262.516 100.907 263.553 101.113C264.591 101.319 265.666 101.213 266.642 100.808C267.619 100.403 268.454 99.7173 269.041 98.838C269.629 97.9588 269.942 96.9251 269.942 95.8677C269.942 95.165 269.804 94.4692 269.534 93.82C269.265 93.1708 268.871 92.5811 268.374 92.0844C267.877 91.5878 267.286 91.194 266.637 90.9256C265.987 90.6572 265.291 90.5195 264.589 90.5203Z" fill="#0068C7"/>
</g>
<path d="M274.501 84.8492L264.194 79.5194C263.879 79.3556 263.51 79.324 263.171 79.4315C262.832 79.5391 262.549 79.777 262.385 80.093C262.222 80.4089 262.19 80.777 262.298 81.1162C262.405 81.4555 262.643 81.7381 262.959 81.9019L273.254 87.2259C273.444 87.3273 273.656 87.3798 273.872 87.3788C274.171 87.3739 274.46 87.2691 274.693 87.081C274.925 86.8929 275.089 86.6324 275.156 86.3409C275.224 86.0494 275.192 85.7436 275.066 85.4723C274.94 85.2009 274.726 84.9795 274.46 84.8433L274.501 84.8492Z" fill="#0068C7"/>
<path d="M244.858 101.456C247.811 101.456 250.205 99.0623 250.205 96.109C250.205 93.1556 247.811 90.7615 244.858 90.7615C241.904 90.7615 239.51 93.1556 239.51 96.109C239.51 99.0623 241.904 101.456 244.858 101.456Z" fill="white"/>
<mask id="mask2_5403_16" style="mask-type:luminance" maskUnits="userSpaceOnUse" x="239" y="90" width="12" height="12">
<path d="M244.858 101.456C247.811 101.456 250.205 99.0623 250.205 96.109C250.205 93.1556 247.811 90.7615 244.858 90.7615C241.904 90.7615 239.51 93.1556 239.51 96.109C239.51 99.0623 241.904 101.456 244.858 101.456Z" fill="white"/>
</mask>
<g mask="url(#mask2_5403_16)">
<path d="M240.71 90.5203C239.653 90.5203 238.619 90.8339 237.739 91.4215C236.86 92.0091 236.175 92.8442 235.77 93.8213C235.365 94.7985 235.259 95.8737 235.466 96.911C235.672 97.9483 236.181 98.9011 236.929 99.649C237.677 100.397 238.63 100.906 239.667 101.112C240.704 101.319 241.78 101.213 242.757 100.808C243.734 100.403 244.569 99.718 245.157 98.8386C245.744 97.9592 246.058 96.9254 246.058 95.8677C246.058 94.4495 245.494 93.0893 244.492 92.0865C243.489 91.0836 242.129 90.5203 240.71 90.5203Z" fill="#0068C7"/>
</g>
<path d="M250.623 83.502L240.322 78.2075C240.167 78.1031 239.99 78.0326 239.806 78.0008C239.621 77.969 239.431 77.9765 239.249 78.0228C239.068 78.0691 238.898 78.1532 238.75 78.2696C238.603 78.386 238.482 78.5321 238.395 78.6984C238.309 78.8647 238.258 79.0474 238.246 79.2347C238.235 79.4219 238.263 79.6095 238.328 79.7852C238.394 79.9609 238.496 80.1208 238.628 80.2544C238.76 80.388 238.918 80.4923 239.093 80.5606L249.394 85.8552C249.584 85.9572 249.796 86.0098 250.011 86.0081C250.311 86.0032 250.6 85.8984 250.832 85.7103C251.065 85.5222 251.228 85.2617 251.296 84.9702C251.364 84.6787 251.332 84.3729 251.206 84.1015C251.08 83.8302 250.866 83.6088 250.6 83.4726L250.623 83.502Z" fill="#0068C7"/>
<path d="M87.216 96.3207C86.1042 96.1565 84.9806 96.0856 83.857 96.1089C82.3629 96.1376 80.8769 96.335 79.4272 96.6972C79.2355 96.7446 79.0678 96.8606 78.956 97.0234C78.8442 97.1862 78.7961 97.3844 78.8208 97.5803C78.8454 97.7763 78.9412 97.9563 79.0899 98.0863C79.2385 98.2163 79.4297 98.2872 79.6272 98.2856C79.6938 98.2912 79.7607 98.2912 79.8272 98.2856C81.1547 97.9319 82.519 97.7345 83.8923 97.6973C84.9197 97.6674 85.9476 97.7324 86.9631 97.8914C87.1736 97.9191 87.3867 97.865 87.5586 97.7402C87.7304 97.6155 87.8478 97.4295 87.8867 97.2208C87.9123 97.0133 87.8569 96.8039 87.732 96.6362C87.607 96.4685 87.4222 96.3555 87.216 96.3207Z" fill="#0068C7"/>
<path d="M87.8453 100.421H87.7923C87.0224 100.468 86.2562 100.562 85.498 100.703C84.6253 100.872 83.7661 101.104 82.9272 101.398C82.749 101.461 82.5988 101.586 82.5031 101.749C82.4074 101.912 82.3723 102.104 82.4039 102.291C82.4354 102.478 82.5317 102.647 82.6758 102.77C82.8199 102.893 83.0026 102.961 83.192 102.962C83.2843 102.964 83.3762 102.948 83.4626 102.915C84.2302 102.647 85.0167 102.437 85.8157 102.286C86.5079 102.157 87.2073 102.071 87.91 102.027C88.1237 102.02 88.3259 101.928 88.4721 101.772C88.6183 101.616 88.6965 101.408 88.6894 101.195C88.6824 100.981 88.5908 100.779 88.4347 100.632C88.2786 100.486 88.0708 100.408 87.857 100.415L87.8453 100.421Z" fill="#0068C7"/>
<path d="M101.052 98.0385C99.7888 97.8714 98.5048 97.9643 97.2787 98.3112C96.0527 98.6582 94.9104 99.252 93.9221 100.056C93.8308 100.119 93.7533 100.199 93.6945 100.293C93.6357 100.387 93.5968 100.492 93.5803 100.601C93.5638 100.711 93.57 100.822 93.5985 100.929C93.6271 101.036 93.6773 101.136 93.7462 101.223C93.815 101.309 93.901 101.381 93.9987 101.433C94.0964 101.485 94.2037 101.516 94.314 101.525C94.4244 101.534 94.5353 101.519 94.6399 101.483C94.7446 101.447 94.8406 101.39 94.9222 101.315C96.5842 100 98.6989 99.3952 100.805 99.6327C102.07 99.8225 103.264 100.333 104.276 101.115C104.447 101.228 104.654 101.271 104.856 101.236C105.057 101.201 105.238 101.091 105.361 100.928C105.485 100.765 105.542 100.561 105.52 100.358C105.499 100.154 105.401 99.9667 105.247 99.8327C104.025 98.8857 102.581 98.268 101.052 98.0385Z" fill="#0068C7"/>
<path d="M263.812 107.375H249.199C248.876 107.376 248.557 107.448 248.264 107.585C247.972 107.722 247.713 107.921 247.505 108.169C247.297 108.414 247.147 108.702 247.063 109.012C246.98 109.322 246.966 109.647 247.022 109.963C247.428 112.134 248.557 114.104 250.226 115.551C251.895 116.997 254.005 117.836 256.211 117.928H256.494C258.751 117.909 260.931 117.104 262.658 115.651C264.386 114.199 265.553 112.189 265.959 109.969C266.015 109.659 266.003 109.341 265.923 109.036C265.844 108.731 265.7 108.448 265.5 108.204C265.295 107.952 265.038 107.748 264.747 107.605C264.455 107.462 264.137 107.383 263.812 107.375ZM256.494 116.311H256.235C254.397 116.235 252.639 115.537 251.25 114.331C249.86 113.125 248.922 111.484 248.587 109.675C248.57 109.593 248.573 109.508 248.595 109.427C248.618 109.346 248.659 109.271 248.717 109.21C248.771 109.141 248.841 109.085 248.921 109.046C249 109.007 249.087 108.987 249.176 108.987H263.788C263.878 108.986 263.966 109.006 264.047 109.045C264.127 109.083 264.198 109.14 264.253 109.21C264.305 109.274 264.343 109.349 264.365 109.429C264.386 109.509 264.39 109.593 264.377 109.675C264.021 111.516 263.045 113.18 261.61 114.388C260.175 115.596 258.369 116.275 256.494 116.311Z" fill="#0068C7"/>
<path d="M402.705 91.9087C398.59 88.2939 393.876 85.4251 388.775 83.4315L385.157 93.6735C399.087 101.427 407.859 110.416 406.094 115.558C404.635 119.817 394.981 122.952 388.781 124.805L381.721 126.917C378.58 127.994 376.28 129.935 375.25 132.382C372.979 137.824 376.721 144.854 383.768 148.39C384.34 148.686 384.999 148.764 385.624 148.611C386.249 148.458 386.797 148.084 387.167 147.557C387.537 147.031 387.704 146.388 387.636 145.748C387.568 145.108 387.27 144.515 386.798 144.077C387.151 144.178 387.492 144.289 387.863 144.36C388.037 144.398 388.214 144.416 388.392 144.413C388.938 144.409 389.469 144.237 389.913 143.921C390.357 143.605 390.694 143.16 390.877 142.646C391.06 142.132 391.081 141.575 390.936 141.049C390.792 140.523 390.489 140.055 390.069 139.707C390.857 139.854 391.575 140.012 392.504 140.148C392.637 140.166 392.771 140.176 392.904 140.177C393.577 140.168 394.221 139.907 394.71 139.446C395.199 138.985 395.498 138.357 395.547 137.687C395.597 137.017 395.393 136.352 394.977 135.824C394.561 135.296 393.962 134.944 393.299 134.836H393.146C404.911 133.594 414.465 126.817 416.524 118.17C419.271 106.557 407.523 96.1855 402.705 91.9087Z" fill="#00D559"/>
<path d="M230.153 27.9509C228.391 26.9069 226.315 26.5242 224.297 26.8714C222.279 27.2185 220.45 28.2729 219.138 29.8456C218.911 30.1146 218.8 30.4628 218.83 30.8134C218.86 31.1641 219.028 31.4886 219.297 31.7155C219.566 31.9424 219.914 32.0531 220.265 32.0233C220.615 31.9935 220.94 31.8256 221.167 31.5565C222.074 30.4843 223.323 29.7559 224.703 29.493C226.118 29.2446 227.576 29.5087 228.815 30.2379C228.964 30.3265 229.129 30.3848 229.3 30.4097C229.472 30.4345 229.646 30.4253 229.814 30.3826C229.982 30.34 230.14 30.2647 230.279 30.161C230.417 30.0574 230.534 29.9274 230.623 29.7785C230.711 29.6297 230.77 29.4648 230.795 29.2934C230.819 29.122 230.81 28.9474 230.768 28.7795C230.725 28.6116 230.65 28.4538 230.546 28.315C230.442 28.1763 230.312 28.0593 230.163 27.9707L230.153 27.9509Z" fill="#0068C7"/>
<path d="M246.026 26.8854C243.984 26.5138 241.875 26.8921 240.089 27.9507C239.788 28.1299 239.571 28.4211 239.485 28.7604C239.399 29.0996 239.452 29.4591 239.631 29.7598C239.81 30.0604 240.101 30.2776 240.44 30.3635C240.78 30.4495 241.139 30.3971 241.44 30.2179C242.679 29.49 244.136 29.226 245.552 29.473C246.932 29.7365 248.18 30.4648 249.088 31.5366C249.212 31.6836 249.366 31.8019 249.54 31.8829C249.715 31.964 249.904 32.006 250.096 32.0059C250.348 32.0073 250.595 31.9364 250.808 31.8017C251.021 31.667 251.19 31.4741 251.297 31.2459C251.403 31.0177 251.442 30.7637 251.408 30.5142C251.375 30.2646 251.27 30.03 251.107 29.838C249.806 28.2955 248.011 27.252 246.026 26.8854Z" fill="#0068C7"/>
<path d="M203.364 78.9866C203.344 78.8771 203.3 78.7732 203.236 78.6819C203.173 78.5905 203.09 78.5136 202.995 78.4564C202.899 78.3992 202.792 78.363 202.682 78.35C202.571 78.3371 202.459 78.3478 202.353 78.3814C202.247 78.4151 202.149 78.4709 202.066 78.5451C201.983 78.6194 201.916 78.7104 201.871 78.8122C201.826 78.914 201.803 79.0242 201.803 79.1356C201.804 79.247 201.828 79.357 201.874 79.4584L202.512 81.4624C202.533 81.5715 202.577 81.6749 202.641 81.7658C202.705 81.8567 202.788 81.933 202.883 81.9897C202.979 82.0464 203.085 82.0823 203.196 82.0949C203.306 82.1075 203.418 82.0966 203.524 82.0629C203.63 82.0292 203.727 81.9734 203.81 81.8993C203.893 81.8252 203.959 81.7344 204.004 81.6328C204.05 81.5313 204.073 81.4214 204.072 81.3102C204.072 81.1991 204.048 81.0893 204.002 80.9881L203.364 78.9866Z" fill="#0068C7"/>
<path d="M145.226 140L135.991 141.517L152.798 243.909H152.88H178.932L159.421 226.492L145.226 140Z" fill="#FFB73E"/>
<path d="M87.965 225.299C81.3099 231.087 72.0375 238.212 65.7871 243.792H91.8339L91.968 243.834L123.327 143.804L114.387 141L87.965 225.299Z" fill="#FFB73E"/>
<path d="M252.885 170.087C250.826 170.908 248.715 171.59 246.565 172.131C246.387 172.176 246.203 172.188 246.024 172.23C246.215 172.116 246.431 172.044 246.622 171.927C248.264 170.902 249.816 169.739 251.261 168.451C251.724 168.037 252.003 167.457 252.038 166.837C252.073 166.217 251.86 165.609 251.446 165.147C251.033 164.684 250.452 164.405 249.832 164.37C249.213 164.335 248.605 164.548 248.142 164.962C245.129 167.695 241.539 169.714 237.638 170.869C222.951 161.094 208.914 150.374 195.616 138.778C186.051 130.427 176.771 121.517 168.025 112.297L161.233 118.736C170.173 128.172 179.669 137.286 189.453 145.831C202.154 156.895 215.516 167.178 229.463 176.623L226.101 181.341C225.752 181.848 225.616 182.471 225.723 183.076C225.83 183.681 226.17 184.221 226.671 184.577C227.171 184.934 227.792 185.079 228.399 184.982C229.006 184.885 229.551 184.553 229.915 184.058L232.398 180.581C232.552 180.581 232.821 180.581 233.143 180.581C237.102 180.693 238.607 181.6 242.413 181.843C243.235 181.898 242.796 181.895 244.986 181.895C246.771 181.895 248.564 181.823 250.342 181.679C250.948 181.612 251.504 181.312 251.892 180.842C252.279 180.372 252.469 179.769 252.419 179.161C252.37 178.554 252.085 177.99 251.627 177.589C251.168 177.188 250.571 176.981 249.962 177.013C248.435 177.137 246.901 177.1 245.366 177.11C246.141 176.951 246.93 176.862 247.695 176.675C250.048 176.086 252.358 175.339 254.611 174.44C254.896 174.326 255.156 174.157 255.376 173.942C255.596 173.728 255.772 173.472 255.893 173.189C256.014 172.907 256.078 172.603 256.082 172.296C256.086 171.989 256.029 171.684 255.915 171.398C255.801 171.113 255.631 170.853 255.417 170.633C255.202 170.413 254.946 170.238 254.664 170.116C254.381 169.995 254.078 169.931 253.77 169.927C253.463 169.924 253.158 169.981 252.873 170.095L252.885 170.087Z" fill="#FFB73E"/>
<path d="M61.1808 148.461C47.8839 160.057 33.8471 170.777 19.1592 180.552C15.2583 179.397 11.668 177.377 8.65505 174.644C8.43062 174.418 8.16236 174.24 7.86672 174.121C7.57108 174.002 7.2543 173.945 6.93579 173.953C6.61728 173.961 6.30377 174.034 6.01448 174.168C5.72519 174.301 5.46623 174.492 5.25346 174.73C5.0407 174.967 4.87863 175.245 4.77718 175.547C4.67574 175.849 4.63706 176.168 4.66353 176.486C4.68999 176.803 4.78104 177.112 4.93108 177.393C5.08112 177.674 5.287 177.922 5.53609 178.12C6.98079 179.409 8.53264 180.572 10.1748 181.597C10.366 181.716 10.5821 181.788 10.7757 181.902C10.597 181.86 10.4107 181.848 10.2294 181.803C8.08026 181.261 5.96908 180.579 3.90956 179.759C3.33328 179.529 2.68904 179.537 2.11856 179.781C1.54808 180.026 1.09809 180.487 0.867577 181.063C0.637067 181.639 0.644921 182.284 0.889413 182.854C1.13391 183.425 1.59501 183.875 2.17128 184.105C4.42355 185.003 6.73312 185.749 9.08465 186.34C9.84949 186.534 10.6417 186.616 11.4139 186.775C9.87929 186.775 8.34713 186.799 6.81745 186.678C6.50615 186.643 6.19112 186.672 5.89099 186.761C5.59087 186.851 5.31175 187 5.07016 187.199C4.82856 187.398 4.6294 187.644 4.48446 187.922C4.33952 188.199 4.25174 188.503 4.22633 188.815C4.20091 189.127 4.23837 189.441 4.33648 189.739C4.4346 190.036 4.59138 190.311 4.79755 190.547C5.00372 190.783 5.25509 190.975 5.53677 191.111C5.81846 191.248 6.12475 191.327 6.43751 191.344C8.21551 191.488 10.0109 191.56 11.7988 191.56C13.9965 191.56 13.557 191.56 14.369 191.508C18.0268 191.259 19.3877 190.373 23.0008 190.244C23.6241 190.221 24.1232 190.229 24.3939 190.244L26.8771 193.72C27.2364 194.227 27.7824 194.571 28.395 194.676C28.6984 194.727 29.009 194.719 29.309 194.651C29.6091 194.582 29.8928 194.456 30.1439 194.278C30.395 194.1 30.6086 193.874 30.7725 193.614C30.9364 193.353 31.0474 193.063 31.0992 192.76C31.1509 192.456 31.1424 192.146 31.0742 191.846C31.0059 191.546 30.8792 191.262 30.7013 191.011L27.344 186.293C41.2901 176.847 54.6504 166.564 67.3516 155.501C77.1381 146.963 86.6266 137.84 95.5614 128.418L88.7622 121.979C80.0311 131.194 70.7512 140.104 61.1808 148.461Z" fill="#FFB73E"/>
<path d="M221.149 66.5008L156.197 66.7094C154.677 66.7139 153.198 66.2131 151.993 65.2859C150.788 64.3586 149.925 63.0573 149.54 61.5864L134.789 5.21664C133.014 -1.57008 123.398 -1.62967 121.539 5.1347L106.391 60.2455C105.997 61.6785 105.148 62.9449 103.973 63.854C102.797 64.7632 101.358 65.2659 99.8722 65.2865L34.7763 66.1854C27.8231 66.2823 25.4094 75.4802 31.4239 78.9766L83.8428 109.459C85.2297 110.265 86.29 111.532 86.8394 113.039C87.3889 114.546 87.3926 116.198 86.85 117.708C79.382 138.521 71.91 159.332 64.4337 180.142C62.0274 186.847 70.1601 192.31 75.4643 187.574L123.823 144.296C125.081 143.172 126.709 142.55 128.396 142.55C130.083 142.55 131.711 143.172 132.969 144.296L181.459 187.611C186.764 192.349 194.884 186.881 192.488 180.186L170.084 117.551C169.543 116.043 169.548 114.394 170.097 112.889C170.646 111.384 171.704 110.118 173.088 109.312L224.623 79.2871C230.685 75.7584 228.164 66.4784 221.149 66.5008Z" fill="#FFB73E"/>
<path d="M125.81 99.9329C125.782 99.7705 125.79 99.6041 125.833 99.4451C125.876 99.286 125.953 99.1382 126.058 99.0116C126.167 98.881 126.304 98.7758 126.458 98.7033C126.612 98.6308 126.78 98.5928 126.95 98.5919H137.717C137.887 98.5918 138.054 98.6294 138.208 98.702C138.361 98.7746 138.496 98.8803 138.604 99.0116C138.709 99.1368 138.786 99.2834 138.828 99.4412C138.871 99.599 138.879 99.7642 138.852 99.9254C138.573 101.412 137.8 102.761 136.658 103.753C135.517 104.744 134.073 105.321 132.562 105.389H132.353C130.799 105.378 129.297 104.829 128.104 103.834C126.91 102.838 126.099 101.46 125.81 99.9329Z" fill="#0068C7"/>
<mask id="mask3_5403_16" style="mask-type:luminance" maskUnits="userSpaceOnUse" x="125" y="98" width="14" height="8">
<path d="M125.81 99.9329C125.782 99.7705 125.79 99.6041 125.833 99.4451C125.876 99.286 125.953 99.1382 126.058 99.0116C126.167 98.881 126.304 98.7758 126.458 98.7033C126.612 98.6308 126.78 98.5928 126.95 98.5919H137.717C137.887 98.5918 138.054 98.6294 138.208 98.702C138.361 98.7746 138.496 98.8803 138.604 99.0116C138.709 99.1368 138.786 99.2834 138.828 99.4412C138.871 99.599 138.879 99.7642 138.852 99.9254C138.573 101.412 137.8 102.761 136.658 103.753C135.517 104.744 134.073 105.321 132.562 105.389H132.353C130.799 105.378 129.297 104.829 128.104 103.834C126.91 102.838 126.099 101.46 125.81 99.9329Z" fill="white"/>
</mask>
<g mask="url(#mask3_5403_16)">
<path d="M132.515 104.691C133.957 104.631 135.33 104.052 136.379 103.061C137.429 102.069 138.085 100.732 138.226 99.2947H126.433C126.583 100.794 127.292 102.182 128.419 103.182C129.546 104.182 131.008 104.721 132.515 104.691Z" fill="#0068C7"/>
<path d="M134.024 102.16C130.811 101.294 127.622 104.03 127.873 105.155C128.246 106.834 136.778 107.219 137.414 105.386C137.749 104.413 135.919 102.672 134.024 102.16Z" fill="#FFC5E1"/>
</g>
<path d="M123.277 89.0016H123.19C121.685 89.0016 119.949 91.2142 119.701 94.6162L121.102 94.7155C121.31 91.8474 122.716 90.4071 123.18 90.4071H123.195C123.679 90.4344 124.841 91.984 124.812 94.7379L126.22 94.7503C126.25 91.7257 124.899 89.096 123.277 89.0016Z" fill="#0068C7"/>
<path d="M142.614 89.0016C141.191 89.0016 139.423 89.975 139.085 94.6137L140.484 94.7131C140.63 92.7488 141.114 90.4046 142.614 90.4046C142.723 90.4089 142.83 90.4356 142.928 90.483C143.027 90.5304 143.114 90.5976 143.185 90.6803C143.826 91.3209 144.213 92.8755 144.196 94.7379H145.604C145.621 92.4533 145.107 90.6107 144.181 89.682C143.979 89.4687 143.736 89.2985 143.467 89.1815C143.198 89.0646 142.908 89.0034 142.614 89.0016Z" fill="#0068C7"/>
<path d="M137.71 97.8917H126.942C126.67 97.8915 126.401 97.9513 126.155 98.0667C125.909 98.1822 125.691 98.3505 125.517 98.5597C125.347 98.7645 125.224 99.0039 125.156 99.2613C125.088 99.5186 125.077 99.7877 125.124 100.05C125.435 101.737 126.323 103.264 127.638 104.366C128.952 105.469 130.61 106.079 132.326 106.091H132.559C134.23 106.018 135.827 105.381 137.09 104.284C138.353 103.187 139.207 101.694 139.512 100.05C139.561 99.7847 139.55 99.5124 139.481 99.2522C139.412 98.9919 139.286 98.7501 139.113 98.5438C138.94 98.3376 138.724 98.172 138.479 98.0588C138.235 97.9457 137.969 97.8878 137.7 97.8892L137.71 97.8917ZM138.142 99.7963C137.895 101.128 137.205 102.337 136.183 103.226C135.161 104.115 133.868 104.631 132.515 104.691H132.328C130.943 104.667 129.607 104.168 128.546 103.277C127.485 102.386 126.763 101.157 126.5 99.7963C126.488 99.7346 126.49 99.671 126.507 99.6102C126.523 99.5495 126.553 99.4934 126.595 99.4462C126.637 99.3974 126.69 99.3582 126.749 99.3312C126.808 99.3043 126.872 99.2901 126.937 99.2897H136.848C136.781 99.4018 136.745 99.5294 136.744 99.6597C136.742 99.8379 136.808 100.01 136.928 100.142C137.048 100.273 137.214 100.354 137.392 100.368C137.569 100.382 137.746 100.328 137.885 100.216C138.024 100.105 138.116 99.9453 138.142 99.769C138.142 99.769 138.142 99.7914 138.142 99.7963Z" fill="#0068C7"/>
</svg>
