<svg width="166" height="109" viewBox="0 0 166 109" fill="none" xmlns="http://www.w3.org/2000/svg">
<path d="M83 109C83 109 82.3158 107.745 80.9476 105.833C72.2718 93.7045 58.1922 86.6443 43.3293 86.6443H9.00299C4.03548 86.6443 0 82.6014 0 77.6025V9.13146C0 4.09273 4.07514 0 9.09222 0H52.5802C52.5802 0 52.9372 0.00995767 53.5618 0.0697055C70.2392 1.52357 83 15.6539 83 32.463V109Z" fill="#0068C7"/>
<path d="M83 109C83 109 83.6841 107.745 85.0524 105.833C93.7282 93.7045 107.808 86.6443 122.671 86.6443H156.888C161.925 86.6443 166 82.5516 166 77.493V9.18125C166 4.11264 161.905 0 156.858 0H113.42C113.42 0 113.083 0.00995767 112.458 0.0697055C95.7608 1.51361 83 15.6639 83 32.5028V109Z" fill="#FF0016"/>
<path d="M139 32V41.2636C132.727 41.2636 129.252 44.4161 129.252 49.2944V64H120V32.4931H129.243V36.94C131.716 33.8492 135.074 32 139 32Z" fill="white"/>
<path d="M66.9897 55.8V64.52H64.4497C58.0797 64.52 54.7997 61.36 54.7997 55.24V46.64C54.7997 43.24 52.6297 40.95 49.3597 40.95C45.8297 40.95 43.4197 43.3 43.4197 46.77V64.53H34.3897V46.65C34.3897 43.25 32.2197 40.96 28.9397 40.96C25.4097 40.96 22.9997 43.31 22.9997 46.78V64.54H13.9697V32.98H22.9997V36.32C25.2897 33.66 28.3197 32.24 31.9697 32.24C36.4897 32.24 40.0097 34.28 41.9297 37.69C44.3397 34.1 47.9297 32.24 52.3897 32.24C59.2597 32.24 63.8397 36.88 63.8397 43.93V53.27C63.8397 54.88 64.7697 55.81 66.3797 55.81H66.9997L66.9897 55.8Z" fill="white"/>
</svg>
