<svg width="259" height="72" viewBox="0 0 259 72" fill="none" xmlns="http://www.w3.org/2000/svg">
<path d="M106.331 29.6716V36.4972H104.345C99.3593 36.4972 96.7966 34.0272 96.7966 29.2379V22.5091C96.7966 19.8456 95.1012 18.0567 92.5385 18.0567C89.7786 18.0567 87.8933 19.8958 87.8933 22.6059V36.4972H80.8287V22.5091C80.8287 19.8456 79.1369 18.0567 76.5706 18.0567C73.8107 18.0567 71.9254 19.8958 71.9254 22.6059V36.4972H64.8608V11.8119H71.9254V14.4253C73.7175 12.3425 76.0867 11.2312 78.9434 11.2312C82.4775 11.2312 85.2337 12.83 86.7356 15.49C88.6245 12.6831 91.431 11.2312 94.9149 11.2312C100.288 11.2312 103.868 14.8627 103.868 20.3797V27.6892C103.868 28.9475 104.592 29.6752 105.854 29.6752H106.338L106.331 29.6716Z" fill="black"/>
<path d="M107.686 4.30898C107.686 1.83902 109.575 0 112.04 0C114.506 0 116.446 1.83902 116.446 4.30898C116.446 6.77893 114.557 8.66455 112.04 8.66455C109.524 8.66455 107.686 6.82553 107.686 4.30898ZM108.51 11.812H115.575V36.4973H108.51V11.812Z" fill="black"/>
<path d="M146.55 29.6716V36.4972H144.564C139.578 36.4972 137.016 34.0272 137.016 29.2379V22.9931C137.016 19.9926 135.127 18.0567 132.274 18.0567C129.223 18.0567 127.145 20.0427 127.145 23.0899V36.4972H120.08V11.8119H127.145V14.5221C129.033 12.3425 131.596 11.2312 134.646 11.2312C140.31 11.2312 144.084 14.9594 144.084 20.6235V27.6892C144.084 28.9475 144.811 29.6752 146.07 29.6752H146.553L146.55 29.6716Z" fill="black"/>
<path d="M147.905 4.30898C147.905 1.83902 149.794 0 152.259 0C154.725 0 156.665 1.83902 156.665 4.30898C156.665 6.77893 154.776 8.66455 152.259 8.66455C149.743 8.66455 147.905 6.82553 147.905 4.30898ZM148.725 11.812H155.79V36.4973H148.725V11.812Z" fill="black"/>
<path d="M174.812 11.4248V18.6841C170.019 18.6841 167.36 21.1541 167.36 24.9755V36.4972H160.295V11.812H167.36V15.2964C169.249 12.8767 171.812 11.4248 174.812 11.4248Z" fill="black"/>
<path d="M202.253 26.4309H183.378C184.152 29.1913 186.331 30.9335 189.331 30.9335C191.654 30.9335 193.59 29.9656 194.511 28.6571H202.059C200.22 33.6436 195.285 37.0779 189.185 37.0779C181.539 37.0779 175.826 31.5107 175.826 24.1546C175.826 16.7985 181.536 11.2312 189.134 11.2312C196.733 11.2312 202.443 16.7483 202.443 24.2513C202.443 24.8787 202.396 25.8502 202.249 26.4309H202.253ZM183.428 21.7348H194.851C194.124 19.0247 191.851 17.329 189.142 17.329C186.432 17.329 184.253 19.0247 183.432 21.7348H183.428Z" fill="black"/>
<path d="M231.776 29.6716V36.4972H229.791C224.805 36.4972 222.242 34.0272 222.242 29.2379V22.9931C222.242 19.9926 220.353 18.0567 217.5 18.0567C214.45 18.0567 212.371 20.0427 212.371 23.0899V36.4972H205.307V11.8119H212.371V14.5221C214.26 12.3425 216.823 11.2312 219.873 11.2312C225.536 11.2312 229.31 14.9594 229.31 20.6235V27.6892C229.31 28.9475 230.038 29.6752 231.296 29.6752H231.78L231.776 29.6716Z" fill="black"/>
<path d="M256.988 29.6718H258.44V36.4973H256.164C251.662 36.4973 247.16 35.3358 244.837 30.5429L244.063 29.2846C243.045 29.4316 241.981 29.575 240.87 29.6252V36.4973H233.805V1.64551H240.87V14.956C243.533 12.6797 246.823 11.2278 250.26 11.2278C255.196 11.2278 258.44 14.1817 258.44 18.4871C258.44 22.1651 256.067 25.1657 251.859 27.1517C253.02 28.7971 254.812 29.6682 256.988 29.6682V29.6718ZM240.873 23.8644C247.214 23.1366 251.278 21.4912 251.278 19.3152C251.278 18.3473 250.407 17.6698 248.906 17.6698C246.339 17.6698 243.002 19.5088 240.873 21.9787V23.8679V23.8644Z" fill="black"/>
<path d="M144.299 56.5689C144.299 61.6593 140.783 65.5095 136.062 65.5095C133.955 65.5095 132.177 64.6383 130.905 63.1972V71.4675H126.016V48.0262H130.905V49.9333C132.177 48.4922 133.951 47.6211 136.062 47.6211C140.783 47.6211 144.299 51.4712 144.299 56.5617V56.5689ZM139.277 56.5689C139.277 54.1563 137.503 52.3495 135.091 52.3495C132.679 52.3495 130.905 54.1563 130.905 56.5689C130.905 58.9815 132.679 60.7882 135.091 60.7882C137.503 60.7882 139.277 58.9815 139.277 56.5689Z" fill="#218384"/>
<path d="M162.414 58.476C162.414 62.6273 159.768 65.5095 155.317 65.5095C152.74 65.5095 150.528 64.538 148.987 62.9965L148.148 65.108H143.127L150.259 48.0298H155.851C156.353 52.4176 162.414 52.2492 162.414 58.4796V58.476ZM157.392 58.3756C157.392 56.3 154.478 55.5293 152.973 53.1848L150.629 58.9779C151.431 60.082 152.804 60.7847 154.378 60.7847C156.152 60.7847 157.392 59.8454 157.392 58.3721V58.3756Z" fill="#218384"/>
<path d="M163.618 42.8389C163.618 41.1325 164.923 39.8599 166.632 39.8599C168.342 39.8599 169.679 41.1325 169.679 42.8389C169.679 44.5453 168.374 45.8537 166.632 45.8537C164.89 45.8537 163.618 44.5811 163.618 42.8389ZM164.188 48.0297H169.077V65.1079H164.188V48.0297Z" fill="#218384"/>
<path d="M188.296 60.3865H189.299V65.1077H187.726C184.611 65.1077 181.496 64.3047 179.891 60.9888L179.353 60.1176C178.65 60.218 177.912 60.3184 177.141 60.3506V65.1077H172.253V40.9961H177.141V50.2056C178.984 48.6318 181.26 47.6281 183.636 47.6281C187.052 47.6281 189.296 49.6714 189.296 52.6504C189.296 55.1957 187.654 57.2713 184.744 58.6443C185.547 59.7842 186.787 60.3865 188.292 60.3865H188.296ZM177.145 56.3679C181.532 55.866 184.342 54.726 184.342 53.2204C184.342 52.5501 183.74 52.0804 182.701 52.0804C180.926 52.0804 178.615 53.353 177.141 55.0594V56.3643L177.145 56.3679Z" fill="#218384"/>
<path d="M190.306 56.5688C190.306 51.4783 194.256 47.6282 199.514 47.6282C204.772 47.6282 208.722 51.4783 208.722 56.5688C208.722 61.6592 204.772 65.5094 199.514 65.5094C194.256 65.5094 190.306 61.6592 190.306 56.5688ZM203.701 56.5688C203.701 54.1562 201.926 52.3494 199.514 52.3494C197.102 52.3494 195.328 54.1562 195.328 56.5688C195.328 58.9814 197.102 60.7881 199.514 60.7881C201.926 60.7881 203.701 58.9814 203.701 56.5688Z" fill="#218384"/>
<path d="M223.923 60.3866V65.1079H222.583C220.006 65.1079 217.73 64.3371 215.819 62.9964C214.515 63.8675 213.106 64.5701 211.568 65.1079L209.694 61.1896C210.733 60.7881 211.737 60.2504 212.64 59.6482C210.934 57.0707 209.995 53.7188 209.995 49.9368C209.995 43.9752 212.773 40.5947 216.959 40.5947C221.145 40.5947 223.622 43.6418 223.622 48.8327C223.622 52.7187 222.181 56.5365 219.636 59.5478C220.608 60.0855 221.68 60.3866 222.852 60.3866H223.923ZM215.016 49.5712C215.016 51.9479 215.486 54.1239 216.357 55.902C217.762 53.8264 218.568 51.3815 218.568 48.8363C218.568 46.5599 217.934 45.3195 216.862 45.3195C215.79 45.3195 215.02 46.6603 215.02 49.5712H215.016Z" fill="#218384"/>
<path d="M224.493 56.5688C224.493 51.4783 228.443 47.6282 233.701 47.6282C238.959 47.6282 242.909 51.4783 242.909 56.5688C242.909 61.6592 238.959 65.5094 233.701 65.5094C228.443 65.5094 224.493 61.6592 224.493 56.5688ZM237.888 56.5688C237.888 54.1562 236.113 52.3494 233.701 52.3494C231.289 52.3494 229.515 54.1562 229.515 56.5688C229.515 58.9814 231.289 60.7881 233.701 60.7881C236.113 60.7881 237.888 58.9814 237.888 56.5688Z" fill="#218384"/>
<path d="M241.805 67.015H242.644C244.285 67.015 245.121 66.1438 245.121 64.6382V48.0296H250.01V64.9071C250.01 69.2949 247.766 71.4709 242.845 71.4709H241.805V67.0185V67.015ZM244.518 42.8352C244.518 41.1288 245.823 39.8562 247.565 39.8562C249.307 39.8562 250.579 41.1288 250.579 42.8352C250.579 44.5416 249.275 45.8501 247.565 45.8501C245.855 45.8501 244.518 44.5774 244.518 42.8352Z" fill="#218384"/>
<path d="M252.554 42.8389C252.554 41.1325 253.859 39.8599 255.569 39.8599C257.278 39.8599 258.615 41.1325 258.615 42.8389C258.615 44.5453 257.311 45.8537 255.569 45.8537C253.827 45.8537 252.554 44.5811 252.554 42.8389ZM253.124 48.0297H258.013V65.1079H253.124V48.0297Z" fill="#218384"/>
<path d="M28.9543 45.9771C28.9543 45.9771 28.7156 45.5413 28.2383 44.8772C25.2118 40.6642 20.3002 38.2119 15.1153 38.2119H3.14066C1.40776 38.2119 0 36.8076 0 35.0712V11.288C0 9.53781 1.4216 8.11621 3.17179 8.11621H18.3424C18.3424 8.11621 18.4669 8.11967 18.6849 8.14042C24.5027 8.64542 28.9543 13.5536 28.9543 19.3922V45.9771Z" fill="#0068C7"/>
<path d="M28.9543 45.9771C28.9543 45.9771 29.1929 45.5413 29.6703 44.8772C32.6968 40.6642 37.6084 38.2119 42.7933 38.2119H54.7298C56.4869 38.2119 57.9086 36.7903 57.9086 35.0332V11.3053C57.9086 9.54473 56.48 8.11621 54.7195 8.11621H39.5661C39.5661 8.11621 39.4485 8.11967 39.2306 8.14042C33.4059 8.64196 28.9543 13.557 28.9543 19.406V45.9771Z" fill="#FF0016"/>
</svg>
