<svg width="259" height="72" viewBox="0 0 259 72" fill="none" xmlns="http://www.w3.org/2000/svg">
<path d="M106.678 29.8027V36.6283H104.693C99.707 36.6283 97.1443 34.1583 97.1443 29.369V22.6402C97.1443 19.9767 95.4489 18.1878 92.8862 18.1878C90.1263 18.1878 88.241 20.0269 88.241 22.737V36.6283H81.1764V22.6402C81.1764 19.9767 79.481 18.1878 76.9183 18.1878C74.1584 18.1878 72.2731 20.0269 72.2731 22.737V36.6283H65.2085V11.943H72.2731V14.5564C74.0652 12.4736 76.4344 11.3623 79.2911 11.3623C82.8251 11.3623 85.5814 12.9611 87.0832 15.6211C88.9721 12.8142 91.7786 11.3623 95.2625 11.3623C100.635 11.3623 104.216 14.9938 104.216 20.5108V27.8203C104.216 29.0786 104.94 29.8063 106.202 29.8063H106.686L106.678 29.8027Z" fill="black"/>
<path d="M108.033 4.43642C108.033 1.96646 109.922 0.127441 112.388 0.127441C114.854 0.127441 116.793 1.96646 116.793 4.43642C116.793 6.90637 114.904 8.79201 112.388 8.79201C109.872 8.79201 108.033 6.95298 108.033 4.43642ZM108.858 11.9395H115.922V36.6247H108.858V11.9395Z" fill="black"/>
<path d="M146.897 29.8027V36.6283H144.912C139.926 36.6283 137.363 34.1583 137.363 29.369V23.1242C137.363 20.1237 135.474 18.1878 132.621 18.1878C129.571 18.1878 127.492 20.1739 127.492 23.221V36.6283H120.428V11.943H127.492V14.6532C129.381 12.4736 131.944 11.3623 134.994 11.3623C140.657 11.3623 144.431 15.0905 144.431 20.751V27.8167C144.431 29.075 145.159 29.8027 146.417 29.8027H146.901H146.897Z" fill="black"/>
<path d="M148.252 4.43642C148.252 1.96646 150.141 0.127441 152.607 0.127441C155.073 0.127441 157.012 1.96646 157.012 4.43642C157.012 6.90637 155.123 8.79201 152.607 8.79201C150.091 8.79201 148.252 6.95298 148.252 4.43642ZM149.077 11.9395H156.141V36.6247H149.077V11.9395Z" fill="black"/>
<path d="M175.159 11.5522V18.8116C170.367 18.8116 167.708 21.2815 167.708 25.103V36.6246H160.643V11.9394H167.708V15.4239C169.596 13.0041 172.159 11.5522 175.159 11.5522Z" fill="black"/>
<path d="M202.6 26.5586H183.726C184.5 29.3189 186.679 31.0612 189.679 31.0612C192.002 31.0612 193.937 30.0933 194.858 28.7848H202.407C200.568 33.7713 195.633 37.2056 189.532 37.2056C181.887 37.2056 176.174 31.6383 176.174 24.2822C176.174 16.9261 181.883 11.3589 189.482 11.3589C197.081 11.3589 202.79 16.8759 202.79 24.379C202.79 25.0064 202.74 25.9779 202.597 26.5586H202.6ZM183.776 21.8625H195.199C194.471 19.1523 192.199 17.4567 189.489 17.4567C186.779 17.4567 184.6 19.1523 183.779 21.8625H183.776Z" fill="black"/>
<path d="M232.12 29.8027V36.6283H230.135C225.149 36.6283 222.586 34.1583 222.586 29.369V23.1242C222.586 20.1237 220.697 18.1878 217.844 18.1878C214.794 18.1878 212.715 20.1739 212.715 23.221V36.6283H205.651V11.943H212.715V14.6532C214.604 12.4736 217.167 11.3623 220.217 11.3623C225.88 11.3623 229.654 15.0905 229.654 20.751V27.8167C229.654 29.075 230.382 29.8027 231.64 29.8027H232.124H232.12Z" fill="black"/>
<path d="M257.336 29.8027H258.787V36.6282H256.511C252.009 36.6282 247.508 35.4667 245.185 30.6738L244.411 29.4155C243.396 29.5589 242.328 29.7059 241.217 29.7561V36.6282H234.153V1.77637H241.217V15.0869C243.88 12.8105 247.171 11.3587 250.604 11.3587C255.54 11.3587 258.784 14.3126 258.784 18.618C258.784 22.296 256.411 25.2965 252.203 27.2825C253.364 28.928 255.156 29.7991 257.332 29.7991L257.336 29.8027ZM241.221 23.9952C247.561 23.2675 251.626 21.6221 251.626 19.4461C251.626 18.4781 250.755 17.8006 249.253 17.8006C246.687 17.8006 243.35 19.6396 241.221 22.1096V23.9988V23.9952Z" fill="black"/>
<path d="M130.75 60.5141V65.2353H129.378C126.965 65.2353 125.36 64.3965 124.621 62.7582C123.317 64.5327 121.374 65.6368 118.997 65.6368C114.309 65.6368 110.761 61.7867 110.761 56.6962C110.761 51.6057 114.309 47.7556 118.997 47.7556C121.105 47.7556 122.883 48.6267 124.155 50.032V48.1571H129.044V59.1411C129.044 60.0122 129.546 60.5141 130.417 60.5141H130.75ZM124.155 56.6962C124.155 54.2836 122.381 52.4769 119.969 52.4769C117.557 52.4769 115.818 54.2836 115.818 56.6962C115.818 59.1088 117.592 60.9156 119.969 60.9156C122.345 60.9156 124.155 59.1088 124.155 56.6962Z" fill="#8522D7"/>
<path d="M131.489 56.6962C131.489 51.6057 135.439 47.7556 140.697 47.7556C145.284 47.7556 148.933 50.7346 149.704 54.8895H144.514C143.844 53.4484 142.403 52.4769 140.697 52.4769C138.284 52.4769 136.51 54.2836 136.51 56.6962C136.51 59.1088 138.284 60.9156 140.697 60.9156C142.403 60.9156 143.844 59.9441 144.514 58.503H149.704C148.933 62.6542 145.284 65.6368 140.697 65.6368C135.439 65.6368 131.489 61.7867 131.489 56.6962Z" fill="#8522D7"/>
<path d="M170.697 60.5141V65.2353H169.324C166.912 65.2353 165.306 64.3965 164.568 62.7582C163.263 64.5327 161.32 65.6368 158.944 65.6368C154.256 65.6368 150.707 61.7867 150.707 56.6962C150.707 51.6057 154.256 47.7556 158.944 47.7556C161.052 47.7556 162.829 48.6267 164.102 50.032V48.1571H168.991V59.1411C168.991 60.0122 169.493 60.5141 170.364 60.5141H170.697ZM164.102 56.6962C164.102 54.2836 162.328 52.4769 159.915 52.4769C157.503 52.4769 155.765 54.2836 155.765 56.6962C155.765 59.1088 157.539 60.9156 159.915 60.9156C162.292 60.9156 164.102 59.1088 164.102 56.6962Z" fill="#8522D7"/>
<path d="M191.493 60.5139V65.2352H190.12C187.708 65.2352 186.102 64.3963 185.364 62.7581C184.059 64.5326 182.116 65.6367 179.74 65.6367C175.052 65.6367 171.503 61.7866 171.503 56.6961C171.503 51.6056 175.052 47.7555 179.74 47.7555C181.848 47.7555 183.625 48.6266 184.898 50.0319V41.1235H189.787V59.1409C189.787 60.0121 190.288 60.5139 191.159 60.5139H191.493ZM184.898 56.6961C184.898 54.2835 183.124 52.4767 180.711 52.4767C178.299 52.4767 176.561 54.2835 176.561 56.6961C176.561 59.1087 178.335 60.9154 180.711 60.9154C183.088 60.9154 184.898 59.1087 184.898 56.6961Z" fill="#8522D7"/>
<path d="M210.579 58.27H197.522C198.056 60.1771 199.565 61.3852 201.64 61.3852C203.246 61.3852 204.586 60.7148 205.224 59.8114H210.446C209.174 63.2601 205.758 65.6368 201.539 65.6368C196.249 65.6368 192.299 61.7867 192.299 56.6962C192.299 51.6057 196.249 47.7556 201.507 47.7556C206.765 47.7556 210.715 51.5735 210.715 56.7643C210.715 57.1981 210.683 57.8685 210.583 58.27H210.579ZM197.554 55.0221H205.457C204.955 53.1472 203.382 51.975 201.507 51.975C199.633 51.975 198.127 53.1472 197.557 55.0221H197.554Z" fill="#8522D7"/>
<path d="M241.382 60.5141V65.2354H240.009C236.561 65.2354 234.787 63.529 234.787 60.213V55.5599C234.787 53.7173 233.615 52.4805 231.841 52.4805C229.934 52.4805 228.626 53.7531 228.626 55.628V65.239H223.737V55.5599C223.737 53.7173 222.565 52.4805 220.791 52.4805C218.88 52.4805 217.575 53.7531 217.575 55.628V65.239H212.687V48.1608H217.575V49.9676C218.816 48.5264 220.454 47.7593 222.429 47.7593C224.873 47.7593 226.78 48.8634 227.819 50.706C229.124 48.763 231.067 47.7593 233.479 47.7593C237.196 47.7593 239.672 50.2723 239.672 54.0865V59.1447C239.672 60.0159 240.174 60.5177 241.045 60.5177H241.379L241.382 60.5141Z" fill="#8522D7"/>
<path d="M258.626 48.1572V64.1958C258.626 68.9171 255.311 72 250.558 72C246.44 72 243.493 69.6878 242.554 65.9739H247.576C248.146 66.9454 249.217 67.5476 250.454 67.5476C252.361 67.5476 253.733 66.2428 253.733 64.1671V62.7941C252.493 64.2675 250.787 65.0705 248.776 65.0705C244.991 65.0705 242.482 62.493 242.482 58.607V48.1608H247.371V57.1337C247.371 59.0767 248.576 60.3134 250.418 60.3134C252.393 60.3134 253.733 59.0408 253.733 57.0656V48.1572H258.622H258.626Z" fill="#8522D7"/>
<path d="M28.9543 45.8609C28.9543 45.8609 28.7156 45.4251 28.2383 44.761C25.2118 40.548 20.3002 38.0957 15.1153 38.0957H3.14066C1.40776 38.0957 0 36.6914 0 34.955V11.1718C0 9.4216 1.4216 8 3.17179 8H18.3424C18.3424 8 18.4669 8.00346 18.6849 8.02421C24.5027 8.52921 28.9543 13.4374 28.9543 19.2759V45.8609Z" fill="#0068C7"/>
<path d="M28.9543 45.8609C28.9543 45.8609 29.1929 45.4251 29.6703 44.761C32.6968 40.548 37.6084 38.0957 42.7933 38.0957H54.7298C56.4869 38.0957 57.9086 36.6741 57.9086 34.917V11.1891C57.9086 9.42852 56.48 8 54.7195 8H39.5661C39.5661 8 39.4485 8.00346 39.2306 8.02421C33.4059 8.52575 28.9543 13.4408 28.9543 19.2898V45.8609Z" fill="#FF0016"/>
</svg>
