<svg width="260" height="58" viewBox="0 0 260 58" fill="none" xmlns="http://www.w3.org/2000/svg">
<g clip-path="url(#clip0_334_81)">
<path d="M108.3 29.5871V36.3931H106.32C101.348 36.3931 98.7918 33.9302 98.7918 29.1545V22.445C98.7918 19.789 97.101 18.0053 94.5451 18.0053C91.7927 18.0053 89.9124 19.8391 89.9124 22.5415V36.3931H82.8669V22.445C82.8669 19.789 81.1761 18.0053 78.6202 18.0053C75.8678 18.0053 73.9875 19.8391 73.9875 22.5415V36.3931H66.9419V11.7783H73.9875V14.3842C75.7748 12.3074 78.1376 11.1992 80.9866 11.1992C84.5112 11.1992 87.2601 12.7935 88.7578 15.4459C90.6417 12.6469 93.4406 11.1992 96.9151 11.1992C102.273 11.1992 105.845 14.8203 105.845 20.3216V27.6103C105.845 28.865 106.57 29.5906 107.825 29.5906H108.307L108.3 29.5871Z" fill="black"/>
<path d="M109.651 4.29669C109.651 1.83378 111.535 0 113.995 0C116.454 0 118.388 1.83378 118.388 4.29669C118.388 6.75961 116.504 8.63986 113.995 8.63986C111.485 8.63986 109.651 6.80608 109.651 4.29669ZM110.47 11.7784H117.516V36.3932H110.47V11.7784Z" fill="black"/>
<path d="M148.408 29.5871V36.3931H146.427C141.455 36.3931 138.899 33.9302 138.899 29.1545V22.9275C138.899 19.9356 137.015 18.0053 134.17 18.0053C131.128 18.0053 129.055 19.9856 129.055 23.0241V36.3931H122.009V11.7783H129.055V14.4807C130.938 12.3074 133.494 11.1992 136.536 11.1992C142.184 11.1992 145.948 14.9168 145.948 20.5647V27.6103C145.948 28.865 146.674 29.5906 147.929 29.5906H148.411L148.408 29.5871Z" fill="black"/>
<path d="M149.759 4.29669C149.759 1.83378 151.643 0 154.102 0C156.561 0 158.495 1.83378 158.495 4.29669C158.495 6.75961 156.611 8.63986 154.102 8.63986C151.593 8.63986 149.759 6.80608 149.759 4.29669ZM150.581 11.7784H157.626V36.3932H150.581V11.7784Z" fill="black"/>
<path d="M176.597 11.3923V18.6309C171.818 18.6309 169.165 21.0939 169.165 24.9044V36.3932H162.12V11.7784H169.165V15.2529C171.049 12.8401 173.605 11.3923 176.597 11.3923Z" fill="black"/>
<path d="M203.964 26.3522H185.14C185.912 29.1047 188.086 30.8419 191.078 30.8419C193.394 30.8419 195.324 29.8768 196.243 28.572H203.771C201.937 33.5443 197.015 36.9688 190.931 36.9688C183.307 36.9688 177.609 31.4174 177.609 24.0823C177.609 16.7472 183.303 11.1958 190.881 11.1958C198.459 11.1958 204.154 16.6971 204.154 24.1788C204.154 24.8044 204.104 25.7731 203.961 26.3522H203.964ZM185.187 21.673H196.579C195.853 18.9706 193.587 17.2798 190.885 17.2798C188.182 17.2798 186.009 18.9706 185.19 21.673H185.187Z" fill="black"/>
<path d="M233.405 29.5871V36.3931H231.424C226.452 36.3931 223.896 33.9302 223.896 29.1545V22.9275C223.896 19.9356 222.012 18.0053 219.167 18.0053C216.125 18.0053 214.052 19.9856 214.052 23.0241V36.3931H207.006V11.7783H214.052V14.4807C215.936 12.3074 218.491 11.1992 221.533 11.1992C227.181 11.1992 230.945 14.9168 230.945 20.5647V27.6103C230.945 28.865 231.671 29.5906 232.926 29.5906H233.408L233.405 29.5871Z" fill="black"/>
<path d="M258.552 29.5872H260V36.3933H257.73C253.24 36.3933 248.751 35.2352 246.434 30.4559L245.662 29.2012C244.651 29.3478 243.589 29.4907 242.477 29.5408V36.3933H235.432V1.64087H242.477V14.9134C245.133 12.6436 248.415 11.1958 251.839 11.1958C256.761 11.1958 259.996 14.1413 259.996 18.4344C259.996 22.102 257.63 25.094 253.433 27.0743C254.592 28.715 256.379 29.5837 258.549 29.5837L258.552 29.5872ZM242.481 23.7964C248.804 23.0707 252.858 21.43 252.858 19.2602C252.858 18.295 251.989 17.6194 250.492 17.6194C247.932 17.6194 244.604 19.4532 242.481 21.9161V23.7999V23.7964Z" fill="black"/>
<path d="M126.07 53.7944V57.5728H124.972C123.042 57.5728 121.759 56.9043 121.169 55.5924C120.125 57.0116 118.57 57.8945 116.668 57.8945C112.919 57.8945 110.08 54.8132 110.08 50.7417C110.08 46.6702 112.919 43.5889 116.668 43.5889C118.356 43.5889 119.775 44.2859 120.794 45.4119V43.9106H124.704V52.697C124.704 53.394 125.105 53.7944 125.802 53.7944H126.07ZM120.794 50.7417C120.794 48.8114 119.374 47.3672 117.444 47.3672C115.514 47.3672 114.123 48.815 114.123 50.7417C114.123 52.6684 115.542 54.1161 117.444 54.1161C119.346 54.1161 120.794 52.6684 120.794 50.7417Z" fill="#FF6600"/>
<path d="M142.034 53.7944V57.5728H140.937C138.177 57.5728 136.758 56.2073 136.758 53.5549V50.0982C136.758 48.436 135.714 47.3672 134.134 47.3672C132.447 47.3672 131.296 48.4646 131.296 50.1519V57.5728H127.385V43.9106H131.296V45.4119C132.34 44.2073 133.759 43.5889 135.45 43.5889C138.584 43.5889 140.672 45.6514 140.672 48.7864V52.697C140.672 53.394 141.072 53.7944 141.769 53.7944H142.038H142.034Z" fill="#FF6600"/>
<path d="M158.481 53.7944V57.5728H157.383C155.453 57.5728 154.17 56.9043 153.58 55.5924C152.536 57.0116 150.981 57.8945 149.08 57.8945C145.33 57.8945 142.492 54.8132 142.492 50.7417C142.492 46.6702 145.33 43.5889 149.08 43.5889C150.767 43.5889 152.186 44.2859 153.205 45.4119V43.9106H157.115V52.697C157.115 53.394 157.516 53.7944 158.213 53.7944H158.481ZM153.205 50.7417C153.205 48.8114 151.786 47.3672 149.855 47.3672C147.925 47.3672 146.534 48.815 146.534 50.7417C146.534 52.6684 147.954 54.1161 149.855 54.1161C151.757 54.1161 153.205 52.6684 153.205 50.7417Z" fill="#FF6600"/>
<path d="M159.067 50.7417C159.067 46.6702 162.227 43.5889 166.434 43.5889C170.642 43.5889 173.802 46.6702 173.802 50.7417C173.802 54.8132 170.642 57.8945 166.434 57.8945C162.227 57.8945 159.067 54.8132 159.067 50.7417ZM169.784 50.7417C169.784 48.8114 168.365 47.3672 166.434 47.3672C164.504 47.3672 163.085 48.815 163.085 50.7417C163.085 52.6684 164.504 54.1161 166.434 54.1161C168.365 54.1161 169.784 52.6684 169.784 50.7417Z" fill="#FF6600"/>
<path d="M188.318 53.7945H189.122V57.5728H187.864C185.373 57.5728 182.881 56.9294 181.598 54.277L181.169 53.58C180.608 53.6586 180.018 53.7408 179.399 53.7659V57.5693H175.489V38.2842H179.399V45.6515C180.872 44.3932 182.695 43.5889 184.597 43.5889C187.328 43.5889 189.122 45.2225 189.122 47.6068C189.122 49.6443 187.811 51.3029 185.48 52.4004C186.123 53.3119 187.114 53.7945 188.318 53.7945ZM179.399 50.5809C182.91 50.1805 185.158 49.269 185.158 48.0643C185.158 47.5282 184.676 47.1528 183.846 47.1528C182.427 47.1528 180.579 48.1716 179.399 49.5371V50.5809Z" fill="#FF6600"/>
<path d="M204.579 53.7945V57.5728H203.482C201.551 57.5728 200.268 56.9044 199.678 55.5925C198.66 57.0938 197.162 57.8946 195.339 57.8946C192.311 57.8946 190.302 55.857 190.302 52.7507V43.9106H194.213V51.5711C194.213 53.0974 195.178 54.1162 196.651 54.1162C198.231 54.1162 199.303 53.0724 199.303 51.5174V43.9106H203.214V52.6971C203.214 53.3941 203.614 53.7945 204.311 53.7945H204.579Z" fill="#FF6600"/>
<path d="M216.686 53.7944V57.5728H215.614C213.551 57.5728 211.728 56.9579 210.202 55.8855C209.158 56.5826 208.032 57.1438 206.799 57.5728L205.298 54.4378C206.127 54.1161 206.931 53.6872 207.653 53.2046C206.288 51.142 205.537 48.4646 205.537 45.4369C205.537 40.6684 207.761 37.9624 211.11 37.9624C214.459 37.9624 216.44 40.4003 216.44 44.5504C216.44 47.6568 215.289 50.7131 213.251 53.1224C214.027 53.5513 214.885 53.7908 215.821 53.7908H216.679L216.686 53.7944ZM209.559 45.1438C209.559 47.0455 209.934 48.7864 210.631 50.2055C211.757 48.5433 212.4 46.588 212.4 44.554C212.4 42.7309 211.893 41.7408 211.035 41.7408C210.177 41.7408 209.562 42.8132 209.562 45.1438H209.559Z" fill="#FF6600"/>
<path d="M228.819 53.7944V57.5728H227.746C225.684 57.5728 223.861 56.9579 222.334 55.8855C221.29 56.5826 220.164 57.1438 218.931 57.5728L217.43 54.4378C218.259 54.1161 219.063 53.6872 219.786 53.2046C218.42 51.142 217.669 48.4646 217.669 45.4369C217.669 40.6684 219.893 37.9624 223.242 37.9624C226.592 37.9624 228.572 40.4003 228.572 44.5504C228.572 47.6568 227.421 50.7131 225.383 53.1224C226.159 53.5513 227.017 53.7908 227.954 53.7908H228.811L228.819 53.7944ZM221.694 45.1438C221.694 47.0455 222.07 48.7864 222.767 50.2055C223.893 48.5433 224.536 46.588 224.536 44.554C224.536 42.7309 224.029 41.7408 223.171 41.7408C222.313 41.7408 221.698 42.8132 221.698 45.1438H221.694Z" fill="#FF6600"/>
<path d="M245.319 53.7944V57.5728H244.222C242.291 57.5728 241.008 56.9043 240.418 55.5924C239.374 57.0116 237.819 57.8945 235.918 57.8945C232.168 57.8945 229.33 54.8132 229.33 50.7417C229.33 46.6702 232.168 43.5889 235.918 43.5889C237.605 43.5889 239.024 44.2859 240.043 45.4119V43.9106H243.954V52.697C243.954 53.394 244.354 53.7944 245.051 53.7944H245.319ZM240.043 50.7417C240.043 48.8114 238.624 47.3672 236.694 47.3672C234.763 47.3672 233.373 48.815 233.373 50.7417C233.373 52.6684 234.792 54.1161 236.694 54.1161C238.595 54.1161 240.043 52.6684 240.043 50.7417Z" fill="#FF6600"/>
<path d="M254.667 43.696V47.7139C252.014 47.7139 250.542 49.0794 250.542 51.1956V57.5691H246.631V43.9069H250.542V45.8372C251.585 44.4968 253.004 43.696 254.667 43.696Z" fill="#FF6600"/>
<path d="M256.032 43.9106H259.943V57.5728H256.032V43.9106Z" fill="#FF6600"/>
<path d="M30.9543 45.8609C30.9543 45.8609 30.7156 45.4251 30.2383 44.761C27.2118 40.548 22.3002 38.0957 17.1153 38.0957H5.14066C3.40776 38.0957 2 36.6914 2 34.955V11.1718C2 9.4216 3.4216 8 5.17179 8H20.3424C20.3424 8 20.4669 8.00346 20.6849 8.02421C26.5027 8.52921 30.9543 13.4374 30.9543 19.2759V45.8609Z" fill="#0068C7"/>
<path d="M30.9543 45.8609C30.9543 45.8609 31.1929 45.4251 31.6703 44.761C34.6968 40.548 39.6084 38.0957 44.7933 38.0957H56.7298C58.4869 38.0957 59.9086 36.6741 59.9086 34.917V11.1891C59.9086 9.42852 58.48 8 56.7195 8H41.5661C41.5661 8 41.4485 8.00346 41.2306 8.02421C35.4059 8.52575 30.9543 13.4408 30.9543 19.2898V45.8609Z" fill="#FF0016"/>
</g>
<defs>
<clipPath id="clip0_334_81">
<rect width="260" height="57.8946" fill="white"/>
</clipPath>
</defs>
</svg>
