<svg width="258" height="71" viewBox="0 0 258 71" fill="none" xmlns="http://www.w3.org/2000/svg">
<path d="M105.89 29.4762V36.2568H103.917C98.9644 36.2568 96.4186 33.8031 96.4186 29.0453V22.3609C96.4186 19.7149 94.7344 17.9379 92.1885 17.9379C89.4468 17.9379 87.5739 19.7648 87.5739 22.4571V36.2568H80.5559V22.3609C80.5559 19.7149 78.8717 17.9379 76.3259 17.9379C73.5842 17.9379 71.7113 19.7648 71.7113 22.4571V36.2568H64.6933V11.7343H71.7113V14.3304C73.4916 12.2613 75.8452 11.1573 78.683 11.1573C82.1938 11.1573 84.9319 12.7457 86.4238 15.3881C88.3003 12.5996 91.0883 11.1573 94.5492 11.1573C99.8866 11.1573 103.444 14.7649 103.444 20.2456V27.5069C103.444 28.7569 104.163 29.4798 105.416 29.4798H105.897L105.89 29.4762Z" fill="black"/>
<path d="M107.236 4.28058C107.236 1.8269 109.112 0 111.562 0C114.012 0 115.938 1.8269 115.938 4.28058C115.938 6.73426 114.062 8.60746 111.562 8.60746C109.062 8.60746 107.236 6.78055 107.236 4.28058ZM108.055 11.7342H115.073V36.2567H108.055V11.7342Z" fill="black"/>
<path d="M145.84 29.4762V36.2568H143.868C138.915 36.2568 136.369 33.8031 136.369 29.0453V22.8417C136.369 19.861 134.492 17.9379 131.658 17.9379C128.628 17.9379 126.563 19.9108 126.563 22.9378V36.2568H119.545V11.7343H126.563V14.4265C128.439 12.2613 130.985 11.1573 134.015 11.1573C139.641 11.1573 143.39 14.861 143.39 20.4877V27.5069C143.39 28.7569 144.113 29.4798 145.363 29.4798H145.844L145.84 29.4762Z" fill="black"/>
<path d="M147.186 4.28058C147.186 1.8269 149.063 0 151.512 0C153.962 0 155.888 1.8269 155.888 4.28058C155.888 6.73426 154.012 8.60746 151.512 8.60746C149.013 8.60746 147.186 6.78055 147.186 4.28058ZM148.005 11.7342H155.023V36.2567H148.005V11.7342Z" fill="black"/>
<path d="M173.919 11.3495V18.5609C169.159 18.5609 166.517 21.0146 166.517 24.8109V36.2566H159.499V11.7341H166.517V15.1956C168.393 12.7918 170.939 11.3495 173.919 11.3495Z" fill="black"/>
<path d="M201.176 26.2534H182.426C183.195 28.9955 185.36 30.7262 188.34 30.7262C190.647 30.7262 192.57 29.7647 193.485 28.4649H200.984C199.157 33.4185 194.254 36.8302 188.194 36.8302C180.599 36.8302 174.924 31.2996 174.924 23.992C174.924 16.6844 180.596 11.1538 188.144 11.1538C195.693 11.1538 201.365 16.6345 201.365 24.0881C201.365 24.7114 201.315 25.6764 201.173 26.2534H201.176ZM182.476 21.5882H193.823C193.101 18.8959 190.843 17.2114 188.151 17.2114C185.459 17.2114 183.295 18.8959 182.479 21.5882H182.476Z" fill="black"/>
<path d="M230.505 29.4762V36.2568H228.532C223.58 36.2568 221.034 33.8031 221.034 29.0453V22.8417C221.034 19.861 219.157 17.9379 216.323 17.9379C213.293 17.9379 211.228 19.9108 211.228 22.9378V36.2568H204.21V11.7343H211.228V14.4265C213.104 12.2613 215.65 11.1573 218.68 11.1573C224.306 11.1573 228.055 14.861 228.055 20.4877V27.5069C228.055 28.7569 228.778 29.4798 230.028 29.4798H230.509L230.505 29.4762Z" fill="black"/>
<path d="M255.554 29.4762H256.996V36.2568H254.735C250.263 36.2568 245.791 35.1029 243.484 30.3416L242.715 29.0916C241.707 29.2376 240.646 29.3801 239.542 29.4299V36.2568H232.524V1.63464H239.542V14.8574C242.188 12.5961 245.456 11.1538 248.867 11.1538C253.77 11.1538 256.993 14.0882 256.993 18.3652C256.993 22.019 254.636 24.9998 250.455 26.9727C251.609 28.6073 253.389 29.4727 255.551 29.4727L255.554 29.4762ZM239.546 23.7071C245.844 22.9841 249.882 21.3495 249.882 19.1879C249.882 18.2263 249.017 17.5533 247.525 17.5533C244.976 17.5533 241.661 19.3802 239.546 21.8339V23.7106V23.7071Z" fill="black"/>
<path d="M187.688 59.985H188.685V64.6752H187.122C184.028 64.6752 180.934 63.8775 179.339 60.5833L178.808 59.718C178.11 59.8177 177.377 59.9174 176.611 59.9494V64.6716H171.755V40.7189H176.611V49.8676C178.441 48.3043 180.702 47.3071 183.063 47.3071C186.456 47.3071 188.685 49.337 188.685 52.2964C188.685 54.8248 187.055 56.8868 184.163 58.2507C184.961 59.3832 186.193 59.9815 187.688 59.9815V59.985ZM176.611 55.9929C180.97 55.4944 183.761 54.3619 183.761 52.8662C183.761 52.2002 183.163 51.7337 182.13 51.7337C180.368 51.7337 178.071 52.9979 176.608 54.6931V55.9894L176.611 55.9929Z" fill="#0066C1"/>
<path d="M189.686 56.1925C189.686 51.1355 193.61 47.3108 198.833 47.3108C204.057 47.3108 207.98 51.1355 207.98 56.1925C207.98 61.2494 204.057 65.0741 198.833 65.0741C193.61 65.0741 189.686 61.2494 189.686 56.1925ZM202.992 56.1925C202.992 53.7958 201.23 52.0009 198.833 52.0009C196.437 52.0009 194.674 53.7958 194.674 56.1925C194.674 58.5892 196.437 60.384 198.833 60.384C201.23 60.384 202.992 58.5892 202.992 56.1925Z" fill="#0066C1"/>
<path d="M223.081 59.9852V64.6753H221.749C219.189 64.6753 216.928 63.9097 215.031 62.5813C213.734 63.4467 212.335 64.1447 210.808 64.6753L208.945 60.7829C209.978 60.3841 210.975 59.8499 211.872 59.2516C210.177 56.6911 209.245 53.3649 209.245 49.6043C209.245 43.682 212.004 40.3237 216.163 40.3237C220.322 40.3237 222.782 43.3508 222.782 48.5074C222.782 52.3678 221.351 56.1605 218.823 59.1519C219.788 59.6861 220.852 59.9852 222.017 59.9852H223.081ZM214.233 49.241C214.233 51.6021 214.699 53.7638 215.565 55.5301C216.96 53.4682 217.762 51.0394 217.762 48.511C217.762 46.2496 217.131 45.0174 216.067 45.0174C215.002 45.0174 214.237 46.3493 214.237 49.241H214.233Z" fill="#0066C1"/>
<path d="M241.81 57.7558H228.839C229.369 59.6504 230.868 60.8505 232.93 60.8505C234.525 60.8505 235.857 60.1846 236.491 59.2872H241.678C240.414 62.713 237.021 65.0741 232.83 65.0741C227.575 65.0741 223.651 61.2494 223.651 56.1925C223.651 51.1355 227.575 47.3108 232.798 47.3108C238.022 47.3108 241.945 51.1035 241.945 56.2601C241.945 56.691 241.913 57.357 241.814 57.7558H241.81ZM228.871 54.5294H236.722C236.223 52.6669 234.66 51.5023 232.798 51.5023C230.936 51.5023 229.44 52.6669 228.874 54.5294H228.871Z" fill="#0066C1"/>
<path d="M240.778 66.5734H241.611C243.242 66.5734 244.071 65.708 244.071 64.2123V47.7132H248.928V64.4794C248.928 68.8383 246.699 71 241.81 71H240.778V66.577V66.5734ZM243.473 42.553C243.473 40.8579 244.769 39.5936 246.5 39.5936C248.23 39.5936 249.494 40.8579 249.494 42.553C249.494 44.2481 248.198 45.548 246.5 45.548C244.801 45.548 243.473 44.2837 243.473 42.553Z" fill="#0066C1"/>
<path d="M251.456 42.553C251.456 40.8579 252.752 39.5936 254.45 39.5936C256.149 39.5936 257.477 40.8579 257.477 42.553C257.477 44.2481 256.181 45.548 254.45 45.548C252.72 45.548 251.456 44.2837 251.456 42.553ZM252.022 47.7096H256.879V64.6753H252.022V47.7096Z" fill="#0066C1"/>
<path d="M28.7634 45.5586C28.7634 45.5586 28.5263 45.1257 28.0522 44.4659C25.0456 40.2808 20.1664 37.8446 15.0157 37.8446H3.11996C1.39849 37.8446 0 36.4496 0 34.7246V11.0982C0 9.3595 1.41223 7.94727 3.15089 7.94727H18.2215C18.2215 7.94727 18.3452 7.9507 18.5617 7.97132C24.3412 8.47299 28.7634 13.3488 28.7634 19.1489V45.5586Z" fill="#0068C7"/>
<path d="M28.7635 45.5586C28.7635 45.5586 29.0005 45.1257 29.4747 44.4659C32.4813 40.2808 37.3605 37.8446 42.5112 37.8446H54.3691C56.1147 37.8446 57.5269 36.4324 57.5269 34.6869V11.1153C57.5269 9.36637 56.1078 7.94727 54.3588 7.94727H39.3054C39.3054 7.94727 39.1885 7.9507 38.9721 7.97132C33.1857 8.46955 28.7635 13.3522 28.7635 19.1626V45.5586Z" fill="#FF0016"/>
</svg>
