<svg width="366" height="195" viewBox="0 0 366 195" fill="none" xmlns="http://www.w3.org/2000/svg">
<path d="M65.8311 89.382L64.0469 94.6144C76.1397 100.48 83.8165 106.761 82.7817 109.87C81.9787 112.252 75.2654 115.142 73.6819 115.562L73.5213 115.602L70.0509 116.494C68.2667 117.109 66.9998 118.162 66.4467 119.483C65.3672 122.07 66.808 126.031 71.0992 128.181C71.2611 128.262 71.4375 128.31 71.6182 128.323C71.7989 128.336 71.9804 128.314 72.1523 128.256C72.3242 128.199 72.4831 128.109 72.62 127.99C72.757 127.872 72.8692 127.727 72.9504 127.565C73.0315 127.403 73.0799 127.227 73.0929 127.046C73.1059 126.866 73.0831 126.684 73.026 126.512C72.9688 126.34 72.8783 126.181 72.7597 126.044C72.6412 125.907 72.4967 125.795 72.3348 125.714L72.2366 125.656C72.5925 125.778 72.9561 125.877 73.325 125.951C73.4147 125.968 73.5058 125.977 73.5972 125.977C73.9349 125.979 74.2613 125.856 74.5141 125.632C74.7669 125.408 74.9282 125.098 74.9674 124.763C75.0066 124.427 74.9208 124.089 74.7265 123.813C74.5321 123.537 74.2428 123.342 73.9139 123.265C74.4937 123.39 75.1405 123.502 75.881 123.613H76.0862C76.4364 123.617 76.7748 123.487 77.0327 123.25C77.2906 123.013 77.4487 122.687 77.4748 122.338C77.5009 121.988 77.3931 121.642 77.1733 121.37C76.9535 121.097 76.6382 120.918 76.2914 120.87L76.0059 120.825H75.8944C76.5055 120.517 77.353 120.076 78.3433 119.514C81.6219 117.658 87.8846 114.112 88.9195 111.538C90.6458 107.251 81.1892 98.0089 65.8311 89.382Z" fill="#0068C7"/>
<path d="M25.0751 96.8492L23.2908 91.6124C7.9283 100.221 -1.52384 109.486 0.202435 113.786C1.23731 116.356 7.50007 119.902 10.7787 121.762C11.7689 122.32 12.6165 122.761 13.2276 123.073H13.116L12.8306 123.114C12.4888 123.169 12.1802 123.35 11.9658 123.622C11.7514 123.894 11.6467 124.236 11.6725 124.582C11.6983 124.927 11.8526 125.25 12.105 125.487C12.3574 125.724 12.6896 125.857 13.0358 125.861H13.2409C13.9814 125.75 14.6282 125.634 15.2081 125.509C14.8822 125.589 14.5969 125.786 14.4056 126.062C14.2143 126.337 14.1301 126.673 14.169 127.007C14.2079 127.34 14.367 127.648 14.6167 127.872C14.8663 128.097 15.1892 128.222 15.5248 128.225C15.6162 128.225 15.7073 128.216 15.7969 128.199C16.1655 128.123 16.529 128.025 16.8853 127.904C16.8536 127.924 16.8208 127.942 16.7872 127.958C16.5076 128.096 16.2832 128.325 16.1505 128.607C16.0179 128.889 15.9848 129.208 16.0568 129.512C16.1288 129.815 16.3015 130.085 16.5468 130.278C16.7921 130.47 17.0954 130.574 17.4072 130.572C17.6227 130.573 17.8354 130.523 18.0272 130.425C22.3139 128.279 23.7547 124.318 22.6752 121.731C22.1221 120.393 20.891 119.358 19.071 118.738L15.6006 117.846L15.4401 117.801C13.8565 117.386 7.14322 114.491 6.3403 112.114C5.30543 108.991 12.9822 102.715 25.0751 96.8492Z" fill="#0068C7"/>
<path d="M54.2874 88.9716L48.7695 89.1188L51.0846 177.239H51.1248V177.288L66.4694 176.789L56.3705 168.349L54.2874 88.9716Z" fill="#0068C7"/>
<path d="M39.7762 88.9136L34.2539 89.0117L35.6947 168.411L25.9883 177.297L41.3553 177.11V177.061H41.3954L39.7762 88.9136Z" fill="#0068C7"/>
<path d="M66.4423 38.6509H26.0153C23.7341 38.6509 21.8848 40.5002 21.8848 42.7815V137.727C21.8848 140.008 23.7341 141.857 26.0153 141.857H66.4423C68.7236 141.857 70.5729 140.008 70.5729 137.727V42.7815C70.5729 40.5002 68.7236 38.6509 66.4423 38.6509Z" fill="#0068C7"/>
<path d="M40.0882 79.9343C39.5438 79.9343 39.0117 80.0957 38.5591 80.3981C38.1065 80.7005 37.7538 81.1304 37.5454 81.6333C37.3371 82.1362 37.2826 82.6895 37.3888 83.2234C37.495 83.7573 37.7571 84.2477 38.142 84.6326C38.527 85.0175 39.0174 85.2796 39.5512 85.3858C40.0851 85.492 40.6385 85.4375 41.1414 85.2292C41.6443 85.0209 42.0741 84.6682 42.3766 84.2155C42.679 83.7629 42.8404 83.2308 42.8404 82.6865C42.8404 81.9565 42.5504 81.2565 42.0343 80.7404C41.5181 80.2242 40.8181 79.9343 40.0882 79.9343Z" fill="white"/>
<mask id="mask0_125_2573" style="mask-type:luminance" maskUnits="userSpaceOnUse" x="37" y="79" width="6" height="7">
<path d="M40.0901 85.4387C41.6101 85.4387 42.8423 84.2065 42.8423 82.6865C42.8423 81.1665 41.6101 79.9343 40.0901 79.9343C38.5701 79.9343 37.3379 81.1665 37.3379 82.6865C37.3379 84.2065 38.5701 85.4387 40.0901 85.4387Z" fill="white"/>
</mask>
<g mask="url(#mask0_125_2573)">
<path d="M41.7762 81.0138C41.2317 81.0129 40.6991 81.1736 40.246 81.4755C39.7928 81.7773 39.4393 82.2069 39.2303 82.7097C39.0213 83.2125 38.9662 83.7661 39.0719 84.3002C39.1776 84.8344 39.4393 85.3252 39.8241 85.7106C40.2088 86.0959 40.6992 86.3585 41.2332 86.465C41.7672 86.5716 42.3208 86.5174 42.824 86.3092C43.3271 86.101 43.7572 85.7482 44.0598 85.2955C44.3625 84.8428 44.524 84.3106 44.524 83.766C44.524 83.0369 44.2346 82.3375 43.7195 81.8215C43.2043 81.3055 42.5054 81.015 41.7762 81.0138Z" fill="#180C47"/>
</g>
<path d="M42.4225 74.1533L37.1232 76.8966C36.9859 76.9671 36.8763 77.0818 36.8121 77.2223C36.748 77.3627 36.733 77.5206 36.7696 77.6706C36.8062 77.8206 36.8922 77.9538 37.0138 78.0489C37.1354 78.144 37.2855 78.1954 37.4399 78.1947C37.5501 78.1957 37.6589 78.1697 37.7566 78.1189L43.0559 75.38C43.1418 75.3417 43.219 75.2862 43.2828 75.2169C43.3465 75.1477 43.3955 75.0662 43.4266 74.9774C43.4577 74.8886 43.4704 74.7943 43.4639 74.7005C43.4573 74.6066 43.4317 74.515 43.3885 74.4314C43.3453 74.3478 43.2855 74.2739 43.2128 74.2142C43.14 74.1545 43.0558 74.1102 42.9654 74.0842C42.875 74.0582 42.7802 74.0509 42.6868 74.0628C42.5935 74.0746 42.5035 74.1055 42.4225 74.1533Z" fill="#180C47"/>
<path d="M52.3694 79.9343C51.8251 79.9343 51.293 80.0957 50.8404 80.3981C50.3878 80.7005 50.035 81.1304 49.8267 81.6333C49.6184 82.1362 49.5639 82.6895 49.6701 83.2234C49.7763 83.7573 50.0384 84.2477 50.4233 84.6326C50.8082 85.0175 51.2986 85.2796 51.8325 85.3858C52.3664 85.492 52.9197 85.4375 53.4226 85.2292C53.9256 85.0209 54.3554 84.6682 54.6578 84.2156C54.9602 83.763 55.1216 83.2308 55.1216 82.6865C55.1222 82.3249 55.0514 81.9667 54.9133 81.6326C54.7752 81.2984 54.5725 80.9947 54.3168 80.7391C54.0612 80.4834 53.7575 80.2807 53.4233 80.1426C53.0892 80.0045 52.731 79.9337 52.3694 79.9343Z" fill="white"/>
<mask id="mask1_125_2573" style="mask-type:luminance" maskUnits="userSpaceOnUse" x="49" y="79" width="7" height="7">
<path d="M52.3694 85.4387C53.8894 85.4387 55.1216 84.2065 55.1216 82.6865C55.1216 81.1665 53.8894 79.9343 52.3694 79.9343C50.8494 79.9343 49.6172 81.1665 49.6172 82.6865C49.6172 84.2065 50.8494 85.4387 52.3694 85.4387Z" fill="white"/>
</mask>
<g mask="url(#mask1_125_2573)">
<path d="M54.055 81.0137C53.5106 81.0137 52.9785 81.1751 52.5259 81.4776C52.0733 81.78 51.7205 82.2098 51.5122 82.7127C51.3039 83.2156 51.2494 83.769 51.3556 84.3029C51.4618 84.8368 51.7239 85.3272 52.1088 85.7121C52.4937 86.097 52.9841 86.3591 53.518 86.4653C54.0519 86.5715 54.6053 86.517 55.1082 86.3087C55.6111 86.1004 56.0409 85.7476 56.3434 85.295C56.6458 84.8424 56.8072 84.3103 56.8072 83.766C56.8072 83.036 56.5172 82.336 56.0011 81.8198C55.4849 81.3037 54.7849 81.0137 54.055 81.0137Z" fill="#180C47"/>
</g>
<path d="M54.704 73.4752L49.4092 76.2096C49.2735 76.2814 49.1656 76.3962 49.1024 76.536C49.0392 76.6759 49.0243 76.8328 49.0601 76.982C49.0958 77.1312 49.1803 77.2643 49.3 77.3603C49.4197 77.4563 49.568 77.5097 49.7214 77.5121C49.8321 77.5125 49.941 77.4849 50.0381 77.4318L55.3196 74.693C55.4816 74.609 55.6037 74.4641 55.6589 74.2901C55.7141 74.1161 55.698 73.9273 55.614 73.7652C55.53 73.6031 55.385 73.481 55.211 73.4258C55.037 73.3706 54.8482 73.3868 54.6862 73.4708L54.704 73.4752Z" fill="#180C47"/>
<path d="M46.2254 89.8415C45.6098 89.8206 45.016 89.6082 44.5267 89.2341C44.0374 88.8599 43.6769 88.3425 43.4955 87.7539L42.7148 88.017C42.9506 88.77 43.4156 89.4305 44.045 89.9064C44.6744 90.3822 45.4367 90.6496 46.2254 90.6711C47.0207 90.6526 47.7901 90.3841 48.4242 89.9037C49.0584 89.4233 49.5251 88.7554 49.7582 87.9947L48.9687 87.736C48.7902 88.3304 48.4292 88.8536 47.9368 89.2315C47.4445 89.6094 46.8457 89.8227 46.2254 89.8415Z" fill="#180C47"/>
<path d="M19.089 118.742L15.6186 117.85L15.458 117.805C13.8745 117.39 7.16117 114.496 6.35825 112.118C5.55533 109.74 9.76173 105.605 17.0638 101.18L15.0387 96.6707C4.68996 103.634 -1.17135 110.311 0.220375 113.773C1.25525 116.342 7.51802 119.888 10.7966 121.749C11.7869 122.306 12.6344 122.748 13.2455 123.06H13.134L12.8485 123.1C12.5067 123.155 12.1982 123.337 11.9837 123.609C11.7693 123.881 11.6646 124.223 11.6904 124.568C11.7162 124.913 11.8705 125.236 12.123 125.473C12.3754 125.71 12.7075 125.844 13.0537 125.848H13.2589C13.9994 125.736 14.6462 125.62 15.226 125.496C14.9002 125.576 14.6148 125.772 14.4235 126.048C14.2322 126.324 14.1481 126.66 14.1869 126.993C14.2258 127.327 14.385 127.635 14.6346 127.859C14.8842 128.083 15.2071 128.209 15.5427 128.212C15.6341 128.212 15.7252 128.203 15.8148 128.185C16.1834 128.11 16.5469 128.012 16.9033 127.891C16.8715 127.91 16.8387 127.928 16.8051 127.944C16.5256 128.083 16.3011 128.311 16.1685 128.594C16.0358 128.876 16.0028 129.195 16.0748 129.498C16.1467 129.802 16.3195 130.072 16.5647 130.264C16.81 130.457 17.1133 130.56 17.4251 130.558C17.6407 130.56 17.8534 130.509 18.0452 130.411C22.3319 128.266 23.7727 124.305 22.6932 121.717C22.1401 120.415 20.8955 119.362 19.089 118.742Z" fill="#0068C7"/>
<path d="M74.1013 94.4404L72.0628 98.901C79.3783 103.326 83.5758 107.488 82.7684 109.839C81.961 112.189 75.2522 115.111 73.6686 115.53L73.508 115.571L70.0376 116.463C68.2534 117.078 66.9866 118.131 66.4334 119.451C65.354 122.038 66.7947 126 71.0859 128.15C71.2479 128.231 71.4242 128.279 71.6049 128.292C71.7856 128.305 71.9671 128.282 72.139 128.225C72.3109 128.168 72.4698 128.078 72.6068 127.959C72.7437 127.84 72.8559 127.696 72.9371 127.534C73.0182 127.372 73.0666 127.196 73.0796 127.015C73.0926 126.834 73.0698 126.653 73.0127 126.481C72.9555 126.309 72.8651 126.15 72.7465 126.013C72.6279 125.876 72.4835 125.764 72.3215 125.683L72.2234 125.625C72.5792 125.747 72.9428 125.845 73.3118 125.919C73.4014 125.937 73.4925 125.946 73.5839 125.946C73.9216 125.947 74.2481 125.824 74.5008 125.6C74.7536 125.376 74.915 125.067 74.9541 124.731C74.9933 124.396 74.9075 124.058 74.7132 123.782C74.5189 123.505 74.2296 123.31 73.9006 123.234C74.4805 123.359 75.1273 123.47 75.8677 123.582H76.0729C76.4231 123.585 76.7615 123.456 77.0194 123.219C77.2773 122.982 77.4354 122.656 77.4615 122.306C77.4876 121.957 77.3799 121.611 77.1601 121.338C76.9403 121.066 76.6249 120.887 76.2781 120.839L75.9926 120.794H75.8811C76.4922 120.486 77.3397 120.045 78.33 119.483C81.6086 117.627 87.8714 114.081 88.9062 111.507C90.3113 108.094 84.45 101.412 74.1013 94.4404Z" fill="#0068C7"/>
<path d="M135.928 155.52C134.549 154.38 132.925 153.575 131.182 153.169C128.873 143.264 127.194 133.222 126.155 123.105C125.396 115.651 124.986 108.072 124.932 100.587L119.41 100.623C119.464 108.286 119.883 116.039 120.659 123.667C121.688 133.66 123.326 143.581 125.566 153.375C123.722 154.97 122.434 157.113 121.89 159.49C121.809 159.847 121.872 160.221 122.066 160.531C122.26 160.842 122.569 161.062 122.925 161.145C123.028 161.168 123.132 161.18 123.237 161.181C123.549 161.18 123.85 161.073 124.093 160.879C124.336 160.684 124.506 160.414 124.576 160.11C124.789 159.193 125.145 158.315 125.633 157.51C125.753 157.313 125.9 157.144 126.03 156.961C128.316 158.98 129.882 161.689 130.49 164.678C130.554 164.987 130.722 165.264 130.965 165.465C131.209 165.665 131.513 165.776 131.829 165.78C131.923 165.78 132.017 165.77 132.11 165.748C132.287 165.712 132.456 165.641 132.606 165.539C132.756 165.437 132.884 165.306 132.984 165.154C133.083 165.003 133.152 164.833 133.186 164.655C133.219 164.477 133.217 164.293 133.18 164.116C132.801 162.31 132.134 160.576 131.204 158.982C131.558 159.333 131.889 159.707 132.194 160.101C133.139 161.419 133.801 162.918 134.139 164.504C134.205 164.811 134.374 165.085 134.617 165.283C134.86 165.481 135.164 165.59 135.477 165.592C135.576 165.593 135.675 165.582 135.772 165.561C136.129 165.483 136.441 165.267 136.64 164.959C136.838 164.651 136.906 164.277 136.829 163.92C136.41 161.964 135.591 160.116 134.425 158.491C134.032 157.952 133.601 157.443 133.136 156.965C133.488 157.164 133.825 157.389 134.144 157.639C135.137 158.475 135.934 159.52 136.477 160.699C136.637 161.021 136.916 161.268 137.255 161.388C137.594 161.507 137.966 161.49 138.293 161.34C138.619 161.189 138.875 160.918 139.004 160.583C139.134 160.247 139.128 159.875 138.988 159.544C138.276 157.994 137.231 156.62 135.928 155.52Z" fill="#9783FE"/>
<path d="M92.9224 123.105C91.8819 133.223 90.1983 143.265 87.8819 153.169C86.176 153.564 84.584 154.346 83.2294 155.455C81.8748 156.565 80.7941 157.971 80.0713 159.566C79.9738 159.776 79.9309 160.008 79.9465 160.239C79.9622 160.47 80.0359 160.694 80.1608 160.889C80.2858 161.084 80.4579 161.245 80.6614 161.356C80.8648 161.467 81.093 161.525 81.3247 161.524C81.5887 161.525 81.8473 161.45 82.0696 161.307C82.2919 161.165 82.4685 160.961 82.5782 160.721C83.1241 159.543 83.922 158.498 84.9156 157.661C85.2332 157.41 85.5703 157.185 85.9237 156.988C85.4567 157.465 85.0244 157.975 84.6301 158.513C83.4666 160.139 82.6498 161.987 82.2302 163.942C82.1534 164.3 82.2215 164.673 82.4196 164.981C82.6178 165.289 82.9299 165.505 83.2874 165.583C83.3841 165.605 83.4828 165.615 83.5818 165.615C83.8954 165.613 84.1989 165.504 84.4422 165.306C84.6855 165.108 84.8541 164.833 84.92 164.526C85.2579 162.94 85.9201 161.441 86.8649 160.124C87.1679 159.729 87.4972 159.355 87.8507 159.004C86.9209 160.599 86.2551 162.335 85.8791 164.143C85.8419 164.32 85.8402 164.503 85.8739 164.681C85.9077 164.859 85.9763 165.028 86.0758 165.179C86.1753 165.331 86.3037 165.461 86.4537 165.562C86.6036 165.664 86.7722 165.735 86.9496 165.771C87.0418 165.792 87.1361 165.802 87.2307 165.802C87.5459 165.798 87.8504 165.687 88.0938 165.487C88.3372 165.286 88.5048 165.009 88.5688 164.7C89.172 161.709 90.7389 158.999 93.0295 156.983C93.1589 157.166 93.3061 157.336 93.4221 157.527C93.9122 158.333 94.2692 159.213 94.4792 160.133C94.5502 160.435 94.7206 160.705 94.9632 160.899C95.2059 161.093 95.5067 161.2 95.8174 161.203C95.9225 161.202 96.0271 161.19 96.1297 161.167C96.4854 161.083 96.7936 160.863 96.9874 160.553C97.1811 160.243 97.2448 159.869 97.1645 159.512C96.6216 157.134 95.3321 154.991 93.4845 153.397C95.7245 143.604 97.3631 133.682 98.3912 123.689C99.1674 116.061 99.5867 108.309 99.6357 100.645L94.1268 100.587C94.0911 108.072 93.6808 115.651 92.9224 123.105Z" fill="#9783FE"/>
<path d="M115.15 128.042L109.637 128.341L112.175 175.299L127.756 175.928L117.211 166.141L115.15 128.042Z" fill="#9783FE"/>
<path d="M105.608 128.341L100.09 128.533L101.397 166.846L91.8242 175.607L107.191 175.419C107.191 175.392 107.169 175.361 107.16 175.33H107.213L105.608 128.341Z" fill="#9783FE"/>
<path d="M130.37 96.3184H89.9431C87.6618 96.3184 85.8125 98.1677 85.8125 100.449V129.269C85.8125 131.551 87.6618 133.4 89.9431 133.4H130.37C132.651 133.4 134.501 131.551 134.501 129.269V100.449C134.501 98.1677 132.651 96.3184 130.37 96.3184Z" fill="#9783FE"/>
<path d="M115.485 116.261C117.005 116.245 118.225 115 118.209 113.48C118.193 111.961 116.948 110.741 115.428 110.757C113.908 110.773 112.689 112.018 112.705 113.538C112.721 115.058 113.966 116.277 115.485 116.261Z" fill="white"/>
<mask id="mask2_125_2573" style="mask-type:luminance" maskUnits="userSpaceOnUse" x="112" y="110" width="7" height="7">
<path d="M115.448 116.271C116.968 116.271 118.2 115.039 118.2 113.519C118.2 111.999 116.968 110.766 115.448 110.766C113.928 110.766 112.695 111.999 112.695 113.519C112.695 115.039 113.928 116.271 115.448 116.271Z" fill="white"/>
</mask>
<g mask="url(#mask2_125_2573)">
<path d="M114.751 110.155C114.206 110.154 113.673 110.315 113.22 110.617C112.767 110.919 112.413 111.349 112.204 111.852C111.996 112.355 111.941 112.909 112.047 113.443C112.153 113.978 112.415 114.468 112.8 114.854C113.185 115.239 113.676 115.501 114.211 115.607C114.745 115.713 115.299 115.658 115.802 115.449C116.305 115.241 116.735 114.887 117.037 114.434C117.339 113.98 117.499 113.448 117.499 112.903C117.499 112.542 117.428 112.185 117.289 111.852C117.151 111.518 116.949 111.215 116.694 110.96C116.439 110.705 116.136 110.503 115.802 110.364C115.469 110.226 115.112 110.155 114.751 110.155Z" fill="#180C47"/>
</g>
<path d="M118.273 103.933C117.77 103.569 117.196 103.314 116.589 103.183C115.981 103.053 115.353 103.05 114.745 103.174C113.931 103.367 113.19 103.792 112.613 104.397C112.502 104.532 112.447 104.703 112.458 104.877C112.469 105.051 112.546 105.215 112.672 105.335C112.798 105.455 112.965 105.523 113.14 105.525C113.314 105.527 113.482 105.464 113.612 105.347C114.002 104.938 114.503 104.652 115.053 104.521C115.468 104.44 115.896 104.445 116.309 104.535C116.723 104.626 117.114 104.8 117.457 105.048C117.53 105.105 117.614 105.147 117.703 105.171C117.793 105.196 117.886 105.202 117.978 105.189C118.07 105.176 118.158 105.145 118.238 105.098C118.318 105.05 118.387 104.987 118.442 104.913C118.497 104.838 118.536 104.753 118.557 104.662C118.578 104.572 118.581 104.478 118.565 104.387C118.55 104.295 118.516 104.208 118.465 104.13C118.415 104.052 118.35 103.985 118.273 103.933Z" fill="#180C47"/>
<path d="M103.169 110.766C102.624 110.765 102.092 110.926 101.639 111.228C101.185 111.53 100.832 111.959 100.623 112.462C100.414 112.965 100.359 113.519 100.464 114.053C100.57 114.587 100.832 115.078 101.217 115.463C101.601 115.848 102.092 116.111 102.626 116.218C103.16 116.324 103.713 116.27 104.217 116.062C104.72 115.854 105.15 115.501 105.452 115.048C105.755 114.595 105.917 114.063 105.917 113.519C105.917 112.789 105.627 112.09 105.112 111.574C104.597 111.058 103.898 110.768 103.169 110.766Z" fill="white"/>
<mask id="mask3_125_2573" style="mask-type:luminance" maskUnits="userSpaceOnUse" x="100" y="110" width="6" height="7">
<path d="M103.168 116.271C104.688 116.271 105.92 115.039 105.92 113.519C105.92 111.999 104.688 110.766 103.168 110.766C101.648 110.766 100.416 111.999 100.416 113.519C100.416 115.039 101.648 116.271 103.168 116.271Z" fill="white"/>
</mask>
<g mask="url(#mask3_125_2573)">
<path d="M102.469 110.155C101.924 110.155 101.392 110.317 100.94 110.619C100.487 110.922 100.134 111.352 99.9259 111.855C99.7177 112.358 99.6635 112.912 99.77 113.446C99.8766 113.98 100.139 114.47 100.524 114.855C100.91 115.24 101.401 115.502 101.935 115.607C102.469 115.713 103.023 115.658 103.525 115.449C104.028 115.24 104.458 114.886 104.76 114.433C105.061 113.98 105.222 113.448 105.221 112.903C105.22 112.174 104.93 111.475 104.414 110.96C103.898 110.445 103.198 110.155 102.469 110.155Z" fill="#180C47"/>
</g>
<path d="M103.578 103.067C102.96 103.001 102.335 103.065 101.744 103.257C101.153 103.448 100.609 103.762 100.148 104.178C100.08 104.239 100.025 104.312 99.9853 104.394C99.946 104.476 99.9234 104.565 99.9188 104.656C99.9143 104.747 99.9278 104.838 99.9587 104.924C99.9895 105.009 100.037 105.088 100.099 105.155C100.222 105.29 100.394 105.371 100.577 105.38C100.76 105.389 100.939 105.326 101.075 105.204C101.392 104.925 101.762 104.713 102.163 104.581C102.564 104.449 102.988 104.4 103.408 104.437C104.096 104.531 104.728 104.866 105.193 105.382C105.258 105.455 105.337 105.514 105.426 105.554C105.516 105.594 105.612 105.614 105.71 105.614C105.876 105.613 106.035 105.549 106.156 105.436C106.225 105.376 106.28 105.304 106.32 105.222C106.36 105.141 106.384 105.052 106.389 104.962C106.395 104.871 106.382 104.781 106.352 104.695C106.322 104.609 106.275 104.531 106.214 104.463C105.529 103.7 104.594 103.205 103.578 103.067Z" fill="#180C47"/>
<path d="M109.066 118.47C108.768 118.47 108.477 118.558 108.229 118.724C107.981 118.89 107.787 119.125 107.673 119.401C107.559 119.676 107.529 119.979 107.588 120.272C107.646 120.564 107.789 120.833 108 121.044C108.211 121.255 108.48 121.398 108.772 121.456C109.065 121.515 109.368 121.485 109.643 121.371C109.919 121.256 110.154 121.063 110.32 120.815C110.486 120.567 110.574 120.276 110.574 119.978C110.574 119.578 110.415 119.194 110.132 118.912C109.85 118.629 109.466 118.47 109.066 118.47ZM109.066 120.656C108.932 120.656 108.801 120.616 108.69 120.541C108.578 120.467 108.491 120.361 108.44 120.237C108.389 120.113 108.375 119.977 108.401 119.845C108.427 119.714 108.492 119.593 108.587 119.498C108.682 119.403 108.802 119.339 108.934 119.313C109.066 119.287 109.202 119.3 109.326 119.351C109.45 119.403 109.556 119.489 109.63 119.601C109.705 119.712 109.744 119.844 109.744 119.978C109.744 120.157 109.673 120.33 109.546 120.457C109.419 120.584 109.246 120.656 109.066 120.656Z" fill="#180C47"/>
<path d="M164.694 122.989L159.176 123.122L160.113 161.453L150.451 170.138L160.323 170.111V170.142L161.714 170.107H165.823C165.81 170.078 165.8 170.048 165.791 170.017H165.845L164.694 122.989Z" fill="#0C826A"/>
<path d="M176.755 123.841L171.233 123.974L172.17 162.3L162.508 170.968L172.379 170.945V170.972L173.767 170.941H177.879C177.879 170.914 177.879 170.883 177.848 170.852H177.902L176.755 123.841Z" fill="#0C826A"/>
<path d="M183.986 59.2368H152.967C150.685 59.2368 148.836 61.0862 148.836 63.3674V129.269C148.836 131.55 150.685 133.4 152.967 133.4H183.986C186.267 133.4 188.117 131.55 188.117 129.269V63.3674C188.117 61.0862 186.267 59.2368 183.986 59.2368Z" fill="#0C826A"/>
<path d="M161.484 86.0231C160.903 86.0489 160.325 85.9175 159.813 85.6427C159.3 85.3679 158.871 84.96 158.571 84.4619L157.875 84.908C158.234 85.4887 158.731 85.9708 159.323 86.3104C159.915 86.65 160.583 86.8365 161.265 86.8528H161.551C162.427 86.7703 163.249 86.3892 163.879 85.7733L163.308 85.1756C162.813 85.656 162.17 85.9547 161.484 86.0231Z" fill="#180C47"/>
<path d="M163.553 74.5147C162.63 73.9709 161.544 73.7729 160.488 73.956C159.433 74.139 158.476 74.6911 157.79 75.5139C157.673 75.6542 157.616 75.8353 157.632 76.0176C157.647 76.1998 157.735 76.3684 157.875 76.4863C158 76.591 158.158 76.6493 158.321 76.6513C158.421 76.651 158.52 76.6289 158.611 76.5866C158.702 76.5442 158.783 76.4826 158.847 76.406C159.319 75.84 159.974 75.4567 160.698 75.322C161.443 75.1922 162.209 75.3296 162.862 75.7101C163.02 75.7909 163.202 75.808 163.372 75.7579C163.542 75.7078 163.687 75.5943 163.775 75.4408C163.864 75.2874 163.891 75.1057 163.849 74.9334C163.808 74.761 163.702 74.6111 163.553 74.5147Z" fill="#180C47"/>
<path d="M171.34 85.9652C170.664 85.8211 170.057 85.4496 169.622 84.9124L168.984 85.4477C169.543 86.1296 170.317 86.6014 171.179 86.7859C171.407 86.8268 171.639 86.8477 171.87 86.8484C172.483 86.8368 173.086 86.6897 173.635 86.4174C174.184 86.1451 174.666 85.7546 175.046 85.2738L174.417 84.734C174.064 85.1986 173.591 85.5585 173.049 85.7753C172.507 85.9921 171.916 86.0577 171.34 85.9652Z" fill="#180C47"/>
<path d="M171.871 73.9615C170.797 73.7714 169.691 73.9673 168.748 74.5146C168.59 74.6098 168.477 74.7639 168.433 74.9429C168.388 75.1219 168.417 75.3112 168.512 75.4692C168.607 75.6271 168.761 75.7407 168.94 75.7851C169.119 75.8294 169.309 75.8008 169.467 75.7056C170.118 75.325 170.883 75.1875 171.626 75.3175C172.35 75.4499 173.004 75.8338 173.472 76.4014C173.531 76.4711 173.603 76.5284 173.684 76.5701C173.765 76.6118 173.853 76.6372 173.944 76.6446C174.035 76.6521 174.126 76.6415 174.213 76.6136C174.3 76.5856 174.38 76.5408 174.449 76.4817C174.588 76.3632 174.675 76.1944 174.69 76.0121C174.705 75.8299 174.647 75.6491 174.529 75.5093C173.85 74.7006 172.91 74.1534 171.871 73.9615Z" fill="#180C47"/>
<path d="M168.471 90.3008H163.957V91.1305H168.471V90.3008Z" fill="#180C47"/>
<path d="M180.133 112.595C180.112 112.415 180.055 112.241 179.966 112.082C179.877 111.924 179.757 111.785 179.614 111.673C179.471 111.561 179.307 111.479 179.132 111.43C178.957 111.382 178.775 111.368 178.594 111.391C177.441 111.546 176.314 111.863 175.249 112.332C175.366 112.238 175.488 112.15 175.615 112.069C176.569 111.504 177.634 111.151 178.737 111.034C179.101 110.995 179.435 110.812 179.665 110.527C179.895 110.242 180.003 109.877 179.964 109.513C179.95 109.331 179.899 109.153 179.813 108.991C179.728 108.83 179.61 108.687 179.468 108.573C179.325 108.458 179.161 108.374 178.984 108.326C178.808 108.277 178.624 108.265 178.443 108.291C176.925 108.45 175.461 108.943 174.156 109.733C172.851 110.523 171.736 111.592 170.891 112.863C168.862 114.003 166.63 114.738 164.32 115.026C159.11 115.637 150.782 114.237 148.855 109.379C148.797 109.232 148.721 109.089 148.677 108.933C148.287 107.449 148.349 105.881 148.855 104.432V94.4716C143.948 99.3204 141.843 105.387 143.391 110.53C144.283 113.559 146.322 115.771 148.855 117.35C152.714 119.755 157.777 120.682 161.974 120.682C162.974 120.685 163.973 120.63 164.967 120.517C167.564 120.198 170.088 119.444 172.434 118.287C172.952 118.564 173.554 118.642 174.125 118.506C174.479 118.393 174.812 118.223 175.111 118.002C175.557 117.685 175.606 117.52 175.967 117.364C176.284 117.244 176.624 117.196 176.962 117.225C177.43 117.258 177.894 117.331 178.349 117.444C178.527 117.476 178.71 117.472 178.887 117.433C179.064 117.394 179.232 117.32 179.38 117.217C179.529 117.113 179.655 116.981 179.753 116.828C179.85 116.675 179.917 116.505 179.948 116.327C179.98 116.148 179.976 115.965 179.937 115.788C179.898 115.612 179.824 115.444 179.721 115.296C179.617 115.147 179.485 115.021 179.332 114.923C179.18 114.826 179.009 114.759 178.831 114.727C178.231 114.626 177.624 114.574 177.015 114.571C177.641 114.358 178.287 114.208 178.942 114.125C179.301 114.076 179.627 113.889 179.85 113.603C180.072 113.317 180.174 112.955 180.133 112.595Z" fill="#0C826A"/>
<path d="M191.499 67.1367C190.396 66.5973 189.266 66.1149 188.113 65.6914C186.216 64.9047 184.253 64.2853 182.247 63.8402C180.062 63.3942 177.06 62.8009 173.683 63.7332C173.054 63.9136 172.436 64.1311 171.832 64.3844C170.082 65.054 168.513 66.1232 167.251 67.5069C167.126 67.6381 167.028 67.7926 166.963 67.9616C166.898 68.1306 166.867 68.3107 166.872 68.4917C166.876 68.6727 166.916 68.8511 166.99 69.0166C167.063 69.182 167.169 69.3314 167.3 69.4562C167.431 69.581 167.585 69.6787 167.754 69.7437C167.923 69.8088 168.104 69.8399 168.285 69.8354C168.466 69.8308 168.644 69.7907 168.809 69.7172C168.975 69.6437 169.124 69.5384 169.249 69.4071C170.262 68.3331 171.494 67.4902 172.862 66.9359C173.58 66.6568 174.329 66.4636 175.093 66.3605C173.453 66.7686 171.934 67.5589 170.659 68.6667C170.385 68.9087 170.218 69.2495 170.196 69.6142C170.173 69.9789 170.296 70.3376 170.538 70.6115C170.669 70.7553 170.829 70.8694 171.007 70.9463C171.186 71.0233 171.379 71.0612 171.573 71.0576C171.902 71.0519 172.219 70.9285 172.465 70.7097C173.299 69.9846 174.274 69.4408 175.329 69.1127C174.405 69.6718 173.571 70.3665 172.853 71.1736C172.718 71.3086 172.612 71.4703 172.543 71.6483C172.473 71.8263 172.441 72.0167 172.449 72.2077C172.457 72.3986 172.504 72.5859 172.588 72.7577C172.672 72.9294 172.79 73.082 172.936 73.2057C173.081 73.3294 173.251 73.4216 173.434 73.4764C173.617 73.5312 173.81 73.5475 173.999 73.5242C174.189 73.5009 174.372 73.4385 174.536 73.3411C174.7 73.2436 174.843 73.1131 174.954 72.9578C175.8 71.9729 176.871 71.2077 178.077 70.7275C179.208 70.2705 180.429 70.0812 181.645 70.1744C181.701 70.1713 181.756 70.1639 181.81 70.1521C183.99 70.1489 186.143 70.6416 188.104 71.5929C188.332 71.7044 188.55 71.7802 188.787 71.9051C188.849 71.9453 195.286 75.6253 195.478 80.8264C195.612 84.3191 192.801 88.3605 188.1 90.6622V96.6707C195.866 93.9497 201.259 87.5665 200.996 80.6436C200.706 72.5519 192.445 67.6764 191.499 67.1367Z" fill="#0C826A"/>
<path d="M176.375 68.2519L175.166 68.7648C175.08 68.8033 175.009 68.8703 174.966 68.9546C174.922 69.039 174.909 69.1356 174.929 69.2284C174.948 69.3212 174.998 69.4047 175.072 69.4648C175.145 69.5249 175.237 69.5581 175.332 69.5588C175.389 69.5598 175.445 69.5476 175.497 69.5231L176.696 69.0146C176.747 68.9937 176.793 68.9629 176.831 68.9241C176.87 68.8853 176.9 68.8392 176.92 68.7885C176.941 68.7378 176.951 68.6835 176.95 68.6289C176.949 68.5743 176.937 68.5204 176.915 68.4704C176.895 68.4201 176.864 68.3744 176.826 68.3361C176.787 68.2977 176.742 68.2674 176.691 68.247C176.641 68.2267 176.587 68.2166 176.533 68.2174C176.479 68.2182 176.425 68.23 176.375 68.2519Z" fill="#180C47"/>
<path d="M307.178 89.8807C307.144 89.6319 307.036 89.3989 306.868 89.2119C306.701 89.0249 306.481 88.8924 306.237 88.8314C306.405 88.6607 306.527 88.4497 306.59 88.2186C306.653 87.9875 306.656 87.7441 306.598 87.5116C306.324 86.4731 305.271 86.163 302.35 86.3902C302.483 86.067 302.596 85.7358 302.689 85.3986C302.905 84.5473 302.992 83.6686 302.948 82.7915C302.933 82.496 302.801 82.2187 302.581 82.0205C302.362 81.8224 302.072 81.7197 301.777 81.735C301.481 81.7503 301.204 81.8823 301.006 82.1021C300.807 82.3219 300.705 82.6114 300.72 82.9069C300.787 84.2831 300.423 85.6459 299.678 86.8049C299.652 86.8596 299.63 86.9163 299.613 86.9744C295.983 86.908 292.432 85.9003 289.307 84.05C282.759 80.1195 280.498 73.7984 279.831 71.2634L275.504 72.3993C276.312 75.4643 279.045 83.1052 287 87.8794C290.544 89.9878 294.549 91.1984 298.668 91.406C299.278 91.7929 299.926 92.1167 300.601 92.3724C300.993 92.5157 301.392 92.6361 301.798 92.733C301.613 92.875 301.477 93.0714 301.409 93.2947C301.341 93.518 301.345 93.757 301.419 93.9781C301.494 94.1992 301.636 94.3913 301.826 94.5276C302.015 94.6639 302.243 94.7374 302.476 94.7379C302.599 94.7397 302.721 94.7202 302.837 94.6802C305.855 93.6922 307.056 93.1657 306.803 91.9325C306.754 91.6918 306.627 91.4739 306.443 91.3123C306.991 90.9481 307.283 90.5081 307.178 89.8807Z" fill="#FF6B32"/>
<path d="M307.508 89.8232C307.477 89.5883 307.391 89.3639 307.258 89.1679C307.125 88.972 306.947 88.8099 306.74 88.6946C306.853 88.5056 306.926 88.2955 306.955 88.0772C306.983 87.8588 306.967 87.637 306.906 87.4253C306.545 86.1092 305.146 85.8856 302.835 86.0226C302.896 85.8459 302.954 85.662 303.001 85.4817C303.224 84.5986 303.314 83.687 303.268 82.7773C303.259 82.582 303.211 82.3906 303.126 82.2145C303.041 82.0385 302.921 81.8815 302.774 81.7532C302.638 81.624 302.476 81.5251 302.298 81.463C302.121 81.4008 301.933 81.3768 301.746 81.3926C301.556 81.4014 301.369 81.4478 301.196 81.5292C301.024 81.6106 300.869 81.7254 300.742 81.8669C300.614 82.0084 300.516 82.1738 300.452 82.3536C300.389 82.5334 300.362 82.724 300.372 82.9143C300.437 84.2237 300.089 85.5205 299.377 86.6212C295.882 86.5123 292.472 85.5199 289.464 83.7365C283.021 79.8673 280.81 73.6399 280.143 71.1519C280.118 71.066 280.061 70.9928 279.984 70.9463C279.947 70.9234 279.905 70.9086 279.862 70.903C279.818 70.8974 279.774 70.9011 279.732 70.9139L275.405 72.0497C275.319 72.0734 275.246 72.1297 275.202 72.2066C275.157 72.2835 275.145 72.3748 275.167 72.4608C275.985 75.5655 278.755 83.3038 286.814 88.1393C290.383 90.2558 294.409 91.4816 298.551 91.7127C299.161 92.0908 299.806 92.4095 300.477 92.6647C300.715 92.7548 300.956 92.8378 301.198 92.9099C301.07 93.1306 301.004 93.3812 301.005 93.6361C301.006 93.8911 301.074 94.1412 301.203 94.3611C301.332 94.5809 301.517 94.7627 301.739 94.8878C301.961 95.013 302.212 95.077 302.467 95.0734C302.621 95.0744 302.773 95.0488 302.918 94.9977C305.803 94.0494 307.433 93.4364 307.104 91.8642C307.07 91.6851 307.003 91.5139 306.906 91.3593C307.135 91.1805 307.311 90.9437 307.417 90.6735C307.523 90.4034 307.554 90.1097 307.508 89.8232ZM306.25 91.0528C306.209 91.0816 306.174 91.1191 306.149 91.1628C306.124 91.2065 306.109 91.2551 306.106 91.3053C306.102 91.3547 306.11 91.4043 306.128 91.4504C306.146 91.4966 306.174 91.5381 306.21 91.5721C306.34 91.6884 306.429 91.8442 306.463 92.0156C306.654 92.9351 305.741 93.3895 302.716 94.3811C302.54 94.4444 302.346 94.442 302.171 94.3742C301.997 94.3065 301.852 94.178 301.764 94.0123C301.677 93.8466 301.652 93.6548 301.694 93.4722C301.736 93.2895 301.843 93.1283 301.995 93.0181C302.045 92.9797 302.083 92.928 302.105 92.8689C302.127 92.8098 302.132 92.7457 302.119 92.6839C302.106 92.6222 302.076 92.5653 302.033 92.5198C301.989 92.4743 301.933 92.442 301.872 92.4267C301.479 92.3302 301.093 92.2097 300.715 92.0661C300.088 91.8241 299.484 91.5248 298.912 91.1718C298.851 91.1165 298.774 91.0834 298.692 91.0781C294.628 90.8646 290.676 89.6694 287.175 87.5948C279.602 83.0441 276.818 75.8504 275.921 72.6411L279.591 71.6747C280.367 74.4296 282.736 80.502 289.129 84.3423C292.302 86.2143 295.903 87.2376 299.586 87.3135C299.652 87.3135 299.716 87.2939 299.771 87.2573C299.825 87.2207 299.868 87.1687 299.893 87.108C299.909 87.0695 299.922 87.0297 299.932 86.989C300.712 85.7701 301.09 84.3376 301.014 82.8927C301.01 82.7894 301.026 82.6863 301.061 82.5893C301.097 82.4923 301.151 82.4032 301.221 82.3271C301.291 82.2511 301.375 82.1896 301.469 82.1462C301.563 82.1028 301.664 82.0783 301.768 82.0741C301.865 82.0655 301.963 82.0774 302.056 82.1091C302.148 82.1408 302.233 82.1915 302.305 82.258C302.385 82.328 302.45 82.4131 302.496 82.5084C302.543 82.6038 302.57 82.7075 302.575 82.8134C302.619 83.6624 302.535 84.5132 302.327 85.3375C302.237 85.662 302.128 85.981 302.002 86.2931C301.981 86.3458 301.974 86.403 301.982 86.4592C301.989 86.5153 302.011 86.5686 302.045 86.614C302.081 86.6578 302.126 86.6926 302.177 86.7158C302.229 86.739 302.285 86.7498 302.341 86.7474C305.341 86.5202 306.044 86.888 306.235 87.62C306.282 87.7993 306.281 87.9877 306.231 88.1662C306.182 88.3448 306.086 88.5071 305.954 88.6369C305.919 88.679 305.895 88.7288 305.884 88.7822C305.873 88.8356 305.875 88.8909 305.889 88.9434C305.903 88.9954 305.929 89.0432 305.966 89.0828C306.002 89.1224 306.048 89.1525 306.098 89.1706C306.285 89.2113 306.454 89.3087 306.583 89.4494C306.713 89.5901 306.795 89.7673 306.82 89.9567C306.924 90.3713 306.737 90.7175 306.25 91.0528Z" fill="#180C47"/>
<path d="M301.298 89.2965C301.279 89.5392 301.339 89.7815 301.469 89.9874C301.599 90.1933 301.792 90.3519 302.019 90.4396C301.751 90.5298 301.522 90.7086 301.369 90.9465C301.216 91.1845 301.149 91.4673 301.179 91.7485C301.221 91.9485 301.311 92.1356 301.44 92.2942C301.569 92.4528 301.734 92.5784 301.922 92.6608L303.742 87.6738L302.105 88.3445C301.892 88.4057 301.701 88.5288 301.557 88.6982C301.414 88.8676 301.323 89.0758 301.298 89.2965Z" fill="#FF6B32"/>
<path d="M303.639 87.3602L302.013 88.0093C301.771 88.0801 301.552 88.2129 301.378 88.3945C301.203 88.5762 301.08 88.8003 301.019 89.0446C300.958 89.2889 300.962 89.5449 301.031 89.7871C301.099 90.0293 301.23 90.2493 301.41 90.4252C301.211 90.5888 301.056 90.8003 300.961 91.04C300.866 91.2797 300.833 91.5397 300.866 91.7955C300.917 92.0516 301.029 92.2918 301.192 92.4958C301.355 92.6997 301.565 92.8615 301.803 92.9674C301.846 92.9854 301.891 92.9952 301.937 92.9962C302.002 92.9937 302.065 92.9736 302.12 92.9381C302.174 92.9025 302.218 92.8528 302.247 92.7943C302.281 92.7129 302.282 92.6214 302.25 92.5392C302.217 92.457 302.154 92.3907 302.074 92.3544C301.94 92.2941 301.821 92.2039 301.726 92.0909C301.632 91.9778 301.565 91.8447 301.529 91.7017C301.51 91.4954 301.562 91.2887 301.676 91.1157C301.79 90.9426 301.96 90.8136 302.157 90.7498C302.219 90.7251 302.273 90.6821 302.311 90.6265C302.349 90.5708 302.369 90.5051 302.369 90.4378C302.369 90.3706 302.349 90.3049 302.311 90.2492C302.273 90.1936 302.219 90.1506 302.157 90.1259C301.996 90.0653 301.86 89.9548 301.767 89.8107C301.674 89.6666 301.63 89.4965 301.641 89.3254C301.661 89.1656 301.728 89.0152 301.833 88.8932C301.938 88.7713 302.077 88.6833 302.233 88.6403L303.884 87.984C303.925 87.9677 303.962 87.9435 303.994 87.9128C304.026 87.882 304.051 87.8453 304.068 87.8048C304.086 87.7642 304.095 87.7207 304.096 87.6766C304.096 87.6325 304.088 87.5887 304.072 87.5477C304.034 87.4697 303.97 87.4078 303.89 87.3734C303.811 87.339 303.721 87.3343 303.639 87.3602Z" fill="#180C47"/>
<path d="M304.888 89.4265C305.36 89.2317 305.808 89.0334 306.24 88.8315L302.184 90.4109C303.042 90.1476 303.95 89.8159 304.888 89.4265Z" fill="#FF6B32"/>
<path d="M306.094 88.5285C305.665 88.7268 305.217 88.9251 304.756 89.1162C303.89 89.4768 302.993 89.8013 302.077 90.0898C302.002 90.1153 301.939 90.1661 301.898 90.2336C301.857 90.301 301.842 90.3806 301.854 90.4585C301.866 90.5364 301.905 90.6075 301.964 90.6594C302.023 90.7114 302.099 90.7408 302.178 90.7425C302.21 90.7477 302.243 90.7477 302.275 90.7425C303.213 90.4504 304.132 90.1151 305.012 89.7509C305.484 89.5525 305.942 89.3542 306.375 89.1487C306.447 89.1067 306.501 89.0392 306.526 88.9594C306.552 88.8796 306.546 88.7933 306.511 88.7174C306.476 88.6416 306.413 88.5816 306.336 88.5493C306.259 88.517 306.172 88.5147 306.094 88.5429V88.5285Z" fill="#180C47"/>
<path d="M304.786 91.9181C305.37 91.7306 305.922 91.5323 306.441 91.3303L301.938 92.6717C302.9 92.4742 303.852 92.2226 304.786 91.9181Z" fill="#FF6B32"/>
<path d="M306.321 91.0167C305.791 91.2258 305.24 91.4205 304.688 91.6008C303.763 91.8924 302.823 92.1331 301.872 92.322C301.791 92.339 301.719 92.3852 301.67 92.4518C301.622 92.5184 301.599 92.6006 301.607 92.6828C301.615 92.765 301.653 92.8413 301.714 92.8972C301.775 92.953 301.854 92.9845 301.937 92.9855H302.005C302.979 92.7865 303.942 92.5361 304.89 92.2355C305.456 92.0516 306.019 91.8496 306.563 91.6369C306.643 91.6023 306.706 91.5381 306.739 91.4578C306.772 91.3775 306.773 91.2875 306.742 91.2066C306.71 91.1258 306.648 91.0604 306.569 91.0243C306.49 90.9882 306.4 90.9842 306.318 91.0131L306.321 91.0167Z" fill="#180C47"/>
<path d="M260.376 80.1519L255.912 80.2709C256.537 103.957 257.16 127.643 257.78 151.329L270.224 151.145L262.064 144.319L260.376 80.1519Z" fill="#FF6B32"/>
<path d="M250.871 80.188L252.036 144.373L244.186 151.556L256.63 151.365C256.197 127.616 255.765 103.867 255.335 80.1158L250.871 80.188Z" fill="#FF6B32"/>
<path d="M255.566 79.8636C255.499 79.8078 255.416 79.775 255.328 79.7698L250.864 79.8527C250.775 79.8546 250.69 79.8917 250.628 79.9558C250.566 80.02 250.531 80.106 250.532 80.1953L251.701 144.215L243.962 151.297C243.914 151.343 243.88 151.403 243.866 151.468C243.851 151.534 243.856 151.602 243.88 151.665C243.905 151.727 243.947 151.781 244.002 151.82C244.057 151.858 244.122 151.879 244.19 151.881L256.634 151.69C256.723 151.687 256.807 151.651 256.872 151.589C256.932 151.523 256.965 151.436 256.965 151.347L255.671 80.0979C255.668 80.009 255.631 79.9247 255.566 79.8636ZM245.062 151.196L252.256 144.597C252.292 144.565 252.32 144.526 252.339 144.483C252.359 144.439 252.368 144.392 252.368 144.344L251.203 80.5198L254.996 80.4477L256.284 151.03L245.062 151.196Z" fill="#180C47"/>
<path d="M224.564 84.0499C221.44 85.9003 217.889 86.908 214.258 86.9743C214.241 86.9163 214.219 86.8596 214.193 86.8049C213.448 85.6459 213.084 84.2831 213.151 82.9069C213.159 82.7606 213.137 82.6142 213.088 82.4761C213.039 82.338 212.964 82.2109 212.866 82.1021C212.767 81.9933 212.649 81.9048 212.517 81.8418C212.384 81.7789 212.241 81.7425 212.095 81.735C211.948 81.7274 211.802 81.7487 211.664 81.7977C211.526 81.8467 211.399 81.9224 211.29 82.0205C211.07 82.2187 210.938 82.496 210.923 82.7915C210.879 83.6686 210.967 84.5473 211.182 85.3986C211.275 85.7358 211.388 86.067 211.521 86.3902C208.6 86.163 207.555 86.4731 207.273 87.5116C207.216 87.7441 207.218 87.9875 207.281 88.2186C207.345 88.4497 207.466 88.6607 207.634 88.8314C207.39 88.8924 207.171 89.0249 207.003 89.2119C206.835 89.3989 206.727 89.6318 206.693 89.8807C206.588 90.4937 206.88 90.9625 207.414 91.3231C207.231 91.4859 207.104 91.7033 207.054 91.9433C206.801 93.1765 208.002 93.703 211.02 94.691C211.136 94.731 211.258 94.7505 211.381 94.7487C211.614 94.7482 211.841 94.6747 212.031 94.5384C212.22 94.4022 212.362 94.21 212.437 93.9889C212.512 93.7678 212.516 93.5288 212.448 93.3055C212.38 93.0822 212.244 92.8858 212.059 92.7438C212.464 92.6469 212.864 92.5265 213.256 92.3832C213.931 92.1275 214.579 91.8037 215.188 91.4168C219.307 91.2088 223.313 89.9982 226.857 87.8902C234.808 83.116 237.545 75.4751 238.353 72.4101L234.026 71.2742C233.373 73.7984 231.112 80.1195 224.564 84.0499Z" fill="#FF6B32"/>
<path d="M212.43 52.2353L256.277 105.945L300.129 52.2353L256.277 0.501404L212.43 52.2353Z" fill="#FF6B32"/>
<path d="M249.373 36.1745C249.088 36.1411 248.8 36.1692 248.528 36.257C248.255 36.3447 248.005 36.4899 247.793 36.6829C247.694 36.7844 247.636 36.9201 247.633 37.0625C247.63 37.2048 247.681 37.343 247.776 37.4489C247.872 37.5547 248.004 37.6202 248.145 37.632C248.287 37.6438 248.428 37.6009 248.54 37.5123C248.634 37.4287 248.744 37.3651 248.864 37.3254C248.984 37.2858 249.11 37.2708 249.236 37.2815C249.441 37.31 249.63 37.4095 249.769 37.5627C249.871 37.6626 250.007 37.72 250.149 37.7232C250.291 37.7264 250.43 37.6751 250.535 37.5799C250.641 37.4846 250.707 37.3526 250.719 37.2107C250.73 37.0688 250.687 36.9277 250.599 36.8163C250.279 36.4636 249.845 36.2361 249.373 36.1745Z" fill="#180C47"/>
<path d="M262.166 36.1743C261.881 36.1417 261.594 36.1702 261.321 36.2578C261.049 36.3455 260.798 36.4904 260.586 36.6828C260.486 36.7842 260.429 36.92 260.426 37.0624C260.423 37.2047 260.474 37.3429 260.569 37.4488C260.665 37.5546 260.797 37.6201 260.938 37.6319C261.08 37.6436 261.221 37.6008 261.333 37.5121C261.428 37.4294 261.538 37.3664 261.658 37.3268C261.777 37.2871 261.903 37.2717 262.029 37.2814C262.234 37.3099 262.423 37.4094 262.562 37.5626C262.664 37.6625 262.8 37.7199 262.942 37.7231C263.084 37.7263 263.223 37.675 263.328 37.5797C263.434 37.4845 263.5 37.3524 263.511 37.2105C263.523 37.0686 263.48 36.9276 263.392 36.8162C263.072 36.4635 262.638 36.236 262.166 36.1743Z" fill="#180C47"/>
<path d="M255.815 56.8399H255.678C254.71 56.7954 253.785 56.425 253.054 55.7887C252.322 55.1525 251.828 54.2878 251.65 53.335C251.634 53.2468 251.638 53.1562 251.661 53.0697C251.684 52.9831 251.726 52.9026 251.783 52.8338C251.843 52.7633 251.917 52.7064 252 52.6672C252.083 52.628 252.174 52.6073 252.267 52.6066H259.374C259.467 52.6075 259.559 52.6286 259.643 52.6684C259.727 52.7083 259.801 52.7659 259.861 52.8374C259.917 52.9058 259.958 52.9859 259.981 53.0718C260.003 53.1578 260.006 53.2476 259.99 53.335C259.807 54.3119 259.291 55.1951 258.529 55.8342C257.768 56.4732 256.809 56.8286 255.815 56.8399Z" fill="#180C47"/>
<mask id="mask4_125_2573" style="mask-type:luminance" maskUnits="userSpaceOnUse" x="251" y="52" width="9" height="5">
<path d="M255.811 56.8398H255.674C254.706 56.7953 253.781 56.4249 253.05 55.7886C252.319 55.1524 251.824 54.2877 251.646 53.3349C251.631 53.2467 251.634 53.1561 251.657 53.0696C251.681 52.983 251.722 52.9025 251.779 52.8337C251.839 52.7632 251.913 52.7064 251.996 52.6671C252.08 52.6279 252.17 52.6072 252.263 52.6065H259.37C259.463 52.6074 259.555 52.6285 259.639 52.6684C259.723 52.7082 259.797 52.7658 259.857 52.8373C259.913 52.9058 259.954 52.9858 259.977 53.0717C259.999 53.1577 260.002 53.2475 259.986 53.3349C259.803 54.3118 259.287 55.195 258.525 55.8341C257.764 56.4731 256.805 56.8286 255.811 56.8398Z" fill="white"/>
</mask>
<g mask="url(#mask4_125_2573)">
<path d="M255.695 56.5043C256.689 56.5221 257.654 56.1658 258.398 55.506C259.142 54.8462 259.611 53.931 259.712 52.9417H251.938C252.033 53.8872 252.465 54.7668 253.155 55.4207C253.844 56.0745 254.746 56.4591 255.695 56.5043Z" fill="#180C47"/>
<path d="M254.7 54.8346C253.452 55.1699 252.241 56.3202 252.464 56.962C252.883 58.1736 258.515 57.9176 258.764 56.8106C258.926 56.0678 256.824 54.2612 254.7 54.8346Z" fill="#FFC5E1"/>
</g>
<path d="M249.399 49.7145H249.378C248.913 49.7145 248 48.6328 247.827 46.7793L247.16 46.8406C247.358 48.9645 248.473 50.3816 249.385 50.3816H249.454C250.348 50.3131 251.256 48.8131 251.206 46.6856L250.535 46.7036C250.586 48.5138 249.829 49.6821 249.399 49.7145Z" fill="#180C47"/>
<path d="M262.67 49.2529C262.612 49.3247 262.538 49.3825 262.454 49.4218C262.371 49.4612 262.279 49.4811 262.187 49.48C261.105 49.48 260.744 47.8862 260.615 46.5484L259.951 46.6061C260.164 48.9608 260.918 50.1507 262.183 50.1507H262.219C262.397 50.1459 262.572 50.1047 262.733 50.0297C262.894 49.9546 263.039 49.8473 263.157 49.7144C263.73 49.1158 264.033 47.9115 263.993 46.4691H263.323C263.359 47.7492 263.114 48.7913 262.67 49.2529Z" fill="#180C47"/>
<path d="M211.823 90.4396C212.043 90.3591 212.231 90.2113 212.362 90.0171C212.493 89.823 212.559 89.5926 212.551 89.3587C212.543 89.1248 212.461 88.8994 212.318 88.7147C212.174 88.53 211.976 88.3954 211.751 88.3301L210.096 87.6738L211.92 92.6716C212.108 92.5893 212.273 92.4636 212.402 92.305C212.531 92.1464 212.62 91.9594 212.663 91.7593C212.695 91.4764 212.629 91.191 212.476 90.9508C212.324 90.7106 212.093 90.5302 211.823 90.4396Z" fill="#FF6B32"/>
<path d="M212.448 90.4252C212.601 90.2758 212.719 90.0948 212.795 89.8948C212.87 89.6949 212.901 89.4808 212.885 89.2678C212.859 88.9825 212.75 88.7112 212.57 88.4884C212.39 88.2656 212.148 88.1013 211.875 88.0165L210.223 87.3602C210.14 87.3333 210.05 87.3375 209.97 87.372C209.89 87.4065 209.825 87.4689 209.787 87.5477C209.76 87.6308 209.764 87.7209 209.799 87.8011C209.833 87.8814 209.896 87.9464 209.975 87.984L211.655 88.6511C211.805 88.6952 211.938 88.7829 212.039 88.9029C212.139 89.0229 212.201 89.17 212.217 89.3254C212.229 89.4965 212.184 89.6666 212.092 89.8107C211.999 89.9548 211.862 90.0653 211.702 90.126C211.638 90.1492 211.582 90.1916 211.543 90.2474C211.504 90.3032 211.483 90.3697 211.483 90.4379C211.483 90.506 211.504 90.5726 211.543 90.6284C211.582 90.6842 211.638 90.7266 211.702 90.7498C211.898 90.8153 212.066 90.9447 212.18 91.1173C212.294 91.2899 212.346 91.4957 212.329 91.7017C212.294 91.8447 212.227 91.9778 212.132 92.0909C212.038 92.204 211.919 92.2941 211.785 92.3544C211.744 92.3717 211.708 92.3968 211.677 92.4283C211.646 92.4599 211.622 92.4972 211.606 92.5381C211.59 92.5791 211.582 92.6228 211.583 92.6668C211.584 92.7108 211.594 92.7541 211.612 92.7943C211.638 92.8541 211.68 92.9051 211.735 92.9409C211.789 92.9768 211.853 92.996 211.918 92.9963C211.965 92.9957 212.012 92.9859 212.055 92.9674C212.294 92.861 212.503 92.6991 212.666 92.4952C212.829 92.2913 212.941 92.0514 212.993 91.7955C213.025 91.5397 212.992 91.2798 212.897 91.0402C212.802 90.8006 212.647 90.589 212.448 90.4252Z" fill="#180C47"/>
<path d="M208.987 89.4265C209.928 89.8159 210.837 90.1476 211.695 90.4109L207.639 88.8315C208.053 89.0334 208.504 89.2317 208.987 89.4265Z" fill="#FF6B32"/>
<path d="M211.78 90.09C210.868 89.8015 209.977 89.4734 209.101 89.1164C208.636 88.9253 208.188 88.7269 207.763 88.5286C207.682 88.4915 207.59 88.4878 207.506 88.5181C207.422 88.5485 207.354 88.6105 207.316 88.6909C207.279 88.7713 207.275 88.863 207.306 88.946C207.336 89.0291 207.398 89.0968 207.478 89.1344C207.914 89.3399 208.369 89.5383 208.845 89.7366C209.725 90.0972 210.648 90.4361 211.578 90.7282C211.611 90.7335 211.645 90.7335 211.679 90.7282C211.75 90.7279 211.82 90.7051 211.877 90.663C211.935 90.6209 211.978 90.5617 212 90.4938C212.022 90.4111 212.011 90.3233 211.97 90.2482C211.929 90.1732 211.861 90.1166 211.78 90.09Z" fill="#180C47"/>
<path d="M209.077 91.9181C210.012 92.2194 210.963 92.4674 211.926 92.6609L207.422 91.3303C207.941 91.5323 208.493 91.7306 209.077 91.9181Z" fill="#FF6B32"/>
<path d="M211.989 92.333C211.04 92.1441 210.102 91.9033 209.18 91.6118C208.621 91.4315 208.069 91.2512 207.546 91.0276C207.505 91.0113 207.461 91.0032 207.417 91.0038C207.373 91.0043 207.33 91.0136 207.289 91.031C207.207 91.0662 207.143 91.1324 207.11 91.2151C207.077 91.2978 207.078 91.3903 207.113 91.4721C207.148 91.5539 207.215 91.6185 207.297 91.6514C207.838 91.8642 208.401 92.0661 208.974 92.25C209.921 92.5517 210.884 92.802 211.859 93.0001H211.924C212.006 92.999 212.086 92.9676 212.146 92.9117C212.207 92.8559 212.245 92.7796 212.253 92.6974C212.261 92.6152 212.239 92.5329 212.19 92.4664C212.141 92.3998 212.069 92.3536 211.989 92.3366V92.333Z" fill="#180C47"/>
<path d="M259.37 52.2858H252.255C252.113 52.2883 251.973 52.3219 251.844 52.3841C251.716 52.4464 251.603 52.5359 251.513 52.6464C251.424 52.753 251.36 52.8776 251.325 53.0116C251.291 53.1456 251.286 53.2856 251.311 53.4217C251.508 54.4596 252.053 55.3993 252.856 56.0862C253.659 56.773 254.672 57.1661 255.728 57.2007H255.804C256.878 57.1944 257.916 56.8129 258.738 56.1221C259.561 55.4314 260.116 54.4749 260.307 53.4181C260.332 53.2828 260.327 53.1437 260.293 53.0104C260.259 52.8772 260.196 52.753 260.109 52.6464C260.02 52.536 259.907 52.4465 259.779 52.3842C259.652 52.3219 259.512 52.2884 259.37 52.2858ZM255.811 56.5192V56.8545L255.685 56.5192C254.791 56.4753 253.939 56.1309 253.266 55.5418C252.593 54.9527 252.139 54.1535 251.978 53.2738C251.969 53.2347 251.97 53.194 251.98 53.1551C251.99 53.1162 252.009 53.0803 252.035 53.0503C252.063 53.0168 252.098 52.9898 252.137 52.9712C252.176 52.9525 252.219 52.9426 252.263 52.9421H259.37C259.413 52.9426 259.456 52.9525 259.495 52.9712C259.535 52.9898 259.569 53.0168 259.597 53.0503C259.623 53.0813 259.642 53.1178 259.653 53.1571C259.664 53.1963 259.665 53.2374 259.658 53.2775C259.484 54.1749 259.007 54.9852 258.306 55.5727C257.606 56.1602 256.725 56.4893 255.811 56.5047V56.5192Z" fill="#180C47"/>
<path d="M289.874 150.096L280.57 158.389H293.007H293.047L301.048 109.583L296.642 108.862L289.874 150.096Z" fill="#FFB73E"/>
<path d="M311.343 109.807L307.066 111.145L322.035 158.84L322.096 158.819H334.518C331.536 156.161 327.115 152.761 323.942 150.002L311.343 109.807Z" fill="#FFB73E"/>
<path d="M272.613 109.144C266.271 114.67 259.578 119.78 252.575 124.44C251.489 124.105 250.448 123.64 249.474 123.055C248.799 122.629 248.16 122.146 247.566 121.613C247.346 121.416 247.056 121.314 246.761 121.331C246.466 121.348 246.189 121.481 245.992 121.701C245.795 121.922 245.694 122.211 245.71 122.506C245.727 122.802 245.86 123.078 246.081 123.275C246.769 123.891 247.508 124.447 248.291 124.937C248.381 124.995 248.486 125.028 248.576 125.082C248.493 125.064 248.403 125.056 248.32 125.035C247.294 124.778 246.287 124.453 245.305 124.061C245.034 123.967 244.737 123.982 244.475 124.101C244.214 124.221 244.009 124.436 243.902 124.703C243.796 124.969 243.796 125.267 243.902 125.533C244.009 125.8 244.215 126.015 244.476 126.135C245.551 126.561 246.653 126.916 247.775 127.198C248.136 127.292 248.518 127.332 248.886 127.408C248.165 127.408 247.422 127.408 246.694 127.361C246.543 127.34 246.39 127.35 246.243 127.391C246.096 127.431 245.96 127.501 245.841 127.596C245.722 127.692 245.625 127.81 245.553 127.944C245.482 128.079 245.439 128.226 245.427 128.378C245.414 128.529 245.433 128.682 245.482 128.826C245.531 128.97 245.608 129.103 245.71 129.216C245.812 129.329 245.935 129.42 246.073 129.483C246.212 129.547 246.361 129.582 246.513 129.585C247.361 129.654 248.215 129.686 249.066 129.686C249.475 129.701 249.884 129.694 250.292 129.665C252.095 129.549 252.816 129.113 254.713 129.063C254.872 129.063 255.002 129.063 255.074 129.063L256.256 130.721C256.335 130.855 256.441 130.97 256.566 131.06C256.692 131.15 256.835 131.213 256.986 131.245C257.138 131.277 257.294 131.277 257.446 131.245C257.597 131.213 257.74 131.15 257.866 131.06C257.991 130.97 258.097 130.854 258.176 130.721C258.254 130.588 258.304 130.44 258.322 130.286C258.341 130.132 258.327 129.977 258.281 129.829C258.236 129.681 258.16 129.544 258.059 129.427L256.458 127.18C263.113 122.679 269.487 117.778 275.548 112.504C280.214 108.43 284.743 104.085 289.005 99.588L285.76 96.5157C281.599 100.911 277.174 105.163 272.613 109.144Z" fill="#FFB73E"/>
<path d="M364.043 128.688C363.061 129.078 362.054 129.403 361.029 129.661C360.942 129.683 360.856 129.69 360.769 129.712C360.859 129.654 360.964 129.621 361.054 129.564C361.838 129.074 362.579 128.518 363.268 127.901C363.489 127.704 363.622 127.427 363.638 127.131C363.654 126.836 363.552 126.546 363.355 126.326C363.257 126.216 363.139 126.128 363.006 126.064C362.874 126.001 362.731 125.964 362.585 125.956C362.289 125.94 361.999 126.042 361.779 126.239C361.187 126.774 360.55 127.256 359.875 127.681C358.901 128.266 357.86 128.731 356.774 129.066C349.77 124.407 343.076 119.298 336.736 113.77C332.171 109.785 327.746 105.538 323.585 101.149L320.34 104.221C324.598 108.718 329.127 113.063 333.793 117.141C339.848 122.408 346.217 127.303 352.865 131.799L351.264 134.049C351.163 134.167 351.087 134.303 351.042 134.451C350.997 134.599 350.983 134.755 351.001 134.909C351.019 135.062 351.069 135.211 351.148 135.344C351.227 135.477 351.332 135.592 351.458 135.683C351.583 135.773 351.726 135.836 351.878 135.868C352.029 135.9 352.186 135.9 352.337 135.868C352.488 135.836 352.631 135.773 352.757 135.683C352.883 135.593 352.988 135.477 353.067 135.344L354.25 133.685C354.376 133.685 354.61 133.685 354.913 133.685C356.637 133.747 357.286 134.172 359.028 134.287C359.435 134.319 359.845 134.328 360.254 134.313C361.105 134.313 361.963 134.277 362.81 134.208C363.093 134.169 363.35 134.023 363.529 133.801C363.708 133.578 363.795 133.295 363.772 133.011C363.749 132.726 363.617 132.461 363.405 132.27C363.193 132.079 362.915 131.976 362.63 131.983C361.909 132.045 361.169 132.027 360.437 132.03C360.798 131.954 361.184 131.915 361.548 131.825C362.669 131.537 363.77 131.175 364.844 130.743C365.119 130.633 365.339 130.419 365.456 130.147C365.573 129.875 365.577 129.568 365.468 129.293C365.358 129.018 365.144 128.798 364.872 128.681C364.6 128.564 364.293 128.56 364.018 128.669L364.043 128.688Z" fill="#FFB73E"/>
<path d="M349.307 74.5304L318.271 74.1013C317.563 74.0908 316.877 73.8506 316.316 73.417C315.756 72.9833 315.351 72.3794 315.163 71.6961L307.933 45.4343C307.046 42.189 302.463 42.2359 301.616 45.4704L294.584 72.3488C294.4 73.0504 293.988 73.671 293.413 74.1134C292.838 74.5559 292.133 74.7951 291.407 74.7936L260.44 74.6926C257.094 74.6926 255.893 79.1063 258.781 80.7902L283.355 95.1057C284.017 95.4892 284.523 96.0923 284.787 96.8102C285.05 97.5281 285.054 98.3156 284.798 99.0361C281.238 108.988 277.677 118.943 274.117 128.9C272.974 132.091 276.847 134.699 279.374 132.441L302.485 111.783C303.085 111.247 303.861 110.95 304.666 110.95C305.471 110.95 306.248 111.247 306.848 111.783L329.904 132.42C332.428 134.684 336.312 132.059 335.165 128.879C331.598 118.955 328.034 109.032 324.473 99.1082C324.215 98.3874 324.218 97.5988 324.482 96.8799C324.746 96.161 325.253 95.5574 325.916 95.1742L350.919 80.6388C353.775 78.9692 352.625 74.5737 349.307 74.5304Z" fill="#FFB73E"/>
<path d="M302.785 93.227H302.684C301.963 93.1951 301.274 92.9199 300.73 92.4465C300.186 91.973 299.818 91.3292 299.687 90.6199C299.673 90.5435 299.675 90.4647 299.694 90.3893C299.714 90.3139 299.749 90.2437 299.799 90.1836C299.85 90.1216 299.915 90.0716 299.988 90.0374C300.061 90.0031 300.14 89.9853 300.221 89.9853H305.356C305.437 89.9858 305.517 90.0037 305.59 90.0379C305.663 90.0722 305.729 90.1219 305.781 90.1836C305.83 90.2449 305.865 90.3158 305.884 90.3916C305.903 90.4674 305.906 90.5465 305.893 90.6235C305.755 91.3495 305.37 92.0054 304.803 92.4799C304.237 92.9544 303.523 93.2184 302.785 93.227Z" fill="#180C47"/>
<mask id="mask5_125_2573" style="mask-type:luminance" maskUnits="userSpaceOnUse" x="299" y="89" width="7" height="5">
<path d="M302.788 93.2271H302.687C301.967 93.1951 301.278 92.92 300.734 92.4465C300.19 91.9731 299.822 91.3292 299.691 90.62C299.676 90.5435 299.679 90.4648 299.698 90.3894C299.718 90.314 299.753 90.2437 299.803 90.1837C299.854 90.1216 299.919 90.0717 299.992 90.0374C300.064 90.0031 300.144 89.9854 300.225 89.9854H305.359C305.44 89.9858 305.52 90.0038 305.594 90.038C305.667 90.0722 305.733 90.1219 305.785 90.1837C305.834 90.245 305.869 90.3159 305.888 90.3917C305.907 90.4675 305.91 90.5465 305.897 90.6236C305.759 91.3496 305.374 92.0055 304.807 92.48C304.241 92.9545 303.527 93.2184 302.788 93.2271Z" fill="white"/>
</mask>
<g mask="url(#mask5_125_2573)">
<path d="M302.704 92.8881C303.422 92.9043 304.121 92.6484 304.659 92.1717C305.197 91.695 305.536 91.0326 305.606 90.3171H299.988C300.056 91.0005 300.368 91.6366 300.867 92.1088C301.365 92.581 302.017 92.8576 302.704 92.8881Z" fill="#180C47"/>
<path d="M301.982 91.684C301.08 91.9256 300.208 92.7657 300.366 93.2201C300.669 94.0963 304.74 93.9124 304.917 93.1119C305.036 92.5746 303.514 91.2693 301.982 91.684Z" fill="#FFC5E1"/>
</g>
<path d="M307.149 85.4058H307.11C306.334 85.4491 305.692 86.704 305.703 88.1463H306.374C306.374 86.8338 306.915 86.0945 307.146 86.0801C307.369 86.0801 308.04 86.7689 308.137 88.1355L308.804 88.0886C308.696 86.4624 307.867 85.4058 307.149 85.4058Z" fill="#180C47"/>
<path d="M297.891 85.4098C297.75 85.4108 297.611 85.4404 297.482 85.4968C297.353 85.5532 297.237 85.6353 297.141 85.7379C296.705 86.1778 296.456 87.0577 296.463 88.1467H297.137C297.137 87.2596 297.31 86.5168 297.617 86.2139C297.65 86.173 297.692 86.1399 297.739 86.1168C297.787 86.0938 297.838 86.0814 297.891 86.0805C298.612 86.0805 298.836 87.1983 298.904 88.1359L299.571 88.089C299.413 85.8714 298.569 85.4098 297.891 85.4098Z" fill="#180C47"/>
<path d="M305.358 89.6467H300.216C300.088 89.6469 299.962 89.6751 299.845 89.7294C299.729 89.7837 299.626 89.8627 299.544 89.9609C299.461 90.0592 299.401 90.1743 299.368 90.2981C299.335 90.422 299.329 90.5516 299.351 90.678C299.497 91.4628 299.904 92.1752 300.507 92.699C301.109 93.2228 301.871 93.5272 302.668 93.5627H302.78C303.6 93.5582 304.392 93.2674 305.019 92.7406C305.647 92.2138 306.07 91.4841 306.217 90.678C306.241 90.5514 306.237 90.421 306.204 90.2963C306.172 90.1715 306.112 90.0556 306.029 89.9568C305.946 89.8599 305.843 89.7821 305.728 89.7286C305.612 89.675 305.486 89.6471 305.358 89.6467ZM302.787 92.892H302.697C302.053 92.8629 301.437 92.6164 300.951 92.1928C300.464 91.7691 300.136 91.1933 300.018 90.559C300.031 90.6429 300.074 90.719 300.14 90.7719C300.207 90.8249 300.291 90.8507 300.375 90.8443C300.46 90.8379 300.539 90.7997 300.596 90.7374C300.654 90.6751 300.686 90.5933 300.685 90.5085C300.686 90.446 300.668 90.3847 300.635 90.3318H305.362C305.393 90.3319 305.424 90.3387 305.452 90.3517C305.48 90.3648 305.504 90.3839 305.524 90.4075C305.545 90.4296 305.559 90.4561 305.568 90.4849C305.576 90.5137 305.577 90.544 305.571 90.5734C305.442 91.2197 305.095 91.8023 304.589 92.2242C304.082 92.646 303.447 92.8817 302.787 92.892Z" fill="#180C47"/>
<path d="M279.182 157.434L271.97 165.547L241.129 166.124L241.212 170.588L279.222 169.867V169.034C279.2 165.173 279.187 161.307 279.182 157.434Z" fill="#5968FE"/>
<path d="M276.165 174.133C276.106 173.998 276.021 173.877 275.915 173.776C275.809 173.675 275.684 173.595 275.548 173.543C275.411 173.49 275.265 173.464 275.119 173.468C274.972 173.471 274.828 173.503 274.694 173.563C273.835 173.934 272.939 174.213 272.022 174.396C272.256 174.313 272.498 174.244 272.743 174.151C272.879 174.095 273.002 174.014 273.106 173.911C273.21 173.807 273.293 173.685 273.35 173.55C273.407 173.415 273.436 173.27 273.437 173.123C273.438 172.977 273.41 172.831 273.354 172.696C273.299 172.56 273.217 172.437 273.114 172.332C273.011 172.228 272.889 172.145 272.753 172.089C272.618 172.032 272.473 172.002 272.327 172.002C272.18 172.001 272.035 172.029 271.899 172.084C271.017 172.46 270.092 172.724 269.144 172.871C268.333 173.04 267.341 173.022 265.333 172.993H264.915C260.957 164.819 258.98 155.827 259.145 146.746L254.681 146.674C254.508 156.745 256.769 166.709 261.273 175.719C261.092 175.802 260.912 175.914 260.739 175.99C260.027 176.29 259.297 176.546 258.554 176.758C258.298 176.834 258.078 177 257.933 177.225C257.789 177.45 257.73 177.719 257.767 177.984C257.804 178.248 257.935 178.491 258.135 178.668C258.336 178.844 258.593 178.943 258.86 178.946C258.965 178.946 259.07 178.931 259.171 178.903C259.997 178.667 260.808 178.382 261.601 178.049C262.391 177.717 263.161 177.342 263.909 176.924C267.498 178.273 271.333 178.842 275.159 178.593C275.454 178.574 275.73 178.438 275.925 178.215C276.121 177.993 276.22 177.702 276.201 177.407C276.179 177.112 276.042 176.837 275.819 176.642C275.597 176.447 275.307 176.348 275.011 176.365C274.474 176.401 273.929 176.365 273.389 176.365C274.15 176.169 274.896 175.913 275.617 175.6C275.882 175.476 276.089 175.253 276.191 174.978C276.294 174.704 276.284 174.4 276.165 174.133Z" fill="#5968FE"/>
<path d="M271.939 176.354C272.412 176.397 272.887 176.397 273.36 176.354L270.316 175.993C270.843 176.171 271.387 176.292 271.939 176.354Z" fill="#5968FE"/>
<path d="M271.091 174.5C271.404 174.5 271.716 174.465 272.021 174.396L270.236 174.417C270.518 174.473 270.804 174.501 271.091 174.5Z" fill="#5968FE"/>
<path d="M199.09 157.434C199.09 161.323 199.09 165.213 199.09 169.102V169.878L237.1 170.599L237.183 166.135L206.341 165.558L199.09 157.434Z" fill="#5968FE"/>
<path d="M219.148 162.59C218.196 166.169 216.905 169.649 215.293 172.982H214.875C212.873 173.011 211.874 173.029 211.063 172.86C210.116 172.713 209.19 172.449 208.308 172.074C208.172 172.018 208.027 171.99 207.881 171.991C207.734 171.992 207.589 172.021 207.454 172.078C207.319 172.135 207.196 172.218 207.093 172.322C206.99 172.426 206.909 172.549 206.853 172.685C206.798 172.821 206.77 172.966 206.77 173.112C206.771 173.259 206.801 173.404 206.857 173.539C206.914 173.674 206.997 173.797 207.101 173.9C207.205 174.003 207.329 174.084 207.464 174.14C207.695 174.234 207.937 174.302 208.186 174.385C207.268 174.202 206.372 173.923 205.514 173.552C205.38 173.493 205.235 173.461 205.089 173.457C204.942 173.454 204.797 173.479 204.66 173.532C204.523 173.585 204.399 173.664 204.293 173.766C204.187 173.867 204.102 173.988 204.042 174.122C203.983 174.256 203.951 174.4 203.948 174.547C203.944 174.693 203.97 174.839 204.023 174.975C204.075 175.112 204.155 175.237 204.256 175.343C204.357 175.449 204.478 175.534 204.612 175.593C205.334 175.906 206.079 176.162 206.841 176.358C206.296 176.358 205.759 176.379 205.218 176.358C204.923 176.341 204.632 176.44 204.41 176.635C204.187 176.83 204.05 177.105 204.028 177.4C204.009 177.695 204.108 177.986 204.304 178.208C204.499 178.431 204.775 178.567 205.07 178.586C208.896 178.835 212.731 178.265 216.32 176.916C217.068 177.335 217.838 177.71 218.628 178.041C219.421 178.374 220.232 178.66 221.059 178.896C221.16 178.924 221.264 178.939 221.369 178.939C221.636 178.936 221.893 178.837 222.094 178.661C222.294 178.484 222.425 178.241 222.462 177.977C222.499 177.712 222.44 177.443 222.296 177.218C222.152 176.993 221.931 176.827 221.675 176.751C220.932 176.539 220.202 176.282 219.49 175.982C219.306 175.907 219.129 175.795 218.956 175.712C223.456 166.701 225.717 156.737 225.548 146.667L221.084 146.739C221.166 152.086 220.514 157.42 219.148 162.59Z" fill="#5968FE"/>
<path d="M220.914 151.733C220.914 156.812 222.932 161.683 226.523 165.275C230.115 168.866 234.986 170.884 240.065 170.884C245.144 170.884 250.015 168.866 253.607 165.275C257.198 161.683 259.216 156.812 259.216 151.733V94.6335H220.914V151.733Z" fill="#5968FE"/>
<path d="M235.402 135.683C234.825 135.684 234.261 135.856 233.782 136.177C233.303 136.498 232.93 136.953 232.709 137.487C232.489 138.02 232.432 138.606 232.545 139.172C232.658 139.737 232.936 140.257 233.344 140.664C233.752 141.072 234.272 141.35 234.838 141.462C235.403 141.574 235.99 141.516 236.523 141.295C237.055 141.074 237.511 140.7 237.831 140.221C238.152 139.741 238.323 139.177 238.323 138.6C238.323 138.217 238.247 137.837 238.1 137.483C237.953 137.129 237.738 136.807 237.467 136.536C237.196 136.266 236.874 136.051 236.519 135.904C236.165 135.758 235.785 135.683 235.402 135.683Z" fill="white"/>
<path d="M235.401 136.685C235.022 136.685 234.652 136.798 234.337 137.008C234.022 137.218 233.777 137.517 233.632 137.867C233.487 138.217 233.449 138.602 233.523 138.974C233.597 139.345 233.779 139.686 234.047 139.954C234.315 140.222 234.656 140.404 235.028 140.478C235.399 140.552 235.784 140.514 236.134 140.369C236.484 140.224 236.783 139.979 236.993 139.664C237.204 139.349 237.316 138.979 237.316 138.6C237.316 138.092 237.114 137.605 236.755 137.246C236.396 136.887 235.909 136.685 235.401 136.685Z" fill="#180C47"/>
<path d="M244.73 135.683C244.153 135.684 243.59 135.856 243.11 136.177C242.631 136.498 242.258 136.953 242.037 137.487C241.817 138.02 241.76 138.606 241.873 139.172C241.986 139.737 242.264 140.257 242.672 140.664C243.08 141.072 243.6 141.35 244.166 141.462C244.732 141.574 245.318 141.516 245.851 141.295C246.384 141.074 246.839 140.7 247.159 140.221C247.48 139.741 247.651 139.177 247.651 138.6C247.651 138.217 247.575 137.837 247.428 137.483C247.282 137.129 247.066 136.807 246.795 136.536C246.524 136.266 246.202 136.051 245.847 135.904C245.493 135.758 245.113 135.683 244.73 135.683Z" fill="white"/>
<path d="M244.726 136.685C244.347 136.686 243.977 136.799 243.663 137.01C243.348 137.221 243.104 137.52 242.959 137.87C242.815 138.22 242.777 138.605 242.852 138.976C242.926 139.347 243.109 139.688 243.377 139.955C243.644 140.223 243.986 140.405 244.357 140.478C244.728 140.552 245.113 140.514 245.463 140.369C245.812 140.224 246.111 139.978 246.321 139.663C246.532 139.349 246.644 138.979 246.644 138.6C246.644 138.348 246.594 138.099 246.498 137.866C246.401 137.634 246.26 137.423 246.082 137.245C245.904 137.067 245.692 136.926 245.459 136.83C245.227 136.734 244.977 136.685 244.726 136.685Z" fill="#180C47"/>
<path d="M240.056 147.738H239.937C239.098 147.7 238.297 147.38 237.664 146.828C237.03 146.277 236.603 145.527 236.45 144.701C236.434 144.62 236.436 144.536 236.457 144.455C236.477 144.375 236.516 144.3 236.569 144.236C236.624 144.169 236.693 144.114 236.772 144.077C236.85 144.039 236.936 144.02 237.023 144.02H243.096C243.181 144.019 243.266 144.037 243.344 144.073C243.422 144.109 243.491 144.161 243.546 144.227C243.601 144.292 243.641 144.369 243.663 144.452C243.685 144.534 243.688 144.621 243.673 144.705C243.514 145.551 243.066 146.315 242.407 146.868C241.747 147.421 240.917 147.728 240.056 147.738Z" fill="#180C47"/>
<mask id="mask6_125_2573" style="mask-type:luminance" maskUnits="userSpaceOnUse" x="236" y="144" width="8" height="4">
<path d="M240.064 147.737H239.945C239.106 147.7 238.305 147.379 237.671 146.828C237.038 146.277 236.61 145.527 236.458 144.701C236.442 144.62 236.444 144.536 236.465 144.455C236.485 144.375 236.524 144.3 236.577 144.236C236.632 144.168 236.701 144.114 236.78 144.076C236.858 144.039 236.944 144.02 237.031 144.02H243.104C243.189 144.019 243.274 144.037 243.352 144.073C243.43 144.108 243.498 144.161 243.554 144.226C243.609 144.292 243.649 144.369 243.671 144.451C243.693 144.534 243.696 144.621 243.681 144.705C243.521 145.551 243.074 146.315 242.415 146.868C241.755 147.421 240.924 147.728 240.064 147.737Z" fill="white"/>
</mask>
<g mask="url(#mask6_125_2573)">
<path d="M239.958 147.402C240.809 147.419 241.636 147.116 242.273 146.551C242.91 145.986 243.31 145.202 243.395 144.355H236.76C236.838 145.162 237.205 145.914 237.792 146.473C238.379 147.033 239.148 147.362 239.958 147.402Z" fill="#180C47"/>
<path d="M239.114 145.974C238.032 146.262 237.012 147.243 237.203 147.777C237.563 148.812 242.377 148.595 242.587 147.647C242.727 147.027 240.928 145.484 239.114 145.974Z" fill="#FFC5E1"/>
</g>
<path d="M245.989 122.557C245.758 122.389 245.495 122.271 245.217 122.209C244.938 122.147 244.65 122.143 244.37 122.197C243.993 122.284 243.649 122.48 243.382 122.759C243.28 122.867 243.225 123.01 243.229 123.158C243.232 123.306 243.293 123.446 243.4 123.549C243.507 123.651 243.65 123.707 243.798 123.703C243.946 123.7 244.087 123.638 244.189 123.531C244.304 123.408 244.454 123.324 244.618 123.289C244.743 123.263 244.872 123.263 244.996 123.29C245.121 123.318 245.238 123.371 245.34 123.448C245.399 123.496 245.467 123.532 245.54 123.552C245.613 123.573 245.69 123.579 245.766 123.569C245.841 123.559 245.914 123.534 245.979 123.495C246.045 123.455 246.102 123.403 246.146 123.342C246.191 123.28 246.222 123.21 246.239 123.135C246.255 123.061 246.256 122.984 246.242 122.909C246.227 122.834 246.198 122.763 246.155 122.7C246.112 122.637 246.057 122.584 245.992 122.543L245.989 122.557Z" fill="#180C47"/>
<path d="M235.603 124.346C235.317 124.309 235.026 124.336 234.751 124.426C234.477 124.516 234.226 124.666 234.017 124.865C233.957 124.914 233.908 124.974 233.872 125.042C233.837 125.11 233.815 125.184 233.81 125.261C233.805 125.338 233.815 125.415 233.841 125.487C233.866 125.559 233.907 125.626 233.959 125.682C234.011 125.738 234.075 125.783 234.145 125.813C234.216 125.844 234.292 125.859 234.369 125.859C234.445 125.859 234.521 125.843 234.592 125.812C234.662 125.782 234.725 125.737 234.777 125.68C234.869 125.594 234.978 125.529 235.097 125.49C235.216 125.451 235.342 125.438 235.466 125.453C235.672 125.482 235.86 125.581 236 125.734C236.049 125.789 236.108 125.833 236.174 125.865C236.239 125.896 236.311 125.915 236.384 125.919C236.457 125.923 236.53 125.912 236.599 125.888C236.668 125.864 236.732 125.826 236.786 125.778C236.84 125.729 236.885 125.67 236.916 125.604C236.948 125.538 236.966 125.467 236.97 125.394C236.974 125.321 236.964 125.247 236.94 125.178C236.916 125.11 236.878 125.046 236.829 124.992C236.51 124.638 236.076 124.409 235.603 124.346Z" fill="#180C47"/>
<path d="M208.245 176.354C208.797 176.292 209.341 176.171 209.868 175.994L206.824 176.354C207.297 176.397 207.772 176.397 208.245 176.354Z" fill="#5968FE"/>
<path d="M209.101 174.5C209.388 174.501 209.674 174.473 209.955 174.417L208.152 174.396C208.464 174.466 208.782 174.501 209.101 174.5Z" fill="#5968FE"/>
<path d="M243.105 143.684H237.032C236.894 143.683 236.758 143.713 236.633 143.771C236.508 143.83 236.398 143.916 236.311 144.023C236.228 144.122 236.168 144.238 236.134 144.362C236.101 144.487 236.094 144.617 236.116 144.744C236.286 145.646 236.755 146.464 237.449 147.065C238.142 147.666 239.018 148.015 239.935 148.055H240.054C240.994 148.05 241.903 147.717 242.623 147.113C243.343 146.509 243.83 145.673 243.999 144.748C244.023 144.616 244.017 144.48 243.983 144.35C243.948 144.22 243.885 144.099 243.799 143.996C243.713 143.893 243.605 143.81 243.483 143.753C243.361 143.696 243.228 143.666 243.094 143.666L243.105 143.684ZM240.065 147.402H239.957C239.194 147.367 238.466 147.075 237.891 146.573C237.315 146.072 236.926 145.39 236.787 144.64C236.781 144.606 236.782 144.572 236.791 144.539C236.8 144.506 236.816 144.475 236.838 144.449C236.861 144.42 236.891 144.396 236.924 144.38C236.958 144.363 236.995 144.355 237.032 144.355H243.105C243.141 144.355 243.177 144.362 243.21 144.377C243.243 144.392 243.273 144.414 243.296 144.441C243.32 144.469 243.337 144.501 243.347 144.536C243.357 144.571 243.359 144.608 243.353 144.644C243.205 145.411 242.797 146.103 242.198 146.606C241.599 147.108 240.846 147.389 240.065 147.402Z" fill="#180C47"/>
<path d="M345.291 178.131C344.177 177.209 342.863 176.559 341.454 176.231C339.588 168.225 338.23 160.109 337.391 151.931C336.778 145.905 336.446 139.779 336.403 133.725L331.949 133.779C331.992 139.974 332.331 146.241 332.959 152.407C333.79 160.485 335.115 168.506 336.925 176.422C335.434 177.712 334.394 179.444 333.954 181.366C333.921 181.509 333.916 181.657 333.941 181.801C333.965 181.946 334.017 182.084 334.095 182.208C334.173 182.333 334.274 182.44 334.393 182.525C334.513 182.61 334.648 182.671 334.791 182.704C334.873 182.724 334.958 182.734 335.043 182.733C335.295 182.732 335.538 182.646 335.735 182.488C335.931 182.331 336.069 182.112 336.125 181.867C336.298 181.126 336.586 180.417 336.979 179.765C337.077 179.61 337.196 179.469 337.3 179.321C339.149 180.953 340.415 183.143 340.906 185.56C340.957 185.809 341.093 186.034 341.29 186.196C341.487 186.358 341.733 186.448 341.988 186.45C342.064 186.45 342.14 186.443 342.215 186.429C342.505 186.368 342.758 186.195 342.921 185.948C343.083 185.7 343.14 185.399 343.081 185.109C342.775 183.647 342.236 182.245 341.483 180.955C341.769 181.238 342.035 181.541 342.28 181.86C343.046 182.925 343.582 184.136 343.856 185.419C343.909 185.667 344.045 185.889 344.242 186.049C344.439 186.209 344.684 186.297 344.938 186.299C345.018 186.299 345.098 186.291 345.176 186.274C345.465 186.211 345.717 186.035 345.877 185.787C346.037 185.538 346.092 185.236 346.03 184.947C345.592 182.826 344.556 180.875 343.045 179.325C343.33 179.485 343.602 179.668 343.86 179.87C344.664 180.546 345.308 181.392 345.745 182.347C345.87 182.616 346.096 182.825 346.374 182.927C346.652 183.03 346.96 183.017 347.229 182.893C347.498 182.769 347.707 182.543 347.81 182.264C347.912 181.986 347.9 181.678 347.776 181.409C347.2 180.146 346.352 179.027 345.291 178.131Z" fill="#9783FE"/>
<path d="M310.517 151.942C309.678 160.12 308.319 168.237 306.449 176.242C305.071 176.558 303.783 177.187 302.687 178.081C301.591 178.974 300.715 180.108 300.128 181.395C300.021 181.661 300.02 181.958 300.125 182.225C300.231 182.491 300.435 182.707 300.695 182.828C300.956 182.948 301.252 182.964 301.524 182.872C301.796 182.78 302.021 182.587 302.155 182.333C302.595 181.379 303.239 180.534 304.04 179.855C304.3 179.654 304.573 179.472 304.859 179.311C304.481 179.696 304.132 180.109 303.813 180.544C302.871 181.858 302.211 183.352 301.873 184.932C301.811 185.222 301.866 185.524 302.026 185.772C302.187 186.021 302.439 186.196 302.728 186.259C302.806 186.277 302.886 186.285 302.966 186.285C303.219 186.283 303.465 186.195 303.661 186.035C303.858 185.875 303.994 185.653 304.048 185.405C304.323 184.123 304.859 182.911 305.623 181.846C305.867 181.527 306.134 181.226 306.42 180.944C305.669 182.233 305.131 183.634 304.827 185.095C304.767 185.384 304.824 185.686 304.987 185.933C305.149 186.181 305.402 186.354 305.692 186.414C305.767 186.429 305.843 186.436 305.919 186.436C306.174 186.433 306.42 186.343 306.617 186.181C306.814 186.019 306.949 185.795 307.001 185.545C307.488 183.128 308.755 180.936 310.607 179.307C310.711 179.455 310.83 179.592 310.924 179.751C311.319 180.402 311.607 181.111 311.779 181.853C311.835 182.098 311.973 182.316 312.169 182.473C312.366 182.63 312.609 182.717 312.86 182.718C312.945 182.719 313.03 182.71 313.113 182.69C313.401 182.623 313.651 182.444 313.807 182.193C313.964 181.943 314.015 181.64 313.949 181.352C313.511 179.429 312.468 177.696 310.975 176.408C312.786 168.491 314.11 160.471 314.941 152.393C315.565 146.227 315.904 139.96 315.947 133.765L311.483 133.736C311.461 139.79 311.13 145.917 310.517 151.942Z" fill="#9783FE"/>
<path d="M328.485 155.93L324.014 156.172L326.065 194.131L338.661 194.639L330.144 186.732L328.485 155.93Z" fill="#9783FE"/>
<path d="M320.775 156.161L316.315 156.312L317.371 187.287L309.633 194.358L322.059 194.207C322.049 194.184 322.04 194.162 322.034 194.138H322.073L320.775 156.161Z" fill="#9783FE"/>
<path d="M340.791 130.285H308.111C306.266 130.285 304.771 131.78 304.771 133.624V156.922C304.771 158.766 306.266 160.261 308.111 160.261H340.791C342.635 160.261 344.13 158.766 344.13 156.922V133.624C344.13 131.78 342.635 130.285 340.791 130.285Z" fill="#9783FE"/>
<path d="M330.961 144.219C330.976 142.99 329.992 141.982 328.763 141.967C327.535 141.952 326.527 142.936 326.512 144.165C326.497 145.393 327.48 146.402 328.709 146.417C329.938 146.432 330.946 145.448 330.961 144.219Z" fill="white"/>
<mask id="mask7_125_2573" style="mask-type:luminance" maskUnits="userSpaceOnUse" x="326" y="141" width="5" height="6">
<path d="M328.729 146.414C329.957 146.414 330.954 145.418 330.954 144.189C330.954 142.961 329.957 141.964 328.729 141.964C327.5 141.964 326.504 142.961 326.504 144.189C326.504 145.418 327.5 146.414 328.729 146.414Z" fill="white"/>
</mask>
<g mask="url(#mask7_125_2573)">
<path d="M328.164 141.47C327.724 141.47 327.294 141.601 326.928 141.846C326.562 142.09 326.277 142.438 326.108 142.845C325.94 143.251 325.896 143.699 325.982 144.131C326.069 144.562 326.281 144.959 326.592 145.27C326.904 145.581 327.301 145.792 327.732 145.878C328.164 145.963 328.612 145.919 329.018 145.75C329.425 145.581 329.772 145.295 330.016 144.929C330.26 144.562 330.39 144.132 330.389 143.692C330.389 143.4 330.332 143.111 330.22 142.841C330.108 142.571 329.944 142.326 329.737 142.12C329.531 141.913 329.285 141.75 329.015 141.639C328.746 141.527 328.456 141.47 328.164 141.47Z" fill="#180C47"/>
</g>
<path d="M331.01 136.44C330.602 136.147 330.139 135.941 329.648 135.836C329.157 135.73 328.65 135.727 328.158 135.827C327.499 135.984 326.899 136.327 326.43 136.815C326.329 136.924 326.275 137.067 326.28 137.215C326.284 137.364 326.348 137.504 326.456 137.605C326.558 137.705 326.695 137.761 326.838 137.76C326.914 137.76 326.989 137.744 327.058 137.714C327.128 137.683 327.19 137.639 327.242 137.583C327.557 137.253 327.962 137.022 328.406 136.916C328.742 136.852 329.088 136.856 329.422 136.93C329.756 137.003 330.072 137.143 330.35 137.342C330.409 137.388 330.477 137.422 330.549 137.442C330.621 137.461 330.697 137.466 330.771 137.456C330.846 137.446 330.917 137.421 330.982 137.382C331.046 137.344 331.102 137.293 331.146 137.232C331.191 137.172 331.222 137.103 331.239 137.03C331.257 136.957 331.259 136.881 331.246 136.808C331.233 136.734 331.206 136.663 331.165 136.6C331.125 136.537 331.072 136.483 331.01 136.44Z" fill="#180C47"/>
<path d="M318.803 141.964C318.362 141.964 317.932 142.093 317.566 142.337C317.199 142.582 316.914 142.929 316.745 143.335C316.576 143.742 316.531 144.189 316.617 144.621C316.702 145.053 316.914 145.45 317.225 145.761C317.536 146.073 317.932 146.285 318.364 146.371C318.795 146.457 319.243 146.413 319.65 146.245C320.056 146.077 320.404 145.792 320.649 145.426C320.893 145.06 321.024 144.629 321.024 144.189C321.024 143.6 320.79 143.034 320.374 142.617C319.957 142.2 319.392 141.965 318.803 141.964Z" fill="white"/>
<mask id="mask8_125_2573" style="mask-type:luminance" maskUnits="userSpaceOnUse" x="316" y="141" width="6" height="6">
<path d="M318.799 146.414C320.028 146.414 321.024 145.418 321.024 144.189C321.024 142.96 320.028 141.964 318.799 141.964C317.57 141.964 316.574 142.96 316.574 144.189C316.574 145.418 317.57 146.414 318.799 146.414Z" fill="white"/>
</mask>
<g mask="url(#mask8_125_2573)">
<path d="M318.25 141.47C317.81 141.47 317.38 141.601 317.014 141.845C316.648 142.09 316.363 142.438 316.194 142.844C316.026 143.251 315.982 143.699 316.068 144.13C316.155 144.562 316.367 144.958 316.678 145.269C316.99 145.58 317.387 145.792 317.818 145.877C318.25 145.963 318.698 145.918 319.104 145.749C319.511 145.58 319.858 145.295 320.102 144.928C320.346 144.562 320.476 144.132 320.475 143.691C320.474 143.102 320.239 142.537 319.822 142.12C319.405 141.704 318.84 141.47 318.25 141.47Z" fill="#180C47"/>
</g>
<path d="M319.131 135.741C318.632 135.688 318.128 135.74 317.651 135.895C317.174 136.05 316.734 136.303 316.361 136.638C316.307 136.687 316.262 136.747 316.23 136.813C316.198 136.88 316.18 136.952 316.176 137.025C316.173 137.099 316.184 137.172 316.209 137.241C316.234 137.31 316.272 137.374 316.322 137.428C316.422 137.537 316.561 137.603 316.708 137.61C316.856 137.618 317.001 137.566 317.111 137.468C317.368 137.242 317.667 137.071 317.991 136.965C318.315 136.858 318.657 136.818 318.997 136.848C319.553 136.926 320.063 137.196 320.44 137.612C320.492 137.671 320.557 137.718 320.629 137.751C320.701 137.783 320.779 137.8 320.858 137.8C320.991 137.798 321.119 137.748 321.219 137.659C321.273 137.611 321.318 137.552 321.35 137.486C321.382 137.42 321.401 137.349 321.405 137.276C321.41 137.203 321.4 137.129 321.376 137.06C321.352 136.991 321.314 136.927 321.265 136.873C320.711 136.254 319.954 135.852 319.131 135.741Z" fill="#180C47"/>
<path d="M323.572 148.203C323.331 148.203 323.096 148.274 322.895 148.408C322.695 148.542 322.539 148.732 322.446 148.955C322.354 149.178 322.33 149.423 322.377 149.659C322.424 149.896 322.54 150.113 322.71 150.283C322.881 150.454 323.098 150.57 323.335 150.617C323.571 150.664 323.816 150.64 324.039 150.548C324.261 150.455 324.452 150.299 324.586 150.099C324.72 149.898 324.791 149.663 324.791 149.422C324.791 149.098 324.663 148.788 324.434 148.56C324.206 148.331 323.896 148.203 323.572 148.203ZM323.572 149.966C323.464 149.966 323.358 149.934 323.267 149.873C323.177 149.813 323.107 149.727 323.066 149.627C323.024 149.527 323.014 149.416 323.035 149.31C323.056 149.203 323.109 149.106 323.186 149.029C323.263 148.953 323.361 148.901 323.468 148.88C323.574 148.859 323.684 148.871 323.785 148.913C323.885 148.955 323.97 149.026 324.03 149.116C324.09 149.207 324.121 149.313 324.12 149.422C324.119 149.565 324.06 149.703 323.957 149.803C323.854 149.904 323.716 149.96 323.572 149.959V149.966Z" fill="#180C47"/>
</svg>
