<svg width="70" height="70" viewBox="0 0 70 70" fill="none" xmlns="http://www.w3.org/2000/svg">
<path d="M63.6487 19.5342L51.9699 32.2077C51.9562 32.2213 51.9398 32.235 51.9234 32.2514C49.9737 34.1737 47.4335 35.1334 44.8933 35.1334C43.3784 35.1334 41.8609 34.7916 40.4691 34.1081L30.4584 44.1188L31.1939 44.8543L13.1304 62.9206C12.4003 63.6507 11.4707 64.0636 10.5163 64.1538C10.3796 64.1675 10.2429 64.173 10.1035 64.173C10.0351 64.173 9.96674 64.1702 9.89838 64.1675C9.48822 64.1484 9.08078 64.0691 8.68703 63.9323C8.6214 63.9105 8.55578 63.8859 8.49289 63.8585C7.97883 63.648 7.49483 63.3363 7.07651 62.9179C6.65815 62.4995 6.34641 62.0182 6.13585 61.5015C6.11124 61.4386 6.0839 61.373 6.06202 61.3073C5.9253 60.9163 5.84601 60.5089 5.82686 60.096C5.81593 59.8909 5.82139 59.6858 5.84054 59.4808C5.93077 58.5264 6.34366 57.5968 7.07373 56.8667L25.1372 38.8032L25.8728 39.5387L35.8835 29.528C34.0433 25.7846 34.6776 21.1336 37.7921 18.0193L37.7976 18.0248L50.469 6.3544C50.86 5.96338 51.2975 5.82666 51.6776 5.82666C52.0522 5.82666 52.3694 5.96065 52.5252 6.1165L39.2091 19.4305L39.2119 19.4332L52.5231 6.11714C52.8348 6.42885 53.0617 7.39408 52.2852 8.17066L40.6148 20.8365L43.4832 23.7048L56.149 12.0344C56.54 11.6434 56.9775 11.5067 57.3576 11.5067C57.7322 11.5067 58.0494 11.6407 58.2052 11.7966L44.8891 25.1106L44.8918 25.1133L58.2059 11.7993C58.5176 12.111 58.7445 13.0762 57.968 13.8528L46.2948 26.5158L49.1659 29.3869L61.8317 17.7165C62.2227 17.3255 62.6602 17.1888 63.0403 17.1888C63.4149 17.1888 63.7321 17.3228 63.8879 17.4786L50.5718 30.7926L50.5746 30.7954L63.8886 17.4814C64.2003 17.7931 64.4272 18.7583 63.6507 19.5349L63.6487 19.5342ZM43.1548 38.8059L42.4165 39.5441L40.3821 37.5098L35.8048 42.0872L37.8391 44.1215L37.1035 44.8571L55.167 62.9206C56.8377 64.5913 59.5475 64.5913 61.2182 62.9206C62.8889 61.2499 62.8889 58.5401 61.2182 56.8694L43.1548 38.8059ZM25.8487 36.2602L32.4905 29.6184L30.4533 27.5812L17.4403 14.5654C16.106 13.2311 12.2969 10.3244 10.67 11.7955L10.6673 11.7982C7.82079 14.6529 11.6817 23.1319 19.2941 30.7444C21.4569 32.9101 23.694 34.7699 25.8487 36.2602Z" fill="#FF6B32"/>
</svg>
