<svg width="70" height="70" viewBox="0 0 70 70" fill="none" xmlns="http://www.w3.org/2000/svg">
<path d="M30.8719 14.35C32.4824 14.7 33.743 16.0289 34.093 17.5711C34.1641 17.9922 34.5824 18.2712 35.0036 18.2712C35.4246 18.2712 35.7747 17.9922 35.9141 17.5711C36.2641 15.9606 37.593 14.7 39.1352 14.35C39.5563 14.2789 39.8352 13.8606 39.8352 13.4395C39.8352 13.0184 39.5563 12.6683 39.1352 12.5289C37.5247 12.1078 36.2641 10.9183 35.9141 9.30779C35.843 8.8867 35.4247 8.60779 35.0036 8.60779C34.5825 8.60779 34.2324 8.8867 34.093 9.30779C33.6719 10.9183 32.4824 12.1789 30.8719 12.5289C30.4508 12.6 30.1719 13.0184 30.1719 13.4395C30.1719 13.8606 30.4508 14.2789 30.8719 14.35Z" fill="#0C826A"/>
<path d="M20.2996 23.2394C21.6996 23.5894 22.7496 24.6394 23.0996 26.0394C23.1707 26.4605 23.5207 26.6683 23.939 26.6683C24.3601 26.6683 24.7102 26.3894 24.7785 26.0394C25.1285 24.6394 26.1785 23.5894 27.5785 23.2394C27.9996 23.1683 28.2074 22.8183 28.2074 22.3999C28.2074 21.9788 27.9285 21.6288 27.5785 21.5605C26.1785 21.2105 25.1285 20.1605 24.7785 18.7605C24.7074 18.3394 24.3574 18.1316 23.939 18.1316C23.518 18.1316 23.1679 18.4105 23.0996 18.7605C22.7496 20.1605 21.6996 21.2105 20.2996 21.5605C19.8785 21.7 19.5996 22.05 19.5996 22.3999C19.5996 22.821 19.8785 23.1711 20.2996 23.2394Z" fill="#0C826A"/>
<path d="M42.4219 23.2394C43.8219 23.5894 44.8719 24.6394 45.2219 26.0394C45.293 26.4605 45.643 26.6683 46.0613 26.6683C46.4824 26.6683 46.8325 26.3894 46.9008 26.0394C47.2508 24.6394 48.3008 23.5894 49.7008 23.2394C50.1219 23.1683 50.3297 22.8183 50.3297 22.3999C50.3297 21.9788 50.0508 21.6288 49.7008 21.5605C48.3008 21.2105 47.2508 20.1605 46.9008 18.7605C46.8297 18.3394 46.4797 18.1316 46.0613 18.1316C45.6402 18.1316 45.2902 18.4105 45.2219 18.7605C44.8719 20.1605 43.8219 21.2105 42.4219 21.5605C42.0008 21.6316 41.793 21.9816 41.793 22.3999C41.7903 22.821 42.0719 23.1711 42.4219 23.2394Z" fill="#0C826A"/>
<path d="M33.3895 39.0607C34.0184 40.1819 34.5789 41.3002 35 42.5607C35.4211 41.3713 35.9789 40.1819 36.6106 39.0607C37.9395 36.8213 39.55 34.9319 41.3711 33.3213C40.0423 28.7713 37.45 24.9927 35.7 22.7499C35.35 22.2604 34.5789 22.2604 34.2289 22.7499C32.4789 24.921 29.8895 28.771 28.6289 33.2499C30.3789 34.9288 32.0605 36.8213 33.3895 39.0607Z" fill="#0C826A"/>
<path d="M67.4108 43.8215C63.5607 43.2609 56.2821 42.7715 50.3321 46.2004C47.811 47.6715 45.5033 49.8398 43.5427 52.6398C43.0532 53.2687 42.2138 53.4793 41.5138 52.9898C40.8849 52.5004 40.6744 51.6609 41.1638 50.9609C43.3349 47.8109 45.9927 45.3609 48.8638 43.6823C50.4744 42.7718 52.1533 42.0718 53.8349 41.5823C54.7455 37.3112 54.3955 33.1109 54.0455 30.5216C53.9744 29.8927 53.3455 29.5428 52.7849 29.7505C49.2138 31.1505 42.6349 34.44 39.2063 40.3898C37.7352 42.9109 36.8274 45.9898 36.5458 49.3505C36.4747 50.1216 35.8458 50.6794 35.0746 50.6794C34.3035 50.6794 33.6746 50.1188 33.6035 49.3505C33.3246 45.9216 32.4141 42.9111 30.943 40.3898C27.5141 34.4398 20.9323 31.1505 17.293 29.7505C16.7324 29.54 16.1035 29.89 16.0324 30.5216C15.6113 33.1111 15.3324 37.3111 16.243 41.5823C17.9218 42.0718 19.6035 42.7035 21.2141 43.6823C24.1535 45.3612 26.743 47.8112 28.9141 50.9609C29.4035 51.5898 29.193 52.5004 28.5641 52.9898C27.9352 53.4793 27.0246 53.2687 26.5352 52.6398C24.5746 49.8398 22.2641 47.6687 19.7458 46.2004C13.7246 42.7715 6.44575 43.1898 2.59575 43.8215C1.96685 43.8926 1.61687 44.5215 1.82463 45.0821C3.22463 48.6532 6.51407 55.232 12.4639 58.6606C14.1428 59.6395 16.0351 60.3395 18.0639 60.8318C19.6034 61.1818 21.3534 61.3212 23.3139 61.3212H46.7639C48.7245 61.3212 50.4745 61.1818 52.0139 60.8318C54.0428 60.3423 55.9351 59.6423 57.6139 58.6606C63.5639 55.2318 66.8532 48.65 68.2532 45.0107C68.39 44.5212 68.0396 43.8898 67.4108 43.8215Z" fill="#0C826A"/>
</svg>
