<svg width="70" height="70" viewBox="0 0 70 70" fill="none" xmlns="http://www.w3.org/2000/svg">
<path fill-rule="evenodd" clip-rule="evenodd" d="M31.5415 4.68129C33.7864 3.93208 36.2146 3.93208 38.4595 4.68129L55.4184 10.3332C60.2063 11.9301 63.2794 16.5895 62.8615 21.6179L60.8791 45.3962C60.592 48.8334 58.7025 51.9341 55.7767 53.7633L40.7981 63.123C37.2516 65.3406 32.7509 65.3406 29.2047 63.123L14.2282 53.7633C11.3024 51.934 9.41026 48.8332 9.12312 45.3962L7.14345 21.6179C6.72509 16.5894 9.79855 11.9299 14.5838 10.3332L31.5415 4.68129ZM44.7981 30.7129C45.6513 29.8597 45.6513 28.4735 44.7981 27.6203C43.9422 26.7644 42.5587 26.7644 41.7028 27.6203L34.7192 34.6039L30.377 31.7191C29.3708 31.052 28.0145 31.3254 27.3446 32.3316C26.6774 33.3379 26.9509 34.6969 27.9571 35.364L33.7895 39.2387C34.6563 39.8156 35.8102 39.7008 36.5485 38.9625L44.7981 30.7129Z" fill="#FFB73E"/>
</svg>
