<svg width="70" height="70" viewBox="0 0 70 70" fill="none" xmlns="http://www.w3.org/2000/svg">
<path d="M18.6072 20.8606L16.1572 26.704H21.0463L18.6072 20.8606Z" fill="#5968FE"/>
<path d="M11.2107 45.1856H26.1319C26.739 43.1677 27.0534 41.0568 27.0534 38.9212V30.1957C27.0534 25.9492 30.5179 22.4845 34.7646 22.4845H42.172C42.2896 22.1345 42.4291 21.7845 42.5794 21.4454C42.8939 20.7099 43.2439 19.988 43.6294 19.2743C43.665 19.1923 43.7115 19.1102 43.7689 19.0282C43.9193 18.7356 44.0833 18.4458 44.2693 18.1641C44.4798 17.8141 44.7013 17.4641 44.9447 17.1251C45.1662 16.786 45.4123 16.4497 45.6693 16.1215C45.9154 15.7961 46.1697 15.468 46.4514 15.1645C46.9764 14.5356 47.5478 13.9286 48.1549 13.3434L49.1228 12.411C49.4619 12.0856 49.5767 11.5715 49.3908 11.1286C49.2158 10.6965 48.7947 10.4039 48.3162 10.4039L11.2106 10.4067C8.23555 10.4067 5.83203 12.8211 5.83203 15.7852V39.8064C5.83203 42.7705 8.23555 45.1849 11.2106 45.1849L11.2107 45.1856ZM11.4787 31.8499L13.3326 27.4175L17.5217 17.3851C17.7076 16.9531 18.1287 16.6742 18.6072 16.6742C19.0748 16.6742 19.4931 16.9531 19.6819 17.3851L25.7357 31.8527C25.9818 32.4488 25.7002 33.1351 25.1068 33.3813C24.9564 33.4387 24.8033 33.4742 24.6529 33.4742C24.199 33.4742 23.767 33.2063 23.5783 32.7496L22.0279 29.039H15.1783L13.6279 32.7496C13.3818 33.3457 12.6955 33.6246 12.0994 33.3785C11.5033 33.1324 11.2244 32.4461 11.4787 31.8499Z" fill="#5968FE"/>
<path d="M46.7712 44.8462C48.7782 42.3852 50.1536 39.7958 50.9138 38.1962H42.6426C43.3891 39.7958 44.7751 42.3852 46.7712 44.8462Z" fill="#5968FE"/>
<path d="M64.1671 54.2143V30.1931C64.1671 27.229 61.7527 24.8146 58.7886 24.8146H34.7674C31.8033 24.8146 29.3889 27.229 29.3889 30.1931V38.9186C29.3889 45.5686 26.6353 52.0324 21.8394 56.6398L20.8605 57.5859C20.5214 57.9113 20.4066 58.4144 20.5925 58.8574C20.7675 59.3004 21.1996 59.593 21.6672 59.593H58.7917C61.7503 59.593 64.1671 57.1784 64.1671 54.2143ZM55.975 51.0999C56.6039 51.2393 57.0004 51.8573 56.8609 52.4889C56.7434 53.0385 56.2648 53.4104 55.7289 53.4104C55.6469 53.4104 55.5648 53.3995 55.4719 53.3749C51.9609 52.6175 49.0789 50.646 46.7681 48.3573C44.4684 50.6432 41.5755 52.6147 38.0643 53.3749C37.9822 53.3995 37.9002 53.4104 37.8182 53.4104C37.2822 53.4104 36.7928 53.0358 36.6752 52.4889C36.5357 51.86 36.9322 51.2393 37.5611 51.0999C40.5935 50.4354 43.1256 48.6854 45.1792 46.621C42.3901 43.296 40.7222 39.7386 40.0687 38.1965H35.3683C34.7148 38.1965 34.2007 37.6824 34.2007 37.0289C34.2007 36.3863 34.7148 35.8613 35.3683 35.8613H45.6002V32.1616C45.6002 31.5191 46.1252 30.994 46.7678 30.994C47.4104 30.994 47.9354 31.519 47.9354 32.1616V35.8613H58.1785C58.8211 35.8613 59.3461 36.3863 59.3461 37.0289C59.3461 37.6824 58.8211 38.1965 58.1785 38.1965H53.4781C52.8246 39.7359 51.1457 43.2961 48.3676 46.621C50.4102 48.6854 52.9427 50.4354 55.975 51.0999Z" fill="#5968FE"/>
</svg>
