<svg width="57" height="50" viewBox="0 0 57 50" fill="none" xmlns="http://www.w3.org/2000/svg">
<path d="M4.5338 26.4261L28.1103 50L51.6842 26.4261C57.7293 20.381 57.7293 10.579 51.6817 4.53378C45.6367 -1.51126 35.8366 -1.51126 29.7895 4.53378L29.0734 5.25231C34.1006 11.5943 33.6915 20.8625 27.8335 26.7205L27.826 26.7155C27.7013 26.8577 27.5166 26.95 27.3121 26.95C26.9328 26.95 26.626 26.6432 26.626 26.2639C26.626 26.0569 26.7183 25.8747 26.863 25.75L26.8605 25.7475C32.2244 20.3836 32.5937 11.8886 27.9757 6.08808L26.4239 4.53626C20.3788 -1.50878 10.5787 -1.50878 4.5316 4.53626C-1.51095 10.5763 -1.51125 20.379 4.5338 26.4261ZM6.14048 13.7047H13.1635V6.67913H17.5245V13.7021H24.5475V18.0632H17.5245V25.0862H13.1635V18.0632H6.14048V13.7047Z" fill="#FF0016"/>
</svg>
