<svg width="252" height="87" viewBox="0 0 252 87" fill="none" xmlns="http://www.w3.org/2000/svg">
<path d="M104.794 28.6294V35.2151H102.877C98.0661 35.2151 95.593 32.8319 95.593 28.2109V21.7185C95.593 19.1486 93.957 17.4226 91.4839 17.4226C88.8205 17.4226 87.0012 19.197 87.0012 21.8119V35.2151H80.1837V21.7185C80.1837 19.1486 78.5477 17.4226 76.0746 17.4226C73.4112 17.4226 71.5919 19.197 71.5919 21.8119V35.2151H64.7744V11.3973H71.5919V13.9188C73.3213 11.9092 75.6076 10.8369 78.3643 10.8369C81.7748 10.8369 84.4347 12.3796 85.8839 14.9461C87.7068 12.2378 90.4151 10.8369 93.7771 10.8369C98.962 10.8369 102.417 14.3408 102.417 19.664V26.7166C102.417 27.9307 103.12 28.6328 104.334 28.6328H104.801L104.794 28.6294Z" fill="black"/>
<path d="M106.102 4.15757C106.102 1.7744 107.924 0 110.304 0C112.684 0 114.555 1.7744 114.555 4.15757C114.555 6.54074 112.732 8.36011 110.304 8.36011C107.876 8.36011 106.102 6.5857 106.102 4.15757ZM106.894 11.397H113.711V35.2148H106.894V11.397Z" fill="black"/>
<path d="M143.602 28.6294V35.2151H141.686C136.875 35.2151 134.402 32.8319 134.402 28.2109V22.1855C134.402 19.2904 132.579 17.4226 129.826 17.4226C126.882 17.4226 124.876 19.3388 124.876 22.2789V35.2151H118.059V11.3973H124.876V14.0122C126.699 11.9092 129.172 10.8369 132.115 10.8369C137.58 10.8369 141.223 14.4341 141.223 19.8992V26.7166C141.223 27.9307 141.925 28.6328 143.139 28.6328H143.606L143.602 28.6294Z" fill="black"/>
<path d="M144.91 4.15757C144.91 1.7744 146.733 0 149.113 0C151.492 0 153.364 1.7744 153.364 4.15757C153.364 6.54074 151.541 8.36011 149.113 8.36011C146.685 8.36011 144.91 6.5857 144.91 4.15757ZM145.706 11.397H152.523V35.2148H145.706V11.397Z" fill="black"/>
<path d="M170.879 11.0234V18.0277C166.254 18.0277 163.688 20.4108 163.688 24.098V35.2148H156.87V11.397H163.688V14.759C165.51 12.4243 167.983 11.0234 170.879 11.0234Z" fill="black"/>
<path d="M197.357 25.4986H179.142C179.889 28.162 181.992 29.843 184.887 29.843C187.129 29.843 188.997 28.9091 189.885 27.6466H197.17C195.395 32.4579 190.633 35.7715 184.746 35.7715C177.368 35.7715 171.854 30.3999 171.854 23.3023C171.854 16.2046 177.364 10.833 184.697 10.833C192.03 10.833 197.54 16.1562 197.54 23.3957C197.54 24.001 197.492 24.9383 197.353 25.4986H197.357ZM179.187 20.9675H190.211C189.508 18.3526 187.316 16.7166 184.701 16.7166C182.086 16.7166 179.983 18.3526 179.191 20.9675H179.187Z" fill="black"/>
<path d="M225.848 28.6294V35.2151H223.931C219.12 35.2151 216.647 32.8319 216.647 28.2109V22.1855C216.647 19.2904 214.824 17.4226 212.071 17.4226C209.127 17.4226 207.121 19.3388 207.121 22.2789V35.2151H200.304V11.3973H207.121V14.0122C208.944 11.9092 211.417 10.8369 214.361 10.8369C219.826 10.8369 223.468 14.4341 223.468 19.8992V26.7166C223.468 27.9307 224.17 28.6328 225.384 28.6328H225.851L225.848 28.6294Z" fill="black"/>
<path d="M250.181 28.6294H251.581V35.2151H249.385C245.041 35.2151 240.696 34.0944 238.455 29.4699L237.708 28.2558C236.729 28.3942 235.702 28.536 234.626 28.5844V35.2151H227.809V1.58789H234.626V14.4307C237.196 12.2343 240.371 10.8335 243.685 10.8335C248.448 10.8335 251.578 13.6836 251.578 17.8377C251.578 21.3865 249.288 24.2816 245.227 26.1978C246.348 27.7854 248.078 28.6259 250.177 28.6259L250.181 28.6294ZM234.63 23.026C240.748 22.3239 244.671 20.7362 244.671 18.6367C244.671 17.7028 243.83 17.0491 242.381 17.0491C239.904 17.0491 236.684 18.8235 234.63 21.2066V23.0295V23.026Z" fill="black"/>
<path d="M28.9543 44.9995C28.9543 44.9995 28.7156 44.5637 28.2383 43.8996C25.2118 39.6867 20.3002 37.2344 15.1153 37.2344H3.14066C1.40776 37.2344 0 35.8301 0 34.0937V10.3105C0 8.56027 1.4216 7.13867 3.17179 7.13867H18.3424C18.3424 7.13867 18.4669 7.14213 18.6849 7.16288C24.5027 7.66788 28.9543 12.576 28.9543 18.4146V44.9995Z" fill="#0068C7"/>
<path d="M28.9541 44.9995C28.9541 44.9995 29.1928 44.5637 29.6701 43.8996C32.6966 39.6867 37.6082 37.2344 42.7931 37.2344H54.7297C56.4868 37.2344 57.9084 35.8128 57.9084 34.0557V10.3278C57.9084 8.56719 56.4799 7.13867 54.7193 7.13867H39.5659C39.5659 7.13867 39.4483 7.14213 39.2304 7.16288C33.4057 7.66442 28.9541 12.5795 28.9541 18.4284V44.9995Z" fill="#FF0016"/>
<path d="M143.632 67.384C138.576 67.384 134.8 63.704 134.8 58.84C134.8 53.976 138.576 50.296 143.632 50.296C148.656 50.296 152.464 53.976 152.464 58.84C152.464 63.704 148.656 67.384 143.632 67.384ZM143.632 62.36C145.616 62.36 147.12 60.856 147.12 58.84C147.12 56.824 145.616 55.32 143.632 55.32C141.616 55.32 140.112 56.824 140.112 58.84C140.112 60.856 141.616 62.36 143.632 62.36ZM167.683 60.952C168.387 61.624 169.379 61.976 170.595 61.976H171.619V67H169.987C166.755 67 163.619 66.232 162.019 62.84L161.891 62.616C161.347 62.68 160.771 62.744 160.195 62.776V67H155.011V43.96H160.195V52.44C161.859 51.128 163.907 50.296 166.019 50.296C169.379 50.296 171.619 52.344 171.619 55.32C171.619 57.688 170.179 59.64 167.683 60.952ZM160.195 57.496V58.552C163.875 58.136 166.371 57.144 166.371 55.896C166.371 55.384 165.891 55.032 164.995 55.032C163.491 55.032 161.475 56.056 160.195 57.496ZM190.554 61.976H190.874V67H189.466C187.066 67 185.466 66.232 184.698 64.696C183.482 66.456 181.754 67.384 179.642 67.384C176.09 67.384 173.722 64.984 173.722 61.304V50.68H178.906V59.736C178.906 61.336 179.898 62.36 181.402 62.36C183.034 62.36 184.122 61.304 184.122 59.672V50.68H189.306V60.76C189.306 61.56 189.754 61.976 190.554 61.976ZM199.024 67C195.056 67 193.072 65.208 193.072 61.688V43.96H198.256V60.824C198.256 61.752 198.8 62.264 199.824 62.264H200.816V67H199.024ZM208.68 67C204.712 67 202.728 65.208 202.728 61.688V43.96H207.912V60.824C207.912 61.752 208.456 62.264 209.48 62.264H210.472V67H208.68ZM230.272 61.976H230.592V67H229.184C226.848 67 225.28 66.264 224.48 64.76C223.264 66.392 221.504 67.384 219.328 67.384C214.88 67.384 211.52 63.704 211.52 58.84C211.52 53.976 214.88 50.296 219.328 50.296C221.152 50.296 222.72 51 223.872 52.184V50.68H229.056V60.76C229.056 61.56 229.472 61.976 230.272 61.976ZM220.352 62.36C222.368 62.36 223.872 60.856 223.872 58.84C223.872 56.824 222.368 55.32 220.352 55.32C218.336 55.32 216.864 56.824 216.864 58.84C216.864 60.856 218.336 62.36 220.352 62.36ZM237.975 52.792C239.191 51.288 240.791 50.424 242.647 50.424V55.768C239.607 55.768 237.975 57.24 237.975 59.544V67H232.791V50.68H237.975V52.792ZM244.853 67V50.68H250.037V67H244.853Z" fill="#0068C7"/>
</svg>
