<svg width="105" height="110" viewBox="0 0 105 110" fill="none" xmlns="http://www.w3.org/2000/svg">
<path d="M104.153 81.7227L94.798 92.2242L54.8787 92.9728L54.9844 98.7495L104.187 97.8284L104.167 96.7543L104.153 81.7227Z" fill="#5968FE"/>
<path d="M104.309 81.3156C104.226 81.2856 104.136 81.2809 104.05 81.3022C103.964 81.3235 103.887 81.3698 103.828 81.4353L94.6116 91.795L54.8787 92.5379C54.7638 92.5408 54.6546 92.5889 54.575 92.6717C54.4953 92.7545 54.4514 92.8654 54.4529 92.9803L54.5614 98.7598C54.5645 98.874 54.6113 98.9826 54.6922 99.0631C54.7746 99.1403 54.8827 99.1839 54.9955 99.1856L104.198 98.2617C104.255 98.2607 104.311 98.2484 104.363 98.2255C104.415 98.2027 104.463 98.1698 104.502 98.1287C104.542 98.0876 104.573 98.0392 104.594 97.9861C104.614 97.933 104.625 97.8763 104.623 97.8193L104.579 81.7219C104.579 81.6352 104.553 81.5504 104.505 81.4782C104.457 81.406 104.389 81.3494 104.309 81.3156ZM55.4213 98.3118L55.3267 93.4005L94.8175 92.6603C94.877 92.6588 94.9355 92.6451 94.9896 92.6202C95.0436 92.5954 95.0921 92.5598 95.132 92.5157L103.722 82.8628L103.744 96.7564L103.758 97.3964L55.4213 98.3118Z" fill="white"/>
<path d="M100.238 103.337C100.083 102.987 99.7947 102.713 99.4373 102.574C99.08 102.436 98.6825 102.445 98.3319 102.6C97.2213 103.081 96.0628 103.443 94.8758 103.679C95.1792 103.571 95.4908 103.485 95.7885 103.362C95.967 103.293 96.1298 103.188 96.2675 103.055C96.4053 102.922 96.5151 102.763 96.5908 102.587C96.6664 102.411 96.7062 102.222 96.708 102.03C96.7098 101.839 96.6734 101.649 96.6011 101.471C96.5288 101.294 96.4219 101.133 96.2866 100.997C96.1514 100.861 95.9905 100.754 95.8134 100.681C95.6363 100.608 95.4464 100.571 95.2549 100.572C95.0633 100.574 94.874 100.613 94.6978 100.688C93.3065 101.258 93.0282 101.311 91.1332 101.704C90.0814 101.924 88.7875 101.901 86.1969 101.86H85.657C80.5301 91.2789 77.9676 79.6393 78.1774 67.8838L72.4007 67.792C72.1785 80.8255 75.1062 93.7199 80.935 105.38C80.6984 105.485 80.4786 105.63 80.2421 105.727C79.3193 106.115 78.3743 106.448 77.4122 106.724C77.076 106.82 76.7861 107.034 76.5963 107.328C76.4064 107.621 76.3295 107.974 76.3798 108.32C76.4301 108.666 76.6042 108.982 76.8698 109.209C77.1354 109.437 77.4744 109.56 77.824 109.556C77.9595 109.557 78.0945 109.538 78.2247 109.501C79.294 109.19 80.3448 108.818 81.3718 108.388C82.3896 107.96 83.3827 107.476 84.3464 106.938C88.9909 108.687 93.9555 109.425 98.9079 109.1C99.0971 109.087 99.2821 109.038 99.4523 108.954C99.6224 108.87 99.7743 108.753 99.8994 108.611C100.024 108.468 100.12 108.302 100.181 108.123C100.242 107.943 100.267 107.753 100.255 107.564C100.242 107.375 100.193 107.19 100.109 107.019C100.025 106.849 99.9082 106.697 99.7656 106.572C99.6229 106.447 99.4571 106.352 99.2774 106.291C99.0978 106.23 98.9079 106.205 98.7186 106.217C98.0174 106.264 97.3273 106.237 96.6178 106.237C97.6023 105.98 98.566 105.648 99.5006 105.246C99.6743 105.169 99.8312 105.059 99.9623 104.921C100.093 104.784 100.196 104.622 100.265 104.444C100.333 104.267 100.366 104.078 100.361 103.888C100.357 103.698 100.315 103.511 100.238 103.337Z" fill="#5968FE"/>
<path d="M100.669 104.599C100.759 104.368 100.802 104.123 100.797 103.876C100.791 103.629 100.736 103.386 100.636 103.16C100.43 102.708 100.055 102.354 99.5916 102.175C99.1279 101.997 98.6125 102.008 98.1567 102.205C97.7921 102.364 97.4109 102.514 97.0158 102.651C97.1677 102.216 97.1558 101.741 96.9824 101.315C96.8893 101.087 96.752 100.879 96.5784 100.704C96.4049 100.528 96.1985 100.389 95.971 100.294C95.7436 100.198 95.4996 100.149 95.2529 100.148C95.0063 100.147 94.7619 100.195 94.5337 100.288C93.1897 100.845 92.9114 100.892 91.0415 101.282C90.0481 101.488 88.7793 101.474 86.2026 101.426H85.9243C80.9041 90.9689 78.3981 79.4828 78.606 67.8847C78.6063 67.7685 78.5614 67.6568 78.4808 67.573C78.4005 67.4917 78.2918 67.4448 78.1775 67.4423L72.398 67.3477C72.2841 67.3484 72.1749 67.3936 72.0938 67.4736C72.0127 67.5537 71.9661 67.6622 71.9639 67.7762C71.7424 80.7375 74.6176 93.5646 80.3507 105.191C80.2617 105.245 80.1686 105.291 80.0725 105.33C79.1656 105.713 78.2364 106.04 77.2898 106.31C76.8477 106.431 76.4651 106.709 76.2138 107.092C75.9626 107.475 75.8602 107.937 75.9259 108.391C75.9915 108.844 76.2208 109.258 76.5704 109.555C76.92 109.851 77.3659 110.009 77.8241 110C77.9992 110 78.1735 109.976 78.3417 109.927C79.4283 109.619 80.4959 109.247 81.5389 108.814C82.5156 108.402 83.4696 107.937 84.3966 107.423C86.5466 108.216 88.7682 108.799 91.0304 109.165C93.6432 109.586 96.2951 109.71 98.9358 109.535C99.1824 109.52 99.4236 109.457 99.6453 109.348C99.867 109.239 100.065 109.087 100.227 108.9C100.389 108.715 100.513 108.499 100.592 108.266C100.671 108.032 100.703 107.786 100.686 107.54C100.671 107.294 100.607 107.055 100.498 106.834C100.389 106.614 100.237 106.418 100.052 106.257C99.8183 106.05 99.5372 105.905 99.2335 105.834L99.676 105.648C99.903 105.547 100.108 105.403 100.278 105.223C100.449 105.043 100.582 104.831 100.669 104.599ZM99.3254 104.849C98.4111 105.246 97.4678 105.572 96.5038 105.826C96.4035 105.854 96.3169 105.918 96.2598 106.005C96.2026 106.092 96.1788 106.197 96.1927 106.301C96.2065 106.404 96.2571 106.499 96.3352 106.568C96.4133 106.637 96.5136 106.676 96.6179 106.677H97.1522C97.6892 106.677 98.2207 106.677 98.7466 106.649C99.0121 106.649 99.2699 106.738 99.4784 106.903C99.5788 106.989 99.661 107.094 99.7202 107.213C99.7795 107.331 99.8146 107.46 99.8235 107.593C99.8322 107.726 99.8146 107.859 99.7716 107.985C99.7286 108.111 99.6611 108.227 99.573 108.327C99.4863 108.428 99.3804 108.51 99.2613 108.569C99.1423 108.627 99.0127 108.662 98.8801 108.669C96.308 108.832 93.7257 108.709 91.1807 108.302C88.9008 107.937 86.6635 107.343 84.5024 106.53C84.4429 106.509 84.3799 106.501 84.3173 106.506C84.2546 106.511 84.1936 106.528 84.1379 106.557C82.2253 107.63 80.1954 108.479 78.0885 109.087C77.8321 109.146 77.5628 109.108 77.3329 108.98C77.103 108.852 76.929 108.643 76.8446 108.394C76.7699 108.135 76.7999 107.857 76.9281 107.62C76.9921 107.505 77.0784 107.403 77.182 107.321C77.2857 107.238 77.4046 107.178 77.5319 107.142C78.5115 106.863 79.4732 106.524 80.4119 106.129C80.5511 106.071 80.6902 105.998 80.821 105.926C80.9518 105.853 81.013 105.823 81.1132 105.776C81.1664 105.752 81.2143 105.718 81.254 105.675C81.2936 105.633 81.3243 105.583 81.3441 105.528C81.3632 105.472 81.3711 105.413 81.3673 105.355C81.3634 105.296 81.348 105.238 81.3219 105.186C75.5889 93.7154 72.6728 81.0438 72.8154 68.2214L77.7267 68.2993C77.5847 79.9776 80.1626 91.5287 85.2565 102.039C85.2893 102.109 85.3411 102.169 85.4059 102.211C85.4707 102.254 85.5462 102.278 85.6238 102.281C85.7518 102.281 85.9466 102.281 86.2248 102.281C88.8154 102.32 90.1205 102.342 91.2836 102.1C93.1034 101.721 93.4318 101.655 94.8509 101.076C95.099 100.975 95.3764 100.975 95.6245 101.076C95.8091 101.153 95.9668 101.282 96.0777 101.449C96.1886 101.615 96.2478 101.811 96.2478 102.011C96.2478 102.211 96.1886 102.406 96.0777 102.573C95.9668 102.739 95.8091 102.869 95.6245 102.946C95.4436 103.021 95.26 103.079 95.068 103.138L94.7229 103.255C94.6183 103.29 94.5312 103.365 94.4795 103.462C94.4278 103.56 94.4153 103.674 94.4447 103.78C94.4723 103.888 94.5408 103.98 94.6354 104.037C94.7301 104.094 94.8434 104.112 94.9511 104.087C96.1672 103.843 97.3538 103.47 98.4906 102.973C98.6129 102.914 98.7461 102.879 98.8821 102.872C99.0181 102.865 99.1541 102.885 99.2821 102.932C99.41 102.978 99.5273 103.05 99.6268 103.143C99.7263 103.236 99.8061 103.348 99.8613 103.473C99.9166 103.597 99.9461 103.732 99.9482 103.868C99.9503 104.004 99.925 104.139 99.8736 104.265C99.8223 104.391 99.7461 104.506 99.6495 104.602C99.5529 104.698 99.4379 104.773 99.3114 104.824L99.3254 104.849Z" fill="white"/>
<path d="M94.7785 106.212C95.3896 106.276 96.0053 106.283 96.6178 106.234L92.6776 105.77C93.3602 105.991 94.0645 106.14 94.7785 106.212Z" fill="#5968FE"/>
<path d="M96.5844 105.806C95.9976 105.849 95.4082 105.84 94.823 105.78C94.1385 105.71 93.4633 105.569 92.8084 105.358C92.7535 105.339 92.6957 105.332 92.638 105.336C92.5804 105.34 92.5241 105.356 92.4725 105.381C92.4208 105.407 92.3747 105.443 92.3368 105.487C92.299 105.53 92.2701 105.581 92.2518 105.636C92.2336 105.691 92.2263 105.748 92.2304 105.806C92.2345 105.864 92.2499 105.92 92.2757 105.972C92.3015 106.023 92.3373 106.069 92.3809 106.107C92.4246 106.145 92.4753 106.174 92.5301 106.192C93.2423 106.421 93.9761 106.577 94.72 106.657C95.0817 106.693 95.4463 106.71 95.8108 106.71C96.0891 106.71 96.3673 106.71 96.6456 106.679C96.7025 106.675 96.7581 106.66 96.809 106.634C96.8599 106.608 96.9052 106.572 96.9422 106.529C96.9793 106.485 97.0073 106.435 97.0247 106.38C97.042 106.326 97.0484 106.269 97.0435 106.212C97.0349 106.098 96.9822 105.991 96.8964 105.915C96.8107 105.84 96.6987 105.8 96.5844 105.806Z" fill="white"/>
<path d="M93.685 103.816C94.0904 103.814 94.4944 103.769 94.8899 103.68L92.5803 103.705C92.9439 103.779 93.314 103.816 93.685 103.816Z" fill="#5968FE"/>
<path d="M94.798 103.257C94.4326 103.339 94.0594 103.381 93.685 103.383C93.344 103.381 93.0039 103.348 92.6693 103.282C92.6137 103.269 92.5559 103.268 92.4997 103.278C92.4435 103.288 92.3899 103.31 92.3422 103.341C92.2946 103.373 92.2538 103.414 92.2225 103.461C92.1912 103.509 92.1699 103.563 92.1601 103.619C92.1479 103.674 92.1469 103.732 92.1572 103.788C92.1674 103.843 92.1888 103.897 92.2199 103.944C92.251 103.991 92.2912 104.032 92.3383 104.064C92.3854 104.095 92.4383 104.117 92.494 104.128C92.8746 104.209 93.2625 104.25 93.6516 104.251C94.1013 104.259 94.5502 104.21 94.9872 104.103C95.094 104.076 95.186 104.008 95.2441 103.914C95.3021 103.82 95.3217 103.708 95.2989 103.6C95.2747 103.489 95.2094 103.393 95.1163 103.329C95.0232 103.265 94.9094 103.24 94.798 103.257Z" fill="white"/>
<path d="M0.467234 81.7227V96.8267L0.447754 97.8284L49.6499 98.7495L49.7557 92.9728L9.8363 92.2242L0.467234 81.7227Z" fill="#5968FE"/>
<path d="M49.7504 92.5388L10.0202 91.7958L0.804194 81.4361C0.74638 81.3705 0.670103 81.3239 0.585354 81.3024C0.500606 81.2809 0.411333 81.2855 0.329231 81.3155C0.247129 81.3456 0.176026 81.3998 0.125227 81.471C0.0744279 81.5421 0.0463017 81.627 0.0445371 81.7144L0.0194946 96.8101L1.84947e-05 97.8118C-0.00102097 97.9263 0.0417903 98.0368 0.119669 98.1207C0.200332 98.2035 0.310198 98.2514 0.425758 98.2542L49.6252 99.1781C49.738 99.1764 49.8461 99.1327 49.9285 99.0556C50.0093 98.975 50.0561 98.8665 50.0592 98.7523L50.1678 92.9728C50.1672 92.8608 50.1235 92.7532 50.0458 92.6724C49.9681 92.5916 49.8623 92.5438 49.7504 92.5388ZM49.2078 98.3127L0.87654 97.4055L0.90993 82.8636L9.49986 92.5165C9.53976 92.5606 9.58819 92.5962 9.64224 92.6211C9.69629 92.646 9.75482 92.6596 9.81429 92.6612L49.3024 93.4014L49.2078 98.3127Z" fill="white"/>
<path d="M28.9224 67.8731C29.0345 74.7972 28.1965 81.704 26.4319 88.4004C25.1989 93.0312 23.5283 97.5343 21.4427 101.849H20.9029C18.3122 101.891 17.0072 101.913 15.9665 101.693C14.0799 101.301 13.8016 101.248 12.402 100.677C12.0474 100.532 11.6497 100.534 11.2964 100.682C10.9431 100.83 10.6632 101.113 10.5181 101.468C10.3731 101.822 10.3749 102.22 10.5231 102.573C10.6713 102.926 10.9538 103.206 11.3084 103.351C11.6089 103.474 11.9178 103.56 12.2239 103.669C11.0361 103.432 9.87674 103.07 8.7651 102.589C8.59152 102.512 8.40457 102.471 8.21491 102.466C8.02526 102.462 7.83661 102.495 7.65974 102.564C7.48287 102.632 7.32125 102.735 7.1841 102.866C7.04694 102.997 6.93695 103.154 6.8604 103.328C6.78384 103.501 6.74222 103.688 6.73792 103.878C6.73362 104.068 6.76671 104.256 6.83531 104.433C6.90392 104.61 7.00668 104.772 7.13775 104.909C7.26881 105.046 7.42561 105.156 7.59918 105.232C8.53431 105.639 9.49893 105.974 10.4848 106.234C9.78353 106.234 9.09344 106.262 8.38388 106.215C8.0016 106.19 7.62501 106.317 7.33695 106.57C7.04889 106.823 6.87297 107.179 6.84787 107.561C6.82278 107.944 6.95058 108.32 7.20315 108.608C7.45572 108.896 7.81238 109.072 8.19466 109.098C13.1459 109.423 18.1095 108.686 22.7533 106.938C23.7213 107.481 24.7191 107.968 25.7418 108.399C26.7688 108.83 27.8196 109.201 28.889 109.512C29.0192 109.55 29.1541 109.568 29.2896 109.568C29.6453 109.578 29.9922 109.457 30.2638 109.227C30.5355 108.997 30.7128 108.675 30.7618 108.323C30.8107 107.971 30.7279 107.613 30.5291 107.317C30.3304 107.022 30.0297 106.811 29.6848 106.724C28.7225 106.448 27.7775 106.116 26.8549 105.728C26.6183 105.63 26.3957 105.486 26.162 105.38C28.631 100.423 30.5889 95.2284 32.0055 89.8752C33.9076 82.6682 34.8102 75.234 34.6879 67.7812L28.9224 67.8731Z" fill="#5968FE"/>
<path d="M35.0024 67.4699C34.9217 67.3899 34.8127 67.3449 34.6991 67.3447L28.9224 67.4393C28.8077 67.4422 28.6987 67.4898 28.6186 67.572C28.5386 67.6541 28.4938 67.7643 28.4938 67.879C28.6045 74.766 27.7683 81.6356 26.009 88.295C24.81 92.8154 23.188 97.2128 21.1644 101.429H20.85C18.3122 101.471 17.0517 101.49 15.9665 101.262C14.1801 100.889 13.9074 100.833 12.5662 100.288C12.1053 100.1 11.5884 100.102 11.1293 100.295C10.6701 100.487 10.3062 100.854 10.1174 101.315C9.94074 101.741 9.92982 102.217 10.0868 102.651C9.68893 102.514 9.30771 102.372 8.93762 102.203C8.48218 102.006 7.96782 101.997 7.50553 102.176C7.04325 102.356 6.67011 102.71 6.46666 103.163C6.36629 103.388 6.31166 103.631 6.30592 103.877C6.30019 104.124 6.34348 104.369 6.43327 104.598C6.51993 104.829 6.65201 105.04 6.82169 105.219C6.99137 105.398 7.1952 105.541 7.4211 105.639L7.86353 105.828C7.47073 105.92 7.11762 106.135 6.85614 106.442C6.59467 106.749 6.43864 107.132 6.41101 107.534C6.37973 108.031 6.54668 108.52 6.87527 108.894C7.20387 109.268 7.66732 109.496 8.16406 109.529C10.8045 109.705 13.4563 109.582 16.0695 109.165C18.3404 108.796 20.5704 108.209 22.7283 107.412C23.6556 107.925 24.6095 108.39 25.586 108.803C26.627 109.234 27.6917 109.606 28.7749 109.916C28.9456 109.967 29.1228 109.992 29.3008 109.991C29.7537 109.991 30.1911 109.827 30.5327 109.529C30.8742 109.232 31.0968 108.821 31.1595 108.373C31.2222 107.924 31.1207 107.468 30.8737 107.089C30.6268 106.709 30.251 106.431 29.8156 106.307C28.8694 106.036 27.9402 105.709 27.033 105.327C26.937 105.288 26.844 105.241 26.7547 105.188C29.1513 100.321 31.0584 95.2282 32.4479 89.9841C34.3584 82.7386 35.2665 75.2654 35.1471 67.7733C35.1406 67.6571 35.0886 67.5481 35.0024 67.4699ZM31.5964 89.7642C30.1892 95.0885 28.2434 100.256 25.7891 105.186C25.763 105.238 25.7475 105.296 25.7437 105.354C25.7399 105.413 25.7478 105.472 25.7669 105.528C25.7871 105.582 25.8179 105.632 25.8576 105.675C25.8972 105.717 25.9449 105.751 25.9978 105.775C26.1008 105.823 26.1954 105.873 26.2928 105.926C26.4251 106.001 26.5617 106.069 26.7018 106.129C27.64 106.523 28.6007 106.861 29.5791 107.142C29.7071 107.178 29.8266 107.239 29.9304 107.322C30.0341 107.405 30.12 107.509 30.1829 107.626C30.2488 107.741 30.2905 107.868 30.3053 108C30.3202 108.131 30.3079 108.264 30.2691 108.391C30.1892 108.645 30.0146 108.859 29.7816 108.988C29.5485 109.117 29.2747 109.151 29.017 109.084C27.9646 108.78 26.9305 108.416 25.9199 107.993C24.9116 107.572 23.9286 107.093 22.9759 106.557C22.9114 106.521 22.8386 106.502 22.7644 106.502C22.7131 106.503 22.6624 106.512 22.6142 106.53C18.0264 108.257 13.1227 108.986 8.23084 108.667C8.09837 108.659 7.96885 108.624 7.84986 108.565C7.73088 108.507 7.62484 108.425 7.53797 108.324C7.44998 108.224 7.38257 108.108 7.3396 107.982C7.29662 107.856 7.27893 107.723 7.28753 107.59C7.30895 107.335 7.42455 107.097 7.61181 106.922C7.79906 106.748 8.04454 106.65 8.3004 106.646H8.36162C8.8931 106.685 9.41902 106.671 9.95606 106.674H10.4848C10.5888 106.672 10.6887 106.633 10.7663 106.564C10.8439 106.495 10.894 106.4 10.9075 106.296C10.921 106.193 10.897 106.089 10.8398 106.002C10.7826 105.915 10.6961 105.851 10.5961 105.823C9.63248 105.57 8.68928 105.246 7.77449 104.852C7.53101 104.743 7.34006 104.543 7.24301 104.295C7.1946 104.172 7.17114 104.04 7.174 103.908C7.17687 103.776 7.206 103.645 7.25971 103.524C7.36941 103.28 7.57052 103.089 7.81978 102.992C8.06904 102.894 8.34653 102.899 8.59258 103.004C9.73097 103.501 10.9195 103.874 12.1376 104.117C12.245 104.142 12.3579 104.124 12.4521 104.067C12.5463 104.01 12.6143 103.918 12.6413 103.811C12.672 103.704 12.6602 103.59 12.6083 103.492C12.5564 103.394 12.4685 103.32 12.363 103.285L12.0124 103.165C11.8288 103.107 11.6479 103.048 11.4698 102.976C11.2219 102.875 11.0242 102.68 10.9199 102.433C10.8156 102.186 10.8132 101.908 10.9133 101.66C11.0163 101.413 11.2122 101.216 11.4589 101.112C11.7056 101.008 11.9833 101.005 12.2322 101.103C13.6458 101.679 13.9742 101.746 15.8719 102.141C16.9655 102.369 18.2705 102.344 20.9001 102.308C21.1338 102.308 21.3286 102.308 21.4566 102.308C21.5345 102.306 21.6103 102.282 21.6755 102.239C21.7408 102.196 21.7931 102.137 21.8267 102.066C23.9203 97.725 25.5974 93.195 26.8354 88.5371C28.5687 81.9424 29.411 75.1453 29.3398 68.327L34.2483 68.2491C34.3347 75.5074 33.4427 82.7442 31.5964 89.7642Z" fill="white"/>
<path d="M28.722 74.3426C28.722 80.9174 31.3339 87.2229 35.983 91.872C40.632 96.5211 46.9376 99.1329 53.5124 99.1329C60.0871 99.1329 66.3927 96.5211 71.0417 91.872C75.6908 87.2229 78.3027 80.9174 78.3027 74.3426V0.433594H28.722V74.3426Z" fill="#5968FE"/>
<path d="M78.2998 0H28.722C28.6069 0 28.4964 0.0457329 28.415 0.12714C28.3336 0.208547 28.2879 0.31896 28.2879 0.434087V74.3431C28.2529 77.6777 28.8794 80.9862 30.1313 84.0771C31.3831 87.168 33.2355 89.98 35.5811 92.3505C37.9268 94.7209 40.7192 96.6026 43.7968 97.8869C46.8744 99.1712 50.1761 99.8324 53.5109 99.8324C56.8457 99.8324 60.1474 99.1712 63.225 97.8869C66.3026 96.6026 69.095 94.7209 71.4407 92.3505C73.7863 89.98 75.6386 87.168 76.8905 84.0771C78.1424 80.9862 78.7689 77.6777 78.7339 74.3431V0.434087C78.7339 0.31896 78.6882 0.208547 78.6067 0.12714C78.5253 0.0457329 78.4149 0 78.2998 0ZM77.8657 74.3431C77.6995 80.6902 75.0613 86.7215 70.5134 91.1519C65.9654 95.5823 59.8671 98.0617 53.5178 98.0617C47.1686 98.0617 41.0703 95.5823 36.5223 91.1519C31.9743 86.7215 29.3362 80.6902 29.17 74.3431V0.882088H77.8657V74.3431Z" fill="white"/>
<path d="M47.4768 53.5654C46.7293 53.5649 45.9984 53.786 45.3766 54.2009C44.7548 54.6158 44.2701 55.2058 43.9836 55.8962C43.6972 56.5866 43.622 57.3465 43.7675 58.0797C43.913 58.8129 44.2726 59.4865 44.801 60.0152C45.3294 60.544 46.0027 60.9042 46.7358 61.0502C47.4688 61.1962 48.2288 61.1216 48.9194 60.8356C49.6101 60.5497 50.2004 60.0654 50.6157 59.4439C51.0311 58.8224 51.2528 58.0917 51.2528 57.3442C51.2528 56.3425 50.855 55.3818 50.147 54.6732C49.4389 53.9646 48.4785 53.5662 47.4768 53.5654Z" fill="white"/>
<path d="M47.4769 54.8643C46.9865 54.8643 46.5072 55.0097 46.0994 55.2821C45.6917 55.5545 45.3739 55.9417 45.1863 56.3948C44.9986 56.8478 44.9495 57.3463 45.0452 57.8273C45.1409 58.3082 45.377 58.75 45.7237 59.0967C46.0705 59.4434 46.5122 59.6796 46.9932 59.7752C47.4741 59.8709 47.9726 59.8218 48.4257 59.6342C48.8787 59.4465 49.2659 59.1287 49.5383 58.721C49.8108 58.3133 49.9562 57.8339 49.9562 57.3436C49.9562 56.686 49.695 56.0554 49.23 55.5904C48.765 55.1255 48.1344 54.8643 47.4769 54.8643Z" fill="#180C47"/>
<path d="M59.5479 53.5654C58.8004 53.5649 58.0696 53.786 57.4478 54.2009C56.826 54.6158 56.3412 55.2058 56.0548 55.8962C55.7684 56.5866 55.6931 57.3465 55.8386 58.0797C55.9841 58.8129 56.3438 59.4865 56.8722 60.0152C57.4005 60.544 58.0738 60.9042 58.8069 61.0502C59.54 61.1962 60.2999 61.1216 60.9906 60.8356C61.6812 60.5497 62.2716 60.0654 62.6869 59.4439C63.1022 58.8224 63.3239 58.0917 63.3239 57.3442C63.3239 56.3425 62.9262 55.3818 62.2181 54.6732C61.5101 53.9646 60.5496 53.5662 59.5479 53.5654Z" fill="white"/>
<path d="M59.5479 54.8643C59.0576 54.8643 58.5782 55.0097 58.1705 55.2821C57.7628 55.5545 57.445 55.9417 57.2573 56.3948C57.0697 56.8478 57.0206 57.3463 57.1162 57.8273C57.2119 58.3082 57.448 58.75 57.7948 59.0967C58.1415 59.4434 58.5833 59.6796 59.0642 59.7752C59.5452 59.8709 60.0437 59.8218 60.4967 59.6342C60.9497 59.4465 61.337 59.1287 61.6094 58.721C61.8818 58.3133 62.0272 57.8339 62.0272 57.3436C62.0272 56.686 61.766 56.0554 61.3011 55.5904C60.8361 55.1255 60.2055 54.8643 59.5479 54.8643Z" fill="#180C47"/>
<path d="M53.504 69.1697H53.3537C52.2673 69.1219 51.2291 68.7074 50.4084 67.9939C49.5878 67.2804 49.0331 66.3099 48.8347 65.2406C48.8152 65.135 48.8193 65.0263 48.8468 64.9224C48.8742 64.8185 48.9242 64.7219 48.9933 64.6396C49.0643 64.5524 49.1538 64.4821 49.2554 64.434C49.357 64.3858 49.468 64.361 49.5805 64.3613H57.4414C57.5536 64.3618 57.6644 64.387 57.7659 64.4351C57.8674 64.4831 57.957 64.553 58.0285 64.6396C58.0978 64.7235 58.1479 64.8215 58.1753 64.9267C58.2027 65.032 58.2067 65.142 58.1871 65.249C57.9805 66.3433 57.4009 67.3322 56.5469 68.0471C55.693 68.7621 54.6176 69.1588 53.504 69.1697Z" fill="#180C47"/>
<mask id="mask0_42_2118" style="mask-type:luminance" maskUnits="userSpaceOnUse" x="48" y="64" width="11" height="6">
<path d="M53.504 69.1697H53.3537C52.2673 69.1219 51.2291 68.7074 50.4084 67.9939C49.5878 67.2804 49.0331 66.3099 48.8347 65.2406C48.8152 65.135 48.8193 65.0263 48.8468 64.9224C48.8742 64.8185 48.9242 64.7219 48.9933 64.6396C49.0643 64.5524 49.1538 64.4821 49.2554 64.434C49.357 64.3858 49.468 64.361 49.5805 64.3613H57.4414C57.5536 64.3618 57.6644 64.387 57.7659 64.4351C57.8674 64.4831 57.957 64.553 58.0285 64.6396C58.0978 64.7235 58.1479 64.8215 58.1753 64.9267C58.2027 65.032 58.2067 65.142 58.1871 65.249C57.9805 66.3433 57.4009 67.3322 56.5469 68.0471C55.693 68.7621 54.6176 69.1588 53.504 69.1697Z" fill="white"/>
</mask>
<g mask="url(#mask0_42_2118)">
<path d="M53.3675 68.7351C54.4694 68.7595 55.5399 68.3673 56.3653 67.6369C57.1906 66.9065 57.71 65.8916 57.8197 64.7949H49.2103C49.3131 65.842 49.7901 66.8169 50.5537 67.5407C51.3174 68.2645 52.3164 68.6886 53.3675 68.7351Z" fill="#180C47"/>
<path d="M52.2685 66.8868C50.8771 67.2597 49.5471 68.5313 49.7947 69.2409C50.2594 70.5821 56.4897 70.3011 56.7512 69.0739C56.9544 68.2586 54.617 66.2552 52.2685 66.8868Z" fill="#FFC5E1"/>
</g>
<path d="M61.1839 36.5772C60.8838 36.3633 60.543 36.2134 60.1825 36.1368C59.8221 36.0602 59.4497 36.0586 59.0886 36.132C58.6004 36.2423 58.1559 36.4951 57.8114 36.8582C57.6916 36.9987 57.63 37.1798 57.6394 37.3642C57.6487 37.5486 57.7282 37.7225 57.8616 37.8502C57.995 37.978 58.1722 38.0498 58.3569 38.0511C58.5415 38.0524 58.7197 37.983 58.8549 37.8572C59.0045 37.6987 59.1985 37.5891 59.4114 37.5427C59.5721 37.5066 59.7388 37.5065 59.8996 37.5426C60.0603 37.5787 60.211 37.65 60.3408 37.7514C60.4171 37.8171 60.5062 37.8661 60.6025 37.8954C60.6989 37.9246 60.8002 37.9334 60.9001 37.9213C61 37.9091 61.0963 37.8763 61.1828 37.8248C61.2693 37.7733 61.3441 37.7043 61.4024 37.6223C61.4607 37.5402 61.5013 37.4469 61.5215 37.3483C61.5417 37.2497 61.5411 37.148 61.5198 37.0496C61.4984 36.9513 61.4568 36.8584 61.3975 36.7771C61.3383 36.6957 61.2627 36.6276 61.1756 36.5772H61.1839Z" fill="#180C47"/>
<path d="M47.7301 38.8931C47.3593 38.8461 46.9827 38.8821 46.6275 38.9986C46.2723 39.115 45.9475 39.309 45.6765 39.5665C45.6068 39.631 45.5505 39.7087 45.511 39.7952C45.4715 39.8817 45.4495 39.9751 45.4464 40.0701C45.4433 40.1651 45.4591 40.2598 45.4929 40.3486C45.5266 40.4375 45.5777 40.5187 45.6432 40.5877C45.7747 40.7266 45.9557 40.8081 46.1469 40.8143C46.3381 40.8206 46.5241 40.7511 46.6644 40.6211C46.7824 40.5101 46.9232 40.4262 47.077 40.3752C47.2308 40.3243 47.3939 40.3075 47.5548 40.3261C47.8201 40.3641 48.064 40.4929 48.2449 40.6906C48.3726 40.8331 48.5516 40.919 48.7426 40.9294C48.9336 40.9398 49.1209 40.874 49.2633 40.7463C49.4058 40.6186 49.4916 40.4396 49.5021 40.2486C49.5125 40.0576 49.4467 39.8703 49.319 39.7278C48.9059 39.269 48.3424 38.9729 47.7301 38.8931Z" fill="#180C47"/>
<path d="M12.3214 106.212C13.0354 106.14 13.7397 105.991 14.4223 105.77L10.4849 106.234C11.0964 106.283 11.7112 106.275 12.3214 106.212Z" fill="#5968FE"/>
<path d="M14.2886 105.358C13.6349 105.57 12.9605 105.712 12.2768 105.781C11.6916 105.842 11.1021 105.851 10.5154 105.806C10.4586 105.801 10.4014 105.807 10.347 105.824C10.2926 105.841 10.2422 105.869 10.1986 105.905C10.1551 105.942 10.1193 105.987 10.0935 106.038C10.0676 106.089 10.0521 106.144 10.0479 106.201C10.0429 106.258 10.0493 106.315 10.0667 106.37C10.0841 106.424 10.1121 106.475 10.1491 106.518C10.1862 106.562 10.2314 106.597 10.2824 106.623C10.3333 106.649 10.3888 106.665 10.4458 106.669C10.7241 106.691 11.0023 106.699 11.2806 106.699C11.6479 106.699 12.0124 106.683 12.3769 106.646C13.121 106.567 13.8548 106.412 14.5669 106.182C14.6757 106.147 14.7661 106.07 14.8183 105.968C14.8705 105.866 14.8801 105.748 14.8451 105.639C14.8275 105.584 14.799 105.533 14.7614 105.488C14.7237 105.444 14.6776 105.408 14.6258 105.382C14.574 105.356 14.5175 105.34 14.4596 105.336C14.4017 105.332 14.3436 105.339 14.2886 105.358Z" fill="white"/>
<path d="M13.4259 103.816C13.7997 103.817 14.1726 103.779 14.5389 103.705L12.2294 103.68C12.6221 103.768 13.0233 103.814 13.4259 103.816Z" fill="#5968FE"/>
<path d="M14.4445 103.282C14.1192 103.348 13.7884 103.381 13.4566 103.382C13.073 103.381 12.6906 103.339 12.3158 103.257C12.2033 103.234 12.0862 103.255 11.9895 103.317C11.8928 103.379 11.8241 103.476 11.7982 103.588C11.7742 103.7 11.7955 103.818 11.8576 103.914C11.9196 104.01 12.0173 104.078 12.1293 104.103C12.5676 104.19 13.0126 104.24 13.4594 104.251C13.8494 104.25 14.2383 104.209 14.6198 104.128C14.6755 104.117 14.7285 104.095 14.7757 104.064C14.8229 104.032 14.8633 103.991 14.8947 103.944C14.926 103.897 14.9476 103.843 14.9582 103.788C14.9688 103.732 14.9682 103.675 14.9565 103.619C14.9459 103.563 14.9241 103.509 14.8924 103.462C14.8607 103.414 14.8198 103.373 14.772 103.342C14.7242 103.31 14.6705 103.289 14.6143 103.279C14.558 103.268 14.5002 103.27 14.4445 103.282Z" fill="white"/>
<path d="M57.4412 63.9248H49.5803C49.404 63.9245 49.2298 63.9636 49.0705 64.0392C48.9111 64.1148 48.7707 64.2249 48.6593 64.3617C48.5496 64.4929 48.4702 64.6468 48.4269 64.8123C48.3836 64.9777 48.3775 65.1508 48.4089 65.3189C48.6269 66.4872 49.2345 67.547 50.1326 68.3253C51.0307 69.1036 52.1662 69.5544 53.3536 69.6041H53.5038C54.7226 69.6007 55.9018 69.1709 56.8369 68.3892C57.7721 67.6076 58.4043 66.5233 58.6238 65.3245C58.6544 65.1544 58.6476 64.9796 58.6039 64.8124C58.5602 64.6452 58.4806 64.4895 58.3706 64.3561C58.2569 64.2203 58.1147 64.1113 57.9541 64.0368C57.7934 63.9622 57.6183 63.924 57.4412 63.9248ZM57.7585 65.1659C57.5674 66.1592 57.0401 67.0564 56.2652 67.7066C55.4904 68.3568 54.5152 68.7203 53.5038 68.736H53.3675C52.3796 68.6915 51.436 68.3139 50.6902 67.6646C49.9444 67.0153 49.4404 66.1326 49.2603 65.1603C49.2527 65.1164 49.255 65.0714 49.267 65.0286C49.279 64.9857 49.3005 64.9461 49.3299 64.9126C49.3603 64.8757 49.3985 64.846 49.4419 64.8258C49.4852 64.8056 49.5325 64.7953 49.5803 64.7958H57.4412C57.4887 64.7955 57.5357 64.8056 57.579 64.8253C57.6222 64.845 57.6607 64.8739 57.6917 64.9099C57.7211 64.9449 57.7423 64.9861 57.7539 65.0303C57.7654 65.0746 57.767 65.1209 57.7585 65.1659Z" fill="#180C47"/>
</svg>
