<svg width="54" height="61" viewBox="0 0 54 61" fill="none" xmlns="http://www.w3.org/2000/svg">
<g id="Group">
<path id="Vector" d="M14.0668 4.87265L20.468 2.41042C23.6546 1.18354 25.2492 0.571472 26.917 0.571472C28.5847 0.571472 30.1794 1.18352 33.3659 2.41042L39.7671 4.87265C42.5915 5.95635 44.0009 6.50101 44.0346 7.49207C44.0654 8.48593 42.6925 9.11762 39.9468 10.3866L34.4468 12.9246C30.7437 14.6344 28.8907 15.4907 26.9167 15.4907C24.9427 15.4907 23.09 14.6344 19.3865 12.9246L13.8866 10.3866C11.1408 9.11762 9.76788 8.48593 9.79879 7.49207C9.83248 6.50101 11.2424 5.95635 14.0668 4.87265Z" fill="#0066C1"/>
<path id="Vector_2" d="M15.7961 14.5669L18.6486 15.8808C21.8436 17.3604 24.2721 18.4834 26.9169 18.4834C29.5617 18.4834 31.9902 17.3604 35.1852 15.8808L38.0377 14.5669L38.3437 16.5574C39.4218 23.5594 34.0033 29.8762 26.9174 29.8762C19.8314 29.8762 14.4129 23.5592 15.491 16.5574L15.7961 14.5669Z" fill="#0066C1"/>
<path id="Vector_3" d="M26.9171 32.8722C22.877 32.8722 19.2691 31.2411 16.6558 28.6385L13.0116 34.7112C12.9667 34.787 12.9246 34.8656 12.8909 34.9442C13.7107 35.0256 14.5445 35.2025 15.3783 35.4805C22.8689 37.9764 30.9662 37.9764 38.459 35.4805C39.29 35.2025 40.1238 35.0256 40.9436 34.9442C40.9099 34.8656 40.8678 34.787 40.8229 34.7112L37.1787 28.6385C34.5649 31.2411 30.957 32.8722 26.9171 32.8722Z" fill="#0066C1"/>
<path id="Vector_4" fill-rule="evenodd" clip-rule="evenodd" d="M2.96033 56.0794C1.71937 56.0794 0.714294 57.0873 0.714294 58.3254C0.714294 59.5664 1.71937 60.5715 2.96033 60.5715H50.8739C52.1148 60.5715 53.1199 59.5664 53.1199 58.3254C53.1199 57.0873 52.1148 56.0794 50.8739 56.0794H48.771L50.113 47.3561C51.0451 41.2862 45.2307 36.3789 39.4053 38.3188C31.3002 41.0225 22.5346 41.0225 14.4294 38.3188C8.60374 36.3788 2.78956 41.2864 3.72175 47.3533L5.06377 56.0794H2.96033ZM23.1747 47.8449C23.1747 46.6039 24.1797 45.5988 25.4207 45.5988H28.4136C29.6545 45.5988 30.6596 46.6039 30.6596 47.8449C30.6596 49.0858 29.6545 50.0909 28.4136 50.0909H25.4207C24.1797 50.0909 23.1747 49.0858 23.1747 47.8449Z" fill="#0066C1"/>
</g>
</svg>
