<svg width="90" height="110" viewBox="0 0 90 110" fill="none" xmlns="http://www.w3.org/2000/svg">
<path d="M44.3627 105.358L42.1559 104.223C40.8404 97.5275 39.0893 90.9251 36.9138 84.4579C35.352 79.8235 33.5475 75.2078 31.5528 70.7363L28.3274 72.1742C30.2762 76.5438 32.04 81.0542 33.5661 85.5851C35.58 91.5801 37.2208 97.694 38.4789 103.892C37.6647 104.022 36.8385 104.06 36.0157 104.006C35.3889 103.956 34.7675 103.852 34.1586 103.695C33.9321 103.637 33.6918 103.671 33.4904 103.79C33.289 103.908 33.1432 104.102 33.0849 104.329C33.0266 104.555 33.0606 104.796 33.1795 104.997C33.2984 105.198 33.4924 105.344 33.7189 105.403C34.426 105.584 35.1473 105.705 35.8748 105.764C35.9461 105.764 36.0191 105.764 36.0904 105.764C36.0361 105.778 35.9835 105.8 35.9207 105.813C35.1086 106.006 34.2846 106.143 33.4541 106.224C33.2273 106.244 33.0169 106.351 32.8672 106.523C32.7174 106.694 32.6399 106.917 32.6509 107.144C32.6619 107.372 32.7605 107.586 32.9261 107.743C33.0916 107.899 33.3113 107.985 33.539 107.983C33.5678 107.985 33.5967 107.985 33.6255 107.983C34.5348 107.894 35.4371 107.744 36.3264 107.535C36.6218 107.465 36.907 107.35 37.2006 107.267C36.6778 107.533 36.1617 107.815 35.6253 108.041C35.4351 108.118 35.2778 108.259 35.1805 108.439C35.0832 108.62 35.0519 108.829 35.0922 109.03C35.1324 109.231 35.2416 109.412 35.4009 109.541C35.5602 109.671 35.7596 109.74 35.9648 109.738C36.0816 109.739 36.1971 109.715 36.3043 109.669C37.2222 109.282 38.1171 108.842 38.9848 108.353C40.7571 107.321 41.375 106.825 41.5719 106.655C41.8011 106.467 41.9878 106.304 42.1168 106.185L43.5479 106.92C43.7559 107.027 43.9979 107.047 44.2206 106.976C44.4432 106.904 44.6284 106.747 44.7354 106.539C44.8423 106.331 44.8622 106.089 44.7907 105.866C44.7193 105.644 44.5623 105.459 44.3543 105.352L44.3627 105.358Z" fill="#FF2340"/>
<path d="M89.2553 83.74C89.0741 83.5926 88.8417 83.5232 88.6093 83.5471C88.3769 83.571 88.1635 83.6862 88.0161 83.8673C87.6477 84.3206 87.2301 84.7365 86.8278 85.1626C86.9975 84.9046 87.1825 84.6635 87.337 84.397C87.7872 83.6037 88.1842 82.7814 88.5253 81.9355C88.605 81.7209 88.5979 81.4837 88.5057 81.2741C88.4135 81.0646 88.2434 80.8992 88.0313 80.8129C87.8193 80.7266 87.582 80.7263 87.3697 80.8119C87.1574 80.8976 86.9868 81.0625 86.8939 81.2717C86.5792 82.046 86.2146 82.7991 85.8024 83.5261C85.7685 83.5855 85.7226 83.6399 85.687 83.6959C85.7056 83.6127 85.743 83.5363 85.76 83.4531C85.9084 82.7392 85.9964 82.014 86.0231 81.2853C86.0309 81.052 85.946 80.8251 85.7869 80.6543C85.6278 80.4834 85.4076 80.3826 85.1743 80.3737C84.9418 80.3694 84.7167 80.4555 84.5463 80.6138C84.376 80.7721 84.2737 80.9903 84.261 81.2225C84.2215 82.6798 83.8707 84.1117 83.2323 85.4223C77.6409 82.4673 72.2379 79.1689 67.0543 75.5458C63.1363 72.8008 59.3049 69.8351 55.6653 66.7354L53.3803 69.4192C57.1014 72.5903 61.0194 75.6239 65.0291 78.4317C70.6207 82.3435 76.4614 85.8866 82.5142 89.0382L82.981 91.4827C83.02 91.6835 83.1274 91.8645 83.285 91.9948C83.4426 92.1252 83.6406 92.1968 83.8451 92.1974C83.902 92.1975 83.9589 92.1924 84.0149 92.1821C84.2446 92.1381 84.4475 92.0046 84.579 91.8111C84.7105 91.6176 84.7597 91.3798 84.716 91.15L84.4087 89.5474L84.6498 89.3777C85.599 88.6977 86.506 87.9607 87.3659 87.1708C88.9922 85.7415 89.0431 85.3901 89.386 84.9725C89.5309 84.7912 89.5985 84.5601 89.574 84.3294C89.5495 84.0986 89.435 83.8868 89.2553 83.74Z" fill="#FF2340"/>
<path d="M0 16.5142L7.62553 16.0813L28.589 42.7944L31.3628 40.6198L6.93801 9.57617C4.62591 11.8883 2.31324 14.2009 0 16.5142Z" fill="#FF2340"/>
<path d="M52.1428 39.2954L55.6279 39.8319L60.8004 6.27069L67.6519 2.90948L58.2099 0.264648C56.1887 13.2749 54.1663 26.2852 52.1428 39.2954Z" fill="#FF2340"/>
<path d="M66.2124 43.7261C66.1738 43.1404 65.9817 42.5753 65.6553 42.0875C65.329 41.5997 64.8801 41.2064 64.3535 40.9471L42.5668 30.2167C42.0405 29.9572 41.4551 29.8408 40.8695 29.8793C40.284 29.9177 39.7189 30.1096 39.231 30.4357L19.0434 43.94C18.5557 44.266 18.1624 44.7147 17.9031 45.241C17.6439 45.7673 17.5278 46.3525 17.5665 46.9379L19.1673 71.1726C19.2063 71.7589 19.3996 72.3246 19.7275 72.8123C20.0554 73.3 20.5063 73.6924 21.0346 73.9498L42.8129 84.6819C43.3394 84.9412 43.9248 85.0573 44.5104 85.0185C45.0959 84.9798 45.6609 84.7876 46.1487 84.4612L66.3363 70.9587C66.8238 70.632 67.2168 70.1829 67.476 69.6564C67.7352 69.13 67.8515 68.5446 67.8132 67.959L66.2124 43.7261Z" fill="#FF2340"/>
<path d="M38.8796 58.7888C38.771 58.7885 38.6651 58.7554 38.5757 58.6937C38.5136 58.651 38.4617 58.595 38.4239 58.5299C38.386 58.4647 38.3631 58.3919 38.3567 58.3168C38.2725 57.4307 38.5037 56.5434 39.0095 55.811C39.5153 55.0785 40.2633 54.5481 41.1217 54.313C41.9802 54.0779 42.8941 54.1532 43.7025 54.5257C44.5108 54.8982 45.1619 55.544 45.5409 56.3493C45.5732 56.4175 45.59 56.492 45.59 56.5675C45.59 56.6429 45.5732 56.7174 45.5409 56.7856C45.5091 56.8559 45.4621 56.9184 45.4035 56.9686C45.3448 57.0187 45.2758 57.0554 45.2014 57.0759L39.0239 58.7735C38.9768 58.7854 38.9282 58.7906 38.8796 58.7888Z" fill="#180C47"/>
<mask id="mask0_42_2151" style="mask-type:luminance" maskUnits="userSpaceOnUse" x="38" y="54" width="8" height="5">
<path d="M38.8796 58.7888C38.771 58.7885 38.6651 58.7554 38.5757 58.6937C38.5136 58.651 38.4617 58.595 38.4239 58.5299C38.386 58.4647 38.3631 58.3919 38.3567 58.3168C38.2725 57.4307 38.5037 56.5434 39.0095 55.811C39.5153 55.0785 40.2633 54.5481 41.1217 54.313C41.9802 54.0779 42.8941 54.1532 43.7025 54.5257C44.5108 54.8982 45.1619 55.544 45.5409 56.3493C45.5732 56.4175 45.59 56.492 45.59 56.5675C45.59 56.6429 45.5732 56.7174 45.5409 56.7856C45.5091 56.8559 45.4621 56.9184 45.4035 56.9686C45.3448 57.0187 45.2758 57.0554 45.2014 57.0759L39.0239 58.7735C38.9768 58.7854 38.9282 58.7906 38.8796 58.7888Z" fill="white"/>
</mask>
<g mask="url(#mask0_42_2151)">
<path d="M41.3054 54.5402C40.4347 54.7588 39.6785 55.2978 39.1879 56.0496C38.6972 56.8015 38.5083 57.7107 38.6589 58.5958L45.4221 56.742C45.1154 55.9413 44.5304 55.2779 43.7743 54.8735C43.0182 54.4691 42.1417 54.3508 41.3054 54.5402Z" fill="#180C47"/>
<path d="M38.5638 55.0054C38.5961 55.6845 40.8572 56.759 42.5667 55.7558C43.5734 55.165 44.3509 53.8765 44.0046 53.3792C43.351 52.4183 38.5129 53.9835 38.5638 55.0054Z" fill="#FFC5E1"/>
</g>
<path d="M39.3888 62.113C39.7555 63.4015 39.4296 64.3759 39.1308 64.476C38.832 64.5762 37.9713 64.0533 37.4757 62.6545L36.9766 62.8243C37.4655 64.1993 38.4059 65.0057 39.0714 65.0057C39.1486 65.0063 39.2255 64.9942 39.2989 64.97C39.9388 64.7544 40.331 63.4948 39.8981 61.9619L39.3888 62.113Z" fill="#180C47"/>
<path d="M48.5763 59.5954C48.8309 60.4934 48.8479 61.3049 48.6187 61.7106C48.5906 61.7686 48.5507 61.8202 48.5016 61.862C48.4525 61.9037 48.3953 61.9349 48.3335 61.9534C47.556 62.1605 46.9992 61.0791 46.6665 60.1369L46.1674 60.3067C46.787 62.0535 47.5255 62.5136 48.1332 62.5034C48.248 62.5024 48.3621 62.4864 48.4727 62.4558C48.6015 62.419 48.7215 62.3563 48.8254 62.2717C48.9293 62.1871 49.0149 62.0822 49.0771 61.9635C49.3826 61.422 49.386 60.5036 49.0771 59.4443L48.5763 59.5954Z" fill="#180C47"/>
<path d="M41.1815 54.0251C40.2401 54.2621 39.4132 54.8252 38.8478 55.6144C38.2825 56.4036 38.0152 57.3676 38.0936 58.3352C38.1042 58.4496 38.1402 58.5601 38.199 58.6588C38.2577 58.7574 38.3377 58.8418 38.4331 58.9056C38.5288 58.9724 38.6381 59.0172 38.7531 59.0369C38.8682 59.0565 38.9861 59.0506 39.0986 59.0194L45.2744 57.3218C45.3865 57.2913 45.4904 57.2361 45.5785 57.1604C45.6666 57.0846 45.7367 56.9901 45.7836 56.8838C45.8327 56.7807 45.8581 56.6679 45.8581 56.5536C45.8581 56.4394 45.8327 56.3266 45.7836 56.2235C45.3769 55.3917 44.7009 54.7219 43.8654 54.3228C43.03 53.9237 42.0841 53.8188 41.1815 54.0251ZM45.3032 56.6767C45.2872 56.7117 45.2637 56.7428 45.2344 56.7677C45.205 56.7926 45.1706 56.8108 45.1335 56.821L38.956 58.5186C38.918 58.5283 38.8784 58.5299 38.8397 58.5231C38.8011 58.5164 38.7643 58.5016 38.7319 58.4795C38.7019 58.4589 38.6768 58.4319 38.6583 58.4006C38.6398 58.3692 38.6284 58.3341 38.6249 58.2979C38.5544 57.4554 38.7855 56.6152 39.2771 55.9274C39.7688 55.2396 40.4888 54.7488 41.3088 54.5428C41.568 54.4814 41.8335 54.4506 42.0999 54.4512C42.7687 54.4556 43.4229 54.6468 43.9889 55.0031C44.5549 55.3594 45.0101 55.8668 45.3032 56.4679C45.3186 56.5005 45.3266 56.5362 45.3266 56.5723C45.3266 56.6084 45.3186 56.6441 45.3032 56.6767Z" fill="#180C47"/>
</svg>
