<svg width="119" height="120" viewBox="0 0 119 120" fill="none" xmlns="http://www.w3.org/2000/svg">
<path d="M27.8891 107.021L20.7573 110.037L28.0574 112.528L28.0778 112.54L42.5782 85.4623L40.1368 84.1436L27.8891 107.021Z" fill="#FF2340"/>
<path d="M46.4789 86.79L41.3945 117.082H41.4204L48.7205 119.575L44.9197 112.83L49.2143 87.2432L46.4789 86.79Z" fill="#FF2340"/>
<path d="M19.0392 0L14.1138 5.93518L14.0953 5.95182L34.2424 29.1377L36.3342 27.3196L19.3184 7.73848C19.2247 5.16145 19.1316 2.58196 19.0392 0Z" fill="#FFB73E"/>
<path d="M6.2274 12.1958L0 16.7457L7.70518 17.5021L26.1969 35.685L28.1389 33.7115L6.24405 12.1699L6.2274 12.1958Z" fill="#FFB73E"/>
<path d="M88.5947 63.957L86.3475 65.5772L101.529 86.6158C101.39 89.1915 101.251 91.7686 101.109 94.3468L106.559 88.8796L106.578 88.8666L88.5947 63.957Z" fill="#FF6B32"/>
<path d="M110.456 60.541C109.589 58.3216 108.777 56.5497 106.914 55.5824C104.774 54.4727 102.579 55.0553 101.127 55.4418C97.2431 56.4739 94.5521 58.9745 92.9763 60.8906L95.1162 62.6514C96.433 61.0497 98.6691 58.9634 101.839 58.12C103.269 57.7408 104.54 57.4726 105.638 58.0423C106.48 58.4788 106.983 59.2667 107.876 61.5564C109.013 64.4782 109.909 67.4883 110.554 70.5563L111.923 70.2715L118.174 68.9916L112.126 65.4627C111.634 63.7814 111.081 62.1335 110.456 60.541Z" fill="#FF6B32"/>
<path d="M64.7357 12.6137C59.5026 11.0347 54.0119 10.4913 48.5708 11.0139C28.5069 12.8523 12.3198 29.0284 10.4702 49.0922C9.78034 56.5495 11.395 63.0248 12.0146 65.1074C13.7587 70.9535 16.7419 76.3553 20.7611 80.945C20.9026 81.1047 21.075 81.2342 21.2678 81.3258C21.4606 81.4173 21.6698 81.4691 21.8831 81.4779C22.0963 81.4867 22.3092 81.4524 22.5089 81.377C22.7085 81.3017 22.891 81.1868 23.0452 81.0393L82.1806 25.2886C82.3367 25.1428 82.4617 24.967 82.5483 24.7717C82.6349 24.5764 82.6812 24.3657 82.6845 24.1521C82.6878 23.9386 82.648 23.7265 82.5674 23.5287C82.4869 23.3308 82.3673 23.1513 82.2158 23.0007C77.3099 18.1821 71.3134 14.6189 64.7357 12.6137Z" fill="#FFB73E"/>
<path d="M54.1027 60.5984C54.0382 60.3259 53.9031 60.0751 53.711 59.8714C53.5188 59.6677 53.2764 59.5182 53.0081 59.438C52.7398 59.3577 52.455 59.3495 52.1826 59.4143C51.9101 59.479 51.6595 59.6144 51.456 59.8068L26.0378 83.7731C25.8805 83.9203 25.7548 84.0979 25.6683 84.2951C25.5818 84.4924 25.5363 84.7052 25.5345 84.9205C25.5328 85.1359 25.5749 85.3494 25.6582 85.548C25.7415 85.7466 25.8644 85.9262 26.0193 86.0758C29.1635 89.0758 34.5734 93.3334 42.1824 95.6084C45.8652 96.6982 49.685 97.2557 53.5256 97.2637C56.0184 97.2626 58.5054 97.0254 60.9534 96.5553C61.1623 96.5125 61.3605 96.4278 61.536 96.3066C61.7114 96.1853 61.8606 96.0299 61.9746 95.8496C62.0886 95.6693 62.165 95.4679 62.1993 95.2573C62.2336 95.0468 62.225 94.8315 62.1741 94.6244C59.4836 83.2806 56.7932 71.9386 54.1027 60.5984Z" fill="#FF2340"/>
<path d="M85.5004 29.1596L58.7745 54.3541C58.3276 54.7753 57.9995 55.3068 57.8232 55.8952C57.6469 56.4835 57.6287 57.1078 57.7702 57.7054C60.563 69.4747 63.3552 81.2464 66.1468 93.0206C66.1982 93.2418 66.2964 93.4494 66.4347 93.6296C66.573 93.8097 66.7482 93.9582 66.9486 94.065C67.149 94.1719 67.3699 94.2346 67.5966 94.2491C67.8232 94.2635 68.0503 94.2293 68.2627 94.1488C85.7408 87.2851 97.3264 71.9673 97.6315 55.5859C97.872 42.824 91.1914 33.347 87.8105 29.2947C87.6717 29.1279 87.5002 28.9915 87.3065 28.8937C87.1129 28.796 86.9013 28.739 86.6847 28.7263C86.4682 28.7137 86.2513 28.7456 86.0476 28.8201C85.8439 28.8947 85.6577 29.0102 85.5004 29.1596Z" fill="#FF6B32"/>
<path d="M79.0013 64.0881C78.8436 64.089 78.6862 64.0741 78.5315 64.0437C78.4776 64.0339 78.4266 64.0122 78.3821 63.9802C78.3377 63.9482 78.3009 63.9067 78.2744 63.8588C78.247 63.8095 78.2309 63.7546 78.2274 63.6983C78.2239 63.642 78.233 63.5856 78.254 63.5333L79.7688 59.6196C79.7889 59.5675 79.8203 59.5204 79.8608 59.4819C79.9012 59.4433 79.9496 59.4141 80.0027 59.3964C80.0557 59.3787 80.112 59.373 80.1675 59.3796C80.223 59.3862 80.2763 59.405 80.3237 59.4347C80.7939 59.7193 81.1577 60.1506 81.3589 60.6621C81.5602 61.1736 81.5878 61.7371 81.4375 62.2658C81.2872 62.7946 80.9674 63.2593 80.5273 63.5886C80.0871 63.9178 79.5509 64.0933 79.0013 64.0881Z" fill="#180C47"/>
<mask id="mask0_42_2044" style="mask-type:luminance" maskUnits="userSpaceOnUse" x="78" y="59" width="4" height="6">
<path d="M79.0013 64.0881C78.8436 64.089 78.6862 64.0741 78.5315 64.0437C78.4776 64.0339 78.4266 64.0122 78.3821 63.9802C78.3377 63.9482 78.3009 63.9067 78.2744 63.8588C78.247 63.8095 78.2309 63.7546 78.2274 63.6983C78.2239 63.642 78.233 63.5856 78.254 63.5333L79.7688 59.6196C79.7889 59.5675 79.8203 59.5204 79.8608 59.4819C79.9012 59.4433 79.9496 59.4141 80.0027 59.3964C80.0557 59.3787 80.112 59.373 80.1675 59.3796C80.223 59.3862 80.2763 59.405 80.3237 59.4347C80.7939 59.7193 81.1577 60.1506 81.3589 60.6621C81.5602 61.1736 81.5878 61.7371 81.4375 62.2658C81.2872 62.7946 80.9674 63.2593 80.5273 63.5886C80.0871 63.9178 79.5509 64.0933 79.0013 64.0881Z" fill="white"/>
</mask>
<g mask="url(#mask0_42_2044)">
<path d="M80.0407 59.5127L78.3761 63.7962C78.9302 63.9582 79.5249 63.9065 80.0427 63.6513C80.5606 63.3961 80.9638 62.956 81.1729 62.4179C81.3821 61.8798 81.3818 61.2829 81.1721 60.745C80.9625 60.2071 80.5588 59.7674 80.0407 59.5127Z" fill="#180C47"/>
<path d="M81.9605 60.8611C81.5906 60.6114 80.1424 61.3863 80.0056 62.6773C79.9242 63.4375 80.2996 64.3419 80.701 64.3641C81.4648 64.39 82.5265 61.2328 81.9605 60.8611Z" fill="#FFC5E1"/>
</g>
<path d="M36.1659 43.2092C37.0462 44.06 37.2293 44.9866 37.037 45.2086C36.8446 45.4305 35.8551 45.3695 34.8804 44.5409L34.6122 44.859C35.3206 45.4601 36.0771 45.7357 36.6356 45.7357C36.7654 45.747 36.896 45.7307 37.0191 45.688C37.1421 45.6453 37.2547 45.5771 37.3496 45.4879C37.7398 45.0403 37.4735 43.9009 36.4544 42.917L36.1659 43.2092Z" fill="#180C47"/>
<path d="M42.1953 37.0888C42.8167 37.688 43.1903 38.3058 43.1959 38.7404C43.1995 38.8025 43.1906 38.8646 43.1696 38.9231C43.1487 38.9816 43.1161 39.0352 43.0738 39.0807C42.5504 39.6097 41.6108 39.0142 40.9098 38.4223L40.6417 38.7386C41.4037 39.3859 42.0492 39.7114 42.5726 39.7114C42.7218 39.7127 42.8697 39.6833 43.0072 39.625C43.1446 39.5668 43.2686 39.481 43.3716 39.373C43.4519 39.2879 43.5144 39.1876 43.5554 39.0781C43.5964 38.9685 43.615 38.8518 43.6102 38.7349C43.6102 38.18 43.1922 37.4753 42.4838 36.791L42.1953 37.0888Z" fill="#180C47"/>
<path d="M34.9359 37.6934C34.568 38.068 34.3248 38.5472 34.2397 39.0654C34.1546 39.5835 34.2317 40.1153 34.4606 40.5879L34.8305 40.403C34.6379 40.0097 34.5716 39.5665 34.6405 39.1341C34.7094 38.7016 34.9102 38.301 35.2155 37.9871C35.5207 37.6731 35.9155 37.4611 36.3458 37.3801C36.7762 37.299 37.221 37.3529 37.6196 37.5344L37.7897 37.1644C37.3166 36.9526 36.7902 36.8897 36.2804 36.9842C35.7706 37.0787 35.3017 37.326 34.9359 37.6934Z" fill="#180C47"/>
<path d="M47.2557 40.5768C47.2162 40.554 47.1727 40.5392 47.1275 40.5332C47.0823 40.5273 47.0364 40.5303 46.9924 40.5422C46.9484 40.554 46.9072 40.5745 46.8711 40.6023C46.835 40.6302 46.8048 40.6649 46.7822 40.7044L45.5245 42.885C45.4789 42.9648 45.4667 43.0594 45.4906 43.1481C45.5145 43.2368 45.5726 43.3125 45.6521 43.3585C45.7044 43.3888 45.7637 43.4047 45.8241 43.4047C45.8852 43.4046 45.9451 43.3885 45.998 43.358C46.0509 43.3275 46.0949 43.2837 46.1256 43.2309L47.3833 41.0484C47.4283 40.9688 47.4402 40.8747 47.4163 40.7864C47.3924 40.6981 47.3347 40.6228 47.2557 40.5768Z" fill="#180C47"/>
<path d="M41.2502 47.7401L38.82 48.3967C38.7382 48.4179 38.667 48.4683 38.6198 48.5384C38.5727 48.6085 38.5528 48.6934 38.5639 48.7771C38.5751 48.8609 38.6165 48.9376 38.6804 48.9929C38.7442 49.0482 38.8261 49.0783 38.9106 49.0773C38.9413 49.0774 38.9718 49.0731 39.0012 49.0644L41.4315 48.4078C41.4753 48.3957 41.5164 48.375 41.5522 48.347C41.5881 48.319 41.6181 48.2842 41.6405 48.2446C41.6629 48.205 41.6773 48.1614 41.6828 48.1163C41.6884 48.0711 41.685 48.0253 41.6729 47.9815C41.6607 47.9376 41.6401 47.8966 41.6121 47.8608C41.5841 47.8249 41.5493 47.7949 41.5097 47.7725C41.4701 47.7501 41.4265 47.7357 41.3813 47.7301C41.3362 47.7246 41.2904 47.728 41.2465 47.7401H41.2502Z" fill="#180C47"/>
<path d="M69.4299 61.0493C69.3388 61.0409 69.2479 61.0682 69.1765 61.1255C69.1051 61.1828 69.0587 61.2656 69.0471 61.3564L68.7863 63.8606C68.7775 63.952 68.8049 64.0431 68.8627 64.1144C68.9205 64.1857 69.004 64.2314 69.0952 64.2416H69.1322C69.2178 64.2416 69.3004 64.2098 69.3639 64.1525C69.4275 64.0951 69.4675 64.0161 69.4762 63.9309L69.7388 61.4285C69.7471 61.3375 69.7194 61.2468 69.6617 61.1759C69.604 61.105 69.5208 61.0596 69.4299 61.0493Z" fill="#180C47"/>
<path d="M73.1919 53.1321L71.2332 54.7171C71.1771 54.762 71.1364 54.8233 71.1167 54.8924C71.097 54.9614 71.0993 55.035 71.1233 55.1027C71.1473 55.1704 71.1918 55.229 71.2506 55.2702C71.3094 55.3115 71.3796 55.3335 71.4515 55.333C71.5306 55.3328 71.6074 55.3061 71.6697 55.2572L73.6376 53.6703C73.709 53.6124 73.7544 53.5285 73.764 53.4371C73.7735 53.3457 73.7464 53.2543 73.6885 53.1829C73.6306 53.1116 73.5467 53.0661 73.4553 53.0566C73.3639 53.047 73.2725 53.0742 73.2011 53.1321H73.1919Z" fill="#180C47"/>
<path d="M73.51 64.2619C73.3001 64.5763 73.1246 64.9123 72.9866 65.2643L73.375 65.416C73.5005 65.0908 73.6618 64.7807 73.8559 64.4912C74.216 63.9504 74.6792 63.486 75.219 63.1244L74.9859 62.7822C74.4014 63.1735 73.8998 63.6763 73.51 64.2619Z" fill="#180C47"/>
<path d="M77.3366 55.6809L77.0092 55.4238C76.7349 55.7723 76.5535 56.1846 76.4821 56.6223C76.3871 57.2495 76.5182 57.89 76.852 58.4293L77.2053 58.2129C76.9248 57.7569 76.8141 57.2166 76.8927 56.6871C76.9532 56.3195 77.1059 55.9734 77.3366 55.6809Z" fill="#180C47"/>
<path d="M45.4856 80.4328C45.5304 79.5483 44.8497 78.795 43.9652 78.7502C43.0808 78.7054 42.3274 79.3861 42.2826 80.2706C42.2378 81.1551 42.9185 81.9084 43.803 81.9532C44.6875 81.998 45.4408 81.3173 45.4856 80.4328Z" fill="#180C47"/>
<path d="M44.1521 79.3344C43.9514 79.2801 43.739 79.2864 43.5419 79.3527C43.3448 79.4189 43.1717 79.5421 43.0445 79.7067C42.9173 79.8712 42.8418 80.0698 42.8273 80.2772C42.8129 80.4847 42.8603 80.6918 42.9635 80.8724C43.0666 81.0529 43.221 81.1989 43.4071 81.2918C43.5931 81.3847 43.8026 81.4204 44.0089 81.3943C44.2152 81.3683 44.4092 81.2817 44.5664 81.1455C44.7236 81.0093 44.8369 80.8296 44.892 80.6291C44.9289 80.4955 44.9391 80.3559 44.9219 80.2184C44.9046 80.0808 44.8604 79.9481 44.7916 79.8277C44.7228 79.7074 44.6309 79.6018 44.5212 79.5172C44.4114 79.4325 44.286 79.3704 44.1521 79.3344Z" fill="#180C47"/>
<path d="M49.2829 80.1262C48.9763 80.0446 48.6525 80.0558 48.3522 80.1583C48.052 80.2608 47.789 80.45 47.5963 80.702C47.4037 80.954 47.2901 81.2575 47.27 81.5741C47.2499 81.8907 47.3241 82.2062 47.4833 82.4805C47.6425 82.7549 47.8795 82.9759 48.1643 83.1156C48.4492 83.2553 48.769 83.3073 49.0834 83.2651C49.3978 83.223 49.6927 83.0885 49.9307 82.8788C50.1686 82.669 50.339 82.3934 50.4203 82.0868C50.4745 81.8833 50.4881 81.6712 50.4602 81.4626C50.4324 81.2539 50.3636 81.0528 50.258 80.8707C50.1524 80.6886 50.0119 80.5291 49.8445 80.4014C49.6772 80.2737 49.4864 80.1802 49.2829 80.1262Z" fill="#180C47"/>
<path d="M49.1423 80.6583C48.9412 80.6034 48.7283 80.6094 48.5307 80.6756C48.333 80.7418 48.1595 80.8653 48.032 81.0303C47.9046 81.1952 47.8291 81.3943 47.815 81.6023C47.8009 81.8103 47.8489 82.0178 47.9529 82.1984C48.0569 82.3791 48.2121 82.5248 48.3991 82.6171C48.586 82.7094 48.7961 82.7441 49.0027 82.7168C49.2094 82.6895 49.4033 82.6015 49.5599 82.4638C49.7164 82.3262 49.8286 82.1452 49.8821 81.9437C49.9534 81.6752 49.9157 81.3893 49.7771 81.1485C49.6385 80.9077 49.4103 80.7315 49.1423 80.6583Z" fill="#180C47"/>
<path d="M45.5651 83.6432C45.3655 83.5903 45.153 83.6188 44.9744 83.7225C44.7957 83.8262 44.6656 83.9966 44.6126 84.1963C44.5597 84.3959 44.5882 84.6084 44.6919 84.787C44.7956 84.9657 44.966 85.0958 45.1656 85.1488C45.2645 85.1761 45.3678 85.1833 45.4694 85.17C45.5711 85.1566 45.6691 85.123 45.7575 85.0711C45.8914 84.9945 45.9994 84.8798 46.0681 84.7417C46.1367 84.6036 46.1627 84.4482 46.1429 84.2953C46.1231 84.1423 46.0583 83.9987 45.9568 83.8826C45.8552 83.7665 45.7215 83.6832 45.5725 83.6432H45.5651ZM45.7168 84.4903C45.7053 84.5364 45.6847 84.5796 45.6561 84.6174C45.6275 84.6552 45.5915 84.6869 45.5504 84.7104C45.5016 84.743 45.4458 84.7635 45.3876 84.7703C45.3293 84.777 45.2703 84.7699 45.2154 84.7493C45.1605 84.7288 45.1112 84.6955 45.0717 84.6522C45.0322 84.609 45.0035 84.5569 44.988 84.5003C44.9726 84.4438 44.9708 84.3844 44.9828 84.327C44.9949 84.2696 45.0203 84.2159 45.0572 84.1703C45.0941 84.1247 45.1412 84.0885 45.1948 84.0647C45.2484 84.041 45.3069 84.0302 45.3654 84.0335C45.3959 84.0335 45.4264 84.0373 45.456 84.0446C45.5477 84.0718 45.6252 84.1333 45.6725 84.2164C45.7197 84.2995 45.7329 84.3977 45.7094 84.4903H45.7168Z" fill="#180C47"/>
<path d="M45.5707 74.0459C45.1047 73.9089 44.6106 73.8981 44.139 74.0148C43.6675 74.1315 43.2354 74.3714 42.887 74.7099C42.7948 74.7997 42.742 74.9224 42.7403 75.0511C42.7386 75.1798 42.788 75.3039 42.8778 75.3961C42.9676 75.4883 43.0903 75.5411 43.219 75.5428C43.3477 75.5446 43.4718 75.4951 43.564 75.4053C43.7883 75.1851 44.0674 75.0286 44.3723 74.9522C44.6773 74.8758 44.9972 74.8822 45.2988 74.9707C45.3616 74.9965 45.4291 75.0089 45.497 75.0069C45.5649 75.005 45.6315 74.9888 45.6927 74.9594C45.754 74.93 45.8083 74.8881 45.8523 74.8364C45.8963 74.7847 45.9289 74.7243 45.948 74.6592C45.9672 74.5941 45.9724 74.5257 45.9634 74.4584C45.9544 74.3911 45.9314 74.3264 45.8958 74.2686C45.8603 74.2108 45.8129 74.1611 45.7569 74.1227C45.7009 74.0844 45.6375 74.0582 45.5707 74.0459Z" fill="#180C47"/>
<path d="M51.3469 75.872C51.005 75.5718 50.5927 75.3631 50.1484 75.2653C50.0862 75.2516 50.0219 75.2502 49.9592 75.2614C49.8965 75.2725 49.8366 75.2958 49.783 75.3301C49.7293 75.3644 49.6829 75.4089 49.6464 75.461C49.6099 75.5132 49.5841 75.5721 49.5704 75.6343C49.5567 75.6965 49.5553 75.7607 49.5664 75.8234C49.5776 75.8861 49.6009 75.946 49.6352 75.9997C49.6694 76.0534 49.7139 76.0998 49.7661 76.1362C49.8183 76.1727 49.8772 76.1985 49.9394 76.2123C50.2219 76.2748 50.484 76.4078 50.7014 76.5988C50.9517 76.8234 51.1316 77.1157 51.2193 77.4404C51.2463 77.5438 51.3069 77.6354 51.3916 77.7006C51.4763 77.7659 51.5803 77.8012 51.6872 77.801C51.729 77.801 51.7707 77.7954 51.8111 77.7844C51.8727 77.7681 51.9305 77.7397 51.9812 77.701C52.0318 77.6624 52.0743 77.6141 52.1063 77.5589C52.1382 77.5038 52.159 77.4428 52.1674 77.3797C52.1758 77.3165 52.1716 77.2522 52.1551 77.1907C52.0213 76.6812 51.7401 76.2225 51.3469 75.872Z" fill="#180C47"/>
<path d="M80.4272 59.2541C80.354 59.2101 80.272 59.1828 80.1871 59.174C80.1022 59.1652 80.0163 59.1752 79.9357 59.2033C79.8551 59.2313 79.7816 59.2767 79.7204 59.3363C79.6593 59.3959 79.612 59.4683 79.5819 59.5482L78.0653 63.4599C78.0335 63.5411 78.02 63.6282 78.0257 63.7152C78.0315 63.8022 78.0563 63.8868 78.0986 63.963C78.1403 64.0367 78.1974 64.1004 78.266 64.1499C78.3347 64.1994 78.4132 64.2334 78.4962 64.2497C79.1231 64.3725 79.7731 64.2706 80.3323 63.962C80.8916 63.6535 81.3243 63.1578 81.5547 62.5621C81.785 61.9663 81.7983 61.3085 81.5921 60.704C81.3859 60.0994 80.9735 59.5868 80.4272 59.2559V59.2541ZM81.1448 62.4871C80.9607 62.9019 80.6601 63.2542 80.2796 63.5015C79.8991 63.7487 79.455 63.8801 79.0012 63.8798C78.856 63.881 78.711 63.8679 78.5684 63.8409C78.545 63.8365 78.5228 63.8271 78.5033 63.8134C78.4839 63.7997 78.4676 63.782 78.4556 63.7614C78.4439 63.7387 78.4371 63.7139 78.4355 63.6884C78.4339 63.6629 78.4376 63.6374 78.4463 63.6135L79.9629 59.6998C79.9717 59.676 79.9857 59.6545 80.004 59.6369C80.0223 59.6193 80.0443 59.606 80.0684 59.5981C80.0867 59.5953 80.1055 59.5953 80.1238 59.5981C80.1525 59.5978 80.1807 59.6054 80.2052 59.6203C80.6749 59.9105 81.0268 60.3574 81.1988 60.882C81.3707 61.4067 81.3516 61.9752 81.1448 62.4871Z" fill="#180C47"/>
</svg>
