<svg width="67" height="110" viewBox="0 0 67 110" fill="none" xmlns="http://www.w3.org/2000/svg">
<path d="M20.2579 35.4683L19.1549 31.5703C15.5547 32.5849 8.8747 35.272 4.37774 41.8407C-1.32366 50.1768 -1.43821 61.6057 3.92935 71.5161C3.10924 72.0777 2.39739 72.7829 1.82814 73.5977C1.12218 74.6282 0.651757 75.8014 0.450253 77.0342C0.428314 77.1656 0.432627 77.3 0.462948 77.4297C0.493269 77.5594 0.548993 77.6818 0.626902 77.7899C0.704811 77.8979 0.803366 77.9894 0.916857 78.0591C1.03035 78.1289 1.15653 78.1754 1.28812 78.1961C1.34256 78.2009 1.39732 78.2009 1.45176 78.1961C1.69195 78.1954 1.92409 78.1094 2.10688 77.9536C2.28967 77.7978 2.41125 77.5822 2.44999 77.3451C2.60173 76.4058 2.95939 75.5117 3.49732 74.7268C3.68523 74.4648 3.89548 74.2195 4.12573 73.9937C3.87258 74.4389 3.65376 74.9029 3.47115 75.3814C2.96815 76.7598 2.75532 78.2273 2.84602 79.6918C2.86026 79.9494 2.97272 80.1917 3.16025 80.3689C3.34777 80.5461 3.59608 80.6446 3.85407 80.6442H3.91626C4.04886 80.6363 4.1786 80.6023 4.29807 80.5442C4.41754 80.4862 4.5244 80.4051 4.61254 80.3057C4.70068 80.2063 4.76837 80.0906 4.81176 79.965C4.85515 79.8395 4.87337 79.7066 4.8654 79.574C4.79517 78.3891 4.9701 77.2025 5.37924 76.0883C5.51612 75.7411 5.67575 75.4032 5.85708 75.077C5.51181 76.3959 5.3814 77.7619 5.47088 79.1223C5.48979 79.3773 5.60399 79.6159 5.79077 79.7905C5.97755 79.9652 6.22322 80.0632 6.47893 80.0649H6.55094C6.81874 80.0456 7.06807 79.9213 7.24462 79.719C7.42117 79.5167 7.51063 79.2528 7.49354 78.9849C7.40844 77.7281 7.49354 77.0669 7.82083 75.5123C8.04993 74.429 8.56377 73.4242 9.17908 72.2198C9.31654 71.9547 9.43764 71.7354 9.52274 71.5652L10.341 71.3983C10.4712 71.3716 10.5949 71.3196 10.705 71.2451C10.8151 71.1707 10.9095 71.0753 10.9828 70.9643C11.056 70.8534 11.1067 70.7291 11.1319 70.5986C11.1571 70.4681 11.1564 70.3339 11.1297 70.2037C11.1031 70.0734 11.051 69.9497 10.9766 69.8396C10.9021 69.7295 10.8067 69.6351 10.6958 69.5619C10.5849 69.4886 10.4606 69.4379 10.3301 69.4127C10.1996 69.3875 10.0654 69.3882 9.93513 69.4149L7.99757 69.8666L7.69319 69.932C2.84275 61.2686 2.80347 51.2765 7.7161 44.1154C11.4996 38.6005 17.1977 36.3226 20.2579 35.4683Z" fill="#8522D7"/>
<path d="M56.3481 12.8655C54.3508 12.0245 52.2397 11.4852 50.0838 11.265C50.06 11.2457 50.0348 11.2282 50.0085 11.2127C48.7877 10.6694 45.5672 9.55659 42.1142 10.9443C40.8408 11.4567 39.6931 12.2382 38.7497 13.2353C38.5753 13.4321 38.484 13.6889 38.4952 13.9516C38.5064 14.2143 38.6192 14.4624 38.8097 14.6436C39.0003 14.8248 39.2537 14.925 39.5166 14.9229C39.7796 14.9209 40.0315 14.8169 40.2192 14.6329C40.9602 13.844 41.8636 13.2253 42.867 12.8197C43.3889 12.6167 43.9325 12.475 44.4871 12.3975C43.2849 12.6956 42.1708 13.2757 41.2371 14.0896C41.0525 14.2721 40.9449 14.5185 40.9364 14.778C40.928 15.0375 41.0193 15.2904 41.1917 15.4846C41.3641 15.6788 41.6043 15.7995 41.863 15.8219C42.1217 15.8442 42.3791 15.7666 42.5823 15.6049C43.1897 15.0773 43.8994 14.6806 44.6671 14.4398C43.9949 14.8497 43.3872 15.3571 42.8637 15.9453C42.7152 16.1523 42.65 16.4076 42.6811 16.6604C42.7121 16.9133 42.8371 17.1452 43.0313 17.3101C43.2255 17.475 43.4746 17.5609 43.7292 17.5505C43.9837 17.5402 44.2251 17.4345 44.4053 17.2545C44.9762 16.5798 45.6947 16.0457 46.5051 15.6932C47.3156 15.3408 48.1962 15.1795 49.079 15.222C51.0335 15.3623 52.9518 15.8222 54.7575 16.5835C58.3249 18.1054 62.0168 20.6255 62.2262 22.8249C62.4717 25.4596 57.8635 30.0253 49.7892 31.5014L50.5125 35.4878C59.8698 33.7859 66.7821 28.0583 66.2519 22.442C65.7839 17.4148 59.1693 14.0699 56.3481 12.8655Z" fill="#8522D7"/>
<path d="M56.4691 12.5871C54.4755 11.7458 52.3694 11.2011 50.2178 10.9703L50.1458 10.931C48.8858 10.3746 45.5638 9.23237 42.0159 10.6626C40.7013 11.1899 39.5173 11.9974 38.5467 13.0289C38.4264 13.1537 38.3321 13.3011 38.2693 13.4626C38.2064 13.6241 38.1762 13.7964 38.1805 13.9697C38.1848 14.1429 38.2234 14.3136 38.2941 14.4717C38.3648 14.6299 38.4662 14.7725 38.5925 14.8912C38.8497 15.1222 39.1855 15.2461 39.5311 15.2376C39.8767 15.229 40.206 15.0887 40.4515 14.8454C40.5071 14.7898 40.5628 14.7309 40.6217 14.6752C40.5972 14.8631 40.6138 15.054 40.6703 15.2348C40.7268 15.4156 40.8219 15.5821 40.949 15.7225C41.1369 15.9268 41.3835 16.0679 41.6548 16.1264C41.9261 16.185 42.2088 16.1583 42.4643 16.0498C42.368 16.2538 42.3274 16.4797 42.3465 16.7044C42.3599 16.8767 42.4073 17.0447 42.4859 17.1986C42.5646 17.3525 42.6729 17.4894 42.8047 17.6012C43.0739 17.8187 43.4161 17.925 43.7612 17.8982C44.1063 17.8715 44.428 17.7137 44.6604 17.4572C45.2469 16.7743 45.9889 16.2422 46.8238 15.9058C47.5467 15.6288 48.3184 15.5018 49.092 15.5327C51.0071 15.671 52.8866 16.1221 54.6559 16.8681C58.027 18.3081 61.7483 20.7955 61.9414 22.8575C62.1803 25.3776 57.6571 29.7731 49.7596 31.2099L49.4585 31.2623L50.2931 35.8443L50.591 35.7887C60.102 34.0606 67.1224 28.1858 66.5791 22.4156C66.0685 17.2215 59.3394 13.8112 56.4691 12.5871ZM50.7644 35.1407L50.1458 31.75C58.2005 30.1921 62.7825 25.5314 62.5272 22.8018C62.2916 20.3177 58.2724 17.7517 54.8752 16.3084C53.0389 15.5358 51.0888 15.0682 49.1018 14.924C48.2401 14.8896 47.3804 15.031 46.5751 15.3396C45.6473 15.713 44.8232 16.3047 44.1728 17.0644C44.0468 17.2021 43.873 17.2865 43.6869 17.3005C43.5009 17.3145 43.3164 17.257 43.1713 17.1397C43.0302 17.0165 42.9433 16.8428 42.9292 16.656C42.9151 16.4692 42.975 16.2844 43.096 16.1415C43.5976 15.5755 44.1812 15.0879 44.8274 14.6949L46.814 13.4381L44.5721 14.1483C43.7658 14.4053 43.0199 14.8228 42.3792 15.3756C42.2364 15.4957 42.053 15.5565 41.8668 15.5455C41.6805 15.5346 41.5055 15.4527 41.3777 15.3167C41.2538 15.1756 41.1904 14.9913 41.2014 14.8039C41.2125 14.6164 41.297 14.4408 41.4366 14.3152C42.3354 13.5316 43.4062 12.9709 44.5623 12.6787L44.4444 12.0831C43.8648 12.1624 43.2968 12.3108 42.7523 12.5249C41.7088 12.9477 40.7688 13.5907 39.9966 14.4101C39.8653 14.5432 39.6874 14.62 39.5004 14.6243C39.3135 14.6286 39.1323 14.56 38.9951 14.433C38.9274 14.3691 38.873 14.2924 38.8351 14.2074C38.7972 14.1224 38.7764 14.0308 38.7739 13.9377C38.7715 13.8446 38.7875 13.752 38.8209 13.6652C38.8544 13.5783 38.9047 13.4989 38.9689 13.4315C39.8808 12.4638 40.9919 11.7056 42.2254 11.2092C43.3121 10.787 44.47 10.5781 45.6358 10.5939C47.1014 10.6059 48.5491 10.9166 49.8905 11.507C49.8905 11.507 49.9102 11.53 49.9396 11.5463L50.0575 11.5823C52.1844 11.799 54.267 12.3319 56.2367 13.1631C59.0056 14.3447 65.5023 17.6208 65.9605 22.4974C66.4645 27.8814 59.814 33.406 50.7644 35.1407Z" fill="white"/>
<path d="M30.0078 102.818L22.6013 109.014L33.8731 109.377V109.341H33.8993L35.6012 44.6819L31.5494 44.5771L30.0078 102.818Z" fill="#8522D7"/>
<path d="M41.8949 44.6095L37.843 44.5342L36.668 109.207H36.6975C36.6969 109.218 36.6969 109.229 36.6975 109.239L47.9726 109.377L40.8377 102.857L41.8949 44.6095Z" fill="#8522D7"/>
<path d="M39.342 2.12416C39.0362 1.48792 38.5569 0.950981 37.9594 0.57518C37.3618 0.199379 36.6703 0 35.9644 0C35.2585 0 34.5669 0.199379 33.9693 0.57518C33.3718 0.950981 32.8925 1.48792 32.5867 2.12416L13.3093 42.2859C13.0355 42.8571 12.9109 43.4883 12.9472 44.1207C12.9835 44.753 13.1794 45.3658 13.5168 45.9019C13.8541 46.438 14.3218 46.8798 14.8762 47.1861C15.4306 47.4925 16.0536 47.6533 16.687 47.6535H55.2417C55.8751 47.6533 56.4981 47.4925 57.0525 47.1861C57.6069 46.8798 58.0746 46.438 58.412 45.9019C58.7493 45.3658 58.9453 44.753 58.9815 44.1207C59.0178 43.4883 58.8932 42.8571 58.6194 42.2859L39.342 2.12416Z" fill="#8522D7"/>
<path d="M40.4777 27.6367C40.0781 27.6361 39.6874 27.754 39.3549 27.9755C39.0224 28.197 38.763 28.5121 38.6097 28.881C38.4563 29.25 38.4159 29.6561 38.4934 30.048C38.571 30.44 38.763 30.8001 39.0453 31.0829C39.3276 31.3656 39.6874 31.5583 40.0792 31.6364C40.471 31.7146 40.8772 31.6748 41.2464 31.5221C41.6156 31.3693 41.9312 31.1105 42.1532 30.7784C42.3753 30.4462 42.4938 30.0556 42.4938 29.6561C42.4938 29.1211 42.2815 28.6079 41.9035 28.2293C41.5255 27.8507 41.0127 27.6376 40.4777 27.6367Z" fill="white"/>
<mask id="mask0_51_2" style="mask-type:luminance" maskUnits="userSpaceOnUse" x="38" y="27" width="5" height="5">
<path d="M40.4779 31.6755C41.5931 31.6755 42.4973 30.7714 42.4973 29.6561C42.4973 28.5408 41.5931 27.6367 40.4779 27.6367C39.3626 27.6367 38.4585 28.5408 38.4585 29.6561C38.4585 30.7714 39.3626 31.6755 40.4779 31.6755Z" fill="white"/>
</mask>
<g mask="url(#mask0_51_2)">
<path d="M39.6204 27.0313C39.2207 27.0306 38.8298 27.1486 38.4972 27.3702C38.1646 27.5919 37.9053 27.9072 37.7521 28.2763C37.5988 28.6455 37.5585 29.0518 37.6364 29.4438C37.7142 29.8358 37.9066 30.1959 38.1892 30.4785C38.4718 30.7612 38.8319 30.9536 39.2239 31.0314C39.616 31.1092 40.0223 31.0689 40.3914 30.9157C40.7605 30.7624 41.0759 30.5031 41.2975 30.1705C41.5192 29.8379 41.6371 29.447 41.6365 29.0474C41.6365 28.5127 41.4241 27.9999 41.046 27.6218C40.6679 27.2437 40.1551 27.0313 39.6204 27.0313Z" fill="#180C47"/>
</g>
<path d="M42.9783 25.3913L38.3537 23.3785C38.23 23.3251 38.0902 23.3231 37.965 23.3728C37.8398 23.4225 37.7394 23.5199 37.686 23.6436C37.6327 23.7673 37.6306 23.9071 37.6803 24.0323C37.73 24.1576 37.8275 24.2579 37.9512 24.3113L42.5758 26.3208C42.6403 26.3467 42.7092 26.36 42.7787 26.3601C42.9023 26.3713 43.0257 26.3366 43.1252 26.2625C43.2248 26.1884 43.2935 26.0802 43.3182 25.9586C43.3429 25.837 43.3219 25.7105 43.2592 25.6034C43.1965 25.4964 43.0965 25.4162 42.9783 25.3782V25.3913Z" fill="#180C47"/>
<path d="M31.4774 27.1328C31.078 27.1328 30.6876 27.2512 30.3555 27.4731C30.0235 27.695 29.7646 28.0104 29.6118 28.3794C29.4589 28.7484 29.419 29.1544 29.4969 29.5462C29.5748 29.9379 29.7671 30.2977 30.0495 30.5801C30.3319 30.8625 30.6918 31.0549 31.0835 31.1328C31.4752 31.2107 31.8812 31.1707 32.2502 31.0179C32.6192 30.865 32.9346 30.6062 33.1565 30.2741C33.3784 29.942 33.4968 29.5516 33.4968 29.1522C33.4973 28.8869 33.4453 28.6241 33.344 28.3789C33.2427 28.1337 33.0939 27.9109 32.9063 27.7233C32.7187 27.5357 32.4959 27.387 32.2507 27.2857C32.0055 27.1843 31.7428 27.1324 31.4774 27.1328Z" fill="white"/>
<mask id="mask1_51_2" style="mask-type:luminance" maskUnits="userSpaceOnUse" x="29" y="27" width="5" height="5">
<path d="M31.4774 31.1716C32.5927 31.1716 33.4968 30.2675 33.4968 29.1522C33.4968 28.0369 32.5927 27.1328 31.4774 27.1328C30.3622 27.1328 29.4581 28.0369 29.4581 29.1522C29.4581 30.2675 30.3622 31.1716 31.4774 31.1716Z" fill="white"/>
</mask>
<g mask="url(#mask1_51_2)">
<path d="M30.62 26.5244C30.2206 26.5244 29.8301 26.6428 29.4981 26.8647C29.166 27.0866 28.9072 27.402 28.7543 27.771C28.6015 28.14 28.5615 28.546 28.6394 28.9378C28.7173 29.3295 28.9096 29.6893 29.192 29.9717C29.4745 30.2541 29.8343 30.4465 30.226 30.5244C30.6177 30.6023 31.0238 30.5623 31.3928 30.4095C31.7618 30.2566 32.0771 29.9978 32.299 29.6657C32.5209 29.3336 32.6394 28.9432 32.6394 28.5438C32.6398 28.2785 32.5878 28.0157 32.4865 27.7705C32.3852 27.5253 32.2364 27.3025 32.0488 27.1149C31.8612 26.9273 31.6385 26.7786 31.3933 26.6773C31.1481 26.5759 30.8853 26.524 30.62 26.5244Z" fill="#180C47"/>
</g>
<path d="M33.981 24.884L29.3531 22.8777C29.2315 22.8331 29.0974 22.8367 28.9784 22.8878C28.8594 22.9389 28.7644 23.0335 28.7129 23.1524C28.6615 23.2712 28.6574 23.4053 28.7016 23.527C28.7457 23.6488 28.8348 23.749 28.9505 23.8072L33.5784 25.8135C33.6412 25.8416 33.7092 25.8561 33.778 25.856C33.899 25.8621 34.0181 25.8247 34.1138 25.7506C34.2096 25.6765 34.2757 25.5706 34.3002 25.452C34.3247 25.3335 34.306 25.21 34.2474 25.1041C34.1889 24.9981 34.0944 24.9165 33.981 24.8742V24.884Z" fill="#180C47"/>
<path d="M33.1499 33.7802C33.136 33.7108 33.1379 33.6391 33.1554 33.5706C33.173 33.502 33.2058 33.4383 33.2513 33.3841C33.298 33.3278 33.3565 33.2825 33.4227 33.2514C33.4889 33.2203 33.5611 33.2041 33.6343 33.2041H38.2949C38.3669 33.2035 38.4382 33.2188 38.5037 33.2488C38.5691 33.2788 38.6272 33.3229 38.6737 33.3778C38.7203 33.4328 38.7541 33.4973 38.773 33.5669C38.7918 33.6364 38.795 33.7092 38.7825 33.7802C38.6621 34.4239 38.3275 35.008 37.8332 35.4376C37.3388 35.8672 36.7137 36.117 36.0595 36.1465H35.9678C35.2969 36.139 34.6493 35.899 34.1354 35.4675C33.6216 35.036 33.2733 34.4397 33.1499 33.7802Z" fill="#180C47"/>
<mask id="mask2_51_2" style="mask-type:luminance" maskUnits="userSpaceOnUse" x="33" y="33" width="6" height="4">
<path d="M33.1499 33.7802C33.136 33.7108 33.1379 33.6391 33.1554 33.5706C33.173 33.502 33.2058 33.4383 33.2513 33.3841C33.298 33.3278 33.3565 33.2825 33.4227 33.2514C33.4889 33.2203 33.5611 33.2041 33.6343 33.2041H38.2949C38.3669 33.2035 38.4382 33.2188 38.5037 33.2488C38.5691 33.2788 38.6272 33.3229 38.6737 33.3778C38.7203 33.4328 38.7541 33.4973 38.773 33.5669C38.7918 33.6364 38.795 33.7092 38.7825 33.7802C38.6621 34.4239 38.3275 35.008 37.8332 35.4376C37.3388 35.8672 36.7137 36.117 36.0595 36.1465H35.9678C35.2969 36.139 34.6493 35.899 34.1354 35.4675C33.6216 35.036 33.2733 34.4397 33.1499 33.7802Z" fill="white"/>
</mask>
<g mask="url(#mask2_51_2)">
<path d="M36.0497 35.8417C36.6729 35.814 37.2652 35.5624 37.7179 35.1331C38.1706 34.7039 38.4533 34.1258 38.5142 33.5049H33.415C33.4791 34.1546 33.7861 34.7562 34.2745 35.1894C34.763 35.6227 35.3969 35.8556 36.0497 35.8417Z" fill="#180C47"/>
<path d="M36.701 34.7453C35.31 34.3722 33.9288 35.557 34.0368 36.0545C34.2005 36.7811 37.8923 36.948 38.1672 36.1559C38.3145 35.7206 37.5192 34.9679 36.701 34.7453Z" fill="#FFC5E1"/>
</g>
<path d="M56.3481 12.8655C54.3508 12.0245 52.2397 11.4852 50.0838 11.265C50.06 11.2457 50.0348 11.2282 50.0085 11.2127C48.7877 10.6694 45.5672 9.55659 42.1142 10.9443C40.8408 11.4567 39.6931 12.2382 38.7497 13.2353C38.5753 13.4321 38.484 13.6889 38.4952 13.9516C38.5064 14.2143 38.6192 14.4624 38.8097 14.6436C39.0003 14.8248 39.2537 14.925 39.5166 14.923C39.7796 14.9209 40.0315 14.8169 40.2192 14.6329C40.9602 13.844 41.8636 13.2253 42.867 12.8197C43.3889 12.6167 43.9325 12.475 44.4871 12.3975C43.2849 12.6956 42.1708 13.2757 41.2371 14.0896C41.0525 14.2721 40.9449 14.5185 40.9364 14.778C40.928 15.0375 41.0193 15.2904 41.1917 15.4846C41.3641 15.6788 41.6043 15.7995 41.863 15.8219C42.1217 15.8442 42.3791 15.7666 42.5823 15.6049C43.1897 15.0773 43.8994 14.6806 44.6671 14.4398C43.9949 14.8497 43.3872 15.3571 42.8637 15.9453C42.7152 16.1523 42.65 16.4076 42.6811 16.6604C42.7121 16.9133 42.8371 17.1452 43.0313 17.3101C43.2255 17.475 43.4746 17.5609 43.7292 17.5505C43.9837 17.5402 44.2251 17.4345 44.4053 17.2545C44.9762 16.5798 45.6947 16.0457 46.5051 15.6932C47.3156 15.3408 48.1962 15.1795 49.079 15.222C51.0335 15.3623 52.9518 15.8222 54.7575 16.5835C58.829 18.3181 62.0888 20.0888 62.2262 22.8249C62.3408 25.1421 60.1152 27.5019 57.0747 28.9387C57.7773 30.0973 58.4831 31.2537 59.1922 32.408C63.5714 30.1431 66.517 26.2418 66.2585 22.442C65.8788 16.9239 58.865 13.939 56.3481 12.8655Z" fill="#8522D7"/>
<path d="M56.4692 12.5871C54.4756 11.7458 52.3695 11.2011 50.218 10.9703L50.146 10.931C48.8859 10.3746 45.5639 9.23237 42.0161 10.6626C40.7014 11.1899 39.5175 11.9974 38.5468 13.0289C38.4268 13.1542 38.3329 13.302 38.2706 13.4638C38.2082 13.6256 38.1786 13.7982 38.1835 13.9715C38.1876 14.1442 38.2259 14.3144 38.2961 14.4723C38.3663 14.6301 38.4671 14.7725 38.5926 14.8912C38.8499 15.1222 39.1856 15.2461 39.5312 15.2376C39.8768 15.229 40.2061 15.0887 40.4516 14.8454C40.5073 14.7898 40.5629 14.7309 40.6218 14.6752C40.5973 14.8631 40.6139 15.054 40.6704 15.2348C40.7269 15.4156 40.822 15.5821 40.9491 15.7225C41.1371 15.9268 41.3836 16.0679 41.6549 16.1264C41.9262 16.185 42.209 16.1583 42.4645 16.0498C42.3682 16.2538 42.3275 16.4797 42.3466 16.7044C42.36 16.8767 42.4074 17.0447 42.4861 17.1986C42.5647 17.3525 42.673 17.4894 42.8048 17.6012C43.074 17.8187 43.4163 17.925 43.7613 17.8982C44.1064 17.8715 44.4282 17.7137 44.6606 17.4572C45.247 16.7743 45.989 16.2422 46.824 15.9058C47.5468 15.6288 48.3186 15.5018 49.0921 15.5327C51.0072 15.671 52.8868 16.1221 54.656 16.8681C58.0271 18.3081 61.7484 20.7955 61.9415 22.8575C62.0691 24.2321 60.5636 26.6377 56.9438 28.6832L57.2449 29.2102C60.5996 27.3152 62.7303 24.7394 62.547 22.8018C62.3113 20.3177 58.2922 17.7517 54.8949 16.3084C53.0586 15.5358 51.1085 15.0682 49.1215 14.924C48.2598 14.8896 47.4001 15.031 46.5949 15.3396C45.667 15.713 44.843 16.3047 44.1925 17.0644C44.0665 17.2021 43.8928 17.2865 43.7067 17.3005C43.5206 17.3145 43.3362 17.257 43.191 17.1397C43.05 17.0165 42.963 16.8428 42.949 16.656C42.9349 16.4692 42.9948 16.2844 43.1158 16.1415C43.6174 15.5755 44.201 15.0879 44.8471 14.6949C44.8936 14.6768 44.9359 14.6493 44.9712 14.6141C45.0066 14.5789 45.0342 14.5367 45.0523 14.4902C45.0705 14.4437 45.0788 14.394 45.0767 14.3441C45.0746 14.2943 45.0622 14.2454 45.0402 14.2006C44.983 14.1415 44.9071 14.1041 44.8254 14.0945C44.7437 14.085 44.6612 14.104 44.5918 14.1483C43.7856 14.4053 43.0397 14.8228 42.399 15.3756C42.2562 15.4957 42.0728 15.5565 41.8865 15.5455C41.7003 15.5346 41.5253 15.4527 41.3975 15.3167C41.2735 15.1756 41.2102 14.9913 41.2212 14.8039C41.2322 14.6164 41.3167 14.4408 41.4564 14.3152C42.3551 13.5316 43.426 12.9709 44.582 12.6787L44.4642 12.0831C43.8846 12.1624 43.3165 12.3108 42.7721 12.5249C41.7285 12.9477 40.7885 13.5907 40.0163 14.4101C39.885 14.5432 39.7071 14.62 39.5202 14.6243C39.3333 14.6286 39.1521 14.56 39.0148 14.433C38.9461 14.3702 38.8912 14.2939 38.8535 14.2089C38.8157 14.1238 38.796 14.0319 38.7955 13.9388C38.792 13.8456 38.8072 13.7527 38.8404 13.6655C38.8736 13.5783 38.924 13.4988 38.9886 13.4315C39.9005 12.4638 41.0116 11.7056 42.2452 11.2092C45.5868 9.87059 48.7157 10.9441 49.9038 11.4743C49.9038 11.4743 49.9234 11.4972 49.9529 11.5136L50.0707 11.5496C52.1976 11.7663 54.2802 12.2991 56.2499 13.1304C59.0188 14.3119 65.5155 17.5881 65.9737 22.4647C66.301 25.8751 63.7121 29.4916 59.0614 32.1362L59.3625 32.6664C64.226 29.8975 66.9261 26.0616 66.5628 22.4058C66.0686 17.2215 59.3395 13.8112 56.4692 12.5871Z" fill="white"/>
<path d="M38.2947 32.8995H33.6341C33.5172 32.899 33.4016 32.9243 33.2956 32.9736C33.1895 33.0229 33.0957 33.0949 33.0207 33.1846C32.9457 33.2743 32.8913 33.3794 32.8616 33.4925C32.8319 33.6056 32.8274 33.7238 32.8486 33.8388C32.982 34.5703 33.3667 35.2321 33.9362 35.7102C34.5056 36.1882 35.2242 36.4524 35.9677 36.4571H36.0691C36.7932 36.4255 37.4851 36.1494 38.032 35.6739C38.5789 35.1983 38.9484 34.5514 39.0802 33.8388C39.1015 33.7241 39.0975 33.6062 39.0687 33.4932C39.0399 33.3801 38.9869 33.2747 38.9133 33.1842C38.8378 33.0937 38.7432 33.0212 38.6362 32.972C38.5292 32.9227 38.4125 32.898 38.2947 32.8995ZM36.0495 35.8451H35.9677C35.3687 35.8337 34.7919 35.6172 34.3332 35.2319C33.8746 34.8465 33.562 34.3155 33.4475 33.7275C33.4426 33.7011 33.4436 33.6739 33.4504 33.6479C33.4572 33.6219 33.4696 33.5977 33.4868 33.577C33.5049 33.5555 33.5274 33.5382 33.5529 33.5264C33.5783 33.5145 33.606 33.5083 33.6341 33.5082H38.2947C38.3231 33.5085 38.351 33.5151 38.3765 33.5275C38.402 33.54 38.4244 33.558 38.442 33.5802C38.4585 33.6007 38.4706 33.6243 38.4774 33.6497C38.4841 33.6751 38.4855 33.7016 38.4813 33.7275C38.3746 34.3029 38.076 34.8252 37.6344 35.2091C37.1928 35.5931 36.6341 35.8161 36.0495 35.8418V35.8451Z" fill="#180C47"/>
</svg>
