<svg width="284" height="135" viewBox="0 0 284 135" fill="none" xmlns="http://www.w3.org/2000/svg">
<path d="M269.252 75.1913C271.305 69.0049 271.705 62.3892 270.412 56.0006C267.175 39.8305 253.397 27.4347 236.97 25.9812C214.666 24.0126 195.954 41.5364 195.954 63.4311C195.96 68.9375 197.182 74.3745 199.534 79.3534C198.357 84.2635 197.01 89.1668 195.448 93.9518C192.949 101.561 189.968 109.004 186.521 116.233C185.229 116.253 183.94 116.309 182.665 116.444C181.881 116.528 181.126 116.628 180.399 116.746C180.133 116.791 179.892 116.934 179.725 117.147C179.559 117.361 179.478 117.629 179.5 117.899C179.521 118.169 179.643 118.421 179.841 118.605C180.04 118.789 180.3 118.893 180.57 118.895C180.628 118.895 180.686 118.891 180.744 118.881C181.162 118.814 181.612 118.766 182.053 118.707C181.229 119.113 180.433 119.573 179.67 120.083C179.552 120.163 179.452 120.265 179.373 120.384C179.295 120.503 179.241 120.636 179.215 120.775C179.188 120.915 179.189 121.058 179.218 121.197C179.246 121.336 179.302 121.469 179.382 121.586C179.462 121.704 179.564 121.804 179.683 121.883C179.801 121.961 179.934 122.015 180.074 122.041C180.213 122.068 180.357 122.067 180.496 122.038C180.635 122.01 180.767 121.954 180.885 121.874C181.746 121.289 182.655 120.776 183.6 120.34C183.841 120.226 184.1 120.167 184.346 120.067C183.756 120.525 183.207 121.033 182.707 121.587C182.613 121.694 182.54 121.817 182.494 121.952C182.448 122.086 182.429 122.228 182.438 122.37C182.446 122.511 182.483 122.65 182.545 122.777C182.607 122.905 182.694 123.019 182.801 123.113C182.907 123.207 183.031 123.279 183.165 123.325C183.299 123.372 183.441 123.391 183.583 123.382C183.725 123.373 183.863 123.337 183.991 123.274C184.118 123.212 184.232 123.125 184.326 123.019C185.831 121.316 187.846 120.145 190.071 119.681C190.166 119.655 190.257 119.616 190.342 119.566L191.996 121.049C192.099 121.154 192.223 121.236 192.36 121.291C192.497 121.347 192.643 121.373 192.79 121.37C192.938 121.366 193.083 121.332 193.217 121.271C193.35 121.209 193.47 121.121 193.569 121.011C193.667 120.902 193.742 120.773 193.789 120.634C193.837 120.494 193.855 120.346 193.843 120.2C193.831 120.053 193.789 119.91 193.719 119.78C193.65 119.65 193.555 119.535 193.44 119.443L190.871 117.138C194.208 110.043 197.108 102.75 199.554 95.2998C200.685 91.8432 201.689 88.3247 202.625 84.789C207.449 91.7737 214.492 96.9233 222.61 99.4023V127.598L216.836 132.753C216.822 132.766 214.903 134.474 214.886 134.491H226.932V100.419C229.115 100.819 231.329 101.025 233.548 101.036C234.615 101.036 235.664 100.964 236.707 100.876L240.176 134.49H252.213L243.747 126.93L240.999 100.287C248.647 98.7342 255.621 94.8341 260.947 89.1301C273.183 97.0711 278.224 99.1258 280.65 99.1258C281.994 99.1258 282.537 98.4971 283.059 97.8903C284.877 95.7817 284.956 92.7071 269.248 75.1913H269.252ZM278.913 94.3155C276.911 93.6065 272.65 91.5186 263.748 85.7721C265.169 83.8537 266.405 81.8039 267.437 79.6506C275.05 88.249 277.887 92.3847 278.909 94.3155H278.913Z" fill="#FFB73E"/>
<path d="M244.573 55.971C243.561 55.3932 242.428 55.0585 241.264 54.9932C240.101 54.928 238.938 55.134 237.867 55.5949C236.797 56.0559 235.848 56.7593 235.095 57.6496C234.343 58.5399 233.808 59.5928 233.532 60.7252C233.256 61.8577 233.247 63.0387 233.506 64.1752C233.764 65.3118 234.283 66.3727 235.022 67.2743C235.761 68.176 236.699 68.8938 237.762 69.371C238.825 69.8483 239.985 70.072 241.15 70.0245L243.713 79.0565C244.019 80.1705 245.016 80.868 245.94 80.6145C246.865 80.3609 247.366 79.2504 247.06 78.1365L244.491 69.0826C245.662 68.4381 246.639 67.4931 247.323 66.3448C248.006 65.1966 248.371 63.8869 248.379 62.5507C248.387 61.2145 248.039 59.9003 247.37 58.7437C246.701 57.5871 245.735 56.6299 244.573 55.971ZM242.155 67.2642C241.728 67.3811 241.289 67.4405 240.847 67.4409C239.655 67.4396 238.504 67.0063 237.607 66.2213C236.711 65.4363 236.129 64.3529 235.97 63.1718C235.811 61.9906 236.086 60.7919 236.743 59.7978C237.4 58.8037 238.396 58.0815 239.545 57.7652C240.168 57.5939 240.82 57.5472 241.462 57.6276C242.103 57.708 242.723 57.9141 243.285 58.234C243.847 58.5539 244.341 58.9814 244.738 59.4921C245.135 60.0028 245.427 60.5866 245.599 61.2103C245.77 61.8341 245.817 62.4854 245.736 63.1272C245.656 63.769 245.45 64.3886 245.13 64.9508C244.81 65.513 244.382 66.0066 243.872 66.4035C243.361 66.8005 242.777 67.0929 242.153 67.2642H242.155Z" fill="#180C47"/>
<path d="M228.113 59.8506C227.514 59.8506 226.928 60.0284 226.429 60.3615C225.931 60.6946 225.542 61.168 225.313 61.7219C225.084 62.2758 225.024 62.8853 225.141 63.4733C225.258 64.0613 225.546 64.6013 225.97 65.0252C226.394 65.449 226.935 65.7376 227.523 65.8544C228.111 65.9712 228.72 65.911 229.274 65.6815C229.828 65.4519 230.301 65.0632 230.634 64.5646C230.967 64.066 231.144 63.4799 231.144 62.8804C231.144 62.4824 231.066 62.0882 230.914 61.7205C230.761 61.3528 230.538 61.0186 230.257 60.7373C229.975 60.4559 229.641 60.2327 229.273 60.0806C228.905 59.9284 228.511 59.8503 228.113 59.8506Z" fill="white"/>
<path d="M227.562 61.5801C227.168 61.5801 226.784 61.6967 226.456 61.9153C226.129 62.1339 225.874 62.4446 225.724 62.8081C225.573 63.1716 225.534 63.5716 225.61 63.9575C225.687 64.3433 225.877 64.6978 226.155 64.976C226.433 65.2542 226.788 65.4437 227.173 65.5204C227.559 65.5972 227.959 65.5578 228.323 65.4072C228.686 65.2567 228.997 65.0017 229.216 64.6745C229.434 64.3474 229.551 63.9628 229.551 63.5694C229.551 63.3081 229.5 63.0493 229.4 62.8079C229.3 62.5665 229.153 62.3471 228.969 62.1624C228.784 61.9776 228.564 61.8311 228.323 61.7312C228.082 61.6313 227.823 61.5799 227.562 61.5801Z" fill="#180C47"/>
<path d="M240.85 59.1074C240.104 59.1074 239.375 59.3285 238.755 59.7427C238.136 60.157 237.652 60.7457 237.367 61.4346C237.082 62.1234 237.007 62.8814 237.153 63.6126C237.298 64.3439 237.657 65.0156 238.184 65.5428C238.711 66.07 239.383 66.4291 240.114 66.5745C240.846 66.72 241.604 66.6453 242.292 66.36C242.981 66.0747 243.57 65.5915 243.984 64.9716C244.399 64.3516 244.62 63.6228 244.62 62.8772C244.62 61.8774 244.222 60.9185 243.515 60.2116C242.809 59.5046 241.85 59.1074 240.85 59.1074Z" fill="white"/>
<path d="M240.298 66.0425C241.664 66.0425 242.771 64.9351 242.771 63.5691C242.771 62.2031 241.664 61.0957 240.298 61.0957C238.932 61.0957 237.824 62.2031 237.824 63.5691C237.824 64.9351 238.932 66.0425 240.298 66.0425Z" fill="#180C47"/>
<path d="M232.795 68.1514C232.517 68.1514 232.246 68.2337 232.015 68.388C231.784 68.5423 231.604 68.7616 231.498 69.0182C231.391 69.2748 231.363 69.5571 231.418 69.8295C231.472 70.1019 231.606 70.3521 231.802 70.5485C231.998 70.7449 232.248 70.8786 232.521 70.9328C232.793 70.987 233.076 70.9592 233.332 70.8529C233.589 70.7466 233.808 70.5666 233.962 70.3357C234.117 70.1048 234.199 69.8333 234.199 69.5556C234.198 69.1834 234.05 68.8268 233.787 68.5637C233.524 68.3005 233.167 68.1523 232.795 68.1514ZM232.795 70.3104C232.645 70.3109 232.499 70.2669 232.374 70.1841C232.249 70.1012 232.152 69.9832 232.095 69.8451C232.037 69.7069 232.022 69.5548 232.051 69.4079C232.08 69.2611 232.152 69.1262 232.258 69.0202C232.363 68.9143 232.498 68.8422 232.645 68.813C232.792 68.7837 232.944 68.7987 233.082 68.8561C233.22 68.9134 233.338 69.0105 233.422 69.135C233.505 69.2595 233.549 69.4059 233.549 69.5556C233.549 69.7556 233.469 69.9474 233.328 70.0889C233.187 70.2305 232.995 70.3101 232.795 70.3104Z" fill="#180C47"/>
<path d="M275.517 89.3134C276.242 90.2209 276.985 91.235 277.717 92.3581C278.153 93.0274 278.552 93.6797 278.913 94.3153C276.045 93.3012 268.58 89.4832 249.412 76.0871C249.182 74.841 248.616 73.6812 247.776 72.7326C247.317 72.2221 246.102 70.8626 244.006 70.6137C242.285 70.4049 240.922 71.0726 240.264 71.4902C240.029 71.6467 239.865 71.889 239.806 72.1651C239.747 72.4413 239.798 72.7295 239.949 72.9682C240.1 73.2069 240.338 73.3772 240.613 73.4427C240.888 73.5082 241.177 73.4638 241.419 73.3188C242.112 72.8774 242.933 72.6811 243.75 72.7613C244.098 72.8064 244.435 72.9092 244.748 73.0653C244.589 73.0184 244.426 72.9801 244.262 72.9506C242.026 72.6362 240.405 74.0565 240.102 74.3445C239.99 74.4398 239.898 74.5572 239.833 74.6892C239.768 74.8213 239.73 74.9653 239.722 75.1125C239.714 75.2596 239.737 75.4068 239.788 75.545C239.839 75.6831 239.918 75.8094 240.02 75.916C240.122 76.0226 240.244 76.1072 240.38 76.1648C240.515 76.2224 240.661 76.2517 240.809 76.2508C240.956 76.25 241.102 76.219 241.237 76.1599C241.372 76.1008 241.493 76.0147 241.594 75.907C241.701 75.8037 242.68 74.9146 243.949 75.0924C244.307 75.1523 244.649 75.2876 244.952 75.4894C244.522 75.394 244.079 75.37 243.641 75.4183C242.265 75.5743 241.341 76.3991 240.914 76.8764C240.82 76.9826 240.747 77.1064 240.7 77.2409C240.653 77.3753 240.633 77.5176 240.641 77.6598C240.649 77.802 240.685 77.9411 240.747 78.0694C240.808 78.1977 240.895 78.3125 241.001 78.4073C241.107 78.5022 241.231 78.5752 241.366 78.6221C241.5 78.6691 241.642 78.6892 241.784 78.6811C241.927 78.6731 242.066 78.6371 242.194 78.5753C242.322 78.5134 242.437 78.4269 242.532 78.3207C242.753 78.0741 243.22 77.6462 243.891 77.5704C244.809 77.4718 245.768 78.0592 246.291 79.0458C246.326 79.1112 246.391 79.1421 246.436 79.1972L246.392 79.2592C269.598 95.5061 277.431 99.1256 280.652 99.1256C281.996 99.1256 282.539 98.4969 283.061 97.89C283.335 97.5375 283.565 97.1521 283.744 96.7428C284.159 95.7413 282.245 91.4163 278.539 86.1517C277.532 87.2025 276.525 88.2564 275.517 89.3134Z" fill="#FFB73E"/>
<path d="M188.145 80.358C187.711 80.5026 187.289 80.6506 186.883 80.802L187.112 81.41C187.511 81.2609 187.925 81.1148 188.354 80.9718C188.745 80.841 189.129 80.7194 189.501 80.607L189.315 79.9863C188.932 80.1011 188.544 80.225 188.145 80.358Z" fill="#180C47"/>
<path d="M189.741 81.8487C189.468 82.0337 189.21 82.2393 188.969 82.4636L189.412 82.9386C189.626 82.737 189.856 82.5529 190.1 82.3879C190.359 82.2145 190.633 82.0636 190.918 81.937L190.655 81.3428C190.337 81.4854 190.031 81.6547 189.741 81.8487Z" fill="#180C47"/>
<path d="M21.9198 46.421L20.3756 41.8447C6.94278 49.3694 -1.32296 57.471 0.184493 61.2328C1.0885 63.4813 6.5642 66.5811 9.4334 68.2056C10.2973 68.6955 11.0395 69.0809 11.5741 69.3528L11.4777 69.3666C11.3974 69.3804 11.3137 69.3918 11.2277 69.4045C10.9256 69.4485 10.6515 69.6053 10.4605 69.8433C10.2694 70.0813 10.1757 70.3829 10.1981 70.6873C10.2205 70.9917 10.3574 71.2763 10.5812 71.4838C10.805 71.6913 11.0991 71.8063 11.4043 71.8056C11.4642 71.8053 11.524 71.8011 11.5833 71.793C12.2315 71.6966 12.7959 71.5968 13.3041 71.4878C13.0023 71.5655 12.7423 71.7572 12.579 72.0227C12.4157 72.2881 12.3617 72.6066 12.4285 72.911C12.4952 73.2155 12.6775 73.4821 12.9369 73.6549C13.1963 73.8277 13.5126 73.8931 13.8192 73.8373C14.1416 73.7727 14.4593 73.6869 14.7703 73.5803C14.7405 73.5953 14.7164 73.6148 14.6854 73.6297C14.541 73.6991 14.4119 73.7966 14.3056 73.9165C14.1993 74.0364 14.1179 74.1762 14.0662 74.3278C14.0145 74.4795 13.9935 74.6399 14.0045 74.7998C14.0154 74.9596 14.0581 75.1157 14.13 75.2588C14.2019 75.402 14.3016 75.5295 14.4232 75.6337C14.5449 75.738 14.6861 75.8169 14.8386 75.8661C14.9911 75.9152 15.1518 75.9334 15.3115 75.9198C15.4711 75.9061 15.6264 75.8608 15.7684 75.7865C19.5163 73.9073 20.7794 70.445 19.8341 68.1827C19.3511 67.0274 18.2636 66.1073 16.6827 65.5681L13.646 64.7731C13.5565 64.7502 13.5118 64.7376 13.5072 64.7376C12.1236 64.3727 6.25215 61.842 5.55005 59.7609C4.63572 57.0397 11.3481 51.5537 21.9198 46.421Z" fill="#FF2340"/>
<path d="M57.5617 41.8447L56.0176 46.421C66.5835 51.5537 73.2959 57.0397 72.3781 59.7586C71.676 61.8397 65.8045 64.3704 64.4198 64.7353L64.281 64.7708L61.2455 65.5659C59.6646 66.105 58.5759 67.0251 58.0941 68.1804C57.1487 70.4427 58.4118 73.905 62.1598 75.7842C62.3019 75.8603 62.4578 75.9071 62.6184 75.922C62.7789 75.9368 62.9408 75.9194 63.0944 75.8707C63.2481 75.8219 63.3904 75.7429 63.513 75.6383C63.6357 75.5336 63.7361 75.4054 63.8084 75.2614C63.8806 75.1173 63.9233 74.9601 63.9339 74.7993C63.9444 74.6384 63.9226 74.4771 63.8698 74.3248C63.817 74.1725 63.7342 74.0323 63.6263 73.9125C63.5184 73.7927 63.3876 73.6958 63.2416 73.6274C63.2118 73.6125 63.1866 73.593 63.1579 73.578C63.4686 73.6844 63.7859 73.7703 64.1078 73.835C64.4149 73.8919 64.732 73.8273 64.9923 73.6547C65.2525 73.482 65.4355 73.215 65.5025 72.91C65.5695 72.605 65.5153 72.2859 65.3514 72.0201C65.1875 71.7543 64.9267 71.5626 64.624 71.4855C65.1311 71.6002 65.6967 71.6943 66.3449 71.7907C66.4042 71.7989 66.464 71.8031 66.5238 71.8033C66.829 71.804 67.1232 71.689 67.347 71.4815C67.5708 71.274 67.7077 70.9894 67.7301 70.685C67.7525 70.3806 67.6587 70.079 67.4677 69.841C67.2767 69.603 67.0025 69.4462 66.7005 69.4022C66.6145 69.3895 66.5307 69.3781 66.4504 69.3643L66.3541 69.3505C66.891 69.0786 67.6298 68.6932 68.4948 68.2033C71.364 66.5823 76.8351 63.4848 77.7437 61.2305C79.2534 57.471 70.9842 49.3739 57.5617 41.8447Z" fill="#FF2340"/>
<path d="M43.7273 86.6924H38.8987V133.289H52.3464L43.7273 125.594V86.6924Z" fill="#FF2340"/>
<path d="M29.9245 86.1416L20.4186 123.828L9.85156 130.819L23.1502 132.751L34.6063 87.3232L29.9245 86.1416Z" fill="#FF2340"/>
<path d="M57.8091 0H20.0104C18.9422 0 18.0762 0.865979 18.0762 1.93422V92.294C18.0762 93.3623 18.9422 94.2283 20.0104 94.2283H57.8091C58.8773 94.2283 59.7433 93.3623 59.7433 92.294V1.93422C59.7433 0.865979 58.8773 0 57.8091 0Z" fill="#FF2340"/>
<path d="M32.456 30.9492C32.0041 30.9494 31.5623 31.0837 31.1867 31.3349C30.811 31.5862 30.5183 31.9431 30.3455 32.3607C30.1727 32.7783 30.1276 33.2378 30.2159 33.681C30.3042 34.1242 30.522 34.5313 30.8416 34.8508C31.1613 35.1703 31.5685 35.3878 32.0117 35.4759C32.455 35.564 32.9144 35.5187 33.3319 35.3457C33.7495 35.1727 34.1063 34.8798 34.3574 34.504C34.6084 34.1282 34.7424 33.6864 34.7424 33.2345C34.7424 32.9343 34.6833 32.637 34.5683 32.3597C34.4534 32.0824 34.285 31.8304 34.0727 31.6182C33.8603 31.4059 33.6083 31.2376 33.3309 31.1228C33.0535 31.0081 32.7562 30.9491 32.456 30.9492Z" fill="white"/>
<mask id="mask0_334_31625" style="mask-type:luminance" maskUnits="userSpaceOnUse" x="30" y="30" width="5" height="6">
<path d="M32.4415 35.5168C33.7036 35.5168 34.7268 34.4937 34.7268 33.2316C34.7268 31.9694 33.7036 30.9463 32.4415 30.9463C31.1794 30.9463 30.1562 31.9694 30.1562 33.2316C30.1562 34.4937 31.1794 35.5168 32.4415 35.5168Z" fill="white"/>
</mask>
<g mask="url(#mask0_334_31625)">
<path d="M34.4571 30.8076C34.0052 30.8076 33.5633 30.9416 33.1875 31.1928C32.8117 31.4439 32.5188 31.8008 32.3458 32.2184C32.1729 32.6359 32.1276 33.0954 32.2158 33.5387C32.304 33.982 32.5216 34.3892 32.8412 34.7088C33.1608 35.0284 33.568 35.2461 34.0113 35.3342C34.4546 35.4224 34.9141 35.3772 35.3317 35.2042C35.7493 35.0312 36.1062 34.7383 36.3573 34.3625C36.6084 33.9867 36.7424 33.5449 36.7424 33.0929C36.7424 32.4868 36.5016 31.9055 36.0731 31.477C35.6445 31.0484 35.0632 30.8076 34.4571 30.8076Z" fill="#180C47"/>
</g>
<path d="M35.5345 27.6801L30.1999 25.6472C30.051 25.5868 29.8915 25.5567 29.7307 25.5587C29.57 25.5607 29.4113 25.5948 29.264 25.659C29.1166 25.7232 28.9836 25.8162 28.8726 25.9325C28.7617 26.0488 28.6751 26.1861 28.6179 26.3363C28.5608 26.4865 28.5342 26.6467 28.5398 26.8073C28.5454 26.9679 28.583 27.1258 28.6504 27.2717C28.7178 27.4176 28.8137 27.5486 28.9324 27.657C29.0511 27.7653 29.1903 27.8488 29.3418 27.9027L34.6764 29.9367C34.8245 29.993 34.9823 30.0196 35.1408 30.015C35.2993 30.0104 35.4552 29.9745 35.5999 29.9096C35.7445 29.8447 35.8749 29.7519 35.9836 29.6366C36.0924 29.5212 36.1774 29.3856 36.2337 29.2375C36.2901 29.0893 36.3167 28.9315 36.312 28.773C36.3074 28.6146 36.2716 28.4586 36.2066 28.314C36.1417 28.1693 36.0489 28.0389 35.9336 27.9302C35.8183 27.8214 35.6827 27.7364 35.5345 27.6801Z" fill="#180C47"/>
<path d="M44.0392 30.9492C43.5872 30.9492 43.1454 31.0832 42.7695 31.3344C42.3937 31.5855 42.1008 31.9424 41.9279 32.36C41.7549 32.7775 41.7096 33.237 41.7978 33.6803C41.886 34.1236 42.1036 34.5308 42.4232 34.8504C42.7428 35.17 43.15 35.3877 43.5933 35.4758C44.0366 35.564 44.4961 35.5188 44.9137 35.3458C45.3313 35.1728 45.6882 34.8799 45.9393 34.5041C46.1904 34.1283 46.3244 33.6865 46.3244 33.2345C46.3244 32.6284 46.0837 32.0471 45.6551 31.6186C45.2265 31.19 44.6453 30.9492 44.0392 30.9492Z" fill="white"/>
<mask id="mask1_334_31625" style="mask-type:luminance" maskUnits="userSpaceOnUse" x="41" y="30" width="6" height="6">
<path d="M44.0255 35.5168C45.2876 35.5168 46.3108 34.4937 46.3108 33.2316C46.3108 31.9694 45.2876 30.9463 44.0255 30.9463C42.7634 30.9463 41.7402 31.9694 41.7402 33.2316C41.7402 34.4937 42.7634 35.5168 44.0255 35.5168Z" fill="white"/>
</mask>
<g mask="url(#mask1_334_31625)">
<path d="M46.0431 30.8076C45.5911 30.8076 45.1493 30.9416 44.7735 31.1928C44.3976 31.4439 44.1047 31.8008 43.9318 32.2184C43.7588 32.6359 43.7135 33.0954 43.8017 33.5387C43.8899 33.982 44.1076 34.3892 44.4272 34.7088C44.7468 35.0284 45.1539 35.2461 45.5972 35.3342C46.0405 35.4224 46.5 35.3772 46.9176 35.2042C47.3352 35.0312 47.6921 34.7383 47.9432 34.3625C48.1943 33.9867 48.3284 33.5449 48.3284 33.0929C48.3284 32.4868 48.0876 31.9055 47.659 31.477C47.2304 31.0484 46.6492 30.8076 46.0431 30.8076Z" fill="#180C47"/>
</g>
<path d="M46.1398 25.5221L40.928 27.8579C40.7796 27.9201 40.6451 28.0113 40.5325 28.1262C40.4198 28.2412 40.3313 28.3774 40.2721 28.5271C40.2129 28.6767 40.1843 28.8367 40.1878 28.9976C40.1913 29.1585 40.227 29.317 40.2927 29.4639C40.3585 29.6108 40.4529 29.743 40.5705 29.8529C40.6881 29.9628 40.8264 30.048 40.9774 30.1036C41.1284 30.1592 41.289 30.184 41.4498 30.1766C41.6106 30.1692 41.7682 30.1298 41.9135 30.0606L47.123 27.726C47.4153 27.5953 47.6436 27.3539 47.7579 27.0548C47.8721 26.7557 47.8629 26.4236 47.7322 26.1313C47.6015 25.8391 47.3601 25.6107 47.061 25.4965C46.762 25.3822 46.4298 25.3915 46.1375 25.5221H46.1398Z" fill="#180C47"/>
<path d="M37.4848 38.4662C36.6535 38.1857 35.7532 38.1857 34.9219 38.4662L35.1513 39.1545C35.8325 38.9238 36.5707 38.9238 37.2519 39.1545C37.9501 39.4022 38.5658 39.8391 39.0301 40.4165L39.5911 39.9576C39.0408 39.2748 38.3116 38.7584 37.4848 38.4662Z" fill="#180C47"/>
<path d="M64.7898 46.2764L63.007 50.193C69.568 52.7364 73.1404 57.2427 72.3798 59.7551C71.5768 62.4189 65.4058 64.4851 64.4215 64.7317L64.2827 64.7673L61.2472 65.5623C59.6663 66.1015 58.5776 67.0216 58.0957 68.1768C57.1504 70.4392 58.4135 73.9015 62.1615 75.7806C62.3036 75.8567 62.4595 75.9036 62.62 75.9185C62.7806 75.9333 62.9424 75.9159 63.0961 75.8671C63.2498 75.8184 63.3921 75.7394 63.5147 75.6347C63.6374 75.5301 63.7378 75.4019 63.81 75.2578C63.8823 75.1137 63.925 74.9566 63.9356 74.7958C63.9461 74.6349 63.9243 74.4735 63.8715 74.3212C63.8187 74.1689 63.7359 74.0288 63.628 73.909C63.5201 73.7892 63.3893 73.6923 63.2433 73.6239C63.2135 73.6089 63.1883 73.5894 63.1596 73.5745C63.4702 73.6809 63.7876 73.7668 64.1095 73.8315C64.4194 73.8962 64.7424 73.8359 65.0082 73.6639C65.274 73.4919 65.4613 73.2219 65.5292 72.9127C65.5972 72.6034 65.5405 72.2799 65.3713 72.0122C65.2021 71.7446 64.9342 71.5544 64.6257 71.4831C65.134 71.591 65.6984 71.6908 66.3466 71.7872C66.4059 71.7953 66.4657 71.7996 66.5255 71.7998C66.8307 71.8004 67.1249 71.6854 67.3487 71.4779C67.5725 71.2704 67.7094 70.9858 67.7318 70.6815C67.7542 70.3771 67.6604 70.0755 67.4694 69.8375C67.2783 69.5995 67.0042 69.4426 66.7022 69.3986C66.6162 69.386 66.5324 69.3745 66.4521 69.3608L66.3557 69.347C66.8926 69.0751 67.6315 68.6896 68.4965 68.1998C72.9179 65.6954 76.9217 63.4468 77.7454 61.227C79.0291 57.7612 73.6234 51.51 64.7898 46.2764Z" fill="#FF2340"/>
<path d="M63.3605 73.276C63.0324 73.0465 62.6722 72.8286 62.2993 72.606C62.0332 72.4477 61.7682 72.302 61.5135 72.1655C61.4715 72.1429 61.4255 72.1288 61.3781 72.1239C61.3307 72.1191 61.2828 72.1237 61.2372 72.1374C61.1915 72.1511 61.149 72.1736 61.1121 72.2037C61.0752 72.2338 61.0445 72.2709 61.0219 72.3129C60.9993 72.3548 60.9852 72.4008 60.9804 72.4482C60.9756 72.4957 60.9801 72.5436 60.9938 72.5892C61.0075 72.6349 61.03 72.6774 61.0602 72.7143C61.0903 72.7512 61.1274 72.7819 61.1693 72.8045C61.4137 72.9352 61.6684 73.0775 61.9253 73.2289C62.289 73.4435 62.6309 73.6603 62.9487 73.8748C63.0084 73.916 63.0792 73.938 63.1517 73.9379C63.2291 73.9376 63.3043 73.9126 63.3664 73.8665C63.4286 73.8204 63.4743 73.7557 63.497 73.6817C63.5197 73.6078 63.5181 73.5285 63.4925 73.4555C63.467 73.3825 63.4187 73.3196 63.3548 73.276H63.3605Z" fill="#0068C7"/>
<path d="M65.1147 71.2994L63.2975 70.3816C63.2118 70.3378 63.1123 70.3298 63.0207 70.3594C62.9292 70.389 62.8531 70.4537 62.8093 70.5393C62.7655 70.625 62.7575 70.7245 62.7871 70.8161C62.8167 70.9076 62.8814 70.9837 62.9671 71.0275L64.79 71.9453C64.8403 71.9715 64.8962 71.9849 64.9529 71.9843C65.0357 71.9861 65.1167 71.9594 65.1822 71.9087C65.2477 71.858 65.2938 71.7863 65.3127 71.7057C65.3317 71.625 65.3224 71.5403 65.2863 71.4657C65.2502 71.3911 65.1897 71.3312 65.1147 71.2959V71.2994Z" fill="#0068C7"/>
<path d="M66.5101 69.0062L65.8218 68.903C65.9081 68.6113 65.9081 68.3009 65.8218 68.0093C65.7173 67.6551 65.4951 67.3471 65.192 67.1362C65.1531 67.1087 65.1092 67.089 65.0627 67.0784C65.0163 67.0678 64.9682 67.0665 64.9212 67.0745C64.8742 67.0825 64.8293 67.0996 64.7889 67.125C64.7486 67.1503 64.7136 67.1834 64.686 67.2223C64.6585 67.2611 64.6388 67.3051 64.6282 67.3515C64.6176 67.398 64.6163 67.4461 64.6243 67.4931C64.6323 67.54 64.6494 67.585 64.6748 67.6253C64.7002 67.6657 64.7332 67.7006 64.7721 67.7282C64.9422 67.8442 65.0673 68.0151 65.1266 68.2123C65.1603 68.3426 65.1657 68.4786 65.1426 68.6112C65.1194 68.7437 65.0682 68.8698 64.9923 68.981C64.9572 69.0317 64.9355 69.0905 64.9293 69.1519C64.9231 69.2133 64.9325 69.2753 64.9568 69.332C64.9808 69.3887 65.0189 69.4383 65.0675 69.476C65.1161 69.5138 65.1736 69.5385 65.2344 69.5477L66.3954 69.7221H66.4505C66.5424 69.7232 66.6313 69.6892 66.699 69.6271C66.7668 69.565 66.8083 69.4794 66.8152 69.3877C66.8221 69.2961 66.7937 69.2052 66.736 69.1337C66.6783 69.0622 66.5954 69.0154 66.5044 69.0028L66.5101 69.0062Z" fill="#0068C7"/>
<path d="M16.6862 65.5658L13.6495 64.7707C13.5601 64.7478 13.5153 64.7352 13.5107 64.7352C12.5264 64.4885 6.36009 62.4224 5.55359 59.7585C4.79183 57.2461 8.36543 52.7398 14.9253 50.1964C14.3325 48.8909 13.7386 47.5842 13.1436 46.2764C4.31 51.5066 -1.09686 57.7578 0.18803 61.227C1.01059 63.4468 5.01554 65.6954 9.43694 68.1998C10.3008 68.6897 11.0431 69.0751 11.5777 69.347L11.4813 69.3608C11.401 69.3745 11.3172 69.386 11.2312 69.3986C10.9292 69.4427 10.6551 69.5995 10.464 69.8375C10.273 70.0755 10.1792 70.3771 10.2016 70.6815C10.224 70.9858 10.3609 71.2704 10.5847 71.4779C10.8085 71.6854 11.1027 71.8004 11.4079 71.7998C11.4677 71.7995 11.5275 71.7953 11.5868 71.7872C12.2339 71.6908 12.7994 71.591 13.3077 71.4831C13.0011 71.5562 12.7355 71.7466 12.5679 72.0135C12.4004 72.2805 12.3443 72.6025 12.4119 72.9103C12.4794 73.2181 12.6651 73.4871 12.9289 73.6594C13.1928 73.8317 13.5138 73.8935 13.8228 73.8315C14.1438 73.7686 14.4604 73.6847 14.7704 73.5803C14.7405 73.5952 14.7165 73.6147 14.6855 73.6296C14.5411 73.699 14.412 73.7965 14.3057 73.9164C14.1994 74.0363 14.118 74.1761 14.0663 74.3278C14.0146 74.4794 13.9936 74.6398 14.0046 74.7997C14.0155 74.9595 14.0582 75.1156 14.1301 75.2588C14.202 75.4019 14.3017 75.5294 14.4233 75.6336C14.545 75.7379 14.6862 75.8169 14.8387 75.866C14.9912 75.9151 15.1519 75.9333 15.3116 75.9197C15.4712 75.906 15.6265 75.8607 15.7685 75.7864C19.5164 73.9072 20.7795 70.4449 19.8342 68.1826C19.3593 67.025 18.2671 66.105 16.6862 65.5658Z" fill="#FF2340"/>
<path d="M16.4181 72.1655C16.1634 72.302 15.9019 72.4477 15.6334 72.6049C15.256 72.8343 14.9003 73.0523 14.5722 73.276C14.5083 73.3196 14.4601 73.3825 14.4345 73.4555C14.4089 73.5285 14.4073 73.6078 14.43 73.6817C14.4527 73.7557 14.4984 73.8204 14.5606 73.8665C14.6227 73.9126 14.6979 73.9376 14.7753 73.9379C14.8474 73.938 14.9179 73.916 14.9772 73.8748C15.2961 73.6603 15.638 73.4435 16.0005 73.2278C16.2598 73.0775 16.5122 72.9352 16.7577 72.8045C16.7996 72.7819 16.8367 72.7512 16.8668 72.7143C16.897 72.6774 16.9195 72.6349 16.9332 72.5892C16.9469 72.5436 16.9515 72.4957 16.9466 72.4482C16.9418 72.4008 16.9277 72.3548 16.9051 72.3129C16.8825 72.2709 16.8519 72.2338 16.8149 72.2037C16.778 72.1736 16.7355 72.1511 16.6898 72.1374C16.6442 72.1237 16.5963 72.1191 16.5489 72.1239C16.5015 72.1288 16.4555 72.1429 16.4135 72.1655H16.4181Z" fill="#0068C7"/>
<path d="M14.6342 70.3772L12.817 71.295C12.7428 71.3311 12.6832 71.3915 12.6479 71.4661C12.6127 71.5408 12.604 71.6252 12.6233 71.7054C12.6425 71.7857 12.6886 71.8569 12.7539 71.9075C12.8191 71.958 12.8996 71.9847 12.9822 71.9833C13.0395 71.9836 13.0962 71.9703 13.1474 71.9443L14.9646 71.0265C15.007 71.0048 15.0447 70.975 15.0756 70.9387C15.1064 70.9024 15.1299 70.8604 15.1445 70.8151C15.1592 70.7698 15.1647 70.722 15.1609 70.6745C15.1571 70.627 15.144 70.5808 15.1223 70.5384C15.1006 70.496 15.0708 70.4582 15.0345 70.4274C14.9982 70.3965 14.9562 70.373 14.9109 70.3584C14.8194 70.3288 14.7198 70.3368 14.6342 70.3806V70.3772Z" fill="#0068C7"/>
<path d="M12.7444 67.1338C12.4379 67.3443 12.2124 67.6531 12.1054 68.0092C12.0221 68.3016 12.0248 68.6119 12.1134 68.9028L11.4251 69.0061C11.334 69.0187 11.2512 69.0655 11.1935 69.137C11.1357 69.2086 11.1074 69.2994 11.1143 69.3911C11.1212 69.4827 11.1627 69.5683 11.2305 69.6304C11.2982 69.6925 11.3871 69.7265 11.479 69.7254H11.5329L12.6951 69.551C12.756 69.5418 12.8136 69.5171 12.8624 69.4793C12.9112 69.4416 12.9496 69.392 12.9738 69.3353C12.9978 69.2785 13.0071 69.2166 13.0008 69.1553C12.9946 69.0939 12.9731 69.0352 12.9383 68.9843C12.8622 68.8732 12.8106 68.7472 12.7871 68.6147C12.7635 68.4822 12.7685 68.3461 12.8018 68.2156C12.8625 68.0201 12.9869 67.8505 13.1551 67.7338C13.1967 67.7079 13.2327 67.6739 13.2608 67.6337C13.2888 67.5935 13.3085 67.548 13.3185 67.5C13.3285 67.452 13.3287 67.4025 13.319 67.3545C13.3093 67.3064 13.29 67.2608 13.2622 67.2204C13.2344 67.18 13.1987 67.1457 13.1573 67.1195C13.1158 67.0933 13.0695 67.0758 13.0211 67.0681C12.9727 67.0603 12.9232 67.0624 12.8757 67.0743C12.8281 67.0862 12.7834 67.1076 12.7444 67.1373V67.1338Z" fill="#0068C7"/>
<path d="M133.402 54.8085L131.787 50.0039C117.676 57.9037 109.002 66.4092 110.589 70.3579C111.537 72.7201 117.287 75.9793 120.3 77.6806C121.208 78.1946 121.985 78.5984 122.548 78.8852L122.446 78.9001L122.184 78.9403C121.849 78.9649 121.538 79.1215 121.319 79.3756C121.099 79.6297 120.99 79.9605 121.015 80.2952C121.039 80.6299 121.196 80.941 121.45 81.1603C121.704 81.3795 122.035 81.4888 122.369 81.4642C122.432 81.464 122.495 81.4597 122.558 81.4516C123.238 81.3495 123.831 81.2451 124.364 81.1315C124.063 81.2022 123.797 81.3815 123.619 81.6353C123.441 81.8891 123.363 82.1995 123.399 82.5074C123.435 82.8153 123.583 83.0991 123.815 83.3047C124.047 83.5103 124.347 83.6233 124.657 83.6221C124.741 83.6222 124.824 83.6137 124.906 83.5969C125.245 83.5297 125.579 83.4396 125.905 83.3273C125.873 83.3433 125.848 83.3628 125.816 83.38C125.667 83.4546 125.534 83.5578 125.426 83.6836C125.317 83.8094 125.234 83.9554 125.181 84.1132C125.129 84.2711 125.108 84.4378 125.12 84.6037C125.132 84.7696 125.177 84.9315 125.251 85.0802C125.326 85.2289 125.429 85.3615 125.555 85.4703C125.681 85.5792 125.827 85.6622 125.984 85.7146C126.142 85.767 126.309 85.7878 126.475 85.7758C126.641 85.7638 126.803 85.7192 126.951 85.6447C130.888 83.6714 132.214 80.0347 131.221 77.66C130.714 76.4462 129.573 75.4803 127.913 74.9147L124.725 74.0807L124.579 74.0417C123.125 73.6596 116.96 71.0015 116.223 68.8172C115.253 65.9583 122.302 60.1935 133.402 54.8085Z" fill="#5968FE"/>
<path d="M132.141 49.8818C132.122 49.8291 132.091 49.7812 132.051 49.7415C132.012 49.7019 131.964 49.6714 131.911 49.6523C131.859 49.6316 131.803 49.6229 131.747 49.6269C131.692 49.6309 131.637 49.6474 131.589 49.6753C117.3 57.6806 108.515 66.2469 110.223 70.5042C111.221 72.9822 116.979 76.2403 120.071 78.0002C120.605 78.3019 121.091 78.5646 121.512 78.7872C121.184 78.9831 120.935 79.2867 120.806 79.6462C120.678 80.0056 120.678 80.3985 120.808 80.7577C120.937 81.1168 121.187 81.4199 121.515 81.615C121.843 81.8101 122.229 81.8852 122.606 81.8273L123.118 81.7482C122.999 82.0423 122.969 82.3652 123.032 82.6763C123.192 83.4954 123.975 84.1103 124.809 83.9933C124.705 84.3027 124.695 84.6361 124.781 84.951C124.867 85.2659 125.045 85.5481 125.292 85.7616C125.539 85.9751 125.844 86.1103 126.168 86.1498C126.492 86.1894 126.82 86.1315 127.111 85.9837C131.248 83.9118 132.618 80.0503 131.563 77.5149C131.003 76.1784 129.78 75.1562 128.024 74.5562L127.997 74.547L124.695 73.6832C124.685 73.681 124.675 73.6775 124.665 73.6729C123.21 73.292 117.234 70.6557 116.573 68.6974C115.808 66.4339 121.4 61.0546 133.562 55.1532C133.644 55.113 133.71 55.0445 133.746 54.9603C133.782 54.876 133.786 54.7817 133.758 54.6944L132.141 49.8818ZM115.85 68.936C116.653 71.3256 122.992 74.0159 124.469 74.4048C124.507 74.4174 124.554 74.43 124.616 74.4472L127.792 75.2767C129.327 75.8032 130.389 76.6774 130.859 77.8006C131.785 80.0136 130.507 83.422 126.769 85.2988C126.558 85.3986 126.316 85.4132 126.095 85.3395C125.873 85.2658 125.688 85.1095 125.579 84.903C125.526 84.7989 125.495 84.6854 125.487 84.5692C125.478 84.4529 125.493 84.3362 125.53 84.2256C125.566 84.115 125.625 84.0127 125.701 83.9246C125.777 83.8365 125.87 83.7644 125.974 83.7122C125.985 83.7065 126.057 83.6675 126.066 83.6594C126.147 83.6094 126.207 83.532 126.236 83.4412C126.265 83.3504 126.26 83.2524 126.222 83.165C126.188 83.0775 126.12 83.0072 126.034 82.9691C125.949 82.9311 125.851 82.9285 125.763 82.9619C125.453 83.0676 125.137 83.1527 124.816 83.2166C124.586 83.2588 124.348 83.2099 124.154 83.0802C123.959 82.9504 123.822 82.75 123.773 82.5214C123.727 82.2967 123.771 82.063 123.895 81.8701C124.019 81.6773 124.214 81.5405 124.437 81.4889C124.486 81.4774 124.532 81.4564 124.572 81.4271C124.613 81.3978 124.647 81.3608 124.674 81.3182C124.7 81.2755 124.717 81.2281 124.725 81.1786C124.733 81.1292 124.731 81.0787 124.719 81.03C124.71 80.9808 124.691 80.9341 124.662 80.8927C124.634 80.8513 124.598 80.8161 124.556 80.7893C124.514 80.7624 124.466 80.7445 124.417 80.7365C124.368 80.7286 124.317 80.7309 124.268 80.7432C123.743 80.8579 123.157 80.9589 122.483 81.0575C122.368 81.078 122.249 81.0747 122.135 81.0477C122.02 81.0207 121.913 80.9707 121.819 80.9007C121.724 80.8306 121.645 80.7421 121.586 80.6404C121.527 80.5388 121.49 80.4262 121.476 80.3095C121.443 80.0771 121.502 79.8408 121.642 79.6521C121.782 79.4634 121.991 79.3377 122.223 79.3023C122.315 79.2897 122.407 79.2782 122.496 79.2598L122.588 79.2484C122.668 79.2357 122.741 79.1981 122.799 79.1411C122.856 79.084 122.894 79.0104 122.907 78.9306C122.919 78.851 122.906 78.7697 122.869 78.6982C122.832 78.6266 122.773 78.5686 122.701 78.5325C122.144 78.2503 121.372 77.8442 120.469 77.3371C117.641 75.731 111.821 72.435 110.923 70.2048C109.431 66.4717 118.275 58.0546 131.557 50.5471L132.933 54.6129C123.526 59.2201 114.662 65.3911 115.855 68.936H115.85Z" fill="#0068C7"/>
<path d="M170.82 52.0527L169.199 56.8585C180.3 62.2435 187.348 68.0083 186.385 70.8637C185.647 73.0435 179.482 75.705 178.028 76.0882L177.883 76.1261L174.692 76.9601C173.032 77.528 171.889 78.4928 171.384 79.7054C170.391 82.0813 171.716 85.718 175.652 87.6912C175.801 87.7659 175.963 87.8105 176.129 87.8225C176.295 87.8345 176.462 87.8138 176.62 87.7613C176.778 87.7089 176.924 87.6259 177.05 87.517C177.176 87.4082 177.279 87.2755 177.354 87.1268C177.428 86.978 177.473 86.816 177.485 86.65C177.497 86.484 177.476 86.3172 177.424 86.1592C177.371 86.0012 177.288 85.8551 177.18 85.7292C177.071 85.6033 176.938 85.5001 176.789 85.4254C176.757 85.4094 176.732 85.3899 176.7 85.3738C177.027 85.4856 177.36 85.5757 177.699 85.6434C177.781 85.6603 177.864 85.6688 177.948 85.6687C178.259 85.6711 178.56 85.5586 178.793 85.3529C179.026 85.1472 179.175 84.8627 179.211 84.5539C179.247 84.2451 179.168 83.9338 178.989 83.6797C178.81 83.4256 178.543 83.2465 178.24 83.1769C178.773 83.2916 179.367 83.396 180.046 83.497C180.109 83.506 180.171 83.5106 180.234 83.5107C180.557 83.5149 180.87 83.3957 181.108 83.1775C181.346 82.9592 181.491 82.6583 181.515 82.3362C181.539 82.0142 181.439 81.6952 181.235 81.4444C181.032 81.1936 180.74 81.03 180.42 80.9868C180.331 80.9731 180.242 80.9616 180.159 80.9478L180.057 80.9329C180.62 80.6473 181.396 80.2446 182.304 79.7283C185.318 78.0224 191.068 74.7677 192.016 72.4056C193.604 68.4603 184.925 59.9537 170.82 52.0527Z" fill="#5968FE"/>
<path d="M171.007 51.7208C170.959 51.6926 170.905 51.6758 170.849 51.6718C170.793 51.6678 170.737 51.6768 170.686 51.6978C170.633 51.717 170.585 51.7475 170.546 51.7872C170.506 51.8268 170.476 51.8746 170.456 51.9273L168.842 56.7353C168.814 56.8226 168.819 56.917 168.855 57.0012C168.891 57.0854 168.956 57.1539 169.038 57.1942C181.199 63.0955 186.793 68.4748 186.028 70.7314C185.367 72.6897 179.391 75.326 177.935 75.7081C177.925 75.7122 177.915 75.7152 177.905 75.7172L174.602 76.5811L174.576 76.5914C172.821 77.1903 171.593 78.2125 171.038 79.5501C169.979 82.0843 171.352 85.947 175.489 88.0189C175.779 88.1631 176.106 88.2186 176.427 88.1783C176.749 88.138 177.051 88.0038 177.297 87.7924C177.542 87.5811 177.72 87.302 177.808 86.9901C177.896 86.6781 177.89 86.3473 177.791 86.0388C178.627 86.1478 179.407 85.5432 179.568 84.7218C179.631 84.4107 179.601 84.0879 179.482 83.7937C179.647 83.8178 179.826 83.8453 179.995 83.8728C180.427 83.9288 180.863 83.8156 181.212 83.557C181.562 83.2984 181.797 82.9145 181.87 82.4859C181.917 82.1638 181.867 81.8352 181.729 81.5409C181.59 81.2466 181.368 80.9995 181.09 80.8304C181.506 80.6101 181.981 80.3543 182.496 80.0629C185.62 78.2905 191.378 75.0278 192.374 72.5498C194.081 68.2913 185.297 59.7261 171.007 51.7208ZM191.672 72.2675C190.776 74.4977 184.955 77.7972 182.158 79.3803C181.225 79.908 180.452 80.3119 179.896 80.5941C179.824 80.6304 179.765 80.6886 179.728 80.7604C179.692 80.8322 179.679 80.9138 179.692 80.9934C179.704 81.073 179.742 81.1465 179.799 81.2032C179.857 81.2599 179.931 81.2969 180.01 81.3088L180.115 81.3237C180.192 81.3386 180.282 81.3513 180.38 81.3639C180.612 81.4004 180.82 81.5269 180.959 81.716C181.098 81.905 181.156 82.1413 181.122 82.3734C181.05 82.8461 180.587 83.2109 180.117 83.1191C179.441 83.0193 178.855 82.9161 178.33 82.8048C178.281 82.7918 178.23 82.789 178.181 82.7966C178.131 82.8042 178.084 82.8221 178.041 82.849C177.999 82.876 177.962 82.9115 177.935 82.9533C177.907 82.995 177.888 83.0421 177.879 83.0916C177.867 83.1403 177.865 83.1908 177.873 83.2402C177.881 83.2897 177.898 83.3371 177.924 83.3797C177.951 83.4224 177.985 83.4594 178.026 83.4887C178.066 83.518 178.112 83.539 178.161 83.5505C178.384 83.6021 178.579 83.7389 178.703 83.9318C178.827 84.1247 178.87 84.3584 178.824 84.583C178.772 84.8094 178.635 85.0075 178.442 85.1371C178.249 85.2668 178.014 85.3185 177.785 85.2816C177.462 85.2177 177.144 85.1315 176.834 85.0235C176.794 85.0098 176.753 85.0024 176.711 85.0017C176.627 85.0017 176.546 85.0293 176.479 85.0802C176.413 85.1311 176.365 85.2025 176.343 85.2834C176.321 85.3642 176.327 85.45 176.359 85.5275C176.39 85.6049 176.447 85.6697 176.519 85.7118C176.558 85.738 176.598 85.7607 176.641 85.7795C176.848 85.8871 177.004 86.0716 177.076 86.2934C177.148 86.5151 177.13 86.7562 177.025 86.9646C176.916 87.1715 176.731 87.3282 176.509 87.4019C176.288 87.4757 176.046 87.4608 175.834 87.3604C172.096 85.487 170.819 82.0752 171.745 79.8622C172.215 78.7367 173.277 77.8626 174.812 77.3383L177.988 76.5088L178.134 76.4675C179.612 76.0786 185.947 73.3872 186.754 70.9987C187.947 67.4538 179.085 61.2817 169.675 56.6756L171.041 52.6225C184.316 60.1173 193.163 68.531 191.672 72.2675Z" fill="#0068C7"/>
<path d="M140.461 122.501L131.191 130.254L145.295 130.713C145.295 130.698 145.286 130.684 145.283 130.67H145.317L147.445 49.7639L142.377 49.6309L140.461 122.501Z" fill="#5968FE"/>
<path d="M147.454 49.3811L142.387 49.248C142.286 49.2497 142.189 49.2875 142.114 49.3547C142.044 49.4252 142.003 49.52 141.999 49.6198L140.088 122.32L130.951 129.963C130.892 130.013 130.85 130.079 130.83 130.153C130.81 130.227 130.812 130.305 130.837 130.377C130.862 130.45 130.908 130.513 130.969 130.559C131.03 130.605 131.104 130.632 131.18 130.635L145.283 131.094H145.295C145.354 131.094 145.413 131.081 145.466 131.054C145.518 131.028 145.564 130.989 145.599 130.942C145.629 130.905 145.65 130.863 145.661 130.818C145.684 130.776 145.697 130.729 145.699 130.681L147.825 49.7758C147.828 49.6743 147.791 49.5758 147.721 49.5018C147.652 49.4278 147.556 49.3844 147.454 49.3811ZM144.947 130.319L132.2 129.906L140.705 122.793C140.746 122.758 140.78 122.715 140.803 122.666C140.827 122.618 140.84 122.565 140.842 122.511L142.749 50.0201L147.053 50.1349L144.947 130.319Z" fill="#0068C7"/>
<path d="M160.772 49.666L155.702 49.5742L154.23 130.495H154.267C154.267 130.51 154.257 130.523 154.252 130.537L168.363 130.71L159.449 122.554L160.772 49.666Z" fill="#5968FE"/>
<path d="M159.83 122.387L161.155 49.6737C161.156 49.5727 161.118 49.4753 161.048 49.4018C160.978 49.3301 160.882 49.289 160.781 49.2871L155.712 49.1953H155.705C155.605 49.1953 155.509 49.2344 155.437 49.3043C155.366 49.3743 155.325 49.4694 155.323 49.5693L153.85 130.49C153.852 130.592 153.893 130.69 153.964 130.764L154.009 130.802C154.073 130.87 154.161 130.911 154.255 130.917L168.365 131.09C168.442 131.09 168.517 131.066 168.58 131.023C168.643 130.98 168.691 130.918 168.719 130.847C168.747 130.776 168.752 130.698 168.735 130.623C168.718 130.549 168.679 130.481 168.622 130.429C165.691 127.747 162.76 125.066 159.83 122.387ZM154.616 130.161L156.076 49.9605L160.386 50.0397L159.065 122.544C159.065 122.598 159.075 122.651 159.097 122.701C159.118 122.75 159.149 122.794 159.189 122.831C161.917 125.327 164.643 127.821 167.367 130.314L154.616 130.161Z" fill="#0068C7"/>
<path d="M168.338 3.42969H131.219C129.125 3.42969 127.428 5.12723 127.428 7.22126V94.3918C127.428 96.4858 129.125 98.1834 131.219 98.1834H168.338C170.432 98.1834 172.129 96.4858 172.129 94.3918V7.22126C172.129 5.12723 170.432 3.42969 168.338 3.42969Z" fill="#5968FE"/>
<path d="M155.42 41.3311C154.921 41.3311 154.433 41.4791 154.018 41.7564C153.603 42.0337 153.28 42.4279 153.089 42.8891C152.898 43.3503 152.848 43.8577 152.945 44.3473C153.042 44.8369 153.283 45.2866 153.636 45.6396C153.989 45.9926 154.438 46.233 154.928 46.3303C155.418 46.4277 155.925 46.3777 156.386 46.1867C156.847 45.9957 157.242 45.6722 157.519 45.2571C157.796 44.8421 157.944 44.3541 157.944 43.8549C157.944 43.1856 157.678 42.5436 157.205 42.0703C156.732 41.597 156.09 41.3311 155.42 41.3311Z" fill="white"/>
<mask id="mask2_334_31625" style="mask-type:luminance" maskUnits="userSpaceOnUse" x="152" y="41" width="6" height="6">
<path d="M155.416 46.3811C156.81 46.3811 157.941 45.2506 157.941 43.8561C157.941 42.4615 156.81 41.3311 155.416 41.3311C154.021 41.3311 152.891 42.4615 152.891 43.8561C152.891 45.2506 154.021 46.3811 155.416 46.3811Z" fill="white"/>
</mask>
<g mask="url(#mask2_334_31625)">
<path d="M153.87 42.3203C153.37 42.3203 152.882 42.4683 152.467 42.7457C152.052 43.023 151.729 43.4172 151.538 43.8783C151.347 44.3395 151.297 44.847 151.394 45.3366C151.492 45.8262 151.732 46.2759 152.085 46.6289C152.438 46.9818 152.888 47.2222 153.377 47.3196C153.867 47.417 154.374 47.367 154.835 47.176C155.297 46.9849 155.691 46.6615 155.968 46.2464C156.245 45.8313 156.393 45.3434 156.393 44.8442C156.393 44.1748 156.128 43.5329 155.654 43.0595C155.181 42.5862 154.539 42.3203 153.87 42.3203Z" fill="#180C47"/>
</g>
<path d="M158.141 38.539L153.275 36.0243C153.2 35.9795 153.118 35.9505 153.032 35.9391C152.946 35.9277 152.858 35.9341 152.775 35.9579C152.692 35.9817 152.614 36.0224 152.547 36.0775C152.48 36.1326 152.425 36.2009 152.386 36.2782C152.346 36.3555 152.323 36.44 152.318 36.5266C152.312 36.6131 152.325 36.6999 152.354 36.7814C152.384 36.863 152.43 36.9375 152.49 37.0005C152.549 37.0635 152.621 37.1135 152.701 37.1474L157.563 39.6633C157.653 39.7105 157.753 39.7349 157.854 39.7344C157.996 39.7346 158.134 39.6872 158.246 39.5996C158.358 39.5121 158.437 39.3895 158.471 39.2517C158.504 39.1138 158.491 38.9686 158.432 38.8394C158.373 38.7101 158.273 38.6044 158.147 38.539H158.141Z" fill="#180C47"/>
<path d="M144.141 41.3311C143.642 41.3311 143.154 41.4791 142.739 41.7564C142.324 42.0337 142 42.4279 141.809 42.8891C141.618 43.3503 141.568 43.8577 141.666 44.3473C141.763 44.8369 142.003 45.2866 142.356 45.6396C142.709 45.9926 143.159 46.233 143.649 46.3303C144.138 46.4277 144.646 46.3777 145.107 46.1867C145.568 45.9957 145.962 45.6722 146.24 45.2571C146.517 44.8421 146.665 44.3541 146.665 43.8549C146.665 43.1856 146.399 42.5436 145.926 42.0703C145.452 41.597 144.81 41.3311 144.141 41.3311Z" fill="white"/>
<mask id="mask3_334_31625" style="mask-type:luminance" maskUnits="userSpaceOnUse" x="141" y="41" width="6" height="6">
<path d="M144.14 46.3811C145.535 46.3811 146.665 45.2506 146.665 43.8561C146.665 42.4615 145.535 41.3311 144.14 41.3311C142.746 41.3311 141.615 42.4615 141.615 43.8561C141.615 45.2506 142.746 46.3811 144.14 46.3811Z" fill="white"/>
</mask>
<g mask="url(#mask3_334_31625)">
<path d="M142.592 42.3203C142.093 42.3203 141.605 42.4683 141.19 42.7457C140.775 43.023 140.452 43.4172 140.261 43.8783C140.07 44.3395 140.02 44.847 140.117 45.3366C140.214 45.8262 140.455 46.2759 140.808 46.6289C141.161 46.9818 141.61 47.2222 142.1 47.3196C142.59 47.417 143.097 47.367 143.558 47.176C144.019 46.9849 144.414 46.6615 144.691 46.2464C144.968 45.8313 145.116 45.3434 145.116 44.8442C145.116 44.1748 144.85 43.5329 144.377 43.0595C143.904 42.5862 143.262 42.3203 142.592 42.3203Z" fill="#180C47"/>
</g>
<path d="M146.861 37.9009L141.997 35.3954C141.923 35.3506 141.84 35.3216 141.754 35.3102C141.668 35.2988 141.581 35.3052 141.497 35.329C141.414 35.3528 141.336 35.3935 141.269 35.4486C141.202 35.5037 141.147 35.572 141.108 35.6493C141.069 35.7265 141.045 35.8111 141.04 35.8977C141.035 35.9842 141.047 36.071 141.077 36.1525C141.106 36.2341 141.152 36.3086 141.212 36.3716C141.272 36.4346 141.344 36.4846 141.424 36.5185L146.288 39.0286C146.377 39.0764 146.476 39.1012 146.577 39.1009C146.72 39.1025 146.86 39.0552 146.973 38.9668C147.086 38.8785 147.166 38.7543 147.199 38.6147C147.232 38.4751 147.217 38.3283 147.155 38.1986C147.094 38.0689 146.99 37.9639 146.861 37.9009Z" fill="#180C47"/>
<path d="M149.79 50.4239C148.666 50.4239 147.653 49.6415 147.266 48.4736L146.543 48.7111C147.031 50.191 148.334 51.1834 149.786 51.1834C151.219 51.1834 152.513 50.2014 153.006 48.7478L152.288 48.5058C151.9 49.6518 150.896 50.4239 149.79 50.4239Z" fill="#180C47"/>
<path d="M178.416 56.7158L176.543 60.8286C183.26 64.8909 187.114 68.7123 186.385 70.8703C185.648 73.05 179.482 75.7115 178.029 76.0947L177.883 76.1326L174.693 76.9609C173.033 77.5287 171.89 78.4935 171.384 79.7062C170.392 82.0821 171.717 85.7188 175.653 87.692C175.802 87.7666 175.964 87.8112 176.13 87.8233C176.296 87.8353 176.463 87.8145 176.621 87.7621C176.779 87.7097 176.925 87.6267 177.051 87.5178C177.177 87.4089 177.28 87.2763 177.354 87.1275C177.429 86.9788 177.474 86.8168 177.486 86.6507C177.498 86.4847 177.477 86.318 177.425 86.16C177.372 86.002 177.289 85.8559 177.18 85.73C177.071 85.6041 176.939 85.5009 176.79 85.4262C176.758 85.4101 176.733 85.3906 176.7 85.3746C177.027 85.4864 177.361 85.5764 177.7 85.6442C177.782 85.6611 177.865 85.6695 177.949 85.6694C178.26 85.6718 178.56 85.5594 178.793 85.3537C179.027 85.148 179.176 84.8634 179.212 84.5547C179.248 84.2459 179.169 83.9346 178.99 83.6805C178.811 83.4264 178.544 83.2473 178.241 83.1777C178.774 83.2924 179.368 83.3968 180.047 83.4977C180.109 83.5068 180.172 83.5114 180.235 83.5115C180.558 83.5157 180.87 83.3965 181.108 83.1782C181.346 82.96 181.492 82.6591 181.516 82.337C181.54 82.0149 181.439 81.696 181.236 81.4452C181.032 81.1944 180.741 81.0308 180.421 80.9876C180.331 80.9738 180.243 80.9624 180.159 80.9486L180.057 80.9337C180.621 80.648 181.397 80.2453 182.305 79.7291C185.318 78.0232 191.068 74.7685 192.017 72.4064C193.296 69.232 187.915 63.1013 178.416 56.7158Z" fill="#5968FE"/>
<path d="M178.629 56.3948C178.546 56.3415 178.445 56.3228 178.348 56.3428C178.251 56.3628 178.166 56.4198 178.11 56.5018C178.055 56.5838 178.033 56.6842 178.051 56.7816C178.068 56.8791 178.123 56.9659 178.204 57.0235C187.568 63.3263 192.854 69.3091 191.666 72.2678C190.77 74.498 184.949 77.7974 182.152 79.3805C181.22 79.9083 180.446 80.3121 179.89 80.5943C179.818 80.6306 179.759 80.6888 179.723 80.7606C179.686 80.8324 179.673 80.914 179.686 80.9936C179.699 81.0732 179.736 81.1467 179.794 81.2034C179.851 81.2601 179.925 81.2971 180.005 81.309L180.109 81.3239C180.186 81.3389 180.277 81.3515 180.374 81.3641C180.606 81.4006 180.814 81.5271 180.953 81.7162C181.092 81.9052 181.151 82.1415 181.116 82.3736C181.044 82.8463 180.582 83.2111 180.111 83.1193C179.436 83.0195 178.85 82.9163 178.324 82.805C178.276 82.792 178.225 82.7892 178.175 82.7968C178.126 82.8044 178.078 82.8223 178.036 82.8493C177.993 82.8762 177.957 82.9117 177.929 82.9535C177.901 82.9952 177.882 83.0423 177.873 83.0918C177.861 83.1405 177.859 83.191 177.867 83.2404C177.875 83.2899 177.893 83.3373 177.919 83.38C177.945 83.4226 177.979 83.4597 178.02 83.489C178.061 83.5183 178.107 83.5392 178.155 83.5507C178.379 83.6023 178.573 83.7391 178.697 83.932C178.821 84.1249 178.865 84.3586 178.819 84.5832C178.766 84.8096 178.629 85.0077 178.437 85.1374C178.244 85.267 178.009 85.3187 177.779 85.2819C177.457 85.218 177.139 85.1317 176.828 85.0237C176.739 84.9898 176.64 84.9918 176.553 85.0292C176.465 85.0667 176.396 85.1367 176.359 85.2245C176.319 85.3104 176.313 85.4081 176.342 85.4984C176.37 85.5887 176.432 85.6649 176.514 85.7121C176.552 85.7383 176.593 85.7609 176.635 85.7797C176.842 85.8873 176.998 86.0719 177.07 86.2936C177.142 86.5153 177.124 86.7564 177.02 86.9648C176.911 87.1717 176.726 87.3284 176.504 87.4022C176.282 87.4759 176.04 87.461 175.829 87.3606C172.09 85.4872 170.813 82.0754 171.739 79.8624C172.212 78.7335 173.276 77.857 174.82 77.3305L177.982 76.5056L178.128 76.4643C179.607 76.0754 185.942 73.384 186.748 70.9955C187.537 68.654 183.889 64.8315 176.74 60.5087C176.654 60.4569 176.55 60.4413 176.453 60.4655C176.355 60.4897 176.271 60.5517 176.22 60.6378C176.168 60.7239 176.152 60.8271 176.176 60.9247C176.2 61.0222 176.262 61.1062 176.349 61.1581C182.864 65.0988 186.664 68.864 186.025 70.7523C185.365 72.7106 179.389 75.3469 177.933 75.7289C177.923 75.733 177.913 75.7361 177.903 75.7381L174.6 76.602C172.819 77.2111 171.596 78.2333 171.036 79.571C169.977 82.1052 171.35 85.9679 175.487 88.0398C175.68 88.138 175.891 88.1969 176.107 88.2132C176.323 88.2294 176.54 88.2027 176.745 88.1345C176.951 88.0664 177.141 87.9581 177.304 87.816C177.468 87.6739 177.602 87.5008 177.698 87.3067C177.894 86.9148 177.927 86.461 177.789 86.0448C177.844 86.0513 177.898 86.0544 177.952 86.0539C178.333 86.0533 178.702 85.9209 178.996 85.6792C179.291 85.4374 179.492 85.1012 179.567 84.7277C179.63 84.4166 179.6 84.0938 179.48 83.7996C179.646 83.8237 179.825 83.8513 179.994 83.8788C180.426 83.9347 180.862 83.8215 181.211 83.5629C181.561 83.3043 181.796 82.9205 181.869 82.4918C181.916 82.1698 181.866 81.8412 181.728 81.5469C181.589 81.2526 181.367 81.0055 181.089 80.8364C181.505 80.6161 181.98 80.3603 182.495 80.0689C185.619 78.2964 191.377 75.0337 192.373 72.5557C193.721 69.1955 188.453 63.0039 178.629 56.3948Z" fill="#0068C7"/>
<path d="M176.915 85.058C176.571 84.8286 176.197 84.59 175.801 84.3548C175.521 84.1896 175.245 84.0336 174.977 83.8959C174.888 83.8486 174.784 83.8387 174.687 83.8684C174.59 83.8981 174.51 83.9649 174.462 84.0542C174.415 84.1435 174.405 84.248 174.435 84.3446C174.464 84.4412 174.531 84.522 174.621 84.5693C174.878 84.7058 175.145 84.8515 175.412 85.0121C175.797 85.2416 176.156 85.471 176.489 85.6902C176.552 85.734 176.626 85.7576 176.703 85.7578C176.784 85.7576 176.863 85.7313 176.929 85.6827C176.994 85.6341 177.042 85.5659 177.066 85.488C177.09 85.4101 177.088 85.3267 177.061 85.2499C177.034 85.1731 176.983 85.1071 176.915 85.0615V85.058Z" fill="#180C47"/>
<path d="M178.76 82.9861L176.851 82.0132C176.806 81.987 176.756 81.9701 176.705 81.9638C176.653 81.9574 176.601 81.9617 176.551 81.9763C176.501 81.991 176.455 82.0156 176.415 82.0489C176.375 82.0821 176.342 82.1231 176.319 82.1694C176.295 82.2157 176.281 82.2664 176.278 82.3183C176.275 82.3701 176.282 82.4221 176.3 82.471C176.318 82.5198 176.345 82.5646 176.381 82.6025C176.416 82.6404 176.459 82.6706 176.507 82.6913L178.416 83.6641C178.469 83.6914 178.529 83.706 178.589 83.7065C178.675 83.7067 178.758 83.678 178.825 83.625C178.892 83.5721 178.94 83.498 178.96 83.4147C178.98 83.3314 178.971 83.2438 178.935 83.1661C178.9 83.0883 178.839 83.0249 178.762 82.9861H178.76Z" fill="#180C47"/>
<path d="M180.219 80.5777L179.496 80.463C179.587 80.1572 179.587 79.8315 179.496 79.5257C179.387 79.1517 179.151 78.8273 178.829 78.6079C178.789 78.5788 178.743 78.5581 178.694 78.5471C178.645 78.5362 178.595 78.5352 178.546 78.5442C178.497 78.5532 178.45 78.572 178.408 78.5995C178.366 78.627 178.33 78.6626 178.303 78.7043C178.274 78.7451 178.254 78.7913 178.243 78.84C178.232 78.8888 178.232 78.9392 178.24 78.9883C178.249 79.0374 178.268 79.0843 178.295 79.1261C178.323 79.1679 178.358 79.2039 178.399 79.232C178.574 79.356 178.703 79.5331 178.769 79.7368C178.803 79.8743 178.808 80.0176 178.783 80.1572C178.758 80.2968 178.704 80.4295 178.624 80.5467C178.587 80.5999 178.565 80.6616 178.558 80.7259C178.552 80.7903 178.562 80.8552 178.588 80.9145C178.613 80.9739 178.654 81.0258 178.705 81.0654C178.756 81.105 178.816 81.131 178.88 81.141L180.101 81.3234C180.119 81.3264 180.138 81.3283 180.157 81.3291C180.254 81.3308 180.348 81.2953 180.42 81.2299C180.492 81.1644 180.536 81.074 180.543 80.977C180.551 80.8801 180.521 80.784 180.459 80.7085C180.398 80.633 180.31 80.5837 180.214 80.5708L180.219 80.5777Z" fill="#180C47"/>
<path d="M127.908 74.9111L124.719 74.0771L124.574 74.0381C123.12 73.656 116.955 70.9979 116.217 68.8136C115.489 66.6557 119.342 62.8354 126.058 58.7731L124.187 54.6592C114.694 61.0504 109.302 67.1811 110.583 70.3578C111.532 72.7199 117.282 75.9792 120.295 77.6805C121.203 78.1944 121.98 78.5983 122.543 78.8851L122.441 78.9L122.178 78.9401C121.844 78.9648 121.532 79.1214 121.313 79.3755C121.094 79.6296 120.985 79.9603 121.009 80.295C121.034 80.6297 121.191 80.9409 121.445 81.1601C121.699 81.3794 122.03 81.4887 122.364 81.464C122.427 81.4638 122.49 81.4596 122.552 81.4514C123.233 81.3493 123.826 81.2449 124.359 81.1313C124.057 81.202 123.792 81.3814 123.614 81.6351C123.436 81.8889 123.358 82.1993 123.394 82.5072C123.43 82.8151 123.578 83.0989 123.81 83.3045C124.042 83.5101 124.342 83.6231 124.652 83.622C124.735 83.622 124.819 83.6136 124.901 83.5967C125.239 83.5295 125.573 83.4394 125.9 83.3271C125.868 83.3432 125.843 83.3627 125.81 83.3799C125.662 83.4545 125.529 83.5576 125.42 83.6834C125.312 83.8092 125.229 83.9552 125.176 84.1131C125.124 84.271 125.103 84.4376 125.115 84.6035C125.127 84.7695 125.171 84.9314 125.246 85.0801C125.321 85.2288 125.424 85.3613 125.55 85.4702C125.675 85.579 125.821 85.662 125.979 85.7144C126.137 85.7668 126.304 85.7876 126.47 85.7756C126.636 85.7636 126.798 85.7191 126.946 85.6445C130.882 83.6713 132.209 80.0346 131.216 77.6598C130.709 76.4472 129.568 75.4778 127.908 74.9111Z" fill="#5968FE"/>
<path d="M128.03 74.552L124.703 73.6789C124.693 73.6767 124.683 73.6732 124.673 73.6686C123.217 73.2877 117.241 70.6514 116.581 68.6931C115.944 66.8071 119.741 63.0407 126.257 59.0977C126.342 59.0451 126.402 58.9614 126.425 58.8647C126.448 58.768 126.432 58.666 126.381 58.5809C126.33 58.4957 126.247 58.4342 126.151 58.4097C126.054 58.3851 125.952 58.3994 125.866 58.4495C118.717 62.7711 115.071 66.5948 115.858 68.9352C116.661 71.3248 122.997 74.0151 124.475 74.404C124.515 74.4166 124.562 74.4292 124.624 74.4464L127.812 75.2804C129.33 75.7978 130.394 76.6743 130.867 77.8043C131.793 80.0173 130.515 83.4257 126.777 85.3026C126.566 85.4024 126.324 85.417 126.102 85.3433C125.881 85.2696 125.696 85.1132 125.586 84.9068C125.534 84.8026 125.503 84.6892 125.494 84.5729C125.486 84.4567 125.501 84.3399 125.537 84.2293C125.574 84.1187 125.632 84.0165 125.709 83.9284C125.785 83.8403 125.878 83.7681 125.982 83.716C125.992 83.7102 126.065 83.6712 126.074 83.6632C126.154 83.6134 126.214 83.5364 126.243 83.4461C126.272 83.3557 126.267 83.2582 126.23 83.171C126.196 83.083 126.129 83.0119 126.043 82.9734C125.957 82.9349 125.859 82.9321 125.771 82.9657C125.461 83.0714 125.144 83.1564 124.823 83.2204C124.593 83.2626 124.356 83.2137 124.161 83.0839C123.966 82.9542 123.83 82.7538 123.78 82.5252C123.735 82.3004 123.779 82.0668 123.903 81.8739C124.027 81.6811 124.221 81.5443 124.445 81.4927C124.493 81.4812 124.539 81.4602 124.58 81.4309C124.621 81.4016 124.655 81.3646 124.681 81.3219C124.708 81.2793 124.725 81.2319 124.733 81.1824C124.741 81.1329 124.739 81.0824 124.727 81.0338C124.718 80.9846 124.698 80.9379 124.67 80.8965C124.642 80.8551 124.606 80.8199 124.563 80.793C124.521 80.7662 124.474 80.7482 124.425 80.7403C124.375 80.7324 124.325 80.7346 124.276 80.747C123.751 80.8617 123.164 80.9626 122.491 81.0613C122.375 81.0818 122.257 81.0785 122.142 81.0515C122.028 81.0245 121.92 80.9745 121.826 80.9044C121.732 80.8344 121.653 80.7459 121.594 80.6442C121.535 80.5426 121.498 80.43 121.484 80.3133C121.45 80.0808 121.51 79.8445 121.65 79.6559C121.79 79.4672 121.998 79.3415 122.231 79.306C122.322 79.2934 122.414 79.282 122.504 79.2636L122.595 79.2521C122.675 79.2394 122.749 79.2019 122.806 79.1448C122.864 79.0878 122.901 79.0141 122.914 78.9343C122.927 78.8548 122.913 78.7734 122.876 78.7019C122.839 78.6304 122.781 78.5724 122.709 78.5363C122.151 78.254 121.379 77.8479 120.476 77.3409C117.649 75.7347 111.829 72.4388 110.93 70.2086C109.744 67.2499 115.029 61.2671 124.394 54.9643C124.437 54.937 124.474 54.9014 124.503 54.8596C124.531 54.8178 124.551 54.7707 124.562 54.7211C124.572 54.6714 124.572 54.6202 124.562 54.5705C124.552 54.5207 124.533 54.4735 124.504 54.4315C124.476 54.3895 124.439 54.3536 124.397 54.326C124.354 54.2984 124.306 54.2795 124.257 54.2706C124.207 54.2617 124.155 54.2628 124.106 54.274C124.057 54.2851 124.01 54.3061 123.969 54.3356C114.146 60.9448 108.88 67.1363 110.225 70.4908C111.223 72.9688 116.981 76.2269 120.073 77.9867C120.607 78.2885 121.093 78.5512 121.514 78.7737C121.186 78.9696 120.937 79.2733 120.808 79.6327C120.68 79.9922 120.68 80.3851 120.81 80.7443C120.939 81.1034 121.189 81.4064 121.517 81.6016C121.845 81.7967 122.231 81.8717 122.608 81.8139L123.12 81.7347C123 82.0289 122.97 82.3517 123.034 82.6628C123.119 83.0621 123.348 83.4163 123.676 83.6588C124.005 83.9013 124.411 84.0155 124.818 83.9798C124.746 84.1851 124.717 84.4026 124.732 84.6194C124.746 84.8362 124.804 85.0479 124.902 85.2418C124.999 85.4359 125.132 85.609 125.296 85.7511C125.459 85.8932 125.649 86.0014 125.855 86.0696C126.06 86.1378 126.278 86.1645 126.493 86.1482C126.709 86.132 126.92 86.073 127.113 85.9748C131.25 83.903 132.62 80.0414 131.564 77.5061C131.008 76.1741 129.785 75.152 128.03 74.552Z" fill="#0068C7"/>
<path d="M127.624 81.8396C127.357 81.9807 127.083 82.1344 126.8 82.2985C126.404 82.5279 126.03 82.7665 125.685 83.0017C125.618 83.0476 125.568 83.1136 125.541 83.1903C125.514 83.267 125.512 83.3502 125.536 83.4278C125.56 83.5054 125.608 83.5734 125.673 83.6218C125.739 83.6703 125.818 83.6966 125.899 83.6969C125.975 83.6972 126.049 83.6739 126.112 83.6304C126.446 83.4009 126.8 83.1772 127.186 82.9547C127.459 82.7929 127.723 82.6449 127.981 82.5084C128.07 82.4607 128.136 82.3798 128.166 82.2834C128.196 82.1869 128.186 82.0827 128.139 81.9933C128.09 81.9063 128.008 81.8418 127.913 81.8131C127.817 81.7845 127.713 81.794 127.624 81.8396Z" fill="#0068C7"/>
<path d="M125.752 79.9619L123.843 80.9347C123.767 80.9735 123.706 81.0369 123.67 81.1147C123.634 81.1924 123.625 81.28 123.645 81.3633C123.665 81.4466 123.713 81.5207 123.78 81.5737C123.848 81.6266 123.931 81.6553 124.016 81.6552C124.076 81.6545 124.136 81.6403 124.19 81.6139L126.099 80.641C126.188 80.5945 126.256 80.5145 126.287 80.4185C126.317 80.3225 126.309 80.2182 126.264 80.1282C126.217 80.0397 126.137 79.9729 126.041 79.9419C125.946 79.9108 125.842 79.918 125.752 79.9619Z" fill="#0068C7"/>
<path d="M123.773 76.5624C123.45 76.7823 123.213 77.1063 123.101 77.4802C123.01 77.7863 123.01 78.1125 123.101 78.4186L122.379 78.5333C122.284 78.5481 122.199 78.598 122.139 78.6731C122.08 78.7482 122.051 78.8429 122.058 78.9384C122.065 79.0339 122.108 79.1231 122.178 79.1884C122.248 79.2536 122.34 79.2901 122.436 79.2905C122.455 79.2916 122.474 79.2916 122.492 79.2905L123.713 79.1069C123.777 79.0971 123.837 79.0712 123.888 79.0315C123.94 78.9919 123.98 78.9399 124.005 78.8805C124.031 78.821 124.041 78.7561 124.034 78.6917C124.027 78.6273 124.005 78.5657 123.968 78.5127C123.888 78.3954 123.834 78.2626 123.809 78.123C123.785 77.9834 123.79 77.8402 123.824 77.7027C123.889 77.4994 124.019 77.3229 124.194 77.2002C124.274 77.1426 124.329 77.0558 124.346 76.9584C124.364 76.8609 124.343 76.7605 124.287 76.6786C124.232 76.5966 124.146 76.5395 124.049 76.5195C123.952 76.4996 123.851 76.5182 123.768 76.5716L123.773 76.5624Z" fill="#0068C7"/>
<path d="M205.867 114.641C204.6 113.594 203.108 112.856 201.507 112.484C199.385 103.392 197.842 94.173 196.888 84.8846C196.192 78.0402 195.816 71.0835 195.769 64.207L190.699 64.2414C190.747 71.2774 191.133 78.3947 191.846 85.3962C192.792 94.5722 194.299 103.682 196.357 112.674C194.664 114.138 193.482 116.104 192.983 118.286C192.908 118.613 192.965 118.958 193.143 119.243C193.321 119.528 193.605 119.731 193.932 119.807C194.026 119.829 194.122 119.841 194.219 119.84C194.505 119.84 194.783 119.743 195.007 119.564C195.231 119.386 195.388 119.137 195.453 118.858C195.648 118.015 195.975 117.209 196.424 116.469C196.532 116.291 196.667 116.135 196.788 115.966C198.884 117.82 200.316 120.308 200.868 123.052C200.929 123.336 201.085 123.592 201.312 123.775C201.538 123.958 201.821 124.058 202.112 124.058C202.199 124.057 202.286 124.048 202.371 124.031C202.7 123.963 202.989 123.766 203.174 123.485C203.358 123.204 203.424 122.861 203.355 122.532C203.007 120.873 202.394 119.281 201.542 117.817C201.867 118.138 202.169 118.481 202.448 118.844C203.315 120.054 203.923 121.431 204.234 122.887C204.294 123.171 204.45 123.425 204.676 123.607C204.901 123.789 205.182 123.888 205.472 123.887C205.563 123.887 205.653 123.877 205.742 123.858C206.07 123.786 206.356 123.587 206.538 123.305C206.72 123.022 206.783 122.679 206.712 122.351C206.328 120.555 205.577 118.858 204.507 117.366C204.145 116.871 203.749 116.402 203.32 115.964C203.644 116.147 203.955 116.354 204.248 116.583C205.16 117.352 205.892 118.311 206.391 119.394C206.461 119.545 206.559 119.681 206.682 119.794C206.804 119.907 206.947 119.995 207.103 120.053C207.259 120.11 207.425 120.137 207.592 120.13C207.758 120.124 207.922 120.084 208.073 120.015C208.224 119.945 208.36 119.846 208.473 119.724C208.586 119.602 208.674 119.459 208.731 119.302C208.789 119.146 208.815 118.98 208.809 118.814C208.802 118.648 208.763 118.484 208.693 118.333C208.034 116.909 207.069 115.649 205.867 114.641Z" fill="#9FC9EB"/>
<path d="M209.035 118.178C208.353 116.702 207.354 115.394 206.109 114.348C204.863 113.31 203.399 112.565 201.826 112.169C199.738 103.164 198.216 94.0371 197.271 84.8418C196.575 78.0113 196.201 71.0671 196.154 64.1999C196.153 64.0993 196.113 64.0032 196.042 63.9324C195.97 63.8615 195.874 63.8216 195.773 63.8213L190.704 63.8569C190.603 63.8578 190.506 63.8985 190.435 63.9703C190.364 64.0421 190.324 64.139 190.324 64.24C190.371 71.2725 190.758 78.4025 191.471 85.4327C192.415 94.5497 193.909 103.601 195.945 112.538C194.281 114.037 193.119 116.013 192.619 118.196C192.521 118.622 192.596 119.069 192.827 119.44C193.058 119.811 193.427 120.075 193.852 120.175C194.277 120.264 194.72 120.185 195.089 119.956C195.458 119.726 195.724 119.363 195.832 118.942C196.016 118.136 196.328 117.365 196.758 116.659C196.785 116.615 196.813 116.571 196.845 116.528C197.671 117.307 198.387 118.195 198.974 119.167C199.699 120.392 200.215 121.729 200.503 123.122C200.582 123.491 200.783 123.823 201.075 124.061C201.368 124.3 201.732 124.432 202.11 124.435C202.223 124.435 202.335 124.422 202.446 124.397C202.658 124.354 202.86 124.269 203.04 124.148C203.219 124.026 203.373 123.87 203.492 123.689C203.611 123.507 203.692 123.304 203.732 123.091C203.772 122.878 203.769 122.659 203.724 122.447C203.711 122.387 203.698 122.325 203.686 122.267C203.75 122.496 203.81 122.725 203.86 122.955C203.962 123.377 204.222 123.743 204.587 123.978C204.952 124.213 205.393 124.299 205.82 124.217C206.247 124.124 206.619 123.865 206.856 123.497C207.092 123.13 207.174 122.684 207.082 122.256C206.919 121.504 206.695 120.766 206.41 120.05C206.652 120.272 206.953 120.418 207.277 120.471C207.601 120.524 207.933 120.481 208.232 120.347C208.626 120.163 208.931 119.83 209.081 119.422C209.231 119.014 209.215 118.563 209.035 118.168V118.178ZM207.909 119.676C207.694 119.766 207.453 119.771 207.234 119.689C207.016 119.608 206.837 119.447 206.733 119.238C206.21 118.105 205.444 117.101 204.49 116.296C204.227 116.083 203.947 115.891 203.653 115.723L203.515 115.638C203.435 115.591 203.342 115.574 203.251 115.59C203.16 115.606 203.078 115.654 203.019 115.725C202.962 115.797 202.932 115.887 202.936 115.979C202.94 116.071 202.978 116.159 203.041 116.225C203.458 116.651 203.844 117.107 204.195 117.589C205.234 119.039 205.963 120.688 206.336 122.432C206.377 122.658 206.329 122.892 206.201 123.084C206.073 123.276 205.876 123.41 205.651 123.459C205.425 123.508 205.19 123.467 204.994 123.346C204.798 123.224 204.657 123.032 204.601 122.808C204.28 121.3 203.652 119.875 202.754 118.622C202.523 118.312 202.27 118.019 201.997 117.745L201.816 117.557C201.752 117.489 201.666 117.447 201.573 117.439C201.48 117.431 201.387 117.457 201.313 117.512C201.238 117.568 201.186 117.649 201.167 117.74C201.148 117.831 201.164 117.926 201.21 118.007C202.043 119.437 202.641 120.992 202.979 122.612C203.026 122.842 202.98 123.081 202.851 123.277C202.722 123.473 202.521 123.609 202.291 123.657C202.06 123.702 201.821 123.656 201.624 123.527C201.427 123.399 201.288 123.198 201.236 122.969C200.668 120.147 199.195 117.587 197.04 115.678C196.97 115.615 196.879 115.58 196.785 115.579H196.745C196.692 115.586 196.641 115.603 196.594 115.63C196.548 115.656 196.507 115.692 196.476 115.735L196.354 115.898C196.26 116.013 196.175 116.134 196.097 116.26C195.627 117.035 195.283 117.88 195.079 118.763C195.019 118.988 194.876 119.182 194.678 119.305C194.48 119.428 194.243 119.471 194.015 119.426C193.901 119.4 193.794 119.351 193.699 119.284C193.604 119.216 193.524 119.13 193.462 119.031C193.401 118.932 193.359 118.822 193.34 118.707C193.321 118.592 193.325 118.475 193.352 118.361C193.596 117.297 194.01 116.278 194.577 115.344C195.127 114.448 195.811 113.641 196.604 112.95C196.656 112.905 196.694 112.848 196.716 112.783C196.737 112.718 196.741 112.648 196.726 112.582C194.671 103.604 193.167 94.509 192.223 85.3478C191.524 78.4644 191.141 71.4951 191.084 64.6106L195.394 64.5807C195.451 71.3494 195.827 78.1834 196.51 84.9153C197.466 94.2197 199.011 103.454 201.134 112.563C201.151 112.632 201.186 112.695 201.237 112.745C201.287 112.795 201.35 112.83 201.419 112.846C202.962 113.201 204.4 113.913 205.618 114.924C206.775 115.895 207.705 117.11 208.34 118.481C208.391 118.587 208.421 118.703 208.427 118.821C208.433 118.939 208.415 119.058 208.375 119.169C208.335 119.28 208.273 119.382 208.193 119.469C208.113 119.556 208.016 119.627 207.909 119.676Z" fill="#0068C7"/>
<path d="M166.383 84.8846C165.43 94.1732 163.887 103.392 161.763 112.484C160.198 112.843 158.736 113.558 157.491 114.572C156.247 115.587 155.252 116.874 154.585 118.335C154.444 118.641 154.431 118.989 154.547 119.305C154.664 119.62 154.9 119.876 155.206 120.017C155.511 120.158 155.86 120.172 156.175 120.055C156.491 119.939 156.747 119.702 156.888 119.396C157.387 118.314 158.118 117.354 159.031 116.587C159.324 116.357 159.634 116.149 159.959 115.966C159.53 116.405 159.134 116.873 158.771 117.368C157.702 118.861 156.951 120.557 156.566 122.353C156.496 122.681 156.558 123.025 156.74 123.307C156.922 123.59 157.209 123.789 157.537 123.86C157.626 123.879 157.717 123.889 157.808 123.889C158.097 123.888 158.377 123.789 158.602 123.607C158.828 123.425 158.984 123.172 159.046 122.89C159.355 121.433 159.963 120.056 160.831 118.846C161.108 118.484 161.411 118.142 161.736 117.821C160.881 119.285 160.27 120.877 159.924 122.536C159.858 122.865 159.925 123.206 160.109 123.485C160.293 123.764 160.581 123.96 160.909 124.028C160.994 124.045 161.08 124.054 161.167 124.054C161.458 124.053 161.74 123.952 161.966 123.768C162.192 123.584 162.348 123.328 162.407 123.042C162.959 120.299 164.392 117.811 166.489 115.958C166.603 116.126 166.743 116.282 166.851 116.458C167.3 117.199 167.628 118.006 167.822 118.85C167.887 119.129 168.044 119.378 168.268 119.556C168.492 119.735 168.77 119.832 169.056 119.832C169.153 119.833 169.249 119.821 169.343 119.799C169.671 119.723 169.955 119.52 170.133 119.235C170.311 118.95 170.368 118.606 170.293 118.278C169.796 116.095 168.612 114.128 166.917 112.666C168.976 103.676 170.483 94.5696 171.429 85.3962C172.139 78.3982 172.524 71.2774 172.576 64.2414L167.506 64.207C167.456 71.0835 167.08 78.0402 166.383 84.8846Z" fill="#9FC9EB"/>
<path d="M172.576 63.8608L167.507 63.8252C167.406 63.8255 167.31 63.8654 167.238 63.9363C167.167 64.0071 167.127 64.1033 167.126 64.2038C167.079 71.0711 166.705 78.0152 166.009 84.8458C165.064 94.0412 163.542 103.168 161.452 112.173C159.879 112.57 158.416 113.315 157.169 114.352C155.925 115.396 154.927 116.702 154.246 118.177C154.063 118.574 154.044 119.028 154.195 119.439C154.345 119.849 154.652 120.184 155.049 120.368C155.349 120.5 155.68 120.542 156.003 120.489C156.326 120.435 156.627 120.289 156.868 120.068C156.584 120.784 156.359 121.523 156.197 122.276C156.152 122.488 156.148 122.706 156.187 122.919C156.225 123.132 156.306 123.335 156.423 123.517C156.54 123.699 156.692 123.856 156.87 123.979C157.048 124.102 157.248 124.189 157.46 124.235C157.671 124.281 157.89 124.284 158.103 124.246C158.316 124.207 158.519 124.127 158.701 124.01C158.883 123.892 159.04 123.74 159.163 123.562C159.286 123.385 159.373 123.184 159.419 122.973C159.468 122.743 159.533 122.514 159.592 122.284L159.554 122.462C159.505 122.676 159.5 122.897 159.538 123.113C159.575 123.329 159.656 123.535 159.774 123.719C159.893 123.904 160.047 124.063 160.228 124.187C160.409 124.311 160.612 124.397 160.827 124.442C161.042 124.486 161.263 124.487 161.478 124.445C161.693 124.403 161.897 124.318 162.079 124.196C162.261 124.073 162.417 123.916 162.537 123.733C162.658 123.549 162.74 123.344 162.78 123.129C163.068 121.736 163.585 120.401 164.31 119.178C164.898 118.206 165.614 117.318 166.441 116.539C166.471 116.584 166.5 116.626 166.53 116.673C166.955 117.38 167.265 118.149 167.448 118.953C167.554 119.375 167.819 119.739 168.188 119.969C168.557 120.199 169.001 120.277 169.426 120.186C169.851 120.086 170.22 119.822 170.452 119.451C170.683 119.08 170.758 118.633 170.661 118.207C170.163 116.022 169.001 114.044 167.335 112.545C169.372 103.609 170.866 94.5579 171.809 85.4412C172.519 78.4431 172.905 71.3085 172.956 64.2508C172.956 64.1501 172.916 64.0535 172.845 63.9818C172.774 63.9101 172.678 63.8692 172.577 63.8676L172.576 63.8608ZM171.052 85.3574C170.107 94.5168 168.603 103.61 166.549 112.586C166.533 112.652 166.536 112.721 166.556 112.785C166.576 112.85 166.613 112.908 166.663 112.954C168.299 114.365 169.441 116.262 169.921 118.368C169.974 118.597 169.933 118.838 169.808 119.038C169.683 119.237 169.484 119.379 169.255 119.432C169.027 119.479 168.789 119.436 168.592 119.313C168.394 119.189 168.251 118.995 168.193 118.769C167.988 117.886 167.645 117.042 167.176 116.266C167.1 116.147 167.017 116.032 166.928 115.922L166.796 115.746C166.766 115.702 166.726 115.666 166.68 115.638C166.634 115.611 166.582 115.594 166.529 115.588C166.421 115.581 166.315 115.616 166.232 115.684C164.077 117.593 162.603 120.153 162.034 122.975C161.981 123.202 161.842 123.401 161.647 123.529C161.452 123.657 161.214 123.705 160.985 123.663C160.754 123.615 160.552 123.478 160.423 123.281C160.294 123.084 160.248 122.844 160.296 122.613C160.635 120.995 161.232 119.442 162.066 118.014C162.113 117.933 162.128 117.838 162.109 117.747C162.09 117.656 162.039 117.575 161.964 117.519C161.898 117.468 161.818 117.441 161.735 117.442C161.683 117.442 161.632 117.452 161.585 117.471C161.537 117.491 161.494 117.52 161.457 117.557L161.301 117.722C161.02 118.003 160.76 118.303 160.521 118.621C159.623 119.873 158.994 121.297 158.672 122.804C158.647 122.918 158.601 123.026 158.534 123.122C158.468 123.217 158.384 123.299 158.286 123.363C158.188 123.426 158.079 123.469 157.964 123.49C157.85 123.511 157.732 123.509 157.618 123.485C157.504 123.46 157.396 123.414 157.3 123.347C157.205 123.281 157.123 123.197 157.059 123.099C156.996 123.001 156.953 122.892 156.932 122.777C156.911 122.663 156.913 122.545 156.937 122.431C157.31 120.686 158.04 119.037 159.08 117.586C159.429 117.106 159.813 116.652 160.227 116.227C160.291 116.16 160.328 116.073 160.332 115.981C160.336 115.889 160.307 115.799 160.249 115.727C160.191 115.656 160.109 115.609 160.019 115.593C159.929 115.576 159.837 115.592 159.757 115.637L159.653 115.703C159.346 115.875 159.054 116.072 158.779 116.291C157.827 117.099 157.065 118.105 156.545 119.239C156.44 119.448 156.26 119.609 156.041 119.69C155.823 119.772 155.581 119.767 155.366 119.678C155.152 119.578 154.986 119.398 154.904 119.177C154.823 118.955 154.832 118.711 154.931 118.496C155.566 117.126 156.495 115.912 157.651 114.94C158.87 113.928 160.309 113.216 161.852 112.859C161.921 112.843 161.984 112.808 162.034 112.758C162.085 112.708 162.12 112.645 162.136 112.576C164.26 103.467 165.805 94.2327 166.763 84.9284C167.452 78.1965 167.823 71.3602 167.879 64.5938L172.19 64.6237C172.13 71.5299 171.747 78.5051 171.052 85.3574Z" fill="#0068C7"/>
<path d="M186.789 89.4102L181.727 89.6855L184.059 132.799L198.364 133.373L188.681 124.39L186.789 89.4102Z" fill="#9FC9EB"/>
<path d="M189.052 124.224L187.168 89.3955C187.166 89.3456 187.154 89.2967 187.133 89.2516C187.112 89.2064 187.081 89.166 187.044 89.1328C186.967 89.0639 186.839 89.0066 186.77 89.0364L181.707 89.3106C181.657 89.3131 181.609 89.3254 181.564 89.3468C181.519 89.3683 181.478 89.3984 181.445 89.4355C181.411 89.4726 181.386 89.516 181.369 89.563C181.353 89.6101 181.345 89.66 181.348 89.7098L183.681 132.824C183.686 132.918 183.726 133.007 183.793 133.073C183.86 133.14 183.95 133.179 184.044 133.183L198.348 133.756C198.353 133.758 198.358 133.758 198.363 133.756C198.439 133.756 198.514 133.733 198.578 133.69C198.641 133.646 198.69 133.585 198.718 133.513C198.745 133.442 198.751 133.363 198.733 133.289C198.716 133.214 198.676 133.146 198.62 133.094L189.052 124.224ZM184.421 132.432L182.126 90.0437L186.428 89.8142L188.3 124.414C188.303 124.513 188.344 124.606 188.415 124.674L197.342 132.954L184.421 132.432Z" fill="#0068C7"/>
<path d="M178.03 89.6758L172.963 89.849L174.163 125.027L165.373 133.069L179.484 132.897C179.475 132.87 179.466 132.843 179.455 132.816H179.504L178.03 89.6758Z" fill="#9FC9EB"/>
<path d="M178.292 89.3969C178.212 89.3402 178.119 89.3054 178.021 89.2959L172.954 89.4691C172.853 89.473 172.757 89.5165 172.688 89.5901C172.619 89.6638 172.582 89.7617 172.584 89.8626L173.776 124.86L165.115 132.785C165.058 132.837 165.019 132.905 165.002 132.979C164.985 133.054 164.99 133.132 165.018 133.203C165.046 133.275 165.095 133.336 165.158 133.379C165.221 133.422 165.296 133.446 165.373 133.446L179.484 133.275C179.576 133.273 179.665 133.238 179.734 133.176C179.803 133.114 179.847 133.029 179.858 132.937C179.873 132.892 179.881 132.844 179.881 132.796L178.41 89.6607C178.407 89.5606 178.364 89.4658 178.292 89.3969ZM166.368 132.677C169.051 130.218 171.736 127.762 174.423 125.307C174.464 125.27 174.496 125.225 174.517 125.174C174.538 125.124 174.548 125.069 174.546 125.015L173.359 90.2137L177.665 90.068L179.111 132.515L166.368 132.677Z" fill="#0068C7"/>
<path d="M200.765 60.29H163.647C161.553 60.29 159.855 61.9876 159.855 64.0816V90.5423C159.855 92.6363 161.553 94.3339 163.647 94.3339H200.765C202.859 94.3339 204.557 92.6363 204.557 90.5423V64.0816C204.557 61.9876 202.859 60.29 200.765 60.29Z" fill="#9FC9EB"/>
<path d="M187.065 78.6051C188.46 78.6051 189.591 77.4741 189.591 76.0789C189.591 74.6837 188.46 73.5527 187.065 73.5527C185.67 73.5527 184.539 74.6837 184.539 76.0789C184.539 77.4741 185.67 78.6051 187.065 78.6051Z" fill="white"/>
<mask id="mask4_334_31625" style="mask-type:luminance" maskUnits="userSpaceOnUse" x="184" y="73" width="6" height="6">
<path d="M187.064 78.6038C188.459 78.6038 189.589 77.4733 189.589 76.0787C189.589 74.6842 188.459 73.5537 187.064 73.5537C185.67 73.5537 184.539 74.6842 184.539 76.0787C184.539 77.4733 185.67 78.6038 187.064 78.6038Z" fill="white"/>
</mask>
<g mask="url(#mask4_334_31625)">
<path d="M186.422 72.9932C185.923 72.9932 185.435 73.1412 185.02 73.4185C184.605 73.6958 184.282 74.09 184.091 74.5512C183.9 75.0124 183.85 75.5199 183.947 76.0094C184.044 76.499 184.285 76.9487 184.638 77.3017C184.991 77.6547 185.44 77.8951 185.93 77.9924C186.42 78.0898 186.927 78.0399 187.388 77.8488C187.849 77.6578 188.244 77.3343 188.521 76.9193C188.798 76.5042 188.946 76.0162 188.946 75.5171C188.946 74.8477 188.68 74.2057 188.207 73.7324C187.734 73.2591 187.092 72.9932 186.422 72.9932Z" fill="#180C47"/>
</g>
<path d="M189.656 67.2785C189.304 67.0249 188.04 66.2207 186.417 66.5821C185.669 66.7588 184.987 67.1494 184.457 67.7064C184.395 67.7657 184.346 67.8369 184.312 67.9158C184.279 67.9946 184.261 68.0795 184.262 68.1652C184.262 68.2508 184.28 68.3356 184.313 68.4143C184.347 68.493 184.397 68.5639 184.459 68.6229C184.521 68.6819 184.595 68.7276 184.675 68.7574C184.755 68.7871 184.841 68.8003 184.927 68.796C185.012 68.7917 185.096 68.7701 185.173 68.7325C185.25 68.6949 185.319 68.642 185.375 68.5771C185.732 68.2016 186.191 67.9385 186.696 67.8199C187.803 67.5549 188.731 68.179 188.905 68.3029C188.972 68.3544 189.048 68.3919 189.13 68.4133C189.212 68.4347 189.297 68.4395 189.381 68.4275C189.465 68.4154 189.545 68.3868 189.618 68.3432C189.69 68.2996 189.753 68.2419 189.803 68.1736C189.853 68.1053 189.889 68.0277 189.908 67.9454C189.927 67.8631 189.93 67.7778 189.916 67.6944C189.902 67.611 189.872 67.5312 189.826 67.4598C189.781 67.3884 189.722 67.3267 189.653 67.2785H189.656Z" fill="#180C47"/>
<path d="M175.79 73.5547C175.29 73.5547 174.802 73.7027 174.387 73.98C173.972 74.2574 173.649 74.6515 173.458 75.1127C173.267 75.5739 173.217 76.0814 173.314 76.571C173.412 77.0605 173.652 77.5103 174.005 77.8632C174.358 78.2162 174.808 78.4566 175.297 78.554C175.787 78.6514 176.294 78.6014 176.755 78.4103C177.217 78.2193 177.611 77.8958 177.888 77.4808C178.165 77.0657 178.313 76.5778 178.313 76.0786C178.313 75.4092 178.047 74.7672 177.574 74.2939C177.101 73.8206 176.459 73.5547 175.79 73.5547Z" fill="white"/>
<mask id="mask5_334_31625" style="mask-type:luminance" maskUnits="userSpaceOnUse" x="173" y="73" width="6" height="6">
<path d="M175.789 78.6038C177.183 78.6038 178.314 77.4733 178.314 76.0787C178.314 74.6842 177.183 73.5537 175.789 73.5537C174.394 73.5537 173.264 74.6842 173.264 76.0787C173.264 77.4733 174.394 78.6038 175.789 78.6038Z" fill="white"/>
</mask>
<g mask="url(#mask5_334_31625)">
<path d="M175.153 72.9932C174.654 72.9932 174.166 73.1412 173.751 73.4185C173.336 73.6958 173.012 74.09 172.821 74.5512C172.63 75.0124 172.58 75.5199 172.677 76.0094C172.775 76.499 173.015 76.9487 173.368 77.3017C173.721 77.6547 174.171 77.8951 174.66 77.9924C175.15 78.0898 175.657 78.0399 176.119 77.8488C176.58 77.6578 176.974 77.3343 177.251 76.9193C177.529 76.5042 177.677 76.0162 177.677 75.5171C177.677 74.8477 177.411 74.2057 176.937 73.7324C176.464 73.2591 175.822 72.9932 175.153 72.9932Z" fill="#180C47"/>
</g>
<path d="M176.165 66.4862C174.509 66.2808 173.337 67.217 173.016 67.5061C172.894 67.6197 172.822 67.7767 172.815 67.9432C172.808 68.1097 172.867 68.2722 172.978 68.3958C173.09 68.5193 173.246 68.5939 173.413 68.6035C173.579 68.613 173.742 68.5567 173.867 68.4468C174.088 68.2483 174.91 67.622 176.012 67.7436C176.647 67.8278 177.232 68.1347 177.662 68.6097C177.722 68.6768 177.794 68.7305 177.876 68.7673C177.957 68.8041 178.046 68.8231 178.135 68.8231C178.291 68.8246 178.441 68.7673 178.556 68.6625C178.618 68.6073 178.669 68.5404 178.706 68.4656C178.742 68.3907 178.763 68.3094 178.768 68.2264C178.773 68.1433 178.761 68.0601 178.734 67.9816C178.706 67.9031 178.663 67.8307 178.608 67.7688C177.972 67.0639 177.106 66.609 176.165 66.4862Z" fill="#180C47"/>
<path d="M181.202 80.6289C180.928 80.6294 180.661 80.7109 180.434 80.8632C180.206 81.0155 180.029 81.2317 179.925 81.4846C179.821 81.7374 179.794 82.0155 179.847 82.2838C179.901 82.552 180.033 82.7983 180.226 82.9916C180.42 83.1848 180.666 83.3164 180.935 83.3696C181.203 83.4228 181.481 83.3953 181.734 83.2905C181.987 83.1857 182.202 83.0083 182.354 82.7809C182.506 82.5534 182.587 82.286 182.587 82.0125C182.587 81.8306 182.551 81.6506 182.482 81.4826C182.412 81.3147 182.31 81.1621 182.181 81.0337C182.052 80.9052 181.9 80.8033 181.732 80.7339C181.563 80.6644 181.383 80.6288 181.202 80.6289ZM181.202 82.6342C181.079 82.6338 180.959 82.5969 180.857 82.5283C180.755 82.4597 180.675 82.3625 180.629 82.2488C180.582 82.1352 180.57 82.0102 180.594 81.8898C180.619 81.7693 180.678 81.6587 180.765 81.572C180.852 81.4852 180.963 81.4263 181.083 81.4024C181.204 81.3786 181.329 81.3911 181.442 81.4382C181.556 81.4853 181.653 81.565 181.721 81.6672C181.789 81.7694 181.826 81.8896 181.826 82.0125C181.826 82.0943 181.81 82.1755 181.778 82.2511C181.747 82.3268 181.701 82.3955 181.643 82.4533C181.585 82.5111 181.516 82.5568 181.44 82.5879C181.365 82.6189 181.283 82.6347 181.202 82.6342Z" fill="#180C47"/>
<path d="M162.582 116.485C162.497 116.432 162.394 116.414 162.296 116.436C162.198 116.457 162.112 116.516 162.056 116.6L161.413 117.615C161.359 117.7 161.341 117.803 161.362 117.901C161.384 117.999 161.443 118.085 161.528 118.14C161.588 118.179 161.659 118.199 161.731 118.199C161.795 118.199 161.858 118.182 161.914 118.151C161.97 118.12 162.018 118.075 162.052 118.02L162.695 117.006C162.748 116.922 162.766 116.82 162.745 116.723C162.723 116.626 162.665 116.54 162.582 116.485Z" fill="#0068C7"/>
<path d="M200.95 116.531C200.918 116.492 200.879 116.461 200.834 116.438C200.79 116.415 200.742 116.4 200.692 116.396C200.642 116.392 200.592 116.397 200.544 116.412C200.496 116.427 200.452 116.452 200.414 116.484C200.375 116.516 200.344 116.555 200.32 116.6C200.297 116.644 200.283 116.693 200.279 116.742C200.274 116.792 200.28 116.842 200.295 116.89C200.31 116.938 200.334 116.982 200.366 117.021L201.248 118.066C201.282 118.109 201.326 118.144 201.376 118.168C201.426 118.192 201.481 118.205 201.537 118.206C201.627 118.206 201.713 118.173 201.781 118.114C201.819 118.082 201.851 118.043 201.874 117.998C201.897 117.954 201.911 117.906 201.915 117.856C201.919 117.806 201.913 117.756 201.898 117.709C201.883 117.661 201.858 117.617 201.826 117.579L200.95 116.531Z" fill="#0068C7"/>
<path d="M107.212 90.4507L102.145 90.3291L101.092 133.481H101.139L101.111 133.562L104.883 133.572L106.159 133.603V133.579L115.222 133.602L106.353 125.645L107.212 90.4507Z" fill="#00BD99"/>
<path d="M106.739 125.472L107.595 90.4602C107.597 90.3593 107.559 90.2616 107.49 90.1884C107.42 90.1152 107.325 90.0723 107.224 90.069L102.157 89.9463H102.146C102.047 89.9465 101.952 89.9853 101.881 90.0545C101.81 90.1236 101.768 90.2177 101.765 90.3168L100.711 133.464C100.71 133.511 100.718 133.558 100.735 133.603C100.743 133.664 100.765 133.722 100.801 133.772C100.835 133.822 100.881 133.863 100.935 133.892C100.989 133.92 101.048 133.936 101.109 133.937L106.15 133.979H106.159C106.21 133.978 106.259 133.968 106.306 133.949L115.22 133.973C115.297 133.973 115.372 133.95 115.435 133.906C115.498 133.862 115.547 133.801 115.574 133.729C115.602 133.657 115.607 133.579 115.589 133.504C115.572 133.429 115.532 133.362 115.475 133.31L106.739 125.472ZM106.165 133.191C106.118 133.191 106.071 133.2 106.027 133.218L104.898 133.189L101.484 133.181L102.517 90.7161L106.825 90.8216L105.976 125.628C105.975 125.683 105.985 125.738 106.007 125.788C106.029 125.838 106.062 125.883 106.103 125.92L114.23 133.213L106.165 133.191Z" fill="#0068C7"/>
<path d="M96.1417 91.2147L91.0744 91.0908L90.0212 134.241H90.0683L90.0407 134.323L93.8151 134.332L95.0885 134.363V134.335L104.152 134.358L95.2824 126.4L96.1417 91.2147Z" fill="#00BD99"/>
<path d="M95.6682 126.237L96.5251 91.2231C96.527 91.1221 96.4891 91.0245 96.4195 90.9513C96.3499 90.8781 96.2544 90.8352 96.1534 90.8319L91.0862 90.708H91.077C90.9775 90.7083 90.882 90.7472 90.8108 90.8166C90.7395 90.8859 90.6979 90.9803 90.695 91.0797L89.6407 134.23C89.6401 134.277 89.6474 134.324 89.6625 134.369C89.67 134.432 89.6933 134.491 89.7301 134.542C89.7657 134.592 89.8124 134.633 89.8666 134.661C89.9208 134.69 89.981 134.705 90.0422 134.706L95.0796 134.745H95.0888C95.1372 134.745 95.1851 134.736 95.2299 134.718L104.152 134.741C104.229 134.74 104.303 134.716 104.366 134.673C104.429 134.629 104.478 134.568 104.505 134.496C104.533 134.425 104.538 134.347 104.521 134.272C104.504 134.197 104.464 134.13 104.408 134.078L95.6682 126.237ZM95.0946 133.956C95.0488 133.956 95.0034 133.964 94.9603 133.98L93.8292 133.954L90.4127 133.946L91.4452 91.4778L95.7531 91.5845L94.9018 126.394C94.9003 126.448 94.9109 126.503 94.9327 126.553C94.9545 126.604 94.987 126.648 95.028 126.685L103.155 133.976L95.0946 133.956Z" fill="#0068C7"/>
<path d="M112.915 31.7793H84.4361C82.3421 31.7793 80.6445 33.4768 80.6445 35.5709V96.0754C80.6445 98.1694 82.3421 99.867 84.4361 99.867H112.915C115.009 99.867 116.706 98.1694 116.706 96.0754V35.5709C116.706 33.4768 115.009 31.7793 112.915 31.7793Z" fill="#00BD99"/>
<path d="M105.093 56.3702C104.463 56.3075 103.873 56.0324 103.42 55.5901L102.895 56.1396C103.474 56.7038 104.229 57.0525 105.034 57.1274C105.12 57.1343 105.21 57.1377 105.296 57.1377C106.509 57.1377 107.68 56.4712 108.406 55.3503L107.767 54.9385C107.14 55.9021 106.165 56.4322 105.093 56.3702Z" fill="#180C47"/>
<path d="M106.043 45.3004C105.063 45.1275 104.053 45.3071 103.193 45.8075C103.048 45.8922 102.942 46.0312 102.9 46.1937C102.857 46.3563 102.881 46.5291 102.965 46.6742C103.05 46.8194 103.189 46.9249 103.352 46.9676C103.514 47.0103 103.687 46.9867 103.832 46.902C104.422 46.5534 105.117 46.4263 105.792 46.5434C106.467 46.6605 107.078 47.0141 107.516 47.541C107.575 47.6123 107.649 47.6698 107.733 47.7094C107.817 47.7491 107.908 47.7699 108.001 47.7704C108.122 47.7707 108.24 47.7363 108.342 47.6715C108.444 47.6067 108.525 47.5141 108.576 47.4046C108.627 47.2951 108.646 47.1732 108.63 47.0535C108.614 46.9337 108.564 46.8211 108.486 46.7287C107.862 45.9835 106.998 45.4786 106.043 45.3004Z" fill="#180C47"/>
<path d="M96.0456 56.3124C95.0395 56.5074 93.9576 56.0772 93.2303 55.1904L92.6406 55.6711C93.3989 56.5969 94.4762 57.1189 95.5569 57.1189C95.7697 57.1191 95.9821 57.0995 96.1913 57.0604C96.9817 56.8921 97.6918 56.461 98.2058 55.8375L97.6219 55.3465C97.2209 55.8376 96.6652 56.1781 96.0456 56.3124Z" fill="#180C47"/>
<path d="M98.4025 45.8069C97.5411 45.3075 96.5312 45.128 95.5505 45.2998C94.5966 45.4769 93.7339 45.9802 93.1103 46.7235C93.0019 46.8521 92.949 47.0185 92.9632 47.186C92.9774 47.3536 93.0576 47.5087 93.1861 47.6172C93.3012 47.7127 93.446 47.765 93.5956 47.7652C93.6882 47.7646 93.7795 47.7437 93.8631 47.7041C93.9467 47.6644 94.0207 47.607 94.0798 47.5357C94.5168 47.0091 95.1273 46.6554 95.8016 46.5383C96.4759 46.4212 97.1698 46.5483 97.7589 46.8967C97.904 46.9821 98.0771 47.0063 98.2401 46.964C98.3208 46.9431 98.3966 46.9065 98.4631 46.8562C98.5297 46.806 98.5857 46.7432 98.6279 46.6713C98.6702 46.5995 98.6979 46.52 98.7094 46.4374C98.7209 46.3548 98.7161 46.2708 98.6952 46.1901C98.6743 46.1094 98.6376 46.0336 98.5874 45.9671C98.5372 45.9006 98.4743 45.8446 98.4025 45.8023V45.8069Z" fill="#180C47"/>
<path d="M102.822 60.2998H98.6758V61.0627H102.822V60.2998Z" fill="#180C47"/>
<path d="M116.705 73.2774C117.157 74.7366 117.245 76.158 116.869 77.4074C116.827 77.5496 116.754 77.6781 116.705 77.8146C114.937 82.2727 107.29 83.5576 102.506 82.9989C100.385 82.7341 98.3354 82.0596 96.4716 81.0131C95.6963 79.8462 94.6731 78.8648 93.475 78.1388C92.2768 77.4128 90.9332 76.9602 89.54 76.8131C89.374 76.7926 89.2056 76.8056 89.0447 76.8515C88.8838 76.8974 88.7338 76.9751 88.6036 77.0801C88.4733 77.1851 88.3655 77.3152 88.2865 77.4626C88.2076 77.6101 88.1591 77.7719 88.1439 77.9385C88.1253 78.1042 88.1396 78.2718 88.1862 78.4319C88.2327 78.5919 88.3105 78.7411 88.415 78.8709C88.5196 79.0007 88.6488 79.1086 88.7952 79.1882C88.9416 79.2678 89.1024 79.3176 89.2681 79.3347C90.276 79.445 91.2488 79.7693 92.1213 80.2858C92.2452 80.3603 92.3416 80.4464 92.4574 80.5255C91.4786 80.0941 90.444 79.8026 89.384 79.6594C89.0493 79.6191 88.7123 79.7133 88.4472 79.9215C88.182 80.1297 88.0104 80.4346 87.9701 80.7693C87.9297 81.104 88.024 81.441 88.2322 81.7062C88.4403 81.9713 88.7453 82.1429 89.08 82.1833C89.6834 82.261 90.2773 82.4001 90.8525 82.5986C90.2935 82.6001 89.7357 82.6473 89.1844 82.7397C88.8535 82.7981 88.5594 82.9856 88.3667 83.2608C88.1741 83.5361 88.0986 83.8767 88.1571 84.2075C88.2155 84.5384 88.4029 84.8326 88.6782 85.0252C88.9535 85.2179 89.294 85.2933 89.6249 85.2349C90.1756 85.1351 90.5037 85.0375 90.8995 85.0341C91.2196 85.0341 91.4995 85.0261 91.8173 85.1626C92.15 85.306 92.1855 85.4574 92.602 85.7477C92.8772 85.9488 93.1833 86.1037 93.5083 86.2066C93.7159 86.2639 94.2804 86.3775 95.0616 86.0047C97.2155 87.0613 99.5321 87.7474 101.914 88.0341C102.825 88.1384 103.742 88.1894 104.659 88.1867C108.519 88.1867 113.161 87.3377 116.705 85.127C119.031 83.6769 120.888 81.6464 121.723 78.8678C123.142 74.1504 121.203 68.5806 116.705 64.126V73.2774Z" fill="#00BD99"/>
<path d="M116.561 63.7756C116.493 63.8055 116.435 63.8546 116.394 63.917C116.354 63.9793 116.332 64.0522 116.332 64.1267V73.2769C116.332 73.3158 116.338 73.3544 116.349 73.3916C116.799 74.8497 116.854 76.1668 116.512 77.3025C116.488 77.3813 116.457 77.458 116.42 77.532L116.358 77.6776C114.665 81.9556 107.126 83.1683 102.557 82.6233C100.515 82.3695 98.5398 81.7261 96.7397 80.7281C95.9282 79.53 94.8638 78.5243 93.6216 77.782C92.3874 77.0514 91.0114 76.593 89.5856 76.4375C89.2187 76.3977 88.8491 76.4823 88.5359 76.6777C88.2228 76.8731 87.9844 77.168 87.8589 77.515C87.7334 77.8621 87.728 78.2413 87.8437 78.5917C87.9594 78.9422 88.1894 79.2437 88.4969 79.4478C88.2528 79.5695 88.0431 79.7504 87.887 79.9741C87.7308 80.1978 87.6333 80.457 87.6032 80.7281C87.5585 81.106 87.6457 81.4877 87.8499 81.8088C88.0541 82.1298 88.3629 82.3705 88.7241 82.4902C88.4603 82.6115 88.2332 82.8004 88.0658 83.0376C87.8984 83.2748 87.7967 83.5521 87.7708 83.8413C87.745 84.1305 87.796 84.4214 87.9186 84.6845C88.0413 84.9477 88.2313 85.1738 88.4694 85.3399C88.6459 85.464 88.8453 85.5517 89.0561 85.598C89.2668 85.6443 89.4846 85.6482 89.6969 85.6095L90.1225 85.5246C90.4245 85.4593 90.7316 85.421 91.0403 85.4099C91.2547 85.3968 91.4693 85.4308 91.669 85.5097C91.7823 85.5582 91.8842 85.6297 91.9684 85.7197C92.1003 85.842 92.241 85.9543 92.3894 86.0558C92.6976 86.2835 93.0415 86.4583 93.407 86.5732C93.9587 86.7082 94.5396 86.6553 95.0579 86.4229C97.2058 87.4567 99.5093 88.1299 101.876 88.4156C102.802 88.5205 103.734 88.5725 104.666 88.5717C109.273 88.5717 113.736 87.4348 116.912 85.4524C119.551 83.8061 121.296 81.6275 122.093 78.9786C123.551 74.1293 121.634 68.4746 116.979 63.8582C116.926 63.8033 116.858 63.766 116.783 63.7512C116.709 63.7364 116.631 63.7449 116.561 63.7756ZM117.088 73.2195V65.0651C121.073 69.3477 122.668 74.4104 121.361 78.7595C120.618 81.2249 118.984 83.26 116.506 84.8076C113.447 86.7132 109.13 87.8076 104.661 87.8076C103.759 87.8104 102.857 87.7602 101.961 87.6573C99.6189 87.3758 97.3414 86.7009 95.2242 85.6612C95.1728 85.6368 95.1165 85.6241 95.0596 85.6241C95.0027 85.6241 94.9464 85.6368 94.895 85.6612C94.311 85.9411 93.8705 85.9113 93.6032 85.8424C93.3218 85.7483 93.0571 85.6104 92.8185 85.434C92.6964 85.351 92.5813 85.2582 92.4743 85.1564C92.328 85.0109 92.1556 84.8941 91.9661 84.8122C91.6331 84.6762 91.2726 84.6211 90.9141 84.6516C90.5948 84.6628 90.2773 84.7058 89.9665 84.7801L89.5558 84.8616C89.4423 84.883 89.3255 84.8812 89.2127 84.8561C89.0999 84.8311 88.9934 84.7834 88.8996 84.7159C88.7533 84.6165 88.6401 84.4756 88.5745 84.3113C88.509 84.147 88.4942 83.9669 88.532 83.7941C88.5697 83.6213 88.6584 83.4638 88.7864 83.3418C88.9145 83.2198 89.0762 83.139 89.2506 83.1097C89.7815 83.0214 90.3186 82.9758 90.8568 82.9732C90.9467 82.9719 91.0334 82.9388 91.1013 82.8798C91.1692 82.8207 91.2139 82.7395 91.2277 82.6506C91.2414 82.5616 91.2232 82.4707 91.1763 82.3939C91.1295 82.3171 91.0569 82.2594 90.9715 82.231C90.3716 82.0265 89.7529 81.8821 89.1245 81.7996C88.9016 81.7593 88.7027 81.6352 88.5684 81.4529C88.4341 81.2706 88.3746 81.0437 88.4022 80.819C88.4298 80.5942 88.5423 80.3885 88.7167 80.2441C88.8911 80.0996 89.1142 80.0273 89.3401 80.0421C90.3639 80.1784 91.3631 80.4592 92.308 80.8761C92.3946 80.9124 92.4917 80.9155 92.5804 80.8846C92.6691 80.8537 92.7433 80.7912 92.7887 80.7089C92.8341 80.6266 92.8475 80.5305 92.8264 80.439C92.8052 80.3474 92.7509 80.267 92.674 80.213L92.5592 80.1293C92.4837 80.0679 92.4048 80.0108 92.3229 79.9583C91.4027 79.4146 90.3773 79.0728 89.3149 78.9557C89.0809 78.93 88.8666 78.8125 88.7191 78.6291C88.5716 78.4456 88.5028 78.2111 88.5279 77.9771C88.5371 77.86 88.5701 77.7461 88.625 77.6423C88.6799 77.5385 88.7555 77.447 88.847 77.3735C88.9386 77.3 89.0442 77.246 89.1574 77.2148C89.2707 77.1837 89.389 77.176 89.5053 77.1924C90.8209 77.3351 92.0907 77.758 93.2292 78.4325C94.4028 79.1335 95.404 80.0889 96.1592 81.2283C96.1945 81.2779 96.2403 81.3191 96.2934 81.3488C98.2007 82.419 100.298 83.1086 102.468 83.3793C107.418 83.9357 115.202 82.6543 117.066 77.9576L117.118 77.8337C117.165 77.7299 117.205 77.6234 117.239 77.5147C117.616 76.2494 117.562 74.8039 117.088 73.2195Z" fill="#0068C7"/>
<path d="M95.5929 36.5069C95.0395 36.2721 94.4721 36.0721 93.8938 35.9081C90.7963 35.0522 88.043 35.5914 86.0308 36.0056C83.9486 36.4346 82.3654 37.045 80.6446 37.7069C79.1119 38.2954 77.8912 38.8335 77.539 39.0319C76.6706 39.5218 69.0863 44.0029 68.8052 51.4438C68.5654 57.8005 73.5169 63.6628 80.6446 66.1615V60.664C76.331 58.5508 73.7509 54.8407 73.8759 51.6342C74.0561 46.8675 79.9654 43.4889 80.0251 43.4522C80.235 43.3375 80.4403 43.2664 80.648 43.1654C82.4496 42.2926 84.4258 41.84 86.4277 41.8415C86.4781 41.8509 86.5291 41.8574 86.5803 41.861C87.7025 41.7749 88.8296 41.9484 89.874 42.3681C90.9757 42.8122 91.9546 43.5145 92.7283 44.4159C92.9469 44.6713 93.258 44.8294 93.5932 44.8554C93.9284 44.8815 94.2602 44.7733 94.5156 44.5547C94.771 44.3361 94.9292 44.0249 94.9552 43.6897C94.9812 43.3545 94.873 43.0227 94.6544 42.7673C93.9967 42.027 93.2318 41.3894 92.3852 40.8755C93.3539 41.1765 94.249 41.6762 95.0135 42.3428C95.2653 42.5654 95.5952 42.6788 95.9306 42.6582C96.266 42.6375 96.5795 42.4845 96.802 42.2327C97.0246 41.9809 97.138 41.651 97.1174 41.3156C97.0967 40.9802 96.9437 40.6667 96.6919 40.4442C95.5198 39.4289 94.125 38.7041 92.6204 38.3287C93.3166 38.4244 93.999 38.6023 94.6533 38.8587C95.9094 39.3667 97.0408 40.1405 97.9699 41.1268C98.0846 41.2473 98.222 41.3441 98.3741 41.4115C98.5262 41.4789 98.6901 41.5158 98.8565 41.5199C99.0228 41.524 99.1883 41.4953 99.3436 41.4354C99.4988 41.3755 99.6408 41.2857 99.7613 41.1709C99.8818 41.0562 99.9786 40.9189 100.046 40.7668C100.113 40.6147 100.15 40.4507 100.154 40.2844C100.158 40.1181 100.13 39.9525 100.07 39.7973C100.01 39.642 99.9202 39.5001 99.8055 39.3796C98.7753 38.3035 97.6475 37.3329 95.5929 36.5069Z" fill="#00BD99"/>
<path d="M95.7351 36.156C95.169 35.9156 94.5886 35.7107 93.9971 35.5423C90.7412 34.6486 87.8571 35.2394 85.9539 35.6329C83.8372 36.0689 82.2208 36.6929 80.5103 37.3537C78.9501 37.9503 77.718 38.4952 77.3508 38.7029C76.4652 39.2054 68.7123 43.7954 68.4266 51.437C68.1845 57.8363 73.0499 63.9016 80.5195 66.5207C80.5766 66.5406 80.6377 66.5465 80.6976 66.5379C80.7574 66.5293 80.8144 66.5065 80.8636 66.4714C80.9129 66.436 80.9531 66.3896 80.981 66.3357C81.0089 66.2819 81.0237 66.2223 81.0243 66.1617V60.663C81.0246 60.5914 81.0048 60.5211 80.9671 60.4602C80.9293 60.3993 80.8752 60.3503 80.8109 60.3188C76.7635 58.3376 74.1272 54.8546 74.2488 51.647C74.4174 47.1441 80.1455 43.8138 80.2017 43.7816C80.3102 43.7232 80.4221 43.6711 80.5367 43.6256C80.6285 43.5866 80.7191 43.5465 80.8109 43.5017C82.5608 42.6584 84.4783 42.2204 86.4208 42.2203C86.4755 42.2401 86.5342 42.246 86.5917 42.2375C87.6889 42.1535 88.7904 42.33 89.8064 42.7527C90.8224 43.1753 91.7241 43.8322 92.438 44.6696C92.7292 44.9905 93.1321 45.1881 93.5641 45.2217C93.9962 45.2554 94.4248 45.1228 94.7622 44.8508C95.035 44.6174 95.2243 44.3014 95.3013 43.9507C95.3783 43.6 95.3389 43.2337 95.189 42.9074C95.5093 43.0427 95.8636 43.0751 96.2031 43.0003C96.5426 42.9255 96.8505 42.7472 97.0842 42.4899C97.2407 42.3126 97.357 42.1037 97.4253 41.8774C97.4936 41.6511 97.5123 41.4128 97.48 41.1786C97.5511 41.2474 97.6234 41.3197 97.6934 41.3931C98 41.699 98.4123 41.8755 98.8452 41.8861C99.2782 41.8968 99.6987 41.7409 100.02 41.4505C100.177 41.3015 100.304 41.123 100.392 40.925C100.48 40.7271 100.528 40.5137 100.533 40.2972C100.538 40.0806 100.5 39.8652 100.422 39.6632C100.344 39.4613 100.226 39.2768 100.076 39.1205C98.9427 37.9308 97.7726 36.9729 95.7351 36.156ZM99.4945 40.8964C99.3221 41.0524 99.0964 41.1363 98.8639 41.1308C98.6314 41.1252 98.41 41.0306 98.2452 40.8665C97.2772 39.8402 96.0994 39.0346 94.7921 38.5044C94.11 38.2389 93.3992 38.0537 92.6743 37.9526C92.6262 37.9442 92.5768 37.9454 92.5292 37.956C92.4815 37.9667 92.4364 37.9867 92.3964 38.0148C92.3564 38.0429 92.3224 38.0787 92.2963 38.12C92.2701 38.1613 92.2524 38.2073 92.2441 38.2555C92.2252 38.3511 92.2438 38.4503 92.2958 38.5326C92.3479 38.615 92.4296 38.6743 92.524 38.6983C93.9692 39.0575 95.3092 39.7529 96.4349 40.7277C96.6109 40.8837 96.718 41.1031 96.7328 41.3378C96.7477 41.5725 96.669 41.8036 96.5141 41.9805C96.3549 42.1515 96.1362 42.2548 95.903 42.2691C95.6699 42.2834 95.4401 42.2076 95.2613 42.0574C94.4578 41.3537 93.5149 40.8275 92.4942 40.5132C92.4058 40.4881 92.3113 40.4948 92.2274 40.5324C92.1435 40.5699 92.0755 40.6359 92.0353 40.7185C91.9972 40.8023 91.9908 40.897 92.0172 40.9852C92.0435 41.0733 92.1009 41.149 92.1787 41.1981C92.9938 41.689 93.7288 42.3019 94.3584 43.0153C94.4351 43.1029 94.4934 43.205 94.5301 43.3156C94.5667 43.4261 94.5809 43.5428 94.5718 43.6589C94.5529 43.8942 94.4415 44.1124 94.2621 44.2658C94.0812 44.4144 93.8498 44.4874 93.6163 44.4695C93.3828 44.4515 93.1653 44.344 93.0093 44.1694C92.1968 43.2207 91.1678 42.4817 90.0093 42.0149C88.9106 41.5723 87.7244 41.3901 86.5435 41.4826C86.5106 41.4685 86.475 41.4619 86.4391 41.4631C84.3758 41.4606 82.3386 41.9254 80.4805 42.8226C80.3986 42.8616 80.3195 42.8971 80.243 42.9292C80.1025 42.9846 79.966 43.0498 79.8346 43.1243C79.7795 43.1518 73.6797 46.5923 73.495 51.6206C73.3631 55.0623 76.0763 58.7701 80.2636 60.8982V65.619C73.3941 63.0251 68.9612 57.3854 69.1849 51.4588C69.4568 44.2313 76.8816 39.8398 77.7248 39.3637C78.0174 39.1962 79.1612 38.6834 80.7799 38.0593C82.4606 37.4134 84.0506 36.7973 86.1053 36.3763C87.9409 36 90.7217 35.4299 93.7917 36.2742C94.3544 36.4368 94.9072 36.6322 95.4471 36.8593C97.3584 37.6291 98.4609 38.5274 99.5244 39.6413C99.6865 39.8119 99.7744 40.0397 99.7688 40.275C99.7632 40.5103 99.6646 40.7337 99.4945 40.8964Z" fill="#0068C7"/>
<path d="M92.0335 82.6268C91.8552 82.5187 91.666 82.4299 91.469 82.3617C91.2141 82.2787 90.9488 82.2312 90.6809 82.2206C90.676 82.2194 90.6709 82.2194 90.666 82.2206C90.5653 82.2188 90.468 82.2571 90.3954 82.327C90.3229 82.3969 90.2812 82.4928 90.2794 82.5935C90.2775 82.6942 90.3158 82.7915 90.3857 82.864C90.4556 82.9365 90.5515 82.9783 90.6522 82.9801C90.8474 82.989 91.0405 83.0249 91.2258 83.0868C91.3684 83.1336 91.5048 83.1975 91.6319 83.2772C91.7179 83.3305 91.8215 83.3474 91.9199 83.3243C92.0183 83.3011 92.1035 83.2399 92.1568 83.1539C92.21 83.068 92.227 82.9644 92.2038 82.8659C92.1807 82.7675 92.1194 82.6823 92.0335 82.629V82.6268Z" fill="#0068C7"/>
<path d="M92.5297 40.5272L91.4214 40.0569C91.3757 40.0364 91.3263 40.0254 91.2762 40.0245C91.2261 40.0235 91.1763 40.0327 91.1298 40.0515C91.0834 40.0702 91.0411 40.0981 91.0057 40.1335C90.9702 40.169 90.9423 40.2112 90.9235 40.2576C90.9037 40.3035 90.8932 40.3528 90.8926 40.4027C90.892 40.4526 90.9013 40.5022 90.92 40.5485C90.9386 40.5948 90.9663 40.637 91.0014 40.6725C91.0365 40.708 91.0782 40.7363 91.1243 40.7555L92.2279 41.2259C92.2757 41.2469 92.3272 41.2579 92.3794 41.258C92.467 41.258 92.552 41.2277 92.6199 41.1723C92.6879 41.1169 92.7346 41.0397 92.7523 40.9539C92.7699 40.868 92.7574 40.7787 92.7169 40.7009C92.6763 40.6232 92.6102 40.5619 92.5297 40.5272Z" fill="#0068C7"/>
</svg>
