<svg width="148" height="80" viewBox="0 0 148 80" fill="none" xmlns="http://www.w3.org/2000/svg">
<path d="M128.709 9.10059L127.227 13.4487C138.249 17.1524 142.783 23.0784 142.223 25.3598C141.853 26.8413 138.89 28.4339 134.816 29.308L131.797 30.208C130.453 30.6709 129.472 31.5005 129.035 32.545C128.064 34.8672 129.664 37.8709 132.672 39.3783C132.831 39.4599 133.007 39.5019 133.186 39.5005C133.415 39.5036 133.64 39.4371 133.83 39.3097C134.02 39.1823 134.167 39 134.252 38.7871C134.336 38.5742 134.354 38.3407 134.302 38.1176C134.251 37.8944 134.133 37.6922 133.964 37.5376C134.116 37.5783 134.264 37.6265 134.42 37.6598C134.494 37.6743 134.57 37.6818 134.646 37.682C134.881 37.6843 135.112 37.6129 135.305 37.4779C135.499 37.3429 135.645 37.1509 135.724 36.9288C135.803 36.7066 135.811 36.4654 135.747 36.2386C135.682 36.0118 135.548 35.8108 135.364 35.6635C135.701 35.7265 136.005 35.7894 136.401 35.8487C136.459 35.8542 136.517 35.8542 136.575 35.8487C136.862 35.8446 137.138 35.733 137.347 35.536C137.555 35.3389 137.683 35.0707 137.704 34.7843C137.725 34.4979 137.638 34.214 137.46 33.9887C137.281 33.7634 137.025 33.613 136.742 33.5672H136.679C140.864 32.545 145.66 30.5154 146.66 26.4487C148.175 20.4154 140.612 13.1191 128.709 9.10059Z" fill="#00D559"/>
<path d="M128.82 8.77463C128.733 8.74834 128.639 8.75494 128.557 8.79316C128.515 8.81224 128.478 8.83994 128.448 8.87442C128.418 8.90891 128.396 8.94937 128.383 8.99315L126.901 13.3376C126.873 13.4245 126.88 13.5191 126.921 13.6009C126.962 13.6827 127.033 13.7451 127.12 13.7746C137.786 17.3709 142.405 23.1746 141.89 25.2783C141.561 26.6227 138.627 28.1376 134.731 28.982L131.701 29.8894C130.264 30.382 129.209 31.2783 128.738 32.4153C127.698 34.9042 129.368 38.1005 132.538 39.6894C132.744 39.7955 132.973 39.8501 133.205 39.8487C133.482 39.8506 133.755 39.7745 133.991 39.6292C134.228 39.4838 134.419 39.275 134.542 39.0264C134.694 38.7174 134.732 38.3645 134.649 38.0301C134.995 38.0321 135.33 37.9133 135.597 37.6941C135.865 37.475 136.047 37.1694 136.112 36.8301C136.157 36.6037 136.146 36.3697 136.079 36.1487L136.353 36.1931C136.743 36.2466 137.139 36.1457 137.456 35.9119C137.772 35.678 137.985 35.3298 138.049 34.9413C138.08 34.7471 138.071 34.5489 138.024 34.3582C137.977 34.1674 137.892 33.9879 137.775 33.8302C137.735 33.7771 137.692 33.7264 137.646 33.6783C142.979 32.219 146.205 29.7598 146.998 26.5376C148.557 20.3191 140.898 12.8487 128.82 8.77463ZM146.357 26.3709C145.383 30.3265 140.527 32.2968 136.627 33.2339C136.55 33.2564 136.484 33.3066 136.441 33.375C136.399 33.4434 136.383 33.525 136.398 33.6042C136.406 33.6875 136.443 33.7654 136.501 33.8253C136.56 33.8851 136.637 33.9234 136.72 33.9338C136.824 33.9494 136.924 33.9853 137.014 34.0395C137.104 34.0938 137.183 34.1652 137.246 34.2498C137.308 34.3344 137.353 34.4305 137.379 34.5326C137.404 34.6347 137.409 34.7409 137.394 34.845C137.378 34.949 137.342 35.049 137.288 35.1392C137.234 35.2294 137.162 35.3081 137.078 35.3707C136.993 35.4333 136.897 35.4786 136.795 35.5041C136.693 35.5295 136.587 35.5346 136.483 35.519C136.205 35.4783 135.972 35.4338 135.742 35.3894L135.453 35.3339C135.379 35.3216 135.303 35.3338 135.236 35.3685C135.169 35.4032 135.115 35.4586 135.083 35.5264C135.05 35.5954 135.041 35.6735 135.058 35.748C135.075 35.8226 135.116 35.8893 135.175 35.9376C135.29 36.0261 135.377 36.1446 135.428 36.28C135.479 36.4153 135.492 36.5622 135.464 36.7042C135.42 36.9109 135.297 37.0922 135.122 37.2092C134.946 37.3262 134.731 37.3696 134.523 37.3302C134.409 37.3079 134.305 37.2783 134.198 37.2487L134.094 37.219C134.02 37.1974 133.941 37.2013 133.87 37.2302C133.799 37.2592 133.739 37.3113 133.701 37.3783C133.664 37.4451 133.649 37.5226 133.661 37.5984C133.672 37.6742 133.709 37.744 133.764 37.7968C133.888 37.9135 133.971 38.0663 134.002 38.2333C134.034 38.4003 134.011 38.573 133.938 38.7264C133.841 38.9154 133.675 39.0596 133.474 39.1286C133.273 39.1977 133.053 39.1863 132.861 39.0968C130.009 37.6635 128.486 34.8561 129.386 32.7005C129.783 31.7487 130.694 30.9857 131.931 30.5598L134.92 29.6672C139.168 28.7524 142.172 27.1042 142.575 25.4672C143.238 22.7783 138.309 16.9228 127.683 13.245L128.927 9.5413C140.468 13.5154 147.786 20.5672 146.357 26.3709Z" fill="white"/>
<path d="M20.2532 25.7928C17.9709 23.8128 16.2942 21.2284 15.4162 18.3372C15.8739 17.8949 16.287 17.4086 16.6495 16.8854C17.3844 15.8299 17.8125 14.5916 17.8866 13.3076C17.8976 13.0919 17.8476 12.8773 17.7422 12.6887C17.6369 12.5001 17.4804 12.3451 17.2909 12.2414C17.1013 12.1377 16.8864 12.0896 16.6707 12.1027C16.455 12.1157 16.2474 12.1893 16.0717 12.315C15.8118 12.5399 15.6432 12.8522 15.5977 13.1928C15.3193 14.104 14.8352 14.9391 14.1829 15.6336C13.8219 16.0517 13.3983 16.4116 12.9273 16.7002C11.983 16.6031 11.0463 16.4422 10.1236 16.2187C9.82731 16.1447 9.16805 15.9891 8.23842 15.7891C7.99768 15.7373 7.71991 15.6854 7.34954 15.6261C5.30151 15.2976 3.22312 15.1994 1.15325 15.3336C1.0032 15.3433 0.856542 15.3825 0.721639 15.4489C0.586736 15.5153 0.466235 15.6076 0.367014 15.7206C0.267793 15.8336 0.191788 15.965 0.143354 16.1073C0.0949209 16.2497 0.0749993 16.4002 0.0847269 16.5502C0.0944544 16.7003 0.133642 16.8469 0.200049 16.9818C0.266457 17.1167 0.35879 17.2372 0.471768 17.3365C0.584746 17.4357 0.716156 17.5117 0.858504 17.5601C1.00085 17.6085 1.15135 17.6285 1.30139 17.6187C1.85695 17.5817 2.41251 17.6187 2.96436 17.6187C2.18514 17.8225 1.42246 18.085 0.682882 18.4039C0.404896 18.5267 0.187067 18.7549 0.0773236 19.0383C-0.0324198 19.3217 -0.025094 19.637 0.0976912 19.915C0.220476 20.193 0.448661 20.4108 0.732049 20.5206C1.01544 20.6303 1.33082 20.623 1.60881 20.5002C2.49109 20.1196 3.41097 19.8328 4.35325 19.6447C4.1088 19.7298 3.86066 19.8002 3.61251 19.8965C3.35865 19.9921 3.14684 20.1746 3.01466 20.4115C2.88247 20.6484 2.83844 20.9244 2.89036 21.1907C2.94228 21.4569 3.08681 21.6962 3.29831 21.8661C3.50982 22.036 3.77464 22.1255 4.04583 22.1187C4.19571 22.1195 4.34425 22.0905 4.48287 22.0335C6.61276 21.1603 8.93297 20.8553 11.2162 21.1484C11.3343 21.1554 11.4528 21.1454 11.568 21.1187C12.7565 24.2924 14.7243 27.1161 17.2903 29.3298C21.568 32.9298 26.5495 33.9261 30.7606 33.9261C33.8789 33.9237 36.976 33.4146 39.931 32.4187L38.3384 28.115C38.2421 28.1261 27.5865 31.9669 20.2532 25.7928Z" fill="#00D559"/>
<path d="M92.7346 6.33691L88.1494 6.45913C88.7889 30.7628 89.4285 55.0689 90.068 79.3775L102.975 79.4331L94.4568 72.2405L92.7346 6.33691Z" fill="#00D559"/>
<path d="M80.6827 6.28906L76.0975 6.37054L77.2975 72.2964L69.2346 79.6704L81.9938 79.5149V79.4778H82.0234L80.6827 6.28906Z" fill="#00D559"/>
<path d="M128.453 0.344727H40.5196C38.7666 0.344727 37.3455 1.7658 37.3455 3.51879V37.6002C37.3455 39.3532 38.7666 40.7743 40.5196 40.7743H128.453C130.206 40.7743 131.627 39.3532 131.627 37.6002V3.51879C131.627 1.7658 130.206 0.344727 128.453 0.344727Z" fill="#00D559"/>
<path d="M78.3568 26.0187H78.2346C77.3726 25.9804 76.5489 25.6514 75.8979 25.0851C75.2468 24.5187 74.8068 23.7486 74.6494 22.9002C74.634 22.8154 74.6376 22.7281 74.66 22.6448C74.6824 22.5616 74.7231 22.4843 74.7791 22.4187C74.8355 22.3506 74.9062 22.2957 74.9862 22.258C75.0662 22.2202 75.1535 22.2005 75.242 22.2002H81.4901C81.579 22.2007 81.6666 22.2209 81.7466 22.2593C81.8267 22.2977 81.8972 22.3534 81.9531 22.4224C82.008 22.4885 82.0475 22.5661 82.0686 22.6493C82.0897 22.7326 82.092 22.8196 82.0753 22.9039C81.9123 23.7735 81.4524 24.5595 80.7742 25.1276C80.096 25.6957 79.2415 26.0107 78.3568 26.0187Z" fill="#180C47"/>
<mask id="mask0_42_2078" style="mask-type:luminance" maskUnits="userSpaceOnUse" x="74" y="22" width="9" height="5">
<path d="M78.3568 26.0187H78.2346C77.3726 25.9804 76.5489 25.6514 75.8979 25.0851C75.2468 24.5187 74.8068 23.7486 74.6494 22.9002C74.634 22.8154 74.6376 22.7281 74.66 22.6448C74.6824 22.5616 74.7231 22.4843 74.7791 22.4187C74.8355 22.3506 74.9062 22.2957 74.9862 22.258C75.0662 22.2202 75.1535 22.2005 75.242 22.2002H81.4901C81.579 22.2007 81.6666 22.2209 81.7466 22.2593C81.8267 22.2977 81.8972 22.3534 81.9531 22.4224C82.008 22.4885 82.0475 22.5661 82.0686 22.6493C82.0897 22.7326 82.092 22.8196 82.0753 22.9039C81.9123 23.7735 81.4524 24.5595 80.7742 25.1276C80.096 25.6957 79.2415 26.0107 78.3568 26.0187Z" fill="white"/>
</mask>
<g mask="url(#mask0_42_2078)">
<path d="M78.2457 25.6746C79.1199 25.6928 79.9688 25.3808 80.6231 24.8006C81.2774 24.2205 81.6888 23.415 81.7753 22.5449H74.9457C75.0269 23.3764 75.4053 24.1507 76.0116 24.7257C76.6178 25.3006 77.411 25.6375 78.2457 25.6746Z" fill="#180C47"/>
<path d="M77.3754 24.2086C76.2642 24.5049 75.2161 25.5123 75.4124 26.0604C75.7828 27.1271 80.7235 26.9012 80.942 25.9271C81.0864 25.2901 79.2383 23.7049 77.3754 24.2086Z" fill="#FFC5E1"/>
</g>
<path d="M83.5828 14.7637C83.1307 14.7637 82.6887 14.8978 82.3128 15.1491C81.9369 15.4003 81.644 15.7574 81.4712 16.1752C81.2983 16.593 81.2533 17.0526 81.3418 17.496C81.4303 17.9394 81.6483 18.3466 81.9682 18.666C82.2882 18.9855 82.6957 19.2028 83.1392 19.2906C83.5828 19.3783 84.0424 19.3325 84.4599 19.159C84.8774 18.9855 85.234 18.692 85.4846 18.3157C85.7353 17.9394 85.8687 17.4973 85.868 17.0452C85.867 16.4397 85.6258 15.8594 85.1973 15.4317C84.7689 15.0039 84.1882 14.7637 83.5828 14.7637Z" fill="white"/>
<mask id="mask1_42_2078" style="mask-type:luminance" maskUnits="userSpaceOnUse" x="81" y="14" width="5" height="6">
<path d="M83.5828 19.3301C84.8449 19.3301 85.868 18.307 85.868 17.045C85.868 15.7829 84.8449 14.7598 83.5828 14.7598C82.3207 14.7598 81.2976 15.7829 81.2976 17.045C81.2976 18.307 82.3207 19.3301 83.5828 19.3301Z" fill="white"/>
</mask>
<g mask="url(#mask1_42_2078)">
<path d="M82.2828 13.9561C81.8307 13.9553 81.3885 14.0887 81.0122 14.3394C80.6359 14.59 80.3424 14.9467 80.1689 15.3642C79.9954 15.7817 79.9496 16.2413 80.0374 16.6848C80.1251 17.1283 80.3425 17.5358 80.6619 17.8558C80.9813 18.1757 81.3885 18.3938 81.8319 18.4822C82.2753 18.5707 82.7349 18.5257 83.1527 18.3528C83.5705 18.18 83.9276 17.8871 84.1789 17.5112C84.4301 17.1353 84.5643 16.6934 84.5643 16.2412C84.5643 15.6358 84.324 15.0551 83.8963 14.6267C83.4685 14.1982 82.8882 13.957 82.2828 13.9561Z" fill="#180C47"/>
</g>
<path d="M86.0455 12.2373L81.6493 9.96319C81.5821 9.92126 81.5071 9.89366 81.4288 9.88212C81.3505 9.87057 81.2707 9.87534 81.1943 9.89612C81.118 9.9169 81.0468 9.95322 80.9851 10.0028C80.9235 10.0525 80.8728 10.1143 80.8361 10.1844C80.7995 10.2546 80.7778 10.3316 80.7724 10.4105C80.7669 10.4894 80.7778 10.5686 80.8045 10.6432C80.8311 10.7177 80.8728 10.7859 80.9271 10.8435C80.9813 10.9011 81.0469 10.9469 81.1196 10.978L85.5159 13.2521C85.5982 13.2953 85.6896 13.3181 85.7826 13.3187C85.9103 13.3175 86.034 13.2737 86.134 13.1943C86.234 13.1149 86.3047 13.0044 86.3349 12.8803C86.3651 12.7562 86.353 12.6256 86.3006 12.5091C86.2482 12.3926 86.1584 12.297 86.0455 12.2373Z" fill="#180C47"/>
<path d="M73.3864 14.7637C72.9342 14.7637 72.4923 14.8978 72.1164 15.1491C71.7405 15.4003 71.4476 15.7574 71.2748 16.1752C71.1019 16.593 71.0569 17.0527 71.1454 17.496C71.2339 17.9394 71.4519 18.3466 71.7718 18.666C72.0918 18.9855 72.4993 19.2028 72.9428 19.2906C73.3864 19.3783 73.8459 19.3326 74.2634 19.159C74.6809 18.9855 75.0376 18.692 75.2882 18.3157C75.5389 17.9395 75.6723 17.4973 75.6716 17.0452C75.6716 16.7452 75.6124 16.4483 75.4975 16.1712C75.3826 15.8942 75.2143 15.6425 75.002 15.4306C74.7898 15.2187 74.5378 15.0507 74.2606 14.9363C73.9834 14.8218 73.6863 14.7632 73.3864 14.7637Z" fill="white"/>
<mask id="mask2_42_2078" style="mask-type:luminance" maskUnits="userSpaceOnUse" x="71" y="14" width="5" height="6">
<path d="M73.3864 19.3301C74.6484 19.3301 75.6716 18.307 75.6716 17.045C75.6716 15.7829 74.6484 14.7598 73.3864 14.7598C72.1243 14.7598 71.1012 15.7829 71.1012 17.045C71.1012 18.307 72.1243 19.3301 73.3864 19.3301Z" fill="white"/>
</mask>
<g mask="url(#mask2_42_2078)">
<path d="M72.0827 13.9561C71.6308 13.9561 71.1889 14.0901 70.8131 14.3412C70.4374 14.5923 70.1445 14.9492 69.9715 15.3667C69.7985 15.7843 69.7533 16.2438 69.8415 16.687C69.9296 17.1303 70.1473 17.5375 70.4669 17.8571C70.7865 18.1767 71.1936 18.3943 71.6369 18.4825C72.0802 18.5707 72.5397 18.5254 72.9572 18.3525C73.3748 18.1795 73.7317 17.8866 73.9828 17.5108C74.2339 17.135 74.3679 16.6932 74.3679 16.2412C74.3684 15.941 74.3096 15.6436 74.195 15.3662C74.0803 15.0887 73.912 14.8366 73.6997 14.6243C73.4874 14.412 73.2353 14.2437 72.9578 14.129C72.6803 14.0143 72.383 13.9556 72.0827 13.9561Z" fill="#180C47"/>
</g>
<path d="M75.8494 11.6636L71.4494 9.39327C71.3821 9.35353 71.3074 9.32794 71.2299 9.31807C71.1524 9.30821 71.0737 9.31426 70.9986 9.33588C70.9235 9.35749 70.8536 9.3942 70.7932 9.44377C70.7328 9.49334 70.6832 9.55473 70.6473 9.62415C70.6115 9.69358 70.5902 9.76961 70.5847 9.84755C70.5793 9.9255 70.5898 10.0037 70.6156 10.0775C70.6415 10.1512 70.6821 10.2189 70.7351 10.2764C70.788 10.3339 70.8521 10.3799 70.9234 10.4118L75.3234 12.6673C75.4046 12.7095 75.4949 12.7311 75.5864 12.7303C75.7141 12.7291 75.8378 12.6853 75.9378 12.6059C76.0378 12.5265 76.1085 12.416 76.1387 12.2919C76.1689 12.1678 76.1568 12.0372 76.1044 11.9207C76.052 11.8042 75.9622 11.7085 75.8494 11.6488V11.6636Z" fill="#180C47"/>
<path d="M6.06792 17.1374C5.59364 17.0659 5.11413 17.0349 4.63459 17.0448C3.99716 17.0621 3.36364 17.1503 2.74572 17.3077C2.66477 17.3288 2.59425 17.3786 2.54733 17.4478C2.50041 17.5171 2.4803 17.601 2.49073 17.684C2.50116 17.767 2.54142 17.8434 2.60402 17.8988C2.66661 17.9543 2.74726 17.9851 2.8309 17.9855C2.85918 17.9891 2.8878 17.9891 2.91609 17.9855C3.48242 17.8375 4.06419 17.7567 4.64941 17.7448C5.08812 17.7339 5.52692 17.7624 5.96052 17.8299C6.05045 17.8384 6.14035 17.8137 6.21333 17.7605C6.28632 17.7073 6.33735 17.6292 6.35682 17.5411C6.36528 17.4955 6.36445 17.4487 6.35439 17.4034C6.34433 17.3582 6.32525 17.3154 6.29827 17.2777C6.2713 17.24 6.237 17.2082 6.19742 17.1841C6.15784 17.1599 6.11379 17.1441 6.06792 17.1374Z" fill="white"/>
<path d="M6.33826 18.8887H6.30493C5.9768 18.9093 5.65025 18.9501 5.32715 19.0109C4.94966 19.0807 4.57817 19.1798 4.21604 19.3072C4.13029 19.3374 4.05998 19.4003 4.02043 19.4822C3.98088 19.5641 3.97532 19.6583 4.00493 19.7442C4.02859 19.812 4.07261 19.8707 4.13095 19.9125C4.18929 19.9543 4.25911 19.977 4.33086 19.9776C4.37015 19.9771 4.40903 19.9695 4.44567 19.9553C4.77127 19.8396 5.10569 19.7505 5.44567 19.6887C5.74057 19.6322 6.03866 19.5938 6.33826 19.5739C6.42301 19.5627 6.50058 19.5204 6.55589 19.4552C6.61121 19.3901 6.64031 19.3066 6.63753 19.2212C6.63476 19.1358 6.60033 19.0544 6.54091 18.993C6.48149 18.9315 6.40134 18.8943 6.31604 18.8887H6.33826Z" fill="white"/>
<path d="M11.9789 17.8704C11.4397 17.7992 10.8916 17.8386 10.3681 17.9863C9.84467 18.1341 9.35684 18.387 8.93446 18.7297C8.89898 18.7575 8.86936 18.7921 8.84734 18.8314C8.82531 18.8707 8.81131 18.9141 8.80614 18.9588C8.80097 19.0036 8.80475 19.049 8.81724 19.0923C8.82973 19.1356 8.85069 19.176 8.87891 19.2112C8.91033 19.2531 8.95118 19.287 8.99815 19.3102C9.04512 19.3333 9.0969 19.3451 9.14927 19.3445C9.22587 19.3437 9.30008 19.3177 9.36038 19.2704C10.071 18.7055 10.9769 18.4458 11.8789 18.5482C12.4188 18.6314 12.9286 18.8506 13.3604 19.1853C13.4334 19.2334 13.522 19.2519 13.6082 19.2371C13.6944 19.2222 13.7717 19.1752 13.8245 19.1054C13.8772 19.0357 13.9015 18.9485 13.8924 18.8615C13.8832 18.7746 13.8413 18.6943 13.7752 18.6371C13.2522 18.2316 12.6335 17.9676 11.9789 17.8704Z" fill="white"/>
<path d="M81.4901 21.8564H75.242C75.104 21.8571 74.9679 21.8878 74.8431 21.9465C74.7182 22.0052 74.6077 22.0904 74.5192 22.1962C74.4307 22.302 74.3663 22.4258 74.3306 22.559C74.2948 22.6923 74.2886 22.8317 74.3123 22.9676C74.4842 23.8951 74.9658 24.7369 75.6783 25.3552C76.3908 25.9735 77.292 26.3317 78.2345 26.3713H78.3568C79.3218 26.3648 80.2543 26.0222 80.9939 25.4023C81.7334 24.7824 82.2337 23.924 82.4086 22.975C82.4338 22.8406 82.4293 22.7023 82.3954 22.5699C82.3615 22.4375 82.299 22.314 82.2123 22.2083C82.1245 22.1009 82.0145 22.0139 81.8898 21.9531C81.7651 21.8924 81.6288 21.8594 81.4901 21.8564ZM78.3642 25.675H78.2531C77.4702 25.6396 76.7224 25.3404 76.1313 24.8259C75.5402 24.3115 75.1406 23.6121 74.9975 22.8416C74.9898 22.8063 74.9908 22.7696 75.0005 22.7347C75.0102 22.6999 75.0282 22.6679 75.0531 22.6416C75.0764 22.6119 75.1062 22.5877 75.1402 22.5711C75.1742 22.5544 75.2115 22.5456 75.2494 22.5453H81.4901C81.5278 22.5464 81.5649 22.5555 81.5987 22.5721C81.6326 22.5887 81.6625 22.6124 81.6864 22.6416C81.7093 22.669 81.7259 22.7012 81.7349 22.7358C81.7438 22.7704 81.745 22.8065 81.7382 22.8416C81.586 23.6305 81.1666 24.3429 80.5508 24.8589C79.9349 25.375 79.1601 25.6631 78.3568 25.675H78.3642Z" fill="#180C47"/>
<path d="M140.794 15.2599C139.035 13.7165 137.021 12.4908 134.842 11.6377L133.297 16.0007C139.245 19.3081 142.994 23.1488 142.238 25.3451C141.616 27.1636 137.494 28.5043 134.831 29.2932L131.812 30.1932C130.468 30.6562 129.486 31.4858 129.049 32.5303C128.079 34.8525 129.679 37.8562 132.686 39.3636C132.845 39.4452 133.022 39.4871 133.201 39.4858C133.429 39.4877 133.653 39.4205 133.843 39.2931C134.032 39.1657 134.179 38.9839 134.263 38.7717C134.348 38.5595 134.366 38.3267 134.316 38.1038C134.266 37.881 134.15 37.6784 133.983 37.5228C134.131 37.5636 134.279 37.6117 134.434 37.6451C134.509 37.6596 134.584 37.6671 134.66 37.6673C134.896 37.6683 135.126 37.596 135.319 37.4606C135.512 37.3251 135.658 37.133 135.737 36.9109C135.815 36.6889 135.823 36.4478 135.759 36.221C135.695 35.9942 135.562 35.793 135.379 35.6451C135.716 35.7117 136.02 35.7747 136.416 35.8339C136.474 35.8394 136.532 35.8394 136.59 35.8339C136.877 35.8298 137.152 35.7183 137.361 35.5212C137.57 35.3242 137.698 35.056 137.719 34.7696C137.739 34.4831 137.652 34.1993 137.474 33.974C137.296 33.7487 137.04 33.5983 136.757 33.5525H136.694C141.723 33.0228 145.797 30.1265 146.675 26.434C147.864 21.508 142.849 17.0784 140.794 15.2599Z" fill="#00D559"/>
<path d="M134.997 11.334C134.957 11.3136 134.913 11.3013 134.868 11.2979C134.823 11.2944 134.777 11.2999 134.734 11.314C134.691 11.3281 134.652 11.3506 134.617 11.38C134.583 11.4095 134.555 11.4455 134.534 11.4859C134.494 11.5676 134.487 11.6618 134.516 11.7483C134.544 11.8349 134.605 11.9069 134.686 11.9488C142.916 16.071 147.497 21.734 146.357 26.3747C145.382 30.3303 140.527 32.3006 136.627 33.2377C136.55 33.2602 136.483 33.3105 136.441 33.3788C136.399 33.4472 136.383 33.5289 136.397 33.608C136.406 33.6913 136.442 33.7692 136.501 33.8291C136.559 33.889 136.636 33.9272 136.72 33.9377C136.824 33.9532 136.924 33.9891 137.014 34.0434C137.104 34.0976 137.183 34.169 137.245 34.2536C137.308 34.3382 137.353 34.4343 137.379 34.5365C137.404 34.6386 137.409 34.7447 137.394 34.8488C137.378 34.9529 137.342 35.0529 137.288 35.1431C137.234 35.2333 137.162 35.3119 137.078 35.3745C136.993 35.4371 136.897 35.4824 136.795 35.5079C136.693 35.5333 136.587 35.5384 136.482 35.5229C136.205 35.4821 135.971 35.4377 135.742 35.3932L135.453 35.3377C135.379 35.3254 135.302 35.3376 135.236 35.3723C135.169 35.407 135.115 35.4624 135.082 35.5303C135.05 35.5992 135.041 35.6773 135.058 35.7519C135.074 35.8264 135.116 35.8932 135.175 35.9414C135.289 36.0299 135.377 36.1485 135.428 36.2838C135.479 36.4192 135.491 36.566 135.464 36.708C135.42 36.9147 135.297 37.096 135.121 37.213C134.945 37.33 134.731 37.3734 134.523 37.334C134.408 37.3117 134.305 37.2821 134.197 37.2525L134.094 37.2229C134.02 37.2012 133.941 37.2052 133.87 37.2341C133.798 37.263 133.739 37.3152 133.701 37.3821C133.663 37.4489 133.649 37.5264 133.661 37.6022C133.672 37.678 133.708 37.7478 133.764 37.8006C133.888 37.9173 133.971 38.0701 134.002 38.2371C134.034 38.4042 134.011 38.5768 133.938 38.7303C133.841 38.9193 133.675 39.0634 133.474 39.1325C133.273 39.2015 133.053 39.1901 132.86 39.1006C130.008 37.6673 128.486 34.8599 129.386 32.7043C129.782 31.7525 130.694 30.9895 131.931 30.5636L134.92 29.671C139.168 28.7562 142.171 27.1081 142.575 25.471C143.108 23.3081 139.842 19.0784 133.46 15.7377C133.42 15.7116 133.375 15.6941 133.328 15.6864C133.28 15.6787 133.232 15.681 133.185 15.6932C133.139 15.7053 133.096 15.727 133.058 15.7568C133.021 15.7866 132.99 15.824 132.967 15.8665C132.945 15.9089 132.932 15.9556 132.929 16.0034C132.926 16.0513 132.932 16.0993 132.949 16.1443C132.965 16.1894 132.991 16.2305 133.024 16.2651C133.057 16.2997 133.097 16.3269 133.142 16.3451C139.771 19.8155 142.294 23.7525 141.908 25.3044C141.579 26.6488 138.645 28.1636 134.749 29.0081L131.72 29.9155C130.282 30.4081 129.227 31.3044 128.757 32.4414C127.716 34.9303 129.386 38.1266 132.557 39.7155C132.763 39.8215 132.991 39.8762 133.223 39.8747C133.501 39.8766 133.773 39.8006 134.01 39.6552C134.246 39.5098 134.437 39.301 134.56 39.0525C134.713 38.7435 134.751 38.3906 134.668 38.0562C135.013 38.0582 135.349 37.9393 135.616 37.7202C135.883 37.501 136.065 37.1954 136.131 36.8562C136.175 36.6297 136.164 36.3957 136.097 36.1747L136.371 36.2192C136.761 36.2726 137.157 36.1717 137.474 35.9379C137.791 35.7041 138.004 35.3559 138.068 34.9673C138.098 34.7732 138.089 34.575 138.042 34.3842C137.995 34.1935 137.911 34.014 137.794 33.8562C137.753 33.8032 137.71 33.7524 137.664 33.7043C142.997 32.2451 146.223 29.7858 147.016 26.5636C148.245 21.5747 143.523 15.6081 134.997 11.334Z" fill="white"/>
<path d="M134.138 37.2228C133.881 37.1073 133.633 36.9711 133.397 36.8154C133.19 36.6836 132.993 36.5363 132.808 36.3747C132.738 36.3167 132.648 36.2885 132.558 36.2961C132.467 36.3038 132.383 36.3466 132.323 36.4154C132.293 36.4495 132.271 36.4892 132.256 36.5322C132.242 36.5752 132.236 36.6206 132.24 36.6658C132.243 36.711 132.256 36.755 132.276 36.7953C132.297 36.8357 132.326 36.8714 132.36 36.9006C132.569 37.0792 132.789 37.2437 133.02 37.3932C133.286 37.5683 133.566 37.7219 133.857 37.8525C133.901 37.8714 133.949 37.8815 133.997 37.8821C134.064 37.8824 134.128 37.8633 134.184 37.827C134.239 37.7908 134.282 37.7391 134.308 37.6784C134.345 37.5953 134.348 37.5011 134.316 37.4159C134.284 37.3308 134.22 37.2615 134.138 37.2228Z" fill="white"/>
<path d="M135.523 35.3452C135.07 35.1606 134.646 34.911 134.264 34.6045C134.229 34.5758 134.188 34.5543 134.145 34.5411C134.102 34.528 134.056 34.5236 134.011 34.5281C133.966 34.5325 133.922 34.5458 133.883 34.5672C133.843 34.5886 133.807 34.6176 133.779 34.6526C133.75 34.6876 133.728 34.728 133.715 34.7713C133.702 34.8146 133.698 34.8601 133.702 34.9052C133.707 34.9502 133.72 34.994 133.741 35.0339C133.763 35.0738 133.792 35.1091 133.827 35.1378C134.044 35.3126 134.275 35.471 134.516 35.6119C134.753 35.7542 135 35.878 135.256 35.9822C135.297 36.0012 135.341 36.0113 135.386 36.0119C135.466 36.0124 135.544 35.9851 135.606 35.9346C135.668 35.8842 135.71 35.8137 135.726 35.7353C135.742 35.657 135.73 35.5755 135.692 35.505C135.654 35.4345 135.593 35.3793 135.519 35.3489L135.523 35.3452Z" fill="white"/>
<path d="M136.845 33.2447L136.127 33.0891C136.101 32.7907 136.014 32.5007 135.871 32.2373C135.751 32.0189 135.593 31.8234 135.405 31.6595C135.371 31.6287 135.332 31.605 135.289 31.5898C135.246 31.5746 135.201 31.5682 135.156 31.5709C135.11 31.5737 135.066 31.5856 135.026 31.6059C134.985 31.6262 134.949 31.6545 134.919 31.6891C134.859 31.7574 134.829 31.8469 134.834 31.9378C134.84 32.0287 134.881 32.1138 134.949 32.1743C135.078 32.2856 135.185 32.42 135.264 32.5706C135.395 32.811 135.459 33.0822 135.449 33.3558C135.446 33.4357 135.471 33.5142 135.52 33.5778C135.569 33.6413 135.638 33.6859 135.716 33.7039L136.697 33.9187H136.771C136.857 33.9195 136.939 33.8885 137.003 33.8317C137.067 33.7749 137.108 33.6965 137.117 33.6115C137.126 33.5266 137.103 33.4412 137.053 33.3721C137.003 33.3029 136.929 33.2548 136.845 33.2372V33.2447Z" fill="white"/>
</svg>
