<svg width="149" height="110" viewBox="0 0 149 110" fill="none" xmlns="http://www.w3.org/2000/svg">
<path d="M90.7403 56.9584L78.2326 57.7322C77.6115 57.7706 77.1392 58.3053 77.1776 58.9263L77.6381 66.3708C77.6766 66.9919 78.2112 67.4642 78.8323 67.4258L91.34 66.652C91.9611 66.6136 92.4334 66.0789 92.395 65.4579L91.9345 58.0134C91.896 57.3923 91.3614 56.92 90.7403 56.9584Z" fill="#FF2340"/>
<path d="M91.7309 57.0352C91.4517 56.7894 91.0866 56.6639 90.7152 56.6861L78.2101 57.4611C77.8379 57.4836 77.4897 57.6526 77.2419 57.9312C76.994 58.2098 76.8666 58.5752 76.8876 58.9475L77.3505 66.3929C77.3695 66.7375 77.5149 67.0629 77.7589 67.307C78.0029 67.551 78.3284 67.6964 78.6729 67.7154C78.7293 67.7194 78.7858 67.7194 78.8422 67.7154L91.35 66.9431C91.5349 66.9337 91.7161 66.8876 91.883 66.8075C92.0499 66.7274 92.1993 66.615 92.3223 66.4766C92.4454 66.3383 92.5397 66.1769 92.5998 66.0018C92.6599 65.8267 92.6846 65.6414 92.6725 65.4566L92.2122 58.0112C92.2017 57.8245 92.1537 57.6419 92.0709 57.4742C91.9882 57.3065 91.8726 57.1572 91.7309 57.0352ZM91.9001 66.0941C91.8265 66.178 91.7369 66.2465 91.6365 66.2955C91.5362 66.3445 91.4271 66.3732 91.3156 66.3797L78.7999 67.1547C78.5748 67.1666 78.3539 67.0908 78.1836 66.9431C78.1001 66.8698 78.0321 66.7806 77.9835 66.6806C77.9349 66.5807 77.9067 66.4721 77.9006 66.3612L77.4378 58.9158C77.4247 58.6913 77.5007 58.4706 77.6492 58.3018C77.7977 58.133 78.0069 58.0295 78.2312 58.0139L90.739 57.2415C90.8509 57.2312 90.9636 57.2447 91.0699 57.2812C91.1761 57.3176 91.2734 57.3763 91.3553 57.4531C91.4393 57.5266 91.5077 57.6162 91.5563 57.7166C91.6049 57.817 91.6328 57.9262 91.6383 58.0377L92.1012 65.4831C92.117 65.7061 92.0448 65.9263 91.9001 66.0967V66.0941Z" fill="#180C47"/>
<path d="M70.4605 29.1553L66.7814 29.3827L68.7678 61.5317L62.5073 66.4882L72.8462 67.086L72.7193 65.6895L70.4605 29.1553Z" fill="#FFB73E"/>
<path d="M60.8885 25.2969L57.2067 25.5243L59.3994 60.9847L53.1442 65.9413L63.3906 66.539C63.3482 66.383 63.3059 66.2296 63.2662 66.0735H63.4117L60.8885 25.2969Z" fill="#FFB73E"/>
<path d="M89.0302 58.1755C88.1557 57.3611 87.1034 56.7616 85.9569 56.4246C84.8012 49.7314 84.0723 42.9714 83.7748 36.1857C83.5579 31.1841 83.5791 26.1165 83.8383 21.1097L80.1539 20.9219C79.8894 26.0318 79.8683 31.2185 80.0878 36.3311C80.3806 42.9306 81.0713 49.5063 82.1561 56.0225L81.0162 56.0358C80.7829 56.0696 80.5673 56.1794 80.4028 56.3482C80.2384 56.517 80.1341 56.7354 80.1063 56.9694C80.1138 57.2039 80.208 57.4273 80.3708 57.5963L81.6642 57.5619L82.1931 58.276C82.8491 59.1594 82.9522 59.2705 83.2511 59.6831C83.5666 60.1142 83.8503 60.5677 84.1001 61.0399C84.5887 61.9861 84.9167 63.0068 85.0708 64.0604C85.0993 64.2716 85.2004 64.4663 85.3568 64.6111C85.5132 64.7558 85.715 64.8417 85.9278 64.8539C85.9901 64.8618 86.0532 64.8618 86.1156 64.8539C86.2366 64.8365 86.353 64.7952 86.458 64.7324C86.5629 64.6696 86.6544 64.5866 86.727 64.4881C86.7996 64.3897 86.8519 64.2778 86.8809 64.159C86.9098 64.0401 86.9149 63.9167 86.8958 63.7959C86.7138 62.5772 86.337 61.3957 85.7796 60.2967C86.0031 60.546 86.2082 60.8112 86.3933 61.0902C86.9723 62.0061 87.3559 63.0317 87.52 64.1027C87.5528 64.3099 87.6553 64.4997 87.8107 64.6406C87.9661 64.7816 88.1649 64.8652 88.3743 64.8777C88.4402 64.8856 88.5068 64.8856 88.5727 64.8777C88.8146 64.8387 89.0314 64.7055 89.1755 64.5073C89.3197 64.3091 89.3797 64.062 89.3423 63.8197C89.136 62.5035 88.6626 61.2434 87.9511 60.1169C87.7112 59.7464 87.4461 59.3929 87.1576 59.0589C87.3821 59.2038 87.5952 59.3656 87.7951 59.5429C88.4272 60.1377 88.9188 60.866 89.2339 61.6747C89.2743 61.7927 89.3381 61.9013 89.4216 61.9939C89.5051 62.0866 89.6065 62.1613 89.7196 62.2137C89.8328 62.2661 89.9554 62.295 90.0801 62.2987C90.2047 62.3023 90.3288 62.2807 90.4449 62.2351C90.5609 62.1895 90.6666 62.1209 90.7554 62.0333C90.8442 61.9458 90.9143 61.8411 90.9616 61.7257C91.0088 61.6103 91.0322 61.4866 91.0303 61.3619C91.0284 61.2372 91.0012 61.1142 90.9505 61.0003C90.5308 59.9263 89.8745 58.9608 89.0302 58.1755Z" fill="#FFB73E"/>
<path d="M79.0643 4.70584C72.308 0.713768 64.3026 -0.605901 56.6225 1.00638C48.9424 2.61866 42.1434 7.0462 37.5629 13.4182C37.4049 13.6336 37.2936 13.8796 37.2361 14.1405C37.1786 14.4013 37.1761 14.6713 37.2289 14.9332C37.2817 15.1951 37.3885 15.4431 37.5426 15.6613C37.6966 15.8796 37.8945 16.0632 38.1236 16.2006L88.7208 46.1199C88.9431 46.2547 89.1907 46.342 89.4483 46.3765C89.7059 46.411 89.9678 46.3919 90.2177 46.3204C90.4675 46.2489 90.6999 46.1265 90.9002 45.9609C91.1005 45.7953 91.2644 45.5901 91.3816 45.3582C94.7877 38.2698 95.4122 30.162 93.1318 22.6357C90.8514 15.1093 85.8318 8.71163 79.0643 4.70584Z" fill="#FFB73E"/>
<path d="M68.7308 20.2245L68.6985 20.7764L71.7746 20.9559L71.8068 20.404L68.7308 20.2245Z" fill="#180C47"/>
<path d="M75.0678 16.2776C74.7048 16.2562 74.3436 16.343 74.0299 16.527C73.7162 16.7109 73.4642 16.9838 73.3056 17.311C73.147 17.6382 73.089 18.0051 73.139 18.3653C73.189 18.7255 73.3447 19.0628 73.5864 19.3345C73.8281 19.6061 74.145 19.8 74.4969 19.8916C74.8488 19.9832 75.22 19.9683 75.5634 19.8489C75.9069 19.7295 76.2073 19.5109 76.4265 19.2208C76.6457 18.9306 76.7739 18.582 76.7949 18.219C76.8092 17.978 76.7759 17.7366 76.6968 17.5086C76.6177 17.2806 76.4944 17.0704 76.334 16.8901C76.1736 16.7098 75.9792 16.5628 75.7619 16.4577C75.5446 16.3526 75.3088 16.2914 75.0678 16.2776Z" fill="white"/>
<mask id="mask0_42_2185" style="mask-type:luminance" maskUnits="userSpaceOnUse" x="73" y="16" width="4" height="4">
<path d="M74.9595 19.9489C75.9747 19.9489 76.7977 19.1259 76.7977 18.1107C76.7977 17.0955 75.9747 16.2725 74.9595 16.2725C73.9443 16.2725 73.1213 17.0955 73.1213 18.1107C73.1213 19.1259 73.9443 19.9489 74.9595 19.9489Z" fill="white"/>
</mask>
<g mask="url(#mask0_42_2185)">
<path d="M74.0602 17.1721C73.6972 17.1508 73.336 17.2375 73.0224 17.4215C72.7087 17.6054 72.4566 17.8783 72.298 18.2055C72.1394 18.5327 72.0815 18.8997 72.1315 19.2599C72.1815 19.62 72.3371 19.9573 72.5788 20.229C72.8205 20.5007 73.1374 20.6946 73.4893 20.7861C73.8412 20.8777 74.2124 20.8628 74.5559 20.7434C74.8993 20.624 75.1997 20.4054 75.4189 20.1153C75.6381 19.8252 75.7663 19.4765 75.7874 19.1135C75.812 18.6279 75.6447 18.1522 75.3216 17.7889C74.9984 17.4257 74.5454 17.2041 74.0602 17.1721Z" fill="#180C47"/>
</g>
<path d="M77.4615 14.3678L73.3645 12.2969C73.3103 12.2656 73.2504 12.2458 73.1883 12.2385C73.1261 12.2312 73.0632 12.2367 73.0033 12.2545C72.9433 12.2724 72.8877 12.3022 72.8397 12.3423C72.7917 12.3824 72.7523 12.4319 72.7241 12.4876C72.6958 12.5434 72.6792 12.6044 72.6753 12.6668C72.6714 12.7292 72.6803 12.7918 72.7014 12.8506C72.7224 12.9095 72.7553 12.9635 72.7979 13.0092C72.8405 13.055 72.892 13.0916 72.9493 13.1168L77.0462 15.1904C77.102 15.2191 77.1634 15.2353 77.2261 15.238C77.3318 15.2444 77.4365 15.2142 77.5225 15.1524C77.6086 15.0906 77.6706 15.0011 77.6983 14.8988C77.7259 14.7966 77.7175 14.6879 77.6744 14.5912C77.6312 14.4945 77.556 14.4156 77.4615 14.3678Z" fill="#180C47"/>
<path d="M66.9163 15.3411C66.5533 15.3197 66.1921 15.4065 65.8784 15.5904C65.5648 15.7744 65.3127 16.0472 65.1541 16.3745C64.9955 16.7017 64.9376 17.0686 64.9875 17.4288C65.0375 17.789 65.1932 18.1262 65.4349 18.3979C65.6766 18.6696 65.9935 18.8635 66.3454 18.9551C66.6973 19.0467 67.0685 19.0318 67.412 18.9124C67.7554 18.793 68.0558 18.5744 68.275 18.2842C68.4942 17.9941 68.6224 17.6455 68.6434 17.2824C68.6681 16.7969 68.5008 16.3211 68.1777 15.9579C67.8545 15.5946 67.4014 15.3731 66.9163 15.3411Z" fill="white"/>
<mask id="mask1_42_2185" style="mask-type:luminance" maskUnits="userSpaceOnUse" x="64" y="15" width="5" height="5">
<path d="M66.8104 19.0124C67.8256 19.0124 68.6486 18.1894 68.6486 17.1742C68.6486 16.1589 67.8256 15.3359 66.8104 15.3359C65.7952 15.3359 64.9722 16.1589 64.9722 17.1742C64.9722 18.1894 65.7952 19.0124 66.8104 19.0124Z" fill="white"/>
</mask>
<g mask="url(#mask1_42_2185)">
<path d="M65.9111 16.2376C65.5481 16.2162 65.1869 16.303 64.8732 16.4869C64.5596 16.6709 64.3075 16.9437 64.1489 17.2709C63.9903 17.5982 63.9324 17.9651 63.9824 18.3253C64.0323 18.6855 64.188 19.0227 64.4297 19.2944C64.6714 19.5661 64.9883 19.76 65.3402 19.8516C65.6921 19.9431 66.0633 19.9283 66.4068 19.8089C66.7502 19.6895 67.0506 19.4709 67.2698 19.1807C67.489 18.8906 67.6172 18.5419 67.6383 18.1789C67.6526 17.938 67.6192 17.6966 67.5401 17.4686C67.461 17.2406 67.3377 17.0304 67.1773 16.85C67.0169 16.6697 66.8225 16.5228 66.6052 16.4177C66.388 16.3126 66.1521 16.2514 65.9111 16.2376Z" fill="#180C47"/>
</g>
<path d="M69.3125 13.4286L65.2128 11.3602C65.1037 11.3057 64.9774 11.2966 64.8615 11.3347C64.7456 11.3729 64.6494 11.4552 64.5939 11.5639C64.5662 11.6178 64.5495 11.6767 64.5448 11.7371C64.5401 11.7976 64.5474 11.8584 64.5663 11.9159C64.5853 11.9735 64.6155 12.0268 64.6552 12.0726C64.6949 12.1184 64.7433 12.1559 64.7976 12.1828L68.8946 14.2511C68.9486 14.2786 69.0075 14.2951 69.0679 14.2998C69.1283 14.3045 69.189 14.2972 69.2466 14.2784C69.3042 14.2596 69.3575 14.2297 69.4035 14.1903C69.4495 14.1509 69.4873 14.1028 69.5148 14.0488C69.5422 13.9948 69.5588 13.9359 69.5634 13.8755C69.5681 13.8151 69.5609 13.7544 69.5421 13.6968C69.5233 13.6392 69.4933 13.5858 69.4539 13.5398C69.4145 13.4938 69.3665 13.456 69.3125 13.4286Z" fill="#180C47"/>
<path d="M48.2617 30.6337C47.5449 31.4563 46.8308 32.2207 46.1273 32.9322C45.9606 31.5462 46.0929 27.7508 48.5077 17.6737C48.585 17.644 48.658 17.6039 48.7246 17.5546C49.1901 17.1658 49.5895 16.8405 49.9359 16.5654L49.9042 16.613C49.7662 16.8147 49.7136 17.0626 49.7577 17.3029C49.8017 17.5432 49.939 17.7563 50.1396 17.8958C50.2784 17.9905 50.4401 18.0462 50.6078 18.0572C50.7662 18.0667 50.9244 18.0351 51.0671 17.9656C51.2098 17.8961 51.3322 17.791 51.4224 17.6604C52.9644 15.4281 53.5198 14.3093 52.7448 13.5767C52.5698 13.4018 52.3382 13.2949 52.0916 13.2752C52.2229 13.1119 52.3151 12.9206 52.3609 12.7161C52.4068 12.5116 52.4051 12.2993 52.356 12.0955C52.2859 11.8772 52.1535 11.6842 51.9752 11.5401C51.7909 11.3955 51.5664 11.3114 51.3325 11.2994C51.1436 11.3036 50.9565 11.3357 50.777 11.3946C51.7713 10.9279 52.8527 10.6755 53.9509 10.6541C54.1953 10.6513 54.4286 10.5517 54.5996 10.3772C54.7707 10.2026 54.8655 9.96741 54.8634 9.72304C54.8572 9.47978 54.7566 9.24848 54.5828 9.07815C54.409 8.90782 54.1758 8.81184 53.9324 8.81055C52.8136 8.81055 49.965 9.09091 47.6481 11.3364C47.0306 11.9362 46.5056 12.6243 46.0902 13.3783L45.9501 12.5478C45.9296 12.4283 45.8857 12.314 45.8211 12.2115C45.7564 12.109 45.6722 12.0202 45.5732 11.9502C45.4743 11.8802 45.3625 11.8303 45.2442 11.8036C45.126 11.7768 45.0036 11.7735 44.8842 11.794C44.7647 11.8145 44.6504 11.8583 44.5479 11.923C44.4453 11.9876 44.3565 12.0719 44.2865 12.1708C44.2165 12.2698 44.1667 12.3816 44.1399 12.4998C44.1131 12.6181 44.1099 12.7404 44.1304 12.8599L44.6805 16.1475C44.7157 16.3445 44.8141 16.5246 44.9609 16.6607C41.258 32.0012 41.9853 35.704 44.5192 36.762C44.8333 36.8932 45.1663 36.9735 45.5057 37C48.5685 37.2487 51.3933 33.1676 55.321 27.3593C55.5194 27.071 55.6728 26.8304 55.7442 26.7298L52.6734 24.6853C51.3581 26.7787 49.8831 28.7674 48.2617 30.6337Z" fill="#FFB73E"/>
<path d="M55.0988 27.2171C51.4382 32.6259 48.5394 36.9107 45.5983 36.7388H45.5321C45.2216 36.7168 44.9168 36.6435 44.6302 36.5219C42.2895 35.5406 41.5727 31.888 45.2359 16.7326C45.2483 16.6855 45.2475 16.6359 45.2335 16.5892C45.2195 16.5425 45.1929 16.5006 45.1566 16.4681C45.053 16.3716 44.9827 16.2447 44.9555 16.1058L44.3948 12.8208C44.3672 12.6519 44.4072 12.4789 44.5062 12.3393C44.6052 12.1997 44.7552 12.1047 44.9238 12.0749C45.0919 12.0508 45.2629 12.0923 45.4012 12.1907C45.5396 12.2892 45.6348 12.4372 45.667 12.6039L45.8098 13.4344C45.8094 13.4975 45.8314 13.5587 45.8721 13.6069C45.9127 13.6552 45.9693 13.6873 46.0315 13.6975C46.0937 13.7077 46.1576 13.6953 46.2115 13.6626C46.2655 13.6299 46.3059 13.579 46.3256 13.5191C46.7257 12.7889 47.233 12.123 47.8306 11.5433C50.0735 9.36919 52.84 9.10735 53.9139 9.09412H53.9456C54.1168 9.09693 54.2798 9.16761 54.3988 9.29062C54.5179 9.41364 54.5832 9.5789 54.5804 9.75006C54.5776 9.92122 54.5069 10.0843 54.3839 10.2033C54.2609 10.3223 54.0956 10.3876 53.9244 10.3848C52.7891 10.4086 51.6712 10.6689 50.6421 11.1492C50.5804 11.1791 50.532 11.2308 50.5061 11.2943C50.4802 11.3577 50.4787 11.4286 50.5019 11.4931C50.5263 11.5568 50.573 11.6096 50.6333 11.6417C50.6935 11.6738 50.7634 11.683 50.8299 11.6676C50.983 11.6172 51.1423 11.5878 51.3033 11.5803C51.4795 11.5904 51.6484 11.6541 51.7874 11.7628C51.9251 11.8694 52.0289 12.0137 52.0862 12.1781C52.123 12.3387 52.1225 12.5056 52.0849 12.6661C52.0474 12.8265 51.9736 12.9762 51.8693 13.1038C51.838 13.1433 51.818 13.1905 51.8114 13.2405C51.8049 13.2904 51.812 13.3412 51.8321 13.3874C51.8523 13.4336 51.8846 13.4735 51.9256 13.5027C51.9666 13.532 52.0148 13.5495 52.0651 13.5535C52.2484 13.5669 52.4206 13.6468 52.5491 13.7783C53.1177 14.3072 52.8136 15.1801 51.1975 17.5023C51.098 17.6406 50.9489 17.7351 50.7814 17.7662C50.6138 17.7972 50.4408 17.7624 50.2983 17.6689C50.1582 17.5707 50.0624 17.4213 50.0318 17.2529C50.0011 17.0846 50.0379 16.911 50.1343 16.7697C50.1752 16.7135 50.1954 16.6449 50.1916 16.5755C50.1877 16.5061 50.16 16.4401 50.1131 16.3888C50.0701 16.342 50.0117 16.3122 49.9486 16.3049C49.8855 16.2976 49.8218 16.3133 49.7693 16.3491C49.4175 16.6136 49.0181 16.9522 48.55 17.341C48.5165 17.3671 48.479 17.3876 48.4389 17.4018C48.349 17.442 48.2786 17.5162 48.2432 17.6081C45.786 27.8254 45.6882 31.6261 45.8495 32.9645C45.8561 33.0126 45.8749 33.0583 45.904 33.0972C45.9332 33.1361 45.9718 33.1668 46.0162 33.1866C46.0613 33.2071 46.1112 33.2145 46.1603 33.2079C46.2094 33.2014 46.2557 33.1812 46.2939 33.1496C47.3254 32.3429 49.3117 30.2402 52.9062 24.8499L52.4459 24.5431C49.2191 29.3859 47.3413 31.4754 46.3626 32.3694C46.2992 30.6925 46.6271 26.786 48.7431 17.8673C48.8003 17.8401 48.8537 17.8055 48.9018 17.7642L49.4783 17.2881C49.4972 17.4546 49.5516 17.6152 49.6379 17.7589C49.7241 17.9026 49.8402 18.0262 49.9782 18.1212C50.2423 18.2945 50.5628 18.3596 50.8735 18.3029C51.1842 18.2463 51.4612 18.0723 51.6472 17.8171C53.0754 15.7514 53.9377 14.3231 52.922 13.3736C52.801 13.262 52.6614 13.1725 52.5094 13.1091C52.6813 12.774 52.7173 12.3856 52.6099 12.0247C52.5239 11.7528 52.3591 11.5126 52.1365 11.3344C52.0915 11.3 52.0439 11.2682 51.9963 11.2365C52.6281 11.0553 53.2806 10.9557 53.9377 10.9403C54.2554 10.9378 54.5592 10.8092 54.7822 10.5828C55.0051 10.3564 55.129 10.0506 55.1266 9.73287C55.1241 9.4151 54.9955 9.11132 54.7691 8.88836C54.5426 8.6654 54.2369 8.54153 53.9192 8.54398C52.7607 8.54398 49.8248 8.83492 47.4391 11.1466C46.9825 11.5905 46.5755 12.0827 46.2251 12.6145L46.2066 12.5114C46.1529 12.1978 45.9769 11.9184 45.7172 11.7346C45.4576 11.5508 45.1355 11.4777 44.822 11.5314C44.5084 11.5851 44.229 11.7611 44.0452 12.0208C43.8615 12.2804 43.7884 12.6025 43.842 12.916L44.416 16.1931C44.4555 16.3953 44.5466 16.5839 44.6805 16.7406C40.9511 32.2239 41.7711 35.9083 44.4345 37.0271C44.7757 37.1702 45.1371 37.2594 45.5057 37.2916H45.585C48.8409 37.482 51.8164 33.0835 55.5749 27.5265C55.7732 27.2356 55.9266 26.9976 55.9981 26.8918L55.5246 26.5902L55.0988 27.2171Z" fill="white"/>
<path d="M83.148 7.07801L82.5952 7.09917V7.37688C82.6931 9.86839 81.934 11.5135 81.3468 11.6087C80.7147 11.7119 79.4663 10.1726 78.9505 7.58054L78.4004 7.64667C78.5194 10.3842 78.0857 10.5931 78.0328 10.609C77.9137 10.6381 77.189 10.609 74.8589 5.95392L74.3299 6.13378C75.0678 9.73879 74.7213 10.1408 74.679 10.1752H74.6552C74.2373 10.1514 72.6715 8.26558 71.9838 5.8349C71.5954 4.43904 71.5267 2.97357 71.7828 1.54749L71.8304 1.283L71.2829 1.19043L71.238 1.45492C70.9678 2.96206 71.041 4.51074 71.4522 5.98566C72.0738 8.18888 73.465 10.199 74.3219 10.6275C74.4066 10.6772 74.501 10.7081 74.5986 10.7181C74.6963 10.7282 74.7949 10.7171 74.888 10.6857C75.2556 10.5428 75.528 10.0588 75.1974 7.82652C76.906 10.9607 77.6545 11.2887 78.1703 11.138C78.5908 11.0163 78.8342 10.5085 78.9214 9.51927C79.5298 11.0613 80.4132 12.1166 81.2199 12.1642C81.2814 12.1709 81.3435 12.1709 81.405 12.1642C82.463 12.0108 83.23 9.90807 83.1295 7.37159L83.148 7.07801Z" fill="#180C47"/>
<path d="M85.6343 59.564C85.535 59.426 85.4281 59.2935 85.3143 59.1672C85.29 59.1403 85.2606 59.1185 85.2278 59.1029C85.195 59.0873 85.1595 59.0784 85.1233 59.0765C85.0871 59.0747 85.0508 59.08 85.0167 59.0922C84.9825 59.1043 84.9511 59.1231 84.9241 59.1474C84.8972 59.1717 84.8754 59.2011 84.8598 59.2339C84.8442 59.2666 84.8353 59.3021 84.8334 59.3384C84.8316 59.3746 84.8369 59.4108 84.8491 59.445C84.8612 59.4792 84.88 59.5106 84.9043 59.5375C84.9969 59.6433 85.0921 59.7597 85.1873 59.8893C85.3571 60.1239 85.5049 60.3735 85.629 60.6352C85.6491 60.6813 85.6819 60.7207 85.7236 60.7488C85.7653 60.7769 85.8141 60.7925 85.8644 60.7939C85.9109 60.7971 85.9575 60.788 85.9993 60.7674C86.0332 60.7533 86.0639 60.7322 86.0892 60.7056C86.1146 60.679 86.1341 60.6474 86.1465 60.6128C86.159 60.5782 86.1641 60.5414 86.1615 60.5047C86.1589 60.468 86.1487 60.4323 86.1315 60.3998C85.9917 60.1066 85.8252 59.8268 85.6343 59.564Z" fill="#180C47"/>
<path d="M51.187 14.8626C50.9992 15.1006 50.7823 15.3519 50.5443 15.6084C50.3063 15.865 50.0153 16.1559 49.727 16.4019C49.6727 16.4511 49.6397 16.5196 49.6353 16.5928C49.6308 16.6659 49.6552 16.7379 49.7032 16.7933C49.7528 16.847 49.8208 16.8801 49.8936 16.8859C49.967 16.8894 50.0389 16.8648 50.0947 16.8171C50.3856 16.5527 50.6765 16.2882 50.949 15.984C51.2214 15.6798 51.4224 15.455 51.6208 15.1905C51.645 15.1628 51.6632 15.1302 51.6741 15.0951C51.6851 15.0599 51.6885 15.0228 51.6843 14.9862C51.6801 14.9496 51.6682 14.9143 51.6495 14.8825C51.6309 14.8507 51.6058 14.8232 51.5758 14.8017C51.5463 14.7801 51.5128 14.7645 51.4773 14.7559C51.4418 14.7473 51.4049 14.7457 51.3688 14.7514C51.3327 14.757 51.298 14.7698 51.2668 14.7888C51.2356 14.8079 51.2085 14.833 51.187 14.8626Z" fill="white"/>
<path d="M52.1498 13.0059C51.839 12.9352 51.5151 12.948 51.2108 13.043C50.9774 13.1156 50.7614 13.2353 50.5761 13.3947C50.5473 13.4174 50.5235 13.4459 50.5063 13.4782C50.4891 13.5106 50.4788 13.5462 50.476 13.5828C50.4733 13.6193 50.4782 13.656 50.4904 13.6906C50.5026 13.7252 50.5219 13.7568 50.547 13.7836C50.5711 13.8118 50.6005 13.8351 50.6337 13.8519C50.6668 13.8687 50.703 13.8787 50.74 13.8814C50.812 13.8842 50.8825 13.8607 50.9384 13.8153C51.0658 13.7033 51.2154 13.6194 51.3775 13.5693C51.5878 13.5058 51.811 13.4976 52.0255 13.5455C52.0608 13.5553 52.0977 13.5576 52.134 13.5524C52.1703 13.5471 52.205 13.5344 52.2361 13.515C52.2672 13.4956 52.2939 13.47 52.3146 13.4397C52.3352 13.4094 52.3494 13.3752 52.3561 13.3392C52.3663 13.3037 52.369 13.2665 52.3639 13.2299C52.3589 13.1934 52.3462 13.1582 52.3268 13.1269C52.3074 13.0955 52.2816 13.0685 52.2511 13.0477C52.2206 13.0268 52.1861 13.0126 52.1498 13.0059Z" fill="white"/>
<path d="M50.8007 11.0852C50.5891 11.1566 50.3643 11.2386 50.1289 11.3497C49.8935 11.4608 49.6237 11.5798 49.4042 11.6962C49.3711 11.712 49.3417 11.7345 49.3178 11.7623C49.2939 11.7901 49.276 11.8226 49.2653 11.8576C49.2546 11.8927 49.2513 11.9296 49.2556 11.966C49.26 12.0024 49.2718 12.0375 49.2904 12.0691C49.3118 12.1115 49.3442 12.1475 49.3842 12.1731C49.4242 12.1987 49.4704 12.213 49.5179 12.2146C49.5685 12.22 49.6196 12.2089 49.6634 12.1828C49.8697 12.0744 50.0971 11.9633 50.3458 11.8575C50.5944 11.7517 50.7795 11.6856 50.9752 11.6221C51.01 11.6107 51.0421 11.5925 51.0698 11.5686C51.0975 11.5447 51.1202 11.5156 51.1367 11.4829C51.1532 11.4503 51.163 11.4147 51.1657 11.3782C51.1684 11.3417 51.1639 11.3051 51.1525 11.2703C51.141 11.2356 51.1228 11.2035 51.0989 11.1758C51.075 11.1481 51.0459 11.1253 51.0133 11.1089C50.9806 11.0924 50.945 11.0826 50.9085 11.0799C50.8721 11.0772 50.8354 11.0817 50.8007 11.0931V11.0852Z" fill="white"/>
<path d="M46.1828 13.1296C46.1143 13.1044 46.0387 13.1068 45.972 13.1365C45.9054 13.1661 45.8529 13.2206 45.8257 13.2883L45.5612 13.9601C45.5465 13.9938 45.5389 14.0301 45.539 14.0669C45.5391 14.1037 45.5469 14.14 45.5618 14.1736C45.5767 14.2072 45.5985 14.2373 45.6257 14.262C45.653 14.2868 45.685 14.3055 45.7199 14.3171C45.7463 14.327 45.7739 14.3333 45.8019 14.3357C45.8588 14.3364 45.9145 14.3199 45.9618 14.2882C46.009 14.2566 46.0455 14.2113 46.0664 14.1584L46.3309 13.4893C46.3582 13.4219 46.358 13.3464 46.3303 13.2792C46.3026 13.2119 46.2497 13.1582 46.1828 13.1296Z" fill="white"/>
<path d="M27.1313 57.541L23.8569 57.6257C24.3136 74.9692 24.7694 92.3111 25.2244 109.651L34.3546 109.611L28.3665 104.605L27.1313 57.541Z" fill="#F79CFF"/>
<path d="M22.0346 57.3662L18.7602 57.4244L19.6172 104.504L13.8592 109.77L22.9736 109.659V109.632H22.9921L22.0346 57.3662Z" fill="#F79CFF"/>
<path d="M9.15648 78.4994C8.54124 84.498 7.54474 90.4515 6.17302 96.3235C5.16199 96.5564 4.21804 97.0186 3.4141 97.6744C2.61015 98.3302 1.96774 99.1621 1.53648 100.106C1.47866 100.23 1.45322 100.368 1.4625 100.505C1.47178 100.642 1.51548 100.774 1.58957 100.89C1.66366 101.006 1.76574 101.101 1.88636 101.167C2.00699 101.233 2.14228 101.267 2.2797 101.267C2.43623 101.267 2.58957 101.223 2.72138 101.138C2.85318 101.054 2.95787 100.933 3.02292 100.791C3.34598 100.091 3.81918 99.472 4.40886 98.9763C4.61179 98.8144 4.82763 98.6693 5.05422 98.5426C4.75998 98.8351 4.48769 99.1489 4.23958 99.4815C3.54881 100.445 3.06438 101.541 2.81662 102.7C2.77103 102.913 2.81141 103.134 2.92891 103.317C3.04641 103.499 3.23144 103.627 3.44346 103.674C3.50079 103.686 3.55933 103.693 3.61803 103.692C3.80398 103.691 3.98393 103.626 4.12819 103.509C4.27245 103.392 4.37239 103.229 4.4115 103.047C4.61186 102.106 5.00447 101.218 5.56469 100.436C5.7464 100.195 5.94528 99.9668 6.15979 99.7539C5.60321 100.704 5.20481 101.739 4.98016 102.817C4.9581 102.922 4.95704 103.031 4.97702 103.136C4.99701 103.242 5.03765 103.343 5.09662 103.433C5.15559 103.522 5.23173 103.6 5.32067 103.66C5.40962 103.721 5.50962 103.763 5.61494 103.785C5.66986 103.795 5.72565 103.801 5.78157 103.801C5.96825 103.799 6.14879 103.734 6.29315 103.615C6.4375 103.497 6.53699 103.333 6.57504 103.15C6.76678 102.225 7.10994 101.337 7.59069 100.524C8.02978 99.7966 8.57541 99.1395 9.20938 98.5743C9.28873 98.6827 9.37601 98.7833 9.44478 98.8996C9.7363 99.3761 9.94804 99.8969 10.0716 100.442C10.1137 100.621 10.2147 100.781 10.3586 100.896C10.5025 101.011 10.6809 101.075 10.8651 101.076C10.9274 101.076 10.9894 101.069 11.0502 101.055C11.2617 101.006 11.4449 100.874 11.5599 100.69C11.6749 100.505 11.7122 100.283 11.6639 100.071C11.3473 98.6636 10.5904 97.3934 9.50296 96.4451C10.8313 90.6374 11.8029 84.7538 12.4124 78.8274C12.8699 74.3125 13.1186 69.7156 13.1503 65.1664L9.8759 65.1426C9.84945 69.5913 9.60612 74.085 9.15648 78.4994Z" fill="#F79CFF"/>
<path d="M45.2411 97.7167C44.4242 97.041 43.4618 96.5639 42.4295 96.3228C41.058 90.4507 40.0615 84.4973 39.4461 78.4987C38.9964 74.087 38.7531 69.5933 38.724 65.1445L35.4496 65.1683C35.4787 69.7202 35.7273 74.3144 36.1875 78.8293C36.7971 84.7557 37.7687 90.6393 39.0969 96.4471C38.0041 97.3929 37.2408 98.662 36.9175 100.071C36.8932 100.176 36.8898 100.284 36.9075 100.39C36.9251 100.497 36.9636 100.598 37.0205 100.69C37.0775 100.781 37.1519 100.86 37.2395 100.923C37.3272 100.985 37.4262 101.03 37.5311 101.055C37.5919 101.068 37.654 101.075 37.7163 101.076C37.9008 101.075 38.0796 101.012 38.2237 100.897C38.3677 100.781 38.4686 100.621 38.5097 100.441C38.6366 99.8964 38.8482 99.3752 39.1366 98.8963C39.208 98.7826 39.2953 98.682 39.372 98.5736C40.7278 99.7706 41.6563 101.377 42.0169 103.149C42.055 103.332 42.1544 103.496 42.2988 103.615C42.4432 103.733 42.6237 103.798 42.8104 103.8C42.8672 103.8 42.9238 103.794 42.9797 103.784C43.192 103.74 43.3781 103.613 43.4971 103.431C43.616 103.25 43.6582 103.029 43.6144 102.816C43.3895 101.738 42.9911 100.704 42.4348 99.7532C42.6484 99.9662 42.8464 100.194 43.0273 100.436C43.5894 101.216 43.983 102.105 44.1831 103.046C44.2222 103.228 44.3221 103.391 44.4664 103.508C44.6107 103.626 44.7906 103.69 44.9766 103.692C45.0353 103.692 45.0938 103.686 45.1511 103.673C45.3631 103.627 45.5482 103.498 45.6657 103.316C45.7832 103.133 45.8236 102.912 45.778 102.7C45.5293 101.54 45.044 100.444 44.3524 99.4808C44.1041 99.1476 43.8309 98.8337 43.5351 98.5419C43.7634 98.6685 43.981 98.8136 44.1857 98.9756C44.7754 99.4706 45.2479 100.09 45.569 100.79C45.6345 100.933 45.7397 101.053 45.872 101.138C46.0042 101.222 46.158 101.267 46.3149 101.266C46.4524 101.267 46.5877 101.232 46.7084 101.167C46.8291 101.101 46.9311 101.005 47.005 100.89C47.0789 100.774 47.1223 100.641 47.1312 100.504C47.14 100.367 47.1139 100.229 47.0555 100.105C46.6349 99.1844 46.0152 98.3687 45.2411 97.7167Z" fill="#F79CFF"/>
<path d="M48.2115 31.7188H0V79.9303H48.2115V31.7188Z" fill="#F79CFF"/>
<path d="M19.5538 46.221C19.1917 46.1246 18.8092 46.1378 18.4546 46.2588C18.1001 46.3799 17.7894 46.6035 17.5619 46.9012C17.3344 47.1989 17.2003 47.5574 17.1766 47.9313C17.153 48.3052 17.2407 48.6778 17.4289 49.0018C17.617 49.3258 17.897 49.5868 18.2335 49.7516C18.5699 49.9165 18.9477 49.9778 19.3191 49.9278C19.6904 49.8779 20.0386 49.7189 20.3195 49.471C20.6005 49.2231 20.8016 48.8975 20.8974 48.5353C21.0257 48.0502 20.9563 47.5341 20.7044 47.1002C20.4525 46.6662 20.0386 46.35 19.5538 46.221Z" fill="white"/>
<path d="M19.3871 46.8477C19.1495 46.7843 18.8985 46.7928 18.6657 46.8721C18.433 46.9514 18.2289 47.0979 18.0795 47.2932C17.93 47.4884 17.8418 47.7236 17.826 47.969C17.8103 48.2144 17.8676 48.459 17.9909 48.6718C18.1141 48.8846 18.2977 49.056 18.5184 49.1645C18.7391 49.2729 18.987 49.3135 19.2307 49.281C19.4744 49.2485 19.7031 49.1445 19.8877 48.9821C20.0723 48.8197 20.2046 48.6062 20.2679 48.3685C20.3519 48.0501 20.3064 47.7113 20.1414 47.4263C19.9763 47.1413 19.7051 46.9333 19.3871 46.8477Z" fill="#180C47"/>
<path d="M29.0014 46.221C28.6393 46.1246 28.2568 46.1378 27.9022 46.2588C27.5476 46.3799 27.2369 46.6035 27.0094 46.9012C26.7819 47.1989 26.6479 47.5574 26.6242 47.9313C26.6005 48.3052 26.6883 48.6778 26.8764 49.0018C27.0646 49.3258 27.3446 49.5868 27.681 49.7516C28.0175 49.9165 28.3953 49.9778 28.7666 49.9278C29.138 49.8779 29.4861 49.7189 29.7671 49.471C30.0481 49.2231 30.2492 48.8975 30.345 48.5353C30.4089 48.2951 30.4248 48.0447 30.3918 47.7983C30.3589 47.552 30.2777 47.3145 30.1529 47.0996C30.0281 46.8847 29.8622 46.6964 29.6646 46.5457C29.467 46.3949 29.2416 46.2846 29.0014 46.221Z" fill="white"/>
<path d="M28.8347 46.8477C28.5971 46.7843 28.3461 46.7928 28.1133 46.8721C27.8805 46.9514 27.6765 47.0979 27.5271 47.2932C27.3776 47.4884 27.2894 47.7236 27.2736 47.969C27.2578 48.2144 27.3152 48.459 27.4384 48.6718C27.5617 48.8846 27.7452 49.056 27.9659 49.1645C28.1866 49.2729 28.4345 49.3135 28.6783 49.281C28.922 49.2485 29.1507 49.1445 29.3353 48.9821C29.5199 48.8197 29.6522 48.6062 29.7155 48.3685C29.8002 48.0501 29.7551 47.711 29.5899 47.4258C29.4247 47.1406 29.1531 46.9327 28.8347 46.8477Z" fill="#180C47"/>
<path d="M25.5471 52.7539H21.4739V53.5712H25.5471V52.7539Z" fill="#180C47"/>
<path d="M16.1133 53.8876C17.5492 53.2929 18.2311 51.6467 17.6363 50.2107C17.0415 48.7748 15.3953 48.0929 13.9594 48.6877C12.5235 49.2825 11.8416 50.9287 12.4364 52.3646C13.0312 53.8005 14.6774 54.4824 16.1133 53.8876Z" fill="#FF2340"/>
<path d="M35.8235 52.3664C36.4182 50.9305 35.7364 49.2843 34.3004 48.6895C32.8645 48.0947 31.2183 48.7766 30.6235 50.2125C30.0287 51.6485 30.7106 53.2947 32.1465 53.8894C33.5825 54.4842 35.2287 53.8023 35.8235 52.3664Z" fill="#FF2340"/>
<path d="M19.2893 39.5127C18.603 39.4849 17.923 39.6538 17.3294 39.9994C16.7531 40.3263 16.2718 40.7975 15.9329 41.3668C15.8932 41.4318 15.8669 41.504 15.8554 41.5792C15.8439 41.6545 15.8475 41.7312 15.866 41.8051C15.8844 41.8789 15.9174 41.9483 15.9629 42.0093C16.0085 42.0703 16.0657 42.1216 16.1313 42.1603C16.1963 42.1996 16.2685 42.2256 16.3437 42.2369C16.4189 42.2482 16.4955 42.2446 16.5693 42.2261C16.643 42.2077 16.7124 42.1749 16.7734 42.1295C16.8344 42.0842 16.8858 42.0272 16.9247 41.9619C17.1609 41.5637 17.4974 41.2345 17.9007 41.0071C18.319 40.7735 18.7917 40.6549 19.2708 40.6633C19.4194 40.6563 19.5605 40.5961 19.6683 40.4936C19.7762 40.3911 19.8435 40.2532 19.8579 40.1052C19.8612 40.0285 19.8488 39.952 19.8217 39.8802C19.7945 39.8085 19.7532 39.743 19.7 39.6876C19.6469 39.6322 19.5831 39.5882 19.5125 39.5582C19.442 39.5281 19.366 39.5127 19.2893 39.5127Z" fill="#180C47"/>
<path d="M28.4646 39.1107C27.8986 38.8328 27.2723 38.7001 26.6423 38.7245C26.4905 38.7314 26.3476 38.7982 26.2449 38.9102C26.1423 39.0223 26.0883 39.1705 26.0948 39.3223C26.1109 39.4711 26.1808 39.6088 26.2914 39.7097C26.4019 39.8105 26.5455 39.8674 26.6952 39.8698C27.1298 39.8471 27.5629 39.9382 27.9515 40.1343C28.4017 40.366 28.7742 40.7246 29.0227 41.1658C29.0719 41.2544 29.1441 41.3281 29.2315 41.3793C29.319 41.4304 29.4186 41.4572 29.5199 41.4567C29.6203 41.4574 29.719 41.4316 29.8062 41.3819C29.8934 41.3323 29.966 41.2606 30.0166 41.174C30.0673 41.0874 30.0943 40.989 30.0948 40.8886C30.0954 40.7883 30.0695 40.6896 30.0198 40.6024C29.6591 39.9633 29.1182 39.4445 28.4646 39.1107Z" fill="#180C47"/>
<path d="M19.3051 44.4434C18.5873 44.4434 17.8856 44.6563 17.2888 45.0551C16.6919 45.454 16.2268 46.0209 15.9522 46.6841C15.6777 47.3473 15.606 48.0771 15.7462 48.7811C15.8864 49.4851 16.2323 50.1317 16.7401 50.6391C17.2478 51.1465 17.8947 51.4919 18.5988 51.6316C19.3029 51.7713 20.0326 51.6991 20.6956 51.424C21.3587 51.1489 21.9252 50.6834 22.3236 50.0863C22.7221 49.4892 22.9344 48.7874 22.9339 48.0695C22.9325 47.1078 22.5497 46.1859 21.8694 45.506C21.189 44.8262 20.2668 44.4441 19.3051 44.4434ZM19.3051 50.8784C18.7497 50.8779 18.2068 50.7127 17.7453 50.4038C17.2837 50.0948 16.9241 49.6559 16.7119 49.1426C16.4997 48.6293 16.4445 48.0646 16.5531 47.5199C16.6618 46.9752 16.9295 46.475 17.3225 46.0824C17.7154 45.6898 18.2159 45.4226 18.7607 45.3144C19.3055 45.2063 19.8702 45.262 20.3833 45.4747C20.8964 45.6874 21.3349 46.0474 21.6434 46.5093C21.952 46.9711 22.1166 47.5141 22.1166 48.0695C22.1159 48.8147 21.8194 49.5292 21.2922 50.0559C20.765 50.5826 20.0503 50.8784 19.3051 50.8784Z" fill="#180C47"/>
<path d="M28.311 44.4434C27.5931 44.4428 26.8911 44.6553 26.294 45.0538C25.6968 45.4524 25.2313 46.0191 24.9563 46.6823C24.6813 47.3455 24.6092 48.0753 24.7492 48.7795C24.8891 49.4836 25.2348 50.1305 25.7424 50.6381C26.2501 51.1458 26.8969 51.4915 27.6011 51.6314C28.3053 51.7713 29.0351 51.6993 29.6983 51.4243C30.3615 51.1493 30.9282 50.6838 31.3267 50.0866C31.7253 49.4894 31.9377 48.7875 31.9372 48.0695C31.9358 47.1082 31.5533 46.1867 30.8736 45.507C30.1938 44.8272 29.2723 44.4448 28.311 44.4434ZM28.311 50.8784C27.7555 50.8784 27.2124 50.7137 26.7505 50.405C26.2886 50.0964 25.9285 49.6577 25.716 49.1445C25.5034 48.6312 25.4477 48.0664 25.5561 47.5215C25.6645 46.9767 25.932 46.4762 26.3248 46.0833C26.7177 45.6905 27.2182 45.423 27.763 45.3146C28.3079 45.2062 28.8727 45.2618 29.386 45.4744C29.8992 45.687 30.3379 46.0471 30.6465 46.509C30.9552 46.9709 31.1199 47.514 31.1199 48.0695C31.1185 48.8141 30.8221 49.5277 30.2957 50.0542C29.7692 50.5807 29.0556 50.877 28.311 50.8784Z" fill="#180C47"/>
<path d="M23.5397 44.5254H23.4683C23.0404 44.5246 22.6202 44.6386 22.2513 44.8553C21.8824 45.0721 21.5784 45.3838 21.3709 45.7579C21.3446 45.8046 21.3277 45.856 21.3213 45.9093C21.3149 45.9625 21.3191 46.0164 21.3336 46.068C21.3481 46.1196 21.3726 46.1679 21.4058 46.21C21.439 46.2521 21.4801 46.2872 21.5269 46.3134C21.6215 46.3651 21.7326 46.3777 21.8364 46.3485C21.9403 46.3194 22.0285 46.2507 22.0823 46.1573C22.2276 45.9056 22.4377 45.6975 22.6908 45.5547C22.9439 45.4118 23.2306 45.3395 23.5212 45.3453C23.817 45.3547 24.1042 45.4466 24.3506 45.6107C24.5969 45.7747 24.7924 46.0044 24.9151 46.2737C24.9478 46.3452 25.0003 46.4058 25.0664 46.4484C25.1325 46.4911 25.2093 46.514 25.288 46.5144C25.3465 46.5154 25.4045 46.5027 25.4573 46.4773C25.5064 46.4553 25.5508 46.4238 25.5877 46.3846C25.6246 46.3453 25.6533 46.2992 25.6723 46.2487C25.6912 46.1983 25.6999 46.1446 25.698 46.0908C25.6961 46.037 25.6835 45.9841 25.6609 45.9351C25.4728 45.5266 25.1748 45.1784 24.8002 44.9294C24.4257 44.6805 23.9892 44.5406 23.5397 44.5254Z" fill="#180C47"/>
<path d="M6.60968 98.7804L5.84265 99.7379C5.82228 99.763 5.80707 99.792 5.79791 99.823C5.78874 99.8541 5.78579 99.8866 5.78923 99.9188C5.79267 99.951 5.80243 99.9822 5.81796 100.011C5.83348 100.039 5.85445 100.064 5.87968 100.084C5.92315 100.119 5.97737 100.138 6.03309 100.137C6.0702 100.138 6.10689 100.129 6.14036 100.113C6.17382 100.097 6.20317 100.074 6.22616 100.045L6.99319 99.0872C7.01559 99.0623 7.03266 99.0331 7.04337 99.0013C7.05408 98.9696 7.05818 98.936 7.05545 98.9026C7.05271 98.8692 7.04318 98.8368 7.02745 98.8072C7.01172 98.7776 6.99011 98.7516 6.96395 98.7307C6.9378 98.7097 6.90764 98.6944 6.87534 98.6855C6.84303 98.6767 6.80926 98.6745 6.77609 98.6791C6.74292 98.6838 6.71105 98.6952 6.68243 98.7126C6.65382 98.73 6.62906 98.7531 6.60968 98.7804Z" fill="white"/>
<path d="M41.943 98.6903C41.9244 98.6628 41.9004 98.6393 41.8724 98.6213C41.8444 98.6032 41.8131 98.5911 41.7803 98.5855C41.7475 98.5799 41.714 98.5811 41.6816 98.5888C41.6493 98.5966 41.6189 98.6109 41.5922 98.6308C41.5655 98.6506 41.5431 98.6757 41.5264 98.7045C41.5097 98.7332 41.499 98.7651 41.495 98.7981C41.4909 98.8311 41.4936 98.8646 41.5029 98.8965C41.5122 98.9285 41.5278 98.9582 41.5489 98.9839L42.2445 99.9017C42.2668 99.932 42.2959 99.9566 42.3294 99.9736C42.3629 99.9906 42.4 99.9995 42.4376 99.9996C42.4913 100 42.5436 99.9827 42.5857 99.9493C42.6375 99.91 42.6716 99.8517 42.6805 99.7872C42.6894 99.7228 42.6724 99.6574 42.6333 99.6055L41.943 98.6903Z" fill="white"/>
<path d="M121.954 20.5838L101.681 17.312C101.518 17.2843 101.352 17.2924 101.192 17.3359C101.033 17.3794 100.885 17.4571 100.759 17.5637C100.633 17.6703 100.532 17.8031 100.463 17.9529C100.394 18.1027 100.358 18.2658 100.359 18.4308V31.8723C100.359 32.1414 100.455 32.4017 100.629 32.6066C100.804 32.8115 101.045 32.9478 101.311 32.9911L121.584 36.2628C121.747 36.2906 121.913 36.2825 122.073 36.239C122.232 36.1955 122.38 36.1178 122.506 36.0112C122.632 35.9046 122.733 35.7718 122.802 35.622C122.871 35.4722 122.907 35.3091 122.906 35.1441V21.7052C122.907 21.4357 122.811 21.1748 122.637 20.9693C122.462 20.7638 122.22 20.6271 121.954 20.5838Z" fill="#5968FE"/>
<path d="M121.994 20.3423L101.721 17.0679C101.524 17.0366 101.322 17.0483 101.13 17.1023C100.938 17.1563 100.759 17.2513 100.607 17.3807C100.455 17.5102 100.333 17.6709 100.249 17.8521C100.165 18.0332 100.121 18.2304 100.121 18.43V31.8688C100.119 32.1972 100.236 32.5152 100.449 32.7652C100.662 33.0151 100.957 33.1803 101.282 33.231L121.555 36.5054C121.627 36.5182 121.701 36.5244 121.775 36.5239C122.14 36.5232 122.491 36.3775 122.75 36.1187C123.009 35.86 123.154 35.5092 123.155 35.1432V21.7044C123.156 21.3762 123.039 21.0584 122.827 20.8086C122.614 20.5588 122.318 20.3934 121.994 20.3423ZM122.661 35.1538C122.661 35.282 122.634 35.4087 122.58 35.5252C122.527 35.6417 122.449 35.7451 122.351 35.8283C122.254 35.9137 122.139 35.9763 122.014 36.0116C121.89 36.0468 121.759 36.0538 121.632 36.0319L101.358 32.7575C101.15 32.7241 100.96 32.6173 100.823 32.4562C100.687 32.2952 100.612 32.0907 100.613 31.8794V18.4194C100.613 18.2911 100.641 18.1643 100.695 18.0478C100.749 17.9313 100.828 17.8279 100.925 17.7447C101.023 17.6615 101.138 17.6005 101.261 17.5658C101.385 17.5312 101.515 17.5237 101.641 17.544L121.912 20.8263C122.121 20.8597 122.31 20.9666 122.447 21.1276C122.584 21.2886 122.659 21.4932 122.658 21.7044L122.661 35.1538Z" fill="#180C47"/>
<path d="M121.724 36.3209L101.282 33.0201C100.689 32.9244 100.081 32.9836 99.5176 33.192L92.0192 35.9586C91.9252 35.9925 91.8451 36.0567 91.7916 36.1413C91.7382 36.2258 91.7144 36.3257 91.7241 36.4252C91.7338 36.5248 91.7764 36.6182 91.8452 36.6908C91.914 36.7634 92.005 36.811 92.1039 36.8261L112.248 40.0767C112.711 40.1524 113.185 40.1068 113.626 39.9444L121.782 36.9345C121.849 36.9111 121.907 36.866 121.945 36.8062C121.983 36.7465 122.001 36.6756 121.994 36.6049C121.987 36.5343 121.957 36.4679 121.908 36.4164C121.859 36.3649 121.794 36.3313 121.724 36.3209Z" fill="#5968FE"/>
<path d="M121.764 36.0777L101.311 32.7768C100.676 32.6747 100.025 32.7385 99.4223 32.962L91.9239 35.7312C91.7802 35.7847 91.6581 35.8842 91.5768 36.0142C91.4954 36.1443 91.4593 36.2975 91.4741 36.4502C91.4889 36.6029 91.5537 36.7464 91.6585 36.8584C91.7633 36.9704 91.9022 37.0446 92.0535 37.0695L112.197 40.3201C112.354 40.3444 112.512 40.3568 112.671 40.3572C113.022 40.3574 113.37 40.2956 113.7 40.1747L121.867 37.1568C121.984 37.1153 122.084 37.0356 122.15 36.9305C122.216 36.8254 122.245 36.7011 122.232 36.5776C122.221 36.4541 122.168 36.3379 122.084 36.2474C121.999 36.1568 121.886 36.0971 121.764 36.0777ZM121.698 36.6966L113.53 39.7144C113.13 39.8632 112.698 39.9042 112.277 39.8335L92.1302 36.5829C92.0861 36.5753 92.0457 36.5534 92.0153 36.5206C91.9849 36.4878 91.9661 36.4459 91.9619 36.4013C91.9577 36.3568 91.9683 36.3121 91.992 36.2741C92.0157 36.2362 92.0513 36.2071 92.0932 36.1914L99.5915 33.4222C99.9515 33.2898 100.332 33.2218 100.716 33.2212C100.893 33.2201 101.07 33.2343 101.245 33.2635L121.698 36.5644C121.712 36.5685 121.725 36.5771 121.734 36.5891C121.743 36.601 121.748 36.6155 121.748 36.6305C121.748 36.6454 121.743 36.66 121.734 36.6719C121.725 36.6838 121.712 36.6925 121.698 36.6966Z" fill="#180C47"/>
<path d="M120.473 21.5697L103.175 18.9037C103 18.877 102.822 18.8885 102.651 18.9372C102.481 18.9859 102.324 19.0708 102.189 19.1861C102.055 19.3014 101.947 19.4443 101.873 19.605C101.799 19.7658 101.761 19.9407 101.76 20.1177V30.7926C101.76 31.0854 101.865 31.3686 102.055 31.5909C102.246 31.8131 102.51 31.9596 102.8 32.0039L120.1 34.67C120.275 34.6967 120.454 34.6853 120.624 34.6365C120.794 34.5877 120.951 34.5028 121.085 34.3875C121.219 34.2722 121.327 34.1292 121.401 33.9685C121.474 33.8077 121.513 33.6329 121.512 33.456V22.7838C121.513 22.4906 121.408 22.207 121.217 21.9844C121.027 21.7617 120.763 21.6146 120.473 21.5697Z" fill="#180C47"/>
<path d="M99.7157 25.9819C98.3666 25.6069 96.935 25.654 95.6135 26.1168C94.5874 26.201 93.5765 26.4179 92.6062 26.7622C82.6005 30.3513 81.0426 46.4641 80.8311 49.6565L84.0975 49.8734C84.2086 48.1913 85.3988 33.8056 92.9606 30.1979C92.9564 30.6413 92.9945 31.0842 93.0744 31.5204C93.1103 31.7051 93.2088 31.8717 93.3534 31.9922C93.498 32.1127 93.6797 32.1796 93.8678 32.1816C93.9211 32.1816 93.9743 32.1762 94.0265 32.1657C94.0609 32.1657 94.4682 31.9991 94.6719 31.2083C94.8227 30.6264 94.6719 30.4915 94.8174 30.1212C94.9535 29.8287 95.1809 29.5883 95.4654 29.4362C95.997 29.6577 96.5026 29.9371 96.973 30.2693C97.7435 30.8168 98.4183 31.488 98.9699 32.2556C99.0466 32.3604 99.147 32.4456 99.2627 32.5044C99.3785 32.5633 99.5065 32.594 99.6364 32.5942C99.7871 32.5939 99.9348 32.552 100.063 32.4732C100.192 32.3944 100.296 32.2817 100.365 32.1475C100.433 32.0133 100.464 31.8628 100.452 31.7125C100.441 31.5622 100.388 31.4179 100.3 31.2955C99.6574 30.4093 98.877 29.6316 97.9886 28.9918C98.2648 29.0977 98.5342 29.2205 98.7953 29.3595C99.6254 29.8458 100.346 30.4986 100.911 31.277C100.988 31.3802 101.088 31.4641 101.202 31.522C101.317 31.5798 101.444 31.6101 101.572 31.6103C101.747 31.6109 101.916 31.5552 102.056 31.4516C102.231 31.3227 102.348 31.1298 102.381 30.9151C102.413 30.7004 102.36 30.4814 102.231 30.3063C101.532 29.3494 100.643 28.5463 99.6205 27.9471C99.2802 27.7517 98.9267 27.5803 98.5626 27.434C98.7997 27.4574 99.0349 27.498 99.2661 27.5556C100.007 27.7664 100.692 28.1396 101.271 28.648C101.352 28.7191 101.446 28.7735 101.548 28.8081C101.65 28.8427 101.757 28.8569 101.865 28.8498C101.972 28.8426 102.077 28.8144 102.174 28.7666C102.27 28.7188 102.356 28.6524 102.427 28.5713C102.497 28.4896 102.551 28.3947 102.585 28.2922C102.619 28.1897 102.632 28.0816 102.624 27.9739C102.616 27.8663 102.586 27.7613 102.538 27.665C102.489 27.5687 102.421 27.483 102.34 27.4128C101.582 26.7473 100.686 26.2585 99.7157 25.9819Z" fill="#9783FE"/>
<path d="M97.0497 28.6455L98.1844 29.074C97.9562 28.9455 97.7162 28.8392 97.4676 28.7566C97.3305 28.712 97.191 28.6749 97.0497 28.6455Z" fill="#9783FE"/>
<path d="M97.1026 28.4073C97.0355 28.3971 96.967 28.4131 96.9114 28.452C96.8557 28.4909 96.8172 28.5497 96.8037 28.6162C96.8019 28.6767 96.8209 28.7359 96.8575 28.784C96.8941 28.8321 96.946 28.8662 97.0047 28.8807C97.1369 28.9093 97.2676 28.9446 97.3962 28.9865C97.6295 29.0624 97.8546 29.1617 98.068 29.2828L98.3113 28.8569C98.0699 28.7196 97.8157 28.6062 97.5522 28.5184C97.405 28.4713 97.2548 28.4342 97.1026 28.4073Z" fill="white"/>
<path d="M97.7666 27.3354C97.7657 27.3872 97.78 27.4381 97.8077 27.4818C97.8354 27.5255 97.8754 27.5602 97.9226 27.5814L98.5257 27.6793L98.605 27.1926L97.9993 27.0947C97.9387 27.1018 97.8824 27.1297 97.84 27.1736C97.7976 27.2174 97.7717 27.2746 97.7666 27.3354Z" fill="white"/>
<path d="M115.675 53.2503C111.986 56.6543 109.306 61.2353 107.928 66.4934L111.102 67.3239C111.951 64.0786 113.821 59.4209 117.9 55.6572C124.93 49.1692 135.935 47.5558 146.621 51.4465C147.169 48.463 147.715 45.4796 148.258 42.4961L142.942 46.9845C132.664 44.6676 122.541 46.9131 115.675 53.2503Z" fill="#9783FE"/>
<path d="M127.234 50.4813C125.742 49.9365 121.216 48.286 109.312 66.5148L112.054 68.3054C116.199 61.9576 119.407 58.1568 121.732 56.0012C123.864 54.0228 125.123 53.2347 126.11 53.5573C128.225 54.245 129.283 60.3997 125.845 82.0404L134.986 82.3763L129.931 77.5282C131.635 66.5968 132.674 52.4676 127.234 50.4813Z" fill="#9783FE"/>
<path d="M130.209 77.4386C131.949 66.121 132.854 52.2722 127.318 50.2488C125.789 49.6881 121.126 47.9821 109.105 66.3828C109.071 66.4382 109.059 66.5041 109.071 66.568C109.086 66.6302 109.124 66.6847 109.177 66.7214L111.919 68.512C111.946 68.5311 111.976 68.5441 112.008 68.55C112.04 68.556 112.073 68.5547 112.105 68.5463C112.136 68.5398 112.166 68.5271 112.193 68.509C112.22 68.4908 112.243 68.4676 112.261 68.4405C115.855 62.9338 119.188 58.6967 121.896 56.1814C124.044 54.1871 125.21 53.5153 126.033 53.8009C127.786 54.3722 129.138 59.7282 125.615 82.0143C125.61 82.0488 125.613 82.0838 125.622 82.1174C125.631 82.151 125.646 82.1824 125.668 82.21C125.715 82.2621 125.78 82.2935 125.85 82.2973L134.988 82.6305C135.037 82.6302 135.085 82.6154 135.126 82.5879C135.166 82.5603 135.197 82.5213 135.215 82.4759C135.234 82.4305 135.238 82.3806 135.228 82.3328C135.217 82.2849 135.193 82.2413 135.158 82.2073L130.209 77.4386ZM126.144 81.8079C129.008 63.558 129.021 54.2479 126.183 53.3222C124.983 52.9308 123.539 53.994 121.563 55.819C118.817 58.3661 115.593 62.4525 111.98 67.9671L109.65 66.4436C121.354 48.5878 125.707 50.188 127.146 50.7117C131.233 52.2034 132.14 61.7145 129.701 77.4914C129.695 77.5303 129.698 77.57 129.711 77.6072C129.723 77.6445 129.744 77.6783 129.773 77.7057L134.362 82.1068L126.144 81.8079Z" fill="white"/>
<path d="M113.155 41.0413C112.627 40.812 112.082 40.6245 111.525 40.4806C111.922 40.4806 112.319 40.4647 112.713 40.4806C112.929 40.4902 113.14 40.416 113.302 40.2736C113.464 40.1311 113.565 39.9313 113.583 39.7162C113.597 39.4995 113.524 39.2862 113.381 39.1231C113.238 38.9599 113.035 38.8603 112.819 38.846C112.327 38.8143 111.483 38.2668 108.394 39.055C106.807 39.457 106.46 39.6977 105.569 39.6025C104.844 39.5497 104.152 39.2796 103.583 38.8275C103.046 38.3799 102.656 37.7821 102.461 37.111C102.399 36.9249 102.272 36.7674 102.104 36.6675C101.935 36.5675 101.736 36.5318 101.543 36.5668C101.35 36.6019 101.176 36.7054 101.053 36.8583C100.93 37.0112 100.867 37.2033 100.874 37.3993C100.916 38.3184 101.223 39.2058 101.758 39.9542C102.014 40.3094 102.321 40.6256 102.668 40.8932C99.3488 47.5192 97.6801 54.8491 97.8036 62.2588L101.078 62.2059C100.961 55.5455 102.41 48.9507 105.31 42.9536C105.412 42.9817 105.519 42.9898 105.625 42.9774C107.255 42.7723 108.911 42.99 110.433 43.6095C110.531 43.6512 110.636 43.6728 110.743 43.673C110.936 43.6785 111.126 43.6151 111.278 43.494C111.429 43.3729 111.533 43.202 111.57 43.0116C111.608 42.8213 111.576 42.6238 111.482 42.4543C111.388 42.2849 111.236 42.1544 111.055 42.086C110.885 42.0173 110.708 41.967 110.526 41.9062C111.199 42.0389 111.856 42.2437 112.486 42.5172C112.684 42.6048 112.909 42.6101 113.112 42.5317C113.314 42.4533 113.477 42.2978 113.565 42.0993C113.652 41.9007 113.658 41.6755 113.579 41.4732C113.501 41.2708 113.345 41.1078 113.147 41.0201L113.155 41.0413Z" fill="#9783FE"/>
<path d="M56.9662 50.8121C56.9662 57.3085 59.0557 63.6327 62.926 68.8504C66.7962 74.0681 72.242 77.9027 78.4589 79.7879C84.6758 81.673 91.3341 81.5086 97.4504 79.319C103.567 77.1295 108.817 73.0308 112.425 67.6285L62.1211 33.9111C58.7536 38.9036 56.9582 44.7901 56.9662 50.8121Z" fill="#9783FE"/>
<path d="M71.3942 56.874C71.0712 56.8735 70.7553 56.9688 70.4866 57.1479C70.2178 57.3271 70.0082 57.5819 69.8844 57.8802C69.7605 58.1785 69.728 58.5069 69.7909 58.8237C69.8538 59.1405 70.0092 59.4315 70.2376 59.6599C70.466 59.8883 70.757 60.0437 71.0738 60.1066C71.3906 60.1695 71.719 60.137 72.0173 60.0131C72.3156 59.8893 72.5704 59.6797 72.7495 59.4109C72.9287 59.1422 73.024 58.8263 73.0235 58.5033C73.0235 58.2893 72.9813 58.0775 72.8994 57.8798C72.8176 57.6821 72.6976 57.5025 72.5463 57.3512C72.395 57.1999 72.2154 57.0799 72.0177 56.998C71.82 56.9162 71.6082 56.874 71.3942 56.874Z" fill="white"/>
<mask id="mask2_42_2185" style="mask-type:luminance" maskUnits="userSpaceOnUse" x="69" y="56" width="5" height="5">
<path d="M71.3941 60.1349C72.2954 60.1349 73.026 59.4043 73.026 58.503C73.026 57.6017 72.2954 56.8711 71.3941 56.8711C70.4928 56.8711 69.7622 57.6017 69.7622 58.503C69.7622 59.4043 70.4928 60.1349 71.3941 60.1349Z" fill="white"/>
</mask>
<g mask="url(#mask2_42_2185)">
<path d="M72.3886 56.3789C72.0659 56.3789 71.7503 56.4746 71.482 56.6539C71.2136 56.8333 71.0045 57.0881 70.8809 57.3863C70.7574 57.6845 70.7251 58.0126 70.7881 58.3292C70.851 58.6458 71.0065 58.9365 71.2347 59.1648C71.4629 59.393 71.7537 59.5484 72.0703 59.6114C72.3868 59.6743 72.7149 59.642 73.0131 59.5185C73.3113 59.395 73.5662 59.1858 73.7455 58.9175C73.9248 58.6491 74.0205 58.3336 74.0205 58.0108C74.0205 57.578 73.8486 57.1629 73.5426 56.8569C73.2365 56.5508 72.8214 56.3789 72.3886 56.3789Z" fill="#180C47"/>
</g>
<path d="M72.7773 53.4465L69.6351 55.0705C69.5545 55.1132 69.4904 55.1815 69.453 55.2647C69.4155 55.3478 69.4069 55.4411 69.4285 55.5297C69.45 55.6184 69.5005 55.6973 69.572 55.754C69.6434 55.8107 69.7317 55.8419 69.8229 55.8428C69.8893 55.8424 69.9546 55.8261 70.0133 55.7952L73.1502 54.1712C73.1978 54.1468 73.2401 54.1131 73.2747 54.0723C73.3093 54.0315 73.3355 53.9842 73.3518 53.9333C73.3682 53.8823 73.3743 53.8286 73.3699 53.7753C73.3655 53.7219 73.3506 53.67 73.3261 53.6224C73.3016 53.5748 73.268 53.5325 73.2272 53.4979C73.1863 53.4634 73.1391 53.4371 73.0881 53.4208C73.0371 53.4045 72.9835 53.3983 72.9301 53.4028C72.8768 53.4072 72.8249 53.422 72.7773 53.4465Z" fill="#180C47"/>
<path d="M77.8687 55.3398C77.546 55.3398 77.2305 55.4356 76.9621 55.6149C76.6937 55.7942 76.4846 56.0491 76.361 56.3472C76.2375 56.6454 76.2052 56.9736 76.2682 57.2901C76.3311 57.6067 76.4866 57.8975 76.7148 58.1257C76.943 58.3539 77.2338 58.5093 77.5504 58.5723C77.8669 58.6353 78.195 58.603 78.4932 58.4794C78.7914 58.3559 79.0463 58.1468 79.2256 57.8784C79.4049 57.61 79.5006 57.2945 79.5006 56.9718C79.5006 56.5389 79.3287 56.1239 79.0227 55.8178C78.7166 55.5118 78.3015 55.3398 77.8687 55.3398Z" fill="white"/>
<mask id="mask3_42_2185" style="mask-type:luminance" maskUnits="userSpaceOnUse" x="76" y="55" width="4" height="4">
<path d="M77.8687 58.6037C78.77 58.6037 79.5006 57.873 79.5006 56.9718C79.5006 56.0705 78.77 55.3398 77.8687 55.3398C76.9675 55.3398 76.2368 56.0705 76.2368 56.9718C76.2368 57.873 76.9675 58.6037 77.8687 58.6037Z" fill="white"/>
</mask>
<g mask="url(#mask3_42_2185)">
<path d="M78.8632 54.8447C78.5405 54.8447 78.225 54.9404 77.9566 55.1198C77.6882 55.2991 77.4791 55.5539 77.3555 55.8521C77.232 56.1503 77.1997 56.4785 77.2627 56.795C77.3256 57.1116 77.4811 57.4023 77.7093 57.6306C77.9375 57.8588 78.2283 58.0142 78.5449 58.0772C78.8614 58.1402 79.1895 58.1078 79.4877 57.9843C79.7859 57.8608 80.0408 57.6516 80.2201 57.3833C80.3994 57.1149 80.4951 56.7994 80.4951 56.4766C80.4951 56.0438 80.3232 55.6287 80.0172 55.3227C79.7111 55.0167 79.296 54.8447 78.8632 54.8447Z" fill="#180C47"/>
</g>
<path d="M76.8082 60.8041C76.2453 61.0452 75.6162 61.0835 75.0282 60.9125L74.888 61.3807C75.1774 61.466 75.4776 61.5088 75.7793 61.5076C76.2942 61.5114 76.8014 61.3833 77.2528 61.1356C77.7042 60.8879 78.0847 60.5289 78.3581 60.0926L77.9429 59.8281C77.6692 60.2583 77.2744 60.5978 76.8082 60.8041Z" fill="#180C47"/>
<path d="M74.6316 61.1408C74.5151 61.3888 74.3537 61.6129 74.1555 61.8021L74.4941 62.1565C74.7331 61.9282 74.93 61.6596 75.076 61.363C75.2341 61.0316 75.3241 60.6719 75.3404 60.3051L74.8511 60.2812C74.8357 60.5795 74.7611 60.8717 74.6316 61.1408Z" fill="#180C47"/>
<path d="M79.252 51.5077L76.1125 53.129C76.0313 53.1707 75.9664 53.2385 75.9284 53.3215C75.8903 53.4045 75.8812 53.4979 75.9025 53.5866C75.9239 53.6754 75.9745 53.7544 76.0461 53.811C76.1178 53.8676 76.2064 53.8985 76.2977 53.8987C76.363 53.8995 76.4276 53.8841 76.4855 53.8537L79.6276 52.2324C79.6752 52.2077 79.7175 52.1739 79.752 52.1329C79.7865 52.092 79.8126 52.0446 79.8288 51.9935C79.845 51.9424 79.851 51.8886 79.8465 51.8352C79.8419 51.7818 79.8268 51.7298 79.8022 51.6822C79.7775 51.6347 79.7437 51.5924 79.7027 51.5579C79.6617 51.5233 79.6143 51.4972 79.5633 51.481C79.5122 51.4648 79.4584 51.4588 79.405 51.4634C79.3516 51.468 79.2996 51.483 79.252 51.5077Z" fill="#180C47"/>
<path d="M109.642 40.5106C109.146 40.5781 108.656 40.6906 108.18 40.8465L111.525 40.4815C110.899 40.4183 110.267 40.4281 109.642 40.5106Z" fill="#9783FE"/>
<path d="M109.611 40.2663C109.098 40.3344 108.594 40.4504 108.103 40.6127C108.045 40.6461 108.002 40.7001 107.983 40.7639C107.963 40.8277 107.968 40.8965 107.997 40.9566C108.024 41.0005 108.064 41.0355 108.111 41.0571C108.158 41.0787 108.21 41.0861 108.262 41.0783C108.465 41.0121 108.701 40.9434 108.963 40.8852C109.199 40.8291 109.438 40.785 109.679 40.7529C110.285 40.6744 110.899 40.6646 111.507 40.7238L111.555 40.2345C110.907 40.1705 110.255 40.1812 109.611 40.2663Z" fill="white"/>
<path d="M108.6 41.5944C108.545 41.6102 108.498 41.6442 108.465 41.6908C108.432 41.7374 108.416 41.7937 108.419 41.8506C108.423 41.9076 108.445 41.9616 108.483 42.004C108.522 42.0463 108.573 42.0744 108.629 42.0837C108.87 42.0704 109.129 42.0652 109.404 42.0837C109.771 42.0942 110.137 42.1269 110.499 42.1815L110.571 41.6949C110.189 41.6383 109.805 41.6039 109.42 41.5917C109.132 41.5758 108.854 41.5785 108.6 41.5944Z" fill="white"/>
</svg>
