<svg width="104" height="94" viewBox="0 0 104 94" fill="none" xmlns="http://www.w3.org/2000/svg">
<path d="M75.2792 39.3506L72.2795 47.5327C80.1265 50.4109 85.3634 56.0249 85.6274 61.8274C85.6817 63.7661 85.2496 65.6875 84.3705 67.4162L92.2133 71.1868C93.712 68.1636 94.432 64.814 94.3081 61.442C93.8975 52.1035 86.4234 43.4396 75.2792 39.3506Z" fill="#9FC9EB"/>
<path d="M75.5014 38.7356C75.4212 38.7037 75.3354 38.6884 75.2492 38.6906C75.163 38.6929 75.0782 38.7127 74.9998 38.7487C74.9214 38.7847 74.8512 38.8363 74.7934 38.9003C74.7356 38.9643 74.6914 39.0394 74.6635 39.121L71.6637 47.2906C71.6056 47.4546 71.6131 47.6347 71.6847 47.7933C71.72 47.8707 71.7704 47.9402 71.833 47.9978C71.8956 48.0553 71.9691 48.0998 72.0492 48.1285C79.649 50.9145 84.7225 56.298 84.9739 61.8408C85.0251 63.6676 84.6221 65.4786 83.8008 67.1112C83.7625 67.1887 83.7397 67.273 83.734 67.3593C83.7282 67.4455 83.7396 67.5321 83.7673 67.614C83.7959 67.6946 83.8403 67.7687 83.8978 67.832C83.9554 67.8953 84.0249 67.9465 84.1025 67.9826L91.9411 71.7532C92.0298 71.7967 92.1272 71.8196 92.2259 71.8203C92.3486 71.8209 92.469 71.7866 92.5729 71.7213C92.6768 71.656 92.7599 71.5624 92.8125 71.4516C94.3594 68.3326 95.0998 64.8756 94.9659 61.3967C94.5386 51.8153 86.8969 42.9251 75.5014 38.7356ZM91.9159 70.2953L85.2462 67.0861C85.9924 65.4191 86.3464 63.6032 86.281 61.778C86.0129 55.8623 80.8681 50.1646 73.1133 47.1146L75.6647 40.1684C86.2224 44.2532 93.2608 52.5484 93.6797 61.4344C93.7966 64.487 93.1924 67.5241 91.9159 70.2994V70.2953Z" fill="white"/>
<path d="M55.2154 3.6985C54.5713 2.57468 53.6418 1.64085 52.5211 0.991426C51.4003 0.341999 50.128 0 48.8326 0C47.5373 0 46.265 0.341999 45.1442 0.991426C44.0234 1.64085 43.094 2.57468 42.4499 3.6985L0.973576 76.0223C0.332509 77.1411 -0.00322378 78.4088 2.3332e-05 79.6983C0.00327045 80.9878 0.345382 82.2537 0.992076 83.3693C1.63877 84.4849 2.56732 85.4109 3.68468 86.0546C4.80203 86.6982 6.06894 87.0369 7.35842 87.0366H90.3111C91.6002 87.0361 92.8665 86.6969 93.9833 86.053C95.1001 85.4091 96.0281 84.483 96.6743 83.3675C97.3205 82.252 97.6622 80.9864 97.6653 79.6973C97.6683 78.4081 97.3326 77.1408 96.6917 76.0223L55.2154 3.6985Z" fill="#9FC9EB"/>
<path d="M50.6991 55.8585C49.7268 55.8273 48.7887 55.4926 48.0164 54.9013C47.244 54.31 46.676 53.4917 46.3922 52.5613L45.1605 52.9803C45.531 54.1677 46.2631 55.2097 47.2546 55.9608C48.246 56.7119 49.4473 57.1346 50.6907 57.1698C51.9463 57.1382 53.1599 56.7109 54.1582 55.9487C55.1566 55.1866 55.8887 54.1286 56.2502 52.9258L54.9933 52.5068C54.7209 53.4461 54.1593 54.2755 53.3883 54.8772C52.6174 55.4789 51.6764 55.8223 50.6991 55.8585Z" fill="#180C47"/>
<path d="M43.1997 39.1924C42.3418 39.1916 41.5028 39.4453 40.7891 39.9214C40.0754 40.3976 39.519 41.0747 39.1902 41.8672C38.8615 42.6597 38.7753 43.5319 38.9425 44.3735C39.1097 45.215 39.5227 45.988 40.1294 46.5947C40.7361 47.2013 41.5091 47.6144 42.3506 47.7816C43.1921 47.9488 44.0643 47.8626 44.8568 47.5338C45.6494 47.2051 46.3265 46.6487 46.8027 45.935C47.2788 45.2213 47.5325 44.3823 47.5317 43.5244C47.5317 42.3754 47.0753 41.2736 46.2629 40.4612C45.4505 39.6488 44.3486 39.1924 43.1997 39.1924Z" fill="white"/>
<mask id="mask0_42_2270" style="mask-type:luminance" maskUnits="userSpaceOnUse" x="38" y="39" width="10" height="9">
<path d="M43.2 47.8563C45.5925 47.8563 47.532 45.9168 47.532 43.5244C47.532 41.1319 45.5925 39.1924 43.2 39.1924C40.8075 39.1924 38.868 41.1319 38.868 43.5244C38.868 45.9168 40.8075 47.8563 43.2 47.8563Z" fill="white"/>
</mask>
<g mask="url(#mask0_42_2270)">
<path d="M45.4497 41.4424C44.5912 41.4391 43.7511 41.6907 43.0357 42.1653C42.3203 42.64 41.7619 43.3162 41.4313 44.1085C41.1007 44.9008 41.0126 45.7734 41.1784 46.6157C41.3441 47.4581 41.7562 48.2323 42.3624 48.8402C42.9686 49.4481 43.7415 49.8625 44.5834 50.0307C45.4253 50.1989 46.2981 50.1134 47.0914 49.785C47.8846 49.4567 48.5625 48.9003 49.0392 48.1863C49.5159 47.4723 49.7699 46.6329 49.7691 45.7744C49.7691 44.6276 49.3144 43.5277 48.5048 42.7157C47.6951 41.9036 46.5965 41.4457 45.4497 41.4424Z" fill="#180C47"/>
</g>
<path d="M58.2153 47.8563C60.6078 47.8563 62.5472 45.9168 62.5472 43.5244C62.5472 41.1319 60.6078 39.1924 58.2153 39.1924C55.8228 39.1924 53.8833 41.1319 53.8833 43.5244C53.8833 45.9168 55.8228 47.8563 58.2153 47.8563Z" fill="white"/>
<mask id="mask1_42_2270" style="mask-type:luminance" maskUnits="userSpaceOnUse" x="53" y="39" width="10" height="9">
<path d="M58.2153 47.8563C60.6078 47.8563 62.5472 45.9168 62.5472 43.5244C62.5472 41.1319 60.6078 39.1924 58.2153 39.1924C55.8228 39.1924 53.8833 41.1319 53.8833 43.5244C53.8833 45.9168 55.8228 47.8563 58.2153 47.8563Z" fill="white"/>
</mask>
<g mask="url(#mask1_42_2270)">
<path d="M60.4649 41.4424C59.6069 41.4416 58.768 41.6953 58.0542 42.1714C57.3405 42.6476 56.7841 43.3247 56.4554 44.1172C56.1267 44.9097 56.0404 45.7819 56.2076 46.6235C56.3748 47.465 56.7879 48.238 57.3945 48.8447C58.0012 49.4513 58.7742 49.8644 59.6158 50.0316C60.4573 50.1988 61.3295 50.1126 62.122 49.7838C62.9145 49.4551 63.5917 48.8987 64.0678 48.185C64.544 47.4713 64.7977 46.6323 64.7968 45.7744C64.7968 44.6254 64.3404 43.5236 63.528 42.7112C62.7156 41.8988 61.6138 41.4424 60.4649 41.4424Z" fill="#180C47"/>
</g>
<path d="M95.1834 51.3039L89.0122 55.2839L103.064 70.4332L98.69 52.699C98.6021 52.3403 98.4298 52.0078 98.1873 51.7293C97.9449 51.4508 97.6393 51.2342 97.2962 51.0977C96.9531 50.9612 96.5823 50.9087 96.2148 50.9445C95.8473 50.9804 95.4936 51.1036 95.1834 51.3039Z" fill="#FF2340"/>
<path d="M97.5298 50.4665C97.0909 50.2887 96.6154 50.2198 96.1441 50.2658C95.6728 50.3118 95.2196 50.4712 94.8234 50.7304L88.6564 54.7063L89.3602 55.7997L95.5272 51.8239C95.7509 51.6806 96.0055 51.5927 96.2699 51.5672C96.5343 51.5417 96.801 51.5794 97.048 51.6772C97.2956 51.7729 97.5161 51.9274 97.6906 52.1274C97.8651 52.3274 97.9882 52.5669 98.0493 52.8252L102.432 70.5762L103.688 70.262L99.3187 52.5235C99.2093 52.0614 98.9894 51.6328 98.6778 51.2745C98.3662 50.9162 97.9722 50.6389 97.5298 50.4665Z" fill="#180C47"/>
<path d="M91.7355 51.8065L102.503 69.7879L93.3401 50.4658L91.7355 51.8065Z" fill="#FFC23C"/>
<path d="M93.9267 50.1772C93.8838 50.087 93.8206 50.008 93.7421 49.9462C93.6636 49.8845 93.572 49.8416 93.4743 49.8211C93.3772 49.8034 93.2774 49.8061 93.1815 49.8292C93.0855 49.8523 92.9955 49.8952 92.9171 49.9551L91.3125 51.3042C91.1802 51.4171 91.0978 51.5775 91.0829 51.7508C91.068 51.924 91.1219 52.0962 91.2329 52.2301C91.2881 52.2959 91.3558 52.3501 91.432 52.3898C91.5083 52.4294 91.5916 52.4536 91.6772 52.461C91.7628 52.4684 91.849 52.4588 91.9309 52.4329C92.0129 52.4069 92.0889 52.365 92.1546 52.3097L93.1098 51.5011L101.908 70.0691C101.961 70.1807 102.045 70.275 102.149 70.341C102.254 70.407 102.375 70.442 102.498 70.4419C102.596 70.4417 102.691 70.4202 102.779 70.3791C102.934 70.3031 103.054 70.1693 103.112 70.0065C103.17 69.8437 103.162 69.6647 103.089 69.5077L93.9267 50.1772Z" fill="#180C47"/>
<path d="M89.4565 51.6684L102.503 69.7881C98.6288 63.3809 94.7647 56.9779 90.9103 50.5791L89.4565 51.6684Z" fill="#FFC23C"/>
<path d="M91.4757 50.2441C91.381 50.0916 91.2308 49.9819 91.0567 49.9382C90.9683 49.9216 90.8774 49.9231 90.7896 49.9425C90.7017 49.9619 90.6187 49.999 90.5456 50.0514L89.0834 51.1448C89.0149 51.196 88.9572 51.2602 88.9135 51.3337C88.8698 51.4071 88.841 51.4885 88.8287 51.5731C88.8165 51.6577 88.821 51.7439 88.8421 51.8268C88.8631 51.9097 88.9003 51.9876 88.9515 52.0561C89.0026 52.1246 89.0668 52.1823 89.1403 52.226C89.2138 52.2697 89.2951 52.2985 89.3798 52.3108C89.4644 52.323 89.5506 52.3185 89.6334 52.2974C89.7163 52.2764 89.7942 52.2392 89.8627 52.188L90.7425 51.5303L101.958 70.1234C102.016 70.2202 102.098 70.3004 102.197 70.3562C102.295 70.412 102.406 70.4414 102.519 70.4418C102.637 70.4399 102.752 70.4082 102.854 70.3496C103.002 70.2593 103.108 70.1149 103.15 69.9474C103.192 69.7799 103.167 69.6025 103.081 69.4531L91.4757 50.2441Z" fill="#180C47"/>
<path d="M85.288 52.5106L102.503 69.7883L88.2583 50.8223L85.288 52.5106Z" fill="#FFC23C"/>
<path d="M88.7693 50.4322C88.6727 50.3091 88.536 50.2237 88.3829 50.1908C88.2299 50.1579 88.0701 50.1795 87.9314 50.2521L84.961 51.9488C84.8116 52.035 84.7025 52.1769 84.6577 52.3435C84.6129 52.51 84.6361 52.6876 84.7222 52.837C84.8083 52.9865 84.9503 53.0956 85.1169 53.1404C85.2834 53.1852 85.461 53.1619 85.6104 53.0758L88.0697 51.6765L101.975 70.1817C102.036 70.2622 102.116 70.3275 102.206 70.3725C102.297 70.4175 102.397 70.4411 102.498 70.4414C102.639 70.442 102.776 70.3964 102.888 70.3115C103.027 70.2081 103.119 70.0538 103.144 69.8826C103.169 69.7114 103.125 69.5372 103.022 69.3982L88.7693 50.4322Z" fill="#180C47"/>
<path d="M85.292 51.5009C84.6692 50.8694 83.8362 50.4885 82.9511 50.4306C82.0661 50.3727 81.1906 50.6417 80.4908 51.1866C70.968 58.577 67.696 62.6701 58.1774 70.0395C57.7756 70.3508 57.4438 70.7432 57.2035 71.1911C56.9632 71.639 56.8199 72.1324 56.7828 72.6393C56.7456 73.1463 56.8155 73.6553 56.9879 74.1335C57.1604 74.6116 57.4314 75.0481 57.7836 75.4147L73.5865 91.9424C74.2112 92.5949 75.0572 92.9906 75.9585 93.0518C76.8599 93.1131 77.7516 92.8354 78.4589 92.2733C87.9817 84.7112 92.234 81.4602 101.757 73.8981C102.155 73.5807 102.482 73.183 102.717 72.7309C102.952 72.2789 103.089 71.7825 103.119 71.274C103.15 70.7655 103.073 70.2563 102.894 69.7795C102.715 69.3026 102.437 68.8688 102.079 68.5061L85.292 51.5009Z" fill="#FF2340"/>
<path d="M85.7571 51.044C85.0216 50.2989 84.0384 49.8494 82.9937 49.7807C81.949 49.712 80.9154 50.0288 80.0887 50.6711C75.3126 54.383 72.049 57.3031 68.8984 60.1394C65.7479 62.9757 62.5178 65.8623 57.7752 69.5407C57.3024 69.9086 56.9121 70.3715 56.6295 70.8997C56.3468 71.4278 56.1781 72.0094 56.1343 72.6068C56.0905 73.2042 56.1725 73.8042 56.375 74.3679C56.5776 74.9316 56.8962 75.4466 57.3102 75.8795L73.1131 92.3611C73.8482 93.1356 74.8472 93.6058 75.9125 93.6787C76.9777 93.7517 78.0316 93.422 78.8653 92.7549C83.6246 88.9843 87.0684 86.2695 90.5122 83.5715C93.956 80.8734 97.3956 78.1628 102.163 74.3545C102.633 73.9797 103.018 73.5104 103.295 72.9771C103.571 72.4438 103.732 71.8583 103.768 71.2586C103.803 70.6589 103.712 70.0585 103.501 69.4962C103.29 68.934 102.962 68.4224 102.54 67.9948L85.7571 51.044ZM102.469 71.2165C102.443 71.6335 102.33 72.0403 102.136 72.4106C101.943 72.7808 101.674 73.1063 101.346 73.3658C96.5912 77.1363 93.1432 79.847 89.7036 82.5492C86.264 85.2515 82.816 87.9579 78.0525 91.741C77.4733 92.2018 76.7428 92.4298 76.0043 92.3802C75.2658 92.3306 74.5724 92.007 74.0599 91.4729L58.2528 74.9787C57.9642 74.6789 57.7417 74.3217 57.6 73.9304C57.4582 73.5391 57.4003 73.1224 57.4299 72.7072C57.4595 72.292 57.5761 71.8877 57.772 71.5205C57.9679 71.1533 58.2387 70.8314 58.5671 70.5755C63.3431 66.8678 66.6068 63.9435 69.7573 61.1114C72.9078 58.2793 76.1631 55.3801 80.8889 51.7227C81.4642 51.2768 82.1829 51.057 82.9093 51.1049C83.6356 51.1527 84.3193 51.4649 84.8312 51.9824L101.614 68.9626C101.905 69.259 102.13 69.6123 102.277 70.0002C102.425 70.3881 102.49 70.8022 102.469 71.2165Z" fill="#180C47"/>
<path d="M64.883 70.618C64.8503 70.3338 64.7617 70.0588 64.6223 69.809C64.4829 69.5591 64.2955 69.3392 64.0708 69.1621C63.8461 68.9849 63.5886 68.8539 63.3132 68.7767C63.0377 68.6994 62.7496 68.6773 62.4656 68.7118C60.6438 68.9561 58.8654 69.4553 57.1826 70.1949C57.3837 70.0566 57.5471 69.91 57.7608 69.7759C59.2579 68.8852 60.9301 68.3292 62.6625 68.1462C63.2189 68.0626 63.7214 67.767 64.0648 67.3213C64.4081 66.8755 64.5657 66.3142 64.5045 65.7549C64.4433 65.1956 64.1681 64.6817 63.7365 64.3207C63.3049 63.9597 62.7504 63.7797 62.1891 63.8184C59.8373 64.0705 57.5679 64.8279 55.5361 66.0389C53.7644 67.1051 52.2152 68.5035 50.9737 70.1572C39.3436 74.3677 27.7931 73.4669 21.5632 67.3293C19.3545 65.066 17.6848 62.3336 16.6783 59.3356C14.772 52.9424 17.0134 47.4499 17.7759 45.7699L23.5575 35.4805C21.27 36.6452 15.0904 40.1895 11.5712 47.672C10.5657 49.8045 7.83416 55.6111 9.56862 62.6663C10.9009 68.0666 14.1771 71.3847 15.6015 72.8343C22.8746 80.1702 32.699 80.5598 37.4793 80.7525C41.7273 80.9194 45.9758 80.4347 50.0772 79.3155C51.0134 79.4877 51.9592 79.6039 52.9093 79.6632C53.0613 79.6595 53.2127 79.6427 53.3618 79.6129C53.5346 79.5772 53.7021 79.5195 53.8603 79.4412C56.3972 78.1966 59.2648 77.793 62.0466 78.2891C62.6107 78.3811 63.1884 78.2473 63.6546 77.9166C64.1208 77.586 64.4381 77.085 64.5377 76.5222C64.6374 75.9594 64.5115 75.38 64.1872 74.9094C63.8629 74.4387 63.3663 74.1147 62.805 74.0074C61.8623 73.8464 60.9081 73.7624 59.9519 73.756C60.9346 73.4176 61.9497 73.1818 62.9809 73.0522C63.2662 73.0185 63.5419 72.9286 63.7922 72.7878C64.0425 72.6469 64.2625 72.4579 64.4393 72.2316C64.6162 72.0053 64.7464 71.7461 64.8226 71.4692C64.8987 71.1922 64.9193 70.903 64.883 70.618Z" fill="#9FC9EB"/>
<path d="M64.9458 72.6237C65.1763 72.3302 65.3467 71.994 65.4471 71.6345C65.5475 71.2749 65.5759 70.8991 65.5308 70.5286C65.4856 70.1581 65.3678 69.8001 65.184 69.4752C65.0002 69.1503 64.7541 68.8649 64.4598 68.6353C64.3127 68.5221 64.1557 68.4225 63.9905 68.3378C64.3633 68.09 64.672 67.7574 64.8913 67.3672C65.1106 66.977 65.2344 66.5404 65.2524 66.0932C65.2703 65.646 65.1821 65.2008 64.9948 64.7943C64.8075 64.3878 64.5265 64.0314 64.1749 63.7545C63.8869 63.5275 63.557 63.3596 63.204 63.2604C62.851 63.1611 62.4819 63.1326 62.1178 63.1763C59.6732 63.4377 57.3138 64.2236 55.2009 65.4806C53.4207 66.5512 51.8574 67.9468 50.5924 69.5947C39.1006 73.692 27.9019 72.6321 22.0408 66.8505C19.913 64.6594 18.3001 62.0217 17.3192 59.1292C15.6434 53.4692 17.2605 48.4878 18.3624 46.0705L24.1272 35.8019C24.1937 35.6797 24.2195 35.5394 24.2007 35.4014C24.182 35.2635 24.1197 35.1352 24.0229 35.0351C23.9261 34.935 23.7999 34.8685 23.6627 34.8452C23.5255 34.8219 23.3844 34.8429 23.26 34.9054C20.1178 36.5058 14.3404 40.2596 10.9804 47.4027C9.92887 49.6274 7.14703 55.5346 8.93596 62.8244C10.3101 68.4174 13.6911 71.8361 15.1365 73.2982C22.5771 80.7975 32.6026 81.2122 37.4541 81.405C38.0029 81.4301 38.5559 81.4385 39.1089 81.4385C42.8235 81.435 46.5219 80.9477 50.1106 79.9889C51.0282 80.1513 51.9541 80.2618 52.8841 80.3199C53.0929 80.337 53.3031 80.3157 53.5042 80.257C53.7254 80.2051 53.9403 80.1292 54.1452 80.0308C55.4696 79.3861 56.8955 78.9751 58.3598 78.8158C59.5519 78.6832 60.7569 78.7227 61.9377 78.9331C62.6162 79.0586 63.3171 78.9312 63.9081 78.5751C64.4991 78.2191 64.9393 77.6589 65.1456 77.0005C65.3518 76.342 65.3098 75.6309 65.0276 75.0013C64.7453 74.3717 64.2423 73.8672 63.6135 73.5831C64.1427 73.4021 64.6063 73.0682 64.9458 72.6237ZM62.9013 72.3849C61.8278 72.5229 60.7709 72.7685 59.7465 73.1181C59.6 73.1674 59.4754 73.2665 59.3943 73.3981C59.3132 73.5297 59.2807 73.6856 59.3025 73.8387C59.3262 73.9912 59.4032 74.1304 59.5197 74.2316C59.6363 74.3329 59.7849 74.3896 59.9393 74.3917C60.8604 74.3957 61.7796 74.4756 62.6876 74.6305C63.0879 74.6982 63.4451 74.9219 63.6807 75.2525C63.9163 75.5832 64.0111 75.9938 63.9445 76.3943C63.8679 76.7887 63.6413 77.138 63.3122 77.3686C62.9832 77.5991 62.5775 77.6929 62.1807 77.6302C60.8791 77.4035 59.5523 77.3584 58.2383 77.4961C56.6252 77.6715 55.0546 78.1251 53.5963 78.8368C53.4822 78.8897 53.3629 78.9304 53.2402 78.9583C53.134 78.9795 53.026 78.9907 52.9176 78.9918C52.5699 78.9457 51.5812 78.8829 50.1986 78.6524C50.1077 78.6312 50.013 78.6312 49.9221 78.6524C45.874 79.7496 41.6828 80.2256 37.4918 80.0643C32.8372 79.8716 23.1552 79.4778 16.0791 72.343C14.7133 70.9563 11.5083 67.7136 10.2138 62.4725C8.53795 55.6394 11.1774 50.0296 12.1703 47.9139C14.3061 43.4845 17.6678 39.7607 21.8565 37.1845L17.1977 45.4798C15.9995 48.115 14.265 53.4399 16.0707 59.5021C17.1004 62.6101 18.8289 65.4407 21.1233 67.7764C27.3699 73.9392 39.1927 75.1039 51.2125 70.751C51.33 70.7096 51.4332 70.6354 51.5099 70.5373C52.6993 68.9551 54.1848 67.619 55.8838 66.6033C57.8396 65.4408 60.0231 64.7135 62.2854 64.4709C62.677 64.4351 63.068 64.5456 63.3831 64.7809C63.5432 64.9061 63.6765 65.0623 63.7751 65.24C63.8737 65.4178 63.9356 65.6136 63.957 65.8157C63.997 66.2169 63.8775 66.6176 63.6242 66.9312C63.371 67.2449 63.0044 67.4462 62.6038 67.4915C60.7806 67.6841 59.021 68.2701 57.4465 69.2092C57.3015 69.2976 57.1617 69.3942 57.0275 69.4983L56.8306 69.645C56.6991 69.7346 56.605 69.8695 56.5664 70.024C56.5278 70.1785 56.5473 70.3418 56.6212 70.4829C56.6997 70.6269 56.8289 70.7366 56.9837 70.7908C57.1385 70.845 57.3079 70.8397 57.4591 70.7761C59.0841 70.0557 60.8039 69.5718 62.5661 69.3391C62.7629 69.3134 62.9628 69.3272 63.1541 69.3797C63.3455 69.4322 63.5244 69.5224 63.6805 69.645C63.9998 69.8986 64.2072 70.2669 64.2587 70.6714C64.2844 70.8724 64.2699 71.0766 64.216 71.272C64.1621 71.4674 64.0699 71.6501 63.9448 71.8095C63.8196 71.969 63.6641 72.102 63.4871 72.2007C63.3101 72.2995 63.1152 72.3621 62.9138 72.3849H62.9013Z" fill="white"/>
<path d="M60.8965 73.0898C60.3965 73.0952 59.8971 73.1288 59.4009 73.1904C59.0364 73.2407 58.697 73.2993 58.3786 73.3664C58.2232 73.4021 58.0862 73.4935 57.9934 73.6232C57.9007 73.753 57.8586 73.9122 57.8751 74.0708C57.8916 74.2295 57.9655 74.3766 58.0829 74.4845C58.2004 74.5924 58.3532 74.6537 58.5127 74.6567C58.5586 74.6629 58.6051 74.6629 58.6509 74.6567C58.9358 74.5981 59.2417 74.5478 59.5684 74.5017C60.0146 74.4459 60.4637 74.4165 60.9133 74.4137C61.0866 74.4137 61.2529 74.3449 61.3754 74.2223C61.498 74.0997 61.5668 73.9335 61.5668 73.7602C61.5668 73.5868 61.498 73.4206 61.3754 73.298C61.2529 73.1755 61.0866 73.1066 60.9133 73.1066L60.8965 73.0898Z" fill="white"/>
</svg>
