<svg width="65" height="120" viewBox="0 0 65 120" fill="none" xmlns="http://www.w3.org/2000/svg">
<path d="M24.7314 67.9834L18.849 68.1251L19.8469 108.984L9.54779 118.223L20.0708 118.197V118.231L21.5535 118.195H25.9334L25.8993 118.101H25.956L24.7314 67.9834Z" fill="#00BD99"/>
<path d="M37.5877 68.8701L31.7025 69.0119L32.7004 109.871L22.4041 119.11L32.9243 119.084V119.118L34.4013 119.081H38.784C38.784 119.05 38.7642 119.019 38.7528 118.985H38.8067L37.5877 68.8701Z" fill="#00BD99"/>
<path d="M45.2958 0H12.227C9.79555 0 7.82446 1.97109 7.82446 4.40255V74.6563C7.82446 77.0878 9.79555 79.0589 12.227 79.0589H45.2958C47.7273 79.0589 49.6983 77.0878 49.6983 74.6563V4.40255C49.6983 1.97109 47.7273 0 45.2958 0Z" fill="#00BD99"/>
<path d="M21.3069 28.5646C20.6854 28.596 20.067 28.4581 19.5178 28.1655C18.9686 27.8729 18.5091 27.4367 18.1885 26.9033L17.4486 27.3824C17.8294 28.0018 18.3591 28.5161 18.9893 28.8785C19.6196 29.2409 20.3305 29.44 21.0574 29.4575C21.1594 29.4575 21.2615 29.4575 21.3636 29.4575C22.2964 29.3737 23.1726 28.9736 23.8469 28.3236L23.2374 27.6857C22.711 28.1874 22.0309 28.4969 21.3069 28.5646Z" fill="#180C47"/>
<path d="M23.5153 16.2894C22.5311 15.7094 21.3728 15.4979 20.2471 15.6926C19.1214 15.8873 18.1015 16.4756 17.3693 17.3525C17.2434 17.5028 17.1823 17.6971 17.1996 17.8925C17.2169 18.0878 17.3111 18.2684 17.4614 18.3943C17.6118 18.5202 17.806 18.5813 18.0014 18.564C18.1968 18.5467 18.3773 18.4525 18.5032 18.3022C19.0087 17.6965 19.7112 17.288 20.4876 17.1484C21.2794 17.0091 22.0949 17.1547 22.7896 17.5594C22.873 17.608 22.9651 17.6397 23.0607 17.6527C23.1564 17.6656 23.2536 17.6596 23.3469 17.635C23.4403 17.6104 23.5278 17.5677 23.6046 17.5092C23.6814 17.4508 23.7459 17.3778 23.7945 17.2944C23.8431 17.211 23.8748 17.1188 23.8878 17.0232C23.9007 16.9276 23.8947 16.8303 23.8701 16.737C23.8455 16.6437 23.8028 16.5561 23.7443 16.4793C23.6859 16.4025 23.6129 16.338 23.5295 16.2894H23.5153Z" fill="#180C47"/>
<path d="M31.8158 28.4845C31.0964 28.3289 30.4509 27.9342 29.9845 27.3647L29.3041 27.9317C29.9004 28.6571 30.7265 29.1572 31.6457 29.3492C31.8876 29.3969 32.1335 29.4206 32.38 29.42C33.033 29.4072 33.6752 29.2502 34.2604 28.96C34.8456 28.6699 35.3593 28.2538 35.7648 27.7418L35.0788 27.1748C34.7029 27.6663 34.2014 28.0473 33.6272 28.2778C33.053 28.5083 32.4272 28.5797 31.8158 28.4845Z" fill="#180C47"/>
<path d="M32.3829 15.6995C31.2442 15.502 30.0723 15.7107 29.0718 16.2891C28.9884 16.3382 28.9155 16.4033 28.8573 16.4806C28.799 16.558 28.7566 16.646 28.7324 16.7397C28.7081 16.8334 28.7026 16.931 28.7161 17.0268C28.7296 17.1227 28.7618 17.2149 28.811 17.2983C28.8601 17.3817 28.9252 17.4546 29.0025 17.5128C29.0798 17.5711 29.1679 17.6135 29.2616 17.6377C29.3553 17.662 29.4528 17.6675 29.5487 17.654C29.6445 17.6405 29.7368 17.6083 29.8202 17.5591C30.5043 17.1548 31.3101 17.0076 32.0931 17.1437C32.876 17.2798 33.5848 17.6904 34.0923 18.3019C34.1616 18.3846 34.2484 18.4509 34.3465 18.4961C34.4445 18.5412 34.5514 18.5639 34.6593 18.5627C34.8003 18.5642 34.9387 18.5252 35.058 18.4503C35.1774 18.3753 35.2726 18.2676 35.3324 18.1399C35.3922 18.0123 35.414 17.8701 35.3952 17.7305C35.3764 17.5908 35.3177 17.4594 35.2263 17.3522C34.4997 16.4871 33.4942 15.9027 32.3829 15.6995Z" fill="#180C47"/>
<path d="M28.7597 33.1172H23.9461V34.0017H28.7597V33.1172Z" fill="#180C47"/>
<path d="M40.188 57.3253C40.1655 57.1331 40.1052 56.9472 40.0105 56.7783C39.9159 56.6095 39.7887 56.4611 39.6363 56.3417C39.484 56.2223 39.3095 56.1343 39.123 56.0827C38.9364 56.0311 38.7415 56.017 38.5494 56.0411C37.3188 56.206 36.1173 56.5429 34.9803 57.0418C35.1164 56.9511 35.227 56.8491 35.3715 56.7583C36.3846 56.1575 37.5146 55.7805 38.6855 55.6527C38.8776 55.6319 39.0637 55.5734 39.2332 55.4807C39.4027 55.3879 39.5523 55.2626 39.6734 55.1121C39.7945 54.9615 39.8847 54.7885 39.939 54.6031C39.9932 54.4176 40.0104 54.2233 39.9895 54.0312C39.9717 53.8379 39.9151 53.6502 39.8233 53.4792C39.7314 53.3082 39.6062 53.1574 39.4549 53.0358C39.3037 52.9142 39.1295 52.8242 38.9428 52.7711C38.7561 52.7181 38.5606 52.7032 38.368 52.7271C36.7504 52.8978 35.1904 53.4233 33.7992 54.2662C32.4081 55.109 31.22 56.2484 30.3198 57.6031C28.1548 58.8167 25.7749 59.5985 23.312 59.905C17.7585 60.5542 8.87967 59.0546 6.82439 53.8838C6.76202 53.7279 6.68547 53.5776 6.63445 53.4104C6.19788 51.9589 6.29993 50.309 6.82439 48.6138V38C1.59688 43.1793 -0.648335 49.64 0.998725 55.1198C1.96825 58.3459 4.11708 60.7016 6.82439 62.3884C10.9406 64.954 16.3325 65.9405 20.8116 65.9405C21.8773 65.9433 22.9422 65.8836 24.0009 65.7619C26.7682 65.4294 29.4594 64.632 31.9612 63.4033C32.5129 63.7005 33.1547 63.7842 33.7642 63.6386C34.1414 63.5181 34.4966 63.3371 34.8159 63.1028C35.3007 62.7654 35.3432 62.5897 35.7287 62.4224C36.0664 62.2933 36.4288 62.242 36.789 62.2722C37.2888 62.3102 37.7846 62.3889 38.2716 62.5075C38.6516 62.5655 39.0392 62.4725 39.3515 62.2484C39.6638 62.0243 39.876 61.6868 39.9427 61.3082C40.0094 60.9296 39.9253 60.54 39.7083 60.2227C39.4914 59.9053 39.1588 59.6855 38.7819 59.6102C38.1422 59.5017 37.4945 59.4467 36.8457 59.4458C37.5134 59.215 38.203 59.0535 38.9038 58.9639C39.2911 58.9164 39.6438 58.7172 39.8846 58.41C40.1253 58.1029 40.2344 57.7128 40.188 57.3253Z" fill="#00BD99"/>
<path d="M40.6244 57.2749C40.5896 56.9602 40.4764 56.6593 40.2951 56.3998C40.1138 56.1402 39.8703 55.9304 39.5868 55.7894C39.9433 55.5521 40.2098 55.202 40.3438 54.7952C40.4777 54.3884 40.4714 53.9485 40.3257 53.5458C40.18 53.1431 39.9035 52.8008 39.5403 52.5739C39.1771 52.347 38.7483 52.2484 38.3225 52.294C36.667 52.4731 35.0691 53.0047 33.6364 53.8532C32.194 54.7152 30.9582 55.8833 30.0163 57.2749C27.9258 58.4339 25.6327 59.1816 23.2608 59.4776C17.9567 60.1098 9.20267 58.7008 7.23527 53.7341L7.16439 53.564C7.12266 53.4777 7.08667 53.3887 7.05667 53.2976C6.65979 51.9765 6.72498 50.4485 7.2466 48.7618C7.25894 48.7203 7.26562 48.6774 7.26644 48.6342V38.0006C7.26515 37.9121 7.23749 37.8259 7.18699 37.7532C7.13649 37.6805 7.06545 37.6245 6.98296 37.5924C6.90273 37.558 6.81398 37.5489 6.72843 37.5661C6.64288 37.5833 6.56457 37.6261 6.50386 37.6888C1.08926 43.0495 -1.13044 49.6151 0.550635 55.2451C1.4748 58.3209 3.4989 60.8497 6.56623 62.7604C10.2516 65.0651 15.4365 66.3833 20.7859 66.3833C21.8686 66.3851 22.9505 66.3245 24.0262 66.2019C26.7739 65.8718 29.4482 65.0902 31.9412 63.8886C32.5427 64.1584 33.2169 64.2203 33.8575 64.0644C34.2817 63.9297 34.681 63.7267 35.0397 63.4634C35.2122 63.3447 35.3761 63.214 35.5301 63.0722C35.627 62.9675 35.7448 62.8845 35.876 62.8284C36.1083 62.7364 36.358 62.6967 36.6074 62.7122C36.966 62.7232 37.3229 62.7678 37.6733 62.8454L38.1665 62.9418C38.4137 62.9859 38.6672 62.9808 38.9125 62.9268C39.1577 62.8729 39.3899 62.7711 39.5958 62.6274C39.8017 62.4836 39.9772 62.3007 40.1124 62.0891C40.2475 61.8774 40.3396 61.6412 40.3834 61.3939C40.4577 60.977 40.3913 60.5473 40.1948 60.1722C39.9982 59.7971 39.6827 59.4979 39.2977 59.3217C39.7218 59.1872 40.086 58.9095 40.328 58.5361C40.57 58.1628 40.6748 57.7169 40.6244 57.2749ZM38.8526 58.5251C38.1224 58.6193 37.4035 58.7864 36.7066 59.024C36.6087 59.0585 36.5259 59.1261 36.4726 59.2151C36.4193 59.3041 36.3987 59.409 36.4146 59.5116C36.4304 59.6142 36.4815 59.708 36.5592 59.7768C36.6368 59.8457 36.7361 59.8852 36.8398 59.8886C37.4647 59.8915 38.0885 59.9436 38.7052 60.0445C38.9062 60.0798 39.0922 60.174 39.2396 60.3152C39.3869 60.4564 39.489 60.6382 39.5327 60.8375C39.5765 61.0369 39.56 61.2447 39.4853 61.4347C39.4106 61.6246 39.2812 61.788 39.1134 61.9042C39.0045 61.9829 38.8807 62.0385 38.7496 62.0677C38.6185 62.097 38.4828 62.0992 38.3508 62.0743L37.8745 61.9808C37.514 61.8934 37.1454 61.8431 36.7746 61.8305C36.3583 61.7953 35.9395 61.8594 35.5528 62.0176C35.3318 62.1107 35.1314 62.2466 34.9631 62.4173C34.8383 62.5342 34.7047 62.6413 34.5634 62.7377C34.286 62.9433 33.978 63.1041 33.6506 63.2139C33.1417 63.326 32.6095 63.2515 32.1509 63.0042C32.0914 62.9749 32.0259 62.9597 31.9596 62.9597C31.8932 62.9597 31.8278 62.9749 31.7682 63.0042C29.3099 64.2106 26.6657 64.9936 23.9468 65.3202C22.906 65.4396 21.8591 65.4983 20.8115 65.496C15.6236 65.496 10.6059 64.226 7.05667 62.0119C4.17927 60.2146 2.28274 57.8532 1.42094 54.99C-0.0985488 49.9382 1.75262 44.0615 6.38197 39.0892V48.5662C5.81499 50.406 5.76963 52.0871 6.21187 53.5555C6.25195 53.6819 6.29928 53.8059 6.35362 53.9269L6.41315 54.0686C8.57615 59.5229 17.6137 61.0112 23.3628 60.3649C25.8828 60.0504 28.3177 59.2493 30.5322 58.0063C30.5947 57.9734 30.6483 57.9257 30.6881 57.8674C31.564 56.5437 32.7267 55.4343 34.09 54.6214C35.4113 53.8373 36.8856 53.3462 38.4132 53.1813C38.5481 53.1623 38.6854 53.1712 38.8167 53.2072C38.9481 53.2433 39.0706 53.3059 39.1769 53.3912C39.2831 53.4764 39.3708 53.5825 39.4344 53.7029C39.4981 53.8234 39.5365 53.9555 39.5471 54.0913C39.5758 54.3626 39.4958 54.6342 39.3247 54.8467C39.1537 55.0592 38.9054 55.1953 38.6343 55.2253C37.4005 55.3607 36.2098 55.758 35.1417 56.3904C35.0437 56.4503 34.9491 56.5156 34.8582 56.586L34.7278 56.6852C34.6369 56.7472 34.5723 56.8409 34.5467 56.948C34.5211 57.0551 34.5364 57.1679 34.5896 57.2643C34.6428 57.3607 34.73 57.4338 34.8342 57.4693C34.9384 57.5048 35.0521 57.5002 35.1531 57.4563C36.2496 56.9721 37.4093 56.6456 38.5974 56.4868C38.8685 56.4533 39.1417 56.5289 39.357 56.6969C39.5723 56.8649 39.7121 57.1116 39.7456 57.3826C39.779 57.6537 39.7034 57.9269 39.5354 58.1422C39.3674 58.3575 39.1208 58.4973 38.8497 58.5307L38.8526 58.5251Z" fill="white"/>
<path d="M53.7142 8.41993C52.5388 7.84751 51.3352 7.33469 50.1082 6.88344C48.1238 6.11518 46.2726 5.40647 43.8545 4.89903C41.5242 4.4171 38.3208 3.79342 34.7234 4.78563C34.0487 4.9776 33.3861 5.20953 32.739 5.48017C30.873 6.19658 29.2004 7.33918 27.8545 8.81681C27.715 8.95536 27.6048 9.12044 27.5302 9.30231C27.4556 9.48418 27.4183 9.67914 27.4203 9.87569C27.4223 10.0722 27.4637 10.2664 27.542 10.4467C27.6204 10.627 27.734 10.7897 27.8763 10.9254C28.0185 11.061 28.1865 11.1668 28.3703 11.2364C28.5542 11.306 28.7501 11.3381 28.9465 11.3308C29.1429 11.3234 29.3359 11.2768 29.514 11.1936C29.6921 11.1105 29.8517 10.9925 29.9835 10.8466C31.0625 9.70027 32.3768 8.8009 33.836 8.21015C34.5954 7.91388 35.3871 7.70834 36.1947 7.59782C34.4479 8.03216 32.8286 8.87338 31.4689 10.0528C31.3212 10.1798 31.2001 10.335 31.1128 10.5092C31.0254 10.6834 30.9736 10.8732 30.9602 11.0676C30.9468 11.262 30.9722 11.4571 31.0348 11.6416C31.0975 11.8261 31.1962 11.9963 31.3252 12.1424C31.4541 12.2885 31.6109 12.4075 31.7862 12.4925C31.9615 12.5775 32.152 12.6268 32.3466 12.6376C32.5411 12.6484 32.7359 12.6204 32.9196 12.5553C33.1032 12.4902 33.2721 12.3893 33.4165 12.2583C34.3044 11.4845 35.3444 10.9051 36.4696 10.5574C35.485 11.1526 34.5961 11.8933 33.8332 12.7545C33.5795 13.0511 33.4539 13.4363 33.4842 13.8255C33.5145 14.2146 33.6982 14.5758 33.9948 14.8296C34.2914 15.0833 34.6767 15.2089 35.0658 15.1786C35.455 15.1483 35.8162 14.9646 36.0699 14.668C36.9426 13.6468 38.0437 12.8459 39.284 12.3301C40.5243 11.8144 41.8687 11.5985 43.2081 11.6999C43.2681 11.6975 43.3277 11.6908 43.3867 11.68C45.7111 11.6761 48.0058 12.2016 50.0969 13.2165C50.3378 13.3328 50.5788 13.4121 50.8198 13.5482C50.8906 13.5879 57.751 17.517 57.9608 23.0507C58.1025 26.7729 55.1061 31.0819 50.0969 33.5397V39.9239C58.3747 37.021 64.1238 30.2144 63.8432 22.8324C63.5285 14.1917 54.7234 9.00392 53.7142 8.41993Z" fill="#00BD99"/>
<path d="M53.9325 8.03698C52.7377 7.45133 51.5132 6.92807 50.2642 6.46929C48.2798 5.70671 46.4002 4.98099 43.9452 4.48488C41.7341 4.02564 38.3861 3.35093 34.5902 4.37716C33.9033 4.57248 33.2292 4.81012 32.5717 5.08871C30.6468 5.82685 28.9208 7.00436 27.5313 8.52741C27.3571 8.70876 27.2205 8.92282 27.1294 9.15724C27.0383 9.39166 26.9945 9.6418 27.0006 9.89323C27.0066 10.1447 27.0624 10.3924 27.1647 10.6221C27.267 10.8519 27.4138 11.0591 27.5965 11.2319C27.9691 11.57 28.4574 11.7519 28.9604 11.7397C29.4634 11.7276 29.9424 11.5224 30.2982 11.1667C30.3804 11.0816 30.4626 10.9966 30.5476 10.9172C30.5096 11.1891 30.531 11.4659 30.6103 11.7287C30.6896 11.9915 30.8249 12.234 31.0069 12.4395C31.2786 12.7385 31.6365 12.9458 32.0311 13.0326C32.4256 13.1194 32.8375 13.0816 33.2096 12.9243C33.0367 13.3029 32.9916 13.7275 33.0811 14.134C33.1706 14.5406 33.3898 14.907 33.7057 15.178C34.0985 15.4912 34.5955 15.6437 35.0964 15.6047C35.5973 15.5658 36.0648 15.3383 36.4045 14.9682C37.2347 14.0002 38.2812 13.2412 39.4593 12.7526C40.6373 12.2641 41.9138 12.0597 43.1855 12.156C43.2523 12.1661 43.3205 12.1592 43.3839 12.1362C45.6417 12.1347 47.8706 12.6435 49.9041 13.6245L50.2245 13.7691C50.3579 13.8206 50.4877 13.8813 50.6129 13.9505C50.6781 13.9874 57.3315 17.8513 57.5271 23.0816C57.666 26.8067 54.6044 30.852 49.9041 33.1511C49.8303 33.1879 49.7681 33.2445 49.7246 33.3146C49.681 33.3847 49.6578 33.4655 49.6575 33.548V39.9321C49.6586 40.0021 49.6761 40.0709 49.7086 40.133C49.7411 40.195 49.7877 40.2485 49.8446 40.2893C49.9184 40.3441 50.0078 40.3739 50.0998 40.3744C50.15 40.3744 50.1999 40.3658 50.2472 40.3488C58.9275 37.307 64.5718 30.2652 64.2883 22.8265C63.9566 13.9505 54.9616 8.62096 53.9325 8.03698ZM50.5505 39.2943V33.8116C55.4123 31.3396 58.5647 27.0391 58.4116 23.0391C58.1961 17.1993 51.1118 13.2049 51.0409 13.1738C50.8886 13.0873 50.7304 13.0115 50.5675 12.947L50.284 12.8222C48.127 11.7808 45.7622 11.241 43.3669 11.2432C43.3247 11.2406 43.2826 11.2494 43.245 11.2687C41.8743 11.1585 40.4968 11.3701 39.2224 11.8867C37.88 12.4291 36.6886 13.2879 35.7496 14.3899C35.5682 14.5922 35.3156 14.7165 35.0447 14.7371C34.7737 14.7577 34.5053 14.673 34.2953 14.5005C34.1919 14.4129 34.1068 14.3057 34.045 14.185C33.9832 14.0643 33.9459 13.9326 33.9353 13.7974C33.9245 13.6625 33.9407 13.5268 33.983 13.3983C34.0254 13.2698 34.093 13.151 34.182 13.049C34.914 12.2206 35.7688 11.5093 36.7163 10.9399C36.8092 10.8827 36.8777 10.7931 36.9086 10.6884C36.9395 10.5838 36.9306 10.4714 36.8836 10.3729C36.837 10.2768 36.758 10.2003 36.6605 10.1567C36.563 10.1132 36.4533 10.1054 36.3506 10.1348C35.1644 10.4993 34.0687 11.1108 33.1359 11.9293C32.9281 12.1035 32.6613 12.1913 32.3906 12.1744C32.12 12.1575 31.8661 12.0373 31.6816 11.8385C31.5019 11.6332 31.4106 11.3651 31.4276 11.0927C31.4446 10.8203 31.5685 10.5657 31.7723 10.3842C33.0782 9.25365 34.6321 8.44659 36.3081 8.02847C36.4183 8.00083 36.5137 7.93182 36.5744 7.83575C36.6351 7.73969 36.6565 7.62394 36.6341 7.51253C36.6245 7.45673 36.604 7.40339 36.5737 7.35558C36.5433 7.30778 36.5038 7.26647 36.4574 7.23404C36.411 7.20161 36.3587 7.17871 36.3033 7.16666C36.248 7.15461 36.1909 7.15365 36.1352 7.16384C35.2933 7.27896 34.4683 7.49404 33.6773 7.80452C32.1584 8.4187 30.7901 9.3538 29.666 10.5458C29.4745 10.7363 29.2171 10.8461 28.9471 10.8524C28.677 10.8587 28.4148 10.7612 28.2146 10.5799C28.0167 10.3914 27.9018 10.1321 27.8949 9.85891C27.8879 9.58575 27.9897 9.321 28.1777 9.12273C29.4843 7.69344 31.1049 6.58713 32.9119 5.89098C33.5393 5.62898 34.181 5.40278 34.834 5.21345C38.4002 4.23258 41.6377 4.89594 43.761 5.33251C46.1451 5.82578 47.9906 6.53733 49.9438 7.28574C51.1509 7.73078 52.3346 8.23699 53.4903 8.80239C54.4711 9.35236 63.092 14.4551 63.4123 22.8463C63.6731 29.7322 58.5278 36.2751 50.5505 39.2943Z" fill="white"/>
<path d="M38.0611 58.5654H38.0327C37.7214 58.578 37.4133 58.6334 37.1171 58.7298C36.8881 58.8085 36.6685 58.9121 36.4622 59.0388C36.3631 59.1013 36.2927 59.2004 36.2661 59.3145C36.2396 59.4286 36.2591 59.5485 36.3205 59.6483C36.3506 59.6979 36.3904 59.7409 36.4373 59.7749C36.4843 59.809 36.5376 59.8333 36.5941 59.8465C36.6505 59.8597 36.7091 59.8615 36.7663 59.8518C36.8235 59.8421 36.8781 59.8211 36.9271 59.7901C37.0755 59.6977 37.2345 59.6235 37.4006 59.569C37.616 59.498 37.8401 59.4569 38.0668 59.4471C38.1248 59.4459 38.1821 59.4334 38.2353 59.4101C38.2886 59.3869 38.3367 59.3534 38.377 59.3115C38.4172 59.2697 38.4489 59.2203 38.4701 59.1662C38.4913 59.1121 38.5016 59.0544 38.5005 58.9963C38.4994 58.9382 38.4868 58.881 38.4636 58.8277C38.4403 58.7745 38.4068 58.7264 38.3649 58.6861C38.3231 58.6458 38.2737 58.6142 38.2196 58.593C38.1655 58.5718 38.1078 58.5615 38.0497 58.5626L38.0611 58.5654Z" fill="white"/>
<path d="M37.1822 9.61008L35.8923 10.1572C35.7975 10.1967 35.7193 10.268 35.6713 10.3588C35.6233 10.4496 35.6084 10.5544 35.6292 10.655C35.65 10.7556 35.7052 10.8458 35.7853 10.9102C35.8653 10.9745 35.9653 11.009 36.0681 11.0077C36.1286 11.008 36.1885 10.9955 36.2438 10.9708L37.5252 10.4237C37.5784 10.4012 37.6267 10.3684 37.6673 10.3272C37.7078 10.286 37.7399 10.2372 37.7616 10.1837C37.7833 10.1301 37.7943 10.0728 37.7938 10.015C37.7934 9.95718 37.7816 9.90003 37.7591 9.84679C37.7365 9.79356 37.7037 9.74528 37.6626 9.70471C37.6214 9.66415 37.5726 9.63209 37.519 9.61037C37.4655 9.58865 37.4082 9.5777 37.3504 9.57814C37.2925 9.57857 37.2354 9.59039 37.1822 9.61291V9.61008Z" fill="white"/>
</svg>
