<svg width="40" height="40" viewBox="0 0 40 40" fill="none" xmlns="http://www.w3.org/2000/svg">
<g id="np_arrow_3134209_000000 1" clip-path="url(#clip0_26_1251)">
<path id="Vector" d="M20 0C14.6952 0 9.608 2.1078 5.858 5.858C2.108 9.6082 0 14.6956 0 20C0 25.3044 2.1078 30.392 5.858 34.142C9.6082 37.892 14.6956 40 20 40C25.3044 40 30.392 37.8922 34.142 34.142C37.892 30.3918 40 25.3044 40 20C40 14.6956 37.8922 9.608 34.142 5.858C30.3918 2.108 25.3044 0 20 0ZM30 20.0408C30.0063 20.4752 29.8359 20.8939 29.5281 21.2002L22.9437 27.7642C22.3156 28.3938 21.2953 28.3938 20.6656 27.7657C20.0359 27.1376 20.0359 26.1173 20.664 25.4876L24.5203 21.6282H11.5999C10.7155 21.6282 9.99988 20.911 9.99988 20.0282C9.99988 19.1439 10.7155 18.4282 11.5999 18.4282H24.5563L20.6641 14.536C20.0344 13.9064 20.0344 12.886 20.6641 12.2564C21.2938 11.6267 22.3141 11.6267 22.9438 12.2564L29.5282 18.8204C29.8313 19.1219 30.0016 19.5328 30 19.9594L30 20.0408Z" fill="#E9EFF5"/>
</g>
<defs>
<clipPath id="clip0_26_1251">
<rect width="40" height="40" fill="white"/>
</clipPath>
</defs>
</svg>
