<svg width="60" height="61" viewBox="0 0 60 61" fill="none" xmlns="http://www.w3.org/2000/svg">
<g id="np_family_1309523_000000 1">
<g id="Group">
<path id="Vector" d="M31.212 5.21913L29.494 6.93711L27.776 5.21913C26.7143 4.15743 25.3034 3.57147 23.801 3.57147C22.2987 3.57147 20.8877 4.15741 19.8237 5.21913C18.762 6.28083 18.176 7.69413 18.176 9.19647C18.1784 10.6965 18.762 12.1098 19.8237 13.1715L29.3907 22.7385L29.4938 22.6354L29.5969 22.7385L39.1639 13.1715C40.2256 12.1098 40.8116 10.6965 40.8116 9.19413C40.8116 7.69179 40.2257 6.28083 39.1639 5.21679C38.1022 4.15743 36.6913 3.57147 35.1889 3.57147C33.6866 3.57147 32.2737 4.15741 31.212 5.21913Z" fill="#F31E2B"/>
<path id="Vector_2" d="M50.8596 33.8199C50.8596 37.216 48.1057 39.9675 44.7096 39.9675C41.3135 39.9675 38.562 37.2159 38.562 33.8199C38.562 30.4237 41.3136 27.6699 44.7096 27.6699C48.1057 27.6699 50.8596 30.4237 50.8596 33.8199Z" fill="#F31E2B"/>
<path id="Vector_3" d="M45.4338 53.7134C45.4338 55.0564 45.2299 56.3525 44.8502 57.5712H54.818C55.3594 56.4181 55.6712 55.1384 55.6712 53.7861V52.1924C55.6712 47.2587 51.6352 43.223 46.7018 43.223H42.7151C42.5486 43.223 42.3846 43.2394 42.2205 43.2487C44.215 45.5362 45.4315 48.5175 45.4315 51.7849L45.4338 53.7134Z" fill="#F31E2B"/>
<path id="Vector_4" d="M21.438 33.8199C21.438 37.216 18.6865 39.9675 15.2904 39.9675C11.8944 39.9675 9.14041 37.2159 9.14041 33.8199C9.14041 30.4237 11.8943 27.6699 15.2904 27.6699C18.6865 27.6699 21.438 30.4237 21.438 33.8199Z" fill="#F31E2B"/>
<path id="Vector_5" d="M15.1524 57.5715C14.7727 56.3527 14.5688 55.0566 14.5688 53.7136V51.7848C14.5688 48.5199 15.7852 45.5388 17.7798 43.2486C17.6157 43.2392 17.4516 43.2228 17.2852 43.2228H13.2985C8.36491 43.2228 4.32913 47.2587 4.32913 52.1922V53.7859C4.32913 55.1382 4.64085 56.4179 5.18227 57.5711L15.1524 57.5715Z" fill="#F31E2B"/>
<path id="Vector_6" d="M36.1476 32.3714C36.1476 35.7675 33.3961 38.5214 30 38.5214C26.604 38.5214 23.8524 35.7675 23.8524 32.3714C23.8524 28.9753 26.604 26.2238 30 26.2238C33.3961 26.2238 36.1476 28.9754 36.1476 32.3714Z" fill="#F31E2B"/>
<path id="Vector_7" d="M16.737 51.7845V53.7133C16.737 55.0727 17.0018 56.3712 17.4635 57.5712H42.5369C42.9987 56.3688 43.2635 55.0727 43.2635 53.7133V51.7845C43.2635 45.8173 38.3791 40.9329 32.4119 40.9329H27.5884C21.6212 40.9329 16.737 45.8149 16.737 51.7845Z" fill="#F31E2B"/>
</g>
</g>
</svg>
