<svg width="252" height="45" viewBox="0 0 252 45" fill="none" xmlns="http://www.w3.org/2000/svg">
<path d="M104.793 28.6291V35.2148H102.876C98.0651 35.2148 95.592 32.8317 95.592 28.2106V21.7183C95.592 19.1483 93.956 17.4224 91.4829 17.4224C88.8196 17.4224 87.0002 19.1968 87.0002 21.8117V35.2148H80.1827V21.7183C80.1827 19.1483 78.5467 17.4224 76.0736 17.4224C73.4103 17.4224 71.5909 19.1968 71.5909 21.8117V35.2148H64.7734V11.397H71.5909V13.9185C73.3203 11.9089 75.6066 10.8367 78.3634 10.8367C81.7738 10.8367 84.4337 12.3793 85.883 14.9458C87.7058 12.2375 90.4141 10.8367 93.7761 10.8367C98.961 10.8367 102.416 14.3405 102.416 19.6637V26.7164C102.416 27.9304 103.119 28.6326 104.333 28.6326H104.8L104.793 28.6291Z" fill="black"/>
<path d="M106.102 4.15757C106.102 1.7744 107.924 0 110.304 0C112.684 0 114.555 1.7744 114.555 4.15757C114.555 6.54074 112.732 8.36011 110.304 8.36011C107.876 8.36011 106.102 6.5857 106.102 4.15757ZM106.894 11.397H113.711V35.2148H106.894V11.397Z" fill="black"/>
<path d="M143.602 28.6291V35.2148H141.686C136.875 35.2148 134.402 32.8317 134.402 28.2106V22.1852C134.402 19.2902 132.579 17.4224 129.826 17.4224C126.882 17.4224 124.876 19.3386 124.876 22.2786V35.2148H118.059V11.397H124.876V14.0119C126.699 11.9089 129.172 10.8367 132.115 10.8367C137.58 10.8367 141.223 14.4339 141.223 19.8989V26.7164C141.223 27.9304 141.925 28.6326 143.139 28.6326H143.606L143.602 28.6291Z" fill="black"/>
<path d="M144.91 4.15757C144.91 1.7744 146.733 0 149.113 0C151.492 0 153.364 1.7744 153.364 4.15757C153.364 6.54074 151.541 8.36011 149.113 8.36011C146.685 8.36011 144.91 6.5857 144.91 4.15757ZM145.706 11.397H152.523V35.2148H145.706V11.397Z" fill="black"/>
<path d="M170.88 11.0234V18.0277C166.255 18.0277 163.689 20.4108 163.689 24.098V35.2148H156.871V11.397H163.689V14.759C165.511 12.4243 167.984 11.0234 170.88 11.0234Z" fill="black"/>
<path d="M197.356 25.4988H179.141C179.888 28.1622 181.991 29.8432 184.887 29.8432C187.128 29.8432 188.996 28.9093 189.885 27.6468H197.169C195.395 32.4581 190.632 35.7717 184.745 35.7717C177.367 35.7717 171.854 30.4001 171.854 23.3025C171.854 16.2048 177.363 10.8332 184.696 10.8332C192.029 10.8332 197.539 16.1564 197.539 23.3958C197.539 24.0012 197.491 24.9385 197.352 25.4988H197.356ZM179.186 20.9677H190.21C189.508 18.3528 187.315 16.7168 184.7 16.7168C182.085 16.7168 179.982 18.3528 179.19 20.9677H179.186Z" fill="black"/>
<path d="M225.847 28.6291V35.2148H223.93C219.119 35.2148 216.646 32.8317 216.646 28.2106V22.1852C216.646 19.2902 214.823 17.4224 212.07 17.4224C209.126 17.4224 207.12 19.3386 207.12 22.2786V35.2148H200.303V11.397H207.12V14.0119C208.943 11.9089 211.416 10.8367 214.36 10.8367C219.825 10.8367 223.467 14.4339 223.467 19.8989V26.7164C223.467 27.9304 224.169 28.6326 225.383 28.6326H225.85L225.847 28.6291Z" fill="black"/>
<path d="M250.181 28.6291H251.581V35.2148H249.385C245.041 35.2148 240.696 34.0942 238.455 29.4696L237.708 28.2556C236.729 28.3939 235.702 28.5357 234.626 28.5842V35.2148H227.809V1.58762H234.626V14.4304C237.196 12.234 240.371 10.8332 243.685 10.8332C248.448 10.8332 251.578 13.6833 251.578 17.8374C251.578 21.3862 249.288 24.2813 245.227 26.1975C246.348 27.7852 248.078 28.6257 250.177 28.6257L250.181 28.6291ZM234.63 23.0257C240.748 22.3236 244.671 20.736 244.671 18.6364C244.671 17.7025 243.83 17.0488 242.381 17.0488C239.904 17.0488 236.684 18.8232 234.63 21.2064V23.0292V23.0257Z" fill="black"/>
<path d="M28.9543 45C28.9543 45 28.7156 44.5642 28.2383 43.9001C25.2118 39.6872 20.3002 37.2348 15.1153 37.2348H3.14066C1.40776 37.2348 0 35.8305 0 34.0942V10.3109C0 8.56072 1.4216 7.13912 3.17179 7.13912H18.3424C18.3424 7.13912 18.4669 7.14258 18.6849 7.16333C24.5027 7.66833 28.9543 12.5765 28.9543 18.4151V45Z" fill="#0068C7"/>
<path d="M28.9551 45C28.9551 45 29.1937 44.5642 29.6711 43.9001C32.6976 39.6872 37.6092 37.2348 42.794 37.2348H54.7306C56.4877 37.2348 57.9093 35.8132 57.9093 34.0561V10.3282C57.9093 8.56764 56.4808 7.13912 54.7203 7.13912H39.5669C39.5669 7.13912 39.4493 7.14258 39.2314 7.16333C33.4067 7.66487 28.9551 12.5799 28.9551 18.4289V45Z" fill="#FF0016"/>
</svg>
