<svg width="203" height="145" viewBox="0 0 203 145" fill="none" xmlns="http://www.w3.org/2000/svg">
<path d="M144.19 7.8096L99.3864 0.574667C99.0283 0.517161 98.662 0.538076 98.3128 0.635975C97.9636 0.733873 97.6397 0.906421 97.3637 1.14169C97.0877 1.37696 96.866 1.66935 96.714 1.99866C96.562 2.32797 96.4834 2.68635 96.4834 3.04904V32.7555C96.4833 33.3485 96.6933 33.9224 97.0761 34.3753C97.4589 34.8283 97.9897 35.131 98.5744 35.2299L143.385 42.4648C143.743 42.5223 144.109 42.5014 144.459 42.4035C144.808 42.3056 145.132 42.133 145.408 41.8978C145.684 41.6625 145.905 41.3701 146.057 41.0408C146.209 40.7115 146.288 40.3531 146.288 39.9904V10.284C146.289 9.68975 146.078 9.11468 145.694 8.66145C145.309 8.20821 144.776 7.90629 144.19 7.8096Z" fill="#0C826A"/>
<path d="M144.284 7.27306L99.4733 0.0381198C99.0375 -0.0313966 98.5919 -0.00561693 98.167 0.11368C97.7422 0.232976 97.3483 0.442954 97.0124 0.72915C96.6765 1.01535 96.4066 1.37096 96.2214 1.77148C96.0362 2.172 95.94 2.60791 95.9395 3.04919V32.7521C95.9365 33.4778 96.1936 34.1804 96.6642 34.7328C97.1347 35.2852 97.7876 35.6508 98.5045 35.7632L143.315 43.0016C143.475 43.0268 143.637 43.0396 143.799 43.04C144.607 43.0372 145.381 42.7151 145.953 42.1438C146.524 41.5725 146.846 40.7985 146.849 39.9906V10.2841C146.85 9.55908 146.592 8.85753 146.122 8.30559C145.651 7.75365 145 7.38754 144.284 7.27306ZM145.758 39.9906C145.757 40.2748 145.694 40.5553 145.573 40.8129C145.453 41.0704 145.278 41.2987 145.061 41.4822C144.845 41.6691 144.591 41.8061 144.316 41.8832C144.042 41.9604 143.753 41.9757 143.472 41.9282L98.6718 34.6898C98.2113 34.6166 97.7923 34.3809 97.4906 34.0255C97.1889 33.6701 97.0244 33.2184 97.0268 32.7521V3.04919C97.0267 2.76492 97.0883 2.48403 97.2075 2.22594C97.3266 1.96785 97.5005 1.73873 97.7169 1.55445C97.9333 1.37016 98.1872 1.2351 98.461 1.15862C98.7348 1.08214 99.0219 1.06607 99.3025 1.11151L144.11 8.34645C144.571 8.41895 144.991 8.65429 145.293 9.00979C145.595 9.36528 145.76 9.8174 145.758 10.2841V39.9906Z" fill="white"/>
<path d="M143.688 42.5938L98.4838 35.2752C97.1717 35.0651 95.8276 35.1959 94.5806 35.6551L78.0092 41.7922C77.8029 41.8681 77.6275 42.0104 77.5107 42.1967C77.3938 42.383 77.3421 42.6028 77.3637 42.8216C77.3852 43.0405 77.4787 43.246 77.6296 43.4059C77.7805 43.5659 77.9802 43.6712 78.1974 43.7055L122.722 50.8916C123.745 51.0588 124.793 50.9579 125.765 50.5989L143.817 43.932C143.96 43.8777 144.081 43.778 144.161 43.6482C144.242 43.5184 144.278 43.3658 144.263 43.2137C144.248 43.0617 144.184 42.9186 144.08 42.8066C143.977 42.6946 143.839 42.6198 143.688 42.5938Z" fill="#0C826A"/>
<path d="M143.775 42.0538L98.5709 34.7561C97.1651 34.5281 95.7242 34.6686 94.3889 35.1639L77.821 41.2836C77.5026 41.4011 77.232 41.6209 77.0515 41.9084C76.8711 42.196 76.7909 42.5352 76.8235 42.8731C76.8562 43.211 76.9998 43.5286 77.2319 43.7764C77.4641 44.0241 77.7717 44.1879 78.1068 44.2424L122.632 51.439C122.978 51.4929 123.327 51.5209 123.677 51.5226C124.454 51.5223 125.224 51.3855 125.953 51.1183L144.002 44.4515C144.258 44.3565 144.476 44.1795 144.622 43.9479C144.767 43.7162 144.832 43.4431 144.806 43.1708C144.78 42.8985 144.665 42.6424 144.479 42.4423C144.292 42.2422 144.045 42.1092 143.775 42.0642V42.0538ZM143.629 43.4234L125.58 50.0903C124.69 50.42 123.728 50.5113 122.792 50.3551L78.2811 43.169C78.1821 43.1539 78.091 43.1063 78.0222 43.0336C77.9534 42.9609 77.9109 42.8673 77.9013 42.7677C77.8917 42.668 77.9156 42.5681 77.9692 42.4836C78.0229 42.3991 78.1032 42.3349 78.1974 42.3012L94.7688 36.1815C95.5658 35.889 96.4081 35.7392 97.2571 35.7389C97.639 35.7372 98.0203 35.7687 98.3967 35.833L143.605 43.1272C143.638 43.1306 143.669 43.1465 143.692 43.1716C143.714 43.1967 143.727 43.2293 143.727 43.2631C143.732 43.297 143.725 43.3316 143.707 43.3609C143.689 43.3902 143.661 43.4123 143.629 43.4234Z" fill="white"/>
<path d="M140.925 9.98795L102.687 4.09824C102.299 4.03674 101.903 4.06 101.526 4.16643C101.148 4.27286 100.799 4.45991 100.5 4.71469C100.202 4.96947 99.9628 5.28591 99.7988 5.64217C99.6348 5.99843 99.55 6.38603 99.5503 6.77823V30.3719C99.551 31.0196 99.7832 31.6456 100.205 32.137C100.627 32.6285 101.21 32.953 101.85 33.0519L140.085 38.9416C140.472 39.0031 140.868 38.9799 141.246 38.8734C141.623 38.767 141.973 38.5799 142.271 38.3252C142.569 38.0704 142.809 37.754 142.973 37.3977C143.137 37.0414 143.222 36.6538 143.221 36.2616V12.6679C143.221 12.0206 142.99 11.3946 142.569 10.9031C142.147 10.4116 141.564 10.087 140.925 9.98795Z" fill="white"/>
<path d="M95.051 19.7251C92.0711 18.8975 88.9094 19.0009 85.9899 20.0214C83.7169 20.2146 81.4784 20.7008 79.33 21.4676C57.2175 29.4031 53.7708 65.0306 53.3003 72.0738L60.5248 72.5478C60.7687 68.8293 63.3999 37.0388 80.1142 29.065C80.1036 30.0455 80.1876 31.0247 80.3651 31.989C80.4445 32.4011 80.665 32.7727 80.9888 33.0399C81.3125 33.307 81.7192 33.453 82.139 33.4527C82.2558 33.4528 82.3725 33.4423 82.4875 33.4213C82.5641 33.4039 83.4668 33.0484 83.9198 31.2989C84.2509 30.0164 83.8919 29.7167 84.2369 28.9012C84.5385 28.2535 85.0424 27.7215 85.6728 27.3852C86.8456 27.8762 87.9616 28.4932 89.001 29.2253C90.7044 30.4362 92.1962 31.9199 93.4165 33.6165C93.5852 33.8485 93.8064 34.0373 94.062 34.1675C94.3176 34.2977 94.6004 34.3657 94.8872 34.3658C95.22 34.3647 95.5461 34.2721 95.8297 34.098C96.1133 33.9239 96.3435 33.6751 96.495 33.3789C96.6466 33.0826 96.7136 32.7503 96.6888 32.4185C96.664 32.0866 96.5483 31.768 96.3544 31.4976C94.9368 29.5374 93.2129 27.8182 91.2488 26.4059C91.8602 26.6358 92.4553 26.9071 93.0297 27.218C94.8626 28.2936 96.4546 29.735 97.7066 31.4523C97.8757 31.6814 98.0963 31.8676 98.3505 31.9959C98.6047 32.1243 98.8855 32.1911 99.1703 32.1911C99.5045 32.1908 99.832 32.0979 100.117 31.9228C100.401 31.7477 100.632 31.4972 100.783 31.1991C100.933 30.9009 100.999 30.5668 100.971 30.2338C100.944 29.9008 100.825 29.5819 100.627 29.3125C99.0826 27.191 97.1166 25.4113 94.8524 24.0849C94.0974 23.6519 93.3124 23.2734 92.5035 22.9523C93.0288 23.0004 93.5496 23.0889 94.0613 23.2171C95.6997 23.6873 97.2121 24.5185 98.4873 25.6497C98.8486 25.9653 99.3206 26.1245 99.7994 26.0921C100.278 26.0598 100.724 25.8386 101.04 25.4772C101.356 25.1158 101.515 24.6438 101.482 24.1651C101.45 23.6863 101.229 23.24 100.868 22.9244C99.1927 21.436 97.2049 20.3426 95.051 19.7251Z" fill="#0C826A"/>
<path d="M101.449 25.8204C101.653 25.5878 101.808 25.3174 101.907 25.0247C102.005 24.732 102.045 24.4227 102.024 24.1145C102.003 23.8063 101.922 23.5053 101.784 23.2287C101.647 22.9521 101.456 22.7054 101.223 22.5026C99.4813 20.9723 97.4205 19.8496 95.1903 19.2162C92.148 18.3584 88.9157 18.4557 85.9305 19.495C83.6158 19.6868 81.3354 20.1752 79.1452 20.9483C56.7329 28.9952 53.2305 64.912 52.76 72.0319C52.7506 72.1738 52.7969 72.3138 52.8889 72.4222C52.9358 72.477 52.9934 72.5217 53.0581 72.5534C53.1228 72.5852 53.1933 72.6034 53.2653 72.6069L60.4863 73.0844H60.5246C60.6621 73.083 60.7941 73.0298 60.8942 72.9356C60.9943 72.8413 61.0552 72.7128 61.0648 72.5756C61.2983 69.0557 63.7518 38.4013 79.5913 29.9257C79.6169 30.6498 79.6973 31.371 79.8317 32.083C79.9366 32.6181 80.2239 33.1004 80.6446 33.4474C81.0654 33.7944 81.5935 33.9847 82.1388 33.9858C82.2955 33.9842 82.4518 33.9691 82.6058 33.9405C82.79 33.8965 82.9679 33.8298 83.1355 33.7418C83.9267 33.3097 84.3902 31.6195 84.4424 31.4243C84.5213 31.1312 84.5726 30.8313 84.5958 30.5286C84.6073 30.3243 84.6073 30.1196 84.5958 29.9153C84.5704 29.641 84.6122 29.3647 84.7178 29.1102C84.9246 28.6485 85.2659 28.2598 85.6971 27.995C86.7412 28.4486 87.7362 29.0079 88.6663 29.6643C90.3214 30.8415 91.7719 32.2826 92.9599 33.93C93.3335 34.4242 93.8834 34.7551 94.495 34.8538C95.1066 34.9525 95.7327 34.8113 96.2428 34.4598C96.7472 34.0939 97.0863 33.5433 97.1862 32.9282C97.2861 32.3132 97.1386 31.6836 96.776 31.1769C96.7272 31.1106 96.6714 31.0409 96.6226 30.9712C96.8387 31.2291 97.0478 31.494 97.2499 31.7728C97.634 32.2616 98.1901 32.5853 98.8047 32.678C99.4194 32.7706 100.046 32.6251 100.557 32.2712C101.058 31.8998 101.391 31.346 101.486 30.7301C101.581 30.1141 101.429 29.4857 101.063 28.9813C100.411 28.0948 99.6882 27.2626 98.9018 26.493C99.3458 26.6418 99.8236 26.6575 100.276 26.538C100.729 26.4184 101.137 26.169 101.449 25.8204ZM92.2942 23.4575C93.0802 23.7703 93.843 24.1383 94.5769 24.5588C96.7753 25.8433 98.6844 27.5685 100.184 29.626C100.382 29.8969 100.465 30.2349 100.414 30.5664C100.364 30.898 100.185 31.1963 99.916 31.3964C99.6415 31.5861 99.3048 31.6636 98.975 31.6131C98.6452 31.5626 98.3472 31.3878 98.1421 31.1246C96.8503 29.3465 95.2046 27.855 93.3084 26.7439C92.8259 26.4765 92.3251 26.2436 91.8098 26.0469L91.4613 25.904C91.3378 25.8515 91.1993 25.8466 91.0724 25.8901C90.9454 25.9336 90.8391 26.0225 90.7738 26.1397C90.7085 26.257 90.6888 26.3942 90.7186 26.525C90.7484 26.6558 90.8255 26.771 90.9351 26.8484C92.8514 28.2265 94.5331 29.9046 95.9152 31.8181C96.0127 31.9526 96.0827 32.1051 96.1213 32.2667C96.1599 32.4283 96.1663 32.5959 96.14 32.76C96.1138 32.9241 96.0555 33.0814 95.9685 33.223C95.8815 33.3645 95.7675 33.4875 95.6329 33.585C95.357 33.7722 95.02 33.8468 94.6909 33.7937C94.3618 33.7406 94.0655 33.5637 93.8625 33.2992C92.6122 31.5498 91.0814 30.019 89.3319 28.7687C88.2612 28.0099 87.11 27.3718 85.8992 26.8659C85.8226 26.8338 85.7396 26.82 85.6568 26.8254C85.5739 26.8308 85.4935 26.8554 85.4217 26.8972C84.6853 27.2878 84.0994 27.9117 83.7559 28.6711C83.5883 29.0645 83.5166 29.4922 83.5468 29.9188C83.5585 30.1056 83.5585 30.293 83.5468 30.4798C83.5238 30.7046 83.4831 30.9272 83.4248 31.1455C83.2192 31.9645 83.0554 32.6092 82.7278 32.7486L82.4281 32.8706C82.0985 32.9313 81.7583 32.8607 81.4802 32.6737C81.2021 32.4868 81.0082 32.1985 80.94 31.8704C80.769 30.9394 80.6885 29.994 80.6995 29.0475C80.7005 28.9554 80.6775 28.8646 80.6329 28.784C80.5883 28.7033 80.5236 28.6356 80.4451 28.5875C80.3675 28.539 80.279 28.5107 80.1877 28.5052C80.0964 28.4997 80.0052 28.5172 79.9223 28.5561C63.5009 36.3939 60.4793 66.428 60.0576 71.9552L53.9135 71.551C54.5164 63.4448 58.2838 29.5912 79.5494 21.9624C81.6933 21.2085 83.9241 20.7295 86.1884 20.537C89.0043 19.5576 92.0516 19.4579 94.9254 20.2513C97.0039 20.8393 98.9246 21.8848 100.547 23.3111C100.799 23.5321 100.953 23.8442 100.975 24.1788C100.998 24.5134 100.886 24.8431 100.665 25.0955C100.44 25.3413 100.129 25.491 99.7957 25.5137C99.463 25.5364 99.1342 25.4304 98.8775 25.2174C97.5396 24.0401 95.9562 23.1758 94.2424 22.6873C93.7853 22.5665 93.319 22.4838 92.8483 22.4399L92.5974 22.4085C92.4588 22.372 92.3113 22.3921 92.1875 22.4643C92.0636 22.5365 91.9735 22.655 91.937 22.7936C91.9005 22.9322 91.9206 23.0797 91.9928 23.2036C92.065 23.3274 92.1835 23.4175 92.3221 23.454L92.2942 23.4575Z" fill="white"/>
<path d="M89.1611 25.6252L91.6704 26.5732C91.1664 26.2884 90.6352 26.0549 90.0847 25.8762C89.7821 25.7742 89.4737 25.6904 89.1611 25.6252Z" fill="#0C826A"/>
<path d="M89.2693 25.0956C89.195 25.0811 89.1186 25.0818 89.0445 25.0976C88.9705 25.1135 88.9005 25.1441 88.8386 25.1878C88.7767 25.2314 88.7243 25.2871 88.6846 25.3515C88.6448 25.4159 88.6185 25.4877 88.6072 25.5626C88.595 25.6985 88.6335 25.8341 88.7152 25.9434C88.7968 26.0527 88.916 26.1281 89.0498 26.155C89.3216 26.2143 89.6109 26.2909 89.9175 26.3885C90.4328 26.5575 90.9301 26.777 91.4022 27.0437L91.9389 26.1027C91.4045 25.8001 90.8419 25.5503 90.2591 25.3569C89.9345 25.2506 89.6041 25.1633 89.2693 25.0956Z" fill="white"/>
<path d="M90.7331 22.7327C90.7299 22.8474 90.7614 22.9604 90.8236 23.0568C90.8858 23.1532 90.9758 23.2285 91.0816 23.2728L92.4164 23.4924L92.5907 22.419L91.2524 22.1995C91.117 22.213 90.9906 22.2739 90.8957 22.3715C90.8007 22.469 90.7431 22.5969 90.7331 22.7327Z" fill="white"/>
<path d="M130.316 80.0162C122.161 87.5439 116.24 97.6645 113.194 109.291L120.195 111.124C122.077 103.951 126.207 93.6567 135.223 85.3344C150.763 70.997 175.088 67.4318 198.703 76.0294C199.913 69.4357 201.12 62.842 202.324 56.2483L190.583 66.1388C167.864 61.0402 145.493 66.0064 130.316 80.0162Z" fill="#0C826A"/>
<path d="M202.596 55.7707C202.498 55.715 202.386 55.6908 202.274 55.7014C202.163 55.712 202.057 55.7569 201.972 55.83L190.436 65.5462C167.571 60.4894 144.974 65.7449 129.95 79.6118C121.718 87.2092 115.745 97.4204 112.671 109.144C112.635 109.284 112.655 109.433 112.727 109.559C112.802 109.681 112.92 109.771 113.058 109.81L120.06 111.643C120.104 111.654 120.15 111.66 120.195 111.66C120.315 111.66 120.432 111.62 120.527 111.547C120.622 111.474 120.69 111.372 120.722 111.256C122.583 104.153 126.674 93.9562 135.592 85.7281C150.979 71.5266 175.088 68.0032 198.518 76.5311C198.592 76.5628 198.672 76.576 198.751 76.5693C198.831 76.5626 198.908 76.5363 198.975 76.4927C199.043 76.4545 199.103 76.4015 199.148 76.3377C199.194 76.2738 199.225 76.2006 199.24 76.1233L202.857 56.3423C202.877 56.2317 202.863 56.1175 202.817 56.0152C202.77 55.9129 202.693 55.8276 202.596 55.7707ZM198.288 75.2869C174.656 66.8949 150.407 70.5647 134.861 84.9195C125.967 93.1268 121.778 103.23 119.816 110.444L113.87 108.893C116.93 97.5911 122.74 87.7529 130.696 80.4099C145.518 66.7311 167.878 61.5907 190.471 66.6614C190.553 66.6805 190.638 66.68 190.72 66.66C190.802 66.64 190.878 66.6011 190.942 66.5464L201.529 57.6317L198.288 75.2869Z" fill="white"/>
<path d="M155.865 73.886C152.571 72.6836 142.569 69.0383 116.254 109.329L122.311 113.284C131.477 99.2535 138.565 90.8546 143.702 86.101C148.417 81.7238 151.198 79.9848 153.38 80.6957C158.05 82.2152 160.385 95.8208 152.826 143.653L173.039 144.395L161.859 133.686C165.592 109.507 167.888 78.2736 155.865 73.886Z" fill="#0C826A"/>
<path d="M162.438 133.47C166.285 108.458 168.268 77.845 156.039 73.3947C152.662 72.154 142.353 68.3797 115.787 109.05C115.748 109.11 115.722 109.177 115.71 109.247C115.697 109.317 115.698 109.388 115.714 109.458C115.743 109.6 115.826 109.725 115.947 109.806L122.008 113.762C122.066 113.804 122.133 113.832 122.203 113.846C122.273 113.859 122.346 113.856 122.415 113.838C122.557 113.808 122.682 113.725 122.764 113.605C130.706 101.435 138.074 92.0675 144.064 86.5088C148.808 82.1003 151.383 80.6122 153.206 81.222C157.085 82.4557 160.071 94.3049 152.289 143.559C152.277 143.635 152.281 143.713 152.301 143.788C152.322 143.862 152.358 143.932 152.408 143.991C152.456 144.05 152.517 144.098 152.585 144.131C152.654 144.165 152.729 144.184 152.805 144.186L173.018 144.925H173.039C173.148 144.924 173.253 144.89 173.342 144.828C173.431 144.765 173.499 144.678 173.537 144.576C173.58 144.475 173.591 144.364 173.569 144.256C173.547 144.149 173.494 144.05 173.415 143.974L162.438 133.47ZM153.46 143.127C159.796 102.805 159.824 82.2118 153.551 80.1696C150.899 79.2983 147.689 81.6507 143.336 85.6899C137.269 91.3182 130.145 100.348 122.154 112.525L117.007 109.169C142.873 69.704 152.498 73.2378 155.691 74.3949C164.72 77.6952 166.724 98.7169 161.333 133.588C161.321 133.674 161.329 133.762 161.357 133.844C161.385 133.926 161.431 134.001 161.493 134.062L171.624 143.792L153.46 143.127Z" fill="white"/>
<path d="M124.747 53.021C123.579 52.5197 122.374 52.1073 121.144 51.7873C122.022 51.7873 122.886 51.7524 123.771 51.8117C124.248 51.8341 124.715 51.6709 125.073 51.3563C125.432 51.0417 125.655 50.6004 125.695 50.1249C125.711 49.8878 125.679 49.65 125.603 49.425C125.527 49.2 125.407 48.9922 125.25 48.8136C125.094 48.6349 124.903 48.4889 124.69 48.3838C124.477 48.2787 124.245 48.2167 124.008 48.2012C122.931 48.1245 121.05 46.9082 114.219 48.6507C110.734 49.5394 109.943 50.0726 107.97 49.86C106.369 49.7419 104.841 49.1458 103.583 48.1489C102.398 47.1593 101.535 45.8393 101.105 44.3572C100.977 43.983 100.734 43.6592 100.41 43.4324C100.086 43.2056 99.6982 43.0877 99.303 43.0956C98.83 43.1377 98.3904 43.3567 98.0719 43.7088C97.7534 44.0609 97.5794 44.5202 97.5848 44.9949C97.6804 47.0251 98.3578 48.9849 99.5365 50.6407C100.106 51.4244 100.784 52.1227 101.551 52.7143C94.2132 67.3583 90.5246 83.5593 90.7995 99.9365L98.0379 99.8215C97.7723 85.0986 100.98 70.5204 107.402 57.2692C107.629 57.3312 107.866 57.3489 108.099 57.3215C111.703 56.862 115.365 57.3422 118.729 58.7155C118.949 58.8077 119.186 58.854 119.426 58.8514C119.847 58.8556 120.256 58.7126 120.583 58.4472C120.91 58.1818 121.134 57.8105 121.217 57.3975C121.3 56.9845 121.235 56.5556 121.036 56.1848C120.836 55.814 120.513 55.5245 120.123 55.3664C119.75 55.2131 119.359 55.105 118.976 54.9691C120.454 55.265 121.897 55.7171 123.28 56.3178C123.719 56.5115 124.217 56.5228 124.664 56.3492C125.112 56.1757 125.472 55.8316 125.666 55.3925C125.859 54.9535 125.87 54.4555 125.697 54.0081C125.523 53.5608 125.179 53.2007 124.74 53.007L124.747 53.021Z" fill="#0C826A"/>
<path d="M124.967 52.5297C124.779 52.4461 124.59 52.3659 124.399 52.2892C124.951 52.1684 125.441 51.8522 125.778 51.3989C126.116 50.9456 126.278 50.3857 126.236 49.8221C126.194 49.2585 125.949 48.7291 125.547 48.3315C125.146 47.9338 124.614 47.6945 124.05 47.6576C123.831 47.6324 123.615 47.5916 123.402 47.5356C122.133 47.2429 119.771 46.6853 114.097 48.1351C113.121 48.386 112.354 48.6056 111.713 48.7937C110.089 49.2573 109.333 49.4698 108.043 49.327C106.548 49.2231 105.118 48.6705 103.941 47.7413C102.832 46.8134 102.025 45.5739 101.627 44.183C101.467 43.7187 101.168 43.3146 100.771 43.025C100.375 42.7353 99.8986 42.5739 99.4075 42.5625H99.289C98.674 42.6153 98.102 42.8993 97.6881 43.3572C97.2742 43.815 97.0492 44.4128 97.0585 45.0299C97.1584 47.1611 97.8711 49.2183 99.1112 50.9545C99.6206 51.6594 100.215 52.2985 100.882 52.8573C93.6308 67.4774 89.9917 83.6231 90.2697 99.9401C90.2724 100.083 90.3308 100.219 90.4324 100.319C90.5339 100.419 90.6706 100.476 90.8134 100.477L98.0518 100.362C98.1953 100.357 98.3315 100.297 98.4316 100.195C98.4823 100.144 98.5223 100.083 98.5492 100.017C98.5761 99.9505 98.5895 99.8794 98.5885 99.8077C98.3263 85.3075 101.454 70.9465 107.723 57.8688C107.871 57.8826 108.02 57.8826 108.169 57.8688C110.167 57.6213 112.19 57.6623 114.177 57.9907C115.665 58.2443 117.122 58.6603 118.519 59.2314C119.098 59.4557 119.741 59.4475 120.314 59.2085C120.887 58.9695 121.345 58.5181 121.593 57.9489C121.814 57.4132 121.828 56.8144 121.632 56.2691C122.13 56.4434 122.611 56.6176 123.074 56.8372C123.648 57.0714 124.29 57.0757 124.867 56.8492C125.444 56.6228 125.911 56.1829 126.173 55.6209C126.421 55.0509 126.433 54.4058 126.207 53.8265C125.981 53.2472 125.535 52.781 124.967 52.5297ZM125.179 55.1888C125.035 55.4894 124.782 55.7239 124.472 55.8449C124.161 55.9659 123.816 55.9643 123.506 55.8405C122.081 55.2169 120.593 54.7495 119.067 54.4465C118.931 54.4158 118.789 54.439 118.671 54.5112C118.553 54.5835 118.467 54.699 118.432 54.8333C118.397 54.9663 118.413 55.108 118.477 55.2296C118.542 55.3512 118.65 55.4438 118.781 55.4885L119.209 55.6349C119.443 55.7081 119.673 55.7812 119.906 55.8753C120.06 55.9385 120.2 56.0313 120.318 56.1485C120.436 56.2657 120.529 56.405 120.594 56.5584C120.658 56.7118 120.691 56.8763 120.691 57.0425C120.692 57.2088 120.66 57.3735 120.596 57.5272C120.533 57.681 120.44 57.8208 120.323 57.9387C120.206 58.0566 120.067 58.1503 119.913 58.2144C119.76 58.2785 119.596 58.3117 119.429 58.3122C119.263 58.3127 119.098 58.2804 118.945 58.2173C115.494 56.8088 111.738 56.3143 108.04 56.7814C107.876 56.8012 107.71 56.7882 107.552 56.7431C107.431 56.7155 107.305 56.729 107.192 56.7814C107.08 56.8337 106.988 56.9221 106.932 57.0324C100.545 70.1942 97.3122 84.6633 97.4907 99.2919L91.3361 99.393C91.151 83.284 94.8206 67.3643 102.039 52.9618C102.095 52.8493 102.11 52.7207 102.082 52.5981C102.054 52.4754 101.985 52.3663 101.885 52.2892C101.16 51.7291 100.517 51.0698 99.9755 50.3306C98.8658 48.7677 98.2261 46.92 98.1319 45.0055C98.1249 44.6693 98.2448 44.3429 98.4676 44.091C98.6903 43.8392 98.9998 43.6804 99.3343 43.6464H99.397C99.6597 43.6552 99.9137 43.7426 100.126 43.8973C100.339 44.052 100.5 44.2669 100.589 44.5141C101.045 46.1042 101.969 47.5201 103.241 48.5777C104.582 49.6389 106.212 50.2716 107.918 50.3934C109.458 50.5502 110.357 50.2958 112.009 49.8218C112.64 49.6371 113.403 49.4176 114.358 49.1736C119.753 47.7796 121.966 48.3024 123.151 48.5777C123.419 48.6501 123.693 48.7002 123.97 48.7275C124.305 48.7517 124.617 48.9067 124.839 49.1591C125.061 49.4114 125.174 49.7409 125.155 50.0762C125.126 50.4022 124.975 50.7051 124.732 50.9242C124.489 51.1434 124.172 51.2625 123.845 51.2577H123.806C123.148 51.2124 122.485 51.2228 121.837 51.2228H121.14C121.01 51.2251 120.885 51.2742 120.788 51.361C120.69 51.4478 120.628 51.5667 120.611 51.6959C120.594 51.8251 120.624 51.9561 120.695 52.065C120.767 52.1739 120.875 52.2535 121.001 52.2892C122.206 52.6142 123.385 53.0289 124.528 53.5299C124.833 53.6652 125.072 53.9151 125.194 54.2256C125.316 54.5361 125.311 54.8821 125.179 55.1888Z" fill="white"/>
<path d="M0.557702 74.6178C0.557702 111.58 30.529 141.53 67.4704 141.53C78.48 141.536 89.3207 138.823 99.0299 133.632C108.739 128.442 117.016 120.934 123.126 111.775L11.9538 37.2512C4.50585 48.2878 0.536414 61.3032 0.557702 74.6178Z" fill="#0C826A"/>
<path d="M32.4424 88.0317C31.7283 88.0317 31.0302 88.2437 30.4367 88.6409C29.8431 89.038 29.3808 89.6023 29.1083 90.2625C28.8359 90.9226 28.7654 91.6487 28.906 92.3489C29.0466 93.049 29.3919 93.6917 29.8981 94.1955C30.4043 94.6992 31.0486 95.0414 31.7495 95.1786C32.4503 95.3158 33.1761 95.2419 33.8349 94.9662C34.4937 94.6905 35.0558 94.2255 35.45 93.63C35.8443 93.0345 36.0529 92.3355 36.0494 91.6213C36.0457 90.6674 35.664 89.7539 34.9878 89.081C34.3117 88.4081 33.3963 88.0308 32.4424 88.0317Z" fill="white"/>
<mask id="mask0_103_626" style="mask-type:luminance" maskUnits="userSpaceOnUse" x="28" y="88" width="9" height="8">
<path d="M32.4458 95.2249C34.436 95.2249 36.0493 93.6115 36.0493 91.6213C36.0493 89.6312 34.436 88.0178 32.4458 88.0178C30.4556 88.0178 28.8423 89.6312 28.8423 91.6213C28.8423 93.6115 30.4556 95.2249 32.4458 95.2249Z" fill="white"/>
</mask>
<g mask="url(#mask0_103_626)">
<path d="M34.6445 94.1343C36.6347 94.1343 38.2481 92.521 38.2481 90.5308C38.2481 88.5406 36.6347 86.9272 34.6445 86.9272C32.6544 86.9272 31.041 88.5406 31.041 90.5308C31.041 92.521 32.6544 94.1343 34.6445 94.1343Z" fill="#180C47"/>
</g>
<path d="M35.5025 80.4414L28.5568 84.031C28.3781 84.1252 28.2359 84.2765 28.153 84.4608C28.0701 84.6451 28.0512 84.8518 28.0993 85.0481C28.1473 85.2444 28.2596 85.419 28.4183 85.5441C28.577 85.6692 28.773 85.7377 28.975 85.7387C29.121 85.7397 29.2649 85.7037 29.3932 85.6341L36.3285 82.0445C36.4393 81.9936 36.5387 81.9208 36.6207 81.8304C36.7026 81.7401 36.7654 81.634 36.8052 81.5187C36.845 81.4034 36.861 81.2812 36.8523 81.1595C36.8435 81.0378 36.8102 80.9192 36.7544 80.8108C36.6985 80.7023 36.6212 80.6063 36.5272 80.5286C36.4332 80.4508 36.3244 80.3929 36.2074 80.3584C36.0904 80.3239 35.9676 80.3135 35.8465 80.3277C35.7253 80.342 35.6083 80.3807 35.5025 80.4414Z" fill="#180C47"/>
<path d="M46.7589 84.6304C46.0452 84.6297 45.3474 84.8407 44.7537 85.2368C44.16 85.6329 43.6971 86.1962 43.4237 86.8554C43.1502 87.5147 43.0785 88.2402 43.2176 88.9402C43.3566 89.6402 43.7003 90.2833 44.2049 90.7879C44.7096 91.2926 45.3526 91.6362 46.0526 91.7753C46.7526 91.9143 47.4782 91.8426 48.1374 91.5692C48.7966 91.2957 49.3599 90.8329 49.756 90.2392C50.1521 89.6455 50.3632 88.9476 50.3625 88.2339C50.3625 87.2782 49.9828 86.3616 49.307 85.6858C48.6312 85.01 47.7146 84.6304 46.7589 84.6304Z" fill="white"/>
<mask id="mask1_103_626" style="mask-type:luminance" maskUnits="userSpaceOnUse" x="43" y="84" width="8" height="8">
<path d="M46.7588 91.8374C48.749 91.8374 50.3623 90.2241 50.3623 88.2339C50.3623 86.2437 48.749 84.6304 46.7588 84.6304C44.7686 84.6304 43.1553 86.2437 43.1553 88.2339C43.1553 90.2241 44.7686 91.8374 46.7588 91.8374Z" fill="white"/>
</mask>
<g mask="url(#mask1_103_626)">
<path d="M48.9577 83.5361C48.2441 83.5354 47.5464 83.7464 46.9528 84.1423C46.3591 84.5382 45.8963 85.1014 45.6227 85.7604C45.3492 86.4194 45.2773 87.1448 45.4161 87.8447C45.5548 88.5446 45.8981 89.1877 46.4024 89.6925C46.9067 90.1973 47.5494 90.5411 48.2492 90.6806C48.949 90.8201 49.6744 90.7488 50.3337 90.4759C50.993 90.203 51.5566 89.7407 51.9531 89.1475C52.3496 88.5542 52.5612 87.8567 52.5612 87.1431C52.5612 86.1871 52.1816 85.2702 51.506 84.5938C50.8303 83.9175 49.9137 83.5371 48.9577 83.5361Z" fill="#180C47"/>
</g>
<path d="M44.4132 96.706C43.1682 97.2363 41.7783 97.32 40.4786 96.943L40.1685 97.9885C40.8092 98.1754 41.4735 98.2693 42.141 98.2673C43.0736 98.2711 43.9969 98.0812 44.8523 97.7097C46.0797 97.1642 47.1196 96.2697 47.8425 95.1377L46.9225 94.5522C46.3145 95.5 45.4421 96.2487 44.4132 96.706Z" fill="#180C47"/>
<path d="M39.6041 97.4414C39.3463 97.9871 38.9921 98.4817 38.5586 98.9016L39.3079 99.6857C40.4354 98.6046 41.1073 97.1335 41.1863 95.5734L40.106 95.5142C40.0687 96.1836 39.8981 96.8388 39.6041 97.4414Z" fill="#180C47"/>
<path d="M49.8156 76.1546L42.8734 79.7372C42.6919 79.8292 42.5468 79.9799 42.4617 80.1647C42.3766 80.3495 42.3564 80.5576 42.4044 80.7553C42.4524 80.953 42.5658 81.1287 42.7262 81.2539C42.8866 81.3791 43.0846 81.4464 43.2881 81.4449C43.4319 81.4463 43.5736 81.4103 43.6993 81.3403L50.645 77.7577C50.7524 77.7045 50.8481 77.6304 50.9265 77.5398C51.005 77.4492 51.0646 77.3439 51.1019 77.23C51.1392 77.1161 51.1535 76.9959 51.1438 76.8765C51.1342 76.757 51.1009 76.6407 51.0458 76.5342C50.9907 76.4278 50.915 76.3334 50.8231 76.2565C50.7311 76.1796 50.6248 76.1219 50.5103 76.0865C50.3957 76.0512 50.2753 76.039 50.1561 76.0507C50.0368 76.0624 49.921 76.0977 49.8156 76.1546Z" fill="#180C47"/>
<path d="M116.986 51.8503C115.887 51.9975 114.805 52.246 113.752 52.5926L121.144 51.7875C119.76 51.6473 118.365 51.6683 116.986 51.8503Z" fill="#0C826A"/>
<path d="M116.91 51.3136C115.779 51.4633 114.664 51.7188 113.581 52.0768C113.453 52.1509 113.358 52.2706 113.314 52.412C113.27 52.5535 113.281 52.7063 113.344 52.84C113.404 52.9368 113.49 53.014 113.593 53.0617C113.696 53.1095 113.811 53.1257 113.923 53.1083C114.372 52.962 114.888 52.8086 115.467 52.6762C116.045 52.5438 116.512 52.4601 117.056 52.3869C118.394 52.2126 119.748 52.1915 121.092 52.3242L121.196 51.2404C119.769 51.1025 118.331 51.1271 116.91 51.3136Z" fill="white"/>
<path d="M114.682 54.2443C114.552 54.2844 114.441 54.3697 114.368 54.4847C114.295 54.5997 114.266 54.7369 114.285 54.8716C114.306 54.9857 114.361 55.0908 114.443 55.1725C114.525 55.2542 114.631 55.3085 114.745 55.3282C115.278 55.2968 115.85 55.2863 116.46 55.3072C117.268 55.3289 118.075 55.3999 118.875 55.5198L119.039 54.4464C118.195 54.3205 117.344 54.2437 116.491 54.2164C115.853 54.206 115.243 54.2269 114.682 54.2443Z" fill="white"/>
</svg>
