<svg width="196" height="203" viewBox="0 0 196 203" fill="none" xmlns="http://www.w3.org/2000/svg">
<path d="M168.044 92.3785C171.861 80.8788 172.604 68.5809 170.201 56.705C164.185 26.6412 138.566 3.58695 108.033 0.891616C66.5643 -2.77379 31.767 29.8059 31.767 70.5134C31.7752 80.7514 34.0448 90.8612 38.4135 100.12C36.2251 109.251 33.7279 118.366 30.8177 127.263C26.1731 141.411 20.6301 155.247 14.2223 168.689C11.8211 168.726 9.42408 168.83 7.05419 169.083C5.59526 169.237 4.19128 169.424 2.84222 169.644C2.34523 169.726 1.89728 169.992 1.58695 170.389C1.27663 170.786 1.12655 171.285 1.16641 171.787C1.20627 172.289 1.43315 172.758 1.80219 173.101C2.17123 173.444 2.65556 173.636 3.15932 173.639C3.26759 173.639 3.3757 173.631 3.48269 173.614C4.26083 173.487 5.09737 173.393 5.91515 173.289C4.38455 174.044 2.90507 174.899 1.48621 175.848C1.04358 176.148 0.737997 176.611 0.636668 177.135C0.535338 177.66 0.646547 178.203 0.945875 178.646C1.2452 179.088 1.70813 179.394 2.23277 179.495C2.75741 179.597 3.30083 179.486 3.74346 179.186C5.34561 178.1 7.0341 177.147 8.79198 176.336C9.24051 176.128 9.7224 176.015 10.1793 175.827C9.08194 176.678 8.06203 177.624 7.1314 178.654C6.78991 179.055 6.61944 179.574 6.65666 180.1C6.69389 180.625 6.93581 181.115 7.33044 181.464C7.72507 181.813 8.24088 181.994 8.76698 181.966C9.29308 181.939 9.78746 181.706 10.1438 181.318C12.9404 178.151 16.6866 175.973 20.8229 175.11C21.0003 175.065 21.1703 174.994 21.3278 174.901L24.4028 177.661C24.8017 178.004 25.3192 178.177 25.8442 178.143C26.3693 178.109 26.8601 177.871 27.2114 177.479C27.5627 177.088 27.7465 176.574 27.7234 176.048C27.7002 175.523 27.472 175.027 27.0877 174.668L22.3124 170.383C28.5178 157.191 33.9109 143.633 38.4615 129.784C40.5644 123.358 42.4252 116.816 44.1734 110.242C53.1441 123.228 66.2382 132.802 81.3323 137.413V189.815C81.0966 190.024 70.8326 199.19 70.5948 199.412L66.9815 202.631H89.3787V139.274C93.4397 140.018 97.5585 140.402 101.687 140.421C103.669 140.421 105.619 140.287 107.562 140.125L114.008 202.62H136.388L120.644 188.566L115.52 139.038C130.028 136.117 142.862 128.678 152.608 118.293C175.358 133.059 184.735 136.879 189.242 136.879C191.745 136.879 192.748 135.71 193.721 134.584C197.1 130.664 197.248 124.946 168.046 92.3806L168.044 92.3785ZM186.006 127.935C182.284 126.617 174.363 122.736 157.811 112.051C160.454 108.484 162.751 104.672 164.671 100.669C178.825 116.655 184.099 124.337 186.006 127.935Z" fill="#5968FE"/>
<path d="M164.587 100.07C164.488 100.083 164.395 100.121 164.315 100.18C164.234 100.238 164.17 100.316 164.128 100.406C162.222 104.374 159.945 108.152 157.327 111.69C157.277 111.756 157.241 111.832 157.222 111.912C157.203 111.993 157.201 112.076 157.217 112.158C157.231 112.239 157.263 112.316 157.309 112.385C157.355 112.453 157.414 112.511 157.484 112.556C174.271 123.404 182.15 127.209 185.805 128.503C185.873 128.526 185.943 128.537 186.014 128.536C186.101 128.537 186.186 128.519 186.265 128.483C186.343 128.446 186.413 128.394 186.469 128.327C186.549 128.236 186.6 128.122 186.614 128.001C186.628 127.88 186.605 127.757 186.548 127.649C184.62 124.015 179.34 116.313 165.129 100.264C165.063 100.189 164.978 100.131 164.883 100.097C164.788 100.063 164.686 100.054 164.587 100.07ZM158.675 111.891C161.007 108.688 163.063 105.293 164.823 101.743C176.85 115.37 182.253 122.772 184.652 126.759C180.565 125.054 172.919 121.063 158.675 111.891Z" fill="#F8F8F8"/>
<path d="M122.16 56.8427C120.278 55.7673 118.172 55.1441 116.007 55.0222C113.843 54.9002 111.679 55.2829 109.688 56.1399C107.697 56.997 105.932 58.3051 104.533 59.9609C103.134 61.6168 102.138 63.5751 101.625 65.6815C101.112 67.7878 101.096 69.9845 101.577 72.0983C102.058 74.2121 103.024 76.1851 104.399 77.8617C105.773 79.5384 107.518 80.8727 109.496 81.7596C111.474 82.6464 113.632 83.0615 115.798 82.972L120.562 99.7656C121.132 101.837 122.987 103.133 124.706 102.661C126.425 102.19 127.357 100.127 126.792 98.055L122.016 81.2217C124.192 80.0229 126.009 78.2655 127.279 76.1305C128.55 73.9956 129.227 71.5604 129.243 69.0762C129.258 66.592 128.61 64.1487 127.366 61.9983C126.123 59.8478 124.328 58.0681 122.167 56.8427H122.16ZM117.675 77.84C116.883 78.0573 116.065 78.1682 115.243 78.1696C113.027 78.1659 110.888 77.3596 109.222 75.8998C107.556 74.4401 106.475 72.426 106.179 70.2304C105.884 68.0348 106.394 65.8066 107.616 63.9584C108.837 62.1103 110.687 60.7674 112.823 60.1785C115.158 59.5571 117.644 59.8836 119.739 61.0868C121.834 62.2901 123.369 64.2725 124.009 66.6024C124.649 68.9323 124.343 71.4207 123.156 73.5256C121.97 75.6304 120 77.1812 117.675 77.84Z" fill="#F8F8F8"/>
<path d="M91.5605 75.1196C94.6725 75.1196 97.1953 72.5968 97.1953 69.4848C97.1953 66.3729 94.6725 63.8501 91.5605 63.8501C88.4485 63.8501 85.9258 66.3729 85.9258 69.4848C85.9258 72.5968 88.4485 75.1196 91.5605 75.1196Z" fill="white"/>
<path d="M89.917 73.5257C91.9598 73.5257 93.6158 71.8697 93.6158 69.827C93.6158 67.7842 91.9598 66.1282 89.917 66.1282C87.8743 66.1282 86.2183 67.7842 86.2183 69.827C86.2183 71.8697 87.8743 73.5257 89.917 73.5257Z" fill="#180C47"/>
<path d="M115.239 76.4944C119.11 76.4944 122.249 73.3561 122.249 69.4849C122.249 65.6136 119.11 62.4753 115.239 62.4753C111.368 62.4753 108.229 65.6136 108.229 69.4849C108.229 73.3561 111.368 76.4944 115.239 76.4944Z" fill="white"/>
<path d="M113.597 65.2271C112.69 65.2291 111.804 65.4998 111.051 66.0049C110.298 66.51 109.711 67.2269 109.365 68.0651C109.019 68.9033 108.929 69.8252 109.107 70.7146C109.284 71.6039 109.721 72.4207 110.362 73.0619C111.004 73.7032 111.82 74.1401 112.71 74.3175C113.599 74.4949 114.521 74.4049 115.359 74.0588C116.197 73.7128 116.914 73.1261 117.419 72.373C117.924 71.6198 118.195 70.7339 118.197 69.8271C118.197 68.6071 117.713 67.437 116.85 66.5744C115.987 65.7117 114.817 65.2271 113.597 65.2271Z" fill="#180C47"/>
<path d="M100.26 79.292C99.7437 79.2908 99.2385 79.4428 98.8085 79.7288C98.3785 80.0148 98.043 80.422 97.8445 80.8987C97.646 81.3755 97.5934 81.9004 97.6934 82.4071C97.7934 82.9138 98.0415 83.3794 98.4062 83.745C98.771 84.1106 99.236 84.3598 99.7424 84.461C100.249 84.5622 100.774 84.5109 101.251 84.3135C101.728 84.1162 102.136 83.7817 102.423 83.3524C102.71 82.9231 102.864 82.4182 102.864 81.9018C102.862 81.2112 102.587 80.5493 102.1 80.0604C101.612 79.5715 100.951 79.2953 100.26 79.292ZM100.26 83.3058C99.9823 83.3062 99.7107 83.2242 99.4795 83.0702C99.2484 82.9162 99.0681 82.697 98.9615 82.4405C98.8549 82.184 98.8268 81.9017 98.8808 81.6292C98.9347 81.3567 99.0682 81.1063 99.2645 80.9098C99.4607 80.7132 99.7109 80.5793 99.9833 80.5249C100.256 80.4706 100.538 80.4983 100.795 80.6045C101.051 80.7107 101.271 80.8906 101.425 81.1216C101.58 81.3525 101.662 81.624 101.662 81.9018C101.662 82.2738 101.514 82.6306 101.252 82.8938C100.989 83.1571 100.632 83.3052 100.26 83.3058Z" fill="#180C47"/>
<path d="M179.693 118.635C181.041 120.323 182.422 122.209 183.784 124.297C184.596 125.538 185.334 126.757 186.008 127.935C180.678 126.058 166.794 118.95 131.156 94.0454C130.732 91.7257 129.681 89.5664 128.117 87.8015C127.266 86.8502 125.004 84.3239 121.107 83.8607C117.911 83.4727 115.372 84.7182 114.15 85.49C113.926 85.6311 113.733 85.8148 113.581 86.0306C113.429 86.2464 113.32 86.4901 113.262 86.7477C113.204 87.0054 113.197 87.2719 113.242 87.5322C113.287 87.7925 113.383 88.0414 113.524 88.2646C113.665 88.4879 113.849 88.6812 114.064 88.8335C114.28 88.9858 114.524 89.0941 114.782 89.1522C115.039 89.2103 115.306 89.2171 115.566 89.1722C115.826 89.1273 116.075 89.0316 116.298 88.8905C117.585 88.0661 119.111 87.6987 120.631 87.8474C121.277 87.9302 121.904 88.1206 122.486 88.4107C122.188 88.3356 121.892 88.248 121.583 88.2021C117.427 87.6179 114.411 90.259 113.849 90.7952C113.658 90.9779 113.504 91.1966 113.397 91.4387C113.29 91.6809 113.231 91.9418 113.225 92.2065C113.219 92.4712 113.265 92.7346 113.36 92.9816C113.456 93.2285 113.599 93.4543 113.782 93.6459C113.964 93.8376 114.183 93.9913 114.425 94.0984C114.667 94.2056 114.928 94.2639 115.193 94.2702C115.458 94.2765 115.721 94.2306 115.968 94.1351C116.215 94.0397 116.441 93.8965 116.632 93.7137C116.841 93.5218 118.652 91.8696 121.013 92.1992C121.68 92.3119 122.315 92.5635 122.878 92.9377C122.079 92.7596 121.256 92.7152 120.442 92.8062C117.876 93.0962 116.165 94.6296 115.37 95.5183C115.023 95.9173 114.848 96.4369 114.881 96.9644C114.915 97.492 115.154 97.9852 115.549 98.3373C115.943 98.6894 116.46 98.8721 116.988 98.8458C117.516 98.8195 118.013 98.5864 118.37 98.1969C118.787 97.738 119.657 96.9452 120.899 96.8013C122.597 96.6156 124.389 97.7088 125.361 99.5425C125.423 99.6656 125.544 99.7219 125.628 99.8241L125.549 99.9409C168.695 130.151 183.252 136.881 189.246 136.881C191.749 136.881 192.753 135.713 193.725 134.586C194.236 133.929 194.662 133.211 194.995 132.448C195.767 130.587 192.21 122.545 185.317 112.758L179.693 118.635Z" fill="#5968FE"/>
<path d="M184.835 113.123C196.451 128.144 195.45 131.653 193.261 134.194C192.295 135.312 191.459 136.28 189.241 136.28C181.94 136.28 161.894 124.643 126.208 99.6697C126.185 99.5841 126.143 99.5049 126.085 99.4381C126.028 99.3702 125.962 99.3105 125.888 99.2608C124.806 97.2205 122.776 95.9939 120.827 96.2025C119.39 96.3652 118.389 97.2706 117.907 97.7942C117.787 97.9447 117.639 98.0692 117.469 98.16C117.3 98.2507 117.114 98.3059 116.923 98.3219C116.731 98.338 116.539 98.3147 116.357 98.2535C116.175 98.1923 116.007 98.0944 115.864 97.9659C115.722 97.8375 115.607 97.6811 115.527 97.5065C115.447 97.3319 115.403 97.1428 115.399 96.9508C115.395 96.7587 115.43 96.5679 115.503 96.3901C115.575 96.2122 115.683 96.0511 115.821 95.9167C116.555 95.0822 118.147 93.6699 120.515 93.4008C121.262 93.3194 122.017 93.361 122.751 93.5238C122.89 93.5563 123.036 93.5372 123.162 93.47C123.288 93.4029 123.385 93.2922 123.435 93.1588C123.489 93.0275 123.494 92.8814 123.45 92.7465C123.406 92.6117 123.316 92.4968 123.195 92.4224C122.561 92.0031 121.845 91.7223 121.094 91.5983C118.428 91.2019 116.434 93.0586 116.215 93.2673C116.085 93.398 115.929 93.5001 115.757 93.567C115.586 93.6338 115.402 93.6639 115.218 93.6553C115.032 93.6518 114.849 93.6115 114.679 93.5366C114.508 93.4618 114.355 93.3539 114.227 93.2193C114.098 93.0867 113.996 92.9296 113.929 92.7572C113.862 92.5849 113.83 92.4008 113.835 92.2158C113.839 92.0311 113.88 91.849 113.955 91.6801C114.029 91.5111 114.137 91.3586 114.271 91.2311C114.796 90.7305 117.631 88.2563 121.499 88.8008C121.717 88.8368 121.932 88.8856 122.144 88.9468L122.34 88.9989C122.487 89.0426 122.645 89.0288 122.782 88.9603C122.918 88.8918 123.024 88.7738 123.077 88.6301C123.13 88.4865 123.127 88.328 123.067 88.1869C123.008 88.0458 122.897 87.9326 122.757 87.8703C122.116 87.5468 121.425 87.3351 120.713 87.2445C119.054 87.0649 117.385 87.4628 115.985 88.371C115.67 88.5663 115.291 88.6321 114.928 88.5546C114.746 88.5146 114.575 88.4386 114.423 88.3311C114.272 88.2236 114.143 88.0868 114.045 87.9287C113.845 87.6133 113.778 87.2315 113.86 86.8669C113.9 86.6859 113.976 86.5149 114.084 86.3637C114.191 86.2125 114.328 86.0843 114.485 85.9865C115.647 85.2522 118.032 84.0693 121.051 84.4469C124.729 84.8829 126.873 87.2841 127.683 88.1895C129.173 89.8716 130.175 91.929 130.58 94.1393C130.61 94.293 130.698 94.4292 130.826 94.519C165.576 118.804 179.912 126.391 185.82 128.482C185.934 128.519 186.057 128.522 186.173 128.492C186.289 128.461 186.394 128.397 186.475 128.309C186.555 128.217 186.606 128.103 186.62 127.982C186.634 127.861 186.611 127.738 186.554 127.631C185.353 125.359 183.154 122.129 180.129 118.174L179.228 118.983C181.604 122.09 183.425 124.687 184.652 126.736C178.754 124.266 164.652 116.68 131.709 93.6699C131.241 91.3346 130.161 89.1655 128.58 87.3842C127.687 86.3871 125.323 83.7397 121.193 83.2474C117.794 82.8301 115.143 84.1486 113.839 84.9664C113.428 85.2268 113.098 85.5966 112.885 86.0343C112.673 86.472 112.587 86.9602 112.637 87.4441C112.687 87.928 112.87 88.3884 113.168 88.7736C113.465 89.1589 113.863 89.4536 114.319 89.6248C114.014 89.849 113.722 90.0915 113.447 90.3508C113.075 90.7052 112.816 91.1612 112.702 91.6619C112.589 92.1625 112.625 92.6856 112.807 93.1658C112.989 93.6459 113.308 94.0618 113.725 94.3615C114.142 94.6611 114.638 94.8313 115.151 94.8506L114.928 95.0947C114.699 95.3506 114.523 95.649 114.41 95.9728C114.297 96.2967 114.249 96.6396 114.268 96.9821C114.307 97.6738 114.62 98.3216 115.136 98.7831C115.653 99.2445 116.332 99.4818 117.024 99.4427C117.715 99.4035 118.363 99.0912 118.825 98.5745C119.184 98.1781 119.937 97.4938 120.973 97.3749C122.375 97.231 123.982 98.1906 124.837 99.8095C124.87 99.8698 124.909 99.9265 124.954 99.9785C124.954 99.991 124.954 100.003 124.954 100.016C124.967 100.095 124.995 100.171 125.038 100.238C125.081 100.306 125.136 100.365 125.202 100.41C172.103 133.249 184.063 137.461 189.248 137.461C192.02 137.461 193.165 136.132 194.183 134.957C197.292 131.352 196.873 126.684 185.793 112.366L184.835 113.123Z" fill="#F8F8F8"/>
<path d="M7.55069 172.016C6.74543 172.285 5.96103 172.562 5.20166 172.85L5.61889 173.981C6.35948 173.706 7.12924 173.432 7.92616 173.167C8.65354 172.923 9.36562 172.696 10.0624 172.487L9.7182 171.334C9.01516 171.538 8.29337 171.768 7.55069 172.016Z" fill="white"/>
<path d="M10.5194 174.795C10.0117 175.138 9.53115 175.519 9.08203 175.936L9.90606 176.82C10.7292 176.046 11.6771 175.416 12.7099 174.957L12.2238 173.854C11.6295 174.117 11.0592 174.432 10.5194 174.795Z" fill="white"/>
</svg>
