<svg width="249" height="205" viewBox="0 0 249 205" fill="none" xmlns="http://www.w3.org/2000/svg">
<path d="M247.081 29.5877C243.956 28.7151 241.465 27.2746 233.677 27.4153C230.921 27.4648 227.707 27.5507 224.112 27.707C222.372 27.0098 220.845 25.8682 219.684 24.3963C218.882 23.3544 217.095 21.0439 217.105 18.4834C217.105 18.0667 217.173 17.1576 216.584 16.4543C216.268 16.0921 215.857 15.8267 215.396 15.6887C214.936 15.5506 214.446 15.5456 213.983 15.6742C213.52 15.8027 213.103 16.0596 212.779 16.4152C212.456 16.7708 212.24 17.2106 212.156 17.6838C211.706 20.4689 212.068 23.3248 213.198 25.9097C213.748 27.1344 214.47 28.2746 215.342 29.296C201.178 47.0708 191.526 68.0093 187.21 90.3238L197.067 92.2383C200.927 72.1723 209.46 53.2979 221.974 37.1442C222.259 37.2939 222.57 37.3893 222.89 37.4255C227.916 37.8344 232.75 39.5396 236.92 42.3747C237.188 42.56 237.491 42.6894 237.811 42.7549C238.379 42.8734 238.971 42.7911 239.486 42.5221C240.001 42.253 240.406 41.8139 240.634 41.2794C240.861 40.745 240.896 40.1483 240.733 39.5909C240.569 39.0335 240.218 38.55 239.738 38.2226C239.272 37.9048 238.767 37.6417 238.282 37.3474C240.222 38.1752 242.069 39.2082 243.789 40.4289C244.073 40.6314 244.396 40.7733 244.737 40.8456C245.3 40.9635 245.886 40.8845 246.398 40.6218C246.91 40.3591 247.316 39.9287 247.548 39.4025C247.781 38.8763 247.826 38.2863 247.675 37.7311C247.525 37.1759 247.188 36.6892 246.722 36.3524C245.283 35.3344 243.769 34.4279 242.192 33.6408C243.38 33.9012 244.576 34.0966 245.742 34.4222C246.383 34.5802 247.059 34.4879 247.634 34.164C248.209 33.8402 248.638 33.3092 248.834 32.6796C249.011 32.0371 248.926 31.3508 248.597 30.7712C248.268 30.1916 247.723 29.7659 247.081 29.5877Z" fill="#FFB900"/>
<path d="M230.171 33.9453C229.879 33.5807 227.527 30.7154 223.818 30.8378C222.402 30.8977 221.033 31.3584 219.869 32.1663L238.272 37.3498C235.779 35.7746 233.041 34.6242 230.171 33.9453Z" fill="#FFB900"/>
<path d="M238.676 36.7115C237.142 35.7455 235.517 34.934 233.823 34.289C232.769 33.8822 231.69 33.5429 230.593 33.2732C229.853 32.4214 227.519 30.0823 224.047 30.0823H223.787C222.229 30.1484 220.721 30.6551 219.439 31.5436C219.286 31.6612 219.183 31.8331 219.153 32.0239C219.123 32.2147 219.166 32.41 219.275 32.5695C219.385 32.729 219.551 32.8406 219.74 32.8814C219.929 32.9222 220.126 32.889 220.291 32.7887C221.333 32.0574 222.564 31.6422 223.836 31.5931C223.904 31.5931 223.974 31.5931 224.042 31.5931C227.168 31.5931 229.194 33.9374 229.577 34.4219C229.681 34.5528 229.826 34.6447 229.989 34.6823C231.106 34.9494 232.205 35.2887 233.279 35.6982C234.88 36.3113 236.417 37.0799 237.868 37.993C237.952 38.0467 238.045 38.0833 238.143 38.1005C238.241 38.1178 238.341 38.1155 238.438 38.0937C238.535 38.0718 238.627 38.031 238.708 37.9735C238.789 37.916 238.858 37.8429 238.91 37.7586C238.964 37.6747 239.001 37.5809 239.019 37.4826C239.036 37.3842 239.034 37.2834 239.012 37.1859C238.99 37.0885 238.949 36.9964 238.892 36.9149C238.834 36.8334 238.76 36.7643 238.676 36.7115Z" fill="#F8F8F8"/>
<path d="M236.568 31.562L242.182 33.6459C240.5 32.5209 238.577 31.8071 236.568 31.562Z" fill="#FFB900"/>
<path d="M242.599 33.0258C240.818 31.8373 238.783 31.085 236.657 30.83C236.46 30.8065 236.261 30.8624 236.104 30.9855C235.948 31.1086 235.847 31.2888 235.824 31.4864C235.8 31.6839 235.856 31.8828 235.979 32.0391C236.102 32.1954 236.282 32.2964 236.48 32.3199C238.371 32.5519 240.181 33.2236 241.765 34.2813C241.889 34.3625 242.034 34.4068 242.182 34.4089C242.344 34.4082 242.501 34.3556 242.63 34.2589C242.76 34.1621 242.855 34.0263 242.902 33.8715C242.948 33.7167 242.944 33.5509 242.89 33.3987C242.835 33.2465 242.733 33.1157 242.599 33.0258Z" fill="#F8F8F8"/>
<path d="M136.281 189.53L107.853 81.0637L98.1367 83.606L122.674 177.259L108.801 194.81L126.464 191.721L126.558 192.072L130.788 190.965L136.328 189.996C136.25 189.856 136.175 189.715 136.099 189.574L136.281 189.53Z" fill="#FFB900"/>
<path d="M94.2343 185.912L72.2446 194.726L89.1185 200.84V200.871L90.9028 201.483L98.5296 204.244C98.5296 204.195 98.5296 204.145 98.5296 204.096L98.6156 204.127L139.748 84.0798L130.253 80.8186L94.2343 185.912Z" fill="#FFB900"/>
<path d="M34.4178 14.1021C35.4826 13.2808 36.4247 12.3116 37.2153 11.2238C38.8517 8.92544 39.7914 6.20431 39.9217 3.38594C39.9368 2.90551 39.8157 2.43063 39.5725 2.01602C39.3294 1.60142 38.9739 1.26399 38.5473 1.04263C38.1206 0.821269 37.6401 0.724997 37.1611 0.764914C36.6821 0.804831 36.2242 0.979309 35.84 1.26823C35.1185 1.83608 34.9961 2.73995 34.9101 3.1463C34.3891 5.65472 32.1672 7.55102 31.167 8.40018C29.7251 9.60223 27.9921 10.4036 26.1424 10.7237C22.6571 9.83021 19.5314 9.08004 16.8458 8.4627C9.25283 6.72009 6.51259 7.61092 3.28004 7.82452C2.61545 7.86735 1.99508 8.17243 1.55544 8.67265C1.11579 9.17287 0.892889 9.82725 0.935718 10.4918C1.00134 11.1475 1.31302 11.754 1.80797 12.189C2.30292 12.624 2.94436 12.8552 3.60303 12.8361C4.81166 12.758 6.02549 12.8049 7.24975 12.8049C5.54401 13.2502 3.8747 13.8249 2.25634 14.5241C1.66339 14.8034 1.20317 15.3035 0.97397 15.9176C0.744765 16.5316 0.764737 17.211 1.02965 17.8105C1.29455 18.41 1.78338 18.8822 2.39173 19.1262C3.00007 19.3702 3.67972 19.3666 4.28549 19.1163C6.22043 18.2779 8.23928 17.6484 10.3078 17.2383C9.78682 17.4284 9.22678 17.5795 8.70322 17.7957C8.16397 18.0151 7.71784 18.4152 7.44126 18.9275C7.16468 19.4397 7.0749 20.0322 7.1873 20.6035C7.29969 21.1747 7.60726 21.689 8.05729 22.0583C8.50733 22.4276 9.07181 22.6289 9.65397 22.6276C9.98042 22.6285 10.3037 22.5638 10.6047 22.4374C15.271 20.5287 20.3519 19.8601 25.3531 20.4969C25.6742 20.5285 25.9983 20.5003 26.309 20.4135C35.2175 38.8018 39.6695 59.0298 39.3044 79.4591L49.3459 79.6206C49.7332 56.8981 44.6149 34.4195 34.4282 14.1047L34.4178 14.1021Z" fill="#FFB900"/>
<path d="M45.405 41.0357C42.9613 31.8094 39.5954 22.8524 35.3583 14.3C36.293 13.5301 37.1239 12.6423 37.8303 11.6587C39.5499 9.24561 40.5366 6.38758 40.6721 3.42756C40.6945 2.99991 40.6323 2.57204 40.4889 2.16852C40.3454 1.765 40.1237 1.39381 39.8364 1.07624C39.5491 0.758678 39.2019 0.501005 38.8147 0.318038C38.4275 0.13507 38.008 0.0304123 37.5802 0.0100691C36.7871 -0.0533848 35.9992 0.184749 35.374 0.676897C34.4909 1.36717 34.2904 2.40127 34.1784 2.99517C33.7069 5.25613 31.5735 7.05605 30.6775 7.82447C29.3789 8.90884 27.8237 9.64161 26.1608 9.95258C22.7407 9.07477 19.6488 8.34022 17.0127 7.72548C10.7091 6.27982 7.6693 6.61323 4.99157 6.90757C4.40028 6.97269 3.82462 7.03521 3.23333 7.07428C2.37014 7.13117 1.56476 7.52814 0.993906 8.17811C0.423048 8.82808 0.133342 9.67796 0.188333 10.5413C0.254533 11.2366 0.534093 11.8944 0.988755 12.4246C1.44342 12.9548 2.05093 13.3315 2.72801 13.5029C2.46753 13.6097 2.20705 13.7165 1.94657 13.8311C1.55417 14.0037 1.19968 14.2521 0.903412 14.5619C0.607149 14.8718 0.374928 15.237 0.220066 15.6368C0.0652034 16.0365 -0.0092751 16.4629 0.000921917 16.8914C0.0111189 17.32 0.105796 17.7423 0.279494 18.1343C0.642838 18.9139 1.29362 19.5228 2.09567 19.8335C2.89772 20.1442 3.78888 20.1327 4.58263 19.8013C5.22688 19.5217 5.88937 19.2613 6.57009 19.0199C6.39387 19.5134 6.33887 20.0421 6.40977 20.5614C6.48068 21.0807 6.67541 21.5753 6.9775 22.0035C7.2796 22.4317 7.68021 22.7811 8.14559 23.0221C8.61098 23.263 9.12748 23.3886 9.65156 23.3881C10.0773 23.3858 10.4982 23.2972 10.8888 23.1277C12.8318 22.3354 14.8556 21.7581 16.9242 21.4059C19.6802 20.9502 22.4875 20.894 25.2595 21.2392C25.4596 21.2601 25.6612 21.2601 25.8612 21.2392C34.5548 39.3891 38.8948 59.3168 38.5362 79.4382C38.5378 79.6329 38.6143 79.8194 38.7498 79.9592C38.888 80.0993 39.0741 80.1821 39.2707 80.191L49.3096 80.3525C49.5078 80.3512 49.6976 80.2726 49.8387 80.1335C49.9797 79.9943 50.061 79.8056 50.065 79.6075C50.2735 66.5895 48.6959 53.6043 45.3764 41.0148L45.405 41.0357ZM48.5959 78.8521L40.06 78.7167C40.3024 58.4212 35.8232 38.3473 26.9761 20.08C26.9024 19.919 26.7728 19.7902 26.6114 19.7174C26.45 19.6446 26.2677 19.6328 26.0983 19.6841C25.8827 19.7413 25.6591 19.7624 25.4366 19.7466C20.3027 19.0977 15.0881 19.785 10.2975 21.7419C9.86699 21.9022 9.39153 21.8922 8.96805 21.7141C8.54457 21.536 8.20494 21.2032 8.01834 20.7833C7.93071 20.5694 7.88613 20.3403 7.88715 20.1091C7.88817 19.8779 7.93477 19.6492 8.02429 19.436C8.11381 19.2229 8.24448 19.0295 8.40884 18.8669C8.5732 18.7043 8.76803 18.5757 8.98214 18.4885C9.30253 18.3557 9.63592 18.2489 9.96933 18.1395L10.5476 17.9493C10.7278 17.8862 10.8772 17.7568 10.9652 17.5874C11.0533 17.418 11.0735 17.2214 11.0217 17.0376C10.9997 16.9445 10.9594 16.8567 10.9033 16.7793C10.8472 16.7018 10.7762 16.6362 10.6946 16.5863C10.613 16.5365 10.5223 16.5032 10.4278 16.4886C10.3332 16.4739 10.2368 16.4782 10.1439 16.5011C8.02502 16.9162 5.95764 17.5608 3.9783 18.4234C3.54941 18.6006 3.06875 18.6059 2.63609 18.4381C2.20343 18.2702 1.85203 17.9422 1.65484 17.5221C1.56005 17.3126 1.508 17.0863 1.50173 16.8564C1.49547 16.6265 1.53513 16.3977 1.61836 16.1833C1.78786 15.7478 2.12324 15.3974 2.55087 15.2091C4.13409 14.5258 5.76675 13.9633 7.43487 13.5264C7.6112 13.4787 7.76418 13.3686 7.86534 13.2166C7.96649 13.0645 8.00892 12.8808 7.9847 12.6998C7.96048 12.5188 7.87128 12.3527 7.7337 12.2326C7.59612 12.1125 7.41955 12.0464 7.2369 12.0469H6.28096C5.36928 12.0469 4.47321 12.0312 3.55632 12.0911C2.80614 12.0911 1.75642 11.4477 1.6887 10.4475C1.66016 9.98218 1.81648 9.52441 2.12368 9.17375C2.27489 8.99927 2.45951 8.85684 2.66664 8.75484C2.87377 8.65284 3.09922 8.59335 3.3297 8.57986C3.94444 8.54079 4.54094 8.47827 5.15306 8.40794C7.70837 8.12923 10.6231 7.81144 16.6741 9.18938C19.3466 9.80151 22.4698 10.5517 25.9498 11.4451C26.0579 11.4684 26.1698 11.4684 26.278 11.4451C28.2546 11.0994 30.1058 10.2407 31.6465 8.95496C32.6728 8.08495 35.0692 6.05059 35.6683 3.16448C35.7412 2.77636 35.8585 2.18768 36.2987 1.84385C36.6448 1.58641 37.0718 1.46164 37.5021 1.4922C37.7314 1.50327 37.9562 1.5596 38.1636 1.65795C38.3711 1.7563 38.557 1.89473 38.7107 2.06526C38.8667 2.23664 38.9873 2.43717 39.0655 2.65532C39.1438 2.87347 39.1781 3.10493 39.1666 3.3364C39.0437 6.00915 38.1519 8.58962 36.5982 10.7679C35.8459 11.7972 34.9514 12.7146 33.9413 13.4925C33.8074 13.6012 33.7145 13.7523 33.678 13.9209C33.6415 14.0895 33.6637 14.2655 33.7407 14.4198C43.7555 34.4 48.8462 56.4858 48.5881 78.8339L48.5959 78.8521Z" fill="white"/>
<path d="M118.842 44.552C63.2297 41.9238 15.3978 81.3552 6.0752 134.806L46.4157 140.578C52.8053 107.672 82.4531 83.5328 116.922 85.1739C154.773 86.9608 184.009 119.096 182.22 156.949C182.17 157.968 182.016 158.955 181.923 159.963L222.276 165.735C222.537 163.464 222.729 161.182 222.839 158.869C225.688 98.5834 179.128 47.4017 118.842 44.552Z" fill="#FFB900"/>
<path d="M112.963 66.9663C116.588 66.9663 119.527 64.0275 119.527 60.4022C119.527 56.777 116.588 53.8381 112.963 53.8381C109.338 53.8381 106.399 56.777 106.399 60.4022C106.399 64.0275 109.338 66.9663 112.963 66.9663Z" fill="white"/>
<path d="M112.963 64.7107C115.343 64.7107 117.271 62.7818 117.271 60.4023C117.271 58.0229 115.343 56.094 112.963 56.094C110.584 56.094 108.655 58.0229 108.655 60.4023C108.655 62.7818 110.584 64.7107 112.963 64.7107Z" fill="#180C47"/>
<path d="M134.994 58.1465C133.696 58.1465 132.427 58.5315 131.347 59.2527C130.268 59.974 129.427 60.9992 128.93 62.1986C128.433 63.398 128.303 64.7179 128.556 65.9912C128.81 67.2645 129.435 68.4341 130.353 69.3521C131.271 70.2701 132.44 70.8953 133.714 71.1485C134.987 71.4018 136.307 71.2718 137.506 70.775C138.706 70.2782 139.731 69.4369 140.452 68.3574C141.173 67.2779 141.558 66.0088 141.558 64.7106C141.558 62.9697 140.867 61.3001 139.636 60.0691C138.405 58.8381 136.735 58.1465 134.994 58.1465Z" fill="white"/>
<path d="M134.994 60.4023C134.142 60.4023 133.309 60.655 132.601 61.1284C131.892 61.6018 131.34 62.2747 131.014 63.062C130.688 63.8492 130.603 64.7155 130.769 65.5512C130.935 66.3869 131.345 67.1546 131.948 67.7572C132.55 68.3597 133.318 68.77 134.154 68.9362C134.99 69.1025 135.856 69.0172 136.643 68.6911C137.43 68.365 138.103 67.8128 138.577 67.1043C139.05 66.3958 139.303 65.5628 139.303 64.7107C139.303 64.1448 139.192 63.5844 138.975 63.0615C138.759 62.5387 138.442 62.0636 138.042 61.6635C137.641 61.2633 137.166 60.946 136.644 60.7296C136.121 60.5132 135.56 60.402 134.994 60.4023Z" fill="#180C47"/>
<path d="M122.757 81.324C122.134 81.3228 121.511 81.288 120.892 81.2199C117.878 80.8682 113.039 79.2194 112.903 76.2707C112.838 74.8485 113.961 73.27 115.406 72.7517C116.605 72.3297 117.727 72.736 118.561 73.0408C119.341 73.3086 120.052 73.7453 120.645 74.3198C120.957 74.6089 121.1 74.7417 121.457 74.7964C121.978 74.885 122.34 74.6974 122.942 74.3484C123.635 73.9577 124.481 73.4758 125.825 73.5982C127.17 73.7206 127.982 74.3354 128.394 74.8251C129.376 75.9972 129.355 77.7268 128.831 78.826C127.816 80.9359 124.81 81.324 122.757 81.324Z" fill="#180C47"/>
<mask id="mask0_103_717" style="mask-type:luminance" maskUnits="userSpaceOnUse" x="112" y="72" width="18" height="10">
<path d="M122.757 81.324C122.134 81.3228 121.511 81.288 120.892 81.2199C117.878 80.8682 113.039 79.2194 112.903 76.2707C112.838 74.8485 113.961 73.27 115.406 72.7517C116.605 72.3297 117.727 72.736 118.561 73.0408C119.341 73.3086 120.052 73.7453 120.645 74.3198C120.957 74.6089 121.1 74.7417 121.457 74.7964C121.978 74.885 122.34 74.6974 122.942 74.3484C123.635 73.9577 124.481 73.4758 125.825 73.5982C127.17 73.7206 127.982 74.3354 128.394 74.8251C129.376 75.9972 129.355 77.7268 128.831 78.826C127.816 80.9359 124.81 81.324 122.757 81.324Z" fill="white"/>
</mask>
<g mask="url(#mask0_103_717)">
<path d="M125.74 74.3511C123.656 74.1375 123.007 75.8202 121.33 75.5467C120.129 75.3487 120.223 74.4475 118.303 73.7494C117.506 73.4603 116.599 73.1295 115.662 73.4655C114.544 73.8666 113.601 75.1273 113.653 76.2422C113.763 78.5084 117.977 80.126 120.981 80.4724C121.533 80.5349 126.904 81.1001 128.147 78.5058C128.576 77.6019 128.563 76.2057 127.813 75.3123C127.128 74.4944 126.057 74.385 125.74 74.3511Z" fill="#180C47"/>
<path d="M120.261 77.8443C118.519 77.899 116.576 79.0347 116.669 79.9438C116.844 81.6629 124.314 83.0695 124.981 81.6916C125.427 80.7695 123.22 77.7479 120.261 77.8443Z" fill="#FFC5E1"/>
</g>
<path d="M120.306 37.2067C118.626 36.2155 116.649 35.8547 114.727 36.1888C112.806 36.5229 111.066 37.5301 109.819 39.0301C109.714 39.1567 109.635 39.3028 109.586 39.4601C109.538 39.6173 109.521 39.7826 109.536 39.9464C109.552 40.1102 109.599 40.2694 109.677 40.4148C109.754 40.5601 109.859 40.6888 109.986 40.7935C110.209 40.9834 110.493 41.0861 110.785 41.0826C110.97 41.082 111.152 41.0409 111.318 40.9621C111.485 40.8833 111.632 40.7689 111.749 40.6268C112.617 39.5847 113.828 38.886 115.165 38.6564C116.502 38.4268 117.877 38.6812 119.043 39.3739C119.329 39.5314 119.666 39.5711 119.982 39.4844C120.297 39.3978 120.567 39.1916 120.733 38.9097C120.899 38.6278 120.948 38.2923 120.871 37.9744C120.794 37.6564 120.596 37.3811 120.319 37.2067H120.306Z" fill="#180C47"/>
<path d="M135.425 36.2013C133.484 35.846 131.481 36.2031 129.783 37.2068C129.511 37.3819 129.317 37.6551 129.242 37.9695C129.166 38.2838 129.215 38.6152 129.378 38.8945C129.541 39.1738 129.805 39.3795 130.116 39.4688C130.426 39.5582 130.76 39.5242 131.046 39.374C132.213 38.6839 133.587 38.431 134.923 38.6605C136.259 38.89 137.47 39.587 138.339 40.6269C138.457 40.7691 138.605 40.8837 138.772 40.9625C138.939 41.0413 139.121 41.0823 139.306 41.0827C139.598 41.0854 139.882 40.9828 140.105 40.7936C140.361 40.5818 140.522 40.2771 140.554 39.9464C140.585 39.6157 140.484 39.2861 140.272 39.0301C139.032 37.5552 137.319 36.5556 135.425 36.2013Z" fill="#180C47"/>
<path d="M25.7855 13.8493C22.1831 12.9637 19.2735 15.2793 18.9271 15.5789C15.9787 15.6507 13.0627 16.2105 10.2974 17.2355L29.3749 15.9618C28.4023 14.9323 27.1577 14.1998 25.7855 13.8493Z" fill="#FFB900"/>
<path d="M25.9657 13.1202C22.4909 12.2658 19.5787 14.1386 18.6566 14.8367C17.5222 14.8691 16.3911 14.9753 15.2704 15.1545C13.4788 15.4392 11.7198 15.9007 10.0192 16.5324C9.92643 16.5669 9.84145 16.6193 9.76907 16.6868C9.6967 16.7542 9.63838 16.8353 9.59747 16.9254C9.55655 17.0154 9.53384 17.1127 9.53066 17.2115C9.52748 17.3104 9.54388 17.4089 9.57893 17.5014C9.63311 17.6452 9.72956 17.7691 9.85556 17.857C9.98156 17.9449 10.1312 17.9926 10.2849 17.9937C10.374 17.9936 10.4624 17.9769 10.5453 17.9442C12.1474 17.3458 13.8054 16.9095 15.4944 16.6418C16.6285 16.4591 17.7739 16.3556 18.9223 16.3319C19.0902 16.3264 19.2519 16.2671 19.3834 16.1626C19.8575 15.7588 22.4232 13.8182 25.5802 14.5788C26.8153 14.8902 27.9347 15.5503 28.805 16.4803C28.8724 16.5535 28.9539 16.6123 29.0445 16.6532C29.1352 16.6942 29.2332 16.7164 29.3327 16.7186C29.4321 16.7208 29.531 16.7029 29.6234 16.666C29.7158 16.6291 29.7997 16.5739 29.8703 16.5038C30.0141 16.3658 30.0973 16.1765 30.1017 15.9772C30.1061 15.778 30.0313 15.5852 29.8938 15.441C28.8311 14.3104 27.4688 13.5054 25.9657 13.1202Z" fill="white"/>
<path d="M10.9177 11.927C9.65545 12.0384 8.4163 12.3342 7.23975 12.8048L13.1604 11.927C12.4142 11.8629 11.6639 11.8629 10.9177 11.927Z" fill="#FFB900"/>
<path d="M13.2231 11.1741C12.4336 11.1037 11.6395 11.1037 10.8501 11.1741C9.51479 11.2911 8.20377 11.6027 6.95855 12.0988C6.79612 12.1642 6.66144 12.284 6.57759 12.4378C6.49373 12.5915 6.46591 12.7695 6.49883 12.9415C6.53175 13.1135 6.62337 13.2687 6.75807 13.3806C6.89276 13.4925 7.06215 13.5541 7.23725 13.5549C7.33334 13.554 7.42856 13.5364 7.51858 13.5028C8.62517 13.0598 9.7905 12.7807 10.9777 12.6745C11.6824 12.6146 12.3908 12.6146 13.0954 12.6745H13.1606C13.3548 12.6745 13.5415 12.5994 13.6816 12.4649C13.8218 12.3305 13.9046 12.147 13.9126 11.953C13.9207 11.7589 13.8535 11.5693 13.725 11.4236C13.5964 11.278 13.4166 11.1876 13.2231 11.1715V11.1741Z" fill="white"/>
<path d="M125.891 72.8507C124.297 72.7179 123.302 73.2779 122.562 73.6999C121.973 74.0359 121.796 74.1062 121.567 74.0515C121.444 74.0333 121.439 74.0333 121.15 73.7676C120.489 73.1246 119.694 72.6354 118.821 72.3349C117.938 72.0119 116.605 71.5379 115.154 72.0406C113.393 72.6788 112.07 74.5516 112.153 76.3073C112.309 79.7326 117.415 81.5716 120.817 81.9701C121.461 82.0398 122.109 82.0754 122.757 82.0769C125.198 82.0769 128.347 81.5559 129.509 79.1517C130.137 77.8311 130.15 75.7655 128.97 74.3406C128.464 73.7441 127.527 73.0018 125.891 72.8507ZM128.147 78.5031C127.287 80.303 124.401 80.5661 122.757 80.5661C122.165 80.5665 121.573 80.5343 120.983 80.4697C118.089 80.1311 113.76 78.5526 113.654 76.2395C113.604 75.1403 114.526 73.8692 115.659 73.4628C115.926 73.3713 116.206 73.3255 116.488 73.3274C117.115 73.3618 117.732 73.5036 118.311 73.7467C118.996 73.9823 119.62 74.3696 120.134 74.8798C120.444 75.23 120.866 75.462 121.327 75.5362C122.109 75.7003 122.739 75.3357 123.312 75.0153C123.969 74.6428 124.641 74.2651 125.753 74.3589C126.865 74.4526 127.493 74.9371 127.813 75.32C128.582 76.2291 128.558 77.6409 128.147 78.5031Z" fill="#180C47"/>
</svg>
