<svg width="140" height="159" viewBox="0 0 140 159" fill="none" xmlns="http://www.w3.org/2000/svg">
<path d="M137.395 134.595C137.306 133.888 136.941 133.245 136.379 132.807C135.817 132.368 135.105 132.17 134.398 132.255L104.648 135.844C103.939 135.93 103.293 136.294 102.852 136.856C102.411 137.418 102.211 138.131 102.297 138.84L104.432 156.549C104.521 157.255 104.886 157.898 105.448 158.337C106.009 158.775 106.722 158.973 107.429 158.888L137.179 155.299C137.888 155.214 138.534 154.85 138.975 154.289C139.416 153.728 139.615 153.014 139.53 152.305L137.395 134.595Z" fill="#FF2340"/>
<path d="M82.1206 68.6821L73.3672 69.7371L82.5884 146.184L68.3354 158.907L93.0986 158.879L92.6004 155.562L82.1206 68.6821Z" fill="#FFC5E1"/>
<path d="M70.4364 157.77L58.7402 60.7871L49.9867 61.8421L60.1578 146.183L45.9048 158.907H70.4505C70.3288 158.542 70.2048 158.177 70.0855 157.812L70.4364 157.77Z" fill="#FFC5E1"/>
<path d="M130.501 135.371C128.3 133.553 125.706 132.271 122.924 131.629C119.233 115.811 116.55 99.7755 114.891 83.618C113.679 71.7137 113.02 59.6104 112.945 47.6499L104.124 47.7107C104.208 59.9496 104.879 72.3289 106.114 84.5093C107.733 100.221 110.298 115.821 113.796 131.224L111.078 131.416C109.822 131.757 109.003 132.763 109.034 133.769C109.075 134.327 109.326 134.848 109.735 135.229L112.814 134.967C113.125 135.346 113.593 135.902 114.166 136.604C115.852 138.623 116.117 138.873 116.863 139.821C117.676 140.804 118.416 141.846 119.076 142.939C120.373 145.129 121.298 147.52 121.813 150.013C121.915 150.509 122.185 150.955 122.578 151.276C122.971 151.596 123.463 151.771 123.97 151.772C124.12 151.772 124.271 151.757 124.419 151.727C124.991 151.609 125.493 151.267 125.814 150.779C126.135 150.29 126.249 149.694 126.131 149.121C125.529 146.241 124.466 143.476 122.982 140.934C123.548 141.49 124.074 142.085 124.557 142.714C126.064 144.821 127.121 147.215 127.663 149.748C127.716 150.04 127.827 150.317 127.99 150.564C128.152 150.812 128.363 151.024 128.609 151.188C128.855 151.352 129.132 151.465 129.423 151.52C129.714 151.576 130.012 151.572 130.302 151.509C130.591 151.446 130.864 151.326 131.106 151.155C131.348 150.984 131.553 150.767 131.709 150.515C131.865 150.263 131.968 149.983 132.013 149.691C132.059 149.398 132.045 149.1 131.972 148.813C131.302 145.691 129.997 142.74 128.138 140.143C127.518 139.278 126.836 138.458 126.098 137.69C126.655 138.005 127.186 138.361 127.689 138.756C129.286 140.087 130.565 141.758 131.432 143.648C131.609 144.03 131.891 144.353 132.246 144.58C132.601 144.807 133.013 144.927 133.434 144.927C133.754 144.928 134.069 144.857 134.358 144.721C134.621 144.6 134.857 144.428 135.053 144.215C135.249 144.002 135.402 143.752 135.501 143.481C135.601 143.209 135.646 142.92 135.634 142.631C135.622 142.342 135.554 142.058 135.432 141.795C134.289 139.312 132.604 137.117 130.501 135.371Z" fill="#FFC5E1"/>
<path d="M130.922 134.862C128.753 133.06 126.209 131.765 123.476 131.072C119.838 115.41 117.19 99.5338 115.548 83.5386C114.339 71.6576 113.677 59.5801 113.607 47.6336C113.604 47.4589 113.533 47.292 113.409 47.1691C113.285 47.0461 113.117 46.9769 112.942 46.9763L104.124 47.0371C104.036 47.0371 103.95 47.0545 103.87 47.0882C103.789 47.122 103.717 47.1714 103.656 47.2336C103.533 47.3583 103.464 47.5264 103.464 47.7015C103.548 59.9802 104.222 72.3805 105.457 84.5609C107.056 100.044 109.57 115.418 112.985 130.604L111.034 130.742C109.375 131.18 108.334 132.417 108.372 133.783C108.416 134.513 108.738 135.199 109.272 135.699C109.341 135.764 109.423 135.813 109.511 135.845C109.6 135.877 109.695 135.89 109.789 135.884L112.519 135.65C112.816 136.01 113.2 136.478 113.651 137.018C114.405 137.919 114.879 138.471 115.233 138.89C115.67 139.4 115.934 139.704 116.341 140.223C117.134 141.184 117.857 142.2 118.505 143.264C119.763 145.392 120.66 147.714 121.16 150.134C121.295 150.78 121.647 151.359 122.158 151.776C122.669 152.192 123.308 152.419 123.967 152.42C124.161 152.42 124.353 152.401 124.543 152.361C125.287 152.208 125.94 151.765 126.358 151.13C126.777 150.496 126.926 149.721 126.774 148.977C126.753 148.86 126.728 148.743 126.702 148.628C126.817 149.035 126.936 149.447 127.015 149.868C127.195 150.592 127.649 151.219 128.283 151.613C128.917 152.008 129.679 152.14 130.409 151.981C131.138 151.823 131.777 151.386 132.19 150.764C132.602 150.141 132.756 149.383 132.618 148.649C132.335 147.339 131.944 146.055 131.448 144.81C131.87 145.196 132.395 145.45 132.958 145.541C133.522 145.633 134.1 145.559 134.623 145.327C134.965 145.17 135.273 144.947 135.528 144.671C135.784 144.394 135.983 144.07 136.113 143.717C136.244 143.363 136.303 142.988 136.288 142.612C136.273 142.235 136.184 141.866 136.026 141.524C134.844 138.949 133.1 136.673 130.922 134.862ZM134.861 143.255C134.792 143.445 134.686 143.62 134.548 143.769C134.411 143.918 134.245 144.038 134.061 144.123C133.689 144.287 133.268 144.301 132.887 144.161C132.505 144.022 132.192 143.74 132.014 143.374C131.108 141.396 129.771 139.645 128.101 138.249C127.659 137.892 127.189 137.571 126.697 137.287L126.435 137.128C126.297 137.047 126.134 137.017 125.976 137.044C125.818 137.072 125.675 137.155 125.572 137.278C125.472 137.404 125.422 137.562 125.429 137.723C125.436 137.884 125.501 138.036 125.612 138.153C126.33 138.883 126.993 139.665 127.598 140.492C129.404 143.014 130.673 145.881 131.327 148.913C131.413 149.314 131.336 149.732 131.115 150.076C130.893 150.421 130.543 150.663 130.143 150.75C129.746 150.817 129.339 150.734 129 150.518C128.66 150.302 128.413 149.968 128.307 149.58C127.749 146.957 126.653 144.479 125.09 142.3C124.69 141.763 124.251 141.256 123.778 140.782L123.462 140.452C123.4 140.386 123.326 140.334 123.243 140.298C123.16 140.262 123.07 140.244 122.98 140.244C122.838 140.245 122.699 140.291 122.585 140.375C122.456 140.473 122.367 140.614 122.334 140.772C122.301 140.931 122.327 141.095 122.407 141.236C123.857 143.719 124.896 146.421 125.483 149.236C125.563 149.637 125.482 150.053 125.257 150.395C125.032 150.736 124.681 150.975 124.281 151.058C123.881 151.13 123.469 151.045 123.13 150.823C122.791 150.6 122.55 150.256 122.456 149.861C121.928 147.297 120.979 144.838 119.649 142.583C118.984 141.49 118.244 140.444 117.434 139.454C116.966 138.857 116.695 138.541 116.245 138.017C115.892 137.606 115.424 137.058 114.673 136.16C114.103 135.477 113.642 134.911 113.331 134.522C113.265 134.437 113.178 134.37 113.078 134.329C112.978 134.288 112.869 134.274 112.762 134.288L110.011 134.522C109.829 134.295 109.722 134.018 109.705 133.727C109.679 133 110.339 132.286 111.261 132.033L113.852 131.865C113.947 131.858 114.04 131.83 114.123 131.784C114.206 131.738 114.279 131.674 114.335 131.598C114.392 131.521 114.432 131.433 114.452 131.34C114.472 131.247 114.472 131.151 114.451 131.058C110.961 115.681 108.4 100.108 106.781 84.4229C105.572 72.4928 104.91 60.3685 104.8 48.3471L112.297 48.2956C112.397 60.0667 113.05 71.9641 114.241 83.665C115.906 99.8502 118.594 115.914 122.288 131.76C122.317 131.88 122.379 131.989 122.467 132.076C122.554 132.163 122.664 132.224 122.784 132.253C125.41 132.858 127.862 134.058 129.949 135.762C132.037 137.465 133.705 139.627 134.824 142.078C134.907 142.262 134.953 142.461 134.96 142.663C134.966 142.865 134.933 143.066 134.861 143.255Z" fill="white"/>
<path d="M99.2463 9.12029C64.3565 -8.8521 21.9882 3.16224 1.38884 35.6987C1.04175 36.235 0.810412 36.8377 0.709509 37.4685C0.608606 38.0992 0.640409 38.7441 0.802884 39.3618C0.965359 39.9796 1.25492 40.5567 1.65309 41.0561C2.05125 41.5556 2.54923 41.9665 3.11523 42.2626L128.082 106.636C130.405 107.834 133.336 106.87 134.33 104.449C149.023 68.7358 134.206 27.1278 99.2463 9.12029Z" fill="#FFC5E1"/>
<path d="M84.1254 47.6033H76.7568V48.9249H84.1254V47.6033Z" fill="#180C47"/>
<path d="M91.3349 46.0826C93.7612 46.0826 95.728 44.1157 95.728 41.6895C95.728 39.2632 93.7612 37.2964 91.3349 37.2964C88.9087 37.2964 86.9419 39.2632 86.9419 41.6895C86.9419 44.1157 88.9087 46.0826 91.3349 46.0826Z" fill="white"/>
<mask id="mask0_103_757" style="mask-type:luminance" maskUnits="userSpaceOnUse" x="86" y="37" width="10" height="10">
<path d="M91.3349 46.0826C93.7612 46.0826 95.728 44.1157 95.728 41.6895C95.728 39.2632 93.7612 37.2964 91.3349 37.2964C88.9087 37.2964 86.9419 39.2632 86.9419 41.6895C86.9419 44.1157 88.9087 46.0826 91.3349 46.0826Z" fill="white"/>
</mask>
<g mask="url(#mask0_103_757)">
<path d="M90.2915 45.3294C92.7178 45.3294 94.6846 43.3626 94.6846 40.9363C94.6846 38.5101 92.7178 36.5432 90.2915 36.5432C87.8653 36.5432 85.8984 38.5101 85.8984 40.9363C85.8984 43.3626 87.8653 45.3294 90.2915 45.3294Z" fill="#180C47"/>
</g>
<path d="M96.7808 32.4029L86.722 28.0308C86.5885 27.9667 86.4435 27.9301 86.2955 27.9233C86.1475 27.9165 85.9997 27.9396 85.8609 27.9912C85.722 28.0428 85.595 28.1219 85.4874 28.2237C85.3799 28.3256 85.2939 28.448 85.2348 28.5838C85.1756 28.7196 85.1444 28.8659 85.1431 29.0141C85.1418 29.1622 85.1703 29.3091 85.2271 29.4459C85.2838 29.5827 85.3675 29.7067 85.4733 29.8104C85.579 29.9142 85.7046 29.9955 85.8425 30.0496L95.9012 34.4263C96.0402 34.486 96.1898 34.5171 96.341 34.5175C96.5914 34.5137 96.8329 34.4246 97.0259 34.2651C97.2189 34.1056 97.3518 33.8852 97.4027 33.64C97.4536 33.3949 97.4195 33.1397 97.3061 32.9166C97.1926 32.6934 97.0065 32.5155 96.7784 32.4122L96.7808 32.4029Z" fill="#180C47"/>
<path d="M71.7486 44.9832C74.1748 44.9832 76.1417 43.0163 76.1417 40.5901C76.1417 38.1639 74.1748 36.197 71.7486 36.197C69.3223 36.197 67.3555 38.1639 67.3555 40.5901C67.3555 43.0163 69.3223 44.9832 71.7486 44.9832Z" fill="white"/>
<mask id="mask1_103_757" style="mask-type:luminance" maskUnits="userSpaceOnUse" x="67" y="36" width="10" height="9">
<path d="M71.7486 44.9832C74.1748 44.9832 76.1417 43.0163 76.1417 40.5901C76.1417 38.1639 74.1748 36.197 71.7486 36.197C69.3223 36.197 67.3555 38.1639 67.3555 40.5901C67.3555 43.0163 69.3223 44.9832 71.7486 44.9832Z" fill="white"/>
</mask>
<g mask="url(#mask1_103_757)">
<path d="M70.7033 35.4436C69.8341 35.4445 68.9848 35.7031 68.2626 36.1867C67.5404 36.6702 66.9777 37.357 66.6457 38.1602C66.3138 38.9635 66.2274 39.8471 66.3975 40.6994C66.5677 41.5517 66.9866 42.3345 67.6015 42.9487C68.2164 43.563 68.9996 43.9811 69.8521 44.1504C70.7046 44.3196 71.5882 44.2323 72.3911 43.8995C73.194 43.5666 73.8802 43.0033 74.3629 42.2805C74.8457 41.5578 75.1034 40.7082 75.1034 39.8391C75.1037 39.2614 74.9901 38.6893 74.769 38.1555C74.5479 37.6218 74.2237 37.1369 73.815 36.7287C73.4063 36.3204 72.9211 35.9967 72.3872 35.7762C71.8532 35.5557 71.281 35.4427 70.7033 35.4436Z" fill="#180C47"/>
</g>
<path d="M77.2081 31.301L67.1494 26.9337C67.0155 26.8687 66.8698 26.8315 66.7211 26.8243C66.5725 26.8171 66.4238 26.84 66.2842 26.8917C66.1446 26.9434 66.0169 27.0228 65.9088 27.1251C65.8007 27.2273 65.7143 27.3504 65.655 27.487C65.5957 27.6235 65.5645 27.7706 65.5635 27.9194C65.5625 28.0683 65.5916 28.2158 65.649 28.3531C65.7064 28.4905 65.791 28.6148 65.8977 28.7185C66.0044 28.8223 66.131 28.9035 66.2698 28.9571L76.3426 33.3245C76.4805 33.385 76.6295 33.4161 76.78 33.4157C77.0306 33.4123 77.2725 33.3237 77.4659 33.1644C77.6592 33.005 77.7925 32.7846 77.8438 32.5393C77.895 32.2941 77.8611 32.0386 77.7477 31.8152C77.6342 31.5918 77.4481 31.4138 77.2198 31.3104L77.2081 31.301Z" fill="#180C47"/>
<path d="M29.3452 75.3045C27.7522 77.3677 26.1522 79.2813 24.5685 81.0848C23.9814 77.8099 23.7638 68.7266 28.1406 44.3283C28.3217 44.2487 28.4904 44.1431 28.6411 44.0149C29.6938 43.0254 30.6061 42.1926 31.3968 41.4885L31.3266 41.6031C31.1767 41.851 31.0771 42.126 31.0334 42.4124C30.9898 42.6988 31.003 42.991 31.0723 43.2723C31.2123 43.8404 31.5722 44.3297 32.0728 44.6324C32.5735 44.9352 33.174 45.0266 33.7421 44.8867C34.3102 44.7468 34.7994 44.3869 35.1021 43.8862C38.4706 38.3469 39.6426 35.5959 37.6753 33.9538C37.2329 33.5622 36.6659 33.3401 36.0752 33.3269C36.1641 33.2005 37.0764 31.8812 36.5431 30.473C36.3448 29.9612 36.0008 29.5188 35.5536 29.2004C35.0934 28.8815 34.5463 28.7116 33.9863 28.7139C33.5372 28.7512 33.0959 28.8536 32.6763 29.018C34.9808 27.7698 37.5212 27.0184 40.1339 26.8121C40.7149 26.7712 41.2562 26.5025 41.64 26.0644C42.0238 25.6262 42.219 25.0542 42.183 24.4728C42.134 23.895 41.8629 23.3586 41.4267 22.9765C40.9905 22.5943 40.4231 22.3962 39.8438 22.4237C37.1794 22.6085 30.4143 23.6448 25.1954 29.3268C23.8061 30.8453 22.6497 32.5615 21.7638 34.4193L21.31 32.4613C21.1674 31.9028 20.8119 31.4223 20.3195 31.1225C19.8271 30.8228 19.237 30.7277 18.6754 30.8577C18.1138 30.9876 17.6253 31.3322 17.3146 31.8177C17.0039 32.3033 16.8955 32.8911 17.0128 33.4555L18.814 41.2241C18.9244 41.6908 19.1849 42.1083 19.5556 42.4125C12.849 79.5269 15.111 88.3013 21.3006 90.4815C22.0679 90.7514 22.8734 90.8967 23.6866 90.912C31.0342 91.0804 37.2098 80.9468 45.7808 66.5347C46.2088 65.8142 46.5434 65.2388 46.7001 64.9721L39.0859 60.5276C36.2215 65.695 32.9651 70.6351 29.3452 75.3045Z" fill="#FFC5E1"/>
<path d="M45.1889 66.1908C37.2051 79.6181 30.8845 90.2476 23.8387 90.2476H23.6796C22.9356 90.2355 22.1986 90.1028 21.4971 89.8546C15.7706 87.8359 13.5437 79.2157 20.1848 42.5271C20.205 42.4112 20.1939 42.2921 20.1528 42.1819C20.1117 42.0717 20.042 41.9745 19.9508 41.9002C19.6897 41.6871 19.5049 41.3948 19.4245 41.0674L17.6303 33.3035C17.5395 32.9024 17.6117 32.4817 17.831 32.1338C18.0503 31.7859 18.3989 31.5394 18.7999 31.4485C19.1993 31.3678 19.6144 31.4444 19.9587 31.6623C20.303 31.8802 20.5499 32.2226 20.6479 32.6181L21.1158 34.576C21.1474 34.7089 21.2193 34.8288 21.3217 34.9193C21.4241 35.0097 21.552 35.0662 21.6878 35.0811C21.8237 35.0959 21.9607 35.0684 22.0803 35.0023C22.1998 34.9361 22.296 34.8346 22.3556 34.7117C23.2118 32.9127 24.3304 31.2509 25.6749 29.7806C30.7277 24.281 37.294 23.2681 39.8858 23.088H39.9584C40.3529 23.0877 40.7331 23.2352 41.0242 23.5016C41.3152 23.7679 41.4958 24.1337 41.5303 24.5266C41.5535 24.9338 41.4157 25.3337 41.1465 25.6401C40.8773 25.9465 40.4985 26.1347 40.0917 26.1641C37.3883 26.3828 34.7597 27.1602 32.3722 28.4472C32.229 28.5275 32.1204 28.6578 32.0673 28.8132C32.0142 28.9687 32.0203 29.1382 32.0845 29.2893C32.1514 29.4388 32.2705 29.5587 32.4195 29.6268C32.5684 29.6948 32.7371 29.7062 32.8939 29.6589C33.252 29.5185 33.6272 29.4265 34.0097 29.3853C34.4276 29.3874 34.8352 29.5153 35.1793 29.7525C35.5179 29.9945 35.7781 30.3303 35.9279 30.7186C36.3372 31.79 35.6237 32.8403 35.5418 32.9573C35.4709 33.0551 35.4282 33.1707 35.4187 33.2912C35.4091 33.4117 35.4329 33.5325 35.4876 33.6404C35.5422 33.7482 35.6256 33.8389 35.7284 33.9024C35.8313 33.966 35.9496 33.9999 36.0705 34.0006C36.5101 34.0083 36.9321 34.1744 37.2589 34.4684C38.6881 35.6567 38.0565 37.7784 34.55 43.5447C34.3311 43.8875 33.9884 44.1328 33.5932 44.2295C33.1981 44.3262 32.7809 44.267 32.4284 44.064C32.0794 43.8504 31.8291 43.5073 31.7322 43.1098C31.6353 42.7122 31.6998 42.2925 31.9114 41.9423C31.9995 41.8014 32.0368 41.6346 32.0172 41.4695C31.9977 41.3045 31.9223 41.1511 31.8037 41.0347C31.6961 40.9253 31.5515 40.8602 31.3983 40.852C31.2451 40.8437 31.0944 40.893 30.9757 40.9902C30.1804 41.692 29.268 42.5341 28.2084 43.5306C28.1287 43.5948 28.0415 43.649 27.9487 43.692C27.8442 43.7445 27.7514 43.8176 27.6758 43.9068C27.6002 43.996 27.5435 44.0996 27.5089 44.2114C23.0644 68.9418 23.3638 78.0017 23.9369 81.1971C23.9571 81.3126 24.0075 81.4207 24.0832 81.5103C24.1588 81.5999 24.2569 81.6678 24.3674 81.707C24.4776 81.7466 24.5965 81.7555 24.7114 81.7329C24.8264 81.7102 24.933 81.6568 25.02 81.5784C27.3732 79.5128 31.8201 74.2402 39.6543 60.8457L38.508 60.1767C31.4903 72.1887 27.2797 77.4379 25.0691 79.707C24.6808 75.7139 24.8913 66.3452 28.7534 44.7564C28.8874 44.6827 29.0109 44.5915 29.1206 44.485C29.5885 44.0523 30.0166 43.6499 30.426 43.2733C30.4963 43.6678 30.6498 44.0427 30.876 44.3734C31.1022 44.7041 31.3962 44.983 31.7383 45.1915C32.3926 45.5681 33.1666 45.6787 33.9003 45.5007C34.6339 45.3226 35.271 44.8694 35.6799 44.2347C38.8004 39.0884 40.6555 35.5796 38.1034 33.4485C37.8002 33.192 37.4552 32.9894 37.0834 32.8497C37.4416 32.0233 37.4718 31.0915 37.1677 30.2437C36.9226 29.608 36.4964 29.0582 35.9419 28.6624C35.8293 28.5864 35.713 28.5162 35.5934 28.4519C37.0761 27.9288 38.6204 27.6002 40.1876 27.4741C40.563 27.4474 40.9294 27.347 41.266 27.1786C41.6026 27.0103 41.9027 26.7773 42.1493 26.4929C42.3958 26.2086 42.584 25.8785 42.7029 25.5214C42.8219 25.1644 42.8694 24.7874 42.8427 24.412C42.8159 24.0366 42.7155 23.6702 42.5472 23.3336C42.3788 22.997 42.1459 22.6969 41.8615 22.4503C41.5772 22.2038 41.2471 22.0157 40.89 21.8967C40.533 21.7777 40.156 21.7303 39.7806 21.757C37.0156 21.9465 30.0493 23.0249 24.6737 28.873C23.6467 29.9972 22.7433 31.2285 21.9789 32.5456L21.9228 32.3116C21.7473 31.575 21.2876 30.9377 20.644 30.5387C20.0004 30.1398 19.2251 30.0115 18.4873 30.182C17.7495 30.3525 17.1091 30.8078 16.7058 31.4487C16.3024 32.0896 16.1689 32.864 16.3344 33.6029L18.1332 41.3739C18.2468 41.8486 18.4795 42.2866 18.8093 42.6464C12.0606 80.1257 14.5214 88.809 21.0479 91.1084C21.881 91.4001 22.755 91.558 23.6375 91.5763H23.8293C31.6283 91.5763 38.1174 80.6637 46.3164 66.8739C46.7468 66.1511 47.0837 65.5733 47.2381 65.3019L46.0918 64.6446C45.9468 64.9043 45.6123 65.4774 45.1889 66.1908Z" fill="#FFF8E5"/>
<path d="M109.342 14.2106L108.025 14.3415L108.088 14.9989C108.671 20.9335 107.087 24.9711 105.7 25.2494C104.201 25.5839 101.005 22.0844 99.4122 15.972L98.1117 16.2059C98.7807 22.723 97.7678 23.2798 97.6438 23.3242C97.3654 23.4131 95.6297 23.4435 89.4377 12.6573L88.226 13.1556C90.4881 21.6564 89.7161 22.6669 89.6296 22.7464H89.5734C88.5746 22.7464 84.5698 18.468 82.5884 12.7579C81.4687 9.47882 81.1024 5.98952 81.517 2.54943L81.5896 1.8921L80.2726 1.74707L80.2001 2.40205C79.7667 6.03895 80.156 9.72675 81.3393 13.193C83.1358 18.3627 86.7359 22.971 88.8412 23.8716C89.05 23.9776 89.2789 24.038 89.5128 24.0489C89.7467 24.0598 89.9803 24.0209 90.198 23.9348C91.0542 23.5371 91.6413 22.3441 90.5372 17.0644C95.0542 24.3161 96.8906 24.9898 98.1 24.55C99.0848 24.1968 99.5947 22.9546 99.6625 20.5733C101.33 24.171 103.585 26.5664 105.511 26.5664C105.659 26.5667 105.807 26.5526 105.953 26.5243C108.477 26.012 109.993 20.8844 109.403 14.8468L109.342 14.2106Z" fill="#180C47"/>
<path d="M122.59 139.156C122.332 138.843 122.059 138.544 121.771 138.258C121.647 138.134 121.479 138.064 121.303 138.064C121.128 138.064 120.959 138.134 120.835 138.258C120.711 138.382 120.642 138.55 120.642 138.726C120.642 138.901 120.711 139.07 120.835 139.194C121.09 139.447 121.331 139.713 121.558 139.991C122.002 140.528 122.394 141.105 122.728 141.715C122.785 141.819 122.87 141.906 122.972 141.967C123.075 142.027 123.191 142.059 123.31 142.059C123.421 142.059 123.53 142.032 123.628 141.98C123.781 141.894 123.895 141.752 123.944 141.585C123.993 141.417 123.975 141.236 123.893 141.081C123.518 140.401 123.082 139.757 122.59 139.156Z" fill="white"/>
<path d="M35.0528 37.0859C34.9093 36.9855 34.7319 36.946 34.5593 36.9757C34.3867 37.0055 34.2328 37.1023 34.1312 37.2449C33.7125 37.8438 33.2352 38.4731 32.7019 39.1163C32.1147 39.8181 31.4948 40.4988 30.8632 41.1281C30.8018 41.1895 30.7531 41.2625 30.7198 41.3427C30.6866 41.423 30.6694 41.5091 30.6694 41.5959C30.6694 41.6828 30.6866 41.7689 30.7198 41.8491C30.7531 41.9294 30.8018 42.0024 30.8632 42.0638C30.9246 42.1252 30.9976 42.174 31.0779 42.2072C31.1582 42.2405 31.2442 42.2576 31.3311 42.2576C31.4179 42.2576 31.504 42.2405 31.5843 42.2072C31.6646 42.174 31.7375 42.1252 31.7989 42.0638C32.4632 41.4018 33.1136 40.693 33.7242 39.9585C34.2856 39.2824 34.7791 38.6251 35.2236 38.0005C35.3206 37.8561 35.357 37.6793 35.3251 37.5083C35.2931 37.3373 35.1954 37.1856 35.0528 37.0859Z" fill="#FFF8E5"/>
<path d="M36.1732 32.6835C35.4204 32.5537 34.6466 32.628 33.9322 32.8987C33.3862 33.109 32.8881 33.4272 32.4679 33.8344C32.3729 33.9266 32.3079 34.0451 32.2809 34.1747C32.254 34.3042 32.2665 34.4389 32.3169 34.5613C32.3672 34.6836 32.4531 34.7881 32.5634 34.8612C32.6737 34.9343 32.8034 34.9726 32.9357 34.9713C33.022 34.9728 33.1078 34.9573 33.1881 34.9256C33.2684 34.8939 33.3416 34.8466 33.4036 34.7865C33.6942 34.5052 34.0388 34.2856 34.4165 34.1409C34.9109 33.9607 35.4431 33.91 35.9627 33.9935C36.0485 34.0109 36.137 34.0106 36.2227 33.9925C36.3084 33.9744 36.3895 33.939 36.461 33.8884C36.5324 33.8377 36.5927 33.773 36.6382 33.6981C36.6836 33.6233 36.7133 33.5399 36.7253 33.4531C36.7406 33.3662 36.7384 33.2771 36.7189 33.1911C36.6993 33.1051 36.6627 33.0238 36.6113 32.9521C36.5598 32.8804 36.4946 32.8197 36.4194 32.7736C36.3442 32.7274 36.2605 32.6968 36.1732 32.6835Z" fill="#FFF8E5"/>
<path d="M32.6833 28.2857C32.1897 28.4845 31.6634 28.7114 31.116 28.9875C30.4961 29.2939 29.9464 29.6074 29.4341 29.9232C29.2843 30.0147 29.1769 30.162 29.1357 30.3326C29.0945 30.5033 29.1227 30.6833 29.2142 30.8331C29.2731 30.9299 29.3558 31.0098 29.4546 31.0651C29.5534 31.1204 29.6648 31.1493 29.778 31.1489C29.8996 31.1495 30.0188 31.1154 30.1218 31.0507C30.5897 30.7629 31.1254 30.4682 31.7032 30.1805C32.2155 29.9255 32.7137 29.7126 33.1745 29.5255C33.259 29.496 33.3365 29.4497 33.4025 29.3894C33.4686 29.3292 33.5217 29.2561 33.5587 29.1747C33.5958 29.0934 33.6159 29.0053 33.618 28.9159C33.6201 28.8266 33.604 28.7377 33.5708 28.6547C33.5376 28.5717 33.488 28.4962 33.4248 28.4329C33.3617 28.3696 33.2863 28.3198 33.2034 28.2864C33.1204 28.253 33.0316 28.2368 32.9422 28.2387C32.8528 28.2406 32.7647 28.2605 32.6833 28.2974V28.2857Z" fill="#FFF8E5"/>
<path d="M21.9436 33.7852C21.7773 33.7333 21.5973 33.7485 21.4421 33.8276C21.2869 33.9068 21.1688 34.0435 21.1132 34.2086L20.5915 35.846C20.5653 35.9287 20.5556 36.0157 20.5629 36.1021C20.5703 36.1885 20.5946 36.2726 20.6344 36.3496C20.6743 36.4266 20.7289 36.495 20.7952 36.5509C20.8615 36.6068 20.9382 36.649 21.0208 36.6753C21.1034 36.7016 21.1904 36.7113 21.2768 36.7039C21.3632 36.6966 21.4473 36.6723 21.5243 36.6324C21.6013 36.5926 21.6698 36.5379 21.7256 36.4716C21.7815 36.4053 21.8238 36.3287 21.8501 36.2461L22.3717 34.6086C22.4232 34.4426 22.4071 34.2631 22.327 34.1089C22.2468 33.9547 22.1091 33.8384 21.9436 33.7852Z" fill="#FFF8E5"/>
</svg>
